<svg xmlns:xlink="http://www.w3.org/1999/xlink" xmlns="http://www.w3.org/2000/svg" width="381" height="322" viewBox="0 0 381 322" fill="none">
<rect x="380.271" y="321.6" width="309.866" height="217.589" transform="rotate(180 380.271 321.6)" fill="#FD3C2D"/>
<mask id="mask0" mask-type="alpha" maskUnits="userSpaceOnUse" x="70" y="104" width="311" height="218">
<rect x="380.271" y="321.6" width="309.866" height="217.589" transform="rotate(180 380.271 321.6)" fill="#FD3C2D"/>
</mask>
<g mask="url(#mask0)">
<path d="M421.057 288.229C398.39 274.715 295.726 268.263 238.082 335.364C208.239 370.098 187.329 405.382 188.558 444.252C188.647 446.629 188.91 449.088 190.578 450.894C196.588 457.301 210.608 449.6 217.896 442.432C244.892 415.861 266.504 374.223 274.425 342.415C291.056 275.671 276.123 239.493 219.075 255.746C174.641 268.387 125.937 359.155 113.158 359.631C88.075 360.575 108.505 299.786 123.234 277.5C137.963 255.213 155.597 233.344 162.632 209.65C164.101 204.698 163.88 198.163 157.853 197.352" fill="#FD3C2D"/>
<path d="M421.057 288.229C398.39 274.715 295.726 268.263 238.082 335.364C208.239 370.098 187.329 405.382 188.558 444.252C188.647 446.629 188.91 449.088 190.578 450.894C196.588 457.301 210.608 449.6 217.896 442.432C244.892 415.861 266.504 374.223 274.425 342.415C291.056 275.671 276.123 239.493 219.075 255.746C174.641 268.387 125.937 359.155 113.158 359.631C88.075 360.575 108.505 299.786 123.234 277.5C137.963 255.213 155.597 233.344 162.632 209.65C164.101 204.698 163.88 198.163 157.853 197.352" stroke="black" stroke-width="8" stroke-miterlimit="10"/>
<path d="M286.26 106.051C309.179 127.61 311.92 135.791 340.601 155.321C370.402 175.61 408.145 162.925 415.525 159.544" fill="#FD3C2D"/>
<path d="M286.26 106.051C309.179 127.61 311.92 135.791 340.601 155.321C370.402 175.61 408.145 162.925 415.525 159.544" stroke="black" stroke-width="8" stroke-miterlimit="10"/>
</g>
<rect x="58.7861" y="72.9881" width="293.215" height="217.589" fill="white"/>
<rect x="30.2456" width="143.865" height="143.865" fill="#FDC800"/>
<path d="M226.078 112.752C226.078 135.366 244.171 153.698 266.489 153.698C288.807 153.698 306.899 135.366 306.899 112.752L226.078 112.752Z" fill="#FFBFE1"/>
<path d="M226.078 167.123C226.078 189.263 244.171 207.212 266.489 207.212C288.807 207.212 306.899 189.263 306.899 167.123L226.078 167.123Z" fill="#3821C3"/>
<rect x="221.886" y="220.636" width="89.204" height="40.0285" fill="#FDC800"/>
<ellipse cx="266.488" cy="112.752" rx="13.5762" ry="13.6655" transform="rotate(-90 266.488 112.752)" fill="#FD3C2D"/>
<rect x="87.0557" y="201.026" width="85.527" height="7.35807" fill="black"/>
<rect x="87.0552" y="218.998" width="85.527" height="7.35807" fill="black"/>
<rect x="87.0552" y="236.97" width="85.527" height="6.54051" fill="black"/>
<rect x="87.0552" y="254.124" width="85.527" height="6.54051" fill="black"/>
<rect y="23.2571" width="143.865" height="143.865" fill="#FFBFE1"/>
<path d="M82.675 137.353L73.4493 110.086H48.4262L38.695 137.353H48.1734V139.752H28.8374V137.353H34.7772L67.0039 50.627H77.367L109.215 137.353H115.028V139.752H73.702V137.353H82.675ZM61.4433 74.2337L49.5636 107.308H72.4383L61.4433 74.2337Z" fill="#FD3C2D"/>
<script xmlns=""/></svg>