<svg xmlns:xlink="http://www.w3.org/1999/xlink" xmlns="http://www.w3.org/2000/svg" width="352" height="352" viewBox="0 0 352 352" fill="none">
<path d="M175.66 284.868C236.151 284.868 285.189 235.974 285.189 175.66C285.189 115.346 236.151 66.4514 175.66 66.4514C115.169 66.4514 66.1318 115.346 66.1318 175.66C66.1318 235.974 115.169 284.868 175.66 284.868Z" fill="#FDC800"/>
<mask id="mask0" mask-type="alpha" maskUnits="userSpaceOnUse" x="66" y="66" width="220" height="219">
<path d="M175.66 284.868C236.151 284.868 285.189 235.974 285.189 175.66C285.189 115.346 236.151 66.4514 175.66 66.4514C115.169 66.4514 66.1318 115.346 66.1318 175.66C66.1318 235.974 115.169 284.868 175.66 284.868Z" fill="#FDC800"/>
</mask>
<g mask="url(#mask0)">
<path d="M-25.5649 216.192C13.9764 214.67 153.796 191.86 92.6047 298.273M138.875 281.782C193.24 263.541 357.041 219.164 490.218 218.276M395.766 165.499C313.83 189.542 183.171 200.773 183.171 200.773C262.246 167.264 267.845 154.443 254.118 133.92C232.267 101.297 55.9595 96.9181 50.132 133.583C44.3046 170.248 198.309 168.192 281.42 73.3481" stroke="black" stroke-width="5" stroke-miterlimit="10" stroke-linecap="round" stroke-linejoin="round"/>
</g>
<path d="M175.66 252.506C218.226 252.506 252.732 218.101 252.732 175.66C252.732 133.218 218.226 98.8129 175.66 98.8129C133.095 98.8129 98.5884 133.218 98.5884 175.66C98.5884 218.101 133.095 252.506 175.66 252.506Z" fill="white"/>
<path d="M175.66 217.93C199.074 217.93 218.054 199.005 218.054 175.66C218.054 152.315 199.074 133.39 175.66 133.39C152.247 133.39 133.266 152.315 133.266 175.66C133.266 199.005 152.247 217.93 175.66 217.93Z" fill="#FD3C2D"/>
<path d="M175.66 164.94C181.598 164.94 186.412 169.739 186.412 175.66C186.412 181.58 181.598 186.38 175.66 186.38C169.722 186.38 164.909 181.58 164.909 175.66C164.909 169.739 169.722 164.94 175.66 164.94Z" fill="black"/>
<path d="M109.208 66.4514L242.111 66.4514C242.111 29.7282 212.339 -3.50256e-05 175.659 -3.34223e-05C138.98 -3.1819e-05 109.208 29.7282 109.208 66.4514Z" fill="#FFBFE1"/>
<path d="M242.111 284.868L109.208 284.868C109.208 321.591 138.98 351.319 175.66 351.319C212.339 351.319 242.111 321.591 242.111 284.868Z" fill="#FFBFE1"/>
<path d="M66.4517 242.111L66.4516 109.208C29.7285 109.208 0.000204607 138.98 0.000207814 175.659C0.00021102 212.339 29.7285 242.111 66.4517 242.111Z" fill="white"/>
<path d="M284.868 109.208L284.868 242.111C321.591 242.111 351.319 212.339 351.319 175.659C351.319 138.98 321.591 109.208 284.868 109.208Z" fill="#FFBFE1"/>
<path d="M350.096 66.4514H284.868V1.22339C320.892 1.22339 350.096 30.4274 350.096 66.4514Z" fill="white"/>
<path d="M1.22365 66.4515H66.4517V1.22351C30.4277 1.22351 1.22365 30.4275 1.22365 66.4515Z" fill="#FD3C2D"/>
<path d="M66.4512 350.096L66.4512 284.868L1.22314 284.868C1.22314 320.892 30.4271 350.096 66.4512 350.096Z" fill="#FD3C2D"/>
<path d="M350.096 284.868H284.868V350.096C320.892 350.096 350.096 320.892 350.096 284.868Z" fill="#FD3C2D"/>
<path d="M175.659 285.13C236.183 285.13 285.247 236.209 285.247 175.863C285.247 115.516 236.183 66.5956 175.659 66.5956C115.136 66.5956 66.0718 115.516 66.0718 175.863C66.0718 236.209 115.136 285.13 175.659 285.13Z" fill="#FDC800"/>
<path d="M175.66 252.751C218.249 252.751 252.774 218.327 252.774 175.863C252.774 133.399 218.249 98.9747 175.66 98.9747C133.071 98.9747 98.5464 133.399 98.5464 175.863C98.5464 218.327 133.071 252.751 175.66 252.751Z" fill="white"/>
<path d="M175.66 218.156C199.086 218.156 218.077 199.221 218.077 175.863C218.077 152.505 199.086 133.57 175.66 133.57C152.233 133.57 133.243 152.505 133.243 175.863C133.243 199.221 152.233 218.156 175.66 218.156Z" fill="#FD3C2D"/>
<path d="M183.261 168.287L267.634 84.1604" stroke="black" stroke-width="15" stroke-miterlimit="10" stroke-linecap="round" stroke-linejoin="round"/>
<path d="M199.538 184.521H166.983V152.053L199.538 184.521Z" fill="black"/>
<script xmlns=""/></svg>