<svg xmlns:xlink="http://www.w3.org/1999/xlink" xmlns="http://www.w3.org/2000/svg" width="461" height="282" viewBox="0 0 461 282" fill="none">
<path d="M45.7256 273.762H150.53V3.89978H72.4326C56.2465 20.0835 37.6326 31.0074 0 45.9773V109.498C14.9721 107.071 27.1116 103.429 45.7256 95.7421V273.762Z" fill="white"/>
<g clip-path="url(#clip0)">
<path d="M320.169 0V281.562C397.969 281.562 460.95 218.488 460.95 140.781C460.95 63.0736 397.969 0 320.169 0Z" fill="#FFBFE1"/>
<path d="M320.169 77.4294V204.225C355.179 204.225 383.521 175.883 383.521 140.873C383.521 105.863 355.179 77.4294 320.169 77.4294Z" fill="#3821C3"/>
<g clip-path="url(#clip1)">
<path d="M320.738 282.721V0C242.657 0 179.378 63.284 179.378 141.372C179.378 219.461 242.657 282.721 320.738 282.721Z" fill="#FD3C2D"/>
<path d="M208.727 223.819C213.304 203.561 210.772 187.953 201.179 177.41C199.28 175.316 197.162 173.489 194.849 171.858C190.88 169.082 186.352 166.988 181.458 165.381C181.775 167.183 182.091 168.985 182.456 170.762C188.47 173.027 193.729 176.192 197.698 180.575C206.024 189.706 208.264 203.536 204.369 221.628C205.27 222.943 206.17 224.233 207.12 225.5C207.923 225.256 208.532 224.672 208.727 223.819Z" fill="white" stroke="white" stroke-width="2"/>
<path d="M274.537 229.371C273.417 230.028 273.052 231.465 273.685 232.585C274.343 233.705 275.779 234.095 276.899 233.437C286.102 228.081 301.466 219.777 320.749 210.281V205.07C300.321 215.005 284.106 223.771 274.537 229.371Z" fill="white" stroke="white" stroke-width="2"/>
<path d="M289.146 110.351C293.066 114.199 294.551 116.999 294.283 120.042C293.626 127.664 281.72 138.791 253.185 158.514C252.235 159.172 251.894 160.414 252.406 161.461C252.917 162.508 254.086 163.019 255.181 162.702C255.668 162.556 286.078 153.425 320.724 140.496V135.504C299.907 143.32 280.454 149.797 267.964 153.791C289.608 137.988 298.252 128.492 298.958 120.432C299.445 114.734 295.939 110.449 292.433 106.991C289.268 103.874 283.692 101.853 276.607 100.709C286.346 91.2127 295.135 80.2312 302.196 67.7399C302.829 66.6199 302.464 65.1346 301.319 64.5502C300.199 63.9171 298.763 64.3067 298.13 65.4268C290.582 78.7459 281.014 90.2388 270.496 99.9785C244.712 97.8358 205.075 104.873 182.018 114.296C181.653 116.122 181.312 117.948 181.044 119.775C203.297 109.84 240.768 103.168 265.772 104.167C235.801 129.806 199.572 141.908 179.413 142.249C179.413 143.832 179.461 145.414 179.534 146.997C202.567 146.802 241.425 132.875 272.395 104.702C280.162 105.555 286.102 107.381 289.146 110.351Z" fill="white" stroke="white" stroke-width="2"/>
<path d="M274.099 29.8767C274.561 28.6592 273.928 27.32 272.711 26.8574C271.494 26.4191 270.155 27.0278 269.692 28.2453C265.48 39.6408 235.265 54.6157 204.563 60.8734C203.346 62.6266 202.177 64.4041 201.033 66.206C233.804 60.3378 268.816 44.1211 274.099 29.8767Z" fill="white" stroke="white" stroke-width="2"/>
</g>
</g>
<defs>
<clipPath id="clip0">
<rect x="179.388" width="281.562" height="281.562" fill="white"/>
</clipPath>
<clipPath id="clip1">
<rect x="179.388" width="141.36" height="282.721" fill="white"/>
</clipPath>
</defs>
<script xmlns=""/></svg>