<svg width="758" height="1072" viewBox="0 0 758 1072" fill="none" xmlns="http://www.w3.org/2000/svg">
<g clip-path="url(#clip0_1885_152)">
<rect width="757.048" height="1071.22" fill="#FFF3D7"/>
<rect x="66.1689" y="80.5244" width="624.711" height="782.884" fill="#FFC300"/>
<path d="M596.977 157.01C597.007 157.01 597.053 156.523 597.038 156.523C596.672 156.432 596.307 156.386 595.927 156.326C595.91 156.538 595.91 156.752 595.896 156.965C596.262 156.994 596.626 157.025 596.977 157.01Z" fill="#329E6C"/>
<path d="M411.314 657.547C421.658 652.093 432.348 655.008 441.732 648.064C449.928 641.999 458.064 627.954 466.156 622.189C468.389 620.599 470.987 619.612 473.581 618.722C488.638 613.556 513.841 624.496 528.872 619.259C540.102 615.346 550.216 607.53 558.037 598.146C564.595 590.278 575.695 586.177 585.951 582.759C605.276 576.317 616.907 590.631 645.536 579.18C664.614 571.55 663.853 555.334 674.165 542.681C689.912 523.356 681.997 496.92 682.038 496.876C680.976 499.743 667.578 516.136 631.084 514.119C615.948 513.282 586.114 500.874 572.709 507.97C554.458 517.632 552.311 538.029 541.575 544.469C519.967 557.434 497.559 549.837 483.601 555.563C477.274 558.159 465.808 559.213 460.34 562.362C448.53 569.161 448.888 589.558 437.078 598.862C428.294 605.781 412.316 603.169 404.87 612.103C397.712 620.69 397.051 630.197 391.628 634.468C382.251 640.686 396.458 668.602 390.912 678.125C382.537 692.508 379.461 701.956 374.168 715.745C373.176 718.522 372.308 721.339 372.475 724.367C372.521 725.266 372.546 733.381 372.303 733.411C369.502 728.807 366.08 719.311 363.834 714.445C362.201 710.509 360.853 709.442 359.42 705.261C359.42 686.72 363.623 672.258 364.669 664.823C366.054 654.96 367.21 648.11 370.144 638.561C370.935 635.987 372.321 633.565 372.9 630.947C376.323 618.512 386.905 610.115 396.996 602.916C403.18 598.746 411.975 596.172 418.707 593.016C429.598 588.621 434.286 572.462 437.554 565.582C440.167 561.664 442.501 557.242 445.547 553.654C452.222 547.766 461.737 540.616 470.837 539.221C483.85 537.577 495.552 538.153 507.513 532.548C516.61 527.646 527.341 524.781 532.277 514.76C534.47 510.588 537.121 506.597 539.968 502.82C545.975 494.099 555.002 488.201 564.749 484.347C570.92 481.907 577.059 479.258 582.919 476.122C588.212 473.29 605.355 459.536 607.532 457.389C604.912 454.8 603.511 451.633 599.978 450.46C594.83 456.232 578.426 464.775 576.797 465.462C568.332 469.299 558.925 471.62 550.996 476.457C544.845 480.863 538.445 484.982 534.075 491.382C531.605 495 528.306 498.447 525.842 502.428C523.251 506.611 520.317 510.74 515.663 512.781C507.718 516.777 499.745 520.872 491.521 524.248C488.597 525.407 485.459 526.655 482.398 526.73C476.39 526.8 470.533 527.722 464.732 529.169C443.821 533.498 430.953 551.916 422.317 570.234C420.742 573.573 419.183 577.062 416.424 579.515C413.817 581.833 410.41 582.982 407.16 584.247C388.133 591.654 370.996 605.609 363.188 624.472C359.575 633.197 358.047 642.638 357.119 652.036C355.767 665.721 352.401 677.796 352.267 691.546C345.111 669.896 340.497 667.623 327.105 642.517C325.796 640.064 324.462 637.488 324.429 634.707C324.379 630.409 323.096 607.779 324.89 603.874C334.91 582.045 343.086 586.018 349.332 583.092C356.919 579.541 358.096 574.693 361.851 572.573C365.562 570.477 369.828 569.65 373.916 568.447C386.59 564.72 395.832 564.392 404.156 554.133C408.339 548.98 413.855 539.695 419.902 536.956C427.137 533.679 431.712 518.706 451.395 519.779C468.216 520.696 492.233 511.052 500.422 503.318C512.157 492.235 503.822 478.985 512.769 470.039C531.924 450.884 532.987 457.513 543.88 447.307C547.525 443.891 550.833 439.527 551.956 434.612C553.21 429.118 556.754 412.532 557.323 407.057C558.479 395.941 554.641 386.186 549.988 379.861C546.052 393.102 538.747 404.52 530.305 409.92C503.582 424.225 491.005 431.683 481.089 435.837C473.195 439.143 466.674 445.457 461.629 452.25C459.097 455.659 454.143 473.984 438.931 476.272C429.81 477.643 415.972 466.277 397.419 476.272C387.628 481.548 377.233 504.523 370.699 513.346C365.071 520.947 343.5 519.779 332.048 530.276C327.19 534.73 324.672 538.551 321.683 544.154C319.555 548.141 315.169 551.773 314.037 556.11C306.581 584.712 322.195 619.367 320.954 627.03C318.821 626.191 301.962 588.289 301.262 586.737C299.391 582.171 296.398 577.525 296.449 572.467C297.799 555.733 299.232 538.706 311.954 526.32C319.143 517.377 330.941 514.944 340.968 510.542C347.022 506.802 353.966 504.257 358.894 498.937C366.175 492.166 370.001 483.122 375.375 474.919C383.219 464.775 394.189 457.378 407.069 456.246C412.543 455.811 417.601 453.74 422.742 451.968C432.296 449.522 436.123 444.389 444.121 438.835C447.702 436.486 455.757 420.82 458.24 417.058C460.356 413.843 464.195 403.837 463.265 402.405C461.315 399.407 463.256 396.608 460.682 393.911C457.259 400.208 449.608 424.675 426.641 436.6C415.904 440.259 404.773 443.214 393.803 446.105C389.082 447.185 384.878 448.982 380.766 451.511C376.319 454.236 371.993 456.841 369.007 461.348C366.723 464.792 359.099 475.873 357.615 477.965C355.346 481.163 352.695 484.102 350.519 487.362C345.211 495.51 335.571 499.071 326.834 502.09C318.274 504.508 310.5 509.692 303.851 515.34C295.703 523.268 291.107 533.189 288.713 544.246C288.315 545.54 288.024 547.374 287.283 553.674C285.857 550.589 284.773 541.361 283.38 538.397C281.236 534.283 281.166 529.678 279.74 525.421C277.12 518.404 275.041 502.403 274.253 495.172C273.292 487.291 275.916 485.914 281.589 481.931C294.771 472.354 325.912 490.568 337.775 476.27C350.301 461.175 369.78 444.598 381.435 432.906C385.812 427.912 393.97 418.81 395.749 412.15C398.845 401.307 398.475 396.276 406.485 389.521C413.009 384.018 417.952 378.502 424.463 372.983C426.581 371.187 428.637 369.344 430.83 366.739C429.649 368.145 414.785 368.209 412.127 368.589C404.941 369.618 397.825 370.431 390.737 372.084C387.218 372.904 376.426 371.354 362.353 384.787C355.105 391.705 350.764 399.602 344.988 407.487C339.049 415.593 327.894 419.564 318.395 423.322C310.129 426.594 301.178 428.972 294.115 434.608C291.36 437.457 276.222 453.217 278.645 469.175C279.486 474.705 275.132 479.318 272.02 484.085C272.54 483.291 270.649 478.427 270.398 477.389C269.827 475.022 269.261 472.651 268.772 470.266C267.815 465.592 268.666 456.126 268.109 452.501C267.068 445.715 265.636 439.253 267.273 437.557C273.298 431.366 276.044 424.252 281.708 418.147C290.089 409.116 296.202 399.773 304.851 390.951C313.675 381.602 311.065 374.422 321.668 370.79C326.512 368.853 332.246 366.182 337.059 364.232C342.192 361.461 349.36 360.205 352.3 354.616C356.432 348.769 365.007 346.488 371.902 346.239C376.319 346.147 380.629 346.147 385.03 347.412C388.549 348.418 392.463 347.991 396.179 348.386C406.812 349.208 416.993 345.91 426.321 341.108C435.813 336.222 442.942 327.865 453.019 323.609C461.107 320.194 466.786 313.6 476.287 312.39C485.873 311.169 496.138 314.627 504.849 318.276C513.466 321.359 522.492 322.931 531.351 325.13C544.415 328.368 562.096 323.841 574.575 319.934C574.284 317.84 576.215 315.612 575.631 313.578C575.375 312.683 575.005 311.696 574.155 311.318C573.416 310.988 572.561 311.233 571.786 311.473C559.925 315.144 545.015 316.751 532.627 315.925C520.588 315.123 509.889 310.139 498.405 306.838C489.976 304.416 481.289 301.626 472.406 303.138C466.028 304.052 450.294 313.86 439.416 320.744C428.25 327.808 417.251 336.756 403.517 337.527C394.636 338.025 385.576 334.918 376.832 336.233C373.193 336.78 369.628 337.573 365.882 337.329C359.039 337.77 351.65 339.145 347.148 344.882C345.656 346.726 343.965 348.416 342.366 350.168C333.549 359.599 322.809 359.426 312.354 365.636C305.208 370.104 304.816 376.622 298.951 384.787C293.086 392.952 286.71 398.986 279.722 408.726C278.29 410.722 268.391 424.908 267.63 427.45C266.837 425.363 269.226 413.662 270.107 411.234C272.518 404.593 272.999 399.537 275.789 392.952C277.891 387.987 281.17 379.919 281.597 374.422C281.78 372.015 291.089 352.09 293.086 347.985C295.756 342.803 297.833 342.234 301.032 337.359C309.395 324.608 314.863 323.235 320.586 318.644C323.982 316.008 327.759 313.877 331.14 311.226C334.69 308.44 338.787 307.678 342.974 307.739C356.461 308.013 366.902 316.506 379.747 319.129C392.025 321.637 404.696 320.128 416.72 317.031C425.543 314.757 435.725 300.068 442.625 293.976C450.479 286.933 457.048 279.4 468.468 279.272C473.472 279.215 478.407 280.321 483.294 281.407C496.133 284.26 508.584 285.859 521.717 286.223C540.581 286.747 548.629 274.531 561.794 263.203C571.867 256.581 574.688 240.629 576.109 232.784C578.595 219.071 589.654 214.028 596.064 210.055C587.381 206.41 565.111 208.096 562.876 208.882C547.838 214.176 535.885 226.815 528.454 230.569C524.114 232.794 519.681 234.628 514.975 236.083C505.967 238.87 488.44 231.168 482.349 230.28C476.075 228.986 464.455 229.207 451.215 233.5C440.762 236.891 433.007 245.269 423.659 251.034C410.06 261.769 415.787 273.579 394.314 278.23C386.011 280.028 369.264 269.643 351.848 279.543C348.499 281.447 342.385 285.904 339.919 289.086C339.126 290.122 334.977 296.42 330.615 299.105C322.234 304.264 313.593 318.779 305.087 326.063C309.764 312.161 321.013 301.238 321.668 300.262C331.988 284.26 336.367 279.885 351.793 268.506C356.196 265.597 360.185 262.003 365.395 260.297C367.924 259.475 370.131 257.723 372.599 256.641C386.824 250.419 399.888 244.909 412.79 236.122C425.847 227.228 438.356 217.53 450.219 207.097C459.532 198.906 469.01 189.951 481.051 186.974C487.779 185.31 494.824 185.663 501.74 186.132C522.724 187.553 544.649 189.801 564.066 181.722C572.129 178.367 579.45 173.327 587.696 170.447C591.251 169.206 595.247 168.172 597.408 165.089C599.568 162.004 597.675 156.325 593.953 156.904C576.504 169.799 555.022 177.149 533.33 177.647C512.294 178.13 490.131 172.54 470.868 181.003C459.25 186.107 450.347 195.703 440.85 204.12C433.052 211.031 424.664 217.275 415.805 222.762C415.607 208.276 422.595 207.54 427.238 199.509C430.217 194.355 434.321 181.052 439.824 178.78C442.435 177.702 445.32 177.319 447.799 175.965C451.175 174.121 453.363 170.742 455.765 167.736C464.882 156.325 489.597 154.445 497.042 141.882C514.025 113.225 497.658 109.151 509.288 98.9236C514.581 94.2701 519.074 88.066 523.526 82.6034C527.636 77.5617 528.859 70.6162 528.026 64.165C527.193 57.7138 524.5 51.6544 521.466 45.9006C519.334 53.0365 516.199 60.0955 510.866 65.2945C497.35 78.4697 472.578 77.3549 462.835 93.5232C454.787 106.876 460.697 127.169 448.691 137.115C444.874 140.276 439.931 141.635 435.299 143.403C422.967 148.111 411.774 156.551 405.383 168.1C398.991 179.65 397.933 194.421 404.165 206.059C406.701 210.793 410.838 211.439 411.554 217.879C411.554 217.879 411.12 225.211 409.813 227.19C408.378 229.367 406.111 230.837 403.878 232.178C392.421 239.067 379.836 243.419 367.942 249.414C366.962 249.91 365.412 250.965 363.361 251.911C364.473 246.714 365.013 241.059 367.021 236.737C368.85 232.62 379.382 231.529 382.207 228.017C390.209 218.072 386.367 214.672 389.363 207.977C393.49 198.762 385.047 184.507 389.841 171.238C400.339 156.327 393.596 142.2 391.646 134.687C390.127 127.557 394.339 120.901 392.697 113.794C391.588 108.996 391.749 104.216 390.077 99.438C384.759 84.2399 392.767 76.4066 389.944 55.3285C382.275 56.4653 374.196 66.9952 372.786 68.3517C369.452 71.5609 364.213 80.5896 362.845 82.1951C354.001 92.5859 347.419 110.056 351.582 122.782C355.784 135.63 355.745 137.541 351.39 150.786C350.116 156.234 346.865 160.774 344.142 165.563C341.246 171.176 336.691 176.21 335.203 182.33C329.676 205.048 340.019 218.483 346.692 226.522C349.627 230.055 356.399 227.316 359.951 231.184C362.495 233.954 359.881 244.34 358.091 249.01C358.078 249.044 357.351 251.093 357.336 251.126C356.87 252.116 352.448 257.837 351.61 258.522C348.031 261.462 345.702 261.934 342.015 264.751C341.361 265.24 338.562 267.113 337.176 267.706C337.116 265.573 337.182 259.867 337.491 258.317C338.167 254.935 336.404 250.086 335.864 245.198C334.624 233.976 331.847 231.305 324.888 222.535C321.089 216.726 319.352 213.118 316.538 206.789C312.066 196.408 317.772 191.794 319.878 182.932C322.245 171.174 317.452 158.857 313.461 148.099C312.805 146.103 312.212 143.97 312.243 141.9C312.315 133.765 315.681 128.659 315.561 120.419C312.606 121.181 310.061 121.836 307.564 122.49C309.634 132.227 304.699 134.462 304.701 142.715C304.715 144.573 305.371 146.445 305.828 148.304C306.817 152.232 307.595 156.238 308.919 160.045C311.438 166.802 313.461 173.523 312.011 180.865C312.148 183.851 311.02 186.652 309.453 188.862C302.839 198.654 307.588 209.755 313.305 218.377C314.585 220.464 316.108 222.428 317.419 224.515C319.277 227.485 320.798 230.714 322.931 233.454C330.584 243.155 330.196 255.539 329.923 267.188C330.368 273.375 327.449 275.526 324.76 282.007C324.744 282.19 317.022 292.334 316.002 293.201C313.794 295.074 309.68 301.09 309.148 301.745C303.674 308.475 301.867 314.106 296.618 325.796C295.972 327.237 291.488 331.879 287.193 339.872C286.596 330.926 291.51 322.781 291.845 320.191C292.083 312.224 284.824 305.959 285.264 297.97C286.062 283.479 295.232 281.342 305.383 272.753C314.14 265.341 313.836 238.692 307.108 229.506C303.734 224.9 298.472 221.861 294.258 218.119C288.087 212.638 279.874 207.276 276.194 199.695C272.203 191.476 271.93 181.775 269.902 173.025C267.646 163.3 268.474 152.131 264.41 143.057C258.326 132.679 253.315 129.459 246.649 125.957C241.966 123.496 226.918 119.641 223.231 115.956C214.033 110.808 204.37 106.138 194.261 102.98C194.155 103.149 194.063 103.33 194.2 103.315C205.899 115.086 216.664 127.905 223.641 143.081C227.167 150.528 228.388 158.892 229.779 166.962C230.834 178.469 224.792 187.503 226.832 198.881C230.57 219.739 250.419 227.908 256.713 241.381C260.157 248.753 257.914 260.788 253.573 265.89C251.746 268.052 250.344 270.26 249.736 272.956C248.061 280.389 247.915 290.847 252.956 297.289C256.034 302.333 276.469 319.788 278.007 324.128C280.701 331.698 278.472 333.822 280.496 341.604C281.333 344.817 281.67 348.396 281.197 351.656C280.634 355.478 279.004 359.163 277.739 362.88C276.064 367.753 272.912 372.079 272.318 377.364C271.678 383.998 268.033 389.856 266.043 396.143C262.859 393.71 265.742 381.754 264.291 377.226C265.83 366.444 264.453 355.024 260.605 344.848C259.036 341.086 256.25 337.827 253.903 334.415C253.033 333.073 244.216 325.719 241.536 322.673C238.353 319.063 234.241 316.262 231.209 312.546C228.163 308.813 221.568 295.274 220.792 292.731C215.084 277.48 220.464 263.825 215.199 248.539C212.383 239.627 206.247 230.319 202.56 228.506C195.85 222.372 186.268 216.309 179.771 207.386C172.462 197.352 168.222 183.956 160.268 167.665C157.985 162.989 152.577 161.1 148.981 157.537C145.543 154.257 143.042 150.198 140.254 146.374C139.203 144.911 138.456 142.918 137.024 142.125C135.487 141.272 133.339 141.44 131.435 141.332C129.471 141.21 127.475 141.301 124.901 141.301C128.268 147.408 131.085 153.089 135.518 157.658C141.48 164.324 151.182 167.789 155.348 175.859C162.792 190.275 159.014 196.473 183.688 224.433C187.787 229.077 198.918 233.235 206.688 250.544C211.303 260.823 209.066 268.969 208.938 280.112C207.968 292.919 211.84 301.02 218.242 311.244C219.582 313.331 220.999 315.493 222.826 317.093C227.396 321.099 234.393 330.759 239.143 334.565C240.454 335.616 250.536 348.425 251.907 352.309C253.237 355.617 254.983 358.73 254.39 362.574C253.323 369.496 255.256 379.013 255.541 386.144C255.842 393.647 260.547 402.444 260.946 401.695C261.072 407.533 261.782 417.142 260.148 422.822C259.108 426.438 258.857 430.835 258.353 436.345C238.074 420.122 248.365 413.658 238.473 407.837C224.128 397.303 232.959 368.328 227.187 351.954C221.409 331.544 198.479 330.516 186.032 314.023C181.98 306.926 186.718 292.405 183.168 285.066C181.874 282.384 181.341 279.232 180.944 276.231C180.472 272.638 180.609 268.982 180.305 265.357C179.388 257.522 176.131 249.769 170.084 244.448C157.106 227.13 122.593 223.922 107.844 226.342C117.761 234.835 130.21 239.225 132.869 268.019C133.758 277.654 127.512 295.929 128.969 305.509C135.221 346.58 140.972 355.495 150.609 375.207C157.468 389.237 183.273 398.625 194.984 408.487C215.382 425.664 220.171 415.917 233.276 426.379C241.09 431.983 249.727 436.221 255.422 443.714C255.955 444.4 257.885 456.81 258.372 460.406C259.452 468.375 260.078 474.941 261.164 482.906C261.715 486.948 262.515 490.963 263.029 495.009C263.835 501.328 265.451 514.606 266.401 520.94C261.707 515.01 249.278 508.632 248.35 507.124C241.417 502.45 242.55 500.307 235.27 493.638C233.274 491.811 228.684 486.937 227.238 484.713C223.902 479.584 221.151 474.278 218.707 468.667C212.473 454.352 205.826 445.532 196.731 432.843C195.42 431.016 191.489 427.449 189.616 426.048C181.94 419.61 172.508 416.014 163.237 412.448C153.556 409.376 143.804 404.602 137.543 396.212C134.87 392.044 131.723 388.13 129.044 383.969C126.485 378.713 123.973 373.413 121.474 368.128C120.515 366.118 120.5 364.223 118.43 364.679C116.099 365.197 113.785 365.792 111.5 366.446C109.582 366.995 109.611 367.359 110.114 369.4C111.119 373.437 113.496 376.772 115.323 380.397C117.774 385.256 120.456 389.96 124.065 394.057C125.161 395.322 125.952 397.781 126.851 399.167C132.149 407.339 142.663 413.03 151.324 417.341C167.915 425.6 183.39 426.817 192.324 444.627C193.237 446.317 202.944 463.666 207.867 472.451C213.735 482.057 214.399 485.762 222.52 493.544C225.638 495.173 232.324 505.672 234.563 507.759C237.532 510.514 240.625 513.332 244.129 515.281C247.404 517.094 250.662 518.952 253.405 521.388C257.548 525.059 261.356 529.126 265.102 533.207C271.828 540.074 273.587 548.374 276.099 557.256C278.063 562.205 280.852 566.82 282.237 572.044C283.09 575.272 296.345 603.312 299.483 608.612C298.751 608.795 277.496 603.456 277.296 603.244C264.188 589.602 261.515 576.559 245.258 567.415C227.084 557.981 229.821 536.967 223.615 519.149C221.285 511.031 206.725 498.697 199.997 494.816C190.766 490.038 177.779 484.407 168.147 480.503C155.509 475.662 147.119 479.719 136.713 470.399C131.093 465.601 125.648 463.238 120.013 458.471C116.61 455.716 106.544 452.798 102.182 453.997C107.311 457.958 110.422 472.303 115.753 479.567C120.928 487.726 124.909 496.583 132.675 502.793C138.687 509.35 147.388 511.874 155.185 515.662C166.928 521.546 176.828 536.001 178.527 550.999C180.301 567.453 184.021 595.808 198.21 605.391C220.757 622.541 214.45 625.552 242.232 625.951C255.825 626.147 282.662 604.692 302.348 615.411C311.092 626.512 308.789 635.008 334.198 679.106C322.508 667.536 306.859 669.232 303.659 669.563C299.045 670.096 292.779 670.907 288.391 672.545C271.452 678.866 263.439 665.929 259.642 661.691C255.256 656.315 250.494 652.196 244.493 649.287C236.403 646.144 221.676 644.086 213.716 647.617C191.648 656.205 173.897 652.214 165.524 648.333C149.686 636.734 149.42 632.946 142.742 638.217C144.574 640.974 147.009 643.226 149.512 645.362C150.764 646.429 152.038 647.473 153.27 648.562C154.102 649.298 160.559 654.316 163.151 655.473C170.28 658.656 177.453 661.596 185.418 662.25C192.668 662.845 199.766 662.189 206.543 659.936C213.046 657.788 219.287 655.639 226.004 655.608C228.776 655.593 237.062 656.489 237.814 656.681C245.687 658.709 251.585 666.244 257.616 671.829C260.151 674.239 262.608 676.629 265.288 678.833C278.043 689.678 292.402 679.743 306.579 679.139C318.244 678.982 336.9 687.608 340.563 692.318C342.756 697.023 346.484 702.5 348.723 707.177C355.253 721.081 365.692 742.225 370.521 756.852C366.256 752.356 366.256 752.356 363.186 748.442C360.813 745.418 357.717 743.296 354.642 741.346C346.242 736.027 346.209 734.026 336.883 732.1C332.224 731.139 324.332 721.991 319.945 720.171C310.515 716.261 299.983 720.223 290.604 716.192C282.486 712.702 274.46 713.054 266.57 716.937C259.326 720.351 252.55 725.35 244.211 725.391C236.46 725.94 228.604 728.92 221.422 731.77C215.022 734.311 209.2 738.513 202.054 738.513C194.34 738.513 186.801 735.697 179.708 732.942C170.128 729.22 152.049 718.659 151.105 718.736C150.792 726.972 151.507 734.487 155.802 741.645C167.157 760.567 183.901 779.045 207.9 774.675C218.559 772.735 230.808 768.837 240.617 775.64C243.618 777.696 246.649 779.585 250.031 780.925C256.277 783.462 264.739 777.797 268.748 773.127C270.835 770.584 273.058 768.147 275.374 765.817C282.457 758.73 293.707 757.987 302.171 763.464C309.503 768.21 313.204 773.359 322.541 770.943C329.906 769.037 335.474 769.291 343.686 768.147C351.557 767.051 350.484 754.168 361.219 755.6C363.204 755.865 372.078 761.264 373.387 762.758C378.132 768.189 379.913 773.464 382.333 781.177C384.708 788.752 386.085 793.149 387.771 800.891C388.701 805.156 392.5 826.254 394.052 838.43C388.148 829.127 376.189 813.277 371.146 808.968C361.844 797.277 336.964 793.319 333.282 792.946C323.653 792.633 313.675 793.299 305.898 799.739C297.429 804.078 292.061 819.465 303.659 816.354C310.264 816.686 316.901 816.854 323.504 817.087C332.819 818.763 342.194 820.045 350.995 823.864C366.087 830.342 382.663 839.453 392.979 852.266C392.979 853.971 390.367 865.07 392.741 870.516C394.195 873.848 396.794 876.603 400.007 875.036C402.646 873.749 404.888 874.43 406.521 872.61C409.535 869.251 408.187 857.057 409.441 852.744C415.168 833.063 437.111 822.194 452.812 814.972C460.861 811.269 469.085 807.963 477.261 804.552C484.394 801.577 493.026 799.267 498.681 793.694C504.162 788.294 500.677 784.093 493.95 782.427C487.819 780.907 480.315 780.285 474.572 781.177C454.306 784.323 447.836 784.613 431.69 797.639C425.142 802.923 422.236 806.63 416.6 813.024C414.954 814.699 406.221 831.095 405.505 838.789C404.528 833.072 403.431 809.53 402.219 803.988C401.243 799.694 399.839 793.127 399.077 788.818C395.648 769.409 389.112 767.742 382.513 749.162C385.532 747.556 390.722 741.561 393.785 741.647C412.931 742.183 404.7 759.181 421.755 764.993C428.393 767.254 433.746 761.749 439.271 759.243C444.385 756.924 449.945 756.936 455.375 758.075C464.772 760.045 481.547 772.431 491.483 773.496C508.313 775.3 526.796 763.272 530.847 762.403C541.149 760.171 546.7 747.699 557.186 749.198C567.603 750.688 577.894 753.264 588.463 753.456C606.041 753.722 626.163 745.455 635.191 728.955C642.331 715.906 653.295 695.604 647.689 679.024C644.826 683.676 633.479 687.61 630.553 689.222C615.646 697.521 604.121 699.108 587.397 694.972C573.531 691.544 558.916 686.746 545.306 693.792C537.464 697.852 528.87 700.129 520.057 700.766C517.939 701.016 499.357 691.547 488.619 693.731C478.488 695.791 473.179 703.267 465.698 708.199C456.413 718.03 435.41 702.551 432.077 702.284C425.35 701.744 420.102 702.831 413.773 705.387C401.179 710.473 399.641 719.889 389.669 729.121C384.838 733.594 382.917 745.497 380.375 745.817C378.099 740.66 377.063 738.963 377.323 737.531C377.87 734.41 380.931 721.649 382.333 718.923C387.249 710.247 389.589 701.629 393.785 692.622C397.236 685.217 427.972 673.477 435.661 672.21C443.123 671.251 449.795 668.311 455.902 664.016C459.397 661.678 461.451 657.819 464.431 654.971C476.366 643.564 497.213 650.096 511.851 650.286C528.35 650.5 546.16 648.536 560.353 639.431C570.41 632.979 578.344 622.572 589.936 619.687C604.61 616.035 618.915 625.686 633.594 629.311C643.193 631.68 653.427 631.427 662.897 628.588C663.699 628.348 664.596 627.994 664.876 627.205C665.034 626.762 664.953 626.272 664.832 625.816C663.677 621.461 659.177 618.75 654.748 617.915C650.32 617.08 645.758 617.653 641.256 617.419C631.716 616.923 622.795 612.844 613.829 609.545C604.864 606.246 595.046 603.663 585.846 606.235C574.507 609.404 566.717 619.561 556.833 625.959C540.858 636.3 523.927 637.92 504.902 637.514C494.928 637.302 481.682 635.628 471.978 638.05C463.225 640.234 453.154 648.571 447.464 655.227C443.793 659.522 439.178 661.213 433.818 661.669C429.506 662.035 421.993 663.652 418.17 665.966C416.358 667.062 411.065 665.55 399.077 677.717C403.837 663.039 408.755 658.898 411.314 657.547Z" fill="#329E6C"/>
<path d="M97.4333 567.708C111.949 568.307 134.929 579.964 139.718 582.707C150.221 588.72 163.858 597.557 165.804 610.824C167.049 619.312 163.093 628.451 157.264 635.532C149.888 644.491 131.45 655.638 119.483 648.676C116.663 647.036 114.847 644.173 113.128 641.392C106.139 630.08 100.068 625.698 94.7568 613.354C92.0381 607.034 89.7222 600.495 88.0617 593.715C86.6795 588.069 84.2208 580.287 85.6159 574.211C86.7784 569.14 91.3681 567.459 97.4333 567.708Z" fill="#3D5ECA"/>
<path d="M662.188 401.347C664.394 403.951 662.999 418.706 660.158 424.591C651.107 443.339 650.83 450.457 636.005 465.281C631.336 469.949 625.359 471.498 621.221 471.106C615.041 470.522 608.293 466.297 604.252 462.835C601.063 460.1 597.299 457.327 594.535 454.176C591.928 451.205 589.967 447.469 588.111 443.993C585.875 439.808 584.799 433.664 585.474 428.937C586.157 424.163 592.363 419.035 595.851 416.117C600.076 412.582 604.523 410.711 609.563 408.56C618.953 404.555 628.576 401.029 638.632 399.098C645.806 397.719 658.94 397.516 662.188 401.347Z" fill="#3D5ECA"/>
<path d="M104.705 386.733C97.9367 388.934 90.6211 388.756 83.5251 384.829C76.0373 380.687 70.741 373.329 67.4713 365.421C64.2016 357.512 62.7498 348.993 61.3218 340.555C60.1629 333.708 54.019 319.415 59.4673 313.324C63.6999 308.594 74.6826 315.005 79.1643 316.65C92.9113 321.696 106.759 327.513 118.998 335.64C123.366 338.539 127.761 341.879 129.922 346.655C137.413 363.217 119.563 381.904 104.705 386.733Z" fill="#3D5ECA"/>
<path d="M476.642 420.502C470.229 420.73 466.751 417.565 462.492 413.278C457.26 408.011 451.314 402.517 447.357 396.196C445.344 392.978 444.657 388.93 445.682 385.256C446.92 380.822 449.957 379.032 453.598 376.767C454.598 376.145 455.504 375.382 456.401 374.624C458.197 373.106 460.061 371.731 462.097 370.55C466.558 367.962 471.412 366.184 476.073 364.01C480.732 361.835 485.732 360.427 490.803 359.623C495.111 358.94 500.336 357.859 504.272 360.29C520.609 370.378 502.915 395.35 495.184 405.38C490.825 411.033 484.553 420.22 476.642 420.502Z" fill="#3D5ECA"/>
<path d="M153.43 142.195C150.435 144.256 146.977 145.889 144.207 148.117C134.094 156.247 125.744 157.916 116.918 157.916C113.201 157.916 107.925 145.885 105.65 142.867C103.306 139.758 102.237 135.91 100.454 132.476C94.4656 120.939 94.4327 106.449 94.4931 99.9452C94.5334 95.6413 94.0208 90.9969 96.1682 87.3906C97.9239 84.4414 99.2091 81.1242 102.57 79.6725C108.385 77.1609 115.642 80.7874 120.541 83.8318C124.946 86.5686 141.371 99.8115 145.036 104.157C149.756 109.756 173.221 128.573 153.43 142.195Z" fill="#3D5ECA"/>
<path d="M711.232 600.871C714.902 602.398 724.038 609.627 725.244 611.71C728.342 617.017 724.387 621.848 720.246 626.278C712.197 634.89 706.161 640.356 694.627 643.216C686.614 645.202 678.968 648.168 670.726 649.297C663.544 650.265 657.021 645.8 654.544 638.952C653.135 635.069 651.476 631.446 650.837 627.357C650.035 622.224 648.342 616.536 648.397 611.346C648.43 607.368 649.958 604.347 653.138 601.475C657.353 597.684 661.794 595.121 667.323 594.295C673.16 593.424 679.287 594.026 685.171 594.116C694.577 594.26 702.332 597.378 711.232 600.871Z" fill="#3D5ECA"/>
<path d="M336.783 118.192C336.585 121.771 335.806 125.342 333.567 127.828C330.042 131.742 323.205 131.263 318.388 131.781C312.328 132.434 306.184 132.863 300.128 131.936C287.327 129.978 280.058 118.038 281.074 105.632C281.7 97.9815 285.063 90.9207 287.296 83.6713C289.497 76.5336 291.599 69.1396 297.065 63.73C302.138 58.7104 309.232 56.6235 314.386 62.7671C321.961 71.7977 328.625 82.2068 332.732 93.425C334.839 99.1788 336.28 105.207 336.657 111.334C336.787 113.412 336.915 115.805 336.783 118.192Z" fill="#3D5ECA"/>
<path d="M588.298 343.021C588.19 343.027 588.084 343.032 587.976 343.038C585.953 343.137 583.882 343.12 581.967 342.461C577.268 340.845 573.284 332.195 571.662 328.081C568.815 320.859 568.861 316.561 566.889 309.046C565.512 303.803 566.649 298.87 571.713 296.259C576.614 293.733 580.634 291.294 585.921 290.077C590.738 288.968 595.465 287.254 600.426 286.899C611.491 286.106 623.686 289.909 634.372 293.293C636.606 294.002 638.837 294.829 640.745 296.193C644.428 298.828 646.334 303.983 643.804 308.085C641.679 311.527 637.087 319.71 633.779 322.038C630.29 324.495 627.011 327.186 623.761 329.95C612.553 339.486 603.456 342.185 588.298 343.021Z" fill="#3D5ECA"/>
<path d="M637.542 123.489C640.891 124.114 644.464 126.069 644.044 130.081C643.872 131.73 643.811 133.725 643.055 137.216C641.133 146.089 635.769 152.09 631.721 160.207C628.376 166.914 622.821 172.355 617.257 177.549C611.935 182.518 603.276 185.611 596.104 183.236C593.082 182.235 590.76 179.81 588.815 177.29C583.825 170.826 577.13 164.97 574.001 157.157C569.772 146.595 576.442 138.975 584.346 132.587C588.805 128.982 594.319 126.827 599.885 125.641C607.337 124.051 615.02 124.054 622.628 123.602C625.5 123.431 632.348 122.52 637.542 123.489Z" fill="#3D5ECA"/>
<rect x="185.28" y="863.408" width="413.046" height="207.812" fill="#FFF3D7"/>
<path d="M331.809 948.241C331.809 945.086 331.852 943.357 332.154 939.727H327.227C327.487 943.357 327.573 945.086 327.573 948.241V956.668H311.755V948.241C311.755 945.086 311.841 943.357 312.101 939.727H307.174C307.433 943.357 307.52 945.086 307.52 948.241V965.788C307.52 968.943 307.433 970.671 307.174 974.302H312.101C311.841 970.671 311.755 968.943 311.755 965.788V957.36H327.573V965.788C327.573 968.943 327.487 970.671 327.227 974.302H332.154C331.852 970.671 331.809 968.943 331.809 965.788V948.241ZM363.891 975.166C374.955 975.166 383.253 967.646 383.253 957.014C383.253 946.426 374.955 938.862 363.891 938.862C352.827 938.862 344.572 946.426 344.572 957.014C344.572 967.646 352.827 975.166 363.891 975.166ZM363.891 974.475C354.728 974.475 349.239 966.133 349.239 957.014C349.239 947.938 354.728 939.554 363.891 939.554C373.053 939.554 378.585 947.938 378.585 957.014C378.585 966.133 373.053 974.475 363.891 974.475ZM395.369 974.302H400.296C400.037 970.671 399.95 968.943 399.95 965.788V958.311H403.365C411.058 958.311 417.757 956.539 417.757 949.019C417.757 941.499 411.058 939.727 403.365 939.727H395.369C395.629 943.357 395.715 945.086 395.715 948.241V965.788C395.715 968.943 395.629 970.671 395.369 974.302ZM399.95 957.619V940.418H403.322C408.378 940.418 413.348 942.147 413.348 949.019C413.348 955.89 408.378 957.619 403.322 957.619H399.95ZM429.907 939.727C430.253 943.357 430.296 945.086 430.296 948.241V965.788C430.296 968.943 430.253 970.671 429.907 974.302H450.22L451.474 971.968C446.633 973.394 443.694 973.61 439.415 973.61H434.575V956.323H437.341C439.632 956.323 441.965 956.323 445.985 956.755V955.199C441.965 955.631 439.632 955.631 437.341 955.631H434.575V940.418H438.508C440.453 940.418 444.688 940.677 448.362 942.147L450.307 939.727H429.907Z" fill="#1B59B0"/>
<path d="M287.59 1016.85H289.751L292.95 1026.26L296.127 1016.85H298.265V1027.98H296.832V1021.41C296.832 1021.18 296.837 1020.81 296.848 1020.28C296.858 1019.75 296.863 1019.19 296.863 1018.59L293.686 1027.98H292.192L288.993 1018.59V1018.93C288.993 1019.2 288.998 1019.62 289.008 1020.18C289.023 1020.74 289.031 1021.15 289.031 1021.41V1027.98H287.59V1016.85ZM301.427 1025.82C301.427 1026.22 301.571 1026.53 301.859 1026.75C302.147 1026.98 302.488 1027.1 302.883 1027.1C303.363 1027.1 303.828 1026.98 304.278 1026.76C305.036 1026.39 305.415 1025.79 305.415 1024.95V1023.85C305.248 1023.96 305.033 1024.05 304.771 1024.12C304.508 1024.19 304.25 1024.24 303.997 1024.27L303.171 1024.37C302.675 1024.44 302.304 1024.54 302.056 1024.68C301.637 1024.92 301.427 1025.3 301.427 1025.82ZM304.733 1023.06C305.046 1023.02 305.256 1022.89 305.362 1022.67C305.423 1022.55 305.453 1022.37 305.453 1022.14C305.453 1021.68 305.286 1021.34 304.952 1021.14C304.624 1020.92 304.151 1020.82 303.535 1020.82C302.822 1020.82 302.317 1021.01 302.018 1021.39C301.852 1021.61 301.743 1021.92 301.692 1022.34H300.419C300.444 1021.34 300.767 1020.65 301.389 1020.26C302.016 1019.86 302.741 1019.67 303.565 1019.67C304.52 1019.67 305.296 1019.85 305.893 1020.21C306.484 1020.58 306.78 1021.14 306.78 1021.91V1026.59C306.78 1026.73 306.808 1026.84 306.863 1026.93C306.924 1027.01 307.048 1027.06 307.235 1027.06C307.295 1027.06 307.364 1027.06 307.439 1027.05C307.515 1027.04 307.596 1027.03 307.682 1027.01V1028.02C307.47 1028.08 307.308 1028.12 307.197 1028.13C307.086 1028.15 306.934 1028.16 306.742 1028.16C306.272 1028.16 305.931 1027.99 305.718 1027.66C305.607 1027.48 305.529 1027.23 305.483 1026.91C305.205 1027.27 304.806 1027.59 304.285 1027.85C303.765 1028.12 303.191 1028.26 302.564 1028.26C301.811 1028.26 301.194 1028.03 300.714 1027.57C300.239 1027.11 300.002 1026.54 300.002 1025.85C300.002 1025.1 300.237 1024.52 300.707 1024.1C301.177 1023.69 301.793 1023.43 302.557 1023.34L304.733 1023.06ZM309.888 1024.02C309.888 1024.89 310.073 1025.61 310.442 1026.2C310.811 1026.79 311.402 1027.08 312.216 1027.08C312.848 1027.08 313.366 1026.81 313.77 1026.27C314.18 1025.72 314.384 1024.94 314.384 1023.93C314.384 1022.9 314.174 1022.14 313.755 1021.65C313.335 1021.16 312.817 1020.91 312.201 1020.91C311.513 1020.91 310.955 1021.17 310.525 1021.7C310.101 1022.22 309.888 1023 309.888 1024.02ZM311.943 1019.72C312.565 1019.72 313.085 1019.85 313.505 1020.11C313.747 1020.26 314.023 1020.53 314.331 1020.91V1016.81H315.643V1027.98H314.415V1026.85C314.096 1027.35 313.72 1027.72 313.285 1027.94C312.85 1028.16 312.352 1028.27 311.791 1028.27C310.887 1028.27 310.103 1027.89 309.441 1027.13C308.779 1026.37 308.448 1025.36 308.448 1024.09C308.448 1022.91 308.748 1021.89 309.35 1021.02C309.956 1020.15 310.821 1019.72 311.943 1019.72ZM321.049 1019.68C321.625 1019.68 322.183 1019.82 322.724 1020.09C323.265 1020.36 323.677 1020.71 323.96 1021.14C324.233 1021.55 324.415 1022.02 324.506 1022.57C324.587 1022.94 324.627 1023.54 324.627 1024.36H318.676C318.701 1025.18 318.895 1025.84 319.259 1026.35C319.623 1026.84 320.187 1027.09 320.95 1027.09C321.663 1027.09 322.231 1026.85 322.656 1026.38C322.899 1026.11 323.07 1025.79 323.172 1025.44H324.514C324.478 1025.73 324.359 1026.07 324.157 1026.44C323.96 1026.8 323.738 1027.1 323.49 1027.33C323.076 1027.74 322.562 1028.01 321.951 1028.15C321.622 1028.23 321.251 1028.27 320.836 1028.27C319.825 1028.27 318.969 1027.9 318.266 1027.17C317.564 1026.43 317.212 1025.4 317.212 1024.08C317.212 1022.77 317.566 1021.72 318.274 1020.9C318.981 1020.09 319.906 1019.68 321.049 1019.68ZM323.225 1023.27C323.169 1022.68 323.04 1022.21 322.838 1021.86C322.464 1021.2 321.84 1020.87 320.965 1020.87C320.338 1020.87 319.813 1021.1 319.388 1021.55C318.964 1022 318.739 1022.58 318.713 1023.27H323.225ZM331.261 1019.86L332.823 1026.26L334.408 1019.86H335.939L337.531 1026.22L339.192 1019.86H340.557L338.199 1027.98H336.781L335.128 1021.7L333.528 1027.98H332.111L329.768 1019.86H331.261ZM341.853 1019.9H343.241V1027.98H341.853V1019.9ZM341.853 1016.85H343.241V1018.39H341.853V1016.85ZM345.583 1017.6H346.963V1019.86H348.26V1020.98H346.963V1026.28C346.963 1026.56 347.059 1026.75 347.251 1026.85C347.358 1026.9 347.534 1026.93 347.782 1026.93C347.848 1026.93 347.919 1026.93 347.994 1026.93C348.07 1026.92 348.159 1026.92 348.26 1026.91V1027.98C348.103 1028.03 347.939 1028.06 347.767 1028.08C347.6 1028.1 347.418 1028.11 347.221 1028.11C346.584 1028.11 346.152 1027.95 345.925 1027.63C345.697 1027.3 345.583 1026.87 345.583 1026.35V1020.98H344.484V1019.86H345.583V1017.6ZM349.632 1016.81H350.997V1020.96C351.32 1020.55 351.611 1020.26 351.869 1020.1C352.308 1019.81 352.857 1019.67 353.514 1019.67C354.692 1019.67 355.49 1020.08 355.91 1020.9C356.137 1021.35 356.251 1021.98 356.251 1022.77V1027.98H354.848V1022.87C354.848 1022.27 354.773 1021.83 354.621 1021.55C354.373 1021.11 353.908 1020.89 353.226 1020.89C352.66 1020.89 352.147 1021.08 351.687 1021.47C351.227 1021.86 350.997 1022.59 350.997 1023.68V1027.98H349.632V1016.81ZM362.635 1016.85H364V1027.98H362.635V1016.85ZM369.276 1027.1C370.181 1027.1 370.8 1026.76 371.134 1026.08C371.473 1025.39 371.642 1024.63 371.642 1023.79C371.642 1023.03 371.521 1022.42 371.278 1021.94C370.894 1021.19 370.232 1020.82 369.292 1020.82C368.458 1020.82 367.851 1021.14 367.472 1021.77C367.093 1022.41 366.903 1023.18 366.903 1024.08C366.903 1024.94 367.093 1025.66 367.472 1026.24C367.851 1026.82 368.453 1027.1 369.276 1027.1ZM369.33 1019.63C370.376 1019.63 371.26 1019.98 371.983 1020.67C372.706 1021.37 373.067 1022.4 373.067 1023.75C373.067 1025.06 372.749 1026.14 372.112 1027C371.475 1027.85 370.487 1028.28 369.148 1028.28C368.031 1028.28 367.143 1027.9 366.486 1027.15C365.829 1026.39 365.501 1025.37 365.501 1024.1C365.501 1022.74 365.847 1021.65 366.539 1020.84C367.232 1020.03 368.162 1019.63 369.33 1019.63ZM375.365 1019.86L377.533 1026.47L379.8 1019.86H381.294L378.231 1027.98H376.775L373.78 1019.86H375.365ZM385.843 1019.68C386.419 1019.68 386.977 1019.82 387.518 1020.09C388.059 1020.36 388.471 1020.71 388.754 1021.14C389.027 1021.55 389.209 1022.02 389.3 1022.57C389.381 1022.94 389.421 1023.54 389.421 1024.36H383.47C383.495 1025.18 383.689 1025.84 384.053 1026.35C384.417 1026.84 384.981 1027.09 385.744 1027.09C386.457 1027.09 387.025 1026.85 387.45 1026.38C387.693 1026.11 387.865 1025.79 387.966 1025.44H389.308C389.272 1025.73 389.153 1026.07 388.951 1026.44C388.754 1026.8 388.532 1027.1 388.284 1027.33C387.87 1027.74 387.357 1028.01 386.745 1028.15C386.416 1028.23 386.045 1028.27 385.63 1028.27C384.62 1028.27 383.763 1027.9 383.06 1027.17C382.358 1026.43 382.006 1025.4 382.006 1024.08C382.006 1022.77 382.36 1021.72 383.068 1020.9C383.775 1020.09 384.7 1019.68 385.843 1019.68ZM388.019 1023.27C387.963 1022.68 387.834 1022.21 387.632 1021.86C387.258 1021.2 386.634 1020.87 385.759 1020.87C385.133 1020.87 384.607 1021.1 384.182 1021.55C383.758 1022 383.533 1022.58 383.508 1023.27H388.019ZM395.767 1018.63C395.788 1018.06 395.886 1017.65 396.063 1017.38C396.381 1016.92 396.996 1016.69 397.905 1016.69C397.991 1016.69 398.08 1016.69 398.171 1016.69C398.262 1016.7 398.365 1016.71 398.482 1016.72V1017.96C398.34 1017.95 398.236 1017.94 398.171 1017.94C398.11 1017.94 398.052 1017.94 397.996 1017.94C397.582 1017.94 397.334 1018.05 397.253 1018.26C397.172 1018.48 397.132 1019.02 397.132 1019.9H398.482V1020.98H397.117V1027.98H395.767V1020.98H394.638V1019.9H395.767V1018.63ZM402.97 1027.1C403.875 1027.1 404.494 1026.76 404.828 1026.08C405.166 1025.39 405.336 1024.63 405.336 1023.79C405.336 1023.03 405.214 1022.42 404.972 1021.94C404.587 1021.19 403.925 1020.82 402.985 1020.82C402.151 1020.82 401.545 1021.14 401.166 1021.77C400.786 1022.41 400.597 1023.18 400.597 1024.08C400.597 1024.94 400.786 1025.66 401.166 1026.24C401.545 1026.82 402.146 1027.1 402.97 1027.1ZM403.023 1019.63C404.069 1019.63 404.954 1019.98 405.677 1020.67C406.4 1021.37 406.761 1022.4 406.761 1023.75C406.761 1025.06 406.442 1026.14 405.806 1027C405.169 1027.85 404.181 1028.28 402.841 1028.28C401.724 1028.28 400.837 1027.9 400.18 1027.15C399.523 1026.39 399.194 1025.37 399.194 1024.1C399.194 1022.74 399.541 1021.65 400.233 1020.84C400.925 1020.03 401.856 1019.63 403.023 1019.63ZM408.429 1019.86H409.725V1021.27C409.832 1020.99 410.092 1020.66 410.506 1020.27C410.921 1019.88 411.398 1019.68 411.939 1019.68C411.965 1019.68 412.008 1019.68 412.068 1019.69C412.129 1019.69 412.232 1019.7 412.379 1019.72V1021.16C412.298 1021.14 412.222 1021.13 412.152 1021.13C412.086 1021.12 412.013 1021.12 411.932 1021.12C411.244 1021.12 410.716 1021.34 410.347 1021.79C409.978 1022.23 409.794 1022.74 409.794 1023.31V1027.98H408.429V1019.86ZM419.703 1016.85V1023.73C419.703 1024.54 419.855 1025.21 420.158 1025.75C420.608 1026.56 421.366 1026.96 422.433 1026.96C423.711 1026.96 424.581 1026.52 425.041 1025.65C425.288 1025.17 425.412 1024.53 425.412 1023.73V1016.85H426.944V1023.1C426.944 1024.47 426.759 1025.52 426.39 1026.26C425.713 1027.61 424.434 1028.28 422.554 1028.28C420.674 1028.28 419.397 1027.61 418.725 1026.26C418.356 1025.52 418.172 1024.47 418.172 1023.1V1016.85H419.703ZM429.074 1016.85H430.386V1023.31L433.889 1019.86H435.632L432.524 1022.9L435.807 1027.98H434.063L431.531 1023.89L430.386 1024.94V1027.98H429.074V1016.85ZM436.906 1019.86H438.203V1021.27C438.309 1020.99 438.569 1020.66 438.984 1020.27C439.398 1019.88 439.876 1019.68 440.417 1019.68C440.442 1019.68 440.485 1019.68 440.545 1019.69C440.606 1019.69 440.71 1019.7 440.856 1019.72V1021.16C440.775 1021.14 440.7 1021.13 440.629 1021.13C440.563 1021.12 440.49 1021.12 440.409 1021.12C439.722 1021.12 439.193 1021.34 438.824 1021.79C438.455 1022.23 438.271 1022.74 438.271 1023.31V1027.98H436.906V1019.86ZM443.085 1025.82C443.085 1026.22 443.229 1026.53 443.518 1026.75C443.806 1026.98 444.147 1027.1 444.541 1027.1C445.021 1027.1 445.486 1026.98 445.936 1026.76C446.694 1026.39 447.073 1025.79 447.073 1024.95V1023.85C446.907 1023.96 446.692 1024.05 446.429 1024.12C446.166 1024.19 445.908 1024.24 445.656 1024.27L444.829 1024.37C444.334 1024.44 443.962 1024.54 443.715 1024.68C443.295 1024.92 443.085 1025.3 443.085 1025.82ZM446.391 1023.06C446.704 1023.02 446.914 1022.89 447.02 1022.67C447.081 1022.55 447.111 1022.37 447.111 1022.14C447.111 1021.68 446.944 1021.34 446.611 1021.14C446.282 1020.92 445.81 1020.82 445.193 1020.82C444.48 1020.82 443.975 1021.01 443.677 1021.39C443.51 1021.61 443.401 1021.92 443.351 1022.34H442.077C442.102 1021.34 442.426 1020.65 443.047 1020.26C443.674 1019.86 444.4 1019.67 445.223 1019.67C446.179 1019.67 446.955 1019.85 447.551 1020.21C448.142 1020.58 448.438 1021.14 448.438 1021.91V1026.59C448.438 1026.73 448.466 1026.84 448.521 1026.93C448.582 1027.01 448.706 1027.06 448.893 1027.06C448.954 1027.06 449.022 1027.06 449.098 1027.05C449.174 1027.04 449.254 1027.03 449.34 1027.01V1028.02C449.128 1028.08 448.966 1028.12 448.855 1028.13C448.744 1028.15 448.592 1028.16 448.4 1028.16C447.93 1028.16 447.589 1027.99 447.377 1027.66C447.265 1027.48 447.187 1027.23 447.142 1026.91C446.864 1027.27 446.464 1027.59 445.944 1027.85C445.423 1028.12 444.849 1028.26 444.223 1028.26C443.469 1028.26 442.853 1028.03 442.373 1027.57C441.898 1027.11 441.66 1026.54 441.66 1025.85C441.66 1025.1 441.895 1024.52 442.365 1024.1C442.835 1023.69 443.452 1023.43 444.215 1023.34L446.391 1023.06ZM450.682 1019.9H452.07V1027.98H450.682V1019.9ZM450.682 1016.85H452.07V1018.39H450.682V1016.85ZM454.14 1019.86H455.436V1021.02C455.82 1020.54 456.227 1020.2 456.657 1019.99C457.086 1019.78 457.564 1019.68 458.09 1019.68C459.242 1019.68 460.021 1020.08 460.425 1020.89C460.647 1021.33 460.759 1021.96 460.759 1022.77V1027.98H459.371V1022.87C459.371 1022.37 459.298 1021.97 459.151 1021.67C458.909 1021.16 458.469 1020.91 457.832 1020.91C457.508 1020.91 457.243 1020.94 457.036 1021.01C456.662 1021.12 456.333 1021.34 456.05 1021.67C455.823 1021.94 455.674 1022.22 455.603 1022.51C455.537 1022.79 455.504 1023.2 455.504 1023.73V1027.98H454.14V1019.86ZM466.164 1019.68C466.741 1019.68 467.299 1019.82 467.84 1020.09C468.381 1020.36 468.793 1020.71 469.076 1021.14C469.349 1021.55 469.531 1022.02 469.622 1022.57C469.703 1022.94 469.743 1023.54 469.743 1024.36H463.791C463.817 1025.18 464.011 1025.84 464.375 1026.35C464.739 1026.84 465.303 1027.09 466.066 1027.09C466.778 1027.09 467.347 1026.85 467.772 1026.38C468.014 1026.11 468.186 1025.79 468.287 1025.44H469.629C469.594 1025.73 469.475 1026.07 469.273 1026.44C469.076 1026.8 468.853 1027.1 468.606 1027.33C468.191 1027.74 467.678 1028.01 467.067 1028.15C466.738 1028.23 466.367 1028.27 465.952 1028.27C464.941 1028.27 464.084 1027.9 463.382 1027.17C462.679 1026.43 462.328 1025.4 462.328 1024.08C462.328 1022.77 462.682 1021.72 463.389 1020.9C464.097 1020.09 465.022 1019.68 466.164 1019.68ZM468.34 1023.27C468.285 1022.68 468.156 1022.21 467.954 1021.86C467.58 1021.2 466.955 1020.87 466.081 1020.87C465.454 1020.87 464.929 1021.1 464.504 1021.55C464.079 1022 463.854 1022.58 463.829 1023.27H468.34Z" fill="#1B59B0"/>
</g>
<defs>
<clipPath id="clip0_1885_152">
<rect width="757.048" height="1071.22" fill="white"/>
</clipPath>
</defs>
</svg>
