<svg width="135" height="40" viewBox="0 0 135 40" fill="none" xmlns="http://www.w3.org/2000/svg">
<path d="M19.0623 39.2135H25.551V10.7781H19.0623V27.5973C19.0623 31.6509 16.5388 34.0709 12.3932 34.0709C8.0073 34.0709 6.50526 31.0459 6.50526 27.5973V10.7781H0.0164792V29.3519C0.0164792 35.4624 2.59998 40 9.38917 40C14.1356 40 17.7405 37.5195 19.0022 31.4089H19.0623V39.2135Z" fill="white"/>
<path d="M36.2582 22.3943C36.2582 18.3407 38.7816 15.9207 42.9272 15.9207C47.3132 15.9207 48.8152 18.9457 48.8152 22.3943V39.2135H55.304V20.7002C55.304 14.5292 52.7205 10.0521 45.9313 10.0521C41.1849 10.0521 37.58 12.5326 36.3183 18.5827H36.2582V10.7781H29.7694V39.2135H36.2582V22.3943Z" fill="white"/>
<path d="M71.6588 34.0709C66.6119 34.0709 64.3288 30.8039 64.3288 25.1168C64.3288 19.2482 66.7321 15.8602 71.6588 15.8602C76.285 15.8602 79.1689 19.3692 79.1689 24.8143V25.2983C79.1689 30.9249 76.285 34.0709 71.6588 34.0709ZM79.1689 39.2135H85.6577V2.12648H79.1689V18.9457H79.1089C77.8472 13.0771 74.6628 9.99159 69.0152 10.0521C61.9256 9.99159 57.9002 15.6787 57.9002 25.1168C57.9002 34.3129 61.6853 40 69.0152 40C74.4826 40 77.7871 36.9145 79.0488 31.1669H79.1689V39.2135Z" fill="white"/>
<path d="M102.708 15.5577C107.154 15.5577 109.437 17.8567 109.798 22.2733H95.0177C95.7387 17.6752 98.4424 15.5577 102.708 15.5577ZM102.888 39.9395C110.338 39.9395 114.184 36.1884 115.626 30.7434L109.978 29.1099C109.137 32.0139 107.455 34.2524 102.948 34.2524C98.3222 34.2524 95.5585 31.8929 94.9577 27.1133H115.686C115.806 25.6008 115.806 24.4513 115.806 23.3018C115.806 15.4972 111.48 10.0521 102.888 10.0521C94.1165 10.0521 88.4689 15.7392 88.4689 25.3588C88.4689 34.7364 94.2367 39.9395 102.888 39.9395Z" fill="white"/>
<path d="M125.207 39.2135V24.8143C125.207 19.8532 127.189 18.0987 132.236 18.0987H135V10.7781H133.378C129.112 10.7781 126.589 12.7141 125.327 20.0952H125.207V10.7781H118.718V39.2135H125.207Z" fill="white"/>
<path d="M0 0H25.5902V6.53558H0V0Z" fill="white"/>
</svg>
