<svg width="1440" height="900" viewBox="0 0 1440 900" fill="none" xmlns="http://www.w3.org/2000/svg">
<rect width="1440" height="900" fill="#303030"/>
<rect width="333.749" height="593.904" transform="translate(558.435 153.051)" fill="#1A1A1A"/>
<line x1="580.586" y1="173.726" x2="658.936" y2="173.726" stroke="white" stroke-width="2.81249" stroke-linecap="round"/>
<line opacity="0.3" x1="671.366" y1="173.726" x2="749.716" y2="173.726" stroke="white" stroke-width="2.81249" stroke-linecap="round"/>
<line opacity="0.3" x1="763.281" y1="173.726" x2="841.631" y2="173.726" stroke="white" stroke-width="2.81249" stroke-linecap="round"/>
<path d="M862.034 168.388L875.522 181.876" stroke="white"/>
<path d="M862.034 181.876L875.522 168.388" stroke="white"/>
<path d="M612.248 691.519V685.707H606.435V679.895H600.623V262.495H606.435V256.683H612.248V250.87H844.183V256.683H849.995V262.495H855.808V679.895H849.995V685.707H844.183V691.519H612.248Z" fill="#0171EA" stroke="#0171EA" stroke-width="2.31796"/>
<path d="M611.453 685.881V680.069H605.641V674.256H599.828V256.684H605.641V250.872H611.453V245.059L838.372 245.059V250.872H844.184V256.684H849.996V674.256H844.184V680.069H838.372V685.881H611.453Z" fill="#22D285" stroke="#0171EA" stroke-width="2.31796"/>
<path d="M637.482 396.254C644.344 396.254 649.284 392.823 649.284 386.968C649.284 374.755 631.033 379.924 631.033 372.147C631.033 369.449 633.366 367.71 637.208 367.71C641.142 367.71 643.704 369.86 644.024 373.154H648.644C648.232 367.299 643.749 363.502 637.208 363.502C630.758 363.502 626.275 367.024 626.275 372.147C626.275 383.949 644.435 379.329 644.435 387.014C644.435 390.49 641.508 392.046 637.482 392.046C632.954 392.046 630.255 389.393 629.889 385.276H625.269C625.635 391.909 630.255 396.254 637.482 396.254ZM668.763 388.386C668.122 390.994 665.927 392.457 662.542 392.457C658.516 392.457 655.68 389.484 655.314 385.138H672.925C672.971 384.727 673.017 383.995 673.017 383.4C673.017 377.545 669.22 372.468 662.084 372.468C654.994 372.468 650.969 377.774 650.969 384.224C650.969 390.628 655.406 396.254 662.542 396.254C668.214 396.254 672.376 393.144 673.2 388.386H668.763ZM662.084 376.036C665.881 376.036 668.259 378.368 668.534 381.891H655.451C656.138 378.048 658.47 376.036 662.084 376.036ZM678.502 372.834H673.791V376.676H678.502V388.341C678.502 393.052 681.476 395.888 686.142 395.888H689.755V391.863H686.508C684.266 391.863 682.94 390.49 682.94 388.02V376.676H689.755V372.834H682.94V365.606H678.502V372.834ZM641.005 417.834L634.921 435.125L628.883 417.834H624.308L632.862 441.117L629.752 450.22H634.006L637.482 440.065L645.579 417.834H641.005ZM657.323 441.254C664.23 441.254 669.17 436.268 669.17 429.361C669.17 422.454 664.23 417.468 657.323 417.468C650.415 417.468 645.429 422.454 645.429 429.361C645.429 436.268 650.415 441.254 657.323 441.254ZM657.323 437.366C652.931 437.366 649.958 434.072 649.958 429.361C649.958 424.649 652.931 421.356 657.323 421.356C661.668 421.356 664.641 424.649 664.641 429.361C664.641 434.072 661.668 437.366 657.323 437.366ZM688.152 417.834V430.321C688.152 434.347 685.59 437.274 681.976 437.274C678.729 437.274 676.579 434.804 676.579 431.145V417.834H672.142V432.014C672.142 437.503 675.527 441.254 680.741 441.254C684.172 441.254 686.917 439.699 688.152 436.817V440.888H692.589V417.834H688.152ZM710.259 417.834H707.469C704.221 417.834 702.391 419.206 701.339 422.271V417.834H696.902V440.888H701.339V430.459C701.339 425.427 702.711 421.676 706.92 421.676H710.259V417.834ZM720.021 441.254C725.235 441.254 728.666 438.555 728.666 434.347C728.666 423.826 715.492 429.681 715.492 423.963C715.492 422.179 717.093 420.99 719.472 420.99C721.439 420.99 724 422.042 724.32 424.695H728.483C728.254 420.349 724.686 417.468 719.472 417.468C714.669 417.468 711.284 420.121 711.284 424.1C711.284 433.935 724.366 428.309 724.366 434.438C724.366 436.131 722.674 437.549 720.021 437.549C717.047 437.549 715.126 436.039 714.852 433.386H710.689C711.009 438.235 714.623 441.254 720.021 441.254ZM748.238 433.386C747.598 435.994 745.402 437.457 742.017 437.457C737.992 437.457 735.156 434.484 734.79 430.138H752.401C752.447 429.727 752.492 428.995 752.492 428.4C752.492 422.545 748.696 417.468 741.56 417.468C734.469 417.468 730.444 422.774 730.444 429.224C730.444 435.628 734.881 441.254 742.017 441.254C747.689 441.254 751.852 438.144 752.675 433.386H748.238ZM741.56 421.036C745.356 421.036 747.735 423.368 748.009 426.891H734.927C735.613 423.048 737.946 421.036 741.56 421.036ZM760.303 440.888V408.182H755.866V440.888H760.303ZM771.898 440.888V421.676H778.851V417.834H771.898V415.729C771.898 413.442 773.27 412.024 775.374 412.024H778.851V408.182H775.054C770.434 408.182 767.461 411.064 767.461 415.592V417.834H762.749V421.676H767.461V440.888H771.898ZM633.731 484.888V465.676H640.684V461.834H633.731V459.729C633.731 457.442 635.104 456.024 637.208 456.024H640.684V452.182H636.888C632.268 452.182 629.294 455.064 629.294 459.592V461.834H624.583V465.676H629.294V484.888H633.731ZM656.495 461.834H653.704C650.456 461.834 648.627 463.206 647.575 466.271V461.834H643.137V484.888H647.575V474.459C647.575 469.427 648.947 465.676 653.155 465.676H656.495V461.834ZM674.27 477.386C673.629 479.994 671.434 481.457 668.049 481.457C664.023 481.457 661.187 478.484 660.821 474.138H678.432C678.478 473.727 678.524 472.995 678.524 472.4C678.524 466.545 674.727 461.468 667.591 461.468C660.501 461.468 656.476 466.774 656.476 473.224C656.476 479.628 660.913 485.254 668.049 485.254C673.721 485.254 677.883 482.144 678.707 477.386H674.27ZM667.591 465.036C671.388 465.036 673.767 467.368 674.041 470.891H660.958C661.645 467.048 663.977 465.036 667.591 465.036ZM698.137 477.386C697.496 479.994 695.301 481.457 691.916 481.457C687.89 481.457 685.054 478.484 684.688 474.138H702.299C702.345 473.727 702.391 472.995 702.391 472.4C702.391 466.545 698.594 461.468 691.458 461.468C684.368 461.468 680.343 466.774 680.343 473.224C680.343 479.628 684.78 485.254 691.916 485.254C697.588 485.254 701.75 482.144 702.574 477.386H698.137ZM691.458 465.036C695.255 465.036 697.634 467.368 697.908 470.891H684.825C685.512 467.048 687.844 465.036 691.458 465.036ZM717.359 461.834H712.648V465.676H717.359V477.341C717.359 482.052 720.333 484.888 724.998 484.888H728.612V480.863H725.364C723.123 480.863 721.796 479.49 721.796 477.02V465.676H728.612V461.834H721.796V454.606H717.359V461.834ZM741.054 485.254C747.962 485.254 752.902 480.268 752.902 473.361C752.902 466.454 747.962 461.468 741.054 461.468C734.147 461.468 729.161 466.454 729.161 473.361C729.161 480.268 734.147 485.254 741.054 485.254ZM741.054 481.366C736.663 481.366 733.69 478.072 733.69 473.361C733.69 468.649 736.663 465.356 741.054 465.356C745.4 465.356 748.373 468.649 748.373 473.361C748.373 478.072 745.4 481.366 741.054 481.366ZM633.731 529.888V510.676H640.684V506.834H633.731V504.729C633.731 502.442 635.104 501.024 637.208 501.024H640.684V497.182H636.888C632.268 497.182 629.294 500.064 629.294 504.592V506.834H624.583V510.676H629.294V529.888H633.731ZM652.23 530.254C659.137 530.254 664.078 525.268 664.078 518.361C664.078 511.454 659.137 506.468 652.23 506.468C645.323 506.468 640.337 511.454 640.337 518.361C640.337 525.268 645.323 530.254 652.23 530.254ZM652.23 526.366C647.839 526.366 644.865 523.072 644.865 518.361C644.865 513.649 647.839 510.356 652.23 510.356C656.576 510.356 659.549 513.649 659.549 518.361C659.549 523.072 656.576 526.366 652.23 526.366ZM677.158 530.254C683.014 530.254 687.13 526.961 687.862 522.112H683.471C682.739 524.719 680.406 526.366 677.25 526.366C672.676 526.366 670.343 522.798 670.343 518.361C670.343 513.924 672.63 510.356 677.25 510.356C680.36 510.356 683.014 512.277 683.425 514.884H687.862C687.222 509.67 682.556 506.468 677.158 506.468C669.885 506.468 665.723 512.003 665.723 518.361C665.723 524.719 669.885 530.254 677.158 530.254ZM706.703 506.834V519.321C706.703 523.347 704.141 526.274 700.527 526.274C697.28 526.274 695.13 523.804 695.13 520.145V506.834H690.693V521.014C690.693 526.503 694.078 530.254 699.292 530.254C702.723 530.254 705.468 528.699 706.703 525.817V529.888H711.14V506.834H706.703ZM723.55 530.254C728.764 530.254 732.195 527.555 732.195 523.347C732.195 512.826 719.021 518.681 719.021 512.963C719.021 511.179 720.622 509.99 723.001 509.99C724.968 509.99 727.529 511.042 727.849 513.695H732.012C731.783 509.349 728.215 506.468 723.001 506.468C718.198 506.468 714.813 509.121 714.813 513.1C714.813 522.935 727.895 517.309 727.895 523.438C727.895 525.131 726.203 526.549 723.55 526.549C720.576 526.549 718.655 525.039 718.381 522.386H714.218C714.538 527.235 718.152 530.254 723.55 530.254ZM755.17 530.254C762.078 530.254 767.018 525.268 767.018 518.361C767.018 511.454 762.078 506.468 755.17 506.468C748.263 506.468 743.277 511.454 743.277 518.361C743.277 525.268 748.263 530.254 755.17 530.254ZM755.17 526.366C750.779 526.366 747.806 523.072 747.806 518.361C747.806 513.649 750.779 510.356 755.17 510.356C759.516 510.356 762.489 513.649 762.489 518.361C762.489 523.072 759.516 526.366 755.17 526.366ZM774.427 529.888V517.4C774.427 513.375 776.988 510.447 780.602 510.447C783.85 510.447 786 512.917 786 516.577V529.888H790.437V515.708C790.437 510.219 787.052 506.468 781.837 506.468C778.406 506.468 775.662 508.023 774.427 510.905V506.834H769.989V529.888H774.427ZM636.751 574.254C642.606 574.254 646.723 570.961 647.454 566.112H643.063C642.331 568.719 639.998 570.366 636.842 570.366C632.268 570.366 629.935 566.798 629.935 562.361C629.935 557.924 632.222 554.356 636.842 554.356C639.953 554.356 642.606 556.277 643.017 558.884H647.454C646.814 553.67 642.148 550.468 636.751 550.468C629.477 550.468 625.315 556.003 625.315 562.361C625.315 568.719 629.477 574.254 636.751 574.254ZM660.852 574.254C667.759 574.254 672.699 569.268 672.699 562.361C672.699 555.454 667.759 550.468 660.852 550.468C653.944 550.468 648.958 555.454 648.958 562.361C648.958 569.268 653.944 574.254 660.852 574.254ZM660.852 570.366C656.46 570.366 653.487 567.072 653.487 562.361C653.487 557.649 656.46 554.356 660.852 554.356C665.197 554.356 668.171 557.649 668.171 562.361C668.171 567.072 665.197 570.366 660.852 570.366ZM685.414 574.254C688.479 574.254 691.315 572.745 692.687 570.457V573.888H697.124V541.182H692.687V554.219C691.315 551.977 688.525 550.468 685.368 550.468C678.324 550.468 674.344 555.499 674.344 562.361C674.344 569.222 678.324 574.254 685.414 574.254ZM685.917 570.366C681.663 570.366 678.873 567.164 678.873 562.361C678.873 557.558 681.663 554.356 685.917 554.356C690.217 554.356 693.007 557.558 693.007 562.361C693.007 567.164 690.217 570.366 685.917 570.366ZM718.06 566.386C717.42 568.994 715.224 570.457 711.839 570.457C707.814 570.457 704.977 567.484 704.612 563.138H722.223C722.268 562.727 722.314 561.995 722.314 561.4C722.314 555.545 718.517 550.468 711.382 550.468C704.291 550.468 700.266 555.774 700.266 562.224C700.266 568.628 704.703 574.254 711.839 574.254C717.511 574.254 721.674 571.144 722.497 566.386H718.06ZM711.382 554.036C715.178 554.036 717.557 556.368 717.831 559.891H704.749C705.435 556.048 707.768 554.036 711.382 554.036ZM725.917 571.418C725.917 570.29 726.191 569.497 726.74 569.039C727.289 568.582 727.945 568.353 728.707 568.353C729.5 568.353 730.171 568.582 730.72 569.039C731.299 569.497 731.589 570.29 731.589 571.418C731.589 572.516 731.299 573.309 730.72 573.797C730.171 574.285 729.5 574.529 728.707 574.529C727.945 574.529 727.289 574.285 726.74 573.797C726.191 573.309 725.917 572.516 725.917 571.418Z" fill="#1A1A1A"/>
<path d="M654.803 323.436V326.9V328.628H648.029V326.9V323.436V319.98V316.516V313.06H644.565V316.516V319.98V323.436V326.9V328.628H637.645V313.06H634.189V328.628H627.269V313.06H623.805V332.084H625.533H627.269H634.189H637.645H644.565H648.029H654.803H658.259V330.356V326.9V323.436V319.98H654.803V323.436Z" fill="#1A1A1A"/>
<path d="M661.722 316.516H658.258V319.979H661.722V316.516Z" fill="#1A1A1A"/>
<path d="M654.951 306.139H651.487V309.603H654.951V306.139Z" fill="#1A1A1A"/>
<path d="M648.029 295.754V299.218H651.485H654.949V295.754H651.485H648.029Z" fill="#1A1A1A"/>
<path d="M648.029 299.219H644.565V302.683H648.029V299.219Z" fill="#1A1A1A"/>
<path d="M644.573 302.676H641.109V306.14H644.573V302.676Z" fill="#1A1A1A"/>
<path d="M641.11 309.595V306.139H637.646V309.595V313.059H641.11V309.595Z" fill="#1A1A1A"/>
<path d="M651.493 309.595H648.029V313.059H651.493V309.595Z" fill="#1A1A1A"/>
<path d="M670.37 281.915H666.906H663.45H659.986H656.537H656.53H654.948V285.379H656.53H656.537H659.986H663.45H666.906H670.37V288.835V292.299H666.906H663.45H659.986H656.537H656.53H654.948V295.755H656.53H656.537H659.986H663.45H666.906H670.37V299.219V302.675H666.906H663.45H659.986H656.676H656.53H654.948V306.139H656.53H656.676H659.986H663.45H666.906H670.37V309.595V313.059H668.642H665.178H661.722V316.515H665.178H668.642H672.098H673.826V313.059V309.595V306.139V302.675V299.219V295.755V292.299V288.835V285.379V281.915H670.37Z" fill="#1A1A1A"/>
<path d="M654.949 288.835V285.379H651.485H648.029V288.835H651.485H654.949Z" fill="#1A1A1A"/>
<path d="M648.029 292.299V288.835H644.565H641.109V292.299H644.565H648.029Z" fill="#1A1A1A"/>
<path d="M634.188 302.675V299.219H630.724V302.675V306.139H634.188V302.675Z" fill="#1A1A1A"/>
<path d="M630.725 309.595V306.139H627.269V309.595V313.059H630.725V309.595Z" fill="#1A1A1A"/>
<path d="M641.11 292.299H637.646V295.763H641.11V292.299Z" fill="#1A1A1A"/>
<path d="M637.654 295.754H634.19V299.218H637.654V295.754Z" fill="#1A1A1A"/>
<path d="M634.188 313.059H627.268V328.627H634.188V313.059Z" fill="#FE8AD0"/>
<path d="M637.644 306.139H630.724V313.059H637.644V306.139Z" fill="#FE8AD0"/>
<path d="M641.112 299.219H634.192V306.139H641.112V299.219Z" fill="#FE8AD0"/>
<path d="M644.565 295.755H637.645V302.675H644.565V295.755Z" fill="#FE8AD0"/>
<path d="M648.029 292.299H641.109V299.219H648.029V292.299Z" fill="#FE8AD0"/>
<path d="M654.948 288.835H648.028V295.755H654.948V288.835Z" fill="#FE8AD0"/>
<path d="M670.368 285.379H654.947V292.299H670.368V285.379Z" fill="#FE8AD0"/>
<path d="M654.949 299.219H648.029V306.139H654.949V299.219Z" fill="#0171EA"/>
<path d="M651.485 302.675H644.565V309.595H651.485V302.675Z" fill="#0171EA"/>
<path d="M648.03 306.139H641.11V313.059H648.03V306.139Z" fill="#0171EA"/>
<path d="M644.566 313.059H637.646V328.627H644.566V313.059Z" fill="#0171EA"/>
<path d="M670.37 295.754H654.948V302.674H670.37V295.754Z" fill="#0171EA"/>
<path d="M658.261 309.595H651.487V319.979H658.261V309.595Z" fill="#B4F86A"/>
<path d="M661.722 306.139H654.948V316.523H661.722V306.139Z" fill="#B4F86A"/>
<path d="M654.949 313.06H648.029V328.628H654.949V313.06Z" fill="#B4F86A"/>
<path d="M670.373 306.139H661.247V313.059H670.373V306.139Z" fill="#B4F86A"/>
<path d="M623.805 656.929L631.421 648.543H624.035V645.355H636.028V648.43L628.412 656.812H636.257V660H623.805V656.929Z" fill="#1A1A1A"/>
<path d="M638.058 645.355H641.807V660H638.058V645.355Z" fill="#1A1A1A"/>
<path d="M660.883 645.355H664.632V660H660.883V645.355Z" fill="#1A1A1A"/>
<path fill-rule="evenodd" clip-rule="evenodd" d="M651.344 667.272C647.827 667.272 644.627 665.863 642.493 663.569L645.238 661.015C646.628 662.509 648.817 663.522 651.344 663.522C653.871 663.522 656.06 662.509 657.45 661.015L660.195 663.569C658.061 665.863 654.861 667.272 651.344 667.272Z" fill="#1A1A1A"/>
<path fill-rule="evenodd" clip-rule="evenodd" d="M655.451 645.371V646.921C654.937 646.189 653.317 645.09 651.139 645.09C647.007 645.09 643.867 648.447 643.867 652.592C643.867 656.737 647.213 660.094 651.345 660.094C655.477 660.094 658.824 656.737 658.824 652.592C658.824 650.244 658.823 647.719 658.824 645.371H655.451ZM651.345 648.726C653.471 648.726 655.199 650.459 655.199 652.592C655.199 654.725 653.471 656.458 651.345 656.458C649.219 656.458 647.491 654.725 647.491 652.592C647.491 650.459 649.219 648.726 651.345 648.726Z" fill="#1A1A1A"/>
<g clip-path="url(#clip0_128_714)">
<rect width="333.749" height="593.904" transform="translate(166.529 153.045)" fill="#1A1A1A"/>
<path d="M531.46 383.157L531.46 401.099L513.519 401.099L495.577 401.099L495.577 383.157L477.617 383.157L477.617 365.216L459.676 365.216L459.676 347.275L441.734 347.275L441.734 365.216L423.793 365.216L423.793 383.157L405.852 383.157L405.852 401.099L387.872 401.099L369.931 401.099L369.931 383.157L369.931 365.216L387.872 365.216L387.872 347.275L405.813 347.275L405.813 329.334L423.754 329.334L423.754 311.393L441.695 311.393L441.695 293.452L459.636 293.452L459.636 311.393L477.578 311.393L477.578 329.334L495.519 329.334L495.519 347.275L513.46 347.275L513.46 365.216L531.401 365.216L531.401 383.157L531.46 383.157Z" fill="#0171EA"/>
<path d="M369.931 478.258L369.931 460.317L387.872 460.317L405.813 460.317L405.813 478.258L423.774 478.258L423.774 496.199L441.715 496.199L441.715 514.14L459.656 514.14L459.656 496.199L477.597 496.199L477.597 478.258L495.539 478.258L495.539 460.317L513.519 460.317L531.46 460.317L531.46 478.258L531.46 496.199L513.519 496.199L513.519 514.14L495.578 514.14L495.578 532.082L477.636 532.082L477.636 550.023L459.695 550.023L459.695 567.964L441.754 567.964L441.754 550.023L423.813 550.023L423.813 532.082L405.872 532.082L405.872 514.14L387.931 514.14L387.931 496.199L369.989 496.199L369.989 478.258L369.931 478.258Z" fill="#0171EA"/>
<path d="M354.244 637.088L354.244 679.692L396.744 679.692L396.744 722.296L439.244 722.296L439.244 764.9L311.744 764.9L311.744 637.088L354.244 637.088ZM439.244 892.712L439.244 1020.52L311.744 1020.52L311.744 892.712L439.244 892.712Z" fill="#B4F86A"/>
<path d="M104.916 567.266L104.916 402.661L269.521 402.661L104.916 567.266Z" fill="#B4F86A"/>
<path d="M111.025 55.6495L111.025 83.5337L83.2729 83.5337L83.2729 139.302L111.025 139.302L111.025 167.187L83.2729 167.187L83.2729 222.986L111.025 222.986L111.025 250.871L166.529 250.871L166.529 222.986L194.281 222.986L194.281 195.102L222.033 195.102L222.033 167.218L249.785 167.218L249.785 139.333L222.033 139.333L222.033 111.449L194.281 111.449L194.281 83.5648L166.529 83.5648L166.529 55.6805L111.025 55.6495Z" fill="#FE8AD0"/>
<rect x="201.653" y="541.742" width="56.779" height="56.779" transform="rotate(-90 201.653 541.742)" fill="#0171EA"/>
<path d="M446.215 663.401L456.842 663.401L456.842 675.329L466.957 675.329L468.324 675.329L478.225 675.329L478.225 685.779L489.168 685.779L489.707 685.779L500.771 685.779L500.771 697.261L512.252 697.261L512.252 663.949L522.702 663.949L522.87 663.949L534.231 663.949L534.231 674.864L545.248 674.864L545.759 674.864L555.986 674.864L555.986 685.779L566.222 685.779L567.514 685.779L577.741 685.779L577.741 674.288L567.514 674.288L567.514 663.949L556.767 663.949L556.767 653.035L545.759 653.035L545.759 642.417L534.231 642.417L534.231 631.502L522.87 631.502L522.87 620.3L512.252 620.3L512.252 609.673L500.771 609.673L500.771 642.129L489.707 642.129L489.707 630.573L478.439 630.573L478.439 620.123L468.324 620.123L468.324 609.673L457.697 609.673L457.697 597.745L446.215 597.745L446.215 663.401Z" fill="#FE8AD0"/>
<path d="M427.303 121.497L379.894 121.497L379.894 168.905L332.485 168.905L332.485 216.314L285.078 216.314L285.078 263.723L427.303 263.723L427.303 121.497Z" fill="#FE7A53"/>
<path d="M242.462 747.573L258.245 747.573L258.245 668.655L242.462 668.655L242.462 652.871L226.678 652.871L226.678 637.088L147.76 637.088L147.76 652.871L131.976 652.871L131.976 668.655L116.192 668.655L116.192 747.573L131.976 747.573L131.976 763.357L147.76 763.357L147.76 779.141L226.678 779.141L226.678 763.357L242.462 763.357L242.462 747.573Z" fill="#FE7A53"/>
<path d="M217.833 691.52V685.707H212.021V679.895H206.208V262.495H212.021V256.683H217.833V250.871H449.768V256.683H455.581V262.495H461.393V679.895H455.581V685.707H449.768V691.52H217.833Z" fill="#22D285" stroke="#22D285" stroke-width="2.31796"/>
<path d="M217.039 685.882V680.069H211.226V674.257H205.414V256.684H211.226V250.872H217.039V245.06L443.958 245.06V250.872H449.77V256.684H455.582V674.257H449.77V680.069H443.958V685.882H217.039Z" fill="white" stroke="#22D285" stroke-width="2.31796"/>
<line x1="188.68" y1="173.727" x2="267.03" y2="173.727" stroke="white" stroke-width="2.81249" stroke-linecap="round"/>
<line opacity="0.3" x1="279.46" y1="173.727" x2="357.81" y2="173.727" stroke="white" stroke-width="2.81249" stroke-linecap="round"/>
<line opacity="0.3" x1="371.375" y1="173.727" x2="449.725" y2="173.727" stroke="white" stroke-width="2.81249" stroke-linecap="round"/>
<path d="M470.129 168.388L483.618 181.877" stroke="white"/>
<path d="M470.129 181.877L483.618 168.388" stroke="white"/>
<path d="M248.263 294.737C250.482 293.628 251.949 291.767 251.949 289.083C251.949 284.609 248.871 281.567 243.825 281.567H234.019V306.619H237.741V296.742H244.004C246.151 296.742 247.619 298.316 247.798 300.535L248.299 306.619H251.913L251.412 300.213C251.269 297.779 250.088 295.811 248.263 294.737ZM243.718 284.788C246.974 284.788 248.227 286.792 248.227 289.083C248.227 291.337 246.974 293.449 243.718 293.449H237.741V284.788H243.718ZM268.983 300.75C268.482 302.79 266.765 303.935 264.116 303.935C260.967 303.935 258.748 301.609 258.462 298.209H272.24C272.276 297.887 272.312 297.314 272.312 296.849C272.312 292.268 269.341 288.295 263.758 288.295C258.211 288.295 255.062 292.447 255.062 297.493C255.062 302.503 258.533 306.905 264.116 306.905C268.554 306.905 271.811 304.472 272.455 300.75H268.983ZM263.758 291.087C266.729 291.087 268.59 292.912 268.805 295.668H258.569C259.106 292.662 260.931 291.087 263.758 291.087ZM283.469 306.905C285.867 306.905 288.086 305.724 289.159 303.935V306.619H292.631V281.03H289.159V291.23C288.086 289.476 285.903 288.295 283.433 288.295C277.922 288.295 274.808 292.232 274.808 297.6C274.808 302.969 277.922 306.905 283.469 306.905ZM283.863 303.863C280.534 303.863 278.351 301.358 278.351 297.6C278.351 293.843 280.534 291.337 283.863 291.337C287.227 291.337 289.41 293.843 289.41 297.6C289.41 301.358 287.227 303.863 283.863 303.863ZM309.132 288.582V298.352C309.132 301.501 307.128 303.792 304.301 303.792C301.76 303.792 300.078 301.859 300.078 298.996V288.582H296.606V299.676C296.606 303.971 299.255 306.905 303.334 306.905C306.019 306.905 308.166 305.689 309.132 303.434V306.619H312.604V288.582H309.132ZM324.961 306.905C329.542 306.905 332.763 304.329 333.336 300.535H329.9C329.327 302.575 327.502 303.863 325.033 303.863C321.454 303.863 319.629 301.072 319.629 297.6C319.629 294.129 321.418 291.337 325.033 291.337C327.466 291.337 329.542 292.841 329.864 294.881H333.336C332.834 290.801 329.184 288.295 324.961 288.295C319.271 288.295 316.014 292.626 316.014 297.6C316.014 302.575 319.271 306.905 324.961 306.905ZM349.507 300.75C349.006 302.79 347.289 303.935 344.64 303.935C341.491 303.935 339.272 301.609 338.986 298.209H352.764C352.8 297.887 352.836 297.314 352.836 296.849C352.836 292.268 349.865 288.295 344.282 288.295C338.735 288.295 335.586 292.447 335.586 297.493C335.586 302.503 339.057 306.905 344.64 306.905C349.078 306.905 352.335 304.472 352.979 300.75H349.507ZM344.282 291.087C347.253 291.087 349.114 292.912 349.328 295.668H339.093C339.63 292.662 341.455 291.087 344.282 291.087ZM235.773 324.582H232.086V327.588H235.773V336.714C235.773 340.4 238.099 342.619 241.749 342.619H244.577V339.47H242.036C240.282 339.47 239.244 338.396 239.244 336.464V327.588H244.577V324.582H239.244V318.927H235.773V324.582ZM251.642 342.619V332.849C251.642 329.7 253.646 327.409 256.473 327.409C259.014 327.409 260.696 329.342 260.696 332.205V342.619H264.168V331.525C264.168 327.23 261.519 324.295 257.439 324.295C254.755 324.295 252.608 325.512 251.642 327.767V317.03H248.17V342.619H251.642ZM281.495 336.75C280.994 338.79 279.277 339.935 276.628 339.935C273.479 339.935 271.26 337.609 270.974 334.209H284.752C284.788 333.887 284.824 333.314 284.824 332.849C284.824 328.268 281.853 324.295 276.27 324.295C270.723 324.295 267.574 328.447 267.574 333.493C267.574 338.503 271.045 342.905 276.628 342.905C281.066 342.905 284.323 340.472 284.967 336.75H281.495ZM276.27 327.087C279.241 327.087 281.102 328.912 281.316 331.668H271.081C271.618 328.662 273.443 327.087 276.27 327.087ZM300.078 342.619V332.849C300.078 329.7 302.082 327.409 304.909 327.409C307.45 327.409 309.132 329.342 309.132 332.205V342.619H312.604V331.525C312.604 327.23 309.955 324.295 305.875 324.295C303.191 324.295 301.044 325.512 300.078 327.767V324.582H296.606V342.619H300.078ZM325.319 342.905C330.723 342.905 334.588 339.005 334.588 333.6C334.588 328.196 330.723 324.295 325.319 324.295C319.915 324.295 316.014 328.196 316.014 333.6C316.014 339.005 319.915 342.905 325.319 342.905ZM325.319 339.863C321.883 339.863 319.557 337.287 319.557 333.6C319.557 329.914 321.883 327.337 325.319 327.337C328.719 327.337 331.045 329.914 331.045 333.6C331.045 337.287 328.719 339.863 325.319 339.863ZM337.736 321.504H341.673V316.995H337.736V321.504ZM341.458 342.619V324.582H337.987V342.619H341.458ZM352.185 342.905C356.265 342.905 358.949 340.794 358.949 337.501C358.949 329.27 348.642 333.851 348.642 329.377C348.642 327.982 349.894 327.051 351.755 327.051C353.294 327.051 355.298 327.874 355.549 329.95H358.806C358.627 326.55 355.835 324.295 351.755 324.295C347.998 324.295 345.349 326.371 345.349 329.485C345.349 337.179 355.585 332.777 355.585 337.573C355.585 338.897 354.261 340.007 352.185 340.007C349.859 340.007 348.355 338.826 348.141 336.75H344.884C345.135 340.543 347.962 342.905 352.185 342.905ZM375.335 336.75C374.834 338.79 373.116 339.935 370.468 339.935C367.319 339.935 365.1 337.609 364.813 334.209H378.592C378.628 333.887 378.664 333.314 378.664 332.849C378.664 328.268 375.693 324.295 370.11 324.295C364.563 324.295 361.413 328.447 361.413 333.493C361.413 338.503 364.885 342.905 370.468 342.905C374.906 342.905 378.162 340.472 378.807 336.75H375.335ZM370.11 327.087C373.081 327.087 374.942 328.912 375.156 331.668H364.921C365.458 328.662 367.283 327.087 370.11 327.087ZM386.85 338.861C386.54 340.126 386.087 341.51 385.49 343.013C384.918 344.54 384.345 345.947 383.773 347.236H381.446C381.78 345.876 382.114 344.385 382.448 342.762C382.806 341.14 383.069 339.708 383.236 338.468H386.6L386.85 338.861ZM239.244 377.619V362.588H244.684V359.582H239.244V357.936C239.244 356.146 240.318 355.037 241.964 355.037H244.684V352.03H241.714C238.099 352.03 235.773 354.285 235.773 357.828V359.582H232.086V362.588H235.773V377.619H239.244ZM254.791 377.905C260.195 377.905 264.06 374.005 264.06 368.6C264.06 363.196 260.195 359.295 254.791 359.295C249.386 359.295 245.486 363.196 245.486 368.6C245.486 374.005 249.386 377.905 254.791 377.905ZM254.791 374.863C251.355 374.863 249.029 372.287 249.029 368.6C249.029 364.914 251.355 362.337 254.791 362.337C258.19 362.337 260.517 364.914 260.517 368.6C260.517 372.287 258.19 374.863 254.791 374.863ZM275.367 377.905C279.948 377.905 283.169 375.329 283.742 371.535H280.306C279.734 373.575 277.908 374.863 275.439 374.863C271.86 374.863 270.035 372.072 270.035 368.6C270.035 365.129 271.824 362.337 275.439 362.337C277.873 362.337 279.948 363.841 280.271 365.881H283.742C283.241 361.801 279.591 359.295 275.367 359.295C269.677 359.295 266.42 363.626 266.42 368.6C266.42 373.575 269.677 377.905 275.367 377.905ZM299.556 359.582V369.352C299.556 372.501 297.552 374.792 294.725 374.792C292.184 374.792 290.502 372.859 290.502 369.996V359.582H287.03V370.676C287.03 374.971 289.678 377.905 293.758 377.905C296.442 377.905 298.59 376.689 299.556 374.434V377.619H303.027V359.582H299.556ZM313.81 377.905C317.89 377.905 320.574 375.794 320.574 372.501C320.574 364.27 310.267 368.851 310.267 364.377C310.267 362.982 311.52 362.051 313.381 362.051C314.92 362.051 316.924 362.874 317.174 364.95H320.431C320.252 361.55 317.461 359.295 313.381 359.295C309.623 359.295 306.975 361.371 306.975 364.485C306.975 372.179 317.21 367.777 317.21 372.573C317.21 373.897 315.886 375.007 313.81 375.007C311.484 375.007 309.981 373.826 309.766 371.75H306.509C306.76 375.543 309.587 377.905 313.81 377.905ZM340.697 377.905C346.101 377.905 349.966 374.005 349.966 368.6C349.966 363.196 346.101 359.295 340.697 359.295C335.293 359.295 331.392 363.196 331.392 368.6C331.392 374.005 335.293 377.905 340.697 377.905ZM340.697 374.863C337.261 374.863 334.935 372.287 334.935 368.6C334.935 364.914 337.261 362.337 340.697 362.337C344.097 362.337 346.423 364.914 346.423 368.6C346.423 372.287 344.097 374.863 340.697 374.863ZM356.836 377.619V367.849C356.836 364.7 358.84 362.409 361.667 362.409C364.208 362.409 365.89 364.342 365.89 367.205V377.619H369.362V366.525C369.362 362.23 366.714 359.295 362.634 359.295C359.95 359.295 357.802 360.512 356.836 362.767V359.582H353.364V377.619H356.836ZM241.606 413.905C246.187 413.905 249.408 411.329 249.981 407.535H246.545C245.972 409.575 244.147 410.863 241.678 410.863C238.099 410.863 236.274 408.072 236.274 404.6C236.274 401.129 238.063 398.337 241.678 398.337C244.111 398.337 246.187 399.841 246.509 401.881H249.981C249.48 397.801 245.829 395.295 241.606 395.295C235.916 395.295 232.659 399.626 232.659 404.6C232.659 409.575 235.916 413.905 241.606 413.905ZM261.536 413.905C266.94 413.905 270.805 410.005 270.805 404.6C270.805 399.196 266.94 395.295 261.536 395.295C256.132 395.295 252.231 399.196 252.231 404.6C252.231 410.005 256.132 413.905 261.536 413.905ZM261.536 410.863C258.1 410.863 255.774 408.287 255.774 404.6C255.774 400.914 258.1 398.337 261.536 398.337C264.936 398.337 267.262 400.914 267.262 404.6C267.262 408.287 264.936 410.863 261.536 410.863ZM281.826 413.905C284.224 413.905 286.443 412.724 287.517 410.935V413.619H290.988V388.03H287.517V398.23C286.443 396.476 284.26 395.295 281.791 395.295C276.279 395.295 273.166 399.232 273.166 404.6C273.166 409.969 276.279 413.905 281.826 413.905ZM282.22 410.863C278.892 410.863 276.709 408.358 276.709 404.6C276.709 400.843 278.892 398.337 282.22 398.337C285.584 398.337 287.767 400.843 287.767 404.6C287.767 408.358 285.584 410.863 282.22 410.863ZM308.442 407.75C307.941 409.79 306.223 410.935 303.574 410.935C300.425 410.935 298.206 408.609 297.92 405.209H311.698C311.734 404.887 311.77 404.314 311.77 403.849C311.77 399.268 308.799 395.295 303.216 395.295C297.669 395.295 294.52 399.447 294.52 404.493C294.52 409.503 297.991 413.905 303.574 413.905C308.012 413.905 311.269 411.472 311.913 407.75H308.442ZM303.216 398.087C306.187 398.087 308.048 399.912 308.263 402.668H298.027C298.564 399.662 300.389 398.087 303.216 398.087ZM315.662 411.687C315.662 410.804 315.877 410.183 316.306 409.826C316.736 409.468 317.249 409.289 317.845 409.289C318.466 409.289 318.991 409.468 319.42 409.826C319.873 410.183 320.1 410.804 320.1 411.687C320.1 412.545 319.873 413.166 319.42 413.548C318.991 413.929 318.466 414.12 317.845 414.12C317.249 414.12 316.736 413.929 316.306 413.548C315.877 413.166 315.662 412.545 315.662 411.687Z" fill="black"/>
<path d="M238.077 439.305V432.465H240.541V431.43H234.444V432.465H236.907V439.305H238.077ZM242.729 439.305V436.233C242.729 435.243 243.359 434.523 244.248 434.523C245.046 434.523 245.575 435.131 245.575 436.031V439.305H246.666V435.817C246.666 434.467 245.834 433.545 244.551 433.545C243.708 433.545 243.033 433.927 242.729 434.636V431.261H241.638V439.305H242.729ZM252.338 437.46C252.181 438.101 251.641 438.461 250.808 438.461C249.818 438.461 249.121 437.73 249.031 436.661H253.362C253.373 436.56 253.385 436.38 253.385 436.233C253.385 434.793 252.451 433.545 250.696 433.545C248.952 433.545 247.962 434.85 247.962 436.436C247.962 438.011 249.053 439.395 250.808 439.395C252.203 439.395 253.227 438.63 253.43 437.46H252.338ZM250.696 434.422C251.63 434.422 252.215 434.996 252.282 435.862H249.065C249.233 434.917 249.807 434.422 250.696 434.422ZM260.025 439.395C261.465 439.395 262.477 438.585 262.657 437.392H261.577C261.397 438.033 260.823 438.438 260.047 438.438C258.922 438.438 258.348 437.561 258.348 436.47C258.348 435.378 258.911 434.501 260.047 434.501C260.812 434.501 261.465 434.973 261.566 435.615H262.657C262.5 434.332 261.352 433.545 260.025 433.545C258.236 433.545 257.212 434.906 257.212 436.47C257.212 438.033 258.236 439.395 260.025 439.395ZM266.514 439.395C268.213 439.395 269.428 438.168 269.428 436.47C269.428 434.771 268.213 433.545 266.514 433.545C264.816 433.545 263.589 434.771 263.589 436.47C263.589 438.168 264.816 439.395 266.514 439.395ZM266.514 438.438C265.434 438.438 264.703 437.628 264.703 436.47C264.703 435.311 265.434 434.501 266.514 434.501C267.583 434.501 268.314 435.311 268.314 436.47C268.314 437.628 267.583 438.438 266.514 438.438ZM271.813 439.305V436.233C271.813 435.243 272.443 434.523 273.331 434.523C274.13 434.523 274.659 435.131 274.659 436.031V439.305H275.75V435.817C275.75 434.467 274.918 433.545 273.635 433.545C272.791 433.545 272.116 433.927 271.813 434.636V433.635H270.721V439.305H271.813ZM279.365 439.395C280.647 439.395 281.491 438.731 281.491 437.696C281.491 435.108 278.251 436.548 278.251 435.142C278.251 434.703 278.645 434.411 279.23 434.411C279.713 434.411 280.343 434.67 280.422 435.322H281.446C281.39 434.253 280.512 433.545 279.23 433.545C278.048 433.545 277.216 434.197 277.216 435.176C277.216 437.595 280.433 436.211 280.433 437.718C280.433 438.135 280.017 438.483 279.365 438.483C278.633 438.483 278.161 438.112 278.093 437.46H277.07C277.148 438.652 278.037 439.395 279.365 439.395ZM283.425 433.635H282.267V434.58H283.425V437.448C283.425 438.607 284.157 439.305 285.304 439.305H286.193V438.315H285.394C284.843 438.315 284.517 437.977 284.517 437.37V434.58H286.193V433.635H284.517V431.857H283.425V433.635ZM289.411 433.545C288.073 433.545 287.06 434.377 286.97 435.491H287.983C288.016 434.917 288.59 434.422 289.378 434.422C290.255 434.422 290.75 434.895 290.75 435.581C290.75 435.783 290.626 435.918 290.368 435.918H289.186C287.848 435.918 286.981 436.593 286.981 437.685C286.981 438.697 287.746 439.395 288.905 439.395C289.76 439.395 290.48 438.99 290.75 438.382V439.305H291.841V435.648C291.841 434.388 290.874 433.545 289.411 433.545ZM289.119 438.528C288.489 438.528 288.061 438.18 288.061 437.662C288.061 437.066 288.545 436.683 289.288 436.683H290.75V436.818C290.75 437.865 290.154 438.528 289.119 438.528ZM294.422 439.305V436.233C294.422 435.243 295.052 434.523 295.94 434.523C296.739 434.523 297.268 435.131 297.268 436.031V439.305H298.359V435.817C298.359 434.467 297.527 433.545 296.244 433.545C295.4 433.545 294.725 433.927 294.422 434.636V433.635H293.33V439.305H294.422ZM300.437 433.635H299.278V434.58H300.437V437.448C300.437 438.607 301.168 439.305 302.316 439.305H303.205V438.315H302.406C301.855 438.315 301.528 437.977 301.528 437.37V434.58H303.205V433.635H301.528V431.857H300.437V433.635ZM308.269 439.305V436.233C308.269 435.243 308.899 434.523 309.788 434.523C310.587 434.523 311.115 435.131 311.115 436.031V439.305H312.207V435.817C312.207 434.467 311.374 433.545 310.092 433.545C309.248 433.545 308.573 433.927 308.269 434.636V433.635H307.178V439.305H308.269ZM316.429 439.395C318.127 439.395 319.342 438.168 319.342 436.47C319.342 434.771 318.127 433.545 316.429 433.545C314.73 433.545 313.504 434.771 313.504 436.47C313.504 438.168 314.73 439.395 316.429 439.395ZM316.429 438.438C315.349 438.438 314.617 437.628 314.617 436.47C314.617 435.311 315.349 434.501 316.429 434.501C317.497 434.501 318.229 435.311 318.229 436.47C318.229 437.628 317.497 438.438 316.429 438.438ZM320.557 432.667H321.794V431.25H320.557V432.667ZM321.727 439.305V433.635H320.636V439.305H321.727ZM325.324 439.395C326.606 439.395 327.45 438.731 327.45 437.696C327.45 435.108 324.21 436.548 324.21 435.142C324.21 434.703 324.604 434.411 325.189 434.411C325.673 434.411 326.303 434.67 326.381 435.322H327.405C327.349 434.253 326.471 433.545 325.189 433.545C324.008 433.545 323.175 434.197 323.175 435.176C323.175 437.595 326.393 436.211 326.393 437.718C326.393 438.135 325.976 438.483 325.324 438.483C324.593 438.483 324.12 438.112 324.053 437.46H323.029C323.108 438.652 323.996 439.395 325.324 439.395ZM332.826 437.46C332.669 438.101 332.129 438.461 331.296 438.461C330.306 438.461 329.609 437.73 329.519 436.661H333.85C333.861 436.56 333.872 436.38 333.872 436.233C333.872 434.793 332.939 433.545 331.184 433.545C329.44 433.545 328.45 434.85 328.45 436.436C328.45 438.011 329.541 439.395 331.296 439.395C332.691 439.395 333.715 438.63 333.917 437.46H332.826ZM331.184 434.422C332.117 434.422 332.702 434.996 332.77 435.862H329.552C329.721 434.917 330.295 434.422 331.184 434.422ZM340.254 433.545C338.915 433.545 337.902 434.377 337.812 435.491H338.825C338.859 434.917 339.432 434.422 340.22 434.422C341.097 434.422 341.592 434.895 341.592 435.581C341.592 435.783 341.469 435.918 341.21 435.918H340.029C338.69 435.918 337.824 436.593 337.824 437.685C337.824 438.697 338.589 439.395 339.747 439.395C340.602 439.395 341.322 438.99 341.592 438.382V439.305H342.684V435.648C342.684 434.388 341.716 433.545 340.254 433.545ZM339.961 438.528C339.331 438.528 338.904 438.18 338.904 437.662C338.904 437.066 339.387 436.683 340.13 436.683H341.592V436.818C341.592 437.865 340.996 438.528 339.961 438.528ZM347.458 433.635H346.772C345.973 433.635 345.523 433.972 345.264 434.726V433.635H344.173V439.305H345.264V436.74C345.264 435.502 345.602 434.58 346.637 434.58H347.458V433.635ZM350.941 439.395C352.639 439.395 353.854 438.168 353.854 436.47C353.854 434.771 352.639 433.545 350.941 433.545C349.242 433.545 348.016 434.771 348.016 436.47C348.016 438.168 349.242 439.395 350.941 439.395ZM350.941 438.438C349.861 438.438 349.129 437.628 349.129 436.47C349.129 435.311 349.861 434.501 350.941 434.501C352.009 434.501 352.741 435.311 352.741 436.47C352.741 437.628 352.009 438.438 350.941 438.438ZM359.085 433.635V436.706C359.085 437.696 358.455 438.416 357.566 438.416C356.768 438.416 356.239 437.808 356.239 436.908V433.635H355.148V437.122C355.148 438.472 355.98 439.395 357.263 439.395C358.106 439.395 358.781 439.012 359.085 438.303V439.305H360.176V433.635H359.085ZM362.891 439.305V436.233C362.891 435.243 363.521 434.523 364.41 434.523C365.208 434.523 365.737 435.131 365.737 436.031V439.305H366.828V435.817C366.828 434.467 365.996 433.545 364.713 433.545C363.87 433.545 363.195 433.927 362.891 434.636V433.635H361.8V439.305H362.891ZM370.848 439.395C371.602 439.395 372.299 439.023 372.637 438.461V439.305H373.728V431.261H372.637V434.467C372.299 433.916 371.613 433.545 370.837 433.545C369.104 433.545 368.125 434.782 368.125 436.47C368.125 438.157 369.104 439.395 370.848 439.395ZM370.972 438.438C369.925 438.438 369.239 437.651 369.239 436.47C369.239 435.288 369.925 434.501 370.972 434.501C372.029 434.501 372.715 435.288 372.715 436.47C372.715 437.651 372.029 438.438 370.972 438.438ZM236.109 452.305V449.008C236.109 448.108 236.626 447.501 237.492 447.501C238.235 447.501 238.685 448.108 238.685 449.008V452.305H239.776V449.008C239.776 448.108 240.294 447.501 241.16 447.501C241.914 447.501 242.364 448.108 242.364 449.008V452.305H243.455V448.705C243.455 447.388 242.69 446.545 241.464 446.545C240.586 446.545 239.844 447.062 239.619 447.703C239.394 446.961 238.707 446.545 237.785 446.545C236.952 446.545 236.345 447.006 236.109 447.647V446.635H235.017V452.305H236.109ZM248.958 446.635V449.706C248.958 450.696 248.328 451.416 247.439 451.416C246.64 451.416 246.111 450.808 246.111 449.908V446.635H245.02V450.122C245.02 451.472 245.853 452.395 247.135 452.395C247.979 452.395 248.654 452.012 248.958 451.303V452.305H250.049V446.635H248.958ZM252.763 452.305V449.233C252.763 448.243 253.393 447.523 254.282 447.523C255.081 447.523 255.61 448.131 255.61 449.031V452.305H256.701V448.817C256.701 447.467 255.868 446.545 254.586 446.545C253.742 446.545 253.067 446.927 252.763 447.636V446.635H251.672V452.305H252.763ZM260.72 452.395C261.474 452.395 262.172 452.023 262.509 451.461V452.305H263.6V444.261H262.509V447.467C262.172 446.916 261.485 446.545 260.709 446.545C258.977 446.545 257.998 447.782 257.998 449.47C257.998 451.157 258.977 452.395 260.72 452.395ZM260.844 451.438C259.798 451.438 259.112 450.651 259.112 449.47C259.112 448.288 259.798 447.501 260.844 447.501C261.902 447.501 262.588 448.288 262.588 449.47C262.588 450.651 261.902 451.438 260.844 451.438ZM267.489 446.545C266.15 446.545 265.138 447.377 265.048 448.491H266.06C266.094 447.917 266.668 447.422 267.455 447.422C268.333 447.422 268.828 447.895 268.828 448.581C268.828 448.783 268.704 448.918 268.445 448.918H267.264C265.925 448.918 265.059 449.593 265.059 450.685C265.059 451.697 265.824 452.395 266.983 452.395C267.838 452.395 268.558 451.99 268.828 451.382V452.305H269.919V448.648C269.919 447.388 268.952 446.545 267.489 446.545ZM267.197 451.528C266.567 451.528 266.139 451.18 266.139 450.662C266.139 450.066 266.623 449.683 267.365 449.683H268.828V449.818C268.828 450.865 268.232 451.528 267.197 451.528ZM272.5 452.305V449.233C272.5 448.243 273.13 447.523 274.018 447.523C274.817 447.523 275.346 448.131 275.346 449.031V452.305H276.437V448.817C276.437 447.467 275.605 446.545 274.322 446.545C273.478 446.545 272.803 446.927 272.5 447.636V446.635H271.408V452.305H272.5ZM282.11 450.46C281.953 451.101 281.413 451.461 280.58 451.461C279.59 451.461 278.893 450.73 278.803 449.661H283.134C283.145 449.56 283.157 449.38 283.157 449.233C283.157 447.793 282.223 446.545 280.468 446.545C278.724 446.545 277.734 447.85 277.734 449.436C277.734 451.011 278.825 452.395 280.58 452.395C281.975 452.395 282.999 451.63 283.202 450.46H282.11ZM280.468 447.422C281.402 447.422 281.987 447.996 282.054 448.862H278.837C279.005 447.917 279.579 447.422 280.468 447.422ZM287.963 446.635H286.804V447.58H287.963V450.448C287.963 451.607 288.694 452.305 289.842 452.305H290.73V451.315H289.932C289.38 451.315 289.054 450.977 289.054 450.37V447.58H290.73V446.635H289.054V444.857H287.963V446.635ZM293.949 446.545C292.61 446.545 291.597 447.377 291.507 448.491H292.52C292.554 447.917 293.127 447.422 293.915 447.422C294.792 447.422 295.287 447.895 295.287 448.581C295.287 448.783 295.164 448.918 294.905 448.918H293.724C292.385 448.918 291.519 449.593 291.519 450.685C291.519 451.697 292.284 452.395 293.442 452.395C294.297 452.395 295.017 451.99 295.287 451.382V452.305H296.379V448.648C296.379 447.388 295.411 446.545 293.949 446.545ZM293.656 451.528C293.026 451.528 292.599 451.18 292.599 450.662C292.599 450.066 293.082 449.683 293.825 449.683H295.287V449.818C295.287 450.865 294.691 451.528 293.656 451.528ZM299.859 452.395C301.141 452.395 301.985 451.731 301.985 450.696C301.985 448.108 298.745 449.548 298.745 448.142C298.745 447.703 299.139 447.411 299.724 447.411C300.208 447.411 300.838 447.67 300.916 448.322H301.94C301.884 447.253 301.006 446.545 299.724 446.545C298.543 446.545 297.71 447.197 297.71 448.176C297.71 450.595 300.928 449.211 300.928 450.718C300.928 451.135 300.511 451.483 299.859 451.483C299.128 451.483 298.655 451.112 298.588 450.46H297.564C297.643 451.652 298.531 452.395 299.859 452.395ZM308.598 452.305L305.999 448.851L308.384 446.635H306.967L304.503 448.896V444.261H303.4V452.305H304.503V450.246L305.212 449.593L307.248 452.305H308.598ZM311.471 452.395C312.754 452.395 313.597 451.731 313.597 450.696C313.597 448.108 310.357 449.548 310.357 448.142C310.357 447.703 310.751 447.411 311.336 447.411C311.82 447.411 312.45 447.67 312.529 448.322H313.552C313.496 447.253 312.619 446.545 311.336 446.545C310.155 446.545 309.322 447.197 309.322 448.176C309.322 450.595 312.54 449.211 312.54 450.718C312.54 451.135 312.124 451.483 311.471 451.483C310.74 451.483 310.267 451.112 310.2 450.46H309.176C309.255 451.652 310.144 452.395 311.471 452.395ZM316.419 451.123C316.321 451.521 316.179 451.956 315.991 452.428C315.811 452.908 315.631 453.351 315.451 453.756H314.72C314.825 453.328 314.93 452.86 315.035 452.35C315.147 451.84 315.23 451.39 315.282 451H316.34L316.419 451.123ZM325.059 450.46C324.902 451.101 324.362 451.461 323.529 451.461C322.539 451.461 321.842 450.73 321.752 449.661H326.083C326.094 449.56 326.105 449.38 326.105 449.233C326.105 447.793 325.172 446.545 323.417 446.545C321.673 446.545 320.683 447.85 320.683 449.436C320.683 451.011 321.774 452.395 323.529 452.395C324.924 452.395 325.948 451.63 326.15 450.46H325.059ZM323.417 447.422C324.35 447.422 324.935 447.996 325.003 448.862H321.786C321.954 447.917 322.528 447.422 323.417 447.422ZM328.533 452.305V449.233C328.533 448.243 329.163 447.523 330.052 447.523C330.85 447.523 331.379 448.131 331.379 449.031V452.305H332.47V448.817C332.47 447.467 331.638 446.545 330.355 446.545C329.512 446.545 328.837 446.927 328.533 447.636V446.635H327.442V452.305H328.533ZM336.49 452.395C337.243 452.395 337.941 452.023 338.278 451.461V452.305H339.37V444.261H338.278V447.467C337.941 446.916 337.255 446.545 336.478 446.545C334.746 446.545 333.767 447.782 333.767 449.47C333.767 451.157 334.746 452.395 336.49 452.395ZM336.613 451.438C335.567 451.438 334.881 450.651 334.881 449.47C334.881 448.288 335.567 447.501 336.613 447.501C337.671 447.501 338.357 448.288 338.357 449.47C338.357 450.651 337.671 451.438 336.613 451.438ZM342.179 452.305V444.261H341.087V452.305H342.179ZM347.899 450.46C347.741 451.101 347.201 451.461 346.369 451.461C345.379 451.461 344.681 450.73 344.591 449.661H348.923C348.934 449.56 348.945 449.38 348.945 449.233C348.945 447.793 348.011 446.545 346.256 446.545C344.513 446.545 343.523 447.85 343.523 449.436C343.523 451.011 344.614 452.395 346.369 452.395C347.764 452.395 348.788 451.63 348.99 450.46H347.899ZM346.256 447.422C347.19 447.422 347.775 447.996 347.843 448.862H344.625C344.794 447.917 345.368 447.422 346.256 447.422ZM352.217 452.395C353.5 452.395 354.344 451.731 354.344 450.696C354.344 448.108 351.104 449.548 351.104 448.142C351.104 447.703 351.497 447.411 352.082 447.411C352.566 447.411 353.196 447.67 353.275 448.322H354.299C354.242 447.253 353.365 446.545 352.082 446.545C350.901 446.545 350.069 447.197 350.069 448.176C350.069 450.595 353.286 449.211 353.286 450.718C353.286 451.135 352.87 451.483 352.217 451.483C351.486 451.483 351.014 451.112 350.946 450.46H349.922C350.001 451.652 350.89 452.395 352.217 452.395ZM357.694 452.395C358.976 452.395 359.82 451.731 359.82 450.696C359.82 448.108 356.58 449.548 356.58 448.142C356.58 447.703 356.974 447.411 357.559 447.411C358.043 447.411 358.673 447.67 358.751 448.322H359.775C359.719 447.253 358.841 446.545 357.559 446.545C356.378 446.545 355.545 447.197 355.545 448.176C355.545 450.595 358.763 449.211 358.763 450.718C358.763 451.135 358.346 451.483 357.694 451.483C356.963 451.483 356.49 451.112 356.423 450.46H355.399C355.478 451.652 356.366 452.395 357.694 452.395ZM237.009 465.395C238.291 465.395 239.135 464.731 239.135 463.696C239.135 461.108 235.895 462.548 235.895 461.142C235.895 460.703 236.289 460.411 236.874 460.411C237.357 460.411 237.987 460.67 238.066 461.322H239.09C239.034 460.253 238.156 459.545 236.874 459.545C235.692 459.545 234.86 460.197 234.86 461.176C234.86 463.595 238.077 462.211 238.077 463.718C238.077 464.135 237.661 464.483 237.009 464.483C236.277 464.483 235.805 464.112 235.737 463.46H234.714C234.792 464.652 235.681 465.395 237.009 465.395ZM244.004 459.635L242.508 463.887L241.023 459.635H239.898L242.002 465.361L241.237 467.6H242.283L243.138 465.102L245.129 459.635H244.004ZM248.06 465.395C249.343 465.395 250.187 464.731 250.187 463.696C250.187 461.108 246.947 462.548 246.947 461.142C246.947 460.703 247.34 460.411 247.925 460.411C248.409 460.411 249.039 460.67 249.118 461.322H250.142C250.085 460.253 249.208 459.545 247.925 459.545C246.744 459.545 245.912 460.197 245.912 461.176C245.912 463.595 249.129 462.211 249.129 463.718C249.129 464.135 248.713 464.483 248.06 464.483C247.329 464.483 246.857 464.112 246.789 463.46H245.765C245.844 464.652 246.733 465.395 248.06 465.395ZM252.121 459.635H250.962V460.58H252.121V463.448C252.121 464.607 252.852 465.305 254 465.305H254.889V464.315H254.09C253.539 464.315 253.212 463.977 253.212 463.37V460.58H254.889V459.635H253.212V457.857H252.121V459.635ZM259.962 463.46C259.805 464.101 259.265 464.461 258.432 464.461C257.442 464.461 256.745 463.73 256.655 462.661H260.986C260.997 462.56 261.009 462.38 261.009 462.233C261.009 460.793 260.075 459.545 258.32 459.545C256.576 459.545 255.586 460.85 255.586 462.436C255.586 464.011 256.677 465.395 258.432 465.395C259.827 465.395 260.851 464.63 261.054 463.46H259.962ZM258.32 460.422C259.254 460.422 259.839 460.996 259.906 461.862H256.689C256.857 460.917 257.431 460.422 258.32 460.422ZM263.436 465.305V462.008C263.436 461.108 263.953 460.501 264.82 460.501C265.562 460.501 266.012 461.108 266.012 462.008V465.305H267.103V462.008C267.103 461.108 267.621 460.501 268.487 460.501C269.241 460.501 269.691 461.108 269.691 462.008V465.305H270.782V461.705C270.782 460.388 270.017 459.545 268.791 459.545C267.913 459.545 267.171 460.062 266.946 460.703C266.721 459.961 266.035 459.545 265.112 459.545C264.28 459.545 263.672 460.006 263.436 460.647V459.635H262.345V465.305H263.436ZM274.394 465.395C275.676 465.395 276.52 464.731 276.52 463.696C276.52 461.108 273.28 462.548 273.28 461.142C273.28 460.703 273.674 460.411 274.259 460.411C274.742 460.411 275.372 460.67 275.451 461.322H276.475C276.419 460.253 275.541 459.545 274.259 459.545C273.077 459.545 272.245 460.197 272.245 461.176C272.245 463.595 275.462 462.211 275.462 463.718C275.462 464.135 275.046 464.483 274.394 464.483C273.662 464.483 273.19 464.112 273.122 463.46H272.099C272.177 464.652 273.066 465.395 274.394 465.395ZM282.924 459.545C281.585 459.545 280.573 460.377 280.483 461.491H281.495C281.529 460.917 282.103 460.422 282.89 460.422C283.768 460.422 284.263 460.895 284.263 461.581C284.263 461.783 284.139 461.918 283.88 461.918H282.699C281.36 461.918 280.494 462.593 280.494 463.685C280.494 464.697 281.259 465.395 282.418 465.395C283.273 465.395 283.993 464.99 284.263 464.382V465.305H285.354V461.648C285.354 460.388 284.387 459.545 282.924 459.545ZM282.632 464.528C282.002 464.528 281.574 464.18 281.574 463.662C281.574 463.066 282.058 462.683 282.8 462.683H284.263V462.818C284.263 463.865 283.667 464.528 282.632 464.528ZM287.934 465.305V462.233C287.934 461.243 288.564 460.523 289.453 460.523C290.252 460.523 290.781 461.131 290.781 462.031V465.305H291.872V461.817C291.872 460.467 291.039 459.545 289.757 459.545C288.913 459.545 288.238 459.927 287.934 460.636V459.635H286.843V465.305H287.934ZM295.891 465.395C296.645 465.395 297.343 465.023 297.68 464.461V465.305H298.771V457.261H297.68V460.467C297.343 459.916 296.656 459.545 295.88 459.545C294.148 459.545 293.169 460.782 293.169 462.47C293.169 464.157 294.148 465.395 295.891 465.395ZM296.015 464.438C294.969 464.438 294.283 463.651 294.283 462.47C294.283 461.288 294.969 460.501 296.015 460.501C297.073 460.501 297.759 461.288 297.759 462.47C297.759 463.651 297.073 464.438 296.015 464.438ZM305.737 465.395C307.177 465.395 308.189 464.585 308.369 463.392H307.289C307.109 464.033 306.536 464.438 305.759 464.438C304.634 464.438 304.061 463.561 304.061 462.47C304.061 461.378 304.623 460.501 305.759 460.501C306.524 460.501 307.177 460.973 307.278 461.615H308.369C308.212 460.332 307.064 459.545 305.737 459.545C303.948 459.545 302.924 460.906 302.924 462.47C302.924 464.033 303.948 465.395 305.737 465.395ZM312.227 465.395C313.925 465.395 315.14 464.168 315.14 462.47C315.14 460.771 313.925 459.545 312.227 459.545C310.528 459.545 309.302 460.771 309.302 462.47C309.302 464.168 310.528 465.395 312.227 465.395ZM312.227 464.438C311.147 464.438 310.415 463.628 310.415 462.47C310.415 461.311 311.147 460.501 312.227 460.501C313.295 460.501 314.027 461.311 314.027 462.47C314.027 463.628 313.295 464.438 312.227 464.438ZM317.525 465.305V462.008C317.525 461.108 318.042 460.501 318.909 460.501C319.651 460.501 320.101 461.108 320.101 462.008V465.305H321.192V462.008C321.192 461.108 321.71 460.501 322.576 460.501C323.33 460.501 323.78 461.108 323.78 462.008V465.305H324.871V461.705C324.871 460.388 324.106 459.545 322.88 459.545C322.002 459.545 321.26 460.062 321.035 460.703C320.81 459.961 320.124 459.545 319.201 459.545C318.369 459.545 317.761 460.006 317.525 460.647V459.635H316.434V465.305H317.525ZM327.639 467.6V464.506C327.965 465.046 328.64 465.395 329.394 465.395C331.115 465.395 332.139 464.157 332.139 462.47C332.139 460.782 331.16 459.545 329.45 459.545C328.663 459.545 327.976 459.916 327.639 460.478V459.635H326.548V467.6H327.639ZM329.293 464.438C328.235 464.438 327.549 463.651 327.549 462.47C327.549 461.288 328.235 460.501 329.293 460.501C330.339 460.501 331.036 461.288 331.036 462.47C331.036 463.651 330.339 464.438 329.293 464.438ZM334.577 465.305V457.261H333.485V465.305H334.577ZM340.297 463.46C340.139 464.101 339.599 464.461 338.767 464.461C337.777 464.461 337.079 463.73 336.989 462.661H341.321C341.332 462.56 341.343 462.38 341.343 462.233C341.343 460.793 340.409 459.545 338.654 459.545C336.911 459.545 335.921 460.85 335.921 462.436C335.921 464.011 337.012 465.395 338.767 465.395C340.162 465.395 341.186 464.63 341.388 463.46H340.297ZM338.654 460.422C339.588 460.422 340.173 460.996 340.241 461.862H337.023C337.192 460.917 337.766 460.422 338.654 460.422ZM345.082 462.335L346.972 459.635H345.768L344.497 461.48L343.215 459.635H342.011L343.901 462.335L341.842 465.305H343.001L344.497 463.178L345.982 465.305H347.141L345.082 462.335ZM236.165 480.6V477.506C236.491 478.046 237.166 478.395 237.92 478.395C239.641 478.395 240.665 477.157 240.665 475.47C240.665 473.782 239.686 472.545 237.976 472.545C237.189 472.545 236.502 472.916 236.165 473.478V472.635H235.074V480.6H236.165ZM237.819 477.438C236.761 477.438 236.075 476.651 236.075 475.47C236.075 474.288 236.761 473.501 237.819 473.501C238.865 473.501 239.562 474.288 239.562 475.47C239.562 476.651 238.865 477.438 237.819 477.438ZM245.24 472.635H244.554C243.755 472.635 243.305 472.972 243.046 473.726V472.635H241.955V478.305H243.046V475.74C243.046 474.502 243.384 473.58 244.419 473.58H245.24V472.635ZM248.723 478.395C250.422 478.395 251.637 477.168 251.637 475.47C251.637 473.771 250.422 472.545 248.723 472.545C247.024 472.545 245.798 473.771 245.798 475.47C245.798 477.168 247.024 478.395 248.723 478.395ZM248.723 477.438C247.643 477.438 246.912 476.628 246.912 475.47C246.912 474.311 247.643 473.501 248.723 473.501C249.792 473.501 250.523 474.311 250.523 475.47C250.523 476.628 249.792 477.438 248.723 477.438ZM255.416 478.395C256.856 478.395 257.869 477.585 258.049 476.392H256.969C256.789 477.033 256.215 477.438 255.439 477.438C254.314 477.438 253.74 476.561 253.74 475.47C253.74 474.378 254.302 473.501 255.439 473.501C256.204 473.501 256.856 473.973 256.957 474.615H258.049C257.891 473.332 256.744 472.545 255.416 472.545C253.627 472.545 252.604 473.906 252.604 475.47C252.604 477.033 253.627 478.395 255.416 478.395ZM263.357 476.46C263.2 477.101 262.66 477.461 261.827 477.461C260.837 477.461 260.14 476.73 260.05 475.661H264.381C264.392 475.56 264.403 475.38 264.403 475.233C264.403 473.793 263.47 472.545 261.715 472.545C259.971 472.545 258.981 473.85 258.981 475.436C258.981 477.011 260.072 478.395 261.827 478.395C263.222 478.395 264.246 477.63 264.448 476.46H263.357ZM261.715 473.422C262.648 473.422 263.233 473.996 263.301 474.862H260.083C260.252 473.917 260.826 473.422 261.715 473.422ZM267.676 478.395C268.958 478.395 269.802 477.731 269.802 476.696C269.802 474.108 266.562 475.548 266.562 474.142C266.562 473.703 266.956 473.411 267.541 473.411C268.024 473.411 268.654 473.67 268.733 474.322H269.757C269.701 473.253 268.823 472.545 267.541 472.545C266.359 472.545 265.527 473.197 265.527 474.176C265.527 476.595 268.744 475.211 268.744 476.718C268.744 477.135 268.328 477.483 267.676 477.483C266.944 477.483 266.472 477.112 266.404 476.46H265.381C265.459 477.652 266.348 478.395 267.676 478.395ZM273.152 478.395C274.435 478.395 275.278 477.731 275.278 476.696C275.278 474.108 272.038 475.548 272.038 474.142C272.038 473.703 272.432 473.411 273.017 473.411C273.501 473.411 274.131 473.67 274.21 474.322H275.233C275.177 473.253 274.3 472.545 273.017 472.545C271.836 472.545 271.003 473.197 271.003 474.176C271.003 476.595 274.221 475.211 274.221 476.718C274.221 477.135 273.805 477.483 273.152 477.483C272.421 477.483 271.948 477.112 271.881 476.46H270.857C270.936 477.652 271.825 478.395 273.152 478.395ZM280.654 476.46C280.497 477.101 279.957 477.461 279.124 477.461C278.134 477.461 277.437 476.73 277.347 475.661H281.678C281.689 475.56 281.701 475.38 281.701 475.233C281.701 473.793 280.767 472.545 279.012 472.545C277.268 472.545 276.278 473.85 276.278 475.436C276.278 477.011 277.369 478.395 279.124 478.395C280.519 478.395 281.543 477.63 281.746 476.46H280.654ZM279.012 473.422C279.946 473.422 280.531 473.996 280.598 474.862H277.381C277.549 473.917 278.123 473.422 279.012 473.422ZM284.973 478.395C286.255 478.395 287.099 477.731 287.099 476.696C287.099 474.108 283.859 475.548 283.859 474.142C283.859 473.703 284.253 473.411 284.838 473.411C285.322 473.411 285.952 473.67 286.03 474.322H287.054C286.998 473.253 286.12 472.545 284.838 472.545C283.657 472.545 282.824 473.197 282.824 474.176C282.824 476.595 286.042 475.211 286.042 476.718C286.042 477.135 285.625 477.483 284.973 477.483C284.242 477.483 283.769 477.112 283.702 476.46H282.678C282.757 477.652 283.645 478.395 284.973 478.395ZM296.53 478.305L293.931 474.851L296.316 472.635H294.898L292.435 474.896V470.261H291.332V478.305H292.435V476.246L293.143 475.593L295.18 478.305H296.53ZM301.319 476.46C301.161 477.101 300.621 477.461 299.789 477.461C298.799 477.461 298.101 476.73 298.011 475.661H302.342C302.354 475.56 302.365 475.38 302.365 475.233C302.365 473.793 301.431 472.545 299.676 472.545C297.932 472.545 296.942 473.85 296.942 475.436C296.942 477.011 298.034 478.395 299.789 478.395C301.184 478.395 302.207 477.63 302.41 476.46H301.319ZM299.676 473.422C300.61 473.422 301.195 473.996 301.262 474.862H298.045C298.214 473.917 298.787 473.422 299.676 473.422ZM307.751 476.46C307.593 477.101 307.053 477.461 306.221 477.461C305.231 477.461 304.534 476.73 304.444 475.661H308.775C308.786 475.56 308.797 475.38 308.797 475.233C308.797 473.793 307.863 472.545 306.109 472.545C304.365 472.545 303.375 473.85 303.375 475.436C303.375 477.011 304.466 478.395 306.221 478.395C307.616 478.395 308.64 477.63 308.842 476.46H307.751ZM306.109 473.422C307.042 473.422 307.627 473.996 307.695 474.862H304.477C304.646 473.917 305.22 473.422 306.109 473.422ZM311.281 480.6V477.506C311.607 478.046 312.282 478.395 313.036 478.395C314.757 478.395 315.781 477.157 315.781 475.47C315.781 473.782 314.802 472.545 313.092 472.545C312.305 472.545 311.618 472.916 311.281 473.478V472.635H310.19V480.6H311.281ZM312.935 477.438C311.877 477.438 311.191 476.651 311.191 475.47C311.191 474.288 311.877 473.501 312.935 473.501C313.981 473.501 314.678 474.288 314.678 475.47C314.678 476.651 313.981 477.438 312.935 477.438ZM319.007 478.395C320.29 478.395 321.133 477.731 321.133 476.696C321.133 474.108 317.893 475.548 317.893 474.142C317.893 473.703 318.287 473.411 318.872 473.411C319.356 473.411 319.986 473.67 320.065 474.322H321.088C321.032 473.253 320.155 472.545 318.872 472.545C317.691 472.545 316.858 473.197 316.858 474.176C316.858 476.595 320.076 475.211 320.076 476.718C320.076 477.135 319.66 477.483 319.007 477.483C318.276 477.483 317.803 477.112 317.736 476.46H316.712C316.791 477.652 317.68 478.395 319.007 478.395ZM328.843 472.635L327.346 476.887L325.861 472.635H324.736L326.84 478.361L326.075 480.6H327.121L327.976 478.102L329.968 472.635H328.843ZM333.418 478.395C335.117 478.395 336.332 477.168 336.332 475.47C336.332 473.771 335.117 472.545 333.418 472.545C331.72 472.545 330.493 473.771 330.493 475.47C330.493 477.168 331.72 478.395 333.418 478.395ZM333.418 477.438C332.338 477.438 331.607 476.628 331.607 475.47C331.607 474.311 332.338 473.501 333.418 473.501C334.487 473.501 335.218 474.311 335.218 475.47C335.218 476.628 334.487 477.438 333.418 477.438ZM341.563 472.635V475.706C341.563 476.696 340.933 477.416 340.044 477.416C339.245 477.416 338.717 476.808 338.717 475.908V472.635H337.625V476.122C337.625 477.472 338.458 478.395 339.74 478.395C340.584 478.395 341.259 478.012 341.563 477.303V478.305H342.654V472.635H341.563ZM348.839 478.305V473.58H350.549V472.635H348.839V472.117C348.839 471.555 349.176 471.206 349.694 471.206H350.549V470.261H349.615C348.479 470.261 347.748 470.97 347.748 472.083V472.635H346.589V473.58H347.748V478.305H348.839ZM355 472.635H354.313C353.515 472.635 353.065 472.972 352.806 473.726V472.635H351.715V478.305H352.806V475.74C352.806 474.502 353.143 473.58 354.178 473.58H355V472.635ZM358.482 478.395C360.181 478.395 361.396 477.168 361.396 475.47C361.396 473.771 360.181 472.545 358.482 472.545C356.784 472.545 355.557 473.771 355.557 475.47C355.557 477.168 356.784 478.395 358.482 478.395ZM358.482 477.438C357.402 477.438 356.671 476.628 356.671 475.47C356.671 474.311 357.402 473.501 358.482 473.501C359.551 473.501 360.282 474.311 360.282 475.47C360.282 476.628 359.551 477.438 358.482 477.438ZM363.781 478.305V475.008C363.781 474.108 364.298 473.501 365.164 473.501C365.907 473.501 366.357 474.108 366.357 475.008V478.305H367.448V475.008C367.448 474.108 367.966 473.501 368.832 473.501C369.586 473.501 370.036 474.108 370.036 475.008V478.305H371.127V474.705C371.127 473.388 370.362 472.545 369.136 472.545C368.258 472.545 367.516 473.062 367.291 473.703C367.066 472.961 366.379 472.545 365.457 472.545C364.624 472.545 364.017 473.006 363.781 473.647V472.635H362.69V478.305H363.781ZM237.414 491.395C238.167 491.395 238.865 491.023 239.202 490.461V491.305H240.294V483.261H239.202V486.467C238.865 485.916 238.179 485.545 237.402 485.545C235.67 485.545 234.691 486.782 234.691 488.47C234.691 490.157 235.67 491.395 237.414 491.395ZM237.537 490.438C236.491 490.438 235.805 489.651 235.805 488.47C235.805 487.288 236.491 486.501 237.537 486.501C238.595 486.501 239.281 487.288 239.281 488.47C239.281 489.651 238.595 490.438 237.537 490.438ZM244.554 491.395C246.252 491.395 247.467 490.168 247.467 488.47C247.467 486.771 246.252 485.545 244.554 485.545C242.855 485.545 241.629 486.771 241.629 488.47C241.629 490.168 242.855 491.395 244.554 491.395ZM244.554 490.438C243.474 490.438 242.742 489.628 242.742 488.47C242.742 487.311 243.474 486.501 244.554 486.501C245.622 486.501 246.354 487.311 246.354 488.47C246.354 489.628 245.622 490.438 244.554 490.438ZM248.682 484.667H249.919V483.25H248.682V484.667ZM249.852 491.305V485.635H248.761V491.305H249.852ZM252.549 491.305V488.233C252.549 487.243 253.179 486.523 254.068 486.523C254.866 486.523 255.395 487.131 255.395 488.031V491.305H256.486V487.817C256.486 486.467 255.654 485.545 254.371 485.545C253.528 485.545 252.853 485.927 252.549 486.636V485.635H251.458V491.305H252.549ZM262.351 486.388C262.002 485.893 261.305 485.545 260.551 485.545C258.818 485.545 257.84 486.782 257.84 488.47C257.84 490.157 258.818 491.395 260.562 491.395C261.361 491.395 262.081 491.068 262.351 490.585V491.507C262.351 492.193 261.878 492.688 261.226 492.688H258.605V493.6H261.338C262.576 493.6 263.442 492.767 263.442 491.575V485.635H262.351V486.388ZM260.686 490.438C259.64 490.438 258.953 489.662 258.953 488.47C258.953 487.277 259.64 486.501 260.686 486.501C261.743 486.501 262.43 487.277 262.43 488.47C262.43 489.662 261.743 490.438 260.686 490.438ZM268.572 485.635H267.414V486.58H268.572V489.448C268.572 490.607 269.304 491.305 270.451 491.305H271.34V490.315H270.541C269.99 490.315 269.664 489.977 269.664 489.37V486.58H271.34V485.635H269.664V483.857H268.572V485.635ZM273.786 491.305V488.233C273.786 487.243 274.416 486.523 275.305 486.523C276.103 486.523 276.632 487.131 276.632 488.031V491.305H277.723V487.817C277.723 486.467 276.891 485.545 275.608 485.545C274.765 485.545 274.09 485.927 273.786 486.636V483.261H272.695V491.305H273.786ZM283.395 489.46C283.238 490.101 282.698 490.461 281.865 490.461C280.875 490.461 280.178 489.73 280.088 488.661H284.419C284.43 488.56 284.442 488.38 284.442 488.233C284.442 486.793 283.508 485.545 281.753 485.545C280.009 485.545 279.019 486.85 279.019 488.436C279.019 490.011 280.11 491.395 281.865 491.395C283.26 491.395 284.284 490.63 284.487 489.46H283.395ZM281.753 486.422C282.687 486.422 283.272 486.996 283.339 487.862H280.122C280.29 486.917 280.864 486.422 281.753 486.422ZM290.845 491.305L292.128 487.075L293.422 491.305H294.434L296.189 485.635H295.087L293.928 489.853L292.657 485.635H291.622L290.339 489.853L289.169 485.635H288.078L289.833 491.305H290.845ZM299.725 491.395C301.423 491.395 302.638 490.168 302.638 488.47C302.638 486.771 301.423 485.545 299.725 485.545C298.026 485.545 296.8 486.771 296.8 488.47C296.8 490.168 298.026 491.395 299.725 491.395ZM299.725 490.438C298.645 490.438 297.913 489.628 297.913 488.47C297.913 487.311 298.645 486.501 299.725 486.501C300.793 486.501 301.525 487.311 301.525 488.47C301.525 489.628 300.793 490.438 299.725 490.438ZM307.217 485.635H306.53C305.732 485.635 305.282 485.972 305.023 486.726V485.635H303.932V491.305H305.023V488.74C305.023 487.502 305.36 486.58 306.395 486.58H307.217V485.635ZM313.596 491.305L310.997 487.851L313.382 485.635H311.965L309.501 487.896V483.261H308.399V491.305H309.501V489.246L310.21 488.593L312.246 491.305H313.596ZM320.971 485.635L319.475 489.887L317.99 485.635H316.865L318.969 491.361L318.204 493.6H319.25L320.105 491.102L322.096 485.635H320.971ZM325.547 491.395C327.246 491.395 328.461 490.168 328.461 488.47C328.461 486.771 327.246 485.545 325.547 485.545C323.848 485.545 322.622 486.771 322.622 488.47C322.622 490.168 323.848 491.395 325.547 491.395ZM325.547 490.438C324.467 490.438 323.736 489.628 323.736 488.47C323.736 487.311 324.467 486.501 325.547 486.501C326.616 486.501 327.347 487.311 327.347 488.47C327.347 489.628 326.616 490.438 325.547 490.438ZM333.691 485.635V488.706C333.691 489.696 333.061 490.416 332.173 490.416C331.374 490.416 330.845 489.808 330.845 488.908V485.635H329.754V489.122C329.754 490.472 330.586 491.395 331.869 491.395C332.713 491.395 333.388 491.012 333.691 490.303V491.305H334.783V485.635H333.691ZM340.371 491.305V483.261H339.28V491.305H340.371ZM344.64 491.395C346.339 491.395 347.554 490.168 347.554 488.47C347.554 486.771 346.339 485.545 344.64 485.545C342.941 485.545 341.715 486.771 341.715 488.47C341.715 490.168 342.941 491.395 344.64 491.395ZM344.64 490.438C343.56 490.438 342.829 489.628 342.829 488.47C342.829 487.311 343.56 486.501 344.64 486.501C345.709 486.501 346.44 487.311 346.44 488.47C346.44 489.628 345.709 490.438 344.64 490.438ZM351.237 491.305L353.307 485.635H352.182L350.686 489.932L349.201 485.635H348.076L350.157 491.305H351.237ZM358.209 489.46C358.051 490.101 357.511 490.461 356.679 490.461C355.689 490.461 354.991 489.73 354.901 488.661H359.233C359.244 488.56 359.255 488.38 359.255 488.233C359.255 486.793 358.321 485.545 356.566 485.545C354.823 485.545 353.833 486.85 353.833 488.436C353.833 490.011 354.924 491.395 356.679 491.395C358.074 491.395 359.098 490.63 359.3 489.46H358.209ZM356.566 486.422C357.5 486.422 358.085 486.996 358.153 487.862H354.935C355.104 486.917 355.678 486.422 356.566 486.422ZM360.704 490.697C360.704 490.42 360.771 490.225 360.906 490.112C361.041 490 361.202 489.943 361.39 489.943C361.585 489.943 361.75 490 361.885 490.112C362.027 490.225 362.099 490.42 362.099 490.697C362.099 490.967 362.027 491.162 361.885 491.282C361.75 491.402 361.585 491.462 361.39 491.462C361.202 491.462 361.041 491.402 360.906 491.282C360.771 491.162 360.704 490.967 360.704 490.697ZM240.631 511.305V510.281H236.064L240.631 504.453V503.43H234.905V504.453H239.304L234.669 510.281V511.305H240.631ZM241.854 504.667H243.092V503.25H241.854V504.667ZM243.024 511.305V505.635H241.933V511.305H243.024ZM248.871 506.388C248.522 505.893 247.825 505.545 247.071 505.545C245.339 505.545 244.36 506.782 244.36 508.47C244.36 510.157 245.339 511.395 247.082 511.395C247.881 511.395 248.601 511.068 248.871 510.585V511.507C248.871 512.193 248.399 512.688 247.746 512.688H245.125V513.6H247.859C249.096 513.6 249.962 512.767 249.962 511.575V505.635H248.871V506.388ZM247.206 510.438C246.16 510.438 245.474 509.662 245.474 508.47C245.474 507.277 246.16 506.501 247.206 506.501C248.264 506.501 248.95 507.277 248.95 508.47C248.95 509.662 248.264 510.438 247.206 510.438ZM251.544 504.667H252.781V503.25H251.544V504.667ZM252.714 511.305V505.635H251.622V511.305H252.714ZM255.456 503.396C255.358 503.786 255.216 504.225 255.028 504.712C254.848 505.192 254.668 505.631 254.488 506.028H253.757C253.832 505.743 253.903 505.44 253.971 505.117C254.046 504.787 254.113 504.465 254.173 504.15C254.233 503.827 254.282 503.535 254.319 503.272H255.377L255.456 503.396ZM258.502 511.395C259.785 511.395 260.628 510.731 260.628 509.696C260.628 507.108 257.388 508.548 257.388 507.142C257.388 506.703 257.782 506.411 258.367 506.411C258.851 506.411 259.481 506.67 259.56 507.322H260.583C260.527 506.253 259.65 505.545 258.367 505.545C257.186 505.545 256.353 506.197 256.353 507.176C256.353 509.595 259.571 508.211 259.571 509.718C259.571 510.135 259.155 510.483 258.502 510.483C257.771 510.483 257.298 510.112 257.231 509.46H256.207C256.286 510.652 257.175 511.395 258.502 511.395ZM265.953 511.305V508.233C265.953 507.243 266.583 506.523 267.471 506.523C268.27 506.523 268.799 507.131 268.799 508.031V511.305H269.89V507.817C269.89 506.467 269.058 505.545 267.775 505.545C266.931 505.545 266.256 505.927 265.953 506.636V503.261H264.861V511.305H265.953ZM275.562 509.46C275.405 510.101 274.865 510.461 274.032 510.461C273.042 510.461 272.345 509.73 272.255 508.661H276.586C276.597 508.56 276.608 508.38 276.608 508.233C276.608 506.793 275.675 505.545 273.92 505.545C272.176 505.545 271.186 506.85 271.186 508.436C271.186 510.011 272.277 511.395 274.032 511.395C275.427 511.395 276.451 510.63 276.653 509.46H275.562ZM273.92 506.422C274.853 506.422 275.438 506.996 275.506 507.862H272.288C272.457 506.917 273.031 506.422 273.92 506.422ZM281.229 505.635H280.543C279.744 505.635 279.294 505.972 279.036 506.726V505.635H277.944V511.305H279.036V508.74C279.036 507.502 279.373 506.58 280.408 506.58H281.229V505.635ZM286.163 509.46C286.006 510.101 285.466 510.461 284.633 510.461C283.643 510.461 282.946 509.73 282.856 508.661H287.187C287.198 508.56 287.21 508.38 287.21 508.233C287.21 506.793 286.276 505.545 284.521 505.545C282.777 505.545 281.787 506.85 281.787 508.436C281.787 510.011 282.878 511.395 284.633 511.395C286.028 511.395 287.052 510.63 287.255 509.46H286.163ZM284.521 506.422C285.455 506.422 286.04 506.996 286.107 507.862H282.89C283.058 506.917 283.632 506.422 284.521 506.422ZM292.016 505.635H290.857V506.58H292.016V509.448C292.016 510.607 292.747 511.305 293.895 511.305H294.783V510.315H293.985C293.433 510.315 293.107 509.977 293.107 509.37V506.58H294.783V505.635H293.107V503.857H292.016V505.635ZM298.406 511.395C300.105 511.395 301.32 510.168 301.32 508.47C301.32 506.771 300.105 505.545 298.406 505.545C296.707 505.545 295.481 506.771 295.481 508.47C295.481 510.168 296.707 511.395 298.406 511.395ZM298.406 510.438C297.326 510.438 296.595 509.628 296.595 508.47C296.595 507.311 297.326 506.501 298.406 506.501C299.475 506.501 300.206 507.311 300.206 508.47C300.206 509.628 299.475 510.438 298.406 510.438ZM310.493 505.635H307.174V505.117C307.174 504.555 307.512 504.206 308.029 504.206H308.884V503.261H307.951C306.814 503.261 306.083 503.97 306.083 505.083V505.635H304.924V506.58H306.083V511.305H307.174V506.58H309.402V511.305H310.493V505.635ZM314.727 508.335L316.617 505.635H315.414L314.142 507.48L312.86 505.635H311.656L313.546 508.335L311.487 511.305H312.646L314.142 509.178L315.627 511.305H316.786L314.727 508.335ZM321.326 505.635H320.167V506.58H321.326V509.448C321.326 510.607 322.057 511.305 323.205 511.305H324.094V510.315H323.295C322.744 510.315 322.417 509.977 322.417 509.37V506.58H324.094V505.635H322.417V503.857H321.326V505.635ZM326.539 511.305V508.233C326.539 507.243 327.169 506.523 328.058 506.523C328.857 506.523 329.386 507.131 329.386 508.031V511.305H330.477V507.817C330.477 506.467 329.644 505.545 328.362 505.545C327.518 505.545 326.843 505.927 326.539 506.636V503.261H325.448V511.305H326.539ZM334.249 505.545C332.911 505.545 331.898 506.377 331.808 507.491H332.821C332.854 506.917 333.428 506.422 334.216 506.422C335.093 506.422 335.588 506.895 335.588 507.581C335.588 507.783 335.464 507.918 335.206 507.918H334.024C332.686 507.918 331.819 508.593 331.819 509.685C331.819 510.697 332.584 511.395 333.743 511.395C334.598 511.395 335.318 510.99 335.588 510.382V511.305H336.679V507.648C336.679 506.388 335.712 505.545 334.249 505.545ZM333.957 510.528C333.327 510.528 332.899 510.18 332.899 509.662C332.899 509.066 333.383 508.683 334.126 508.683H335.588V508.818C335.588 509.865 334.992 510.528 333.957 510.528ZM338.766 505.635H337.607V506.58H338.766V509.448C338.766 510.607 339.497 511.305 340.645 511.305H341.534V510.315H340.735C340.184 510.315 339.857 509.977 339.857 509.37V506.58H341.534V505.635H339.857V503.857H338.766V505.635ZM342.802 510.697C342.802 510.42 342.869 510.225 343.004 510.112C343.139 510 343.3 509.943 343.488 509.943C343.683 509.943 343.848 510 343.983 510.112C344.125 510.225 344.197 510.42 344.197 510.697C344.197 510.967 344.125 511.162 343.983 511.282C343.848 511.402 343.683 511.462 343.488 511.462C343.3 511.462 343.139 511.402 343.004 511.282C342.869 511.162 342.802 510.967 342.802 510.697Z" fill="#1A1A1A"/>
<path d="M231.932 656.93L239.547 648.544H232.162V645.356H244.155V648.431L236.539 656.813H244.384V660H231.932V656.93Z" fill="#1A1A1A"/>
<path d="M246.185 645.356H249.934V660H246.185V645.356Z" fill="#1A1A1A"/>
<path d="M269.01 645.356H272.759V660H269.01V645.356Z" fill="#1A1A1A"/>
<path fill-rule="evenodd" clip-rule="evenodd" d="M259.471 667.273C255.954 667.273 252.753 665.864 250.62 663.57L253.365 661.016C254.755 662.51 256.944 663.523 259.471 663.523C261.998 663.523 264.187 662.51 265.577 661.016L268.322 663.57C266.188 665.864 262.988 667.273 259.471 667.273Z" fill="#1A1A1A"/>
<path fill-rule="evenodd" clip-rule="evenodd" d="M263.577 645.371V646.921C263.063 646.19 261.443 645.091 259.265 645.091C255.133 645.091 251.993 648.448 251.993 652.593C251.993 656.737 255.339 660.094 259.471 660.094C263.603 660.094 266.95 656.737 266.95 652.593C266.95 650.244 266.949 647.72 266.95 645.371H263.577ZM259.471 648.727C261.597 648.727 263.325 650.46 263.325 652.593C263.325 654.726 261.597 656.459 259.471 656.459C257.345 656.459 255.617 654.726 255.617 652.593C255.617 650.46 257.345 648.727 259.471 648.727Z" fill="#1A1A1A"/>
</g>
<rect width="333.749" height="593.904" transform="translate(939.722 153.045)" fill="#1A1A1A"/>
<line x1="961.886" y1="173.727" x2="1040.24" y2="173.727" stroke="white" stroke-width="2.81249" stroke-linecap="round"/>
<line opacity="0.3" x1="1052.67" y1="173.727" x2="1131.02" y2="173.727" stroke="white" stroke-width="2.81249" stroke-linecap="round"/>
<line opacity="0.3" x1="1144.58" y1="173.727" x2="1222.93" y2="173.727" stroke="white" stroke-width="2.81249" stroke-linecap="round"/>
<path d="M1243.34 168.388L1256.82 181.877" stroke="white"/>
<path d="M1243.34 181.877L1256.82 168.388" stroke="white"/>
<path fill-rule="evenodd" clip-rule="evenodd" d="M1071.24 441.341V564.286H1093.47V542.057H1115.69V519.829L1137.92 519.829V542.057L1160.15 542.057V564.286H1182.38L1182.38 419.053H1093.53V441.341H1071.24ZM1160.09 419.053H1182.37V441.341H1160.09V419.053Z" fill="#FE8AD0"/>
<path d="M964.771 552.625H953.11V564.286H964.771V552.625Z" fill="#B4F86A"/>
<path d="M987.499 419.053V429.845H975.385V440.118V441.506V451.561H964.772V462.674V463.222V474.457H953.112V486.118H986.941V496.73V496.9V508.438H975.857V519.626V520.146V530.532H964.772V540.927V542.239V552.625H976.442V542.239H986.941V531.325H998.026V520.146H1008.81V508.438H1019.89V496.9H1031.27V486.118H1042.06V474.457H1009.1V463.222H1020.84V451.778H1031.45V441.506H1042.06V430.714H1054.18V419.053H987.499Z" fill="#B4F86A"/>
<path d="M1233.95 564.233V548.102H1217.82V531.971H1201.69V515.84H1250.08V564.233H1233.95ZM1201.69 467.446V419.053H1250.08V467.446H1201.69Z" fill="#0171EA"/>
<path d="M1142.14 727.82H1164.45V705.506H1142.14V727.82Z" fill="#B4F86A"/>
<path d="M1142.14 604.902H1164.45V582.588H1142.14V604.902Z" fill="#B4F86A"/>
<path d="M1123.24 606.794H1098.94V582.588H1050.34V606.794H1026.04V582.588H977.41V606.794H953.11V655.204H977.41V679.41H1001.71V703.615H1026.01V727.82H1050.31V703.615H1074.61V679.41H1098.91V655.204H1123.21L1123.24 606.794Z" fill="#FE7A53"/>
<path d="M1233.95 582.588L1250.08 582.588L1250.08 598.719L1250.08 614.85L1233.95 614.85L1233.95 630.999L1217.82 630.999L1217.82 647.13L1201.69 647.13L1201.69 663.261L1217.82 663.261L1217.82 679.392L1233.95 679.392L1233.95 695.523L1250.08 695.523L1250.08 711.689L1250.08 727.82L1233.95 727.82L1217.82 727.82L1217.82 711.689L1201.69 711.689L1201.69 695.558L1185.56 695.558L1185.56 679.427L1169.42 679.427L1169.42 663.296L1153.29 663.296L1153.29 647.165L1169.42 647.165L1169.42 631.034L1185.56 631.034L1185.56 614.903L1201.69 614.903L1201.69 598.772L1217.82 598.772L1217.82 582.641L1233.95 582.641L1233.95 582.588Z" fill="#22D285"/>
<path d="M961.623 266.149H967.053C972.826 266.149 976.084 262.549 976.084 255.518V226.139H970.14V255.347C970.14 259.005 968.996 260.891 966.31 260.891H961.623V266.149ZM994.155 266.607C1002.79 266.607 1008.96 260.377 1008.96 251.746C1008.96 243.115 1002.79 236.885 994.155 236.885C985.525 236.885 979.294 243.115 979.294 251.746C979.294 260.377 985.525 266.607 994.155 266.607ZM994.155 261.748C988.668 261.748 984.953 257.633 984.953 251.746C984.953 245.859 988.668 241.743 994.155 241.743C999.585 241.743 1003.3 245.859 1003.3 251.746C1003.3 257.633 999.585 261.748 994.155 261.748ZM1012.27 232.427H1018.56V225.225H1012.27V232.427ZM1018.22 266.149V237.342H1012.67V266.149H1018.22ZM1029.06 266.149V250.546C1029.06 245.516 1032.26 241.858 1036.78 241.858C1040.83 241.858 1043.52 244.944 1043.52 249.517V266.149H1049.07V248.431C1049.07 241.572 1044.84 236.885 1038.32 236.885C1034.03 236.885 1030.6 238.828 1029.06 242.429V237.342H1023.52V266.149H1029.06ZM1079.12 266.607C1087.75 266.607 1093.92 260.377 1093.92 251.746C1093.92 243.115 1087.75 236.885 1079.12 236.885C1070.49 236.885 1064.26 243.115 1064.26 251.746C1064.26 260.377 1070.49 266.607 1079.12 266.607ZM1079.12 261.748C1073.63 261.748 1069.91 257.633 1069.91 251.746C1069.91 245.859 1073.63 241.743 1079.12 241.743C1084.55 241.743 1088.26 245.859 1088.26 251.746C1088.26 257.633 1084.55 261.748 1079.12 261.748ZM1117.64 237.342V252.946C1117.64 257.976 1114.44 261.634 1109.92 261.634C1105.86 261.634 1103.18 258.548 1103.18 253.975V237.342H1097.63V255.061C1097.63 261.92 1101.86 266.607 1108.38 266.607C1112.67 266.607 1116.09 264.663 1117.64 261.062V266.149H1123.18V237.342H1117.64ZM1145.26 237.342H1141.77C1137.72 237.342 1135.43 239.057 1134.12 242.886V237.342H1128.57V266.149H1134.12V253.118C1134.12 246.83 1135.83 242.143 1141.09 242.143H1145.26V237.342ZM969.568 326.149V309.402C969.568 304.83 972.197 301.743 976.598 301.743C980.371 301.743 982.657 304.83 982.657 309.402V326.149H988.201V309.402C988.201 304.83 990.83 301.743 995.231 301.743C999.061 301.743 1001.35 304.83 1001.35 309.402V326.149H1006.89V307.859C1006.89 301.172 1003 296.885 996.775 296.885C992.316 296.885 988.544 299.514 987.401 302.772C986.258 299 982.771 296.885 978.084 296.885C973.855 296.885 970.768 299.228 969.568 302.486V297.342H964.024V326.149H969.568ZM1011.87 292.427H1018.15V285.225H1011.87V292.427ZM1017.81 326.149V297.342H1012.27V326.149H1017.81ZM1033.23 326.607C1039.74 326.607 1044.03 323.234 1044.03 317.976C1044.03 304.83 1027.57 312.146 1027.57 305.001C1027.57 302.772 1029.57 301.286 1032.54 301.286C1035 301.286 1038.2 302.601 1038.6 305.916H1043.8C1043.51 300.486 1039.06 296.885 1032.54 296.885C1026.54 296.885 1022.31 300.2 1022.31 305.173C1022.31 317.462 1038.66 310.431 1038.66 318.09C1038.66 320.205 1036.54 321.977 1033.23 321.977C1029.51 321.977 1027.11 320.091 1026.77 316.776H1021.57C1021.97 322.834 1026.48 326.607 1033.23 326.607ZM1058.19 326.607C1064.71 326.607 1069 323.234 1069 317.976C1069 304.83 1052.53 312.146 1052.53 305.001C1052.53 302.772 1054.53 301.286 1057.51 301.286C1059.96 301.286 1063.17 302.601 1063.57 305.916H1068.77C1068.48 300.486 1064.02 296.885 1057.51 296.885C1051.51 296.885 1047.28 300.2 1047.28 305.173C1047.28 317.462 1063.62 310.431 1063.62 318.09C1063.62 320.205 1061.51 321.977 1058.19 321.977C1054.48 321.977 1052.08 320.091 1051.73 316.776H1046.53C1046.93 322.834 1051.45 326.607 1058.19 326.607ZM1072.64 292.427H1078.93V285.225H1072.64V292.427ZM1078.59 326.149V297.342H1073.04V326.149H1078.59ZM1097.09 326.607C1105.72 326.607 1111.89 320.377 1111.89 311.746C1111.89 303.115 1105.72 296.885 1097.09 296.885C1088.46 296.885 1082.23 303.115 1082.23 311.746C1082.23 320.377 1088.46 326.607 1097.09 326.607ZM1097.09 321.748C1091.6 321.748 1087.89 317.633 1087.89 311.746C1087.89 305.859 1091.6 301.743 1097.09 301.743C1102.52 301.743 1106.23 305.859 1106.23 311.746C1106.23 317.633 1102.52 321.748 1097.09 321.748ZM1121.15 326.149V310.546C1121.15 305.516 1124.35 301.858 1128.87 301.858C1132.92 301.858 1135.61 304.944 1135.61 309.517V326.149H1141.16V308.431C1141.16 301.572 1136.93 296.885 1130.41 296.885C1126.12 296.885 1122.69 298.828 1121.15 302.429V297.342H1115.61V326.149H1121.15Z" fill="white"/>
<defs>
<clipPath id="clip0_128_714">
<rect width="333.749" height="593.904" fill="white" transform="translate(166.529 153.045)"/>
</clipPath>
</defs>
</svg>
