<svg width="1440" height="890" viewBox="0 0 1440 890" fill="none" xmlns="http://www.w3.org/2000/svg">
<rect width="1440" height="890" fill="#1A1A1A"/>
<path d="M1251.54 405.596V385.638H1230.21V363.685H1187.15V343.798H1075.33V364.841H1032.66V386.584H1010.76V407.802H989.254V474.502H1010.76V493.899H1032.27C1032.31 493.934 1032.31 494.004 1032.34 494.074C1032.48 494.179 1032.59 494.319 1032.66 494.459V517.393H1073.08V537.805H1184.91V516.237H1230.21V492.953H1251.54V472.261H1272.8V405.596H1251.54Z" fill="#22D285"/>
<path d="M1110.17 406.333V420.093H1096.48V461.654H1110.17V475.274H1152.24V461.128H1165.57V419.883H1151.92V406.333H1110.17Z" fill="#0171EA"/>
<path fill-rule="evenodd" clip-rule="evenodd" d="M320.611 373.57L320.611 537.805H350.304L350.304 508.111H379.997V478.418L409.689 478.418V508.111L439.382 508.112V537.805H469.075L469.075 343.798H350.383V373.57H320.611ZM439.296 343.799H469.069V373.571H439.296V343.799Z" fill="#0171EA"/>
<path d="M621.636 632.936H589.175V600.602H524.252V632.936H491.79V600.602H426.831V632.936H394.37V697.605H426.831V729.94H459.293V762.274H491.754V794.609H524.216V762.274H556.677V729.94H589.138V697.605H621.6L621.636 632.936Z" fill="#FE8AD0"/>
<path d="M766.375 273.819H750.799V289.396H766.375V273.819Z" fill="#B4F86A"/>
<path d="M796.735 95.3887V109.805H780.553V123.527V125.381V138.814H766.376V153.659V154.39V169.399H750.8V184.976H795.991V199.153V199.38V214.792H781.184V229.738V230.432V244.306H766.376V258.192V259.945V273.819H781.966V259.945H795.991V245.365H810.798V230.432H825.202V214.792H840.009V199.38H855.207V184.976H869.623V169.399H825.593V154.39H841.27V139.104H855.447V125.381H869.623V110.965H885.805V95.3887H796.735Z" fill="#B4F86A"/>
<path d="M1187.97 794.609L1187.97 729.94L1123.3 729.94L1123.3 665.27L1058.63 665.27L1058.63 600.603L993.958 600.603L993.958 794.609L1187.97 794.609Z" fill="#0171EA"/>
<path d="M326.058 189.971H398.941C419.642 189.971 436.424 173.189 436.424 152.488V152.488" stroke="#22D285" stroke-width="18.015"/>
<path d="M325.369 154.572V231.62" stroke="#22D285" stroke-width="18.015"/>
<circle cx="324.851" cy="126.45" r="26.8865" stroke="#22D285" stroke-width="18.015"/>
<circle cx="324.851" cy="258.335" r="26.8865" stroke="#22D285" stroke-width="18.015"/>
<circle cx="436.426" cy="126.45" r="26.8865" stroke="#22D285" stroke-width="18.015"/>
<rect x="510.052" y="95.3887" width="194.007" height="194.007" rx="14.4832" fill="#FE8AD0"/>
<circle cx="607.064" cy="192.393" r="43.8653" fill="#0171EA"/>
<path d="M100.33 289.396V267.84H78.7737V246.283H57.2173V138.501H78.7737V116.945H100.33V95.3887H208.112V116.945H229.668V138.501H251.225V246.283H229.668V267.84H208.112V289.396H100.33Z" fill="#0171EA"/>
<path d="M206.315 186.77C206.315 190.779 205.836 194.744 204.877 198.666C203.918 202.588 202.437 206.161 200.432 209.385C198.515 212.61 196.075 215.181 193.112 217.098C190.148 218.928 186.662 219.843 182.654 219.843C179.429 219.843 176.597 219.103 174.156 217.621C171.716 216.052 170.017 214.048 169.058 211.608H168.012C166.269 213.786 163.916 215.704 160.953 217.36C158.077 219.015 154.591 219.843 150.495 219.843C142.739 219.843 136.725 217.534 132.455 212.915C128.272 208.209 126.18 202.065 126.18 194.483C126.18 188.644 127.444 183.502 129.971 179.057C132.498 174.525 136.072 170.996 140.691 168.468C145.31 165.854 150.756 164.546 157.031 164.546C161.127 164.546 165.354 164.939 169.712 165.723C174.156 166.42 177.599 167.205 180.039 168.076L178.732 194.875C178.645 195.746 178.601 196.661 178.601 197.62C178.601 198.492 178.601 199.058 178.601 199.319C178.601 202.893 179.08 205.289 180.039 206.509C181.085 207.642 182.218 208.209 183.438 208.209C185.442 208.209 187.098 207.25 188.405 205.333C189.713 203.328 190.671 200.714 191.281 197.489C191.979 194.178 192.327 190.561 192.327 186.639C192.327 179.318 190.846 173.131 187.883 168.076C184.919 162.934 180.867 159.012 175.725 156.311C170.67 153.609 164.875 152.258 158.339 152.258C149.188 152.258 141.475 154.176 135.2 158.01C129.012 161.758 124.306 166.899 121.082 173.436C117.857 179.972 116.245 187.467 116.245 195.921C116.245 207.686 119.382 216.706 125.657 222.981C132.019 229.256 141.126 232.393 152.979 232.393C158.034 232.393 163.306 231.827 168.797 230.694C174.287 229.561 179.298 228.166 183.83 226.51V238.799C179.647 240.542 174.984 241.936 169.842 242.982C164.701 244.028 159.254 244.551 153.502 244.551C142.695 244.551 133.457 242.633 125.788 238.799C118.119 234.964 112.236 229.474 108.14 222.327C104.131 215.094 102.126 206.422 102.126 196.313C102.126 188.382 103.434 181.018 106.048 174.22C108.663 167.422 112.41 161.496 117.291 156.441C122.258 151.3 128.184 147.334 135.069 144.545C141.954 141.669 149.667 140.231 158.208 140.231C167.533 140.231 175.812 142.105 183.046 145.853C190.279 149.6 195.944 154.96 200.04 161.932C204.223 168.904 206.315 177.183 206.315 186.77ZM140.952 194.744C140.952 199.537 141.954 202.98 143.959 205.071C145.963 207.163 148.621 208.209 151.933 208.209C156.291 208.209 159.341 206.64 161.084 203.503C162.914 200.278 164.003 196.095 164.352 190.953L165.136 176.835C164.178 176.66 163.088 176.53 161.868 176.442C160.648 176.268 159.297 176.181 157.816 176.181C153.72 176.181 150.408 177.096 147.88 178.926C145.44 180.669 143.654 182.979 142.521 185.855C141.475 188.644 140.952 191.607 140.952 194.744Z" fill="#22D285"/>
<path d="M264.949 440.802C264.949 440.802 215.375 517.724 154.22 517.724C93.0654 517.724 43.4951 440.802 43.4951 440.802C43.4951 440.802 93.0696 363.88 154.224 363.88C215.379 363.88 264.949 440.802 264.949 440.802Z" stroke="#FE8AD0" stroke-width="20.7288" stroke-linejoin="round"/>
<path d="M154.222 470.208C170.489 470.208 183.676 457.042 183.676 440.801C183.676 424.56 170.489 411.394 154.222 411.394C137.955 411.394 124.768 424.56 124.768 440.801C124.768 457.042 137.955 470.208 154.222 470.208Z" fill="#FE8AD0"/>
<path d="M1253.18 662.287V737.862" stroke="#FE8AD0" stroke-width="18.015"/>
<path d="M1361.21 737.864L1361.21 677.757C1361.21 653.98 1341.93 634.704 1318.16 634.704V634.704" stroke="#FE8AD0" stroke-width="18.015"/>
<circle cx="1252.68" cy="634.702" r="26.3726" stroke="#FE8AD0" stroke-width="18.015"/>
<circle cx="1252.68" cy="764.062" r="26.3726" stroke="#FE8AD0" stroke-width="18.015"/>
<circle cx="1360.7" cy="764.062" r="26.3726" stroke="#FE8AD0" stroke-width="18.015"/>
<path d="M1288.05 634.7L1318.16 604.776V664.624L1288.05 634.7Z" fill="#FE8AD0"/>
<path d="M1023.59 105.673C1031.51 91.9607 1051.3 91.9607 1059.22 105.673L1147.48 258.544C1155.39 272.256 1145.5 289.396 1129.66 289.396H953.144C937.311 289.396 927.415 272.256 935.332 258.544L1023.59 105.673Z" fill="#FE7A53"/>
<path d="M1050 222.777H1033.1L1029.55 155.019H1053.55L1050 222.777ZM1029.26 246.5C1029.26 242.144 1030.45 239.114 1032.81 237.409C1035.18 235.61 1038.07 234.71 1041.48 234.71C1044.79 234.71 1047.63 235.61 1050 237.409C1052.37 239.114 1053.55 242.144 1053.55 246.5C1053.55 250.667 1052.37 253.698 1050 255.592C1047.63 257.391 1044.79 258.291 1041.48 258.291C1038.07 258.291 1035.18 257.391 1032.81 255.592C1030.45 253.698 1029.26 250.667 1029.26 246.5Z" fill="#B4F86A"/>
<path d="M251.749 794.61H230.201V773.062V751.513H251.749V729.941H273.298V708.393H294.846V686.844H273.298V665.296H251.749V643.747H230.201V622.152V600.604H251.749H273.298V622.152H294.846V643.7H316.395V665.249H337.943V686.797H359.492V708.346H337.943V729.894H316.395V751.443H294.846V772.991H273.298V794.54H251.749V794.61Z" fill="#B4F86A"/>
<path d="M150.45 600.603L171.999 600.603L171.999 622.151L171.999 643.7L150.45 643.7L150.45 665.272L128.902 665.272L128.902 686.82L107.353 686.82L107.353 708.369L128.902 708.369L128.902 729.917L150.45 729.917L150.45 751.465L171.999 751.465L171.999 773.061L171.999 794.609L150.45 794.609L128.902 794.609L128.902 773.061L107.353 773.061L107.353 751.512L85.8046 751.512L85.8046 729.964L64.2562 729.964L64.2561 708.415L42.7077 708.415L42.7077 686.867L64.2561 686.867L64.2561 665.319L85.8046 665.319L85.8046 643.77L107.353 643.77L107.353 622.222L128.902 622.222L128.902 600.673L150.45 600.673L150.45 600.603Z" fill="#B4F86A"/>
<mask id="path-29-inside-1_1_409" fill="white">
<rect x="1197" y="95.3887" width="129.342" height="129.34" rx="12.5472"/>
</mask>
<rect x="1197" y="95.3887" width="129.342" height="129.34" rx="12.5472" stroke="#0171EA" stroke-width="34.4044" mask="url(#path-29-inside-1_1_409)"/>
<mask id="path-30-inside-2_1_409" fill="white">
<rect x="1261.68" y="160.057" width="129.342" height="129.34" rx="12.5472"/>
</mask>
<rect x="1261.68" y="160.057" width="129.342" height="129.34" rx="12.5472" fill="#0171EA" stroke="#0171EA" stroke-width="34.4044" mask="url(#path-30-inside-2_1_409)"/>
<path d="M1375.74 537.805V516.249H1354.18V494.692H1332.62V473.136H1397.29V537.805H1375.74ZM1332.62 408.467V343.798H1397.29V408.467H1332.62Z" fill="#B4F86A"/>
<path d="M701.014 794.609V773.053H679.458V751.496H657.901V729.94H722.57V794.609H701.014ZM657.901 665.271V600.602H722.57V665.271H657.901Z" fill="#0171EA"/>
<path d="M764.381 600.602H958.389V794.609L764.381 600.602Z" fill="#FE7A53"/>
<rect x="764.381" y="730.172" width="64.4382" height="64.4382" fill="#22D285"/>
<path d="M579.558 445.769L632.056 387.955H581.141V365.982H663.816V387.175L611.318 444.961H665.398V466.934H579.558V445.769Z" fill="white"/>
<path d="M677.809 365.982H703.655V466.934H677.809V365.982Z" fill="white"/>
<path d="M835.153 365.982H861V466.934H835.153V365.982Z" fill="white"/>
<path fill-rule="evenodd" clip-rule="evenodd" d="M769.398 517.072C745.155 517.072 723.09 507.353 708.38 491.542L727.307 473.933C736.889 484.231 751.978 491.22 769.398 491.22C786.818 491.22 801.907 484.231 811.489 473.933L830.416 491.542C815.706 507.353 793.642 517.072 769.398 517.072Z" fill="white"/>
<path fill-rule="evenodd" clip-rule="evenodd" d="M797.712 366.088V376.772C794.165 371.729 783.001 364.153 767.985 364.153C739.501 364.153 717.85 387.296 717.85 415.868C717.85 444.441 740.92 467.583 769.404 467.583C797.888 467.583 820.958 444.441 820.958 415.868C820.958 399.679 820.957 382.277 820.96 366.088H797.712ZM769.404 389.217C784.062 389.217 795.972 401.164 795.972 415.868C795.972 430.572 784.062 442.52 769.404 442.52C754.746 442.52 742.836 430.572 742.836 415.868C742.836 401.164 754.746 389.217 769.404 389.217Z" fill="white"/>
</svg>
