<svg width="742" height="529" viewBox="0 0 742 529" fill="none" xmlns="http://www.w3.org/2000/svg">
<path d="M325.956 12.586H327.09C326.958 11.47 326.562 10.642 325.902 10.102C325.242 9.562 324.348 9.292 323.22 9.292C322.536 9.292 321.948 9.412 321.456 9.652C320.964 9.892 320.55 10.204 320.214 10.588C319.89 10.972 319.626 11.404 319.422 11.884C319.23 12.352 319.08 12.82 318.972 13.288C318.864 13.744 318.792 14.176 318.756 14.584C318.732 14.992 318.72 15.322 318.72 15.574C318.72 16.81 318.804 17.854 318.972 18.706C319.152 19.546 319.422 20.23 319.782 20.758C320.142 21.286 320.598 21.67 321.15 21.91C321.702 22.138 322.362 22.252 323.13 22.252C323.754 22.252 324.324 22.15 324.84 21.946C325.368 21.73 325.818 21.436 326.19 21.064C326.574 20.68 326.868 20.23 327.072 19.714C327.288 19.186 327.396 18.616 327.396 18.004C327.396 17.392 327.294 16.828 327.09 16.312C326.898 15.796 326.622 15.352 326.262 14.98C325.902 14.608 325.464 14.32 324.948 14.116C324.444 13.9 323.874 13.792 323.238 13.792C322.518 13.792 321.852 13.984 321.24 14.368C320.64 14.752 320.19 15.256 319.89 15.88H319.854C319.854 15.304 319.896 14.692 319.98 14.044C320.064 13.384 320.232 12.772 320.484 12.208C320.736 11.644 321.09 11.176 321.546 10.804C322.002 10.432 322.596 10.246 323.328 10.246C324.06 10.246 324.654 10.462 325.11 10.894C325.578 11.326 325.86 11.89 325.956 12.586ZM323.22 14.746C323.7 14.746 324.126 14.836 324.498 15.016C324.882 15.184 325.2 15.418 325.452 15.718C325.716 16.018 325.914 16.372 326.046 16.78C326.19 17.188 326.262 17.62 326.262 18.076C326.262 18.508 326.19 18.922 326.046 19.318C325.902 19.714 325.692 20.062 325.416 20.362C325.152 20.65 324.834 20.884 324.462 21.064C324.102 21.232 323.694 21.316 323.238 21.316C322.686 21.316 322.212 21.232 321.816 21.064C321.42 20.896 321.09 20.668 320.826 20.38C320.574 20.08 320.388 19.732 320.268 19.336C320.148 18.94 320.088 18.52 320.088 18.076C320.088 17.608 320.154 17.176 320.286 16.78C320.43 16.372 320.634 16.018 320.898 15.718C321.174 15.418 321.504 15.184 321.888 15.016C322.284 14.836 322.728 14.746 323.22 14.746ZM333.006 9.292C332.094 9.292 331.35 9.496 330.774 9.904C330.198 10.3 329.748 10.81 329.424 11.434C329.112 12.058 328.896 12.754 328.776 13.522C328.668 14.29 328.614 15.046 328.614 15.79C328.614 16.522 328.668 17.272 328.776 18.04C328.896 18.808 329.112 19.504 329.424 20.128C329.748 20.752 330.198 21.262 330.774 21.658C331.35 22.054 332.094 22.252 333.006 22.252C333.93 22.252 334.674 22.054 335.238 21.658C335.814 21.262 336.258 20.752 336.57 20.128C336.894 19.504 337.11 18.808 337.218 18.04C337.338 17.272 337.398 16.516 337.398 15.772C337.398 15.04 337.338 14.29 337.218 13.522C337.11 12.754 336.894 12.058 336.57 11.434C336.258 10.81 335.814 10.3 335.238 9.904C334.674 9.496 333.93 9.292 333.006 9.292ZM333.006 10.246C333.726 10.246 334.302 10.432 334.734 10.804C335.166 11.176 335.49 11.638 335.706 12.19C335.934 12.742 336.084 13.342 336.156 13.99C336.228 14.638 336.264 15.232 336.264 15.772C336.264 16.324 336.228 16.924 336.156 17.572C336.084 18.208 335.934 18.808 335.706 19.372C335.49 19.924 335.166 20.386 334.734 20.758C334.302 21.13 333.726 21.316 333.006 21.316C332.286 21.316 331.71 21.13 331.278 20.758C330.846 20.386 330.516 19.924 330.288 19.372C330.072 18.808 329.928 18.208 329.856 17.572C329.784 16.924 329.748 16.324 329.748 15.772C329.748 15.232 329.784 14.638 329.856 13.99C329.928 13.342 330.072 12.742 330.288 12.19C330.516 11.638 330.846 11.176 331.278 10.804C331.71 10.432 332.286 10.246 333.006 10.246ZM350.646 15.628H351.78C351.648 14.56 351.234 13.762 350.538 13.234C349.854 12.706 349.014 12.442 348.018 12.442C347.31 12.442 346.68 12.574 346.128 12.838C345.588 13.102 345.132 13.456 344.76 13.9C344.388 14.344 344.106 14.866 343.914 15.466C343.722 16.054 343.626 16.684 343.626 17.356C343.626 18.028 343.722 18.664 343.914 19.264C344.106 19.852 344.388 20.368 344.76 20.812C345.132 21.256 345.588 21.61 346.128 21.874C346.68 22.126 347.31 22.252 348.018 22.252C349.074 22.252 349.938 21.94 350.61 21.316C351.282 20.68 351.696 19.798 351.852 18.67H350.718C350.682 19.054 350.586 19.408 350.43 19.732C350.274 20.056 350.076 20.338 349.836 20.578C349.596 20.806 349.32 20.986 349.008 21.118C348.696 21.25 348.366 21.316 348.018 21.316C347.478 21.316 347.004 21.202 346.596 20.974C346.188 20.746 345.846 20.446 345.57 20.074C345.306 19.702 345.102 19.282 344.958 18.814C344.826 18.334 344.76 17.848 344.76 17.356C344.76 16.864 344.826 16.384 344.958 15.916C345.102 15.436 345.306 15.01 345.57 14.638C345.846 14.266 346.188 13.966 346.596 13.738C347.004 13.51 347.478 13.396 348.018 13.396C348.774 13.396 349.362 13.594 349.782 13.99C350.202 14.386 350.49 14.932 350.646 15.628ZM353.428 12.712V22H354.562V16.816C354.562 16.324 354.616 15.874 354.724 15.466C354.832 15.046 354.994 14.686 355.21 14.386C355.438 14.074 355.726 13.834 356.074 13.666C356.434 13.486 356.854 13.396 357.334 13.396C357.694 13.396 358 13.456 358.252 13.576C358.504 13.696 358.702 13.864 358.846 14.08C359.002 14.284 359.11 14.53 359.17 14.818C359.242 15.094 359.278 15.388 359.278 15.7V22H360.412V16.744C360.412 16.312 360.448 15.898 360.52 15.502C360.604 15.094 360.742 14.734 360.934 14.422C361.126 14.11 361.384 13.864 361.708 13.684C362.032 13.492 362.44 13.396 362.932 13.396C363.748 13.396 364.318 13.6 364.642 14.008C364.966 14.404 365.128 14.986 365.128 15.754V22H366.262V15.7C366.262 13.528 365.236 12.442 363.184 12.442C362.572 12.442 361.996 12.592 361.456 12.892C360.916 13.192 360.508 13.648 360.232 14.26C360.064 13.648 359.728 13.192 359.224 12.892C358.732 12.592 358.18 12.442 357.568 12.442C356.812 12.442 356.188 12.604 355.696 12.928C355.216 13.252 354.826 13.702 354.526 14.278H354.472V12.712H353.428Z" fill="#221C35"/>
<path d="M669.918 304.562V305.606H676.884C676.008 306.602 675.258 307.556 674.634 308.468C674.022 309.38 673.506 310.292 673.086 311.204C672.678 312.104 672.36 313.028 672.132 313.976C671.916 314.924 671.772 315.932 671.7 317H672.924C672.996 315.536 673.224 314.198 673.608 312.986C674.004 311.762 674.46 310.676 674.976 309.728C675.504 308.768 676.044 307.946 676.596 307.262C677.148 306.566 677.622 306.014 678.018 305.606V304.562H669.918ZM680.784 313.4H679.65C679.662 314 679.776 314.54 679.992 315.02C680.208 315.5 680.496 315.908 680.856 316.244C681.228 316.568 681.66 316.82 682.152 317C682.656 317.168 683.202 317.252 683.79 317.252C684.39 317.252 684.954 317.15 685.482 316.946C686.022 316.73 686.49 316.436 686.886 316.064C687.282 315.68 687.594 315.23 687.822 314.714C688.05 314.186 688.164 313.616 688.164 313.004C688.164 312.368 688.062 311.786 687.858 311.258C687.666 310.718 687.384 310.256 687.012 309.872C686.652 309.488 686.208 309.188 685.68 308.972C685.164 308.756 684.582 308.648 683.934 308.648C683.43 308.648 682.938 308.75 682.458 308.954C681.978 309.158 681.582 309.446 681.27 309.818L681.234 309.782L682.044 305.606H687.552V304.562H681.252L680.028 311.096H681C681.312 310.616 681.714 310.25 682.206 309.998C682.698 309.734 683.232 309.602 683.808 309.602C684.276 309.602 684.708 309.686 685.104 309.854C685.5 310.022 685.836 310.256 686.112 310.556C686.4 310.844 686.622 311.186 686.778 311.582C686.946 311.978 687.03 312.41 687.03 312.878C687.03 313.334 686.958 313.772 686.814 314.192C686.67 314.6 686.46 314.966 686.184 315.29C685.908 315.602 685.578 315.854 685.194 316.046C684.81 316.226 684.372 316.316 683.88 316.316C683.448 316.316 683.046 316.25 682.674 316.118C682.302 315.974 681.978 315.776 681.702 315.524C681.426 315.26 681.204 314.948 681.036 314.588C680.88 314.228 680.796 313.832 680.784 313.4ZM701.646 310.628H702.78C702.648 309.56 702.234 308.762 701.538 308.234C700.854 307.706 700.014 307.442 699.018 307.442C698.31 307.442 697.68 307.574 697.128 307.838C696.588 308.102 696.132 308.456 695.76 308.9C695.388 309.344 695.106 309.866 694.914 310.466C694.722 311.054 694.626 311.684 694.626 312.356C694.626 313.028 694.722 313.664 694.914 314.264C695.106 314.852 695.388 315.368 695.76 315.812C696.132 316.256 696.588 316.61 697.128 316.874C697.68 317.126 698.31 317.252 699.018 317.252C700.074 317.252 700.938 316.94 701.61 316.316C702.282 315.68 702.696 314.798 702.852 313.67H701.718C701.682 314.054 701.586 314.408 701.43 314.732C701.274 315.056 701.076 315.338 700.836 315.578C700.596 315.806 700.32 315.986 700.008 316.118C699.696 316.25 699.366 316.316 699.018 316.316C698.478 316.316 698.004 316.202 697.596 315.974C697.188 315.746 696.846 315.446 696.57 315.074C696.306 314.702 696.102 314.282 695.958 313.814C695.826 313.334 695.76 312.848 695.76 312.356C695.76 311.864 695.826 311.384 695.958 310.916C696.102 310.436 696.306 310.01 696.57 309.638C696.846 309.266 697.188 308.966 697.596 308.738C698.004 308.51 698.478 308.396 699.018 308.396C699.774 308.396 700.362 308.594 700.782 308.99C701.202 309.386 701.49 309.932 701.646 310.628ZM704.428 307.712V317H705.562V311.816C705.562 311.324 705.616 310.874 705.724 310.466C705.832 310.046 705.994 309.686 706.21 309.386C706.438 309.074 706.726 308.834 707.074 308.666C707.434 308.486 707.854 308.396 708.334 308.396C708.694 308.396 709 308.456 709.252 308.576C709.504 308.696 709.702 308.864 709.846 309.08C710.002 309.284 710.11 309.53 710.17 309.818C710.242 310.094 710.278 310.388 710.278 310.7V317H711.412V311.744C711.412 311.312 711.448 310.898 711.52 310.502C711.604 310.094 711.742 309.734 711.934 309.422C712.126 309.11 712.384 308.864 712.708 308.684C713.032 308.492 713.44 308.396 713.932 308.396C714.748 308.396 715.318 308.6 715.642 309.008C715.966 309.404 716.128 309.986 716.128 310.754V317H717.262V310.7C717.262 308.528 716.236 307.442 714.184 307.442C713.572 307.442 712.996 307.592 712.456 307.892C711.916 308.192 711.508 308.648 711.232 309.26C711.064 308.648 710.728 308.192 710.224 307.892C709.732 307.592 709.18 307.442 708.568 307.442C707.812 307.442 707.188 307.604 706.696 307.928C706.216 308.252 705.826 308.702 705.526 309.278H705.472V307.712H704.428Z" fill="#221C35"/>
<path d="M325.956 211.586H327.09C326.958 210.47 326.562 209.642 325.902 209.102C325.242 208.562 324.348 208.292 323.22 208.292C322.536 208.292 321.948 208.412 321.456 208.652C320.964 208.892 320.55 209.204 320.214 209.588C319.89 209.972 319.626 210.404 319.422 210.884C319.23 211.352 319.08 211.82 318.972 212.288C318.864 212.744 318.792 213.176 318.756 213.584C318.732 213.992 318.72 214.322 318.72 214.574C318.72 215.81 318.804 216.854 318.972 217.706C319.152 218.546 319.422 219.23 319.782 219.758C320.142 220.286 320.598 220.67 321.15 220.91C321.702 221.138 322.362 221.252 323.13 221.252C323.754 221.252 324.324 221.15 324.84 220.946C325.368 220.73 325.818 220.436 326.19 220.064C326.574 219.68 326.868 219.23 327.072 218.714C327.288 218.186 327.396 217.616 327.396 217.004C327.396 216.392 327.294 215.828 327.09 215.312C326.898 214.796 326.622 214.352 326.262 213.98C325.902 213.608 325.464 213.32 324.948 213.116C324.444 212.9 323.874 212.792 323.238 212.792C322.518 212.792 321.852 212.984 321.24 213.368C320.64 213.752 320.19 214.256 319.89 214.88H319.854C319.854 214.304 319.896 213.692 319.98 213.044C320.064 212.384 320.232 211.772 320.484 211.208C320.736 210.644 321.09 210.176 321.546 209.804C322.002 209.432 322.596 209.246 323.328 209.246C324.06 209.246 324.654 209.462 325.11 209.894C325.578 210.326 325.86 210.89 325.956 211.586ZM323.22 213.746C323.7 213.746 324.126 213.836 324.498 214.016C324.882 214.184 325.2 214.418 325.452 214.718C325.716 215.018 325.914 215.372 326.046 215.78C326.19 216.188 326.262 216.62 326.262 217.076C326.262 217.508 326.19 217.922 326.046 218.318C325.902 218.714 325.692 219.062 325.416 219.362C325.152 219.65 324.834 219.884 324.462 220.064C324.102 220.232 323.694 220.316 323.238 220.316C322.686 220.316 322.212 220.232 321.816 220.064C321.42 219.896 321.09 219.668 320.826 219.38C320.574 219.08 320.388 218.732 320.268 218.336C320.148 217.94 320.088 217.52 320.088 217.076C320.088 216.608 320.154 216.176 320.286 215.78C320.43 215.372 320.634 215.018 320.898 214.718C321.174 214.418 321.504 214.184 321.888 214.016C322.284 213.836 322.728 213.746 323.22 213.746ZM329.784 217.4H328.65C328.662 218 328.776 218.54 328.992 219.02C329.208 219.5 329.496 219.908 329.856 220.244C330.228 220.568 330.66 220.82 331.152 221C331.656 221.168 332.202 221.252 332.79 221.252C333.39 221.252 333.954 221.15 334.482 220.946C335.022 220.73 335.49 220.436 335.886 220.064C336.282 219.68 336.594 219.23 336.822 218.714C337.05 218.186 337.164 217.616 337.164 217.004C337.164 216.368 337.062 215.786 336.858 215.258C336.666 214.718 336.384 214.256 336.012 213.872C335.652 213.488 335.208 213.188 334.68 212.972C334.164 212.756 333.582 212.648 332.934 212.648C332.43 212.648 331.938 212.75 331.458 212.954C330.978 213.158 330.582 213.446 330.27 213.818L330.234 213.782L331.044 209.606H336.552V208.562H330.252L329.028 215.096H330C330.312 214.616 330.714 214.25 331.206 213.998C331.698 213.734 332.232 213.602 332.808 213.602C333.276 213.602 333.708 213.686 334.104 213.854C334.5 214.022 334.836 214.256 335.112 214.556C335.4 214.844 335.622 215.186 335.778 215.582C335.946 215.978 336.03 216.41 336.03 216.878C336.03 217.334 335.958 217.772 335.814 218.192C335.67 218.6 335.46 218.966 335.184 219.29C334.908 219.602 334.578 219.854 334.194 220.046C333.81 220.226 333.372 220.316 332.88 220.316C332.448 220.316 332.046 220.25 331.674 220.118C331.302 219.974 330.978 219.776 330.702 219.524C330.426 219.26 330.204 218.948 330.036 218.588C329.88 218.228 329.796 217.832 329.784 217.4ZM350.646 214.628H351.78C351.648 213.56 351.234 212.762 350.538 212.234C349.854 211.706 349.014 211.442 348.018 211.442C347.31 211.442 346.68 211.574 346.128 211.838C345.588 212.102 345.132 212.456 344.76 212.9C344.388 213.344 344.106 213.866 343.914 214.466C343.722 215.054 343.626 215.684 343.626 216.356C343.626 217.028 343.722 217.664 343.914 218.264C344.106 218.852 344.388 219.368 344.76 219.812C345.132 220.256 345.588 220.61 346.128 220.874C346.68 221.126 347.31 221.252 348.018 221.252C349.074 221.252 349.938 220.94 350.61 220.316C351.282 219.68 351.696 218.798 351.852 217.67H350.718C350.682 218.054 350.586 218.408 350.43 218.732C350.274 219.056 350.076 219.338 349.836 219.578C349.596 219.806 349.32 219.986 349.008 220.118C348.696 220.25 348.366 220.316 348.018 220.316C347.478 220.316 347.004 220.202 346.596 219.974C346.188 219.746 345.846 219.446 345.57 219.074C345.306 218.702 345.102 218.282 344.958 217.814C344.826 217.334 344.76 216.848 344.76 216.356C344.76 215.864 344.826 215.384 344.958 214.916C345.102 214.436 345.306 214.01 345.57 213.638C345.846 213.266 346.188 212.966 346.596 212.738C347.004 212.51 347.478 212.396 348.018 212.396C348.774 212.396 349.362 212.594 349.782 212.99C350.202 213.386 350.49 213.932 350.646 214.628ZM353.428 211.712V221H354.562V215.816C354.562 215.324 354.616 214.874 354.724 214.466C354.832 214.046 354.994 213.686 355.21 213.386C355.438 213.074 355.726 212.834 356.074 212.666C356.434 212.486 356.854 212.396 357.334 212.396C357.694 212.396 358 212.456 358.252 212.576C358.504 212.696 358.702 212.864 358.846 213.08C359.002 213.284 359.11 213.53 359.17 213.818C359.242 214.094 359.278 214.388 359.278 214.7V221H360.412V215.744C360.412 215.312 360.448 214.898 360.52 214.502C360.604 214.094 360.742 213.734 360.934 213.422C361.126 213.11 361.384 212.864 361.708 212.684C362.032 212.492 362.44 212.396 362.932 212.396C363.748 212.396 364.318 212.6 364.642 213.008C364.966 213.404 365.128 213.986 365.128 214.754V221H366.262V214.7C366.262 212.528 365.236 211.442 363.184 211.442C362.572 211.442 361.996 211.592 361.456 211.892C360.916 212.192 360.508 212.648 360.232 213.26C360.064 212.648 359.728 212.192 359.224 211.892C358.732 211.592 358.18 211.442 357.568 211.442C356.812 211.442 356.188 211.604 355.696 211.928C355.216 212.252 354.826 212.702 354.526 213.278H354.472V211.712H353.428Z" fill="#221C35"/>
<path d="M56.8105 75.676L56.1975 74.8309L50.5296 78.9422C50.3413 78.56 50.2615 78.1435 50.2903 77.6927C50.3121 77.2321 50.3854 76.7713 50.5104 76.31C50.6451 75.8417 50.8071 75.3906 50.9964 74.9568C51.1787 74.5132 51.3314 74.1208 51.4545 73.7795C51.6394 73.3192 51.7944 72.8584 51.9194 72.3972C52.047 71.9191 52.1217 71.4499 52.1434 70.9893C52.1749 70.5218 52.1318 70.0638 52.0141 69.6155C51.9062 69.1601 51.6972 68.7187 51.3872 68.2913C51.0419 67.8154 50.6564 67.4576 50.2305 67.218C49.8144 66.9713 49.3761 66.8371 48.9156 66.8154C48.4577 66.7768 47.9923 66.8402 47.5192 67.0055C47.0487 67.154 46.5901 67.3903 46.1433 67.7145C45.5896 68.1161 45.1709 68.5607 44.8871 69.0482C44.6059 69.519 44.4456 70.0133 44.4062 70.5311C44.3667 71.049 44.441 71.5806 44.6292 72.1261C44.8199 72.6548 45.1104 73.1779 45.5006 73.6954L46.4186 73.0295C46.1341 72.6577 45.9074 72.2737 45.7385 71.8773C45.5793 71.4739 45.4968 71.0742 45.4912 70.678C45.4855 70.2819 45.572 69.9004 45.7506 69.5336C45.939 69.1598 46.2421 68.8214 46.6597 68.5184C46.9706 68.2929 47.2972 68.1301 47.6396 68.03C47.9848 67.913 48.3262 67.8729 48.6641 67.9095C49.0046 67.9293 49.3283 68.0281 49.6351 68.2058C49.9446 68.3668 50.2191 68.6124 50.4587 68.9426C50.7546 69.3506 50.9389 69.758 51.0116 70.1648C51.087 70.5548 51.086 70.9929 51.0087 71.4789C50.9313 71.9649 50.8045 72.4646 50.6283 72.9778C50.4548 73.4743 50.2764 73.9744 50.0932 74.4779C49.9029 74.9717 49.7328 75.4731 49.5831 75.982C49.4263 76.4811 49.3247 76.9848 49.2782 77.4929C49.2317 78.001 49.2668 78.5092 49.3835 79.0176C49.5002 79.5259 49.7369 80.0361 50.0936 80.5483L56.8105 75.676ZM53.1071 65.7985L53.5827 66.4541L56.2782 64.4989L61.7741 72.0755L62.692 71.4096L55.2937 61.2104L54.5506 61.7494C54.8208 62.265 54.9685 62.7138 54.9936 63.0958C55.0214 63.4611 54.9597 63.795 54.8084 64.0974C54.6669 64.3928 54.4451 64.6797 54.143 64.9581C53.8436 65.2197 53.4983 65.4999 53.1071 65.7985ZM72.2531 56.6023L73.171 55.9365C72.4371 55.1495 71.6334 54.7466 70.76 54.7279C69.8963 54.7021 69.0614 54.9816 68.2551 55.5665C67.682 55.9822 67.2496 56.459 66.9578 56.9968C66.6757 57.5275 66.5144 58.0818 66.474 58.6597C66.4336 59.2375 66.5118 59.8256 66.7087 60.424C66.8985 61.0127 67.1907 61.5791 67.5853 62.123C67.9799 62.667 68.431 63.1254 68.9387 63.4984C69.4394 63.8616 69.9707 64.1137 70.5325 64.2547C71.0943 64.3957 71.6713 64.4145 72.2634 64.3111C72.8582 64.191 73.4421 63.923 74.0152 63.5073C74.87 62.8873 75.3862 62.1274 75.5638 61.2277C75.7343 60.3183 75.5515 59.3613 75.0155 58.3566L74.0976 59.0225C74.2939 59.3544 74.424 59.6974 74.488 60.0512C74.552 60.4051 74.5573 60.7496 74.5039 61.0848C74.4435 61.4103 74.3258 61.718 74.1508 62.0081C73.9757 62.2981 73.7474 62.5453 73.4657 62.7497C73.0285 63.0667 72.5779 63.2528 72.1138 63.3078C71.6496 63.3628 71.1967 63.3208 70.7548 63.1817C70.3227 63.0356 69.911 62.8154 69.5196 62.5211C69.1309 62.2101 68.7921 61.8554 68.5032 61.4572C68.2143 61.0589 67.9859 60.6316 67.818 60.1753C67.6527 59.7022 67.5677 59.2376 67.563 58.7814C67.568 58.3183 67.6686 57.8746 67.865 57.4505C68.0614 57.0264 68.3782 56.6558 68.8153 56.3387C69.4272 55.8948 70.0195 55.7098 70.592 55.7838C71.1644 55.8577 71.7182 56.1306 72.2531 56.6023ZM72.7929 52.6085L78.2465 60.1268L79.1644 59.4609L76.1205 55.2646C75.8316 54.8664 75.6111 54.4704 75.459 54.0767C75.2998 53.6734 75.2195 53.2868 75.2182 52.9172C75.2196 52.5307 75.3118 52.1674 75.4949 51.827C75.6806 51.47 75.9677 51.1505 76.3562 50.8686C76.6477 50.6573 76.9306 50.5262 77.205 50.4753C77.4795 50.4245 77.7384 50.4442 77.9818 50.5345C78.2278 50.6081 78.4597 50.7438 78.6774 50.9417C78.8977 51.1228 79.0995 51.3396 79.2827 51.5922L82.9818 56.6918L83.8998 56.026L80.8136 51.7714C80.56 51.4217 80.346 51.0655 80.1718 50.7027C80.0002 50.3231 79.9005 49.9506 79.8728 49.5854C79.845 49.2201 79.9094 48.8694 80.0659 48.5335C80.2155 48.1878 80.4894 47.8706 80.8876 47.5817C81.5482 47.1025 82.1293 46.933 82.6312 47.073C83.1259 47.2033 83.5988 47.5793 84.0498 48.201L87.7172 53.2569L88.6351 52.591L84.936 47.4914C83.6607 45.7333 82.1925 45.4566 80.5315 46.6615C80.0361 47.0208 79.6579 47.4805 79.3969 48.0404C79.136 48.6003 79.0735 49.209 79.2094 49.8664C78.714 49.4697 78.1743 49.2978 77.5902 49.3509C77.0158 49.397 76.4809 49.5997 75.9855 49.959C75.3735 50.4029 74.9636 50.9004 74.7555 51.4516C74.5572 51.9957 74.5058 52.589 74.6011 53.2314L74.5574 53.2631L73.6379 51.9954L72.7929 52.6085Z" fill="#221C35"/>
<g opacity="0.2">
<path d="M281 42C281 42 282 98.5 341.25 98.5C400.5 98.5 405 44 405 44L393 37C393 37 392.562 42.421 389.989 49.5C385.148 62.8165 372.752 82 341.5 82C310.248 82 299.983 62.8165 296.622 49.5C294.836 42.421 295 37 295 37L281 42Z" fill="white"/>
<path d="M341.5 46.5C305 46.5 295 37 295 37C295 37 294.836 42.421 296.622 49.5C296.622 49.5 318.194 58 341.5 58C370.194 58 389.989 49.5 389.989 49.5C392.562 42.421 393 37 393 37C393 37 378 46.5 341.5 46.5Z" fill="white"/>
<path d="M281 42L195.981 71.8313C195.662 71.9433 195.358 72.0954 195.077 72.2838L34.9067 179.715C33.0392 180.968 32.5708 183.513 33.87 185.348L92.2656 267.843C93.5116 269.604 95.9288 270.059 97.7301 268.873L189.3 208.582C191.96 206.831 195.5 208.738 195.5 211.923V523.5C195.5 525.709 197.291 527.5 199.5 527.5H507C509.209 527.5 511 525.709 511 523.5V212.23C511 208.984 514.661 207.09 517.31 208.964L601.647 268.628C603.484 269.928 606.032 269.457 607.283 267.586L662.328 185.249C663.536 183.442 663.081 181.002 661.303 179.753L508.574 72.4034C508.194 72.1365 507.771 71.9377 507.323 71.816L405 44M281 42C281 42 282 98.5 341.25 98.5C400.5 98.5 405 44 405 44M281 42L295 37M405 44L393 37M295 37C295 37 305 46.5 341.5 46.5C378 46.5 393 37 393 37M295 37C295 37 294.836 42.421 296.622 49.5M393 37C393 37 392.562 42.421 389.989 49.5M389.989 49.5C385.148 62.8165 372.752 82 341.5 82C310.248 82 299.983 62.8165 296.622 49.5M389.989 49.5C389.989 49.5 370.194 58 341.5 58C318.194 58 296.622 49.5 296.622 49.5" stroke="#221C35"/>
</g>
<path d="M196.146 3.64645C195.951 3.84171 195.951 4.15829 196.146 4.35355L199.328 7.53553C199.524 7.7308 199.84 7.7308 200.036 7.53553C200.231 7.34027 200.231 7.02369 200.036 6.82843L197.207 4L200.036 1.17157C200.231 0.976311 200.231 0.659728 200.036 0.464466C199.84 0.269204 199.524 0.269204 199.328 0.464466L196.146 3.64645ZM505.854 4.35355C506.049 4.15829 506.049 3.84171 505.854 3.64645L502.672 0.464466C502.476 0.269204 502.16 0.269204 501.964 0.464466C501.769 0.659728 501.769 0.976311 501.964 1.17157L504.793 4L501.964 6.82843C501.769 7.02369 501.769 7.34027 501.964 7.53553C502.16 7.7308 502.476 7.7308 502.672 7.53553L505.854 4.35355ZM196.5 4.5H505.5V3.5H196.5V4.5Z" fill="#221C35"/>
<path d="M196.146 202.646C195.951 202.842 195.951 203.158 196.146 203.354L199.328 206.536C199.524 206.731 199.84 206.731 200.036 206.536C200.231 206.34 200.231 206.024 200.036 205.828L197.207 203L200.036 200.172C200.231 199.976 200.231 199.66 200.036 199.464C199.84 199.269 199.524 199.269 199.328 199.464L196.146 202.646ZM505.854 203.354C506.049 203.158 506.049 202.842 505.854 202.646L502.672 199.464C502.476 199.269 502.16 199.269 501.964 199.464C501.769 199.66 501.769 199.976 501.964 200.172L504.793 203L501.964 205.828C501.769 206.024 501.769 206.34 501.964 206.536C502.16 206.731 502.476 206.731 502.672 206.536L505.854 203.354ZM196.5 203.5H505.5V202.5H196.5V203.5Z" fill="#221C35"/>
<path d="M737.646 528.354C737.842 528.549 738.158 528.549 738.354 528.354L741.536 525.172C741.731 524.976 741.731 524.66 741.536 524.464C741.34 524.269 741.024 524.269 740.828 524.464L738 527.293L735.172 524.464C734.976 524.269 734.66 524.269 734.464 524.464C734.269 524.66 734.269 524.976 734.464 525.172L737.646 528.354ZM738.354 69.6465C738.158 69.4512 737.842 69.4512 737.646 69.6465L734.464 72.8284C734.269 73.0237 734.269 73.3403 734.464 73.5355C734.66 73.7308 734.976 73.7308 735.172 73.5355L738 70.7071L740.828 73.5355C741.024 73.7308 741.34 73.7308 741.536 73.5355C741.731 73.3403 741.731 73.0237 741.536 72.8284L738.354 69.6465ZM738.5 528L738.5 70L737.5 70L737.5 528L738.5 528Z" fill="#221C35"/>
<path opacity="0.25" d="M725 70L527 70" stroke="#221C35" stroke-width="0.5" stroke-dasharray="8 8"/>
<path opacity="0.25" d="M726 528L528 528" stroke="#221C35" stroke-width="0.5" stroke-dasharray="8 8"/>
<path d="M0.507798 129.412C0.459219 129.684 0.640204 129.944 0.91204 129.992L5.34186 130.784C5.6137 130.832 5.87344 130.651 5.92202 130.38C5.9706 130.108 5.78962 129.848 5.51778 129.799L1.58016 129.096L2.28384 125.158C2.33242 124.886 2.15144 124.627 1.8796 124.578C1.60777 124.529 1.34802 124.71 1.29944 124.982L0.507798 129.412ZM156.492 21.588C156.541 21.3161 156.36 21.0564 156.088 21.0078L151.658 20.2162C151.386 20.1676 151.127 20.3486 151.078 20.6204C151.029 20.8922 151.21 21.152 151.482 21.2006L155.42 21.9042L154.716 25.8419C154.668 26.1137 154.849 26.3734 155.12 26.422C155.392 26.4706 155.652 26.2896 155.701 26.0178L156.492 21.588ZM1.28584 129.91L156.286 21.9102L155.714 21.0898L0.714158 129.09L1.28584 129.91Z" fill="#221C35"/>
<path opacity="0.25" d="M3 137L28 175" stroke="#221C35" stroke-width="0.5" stroke-dasharray="8 8"/>
<path opacity="0.25" d="M162 24L191 68" stroke="#221C35" stroke-width="0.5" stroke-dasharray="8 8"/>
</svg>
