<svg width="1320" height="843" viewBox="0 0 1320 843" fill="none" xmlns="http://www.w3.org/2000/svg">
<path d="M378 835L378 -1.61529e-05" stroke="#221C35" stroke-width="6" stroke-dasharray="8 8"/>
<path d="M798 835L798 -1.61529e-05" stroke="#221C35" stroke-width="6" stroke-dasharray="8 8"/>
<path d="M186 835L186 -1.61529e-05" stroke="#221C35" stroke-width="6" stroke-dasharray="8 8"/>
<path d="M90 835L90 -1.61529e-05" stroke="#221C35" stroke-width="6" stroke-dasharray="8 8"/>
<path d="M474 835L474 -1.61529e-05" stroke="#221C35" stroke-width="6" stroke-dasharray="8 8"/>
<path d="M894 835L894 -1.61529e-05" stroke="#221C35" stroke-width="6" stroke-dasharray="8 8"/>
<path d="M1026 835L1026 -1.61529e-05" stroke="#221C35" stroke-width="6" stroke-dasharray="8 8"/>
<path d="M282 835L282 -1.61529e-05" stroke="#221C35" stroke-width="6" stroke-dasharray="8 8"/>
<path d="M1182 835L1182 -1.61529e-05" stroke="#221C35" stroke-width="6" stroke-dasharray="8 8"/>
<path d="M1182 835L1182 -1.61529e-05" stroke="#221C35" stroke-width="6" stroke-dasharray="8 8"/>
<path d="M666 835L666 -1.61529e-05" stroke="#221C35" stroke-width="6" stroke-dasharray="8 8"/>
<path d="M18 835L18 -1.61529e-05" stroke="#221C35" stroke-width="6" stroke-dasharray="8 8"/>
<path d="M402 835L402 -1.61529e-05" stroke="#221C35" stroke-width="6" stroke-dasharray="8 8"/>
<path d="M822 835L822 -1.61529e-05" stroke="#221C35" stroke-width="6" stroke-dasharray="8 8"/>
<path d="M210 835L210 -1.61529e-05" stroke="#221C35" stroke-width="6" stroke-dasharray="8 8"/>
<path d="M1110 835L1110 -1.61529e-05" stroke="#221C35" stroke-width="6" stroke-dasharray="8 8"/>
<path d="M1110 835L1110 -1.61529e-05" stroke="#221C35" stroke-width="6" stroke-dasharray="8 8"/>
<path d="M594 835L594 -1.61529e-05" stroke="#221C35" stroke-width="6" stroke-dasharray="8 8"/>
<path d="M114 835L114 -1.61529e-05" stroke="#221C35" stroke-width="6" stroke-dasharray="8 8"/>
<path d="M498 835L498 -1.61529e-05" stroke="#221C35" stroke-width="6" stroke-dasharray="8 8"/>
<path d="M918 835L918 -1.61529e-05" stroke="#221C35" stroke-width="6" stroke-dasharray="8 8"/>
<path d="M1050 835L1050 -1.61529e-05" stroke="#221C35" stroke-width="6" stroke-dasharray="8 8"/>
<path d="M306 835L306 -1.61529e-05" stroke="#221C35" stroke-width="6" stroke-dasharray="8 8"/>
<path d="M1206 835L1206 -1.61529e-05" stroke="#221C35" stroke-width="6" stroke-dasharray="8 8"/>
<path d="M1266 835L1266 -1.61529e-05" stroke="#221C35" stroke-width="6" stroke-dasharray="8 8"/>
<path d="M1206 835L1206 -1.61529e-05" stroke="#221C35" stroke-width="6" stroke-dasharray="8 8"/>
<path d="M1266 835L1266 -1.61529e-05" stroke="#221C35" stroke-width="6" stroke-dasharray="8 8"/>
<path d="M690 835L690 -1.61529e-05" stroke="#221C35" stroke-width="6" stroke-dasharray="8 8"/>
<path d="M66 835L66 -1.61529e-05" stroke="#221C35" stroke-width="6" stroke-dasharray="8 8"/>
<path d="M450 835L450 -1.61529e-05" stroke="#221C35" stroke-width="6" stroke-dasharray="8 8"/>
<path d="M870 835L870 -1.61529e-05" stroke="#221C35" stroke-width="6" stroke-dasharray="8 8"/>
<path d="M1002 835L1002 -1.61529e-05" stroke="#221C35" stroke-width="6" stroke-dasharray="8 8"/>
<path d="M258 835L258 -1.61529e-05" stroke="#221C35" stroke-width="6" stroke-dasharray="8 8"/>
<path d="M1158 835L1158 -1.61529e-05" stroke="#221C35" stroke-width="6" stroke-dasharray="8 8"/>
<path d="M1158 835L1158 -1.61529e-05" stroke="#221C35" stroke-width="6" stroke-dasharray="8 8"/>
<path d="M642 835L642 -1.61529e-05" stroke="#221C35" stroke-width="6" stroke-dasharray="8 8"/>
<path d="M162 835L162 -1.61529e-05" stroke="#221C35" stroke-width="6" stroke-dasharray="8 8"/>
<path d="M354 835L354 -1.61529e-05" stroke="#221C35" stroke-width="6" stroke-dasharray="8 8"/>
<path d="M1254 835L1254 -1.61529e-05" stroke="#221C35" stroke-width="6" stroke-dasharray="8 8"/>
<path d="M1314 835L1314 -1.61529e-05" stroke="#221C35" stroke-width="6" stroke-dasharray="8 8"/>
<path d="M1254 835L1254 -1.61529e-05" stroke="#221C35" stroke-width="6" stroke-dasharray="8 8"/>
<path d="M1314 835L1314 -1.61529e-05" stroke="#221C35" stroke-width="6" stroke-dasharray="8 8"/>
<path d="M738 835L738 -1.61529e-05" stroke="#221C35" stroke-width="6" stroke-dasharray="8 8"/>
<path d="M42 835L42 -1.61529e-05" stroke="#221C35" stroke-width="6" stroke-dasharray="8 8"/>
<path d="M426 835L426 -1.61529e-05" stroke="#221C35" stroke-width="6" stroke-dasharray="8 8"/>
<path d="M954 835L954 -1.61529e-05" stroke="#221C35" stroke-width="6" stroke-dasharray="8 8"/>
<path d="M1086 835L1086 -1.61529e-05" stroke="#221C35" stroke-width="6" stroke-dasharray="8 8"/>
<path d="M846 835L846 -1.61529e-05" stroke="#221C35" stroke-width="6" stroke-dasharray="8 8"/>
<path d="M978 835L978 -1.61529e-05" stroke="#221C35" stroke-width="6" stroke-dasharray="8 8"/>
<path d="M234 835L234 -1.61529e-05" stroke="#221C35" stroke-width="6" stroke-dasharray="8 8"/>
<path d="M1134 835L1134 -1.61529e-05" stroke="#221C35" stroke-width="6" stroke-dasharray="8 8"/>
<path d="M1134 835L1134 -1.61529e-05" stroke="#221C35" stroke-width="6" stroke-dasharray="8 8"/>
<path d="M618 835L618 -1.61529e-05" stroke="#221C35" stroke-width="6" stroke-dasharray="8 8"/>
<path d="M138 835L138 -1.61529e-05" stroke="#221C35" stroke-width="6" stroke-dasharray="8 8"/>
<path d="M330 835L330 -1.61529e-05" stroke="#221C35" stroke-width="6" stroke-dasharray="8 8"/>
<path d="M1230 835L1230 -1.61529e-05" stroke="#221C35" stroke-width="6" stroke-dasharray="8 8"/>
<path d="M1290 835L1290 -1.61529e-05" stroke="#221C35" stroke-width="6" stroke-dasharray="8 8"/>
<path d="M1230 835L1230 -1.61529e-05" stroke="#221C35" stroke-width="6" stroke-dasharray="8 8"/>
<path d="M1290 835L1290 -1.61529e-05" stroke="#221C35" stroke-width="6" stroke-dasharray="8 8"/>
<path d="M714 835L714 -1.61529e-05" stroke="#221C35" stroke-width="6" stroke-dasharray="8 8"/>
<path d="M6 843L5.99996 7.99998" stroke="#221C35" stroke-width="6" stroke-dasharray="8 8"/>
<path d="M390 843L390 7.99998" stroke="#221C35" stroke-width="6" stroke-dasharray="8 8"/>
<path d="M930 843L930 7.99998" stroke="#221C35" stroke-width="6" stroke-dasharray="8 8"/>
<path d="M1062 843L1062 7.99998" stroke="#221C35" stroke-width="6" stroke-dasharray="8 8"/>
<path d="M810 843L810 7.99998" stroke="#221C35" stroke-width="6" stroke-dasharray="8 8"/>
<path d="M198 843L198 7.99998" stroke="#221C35" stroke-width="6" stroke-dasharray="8 8"/>
<path d="M1098 843L1098 7.99998" stroke="#221C35" stroke-width="6" stroke-dasharray="8 8"/>
<path d="M1098 843L1098 7.99998" stroke="#221C35" stroke-width="6" stroke-dasharray="8 8"/>
<path d="M582 843L582 7.99998" stroke="#221C35" stroke-width="6" stroke-dasharray="8 8"/>
<path d="M570 843L570 7.99998" stroke="#221C35" stroke-width="6" stroke-dasharray="8 8"/>
<path d="M558 843L558 7.99998" stroke="#221C35" stroke-width="6" stroke-dasharray="8 8"/>
<path d="M546 843L546 7.99998" stroke="#221C35" stroke-width="6" stroke-dasharray="8 8"/>
<path d="M534 843L534 7.99998" stroke="#221C35" stroke-width="6" stroke-dasharray="8 8"/>
<path d="M522 843L522 7.99998" stroke="#221C35" stroke-width="6" stroke-dasharray="8 8"/>
<path d="M102 843L102 7.99998" stroke="#221C35" stroke-width="6" stroke-dasharray="8 8"/>
<path d="M486 843L486 7.99998" stroke="#221C35" stroke-width="6" stroke-dasharray="8 8"/>
<path d="M906 843L906 7.99998" stroke="#221C35" stroke-width="6" stroke-dasharray="8 8"/>
<path d="M1038 843L1038 7.99998" stroke="#221C35" stroke-width="6" stroke-dasharray="8 8"/>
<path d="M294 843L294 7.99998" stroke="#221C35" stroke-width="6" stroke-dasharray="8 8"/>
<path d="M1194 843L1194 7.99998" stroke="#221C35" stroke-width="6" stroke-dasharray="8 8"/>
<path d="M1194 843L1194 7.99998" stroke="#221C35" stroke-width="6" stroke-dasharray="8 8"/>
<path d="M678 843L678 7.99998" stroke="#221C35" stroke-width="6" stroke-dasharray="8 8"/>
<path d="M54 843L54 7.99998" stroke="#221C35" stroke-width="6" stroke-dasharray="8 8"/>
<path d="M438 843L438 7.99998" stroke="#221C35" stroke-width="6" stroke-dasharray="8 8"/>
<path d="M858 843L858 7.99998" stroke="#221C35" stroke-width="6" stroke-dasharray="8 8"/>
<path d="M990 843L990 7.99998" stroke="#221C35" stroke-width="6" stroke-dasharray="8 8"/>
<path d="M246 843L246 7.99998" stroke="#221C35" stroke-width="6" stroke-dasharray="8 8"/>
<path d="M1146 843L1146 7.99998" stroke="#221C35" stroke-width="6" stroke-dasharray="8 8"/>
<path d="M1146 843L1146 7.99998" stroke="#221C35" stroke-width="6" stroke-dasharray="8 8"/>
<path d="M630 843L630 7.99998" stroke="#221C35" stroke-width="6" stroke-dasharray="8 8"/>
<path d="M150 843L150 7.99998" stroke="#221C35" stroke-width="6" stroke-dasharray="8 8"/>
<path d="M342 843L342 7.99998" stroke="#221C35" stroke-width="6" stroke-dasharray="8 8"/>
<path d="M1242 843L1242 7.99998" stroke="#221C35" stroke-width="6" stroke-dasharray="8 8"/>
<path d="M1302 843L1302 7.99998" stroke="#221C35" stroke-width="6" stroke-dasharray="8 8"/>
<path d="M1242 843L1242 7.99998" stroke="#221C35" stroke-width="6" stroke-dasharray="8 8"/>
<path d="M1302 843L1302 7.99998" stroke="#221C35" stroke-width="6" stroke-dasharray="8 8"/>
<path d="M726 843L726 7.99998" stroke="#221C35" stroke-width="6" stroke-dasharray="8 8"/>
<path d="M30 843L30 7.99998" stroke="#221C35" stroke-width="6" stroke-dasharray="8 8"/>
<path d="M414 843L414 7.99998" stroke="#221C35" stroke-width="6" stroke-dasharray="8 8"/>
<path d="M942 843L942 7.99998" stroke="#221C35" stroke-width="6" stroke-dasharray="8 8"/>
<path d="M1074 843L1074 7.99998" stroke="#221C35" stroke-width="6" stroke-dasharray="8 8"/>
<path d="M834 843L834 7.99998" stroke="#221C35" stroke-width="6" stroke-dasharray="8 8"/>
<path d="M966 843L966 7.99998" stroke="#221C35" stroke-width="6" stroke-dasharray="8 8"/>
<path d="M222 843L222 7.99998" stroke="#221C35" stroke-width="6" stroke-dasharray="8 8"/>
<path d="M1122 843L1122 7.99998" stroke="#221C35" stroke-width="6" stroke-dasharray="8 8"/>
<path d="M1122 843L1122 7.99998" stroke="#221C35" stroke-width="6" stroke-dasharray="8 8"/>
<path d="M606 843L606 7.99998" stroke="#221C35" stroke-width="6" stroke-dasharray="8 8"/>
<path d="M126 843L126 7.99998" stroke="#221C35" stroke-width="6" stroke-dasharray="8 8"/>
<path d="M510 843L510 7.99998" stroke="#221C35" stroke-width="6" stroke-dasharray="8 8"/>
<path d="M318 843L318 7.99998" stroke="#221C35" stroke-width="6" stroke-dasharray="8 8"/>
<path d="M1218 843L1218 7.99998" stroke="#221C35" stroke-width="6" stroke-dasharray="8 8"/>
<path d="M1278 843L1278 7.99998" stroke="#221C35" stroke-width="6" stroke-dasharray="8 8"/>
<path d="M1218 843L1218 7.99998" stroke="#221C35" stroke-width="6" stroke-dasharray="8 8"/>
<path d="M1278 843L1278 7.99998" stroke="#221C35" stroke-width="6" stroke-dasharray="8 8"/>
<path d="M702 843L702 7.99998" stroke="#221C35" stroke-width="6" stroke-dasharray="8 8"/>
<path d="M78 843L78 7.99998" stroke="#221C35" stroke-width="6" stroke-dasharray="8 8"/>
<path d="M462 843L462 7.99998" stroke="#221C35" stroke-width="6" stroke-dasharray="8 8"/>
<path d="M882 843L882 7.99998" stroke="#221C35" stroke-width="6" stroke-dasharray="8 8"/>
<path d="M1014 843L1014 7.99998" stroke="#221C35" stroke-width="6" stroke-dasharray="8 8"/>
<path d="M270 843L270 7.99998" stroke="#221C35" stroke-width="6" stroke-dasharray="8 8"/>
<path d="M1170 843L1170 7.99998" stroke="#221C35" stroke-width="6" stroke-dasharray="8 8"/>
<path d="M1170 843L1170 7.99998" stroke="#221C35" stroke-width="6" stroke-dasharray="8 8"/>
<path d="M654 843L654 7.99998" stroke="#221C35" stroke-width="6" stroke-dasharray="8 8"/>
<path d="M174 843L174 7.99998" stroke="#221C35" stroke-width="6" stroke-dasharray="8 8"/>
<path d="M366 843L366 7.99998" stroke="#221C35" stroke-width="6" stroke-dasharray="8 8"/>
<path d="M786 843L786 7.99998" stroke="#221C35" stroke-width="6" stroke-dasharray="8 8"/>
<path d="M750 843L750 7.99998" stroke="#221C35" stroke-width="6" stroke-dasharray="8 8"/>
<path d="M762 843L762 7.99998" stroke="#221C35" stroke-width="6" stroke-dasharray="8 8"/>
<path d="M774 843L774 7.99998" stroke="#221C35" stroke-width="6" stroke-dasharray="8 8"/>
<g clip-path="url(#clip0_575_5183)">
<path d="M102.907 560.89H110.864C114.536 560.89 117.902 560.278 120.656 559.053C123.411 557.828 125.859 555.991 127.695 553.847C129.837 551.704 131.673 548.948 133.815 545.579C186.451 456.776 313.144 412.374 383.529 323.57L412.601 323.57C341.604 412.986 213.075 457.694 161.969 547.417C156.767 556.603 152.789 563.953 148.504 569.465C144.22 574.977 139.63 579.264 133.509 582.02C127.389 584.776 120.044 586 110.864 586C108.416 586 105.967 586 104.437 586C102.907 586 100.459 586 98.3169 585.388C98.3169 575.589 99.541 570.689 103.213 560.89H102.907ZM396.687 303.972C405.256 288.661 408.01 281.005 408.01 266L437.082 266C437.082 281.311 434.328 288.967 425.759 303.972L396.687 303.972Z" fill="white"/>
<path d="M262.027 518.635C251.622 518.635 244.584 516.491 240.911 512.511C237.545 508.53 237.851 502.405 242.748 494.444C247.644 486.482 257.437 476.683 272.126 464.74C343.735 408.09 397.594 379.917 442.273 323.267L471.345 323.267C427.89 378.08 376.785 405.64 306.706 460.453C297.219 467.802 290.793 473.927 287.121 478.826C283.754 483.726 282.836 487.094 284.366 489.238C285.897 491.381 289.875 492.606 295.995 492.606C302.116 492.606 309.154 491.075 318.029 488.013C326.903 484.951 337.002 480.051 348.631 473.008C360.566 466.271 373.113 457.391 387.496 446.673L404.939 446.673C391.78 456.472 385.353 461.372 373.419 471.171H365.156C350.467 480.97 337.308 489.238 324.761 496.281C312.214 503.324 300.892 508.836 290.181 512.511C279.47 516.185 269.983 518.329 261.415 518.329L262.027 518.635ZM309.766 515.267C326.597 496.893 337.308 488.013 359.954 469.64C359.954 469.64 359.954 469.334 359.954 469.027C432.481 410.846 489.095 381.755 534.998 323.573L564.07 323.573C503.171 400.128 408.611 438.405 337.614 515.267L309.46 515.267H309.766Z" fill="white"/>
<path d="M417.192 518.633C403.727 518.633 394.241 516.49 389.344 512.509C384.448 508.528 384.142 501.791 389.65 492.605C395.159 483.418 407.094 471.169 426.679 455.552L454.833 455.552C442.286 465.657 434.024 473.619 429.739 479.131C425.455 484.643 424.231 488.624 426.373 491.074C428.515 493.523 433.412 494.748 441.368 494.748C448.407 494.748 455.139 493.83 461.871 491.686C468.604 489.542 475.03 486.48 481.457 482.499C487.883 478.519 494.616 473.925 501.654 468.413C509.305 462.289 515.119 457.083 518.485 453.102C521.852 449.121 523.382 445.447 522.77 442.691C522.464 439.935 520.628 436.566 517.261 432.892C515.119 429.83 514.201 428.298 512.059 425.236C508.081 421.562 506.244 417.581 506.857 412.375C507.469 407.476 510.835 401.351 516.649 394.002C522.77 386.653 531.644 378.385 542.967 368.586C554.902 358.48 566.225 349.6 577.853 342.251C589.176 334.901 600.499 329.389 611.822 325.409C623.145 321.428 634.773 319.59 646.708 319.59C659.867 319.59 669.354 321.734 674.25 326.021C679.452 330.308 680.064 336.739 675.78 345.313C671.19 353.887 661.091 365.217 644.566 378.691L617.024 378.691C628.041 369.504 634.773 362.461 638.14 357.255C641.506 352.05 641.812 348.681 639.67 346.538C637.528 344.394 632.937 343.475 625.899 343.475C620.084 343.475 613.964 344.394 608.15 346.231C602.029 348.069 596.215 350.825 590.4 354.499C584.586 358.174 578.465 362.461 572.345 367.667C565.613 373.485 560.41 378.385 557.656 382.365C554.596 386.346 553.372 389.715 553.372 392.777C553.372 395.839 554.902 398.595 557.044 401.964C559.186 405.026 560.104 406.557 562.246 409.619C566.837 413.906 569.285 418.193 569.285 423.399C569.285 428.298 566.225 434.423 560.104 441.466C553.984 448.509 544.497 457.083 531.95 467.188C517.873 478.519 504.714 487.705 491.862 495.361C479.009 503.016 466.768 508.834 454.527 512.815C442.286 516.796 430.045 518.633 417.498 518.633H417.192Z" fill="white"/>
<path d="M689.242 348.987C699.647 338.882 704.543 333.676 712.5 323.571L793.595 323.571C785.639 333.676 780.742 338.882 770.338 348.987L689.242 348.987ZM548.779 515.877C539.598 515.877 533.171 514.652 529.499 512.202C525.827 509.752 525.521 505.772 528.581 499.953C531.641 494.135 538.986 486.173 551.227 476.068C608.453 428.91 650.378 405.025 702.401 357.867C712.194 348.987 716.784 344.394 725.047 335.513C733.003 326.939 736.675 322.652 742.49 313.772C755.343 295.092 759.321 285.906 759.933 267.226L789.005 267.226C788.699 285.906 784.415 295.092 771.562 313.772C765.747 322.346 762.075 326.633 754.119 335.513C745.856 344.394 741.266 348.987 731.473 357.867C680.98 403.8 640.585 426.767 584.277 473.006C579.075 477.293 575.402 480.661 573.566 483.417C571.73 485.867 571.424 487.705 572.648 488.929C573.872 490.154 576.626 490.461 580.911 490.461H593.152C581.829 500.26 576.626 505.465 567.446 515.264C567.14 515.264 566.834 515.264 566.528 515.264C566.222 515.264 565.916 515.264 565.61 515.264C562.549 515.264 559.795 515.571 556.735 515.877C553.675 515.877 551.227 515.877 548.779 515.877Z" fill="white"/>
<path d="M588.554 515.263C659.551 438.708 754.112 400.43 815.01 323.569L842.858 323.569C826.333 344.086 815.01 354.497 789.916 375.32C789.916 375.32 789.916 375.627 790.222 375.933C722.591 431.665 669.344 459.531 617.626 515.263H588.554ZM766.658 387.875C782.878 375.627 798.485 364.297 813.174 354.497C827.863 344.392 841.022 336.43 853.874 330.612C866.421 324.794 878.05 321.732 889.067 321.732C890.291 321.732 891.209 321.732 892.433 321.732C893.657 321.732 894.575 321.732 895.799 321.732C886.925 333.062 881.722 338.88 869.788 350.21C868.563 350.21 867.339 350.21 866.115 350.21H863.055C853.874 350.21 844.388 352.048 833.983 355.416C823.884 358.785 812.868 364.297 800.015 372.258C787.162 379.914 772.779 390.019 756.254 402.574C751.663 403.186 749.521 403.799 744.931 404.411C753.806 397.674 758.396 394.306 766.964 387.569L766.658 387.875Z" fill="white"/>
<path d="M928.846 303.971C937.415 288.66 940.169 281.004 940.169 266H969.241C969.241 281.311 966.487 288.966 957.919 303.971L928.846 303.971ZM689.232 514.956C760.229 438.401 854.789 400.124 915.688 323.263L944.76 323.263C883.861 399.818 789.301 438.095 718.304 514.956H689.232Z" fill="white"/>
<path d="M712.798 585.393C713.716 480.666 891.82 428.302 975.058 323.575L1003.21 323.575C986.687 344.704 974.752 355.116 949.352 376.245H947.822C905.591 410.848 878.355 428.302 834.288 462.905H836.736C774.308 511.9 742.482 536.398 742.176 585.393H713.104H712.798ZM817.151 518.637C805.522 518.637 798.484 515.575 796.342 509.451C794.199 503.326 797.566 494.14 807.664 481.585C817.763 469.336 835.206 453.719 859.382 435.345C876.825 422.484 885.7 416.053 902.531 402.886C927.625 384.513 948.74 368.896 966.795 356.647C984.851 344.398 999.54 335.211 1012.7 329.087C1026.16 322.963 1038.1 319.9 1049.42 319.9C1061.97 319.9 1070.23 323.269 1073.29 330.006C1076.35 336.742 1073.29 347.46 1061.36 362.159C1049.73 376.857 1027.69 395.843 996.479 419.116C964.959 442.695 937.111 461.68 914.772 476.379C892.126 491.077 874.071 501.795 858.464 508.532C842.857 515.269 829.086 518.637 816.539 518.637H817.151ZM836.43 493.221C844.081 493.221 853.568 490.771 864.584 485.872C875.601 480.972 889.066 473.01 905.897 461.987C922.728 450.963 943.844 436.57 968.325 418.197C992.807 400.13 1009.94 385.738 1020.04 375.02C1030.14 364.302 1034.12 356.647 1033.81 352.053C1033.2 347.46 1028.92 345.317 1020.96 345.317C1013 345.317 1004.13 347.766 993.725 352.666C983.014 357.565 970.162 365.527 954.248 376.245C938.029 387.269 918.138 401.355 894.268 419.116C870.399 436.876 852.955 450.963 841.939 461.987C830.922 472.704 825.72 480.666 825.414 485.565C825.414 490.465 829.086 492.915 837.042 492.915L836.43 493.221Z" fill="white"/>
<path d="M961.295 518.636C947.218 518.636 938.344 515.267 934.977 508.53C931.917 501.794 935.283 491.076 947.83 476.377C960.377 461.679 983.023 442.693 1014.54 419.114C1045.76 395.841 1072.69 376.856 1094.41 362.157C1116.14 347.459 1133.58 336.741 1149.19 330.004C1164.8 323.267 1179.18 319.899 1193.26 319.899C1207.34 319.899 1217.13 323.574 1220.8 330.617C1224.17 337.66 1221.41 348.684 1209.78 363.076C1198.16 377.468 1177.35 395.841 1147.36 418.196C1145.21 419.727 1143.38 421.258 1141.24 422.789C1139.09 424.32 1137.26 425.851 1135.12 427.382L1017.91 427.382C1030.76 417.889 1037.19 412.99 1049.74 403.497L1151.03 403.497C1141.54 406.559 1136.95 408.09 1127.46 411.459C1148.27 395.535 1163.27 382.98 1172.14 373.181C1181.02 363.382 1185 356.339 1184.38 351.746C1183.77 347.153 1179.49 345.009 1171.53 345.009C1163.58 345.009 1155.01 347.153 1145.21 351.44C1135.12 355.727 1123.18 363.076 1107.88 373.487C1092.58 383.899 1073.3 397.679 1049.74 415.133C1046.06 417.889 1044.23 419.42 1040.25 422.176C1015.46 440.55 997.712 454.942 987.613 465.353C977.208 475.765 972.924 483.114 973.23 487.707C973.842 491.995 978.126 494.138 986.389 494.138C992.509 494.138 999.548 492.913 1006.89 490.157C1014.54 487.401 1023.11 483.114 1033.52 476.684C1043.92 470.559 1056.47 461.985 1071.77 451.574C1083.09 451.574 1088.91 451.574 1100.23 451.574C1077.89 467.191 1058.92 479.746 1042.39 489.545C1025.87 499.344 1011.79 506.693 998.63 511.593C985.471 516.492 973.23 518.636 960.989 518.636H961.295Z" fill="white"/>
</g>
<defs>
<clipPath id="clip0_575_5183">
<rect width="1124" height="320" fill="white" transform="translate(98 266)"/>
</clipPath>
</defs>
</svg>
