<svg width="1440" height="980" viewBox="0 0 1440 980" fill="none" xmlns="http://www.w3.org/2000/svg">
<rect width="1440" height="979.2" fill="white"/>
<path d="M37.4399 132.48L1374.91 132.48" stroke="#221C35" stroke-width="11.968" stroke-dasharray="19.71 19.71"/>
<path d="M37.4399 84.6719L1374.91 84.6718" stroke="#221C35" stroke-width="11.968" stroke-dasharray="19.71 19.71"/>
<path d="M37.4399 773.568L1374.91 773.568" stroke="#221C35" stroke-width="11.968" stroke-dasharray="19.71 19.71"/>
<path d="M37.4399 821.952L1374.91 821.952" stroke="#221C35" stroke-width="11.968" stroke-dasharray="19.71 19.71"/>
<path d="M37.4399 180.864L1374.91 180.864" stroke="#221C35" stroke-width="11.968" stroke-dasharray="19.71 19.71"/>
<path d="M37.4399 870.336L1374.91 870.336" stroke="#221C35" stroke-width="11.968" stroke-dasharray="19.71 19.71"/>
<path d="M37.4399 918.72L1374.91 918.72" stroke="#221C35" stroke-width="11.968" stroke-dasharray="19.71 19.71"/>
<path d="M57.6001 749.376L1395.07 749.376" stroke="#221C35" stroke-width="11.968" stroke-dasharray="19.71 19.71"/>
<path d="M37.4399 229.248L1374.91 229.248" stroke="#221C35" stroke-width="11.968" stroke-dasharray="19.71 19.71"/>
<path d="M57.6001 797.76L1395.07 797.76" stroke="#221C35" stroke-width="11.968" stroke-dasharray="19.71 19.71"/>
<path d="M57.6001 846.144L1395.07 846.143" stroke="#221C35" stroke-width="11.968" stroke-dasharray="19.71 19.71"/>
<path d="M57.6001 894.528L1395.07 894.528" stroke="#221C35" stroke-width="11.968" stroke-dasharray="19.71 19.71"/>
<path d="M57.6001 108.288L1395.07 108.288" stroke="#221C35" stroke-width="11.968" stroke-dasharray="19.71 19.71"/>
<path d="M57.6001 60.4805L1395.07 60.4804" stroke="#221C35" stroke-width="11.968" stroke-dasharray="19.71 19.71"/>
<path d="M57.6001 156.672L1395.07 156.672" stroke="#221C35" stroke-width="11.968" stroke-dasharray="19.71 19.71"/>
<path d="M57.6001 205.056L1395.07 205.056" stroke="#221C35" stroke-width="11.968" stroke-dasharray="19.71 19.71"/>
<path d="M57.6001 708.48L1395.07 708.48" stroke="#221C35" stroke-width="11.968" stroke-dasharray="19.71 19.71"/>
<path d="M57.6001 725.76L1395.07 725.76" stroke="#221C35" stroke-width="11.968" stroke-dasharray="19.71 19.71"/>
<path d="M57.6001 253.44L1395.07 253.44" stroke="#221C35" stroke-width="11.968" stroke-dasharray="19.71 19.71"/>
<path d="M57.6001 661.248L1395.07 661.248" stroke="#221C35" stroke-width="11.968" stroke-dasharray="19.71 19.71"/>
<path d="M57.6001 277.056L1395.07 277.056" stroke="#221C35" stroke-width="11.968" stroke-dasharray="19.71 19.71"/>
<path d="M57.6001 684.864L1395.07 684.864" stroke="#221C35" stroke-width="11.968" stroke-dasharray="19.71 19.71"/>
<path d="M57.6001 300.672L1395.07 300.672" stroke="#221C35" stroke-width="11.968" stroke-dasharray="19.71 19.71"/>
<path d="M57.6001 317.952L1395.07 317.952" stroke="#221C35" stroke-width="11.968" stroke-dasharray="19.71 19.71"/>
<path d="M37.4399 335.232L1395.07 335.232" stroke="#221C35" stroke-width="5.184" stroke-dasharray="6.91 6.91"/>
<path d="M37.4399 550.656L1395.07 550.656" stroke="#221C35" stroke-width="5.184" stroke-dasharray="6.91 6.91"/>
<path d="M37.4399 355.968L1395.07 355.968" stroke="#221C35" stroke-width="5.184" stroke-dasharray="6.91 6.91"/>
<path d="M37.4399 571.392L1395.07 571.391" stroke="#221C35" stroke-width="5.184" stroke-dasharray="6.91 6.91"/>
<path d="M37.4399 376.704L1395.07 376.704" stroke="#221C35" stroke-width="5.184" stroke-dasharray="6.91 6.91"/>
<path d="M37.4399 592.128L1395.07 592.128" stroke="#221C35" stroke-width="5.184" stroke-dasharray="6.91 6.91"/>
<path d="M37.4399 397.44L1395.07 397.44" stroke="#221C35" stroke-width="5.184" stroke-dasharray="6.91 6.91"/>
<path d="M37.4399 612.864L1395.07 612.864" stroke="#221C35" stroke-width="5.184" stroke-dasharray="6.91 6.91"/>
<path d="M37.4399 633.6L1395.07 633.599" stroke="#221C35" stroke-width="5.184" stroke-dasharray="6.91 6.91"/>
<path d="M44.3521 345.6L1401.98 345.599" stroke="#221C35" stroke-width="5.184" stroke-dasharray="6.91 6.91"/>
<path d="M44.3521 561.024L1401.98 561.024" stroke="#221C35" stroke-width="5.184" stroke-dasharray="6.91 6.91"/>
<path d="M44.3521 366.336L1401.98 366.336" stroke="#221C35" stroke-width="5.184" stroke-dasharray="6.91 6.91"/>
<path d="M44.3521 581.76L1401.98 581.76" stroke="#221C35" stroke-width="5.184" stroke-dasharray="6.91 6.91"/>
<path d="M44.3521 387.072L1401.98 387.072" stroke="#221C35" stroke-width="5.184" stroke-dasharray="6.91 6.91"/>
<path d="M44.3521 602.496L1401.98 602.496" stroke="#221C35" stroke-width="5.184" stroke-dasharray="6.91 6.91"/>
<path d="M44.3521 623.232L1401.98 623.232" stroke="#221C35" stroke-width="5.184" stroke-dasharray="6.91 6.91"/>
<path d="M44.3521 643.968L1401.98 643.968" stroke="#221C35" stroke-width="5.184" stroke-dasharray="6.91 6.91"/>
<path d="M37.4399 474.048H1401.98" stroke="#221C35" stroke-width="71.424" stroke-dasharray="3.46 3.46"/>
<g clip-path="url(#clip0_846_10145)">
<path d="M130.457 624.113H138.383C142.041 624.113 145.395 623.502 148.139 622.281C150.883 621.059 153.321 619.227 155.151 617.09C157.285 614.952 159.114 612.204 161.248 608.845C213.684 520.29 339.897 476.012 410.015 387.457L438.977 387.457C368.249 476.623 240.207 521.206 189.295 610.677C184.112 619.838 180.149 627.167 175.881 632.663C171.613 638.16 167.04 642.435 160.943 645.183C154.846 647.931 147.529 649.153 138.383 649.153C135.944 649.153 133.505 649.153 131.981 649.153C130.457 649.153 128.018 649.153 125.884 648.542C125.884 638.77 127.103 633.885 130.762 624.113H130.457ZM423.125 367.914C431.661 352.646 434.404 345.012 434.404 330.049L463.366 330.049C463.366 345.317 460.623 352.951 452.086 367.914L423.125 367.914Z" fill="white"/>
<path d="M288.974 581.976C278.608 581.976 271.596 579.838 267.938 575.868C264.585 571.899 264.89 565.791 269.767 557.852C274.645 549.913 284.401 540.141 299.034 528.232C370.372 471.74 424.028 443.646 468.538 387.154L497.499 387.154C454.209 441.814 403.297 469.297 333.484 523.957C324.033 531.285 317.631 537.393 313.972 542.279C310.619 547.164 309.704 550.523 311.229 552.661C312.753 554.798 316.716 556.02 322.813 556.02C328.911 556.02 335.922 554.493 344.763 551.439C353.604 548.386 363.665 543.5 375.25 536.477C387.139 529.759 399.639 520.903 413.967 510.215L431.344 510.215C418.235 519.987 411.833 524.873 399.944 534.644H391.712C377.079 544.416 363.97 552.661 351.47 559.684C338.971 566.708 327.691 572.204 317.021 575.868C306.351 579.533 296.9 581.67 288.364 581.67L288.974 581.976ZM336.532 578.617C353.3 560.295 363.97 551.439 386.53 533.118C386.53 533.118 386.53 532.812 386.53 532.507C458.782 474.488 515.181 445.479 560.911 387.46L589.873 387.46C529.205 463.8 435.003 501.971 364.275 578.617L336.227 578.617H336.532Z" fill="white"/>
<path d="M443.552 581.974C430.138 581.974 420.687 579.836 415.809 575.867C410.931 571.897 410.627 565.179 416.114 556.018C421.602 546.857 433.491 534.643 453.002 519.069L481.05 519.069C468.55 529.146 460.319 537.086 456.051 542.582C451.783 548.079 450.564 552.048 452.698 554.491C454.832 556.934 459.709 558.156 467.636 558.156C474.648 558.156 481.355 557.24 488.062 555.102C494.769 552.965 501.171 549.911 507.573 545.941C513.975 541.972 520.682 537.391 527.694 531.895C535.315 525.787 541.108 520.596 544.461 516.626C547.815 512.657 549.339 508.992 548.729 506.244C548.424 503.496 546.595 500.137 543.242 496.472C541.108 493.419 540.193 491.892 538.059 488.838C534.096 485.174 532.267 481.204 532.876 476.013C533.486 471.127 536.84 465.02 542.632 457.691C548.729 450.363 557.57 442.118 568.85 432.346C580.74 422.269 592.02 413.414 603.604 406.085C614.884 398.756 626.164 393.26 637.444 389.29C648.724 385.32 660.309 383.488 672.199 383.488C685.308 383.488 694.758 385.626 699.636 389.901C704.819 394.176 705.428 400.589 701.16 409.139C696.587 417.689 686.527 428.987 670.064 442.423L642.627 442.423C653.602 433.262 660.309 426.239 663.662 421.048C667.016 415.857 667.321 412.498 665.187 410.36C663.053 408.223 658.48 407.307 651.468 407.307C645.675 407.307 639.578 408.223 633.786 410.055C627.689 411.887 621.896 414.635 616.104 418.3C610.311 421.964 604.214 426.239 598.117 431.43C591.41 437.232 586.227 442.118 583.484 446.088C580.435 450.057 579.215 453.416 579.215 456.47C579.215 459.524 580.74 462.272 582.874 465.631C585.008 468.684 585.922 470.211 588.057 473.265C592.629 477.54 595.068 481.815 595.068 487.006C595.068 491.892 592.02 497.999 585.922 505.023C579.825 512.046 570.374 520.596 557.875 530.673C543.851 541.972 530.742 551.132 517.938 558.766C505.134 566.401 492.939 572.202 480.745 576.172C468.55 580.142 456.356 581.974 443.857 581.974H443.552Z" fill="white"/>
<path d="M714.571 412.802C724.937 402.725 729.814 397.534 737.741 387.457L818.529 387.457C810.603 397.534 805.725 402.725 795.36 412.802L714.571 412.802ZM574.639 579.225C565.494 579.225 559.091 578.004 555.433 575.561C551.775 573.118 551.47 569.148 554.519 563.346C557.567 557.544 564.884 549.605 577.078 539.528C634.088 492.502 675.854 468.684 727.68 421.658C737.436 412.802 742.009 408.222 750.24 399.366C758.167 390.816 761.825 386.541 767.617 377.686C780.422 359.059 784.385 349.898 784.995 331.271L813.956 331.271C813.652 349.898 809.384 359.059 796.579 377.686C790.787 386.236 787.129 390.511 779.202 399.366C770.971 408.222 766.398 412.802 756.642 421.658C706.34 467.462 666.098 490.364 610.004 536.474C604.821 540.749 601.162 544.108 599.333 546.857C597.504 549.299 597.199 551.132 598.419 552.353C599.638 553.575 602.382 553.88 606.65 553.88H618.845C607.565 563.651 602.382 568.843 593.236 578.614C592.931 578.614 592.626 578.614 592.321 578.614C592.017 578.614 591.712 578.614 591.407 578.614C588.358 578.614 585.615 578.92 582.566 579.225C579.517 579.225 577.078 579.225 574.639 579.225Z" fill="white"/>
<path d="M614.264 578.613C684.992 502.273 779.195 464.102 839.862 387.456L867.605 387.456C851.142 407.915 839.862 418.298 814.864 439.062C814.864 439.062 814.864 439.368 815.168 439.673C747.794 495.249 694.748 523.037 643.226 578.613H614.264ZM791.694 451.582C807.852 439.368 823.4 428.069 838.033 418.298C852.667 408.221 865.776 400.281 878.58 394.48C891.079 388.678 902.664 385.624 913.639 385.624C914.858 385.624 915.773 385.624 916.992 385.624C918.212 385.624 919.126 385.624 920.346 385.624C911.505 396.922 906.322 402.724 894.433 414.023C893.213 414.023 891.994 414.023 890.774 414.023H887.726C878.58 414.023 869.129 415.855 858.764 419.214C848.703 422.573 837.728 428.069 824.924 436.009C812.12 443.643 797.791 453.72 781.329 466.24C776.756 466.85 774.622 467.461 770.049 468.072C778.89 461.354 783.463 457.995 791.999 451.277L791.694 451.582Z" fill="white"/>
<path d="M953.268 367.913C961.804 352.645 964.548 345.011 964.548 330.048H993.51C993.51 345.316 990.766 352.95 982.23 367.913L953.268 367.913ZM714.561 578.308C785.289 501.967 879.492 463.797 940.159 387.151L969.121 387.151C908.454 463.491 814.251 501.662 743.523 578.308H714.561Z" fill="white"/>
<path d="M738.038 648.546C738.953 544.112 916.383 491.895 999.305 387.461L1027.35 387.461C1010.89 408.531 999 418.914 973.697 439.984H972.172C930.101 474.49 902.969 491.895 859.068 526.401H861.507C799.315 575.259 767.61 599.688 767.305 648.546H738.343H738.038ZM841.996 581.977C830.411 581.977 823.4 578.924 821.266 572.816C819.131 566.709 822.485 557.548 832.545 545.028C842.606 532.814 859.983 517.24 884.067 498.919C901.444 486.093 910.285 479.681 927.053 466.55C952.051 448.228 973.087 432.655 991.074 420.44C1009.06 408.226 1023.69 399.065 1036.8 392.958C1050.22 386.85 1062.11 383.797 1073.39 383.797C1085.89 383.797 1094.12 387.156 1097.17 393.874C1100.21 400.592 1097.17 411.28 1085.28 425.937C1073.69 440.594 1051.74 459.527 1020.65 482.734C989.245 506.247 961.502 525.18 939.247 539.837C916.687 554.495 898.701 565.182 883.153 571.9C867.605 578.618 853.886 581.977 841.386 581.977H841.996ZM861.202 556.632C868.824 556.632 878.275 554.189 889.25 549.303C900.225 544.418 913.639 536.478 930.406 525.485C947.174 514.492 968.209 500.14 992.598 481.818C1016.99 463.802 1034.06 449.45 1044.12 438.762C1054.18 428.074 1058.14 420.44 1057.84 415.86C1057.23 411.28 1052.96 409.142 1045.03 409.142C1037.11 409.142 1028.27 411.585 1017.9 416.471C1007.23 421.356 994.427 429.296 978.574 439.984C962.417 450.977 942.601 465.023 918.821 482.734C895.042 500.445 877.665 514.492 866.69 525.485C855.715 536.173 850.532 544.112 850.227 548.998C850.227 553.884 853.886 556.327 861.812 556.327L861.202 556.632Z" fill="white"/>
<path d="M985.595 581.976C971.571 581.976 962.73 578.617 959.377 571.899C956.328 565.181 959.681 554.494 972.181 539.836C984.68 525.179 1007.24 506.246 1038.64 482.733C1069.74 459.526 1096.56 440.593 1118.21 425.936C1139.86 411.279 1157.23 400.591 1172.78 393.873C1188.33 387.155 1202.66 383.796 1216.68 383.796C1230.7 383.796 1240.46 387.46 1244.12 394.484C1247.47 401.507 1244.73 412.5 1233.14 426.852C1221.56 441.204 1200.83 459.526 1170.95 481.817C1168.82 483.344 1166.99 484.871 1164.85 486.398C1162.72 487.925 1160.89 489.451 1158.76 490.978L1041.99 490.978C1054.8 481.512 1061.2 476.626 1073.7 467.16L1174.61 467.16C1165.16 470.214 1160.59 471.74 1151.13 475.099C1171.87 459.22 1186.8 446.701 1195.64 436.929C1204.49 427.157 1208.45 420.134 1207.84 415.554C1207.23 410.973 1202.96 408.836 1195.04 408.836C1187.11 408.836 1178.57 410.973 1168.82 415.248C1158.76 419.523 1146.87 426.852 1131.62 437.234C1116.38 447.617 1097.17 461.358 1073.7 478.764C1070.04 481.512 1068.21 483.039 1064.25 485.787C1039.56 504.109 1021.87 518.461 1011.81 528.843C1001.45 539.225 997.18 546.554 997.484 551.135C998.094 555.41 1002.36 557.547 1010.59 557.547C1016.69 557.547 1023.7 556.326 1031.02 553.578C1038.64 550.829 1047.18 546.554 1057.54 540.142C1067.91 534.034 1080.41 525.484 1095.65 515.102C1106.93 515.102 1112.72 515.102 1124 515.102C1101.75 530.675 1082.85 543.195 1066.38 552.967C1049.92 562.738 1035.9 570.067 1022.79 574.953C1009.68 579.839 997.484 581.976 985.29 581.976H985.595Z" fill="white"/>
</g>
<defs>
<clipPath id="clip0_846_10145">
<rect width="1119.74" height="319.104" fill="white" transform="translate(125.568 330.048)"/>
</clipPath>
</defs>
</svg>
