<svg width="48" height="48" viewBox="0 0 48 48" fill="none" xmlns="http://www.w3.org/2000/svg">
<path fill-rule="evenodd" clip-rule="evenodd" d="M24 42C33.9411 42 42 33.9411 42 24C42 14.0589 33.9411 6 24 6C14.0589 6 6 14.0589 6 24C6 33.9411 14.0589 42 24 42ZM20.2692 22.6152V14.769H21.2692V22.6152H20.2692ZM12.9617 25.3843C12.9617 31.2068 17.8843 35.9613 24.0001 35.9613C30.1159 35.9613 35.0386 31.2068 35.0386 25.3843H36.0386C36.0386 31.7971 30.6294 36.9613 24.0001 36.9613C17.3709 36.9613 11.9617 31.7971 11.9617 25.3843H12.9617ZM26.7309 14.769V22.6152H27.7309V14.769H26.7309Z" fill="#111111"/>
</svg>
