<svg width="48" height="48" viewBox="0 0 48 48" fill="none" xmlns="http://www.w3.org/2000/svg">
<path fill-rule="evenodd" clip-rule="evenodd" d="M7 8.84211C7 7.82474 7.82474 7 8.84211 7H40.1579C41.1753 7 42 7.82474 42 8.84211V32.1579C42 33.1753 41.1753 34 40.1579 34H19.8L16.2257 39.9571C15.7926 40.679 14.6979 40.4894 14.5328 39.6639L13.4 34H8.84211C7.82474 34 7 33.1753 7 32.1579V8.84211ZM19.5 22C20.3284 22 21 21.3284 21 20.5C21 19.6716 20.3284 19 19.5 19C18.6716 19 18 19.6716 18 20.5C18 21.3284 18.6716 22 19.5 22ZM26 20.5C26 21.3284 25.3284 22 24.5 22C23.6716 22 23 21.3284 23 20.5C23 19.6716 23.6716 19 24.5 19C25.3284 19 26 19.6716 26 20.5ZM29.5 22C30.3284 22 31 21.3284 31 20.5C31 19.6716 30.3284 19 29.5 19C28.6716 19 28 19.6716 28 20.5C28 21.3284 28.6716 22 29.5 22Z" fill="#111111"/>
</svg>
