<svg width="48" height="48" viewBox="0 0 48 48" fill="none" xmlns="http://www.w3.org/2000/svg">
<path fill-rule="evenodd" clip-rule="evenodd" d="M6.91251 8C5.85626 8 5 8.85626 5 9.91251V14.5H43V9.91251C43 8.85626 42.1437 8 41.0875 8H6.91251ZM8.5 13C9.32843 13 10 12.3284 10 11.5C10 10.6716 9.32843 10 8.5 10C7.67157 10 7 10.6716 7 11.5C7 12.3284 7.67157 13 8.5 13ZM13.5 13C14.3284 13 15 12.3284 15 11.5C15 10.6716 14.3284 10 13.5 10C12.6716 10 12 10.6716 12 11.5C12 12.3284 12.6716 13 13.5 13ZM18.5 13C19.3284 13 20 12.3284 20 11.5C20 10.6716 19.3284 10 18.5 10C17.6716 10 17 10.6716 17 11.5C17 12.3284 17.6716 13 18.5 13Z" fill="#111111"/>
<path d="M43 15.5H5V38.0875C5 39.1437 5.85626 40 6.91251 40H41.0875C42.1437 40 43 39.1437 43 38.0875V15.5Z" fill="#111111"/>
</svg>
