<svg width="48" height="48" viewBox="0 0 48 48" fill="none" xmlns="http://www.w3.org/2000/svg">
<path d="M35.9094 37.0415C36.691 37.8335 36.6814 39.1202 35.8071 39.8085C33.1001 41.9393 29.8329 43.3697 26.2679 43.8351C25.1531 43.9806 24.2237 43.0668 24.2237 41.9425V27.6369C24.2237 26.7428 25.3074 26.2981 25.9354 26.9345L35.9094 37.0415Z" fill="#111111"/>
<path d="M39.3712 36.1772C38.6852 37.0822 37.3667 37.0945 36.569 36.2862L26.6178 26.2023C25.9943 25.5705 26.4419 24.4999 27.3296 24.4999H41.3924C42.5159 24.4999 43.429 25.4278 43.2895 26.5426C42.8395 30.1406 41.447 33.439 39.3712 36.1772Z" fill="#111111"/>
<path d="M36.5532 11.6927C37.3501 10.8851 38.6672 10.8966 39.3539 11.7997C41.4393 14.5424 42.8382 17.8492 43.2895 21.4572C43.429 22.572 42.5159 23.4999 41.3924 23.4999H27.2931C26.4054 23.4999 25.9578 22.4293 26.5813 21.7975L36.5532 11.6927Z" fill="#111111"/>
<path d="M35.7846 8.17365C36.6608 8.86127 36.6712 10.1494 35.8889 10.9422L25.9354 21.0283C25.3074 21.6647 24.2237 21.22 24.2237 20.3259V6.05727C24.2237 4.93296 25.1531 4.01916 26.2679 4.1647C29.823 4.6288 33.082 6.05257 35.7846 8.17365Z" fill="#111111"/>
<path d="M21.1782 43.8334C22.2935 43.9797 23.2237 43.0657 23.2237 41.9409V27.6369C23.2237 26.7428 22.1399 26.2981 21.5119 26.9345L11.5402 37.0392C10.7585 37.8313 10.7682 39.1183 11.6428 39.8064C14.3479 41.9348 17.6139 43.3658 21.1782 43.8334Z" fill="#111111"/>
<path d="M8.0779 36.1759C8.76401 37.0806 10.0823 37.0928 10.8799 36.2846L20.8295 26.2023C21.4531 25.5705 21.0055 24.4999 20.1178 24.4999H6.05506C4.93153 24.4999 4.01841 25.4278 4.158 26.5427C4.60834 30.1391 6.00123 33.4376 8.0779 36.1759Z" fill="#111111"/>
<path d="M4.158 21.4571C4.01841 22.572 4.93153 23.4999 6.05505 23.4999H20.1542C21.042 23.4999 21.4895 22.4293 20.866 21.7975L10.8957 11.6943C10.0989 10.8868 8.78203 10.8981 8.09525 11.801C6.00899 14.5438 4.60959 17.8506 4.158 21.4571Z" fill="#111111"/>
<path d="M11.6653 8.17571C10.7889 8.86325 10.7783 10.1516 11.5607 10.9445L21.5119 21.0283C22.1399 21.6647 23.2237 21.22 23.2237 20.3259V6.05892C23.2237 4.9341 22.2935 4.02013 21.1782 4.16642C17.6238 4.63266 14.366 6.05709 11.6653 8.17571Z" fill="#111111"/>
</svg>
