<svg width="48" height="48" viewBox="0 0 48 48" fill="none" xmlns="http://www.w3.org/2000/svg">
<path fill-rule="evenodd" clip-rule="evenodd" d="M9.88932 29.3133C9.31377 27.7212 9 26.0039 9 24.2132C9 22.2966 9.35944 20.464 10.0146 18.7791C8.37512 17.5991 7.30762 15.6742 7.30762 13.5C7.30762 9.91015 10.2178 7 13.8076 7C16.0979 7 18.1116 8.18455 19.2693 9.97442C20.7565 9.48057 22.347 9.2132 24 9.2132C25.8413 9.2132 27.6052 9.54499 29.235 10.152C30.3722 8.26333 32.4424 7 34.8076 7C38.3975 7 41.3076 9.91015 41.3076 13.5C41.3076 15.8856 40.0224 17.9711 38.1066 19.1018C38.6847 20.6971 39 22.4183 39 24.2132C39 25.8768 38.7292 27.4771 38.2293 28.9724C40.0771 30.1187 41.3076 32.1656 41.3076 34.5C41.3076 38.0898 38.3975 41 34.8076 41C32.5882 41 30.6286 39.8877 29.4559 38.1901C27.765 38.8507 25.9248 39.2132 24 39.2132C22.2581 39.2132 20.5856 38.9163 19.0302 38.3703C17.8458 39.966 15.9475 41 13.8076 41C10.2178 41 7.30762 38.0898 7.30762 34.5C7.30762 32.3817 8.32095 30.5 9.88932 29.3133ZM10.8838 19.3069C11.7627 19.7503 12.756 20 13.8076 20C17.3975 20 20.3076 17.0899 20.3076 13.5C20.3076 12.5635 20.1096 11.6733 19.7531 10.869C21.0926 10.443 22.5194 10.2132 24 10.2132C25.6804 10.2132 27.2916 10.5092 28.7844 11.052C28.477 11.8076 28.3076 12.634 28.3076 13.5C28.3076 17.0899 31.2178 20 34.8076 20C35.6534 20 36.4615 19.8385 37.2027 19.5445C37.719 21.0047 38 22.5762 38 24.2132C38 25.7111 37.7648 27.1541 37.3292 28.5072C36.5538 28.1806 35.7018 28 34.8076 28C31.2178 28 28.3076 30.9101 28.3076 34.5C28.3076 35.5081 28.5371 36.4627 28.9467 37.3142C27.4087 37.8952 25.7415 38.2132 24 38.2132C22.4538 38.2132 20.9662 37.9626 19.5756 37.4997C20.0432 36.6023 20.3076 35.582 20.3076 34.5C20.3076 30.9101 17.3975 28 13.8076 28C12.7042 28 11.6651 28.2749 10.7549 28.76C10.2656 27.3344 10 25.8048 10 24.2132C10 22.487 10.3124 20.8337 10.8838 19.3069Z" fill="#111111"/>
</svg>
