<svg width="48" height="48" viewBox="0 0 48 48" fill="none" xmlns="http://www.w3.org/2000/svg">
<path fill-rule="evenodd" clip-rule="evenodd" d="M37.9552 24.1407C37.9552 29.1809 35.8217 33.7228 32.4085 36.9126H45V41.6181H21.1498V41.6056C20.9268 41.614 20.7027 41.6183 20.4776 41.6183C10.825 41.6183 3 33.7933 3 24.1407C3 14.4881 10.825 6.66309 20.4776 6.66309C30.1302 6.66309 37.9552 14.4881 37.9552 24.1407ZM25.8553 32.8793C25.8553 35.8494 23.4476 38.2571 20.4776 38.2571C17.5075 38.2571 15.0999 35.8494 15.0999 32.8793C15.0999 29.9093 17.5075 27.5016 20.4776 27.5016C23.4476 27.5016 25.8553 29.9093 25.8553 32.8793ZM20.4776 37.3025C22.9204 37.3025 24.9008 35.3222 24.9008 32.8793C24.9008 30.4365 22.9204 28.4562 20.4776 28.4562C18.0347 28.4562 16.0544 30.4365 16.0544 32.8793C16.0544 35.3222 18.0347 37.3025 20.4776 37.3025ZM29.2164 29.5183C32.1865 29.5183 34.5941 27.1107 34.5941 24.1406C34.5941 21.1706 32.1865 18.7629 29.2164 18.7629C26.2464 18.7629 23.8387 21.1706 23.8387 24.1406C23.8387 27.1107 26.2464 29.5183 29.2164 29.5183ZM33.6396 24.1406C33.6396 26.5835 31.6593 28.5638 29.2164 28.5638C26.7736 28.5638 24.7932 26.5835 24.7932 24.1406C24.7932 21.6978 26.7736 19.7174 29.2164 19.7174C31.6593 19.7174 33.6396 21.6978 33.6396 24.1406ZM25.8553 15.4021C25.8553 18.3722 23.4476 20.7799 20.4776 20.7799C17.5075 20.7799 15.0999 18.3722 15.0999 15.4021C15.0999 12.4321 17.5075 10.0244 20.4776 10.0244C23.4476 10.0244 25.8553 12.4321 25.8553 15.4021ZM20.4776 19.8253C22.9204 19.8253 24.9008 17.845 24.9008 15.4021C24.9008 12.9593 22.9204 10.979 20.4776 10.979C18.0347 10.979 16.0544 12.9593 16.0544 15.4021C16.0544 17.845 18.0347 19.8253 20.4776 19.8253ZM11.7387 29.5183C14.7088 29.5183 17.1165 27.1107 17.1165 24.1406C17.1165 21.1706 14.7088 18.7629 11.7387 18.7629C8.76871 18.7629 6.36102 21.1706 6.36102 24.1406C6.36102 27.1107 8.76871 29.5183 11.7387 29.5183ZM16.1619 24.1406C16.1619 26.5835 14.1816 28.5638 11.7387 28.5638C9.29589 28.5638 7.31557 26.5835 7.31557 24.1406C7.31557 21.6978 9.29589 19.7174 11.7387 19.7174C14.1816 19.7174 16.1619 21.6978 16.1619 24.1406Z" fill="#111111"/>
</svg>
