<svg width="48" height="48" viewBox="0 0 48 48" fill="none" xmlns="http://www.w3.org/2000/svg">
<path d="M16.3337 40.2905C13.3334 37.5049 11.1516 33.0569 10.4208 27.8541C8.58506 27.307 7.10648 26.6499 6.10097 25.9179C6.77592 32.2904 10.7761 37.6705 16.3337 40.2905Z" fill="#111111"/>
<path d="M21.321 41.802C20.7056 41.7102 20.1003 41.5872 19.5069 41.4347C17.7694 40.539 16.1844 39.0882 14.8587 37.1846C13.1705 34.7607 11.9349 31.639 11.3853 28.1229C13.2987 28.6212 15.5358 29.0082 17.9877 29.2508C18.4692 34.9001 19.7082 39.5054 21.321 41.802Z" fill="#111111"/>
<path d="M24.633 41.9891C24.4229 41.9963 24.2119 42 24 42C23.5399 42 23.0838 41.9827 22.6324 41.9488C22.4666 41.7889 22.2909 41.5852 22.1065 41.3283C21.4842 40.4612 20.886 39.1475 20.3682 37.4417C19.6982 35.2347 19.1884 32.4579 18.9131 29.3346C20.5343 29.4681 22.2398 29.5393 24.0001 29.5393C25.5099 29.5393 26.9795 29.4869 28.3901 29.3878C28.1137 32.4894 27.6059 35.2472 26.9397 37.4417C26.4219 39.1475 25.8237 40.4612 25.2014 41.3283C25.0012 41.6072 24.8111 41.8235 24.633 41.9891Z" fill="#111111"/>
<path d="M27.2129 41.7141C26.7861 41.791 26.3541 41.8528 25.9175 41.8991C27.5579 39.6454 28.8223 35.0159 29.3146 29.3154C31.7339 29.1065 33.9603 28.7585 35.8941 28.3017C35.331 31.7448 34.1087 34.8018 32.4493 37.1846C30.9754 39.301 29.181 40.8576 27.2129 41.7141Z" fill="#111111"/>
<path d="M30.3237 40.8578C36.5725 38.5127 41.1708 32.7928 41.899 25.918C40.7649 26.7436 39.029 27.474 36.8577 28.0586C36.0444 33.5409 33.617 38.1655 30.3237 40.8578Z" fill="#111111"/>
<path d="M41.9489 22.6336C41.9828 23.0846 42 23.5403 42 24C42 24.212 41.9963 24.4232 41.9891 24.6334C41.8235 24.8116 41.6071 25.0018 41.328 25.2021C40.4609 25.8244 39.1471 26.4226 37.4414 26.9405C37.2919 26.9858 37.1398 27.0305 36.9852 27.0744C37.0963 26.0732 37.154 25.0465 37.154 24.0004C37.154 22.7032 37.0652 21.4357 36.896 20.2099C37.0814 20.2618 37.2633 20.3148 37.4414 20.3689C39.1471 20.8867 40.4609 21.4849 41.328 22.1072C41.5851 22.2917 41.7889 22.4677 41.9489 22.6336Z" fill="#111111"/>
<path d="M41.8022 21.3221C40.8274 14.787 36.3399 9.3993 30.322 7.14152C33.4703 9.71448 35.8277 14.0533 36.7403 19.2194C38.9051 19.7929 40.6462 20.5102 41.8022 21.3221Z" fill="#111111"/>
<path d="M25.9169 6.10086C26.3527 6.147 26.7839 6.20869 27.2099 6.28537C29.1792 7.14155 30.9747 8.69872 32.4493 10.8161C33.9919 13.0311 35.1566 15.8288 35.7654 18.9775C33.8445 18.5315 31.6407 18.1922 29.2501 17.9884C28.7177 12.6079 27.4902 8.26171 25.9169 6.10086Z" fill="#111111"/>
<path d="M22.6333 6.05111C23.0844 6.01724 23.5402 6 24 6C24.2116 6 24.4223 6.00365 24.6321 6.01089C24.8105 6.17653 25.0009 6.39309 25.2014 6.67246C25.8237 7.53954 26.4219 8.85332 26.9397 10.5591C27.5557 12.588 28.0362 15.0984 28.3236 17.917C26.9333 17.8208 25.4862 17.7701 24.0001 17.7701C22.2636 17.7701 20.5804 17.8394 18.979 17.9694C19.2658 15.1295 19.7484 12.6006 20.3682 10.5591C20.886 8.85332 21.4842 7.53954 22.1065 6.67246C22.2912 6.41516 22.4673 6.21114 22.6333 6.05111Z" fill="#111111"/>
<path d="M19.5099 6.56453C20.1026 6.41235 20.707 6.28959 21.3217 6.19791C19.7755 8.39896 18.5727 12.7218 18.0515 18.0523C15.6274 18.2894 13.4116 18.6674 11.509 19.1545C12.1079 15.9336 13.2872 13.0726 14.8587 10.8161C16.1851 8.91147 17.7712 7.46012 19.5099 6.56453Z" fill="#111111"/>
<path d="M16.3354 7.70869C10.9993 10.2236 7.09855 15.2829 6.19782 21.3222C7.22136 20.6033 8.70365 19.9586 10.5327 19.4221C11.3575 14.5308 13.4744 10.364 16.3354 7.70869Z" fill="#111111"/>
<path d="M6.01093 24.6332C6.00366 24.423 6 24.2119 6 24C6 23.5404 6.01723 23.0847 6.05108 22.6337C6.21106 22.4678 6.415 22.2918 6.67216 22.1072C7.50928 21.5064 8.76278 20.9281 10.3834 20.4228C10.2328 21.5823 10.154 22.7782 10.154 24.0004C10.154 24.972 10.2038 25.927 10.2999 26.8603C8.71966 26.3613 7.49484 25.7926 6.67216 25.2021C6.39298 25.0017 6.17652 24.8115 6.01093 24.6332Z" fill="#111111"/>
<path d="M17.9163 28.3243C15.4103 28.0687 13.1479 27.6605 11.2509 27.1402C11.1312 26.1209 11.0687 25.0719 11.0687 24.0004C11.0687 22.6758 11.1642 21.3858 11.3452 20.1435C13.2359 19.6318 15.4832 19.2308 17.9686 18.9798C17.8386 20.5811 17.7693 22.2641 17.7693 24.0004C17.7693 25.4867 17.8201 26.9339 17.9163 28.3243Z" fill="#111111"/>
<path d="M29.3339 18.9138C31.7833 19.1297 34.0196 19.4898 35.9351 19.9583C36.134 21.2574 36.2393 22.6098 36.2393 24.0004C36.2393 25.1374 36.1689 26.2489 36.0345 27.3266C34.1109 27.8036 31.8581 28.1707 29.387 28.3908C29.4862 26.9801 29.5386 25.5104 29.5386 24.0004C29.5386 22.2402 29.4674 20.5349 29.3339 18.9138Z" fill="#111111"/>
<path d="M28.4098 18.84C28.549 20.4774 28.6239 22.2081 28.6239 24.0004C28.6239 25.5409 28.5685 27.036 28.4646 28.4654C27.0354 28.5693 25.5405 28.6246 24.0001 28.6246C22.2076 28.6246 20.4768 28.5497 18.8393 28.4105C18.738 26.9978 18.684 25.5212 18.684 24.0004C18.684 22.2279 18.7573 20.5156 18.8935 18.8943C20.515 18.758 22.2274 18.6848 24.0001 18.6848C25.5208 18.6848 26.9972 18.7387 28.4098 18.84Z" fill="#111111"/>
</svg>
