<svg width="86" height="55" viewBox="0 0 86 55" fill="none" xmlns="http://www.w3.org/2000/svg">
<g clip-path="url(#clip0_2097_12490)">
<mask id="mask0_2097_12490" style="mask-type:luminance" maskUnits="userSpaceOnUse" x="0" y="0" width="86" height="55">
<path d="M85.4618 0.533203H0.142578V54.3214H85.4618V0.533203Z" fill="white"/>
</mask>
<g mask="url(#mask0_2097_12490)">
<path d="M38.3457 5.4826C38.5941 5.25883 38.7598 5.00709 38.9254 4.72738C37.7937 5.25883 36.386 5.03507 35.4751 4.02811C34.5642 3.02116 34.4538 1.65058 35.061 0.531738C34.785 0.671593 34.509 0.839419 34.2882 1.06319C33.0737 2.21 33.0185 4.11202 34.1225 5.34275C35.2543 6.5455 37.1588 6.62941 38.3457 5.4826Z" fill="#111111"/>
<path d="M60.9234 3.58004C62.0275 3.58004 62.3588 3.91569 62.3588 5.03453C62.3588 5.11844 62.4416 5.20236 62.5244 5.20236C62.6072 5.20236 62.69 5.11844 62.69 5.03453C62.69 3.91569 63.0212 3.58004 64.1253 3.58004C64.2081 3.58004 64.2909 3.49613 64.2909 3.41222C64.2909 3.3283 64.2081 3.24439 64.1253 3.24439C63.0212 3.24439 62.69 2.90874 62.69 1.7899C62.69 1.70599 62.6072 1.62207 62.5244 1.62207C62.4416 1.62207 62.3588 1.70599 62.3588 1.7899C62.3588 2.90874 62.0275 3.24439 60.9234 3.24439C60.8406 3.24439 60.7578 3.3283 60.7578 3.41222C60.7578 3.49613 60.8406 3.58004 60.9234 3.58004Z" fill="#111111"/>
<path d="M47.5914 13.9297C48.6955 13.9297 49.0267 14.2653 49.0267 15.3842C49.0267 15.4681 49.1095 15.552 49.1923 15.552C49.2751 15.552 49.358 15.4681 49.358 15.3842C49.358 14.2653 49.6892 13.9297 50.7933 13.9297C50.8761 13.9297 50.9589 13.8458 50.9589 13.7619C50.9589 13.678 50.8761 13.594 50.7933 13.594C49.6892 13.594 49.358 13.2584 49.358 12.1395C49.358 12.0556 49.2751 11.9717 49.1923 11.9717C49.1095 11.9717 49.0267 12.0556 49.0267 12.1395C49.0267 13.2584 48.6955 13.594 47.5914 13.594C47.5086 13.594 47.4258 13.678 47.4258 13.7619C47.4258 13.8458 47.481 13.9297 47.5914 13.9297Z" fill="#111111"/>
<path d="M21.4508 13.9297C22.5549 13.9297 22.8862 14.2653 22.8862 15.3842C22.8862 15.4681 22.969 15.552 23.0518 15.552C23.1346 15.552 23.2174 15.4681 23.2174 15.3842C23.2174 14.2653 23.5486 13.9297 24.6527 13.9297C24.7355 13.9297 24.8183 13.8458 24.8183 13.7619C24.8183 13.678 24.7355 13.594 24.6527 13.594C23.5486 13.594 23.2174 13.2584 23.2174 12.1395C23.2174 12.0556 23.1346 11.9717 23.0518 11.9717C22.969 11.9717 22.8862 12.0556 22.8862 12.1395C22.8862 13.2584 22.5549 13.594 21.4508 13.594C21.368 13.594 21.2852 13.678 21.2852 13.7619C21.2852 13.8458 21.3404 13.9297 21.4508 13.9297Z" fill="#111111"/>
<path d="M8.11823 3.58004C9.22233 3.58004 9.55355 3.91569 9.55355 5.03453C9.55355 5.11844 9.63636 5.20236 9.71917 5.20236C9.80198 5.20236 9.88478 5.11844 9.88478 5.03453C9.88478 3.91569 10.216 3.58004 11.3201 3.58004C11.4029 3.58004 11.4857 3.49613 11.4857 3.41222C11.4857 3.3283 11.4029 3.24439 11.3201 3.24439C10.216 3.24439 9.88478 2.90874 9.88478 1.7899C9.88478 1.70599 9.80198 1.62207 9.71917 1.62207C9.63636 1.62207 9.55355 1.70599 9.55355 1.7899C9.55355 2.90874 9.22233 3.24439 8.11823 3.24439C8.03542 3.24439 7.95261 3.3283 7.95261 3.41222C7.92501 3.49613 8.00782 3.58004 8.11823 3.58004Z" fill="#111111"/>
<path d="M74.2555 13.0913C75.3596 13.0913 75.6908 13.4269 75.6908 14.5458C75.6908 14.6297 75.7736 14.7136 75.8564 14.7136C75.9392 14.7136 76.022 14.6297 76.022 14.5458C76.022 13.4269 76.3532 13.0913 77.4573 13.0913C77.5402 13.0913 77.623 13.0074 77.623 12.9234C77.623 12.8395 77.5402 12.7556 77.4573 12.7556C76.3532 12.7556 76.022 12.42 76.022 11.3011C76.022 11.2172 75.9392 11.1333 75.8564 11.1333C75.7736 11.1333 75.6908 11.2172 75.6908 11.3011C75.6908 12.42 75.3596 12.7556 74.2555 12.7556C74.1727 12.7556 74.0898 12.8395 74.0898 12.9234C74.0898 13.0074 74.1727 13.0913 74.2555 13.0913Z" fill="#111111"/>
<path d="M9.88625 24.9221C8.61653 24.1389 7.20881 23.7753 5.74588 23.6074C4.58657 23.4676 3.42727 23.4676 2.26797 23.4956C1.57791 23.4956 0.887845 23.5235 0.197783 23.5515C0.197783 23.5795 0.170181 23.5795 0.170181 23.6074C0.197783 23.6354 0.252988 23.6913 0.28059 23.6913C0.61182 23.7473 0.805037 23.999 0.860242 24.3067C0.915447 24.5584 0.943049 24.8102 0.943049 25.0619C0.943049 29.4813 0.943049 33.8728 0.943049 38.2922C0.943049 38.46 0.943049 38.6558 0.915447 38.8236C0.860242 39.2152 0.72223 39.5509 0.28059 39.6348C0.252988 39.6348 0.225386 39.6907 0.142578 39.7747C0.225386 39.7747 0.28059 39.8026 0.308193 39.8026C1.66071 39.8306 3.01323 39.9145 4.36575 39.9145C5.69067 39.9145 6.98799 39.6907 8.2301 39.1873C10.2175 38.3761 11.6804 37.0055 12.5637 35.0196C13.3366 33.2295 13.4746 31.3834 13.0881 29.4813C12.6741 27.4674 11.5976 25.957 9.88625 24.9221ZM11.294 35.0196C10.6039 36.8657 9.3342 38.1244 7.51243 38.8236C6.15991 39.3551 4.75219 39.495 3.28926 39.495C2.98563 39.495 2.682 39.4949 2.37838 39.467C2.35077 39.467 2.35077 39.467 2.29557 39.439C2.18516 34.2923 2.24036 29.1177 2.26797 23.9151C2.73721 23.9151 3.20645 23.9151 3.64809 23.9151C4.8626 23.9431 6.0495 24.0829 7.1812 24.4745C9.74823 25.3416 11.294 27.1318 11.708 29.845C12.0116 31.6071 11.9012 33.3413 11.294 35.0196Z" fill="#111111"/>
<path d="M31.0034 39.6917C30.8378 39.5798 30.6446 39.4959 30.4789 39.356C30.0925 39.0483 29.8165 38.6288 29.5957 38.1812C27.2495 33.3422 24.9861 28.4473 22.7779 23.5244C22.7227 23.4125 22.6951 23.3286 22.5294 23.3286C22.3638 23.3286 22.3086 23.4125 22.2534 23.5244C21.5634 25.0628 20.8733 26.6292 20.1556 28.1396C18.5547 31.5801 16.9261 34.9925 15.3252 38.405C15.0492 38.9924 14.6627 39.4679 14.0279 39.6917C14.0003 39.6917 13.9727 39.7476 13.9727 39.7756C14.0003 39.8035 14.0555 39.8315 14.0831 39.8315C14.8836 39.7476 15.6564 39.7476 16.4569 39.8315C16.5121 39.8315 16.5673 39.8035 16.6225 39.7756C16.5673 39.7196 16.5397 39.6637 16.4845 39.6357C16.0429 39.4399 15.8772 39.1043 15.9601 38.6288C15.9877 38.4889 16.0429 38.3491 16.0981 38.2372C16.6225 37.0344 17.147 35.8317 17.6714 34.6289C17.7266 34.4891 17.8094 34.4331 17.975 34.4331C20.6249 34.4331 23.2747 34.4331 25.8969 34.4331C26.2558 34.4331 26.4214 34.545 26.587 34.8807C27.1114 36.1114 27.7187 37.3421 28.2708 38.5728C28.5744 39.2441 28.4088 39.4959 27.7463 39.7476C27.7463 39.7476 27.7463 39.7476 27.6635 39.8035C27.7739 39.8315 27.8291 39.8875 27.8843 39.8875C28.2984 39.8595 28.7124 39.8035 29.1264 39.8035C29.7337 39.8035 30.3133 39.8315 30.9206 39.8595C30.9758 39.8595 31.031 39.8315 31.0862 39.8035C31.0862 39.7756 31.0586 39.7196 31.0034 39.6917ZM18.0302 33.9576C19.3828 30.9927 20.7077 28.0837 22.0878 25.0908C23.4679 28.0837 24.848 30.9927 26.2282 33.9576C23.4679 33.9576 20.7629 33.9576 18.0302 33.9576Z" fill="#111111"/>
<path d="M85.351 39.6917C85.1854 39.5798 84.9922 39.4959 84.8542 39.356C84.4678 39.0483 84.1917 38.6288 83.9709 38.1812C81.5971 33.3422 79.3337 28.4473 77.1255 23.5244C77.0703 23.4125 77.0427 23.3286 76.8771 23.3286C76.7115 23.3286 76.6563 23.4125 76.6011 23.5244C75.8558 25.1467 75.1381 26.7691 74.3929 28.3914C72.8195 31.7479 71.2462 35.0764 69.6728 38.433C69.3968 39.0204 69.038 39.4679 68.4031 39.7196C68.3755 39.7196 68.3479 39.7756 68.3203 39.8035C68.3755 39.8315 68.4031 39.8595 68.4583 39.8315C69.2588 39.7476 70.0317 39.7476 70.8321 39.8315C70.8873 39.8315 70.9425 39.8035 70.9978 39.7756C70.9425 39.7196 70.9149 39.6637 70.8597 39.6357C70.4181 39.4399 70.2525 39.1043 70.3353 38.6288C70.3629 38.4889 70.4181 38.377 70.4733 38.2372C70.9978 37.0064 71.5498 35.7757 72.0742 34.545C72.1295 34.4331 72.1847 34.4051 72.2951 34.4051C75.0553 34.4051 77.8156 34.4051 80.6034 34.4051C80.7414 34.4051 80.7966 34.4611 80.8518 34.573C81.4315 35.8317 82.0111 37.0904 82.5908 38.349C82.6736 38.5169 82.7288 38.6847 82.784 38.8805C82.8668 39.1882 82.7564 39.4399 82.4528 39.5798C82.3424 39.6357 82.232 39.6637 82.1491 39.7196C82.1491 39.7476 82.1215 39.7756 82.1215 39.7756C82.1767 39.8035 82.232 39.8315 82.3148 39.8315C82.7288 39.8035 83.1428 39.7476 83.5569 39.7476C84.1641 39.7476 84.7438 39.7756 85.351 39.8035C85.4062 39.8035 85.4614 39.7756 85.489 39.7756C85.4338 39.7756 85.4062 39.7196 85.351 39.6917ZM72.3779 33.9576C73.7304 30.9927 75.0553 28.0837 76.4354 25.0908C77.8156 28.0837 79.1957 30.9927 80.5758 33.9576C77.8156 33.9576 75.1105 33.9576 72.3779 33.9576Z" fill="#111111"/>
<path d="M50.6827 23.3284C50.7103 23.3564 50.7379 23.4123 50.7931 23.4403C51.1795 23.5802 51.3727 23.8878 51.4003 24.2794C51.4279 24.4193 51.4279 24.5871 51.4279 24.727C51.4831 29.3702 51.5384 33.9854 51.3175 38.6285C51.2899 39.132 51.1519 39.5516 50.6275 39.7474C50.5999 39.7474 50.5723 39.8033 50.5723 39.8313C50.5999 39.8593 50.6551 39.8872 50.6827 39.8872C51.3727 39.8033 52.0352 39.8033 52.7253 39.8872C52.7529 39.8872 52.8081 39.8593 52.8357 39.8593C52.8081 39.8313 52.7805 39.7754 52.7529 39.7474C52.256 39.5516 52.0904 39.16 52.0904 38.6845C52.0352 36.6706 51.98 34.6287 51.9524 32.6148C51.9248 29.9575 51.9248 27.3283 51.9248 24.671C51.9248 24.6151 51.9248 24.5871 51.9248 24.5032C51.98 24.5591 52.0076 24.5871 52.0352 24.6431C56.2308 29.8177 60.4539 35.0203 64.6495 40.1949C64.7599 40.3348 64.8703 40.3907 65.0084 40.3348C65.0084 39.7754 65.0084 39.2719 65.0084 38.7404C64.9807 35.4399 64.9531 32.1673 64.9531 28.8667C64.9531 27.4122 65.036 25.9577 65.0636 24.4752C65.0912 23.9718 65.2292 23.5522 65.7536 23.3844C65.7812 23.3844 65.8088 23.3284 65.8364 23.3005C65.7812 23.2725 65.726 23.2725 65.6984 23.2725C65.036 23.2725 64.3735 23.2725 63.711 23.2725C63.6558 23.2725 63.6282 23.3005 63.573 23.3284C63.6006 23.3564 63.6282 23.4123 63.6834 23.4403C64.0699 23.6081 64.2907 23.9158 64.3183 24.3354C64.3735 25.2025 64.4287 26.0696 64.4287 26.9367C64.4563 30.461 64.4839 33.9854 64.5115 37.5097C64.5115 37.5657 64.5115 37.6216 64.5115 37.7335C64.4287 37.6496 64.4011 37.5936 64.3459 37.5656C60.5092 32.8665 56.7 28.1674 52.8633 23.4683C52.8081 23.4123 52.6977 23.3564 52.6148 23.3564C52.0076 23.3284 51.4279 23.3284 50.8207 23.3005C50.7655 23.2725 50.7103 23.3005 50.6827 23.3284Z" fill="#111111"/>
<path d="M66.0587 43.2998C65.1754 44.2229 64.651 44.7543 63.8781 45.3697C63.6849 45.5095 63.4917 45.6494 63.2708 45.8172C59.5169 48.6143 52.0642 49.9849 45.0532 40.251C43.4523 38.2371 41.9617 35.8316 40.6644 34.0974C41.1061 33.8736 41.2993 33.7617 41.5201 33.6498C42.569 33.1743 43.3695 32.6149 43.9491 31.9996C45.1084 30.8807 45.5225 29.4262 45.3016 27.692C45.1084 26.2655 44.2804 25.2585 43.0934 24.5313C41.6581 23.6362 40.0296 23.3285 38.3734 23.2446C37.0485 23.1887 35.7236 23.2446 34.3987 23.2446C34.1226 23.2446 33.8466 23.2726 33.5706 23.3006C33.5706 23.3285 33.543 23.3285 33.543 23.3565C33.5982 23.3845 33.6258 23.4684 33.681 23.4684C34.1226 23.5523 34.3711 23.86 34.4263 24.3075C34.4539 24.4194 34.4539 24.5593 34.4815 24.6991C34.4815 29.0346 34.4815 33.9855 34.4815 38.3769C34.4815 38.4888 34.4815 38.6007 34.4815 38.6846C34.4815 39.1601 34.2883 39.5237 33.819 39.6916C33.7914 39.6916 33.7638 39.7755 33.7362 39.8035C33.7638 39.8035 33.819 39.8314 33.8466 39.8314C34.7299 39.7475 35.6408 39.7475 36.5517 39.8035C36.5241 39.7475 36.4965 39.6636 36.4413 39.6636C36.11 39.5237 35.8892 39.272 35.8616 38.9084C35.834 38.7685 35.834 38.6007 35.834 38.4608C35.834 37.9574 35.834 37.4539 35.834 36.9504C35.834 36.0274 35.834 35.1043 35.834 34.489C38.263 33.8456 39.9192 34.489 41.4373 36.5868C42.0998 37.5098 42.9278 38.6846 43.8663 39.8874C44.5288 40.8384 53.5548 53.4533 63.6021 46.2647C64.0437 46.041 65.479 44.8942 66.6659 43.5236C67.08 43.0481 67.3008 42.5446 67.1352 42.4048C66.7487 42.0971 66.6107 42.7404 66.0587 43.2998ZM39.9192 33.3142C38.7599 33.6219 37.1313 33.6219 35.9444 33.538C35.8892 33.538 35.8064 33.51 35.7788 33.51C35.7788 33.51 35.7788 33.51 35.7788 33.482C35.7788 30.2374 35.7788 26.9927 35.7788 23.7481C35.834 23.7201 35.8616 23.7201 35.8892 23.7201C37.3245 23.7201 39.1739 23.8041 40.554 24.2516C41.7685 24.6432 42.8174 25.3145 43.2315 26.6012C43.8111 28.3913 43.7007 30.1535 42.5414 31.6919C41.9065 32.5869 40.9681 33.0345 39.9192 33.3142Z" fill="#111111"/>
<path d="M20.0994 51.2427C19.2989 51.2427 18.6641 51.886 18.6641 52.7811C18.6641 53.6761 19.2989 54.3195 20.0994 54.3195C20.8999 54.3195 21.5623 53.6761 21.5623 52.7811C21.5623 51.886 20.8999 51.2427 20.0994 51.2427ZM20.0994 53.9838C19.4645 53.9838 18.9953 53.5083 18.9953 52.7811C18.9953 52.0818 19.4645 51.5783 20.0994 51.5783C20.7342 51.5783 21.2035 52.0538 21.2035 52.7811C21.2035 53.4803 20.7342 53.9838 20.0994 53.9838Z" fill="#111111"/>
<path d="M24.626 53.033C24.626 53.6763 24.35 53.984 23.798 53.984C23.2459 53.984 22.9699 53.6763 22.9699 53.033V51.2988H22.6387V53.033C22.6387 53.8721 23.0527 54.3197 23.7704 54.3197C24.488 54.3197 24.9297 53.8721 24.9297 53.033V51.2988H24.5984V53.033H24.626Z" fill="#111111"/>
<path d="M28.1038 52.2507C28.1038 51.6913 27.7174 51.3276 27.0549 51.3276H26.1992V54.2646H26.5304V53.1737H27.0549C27.1101 53.1737 27.1653 53.1737 27.1929 53.1737L27.8278 54.2646H28.1866L27.4965 53.0898C27.883 52.9499 28.1038 52.6702 28.1038 52.2507ZM27.0825 52.8381H26.5304V51.6353H27.0825C27.4965 51.6353 27.7726 51.8591 27.7726 52.2507C27.745 52.5863 27.5241 52.8381 27.0825 52.8381Z" fill="#111111"/>
<path d="M32.8514 52.5584H31.3333V51.3276H31.002V54.2646H31.3333V52.894H32.8514V54.2646H33.1826V51.3276H32.8514V52.5584Z" fill="#111111"/>
<path d="M35.8044 51.2427C35.004 51.2427 34.3691 51.886 34.3691 52.7811C34.3691 53.6761 35.004 54.3195 35.8044 54.3195C36.6049 54.3195 37.2674 53.6761 37.2674 52.7811C37.2674 51.886 36.6049 51.2427 35.8044 51.2427ZM35.8044 53.9838C35.1696 53.9838 34.7003 53.5083 34.7003 52.7811C34.7003 52.0818 35.1696 51.5783 35.8044 51.5783C36.4393 51.5783 36.9085 52.0538 36.9085 52.7811C36.9085 53.4803 36.4393 53.9838 35.8044 53.9838Z" fill="#111111"/>
<path d="M39.9734 52.5584C39.725 52.9779 39.6974 53.1178 39.6974 53.1178C39.6974 53.1178 39.6422 53.0059 39.4213 52.5584L38.7313 51.3276H38.4277V54.2646H38.7589V52.9499C38.7589 52.5024 38.7313 51.915 38.7313 51.915C38.7313 51.915 38.8693 52.1947 38.9797 52.3626L39.6422 53.5653H39.8078L40.4702 52.3626C40.5807 52.1947 40.7187 51.915 40.7187 51.915C40.7187 51.915 40.6911 52.5024 40.6911 52.9499V54.2646H41.0223V51.3276H40.7187L39.9734 52.5584Z" fill="#111111"/>
<path d="M42.6789 52.8381H43.921V52.5304H42.6789V51.6353H44.2246V51.3276H42.3477V54.2646H44.2523V53.9289H42.6789V52.8381Z" fill="#111111"/>
<path d="M47.4542 51.3276H47.123V54.2646H47.4542V51.3276Z" fill="#111111"/>
<path d="M50.7918 52.8652C50.7918 53.2847 50.7918 53.6763 50.7918 53.6763C50.7918 53.6763 50.571 53.3687 50.3777 53.061L49.1356 51.2988H48.832V54.2358H49.1632V52.6974C49.1632 52.2218 49.1632 51.8582 49.1632 51.8582C49.1632 51.8582 49.3565 52.1379 49.5773 52.4736L50.8194 54.2358H51.123V51.2988H50.7918V52.8652Z" fill="#111111"/>
<path d="M54.464 52.8381H55.7062V52.5304H54.464V51.6353H56.0098V51.3276H54.1328V54.2646H56.0374V53.9289H54.464V52.8381Z" fill="#111111"/>
<path d="M57.6124 51.3276H57.2812V54.2646H57.6124V51.3276Z" fill="#111111"/>
<path d="M59.3215 51.3276H58.9902V54.2646H60.812V53.9289H59.3215V51.3276Z" fill="#111111"/>
<path d="M62.9098 51.3276L61.6953 54.2646H62.0541L62.3578 53.5094H63.7655L64.0691 54.2646H64.428L63.2134 51.3276H62.9098ZM62.4682 53.1737L62.9098 52.0829C62.965 51.943 63.0478 51.7192 63.0478 51.7192C63.0478 51.7192 63.1306 51.915 63.1858 52.0829L63.6275 53.1737H62.4682Z" fill="#111111"/>
<path d="M64.8691 51.6353H65.78V54.2646H66.1112V51.6353H67.0497V51.3276H64.8691V51.6353Z" fill="#111111"/>
</g>
</g>
<defs>
<clipPath id="clip0_2097_12490">
<rect width="86" height="55" fill="white"/>
</clipPath>
</defs>
</svg>
