<svg width="140" height="30" viewBox="0 0 140 30" fill="none" xmlns="http://www.w3.org/2000/svg">
<g clip-path="url(#clip0_2097_12734)">
<path fill-rule="evenodd" clip-rule="evenodd" d="M0 0.401855L0.000683994 11.5936H9.24349V21.1356H12.1318V8.75779H2.88919V3.23791H21.1919V0.401855H0Z" fill="#111111"/>
<path fill-rule="evenodd" clip-rule="evenodd" d="M26.9436 0.382812V8.73853H17.7005V26.7811H9.23633V29.6172H20.589V11.5746H29.8318V0.382812H26.9436Z" fill="#111111"/>
<path fill-rule="evenodd" clip-rule="evenodd" d="M43.9989 11.2753V21.3009H41.498V11.2753H37.6074V8.97803H47.8892V11.2753H43.9989Z" fill="#111111"/>
<path fill-rule="evenodd" clip-rule="evenodd" d="M59.4863 13.9425V8.97803H61.9872V21.3009H59.4863V16.231H53.4443V21.3009H50.9434V8.97803H53.4443V13.9425H59.4863Z" fill="#111111"/>
<path fill-rule="evenodd" clip-rule="evenodd" d="M66.1797 21.3009H68.6808V8.97803H66.1797V21.3009Z" fill="#111111"/>
<path fill-rule="evenodd" clip-rule="evenodd" d="M81.7494 21.3009L75.3848 13.0707L75.3759 21.3009H72.875V8.97803H75.2145L81.5879 17.208V8.97803H84.098V21.3009H81.7494Z" fill="#111111"/>
<path fill-rule="evenodd" clip-rule="evenodd" d="M90.7922 16.2308V21.3006H88.291V8.97803H90.7922V13.9687H91.9752L96.1257 8.97803H99.2632L94.0012 14.9898L99.6574 21.3006H96.4128L91.9486 16.2308H90.7922Z" fill="#111111"/>
<path fill-rule="evenodd" clip-rule="evenodd" d="M104.898 16.31V21.3009H102.396V8.97803H111.612V11.2401H104.898V14.048H111.191V16.31H104.898Z" fill="#111111"/>
<path fill-rule="evenodd" clip-rule="evenodd" d="M120.496 21.5192C117.304 21.5192 115.09 19.7853 115.09 16.3788V8.97656H117.6V16.2556C117.6 18.2714 118.774 19.1692 120.496 19.1692C122.217 19.1692 123.391 18.2714 123.391 16.2556V8.97656H125.901V16.3788C125.901 19.7853 123.687 21.5192 120.496 21.5192Z" fill="#111111"/>
<path fill-rule="evenodd" clip-rule="evenodd" d="M129.947 21.2993V8.97656H132.448V19.0019H139.082V21.2993H129.947Z" fill="#111111"/>
</g>
<defs>
<clipPath id="clip0_2097_12734">
<rect width="140" height="30" fill="white"/>
</clipPath>
</defs>
</svg>
