<svg width="135" height="27" viewBox="0 0 135 27" fill="none" xmlns="http://www.w3.org/2000/svg">
<g clip-path="url(#clip0_2400_1302)">
<path d="M26.5898 26.0176V0.0644531H31.5477V26.0176H26.5898Z" fill="white"/>
<path d="M42.9414 26.5621C37.145 26.5621 33.1714 22.2789 33.1714 16.7253C33.1714 11.1717 37.145 6.8885 42.9414 6.8885C48.7378 6.8885 52.7115 11.1717 52.7115 16.7253C52.7115 22.2789 48.7378 26.5621 42.9414 26.5621ZM42.9414 22.7871C45.9672 22.7871 47.6806 20.3551 47.6806 16.7253C47.6806 13.0955 45.9672 10.6272 42.9414 10.6272C39.8792 10.6272 38.2022 13.0955 38.2022 16.7253C38.2022 20.3551 39.8792 22.7871 42.9414 22.7871Z" fill="white"/>
<path d="M62.9634 26.5621C57.0576 26.5621 53.3756 22.2789 53.3756 16.7253C53.3756 11.1717 57.0212 6.8885 62.7082 6.8885C67.5568 6.8885 70.5461 9.68346 71.2023 13.7126H66.3538C66.0257 12.0791 64.7497 10.845 62.9269 10.845C59.9376 10.845 58.4065 13.1318 58.4065 16.7253C58.4065 20.2462 59.8282 22.6056 62.854 22.6056C64.8591 22.6056 66.2808 21.5529 66.6089 19.4477H71.3846C71.0565 23.4042 67.9578 26.5621 62.9634 26.5621Z" fill="white"/>
<path d="M85.1399 26.0176L79.8904 17.5239L77.7395 19.738V26.0176H72.818V0.0644531H77.7395V14.4385L84.3744 7.39668H90.3166L83.4266 14.4748L91.1551 26.0176H85.1399Z" fill="white"/>
<path d="M103.231 26.0176C102.939 25.6546 102.757 24.7835 102.648 23.9486H102.575C101.627 25.3643 100.278 26.4532 97.07 26.4532C93.2422 26.4532 90.5445 24.4568 90.5445 20.7544C90.5445 16.6527 93.8984 15.346 98.0543 14.7652C101.153 14.3296 102.575 14.0755 102.575 12.6599C102.575 11.3169 101.518 10.4457 99.4396 10.4457C97.1064 10.4457 95.9763 11.2806 95.8305 13.0592H91.4194C91.5652 9.79235 94.0077 6.9248 99.476 6.9248C105.09 6.9248 107.35 9.42937 107.35 13.7851V23.259C107.35 24.6746 107.569 25.5094 108.007 25.8361V26.0176H103.231ZM98.273 23.0049C101.117 23.0049 102.684 21.2626 102.684 19.4477V16.6527C101.809 17.1609 100.46 17.4513 99.2208 17.7416C96.6325 18.3224 95.3566 18.9032 95.3566 20.6455C95.3566 22.3878 96.5231 23.0049 98.273 23.0049Z" fill="white"/>
<path d="M109.773 26.0176V7.39668H114.731V26.0176H109.773ZM109.773 4.49282V0.0644531H114.731V4.49282H109.773Z" fill="white"/>
<path d="M124.196 26.5621C119.493 26.5621 116.285 22.7508 116.285 16.7253C116.285 10.9176 119.603 6.8885 124.269 6.8885C126.894 6.8885 128.534 8.08634 129.555 9.64716H129.664V0.0644531H134.622V26.0176H129.847V23.5856H129.774C128.68 25.3643 126.821 26.5621 124.196 26.5621ZM125.29 22.4241C128.243 22.4241 129.774 20.2462 129.774 16.8342C129.774 13.277 128.607 10.8813 125.436 10.8813C122.702 10.8813 121.316 13.277 121.316 16.7253C121.316 20.3188 122.738 22.4241 125.29 22.4241Z" fill="white"/>
<path fill-rule="evenodd" clip-rule="evenodd" d="M18.8381 4.30016H1.02071V0.0701302H18.8381C22.1734 0.0701302 24.8772 2.76317 24.8772 6.08521C24.8772 9.40725 22.1734 12.1003 18.8381 12.1003H5.91687C5.42284 12.1003 5.02235 12.4992 5.02235 12.9912C5.02235 13.4833 5.42284 13.8822 5.91687 13.8822H18.8386C22.1737 13.8822 24.8772 16.575 24.8772 19.8967C24.8772 23.2185 22.1737 25.9113 18.8386 25.9113H1.02071V21.6813H18.8386C19.8281 21.6813 20.6303 20.8823 20.6303 19.8967C20.6303 18.9112 19.8281 18.1122 18.8386 18.1122H5.91687C3.07731 18.1122 0.775391 15.8195 0.775391 12.9912C0.775391 10.163 3.07731 7.87027 5.91687 7.87027H18.8381C19.8279 7.87027 20.6303 7.07107 20.6303 6.08521C20.6303 5.09935 19.8279 4.30016 18.8381 4.30016Z" fill="white"/>
</g>
<defs>
<clipPath id="clip0_2400_1302">
<rect width="133.847" height="26.4976" fill="white" transform="translate(0.775391 0.0644531)"/>
</clipPath>
</defs>
</svg>
