<svg width="130" height="40" viewBox="0 0 130 40" fill="none" xmlns="http://www.w3.org/2000/svg">
<g clip-path="url(#clip0_2400_1367)">
<path fill-rule="evenodd" clip-rule="evenodd" d="M13.0837 7.13086C13.0881 1.657 19.6785 -1.10282 23.5736 2.73809C27.5014 6.61135 24.7646 13.3049 19.2517 13.3081L16.7662 13.3095L16.7636 16.6551L20.2041 16.6551L20.2041 20.3473L16.7606 20.3473L16.7569 24.9748C16.7506 32.8976 6.72967 36.3214 1.88786 30.0551C-2.33369 24.5915 1.55552 16.6551 8.4545 16.6551H13.0761L13.0788 13.3117L9.46731 13.3138L9.46517 9.6216L13.0817 9.6195L13.0837 7.13086ZM16.7692 9.61735L19.2495 9.61591C21.4647 9.61462 22.5644 6.92506 20.9861 5.36871C19.421 3.82537 16.7729 4.93432 16.7711 7.1338L16.7692 9.61735ZM13.0732 20.3473H8.4545C4.61962 20.3473 2.45776 24.7588 4.80436 27.7958C7.49574 31.279 13.066 29.3759 13.0695 24.9719L13.0732 20.3473Z" fill="white"/>
<path d="M22.5755 33.0326V16.5508H26.7571V33.0326H22.5755Z" fill="white"/>
<path d="M29.4487 33.0326V16.5508H33.5639V18.7107H34.1613C34.4268 18.1347 34.9246 17.592 35.6547 17.0824C36.3848 16.5508 37.491 16.2849 38.9734 16.2849C40.2566 16.2849 41.3739 16.584 42.3253 17.1821C43.2988 17.7581 44.051 18.5667 44.582 19.6079C45.113 20.6269 45.3785 21.8232 45.3785 23.1967V33.0326H41.1969V23.529C41.1969 22.2884 40.8872 21.358 40.2677 20.7377C39.6703 20.1174 38.8075 19.8073 37.6791 19.8073C36.3959 19.8073 35.4003 20.2392 34.6923 21.1032C33.9843 21.945 33.6303 23.1302 33.6303 24.6588V33.0326H29.4487Z" fill="white"/>
<path d="M53.6822 33.4978C52.5096 33.4978 51.4587 33.2984 50.5294 32.8997C49.6002 32.4788 48.859 31.8806 48.3059 31.1053C47.7749 30.3078 47.5094 29.3441 47.5094 28.2143C47.5094 27.0845 47.7749 26.143 48.3059 25.3898C48.859 24.6145 49.6113 24.0385 50.5626 23.6619C51.5361 23.2631 52.6424 23.0637 53.8813 23.0637H58.3948V22.1333C58.3948 21.358 58.1514 20.7266 57.6646 20.2392C57.1779 19.7297 56.4035 19.475 55.3416 19.475C54.3017 19.475 53.5273 19.7186 53.0185 20.206C52.5096 20.6712 52.1777 21.2804 52.0229 22.0336L48.1732 20.7377C48.4387 19.8959 48.859 19.1316 49.4343 18.4448C50.0316 17.736 50.8171 17.171 51.7906 16.7501C52.7862 16.3071 53.992 16.0855 55.4079 16.0855C57.5761 16.0855 59.2908 16.6283 60.5519 17.7138C61.813 18.7993 62.4436 20.3722 62.4436 22.4324V28.5798C62.4436 29.2444 62.7533 29.5767 63.3728 29.5767H64.7003V33.0326H61.9126C61.094 33.0326 60.4192 32.8332 59.8882 32.4345C59.3572 32.0357 59.0917 31.504 59.0917 30.8394V30.8062H58.4611C58.3726 31.072 58.1735 31.4265 57.8638 31.8696C57.554 32.2905 57.0673 32.6671 56.4035 32.9994C55.7398 33.3316 54.8327 33.4978 53.6822 33.4978ZM54.4123 30.1084C55.5849 30.1084 56.5363 29.7872 57.2664 29.1447C58.0186 28.4802 58.3948 27.6051 58.3948 26.5196V26.1873H54.18C53.4056 26.1873 52.7972 26.3535 52.3547 26.6858C51.9122 27.0181 51.691 27.4833 51.691 28.0814C51.691 28.6795 51.9233 29.1669 52.3879 29.5435C52.8525 29.9201 53.5273 30.1084 54.4123 30.1084Z" fill="white"/>
<path d="M66.4301 33.0326V9.77195H70.6117V33.0326H66.4301Z" fill="white"/>
<path d="M81.7501 33.4978C80.1129 33.4978 78.6416 33.1655 77.3362 32.5009C76.0308 31.8363 75.0021 30.8727 74.2498 29.6099C73.4976 28.3472 73.1215 26.8298 73.1215 25.0575V24.5258C73.1215 22.7536 73.4976 21.2361 74.2498 19.9734C75.0021 18.7107 76.0308 17.747 77.3362 17.0824C78.6416 16.4178 80.1129 16.0855 81.7501 16.0855C83.3873 16.0855 84.8586 16.4178 86.1639 17.0824C87.4693 17.747 88.4981 18.7107 89.2503 19.9734C90.0026 21.2361 90.3787 22.7536 90.3787 24.5258V25.0575C90.3787 26.8298 90.0026 28.3472 89.2503 29.6099C88.4981 30.8727 87.4693 31.8363 86.1639 32.5009C84.8586 33.1655 83.3873 33.4978 81.7501 33.4978ZM81.7501 29.7761C83.0333 29.7761 84.0953 29.3663 84.936 28.5466C85.7767 27.7048 86.1971 26.5085 86.1971 24.9578V24.6255C86.1971 23.0748 85.7767 21.8896 84.936 21.07C84.1174 20.2282 83.0554 19.8073 81.7501 19.8073C80.4668 19.8073 79.4049 20.2282 78.5641 21.07C77.7234 21.8896 77.303 23.0748 77.303 24.6255V24.9578C77.303 26.5085 77.7234 27.7048 78.5641 28.5466C79.4049 29.3663 80.4668 29.7761 81.7501 29.7761Z" fill="white"/>
<path d="M100.743 33.4978C99.1059 33.4978 97.6346 33.1655 96.3293 32.5009C95.0239 31.8363 93.9951 30.8727 93.2429 29.6099C92.4906 28.3472 92.1145 26.8298 92.1145 25.0575V24.5258C92.1145 22.7536 92.4906 21.2361 93.2429 19.9734C93.9951 18.7107 95.0239 17.747 96.3293 17.0824C97.6346 16.4178 99.1059 16.0855 100.743 16.0855C102.38 16.0855 103.852 16.4178 105.157 17.0824C106.462 17.747 107.491 18.7107 108.243 19.9734C108.996 21.2361 109.372 22.7536 109.372 24.5258V25.0575C109.372 26.8298 108.996 28.3472 108.243 29.6099C107.491 30.8727 106.462 31.8363 105.157 32.5009C103.852 33.1655 102.38 33.4978 100.743 33.4978ZM100.743 29.7761C102.026 29.7761 103.088 29.3663 103.929 28.5466C104.77 27.7048 105.19 26.5085 105.19 24.9578V24.6255C105.19 23.0748 104.77 21.8896 103.929 21.07C103.11 20.2282 102.048 19.8073 100.743 19.8073C99.4599 19.8073 98.3979 20.2282 97.5572 21.07C96.7164 21.8896 96.2961 23.0748 96.2961 24.6255V24.9578C96.2961 26.5085 96.7164 27.7048 97.5572 28.5466C98.3979 29.3663 99.4599 29.7761 100.743 29.7761Z" fill="white"/>
<path d="M111.904 39.6785V16.5508H116.019V18.5445H116.617C116.993 17.9021 117.579 17.3372 118.375 16.8498C119.172 16.3403 120.311 16.0855 121.794 16.0855C123.121 16.0855 124.349 16.4178 125.478 17.0824C126.606 17.7249 127.513 18.6774 128.199 19.9402C128.885 21.2029 129.228 22.7314 129.228 24.5258V25.0575C129.228 26.8519 128.885 28.3805 128.199 29.6432C127.513 30.9059 126.606 31.8696 125.478 32.5341C124.349 33.1766 123.121 33.4978 121.794 33.4978C120.798 33.4978 119.957 33.376 119.272 33.1323C118.608 32.9107 118.066 32.6228 117.645 32.2683C117.247 31.8917 116.926 31.5151 116.683 31.1385H116.086V39.6785H111.904ZM120.533 29.8426C121.838 29.8426 122.911 29.4327 123.752 28.6131C124.615 27.7713 125.046 26.5528 125.046 24.9578V24.6255C125.046 23.0305 124.615 21.8232 123.752 21.0035C122.889 20.1617 121.816 19.7408 120.533 19.7408C119.249 19.7408 118.176 20.1617 117.314 21.0035C116.451 21.8232 116.019 23.0305 116.019 24.6255V24.9578C116.019 26.5528 116.451 27.7713 117.314 28.6131C118.176 29.4327 119.249 29.8426 120.533 29.8426Z" fill="white"/>
</g>
<defs>
<clipPath id="clip0_2400_1367">
<rect width="129.091" height="38.7273" fill="white" transform="translate(0.136719 0.951172)"/>
</clipPath>
</defs>
</svg>
