<svg width="197" height="49" viewBox="0 0 197 49" fill="none" xmlns="http://www.w3.org/2000/svg">
<mask id="mask0_2097_12672" style="mask-type:luminance" maskUnits="userSpaceOnUse" x="0" y="0" width="197" height="49">
<path d="M196.144 0.544922H0.46875V48.7842H196.144V0.544922Z" fill="white"/>
</mask>
<g mask="url(#mask0_2097_12672)">
<path d="M73.0862 15.146V27.3543C73.0862 28.5046 73.2262 29.3766 73.497 29.9611C73.9732 30.9908 74.9257 31.501 76.3357 31.501C78.1378 31.501 79.3704 30.7681 80.0427 29.3024C80.3882 28.5046 80.5563 27.4656 80.5563 26.1576V15.146H85.9161V35.4065H80.7804V32.5493C80.7337 32.6049 80.603 32.7998 80.4069 33.1059C80.2108 33.4213 79.9773 33.6903 79.7066 33.9222C78.8755 34.6644 78.0725 35.1746 77.2974 35.4529C76.5318 35.7219 75.626 35.8611 74.5895 35.8611C71.6015 35.8611 69.5846 34.785 68.5481 32.6235C67.9691 31.4268 67.6797 29.6735 67.6797 27.3636V15.146H73.0862Z" fill="#111111"/>
<path d="M99.9393 14.6543C102.031 14.6543 103.73 15.2109 105.056 16.3056C106.391 17.3909 107.054 19.2092 107.054 21.751V35.3972H101.648V23.0776C101.648 22.0108 101.508 21.1944 101.218 20.6285C100.695 19.5895 99.7152 19.07 98.2492 19.07C96.4564 19.07 95.2238 19.8307 94.5609 21.3614C94.2154 22.1685 94.038 23.1982 94.038 24.4506V35.4157H88.7715V15.1738H93.8699V18.1331C94.5515 17.0941 95.1865 16.3427 95.7934 15.8881C96.8953 15.0717 98.2772 14.6543 99.9393 14.6543Z" fill="#111111"/>
<path d="M115.067 8.00293H109.791V35.4065H115.067V8.00293Z" fill="#111111"/>
<path d="M135.888 22.725C135.655 21.1387 135.141 19.7472 134.348 18.5412C133.47 17.1775 132.359 16.1849 131.014 15.5448C129.67 14.914 128.157 14.5986 126.476 14.5986C123.647 14.5986 121.34 15.5355 119.566 17.4094C117.801 19.2834 116.914 21.9736 116.914 25.471C116.914 29.2095 117.895 31.9183 119.856 33.5789C121.817 35.2394 124.086 36.0651 126.654 36.0651C129.772 36.0651 132.191 35.0817 133.918 33.1058C135.029 31.8627 135.655 30.6474 135.786 29.4414H130.398C130.118 30.0351 129.791 30.499 129.418 30.833C128.736 31.4545 127.858 31.7606 126.766 31.7606C125.738 31.7606 124.861 31.5102 124.132 30.9999C122.928 30.1836 122.302 28.755 122.228 26.7233H136.047C136.085 24.9886 136.029 23.6527 135.888 22.725ZM122.368 23.2445C122.545 21.9272 122.965 20.8882 123.628 20.1183C124.31 19.3483 125.262 18.9679 126.485 18.9679C127.606 18.9679 128.549 19.339 129.296 20.0626C130.062 20.7769 130.482 21.8437 130.575 23.2445H122.368Z" fill="#111111"/>
<path d="M155.219 34.015C155.041 33.7645 154.939 33.3007 154.901 32.6049C154.883 31.6865 154.864 30.9073 154.864 30.2672V20.9626C154.864 18.5228 154.005 16.8622 152.287 15.981C150.569 15.0997 148.608 14.6636 146.395 14.6636C142.996 14.6636 140.605 15.5542 139.205 17.3354C138.327 18.4764 137.832 19.9329 137.72 21.7047H142.818C142.94 20.9255 143.192 20.3039 143.556 19.8401C144.079 19.2185 144.957 18.9124 146.208 18.9124C147.319 18.9124 148.159 19.0701 148.729 19.3948C149.308 19.7102 149.597 20.2761 149.597 21.111C149.597 21.7975 149.224 22.2892 148.468 22.6139C148.047 22.7994 147.347 22.9571 146.376 23.0777L144.574 23.3003C142.538 23.5601 140.988 23.9961 139.942 24.5991C138.028 25.7123 137.066 27.512 137.066 30.0075C137.066 31.9277 137.664 33.412 138.84 34.4696C140.045 35.5086 141.548 36.0281 143.379 36.0281C144.817 36.0281 146.096 35.7034 147.235 35.0447C148.187 34.4881 149.028 33.8109 149.756 33.0224C149.794 33.4862 149.84 33.8944 149.906 34.2469C149.962 34.6087 150.083 34.9891 150.242 35.3973H155.984V34.618C155.648 34.4603 155.396 34.2562 155.219 34.015ZM149.588 27.5213C149.551 29.2931 149.056 30.5177 148.085 31.1856C147.132 31.8535 146.086 32.1875 144.957 32.1875C144.247 32.1875 143.631 31.9927 143.126 31.5938C142.632 31.1856 142.389 30.527 142.389 29.6271C142.389 28.6067 142.8 27.8552 143.612 27.3821C144.088 27.0945 144.891 26.8533 146.002 26.6585L147.188 26.4359C147.786 26.3246 148.243 26.204 148.58 26.0834C148.925 25.9442 149.271 25.768 149.597 25.5639V27.5213H149.588Z" fill="#111111"/>
<path d="M161.961 28.9406C162.073 29.8775 162.316 30.5455 162.68 30.9444C163.334 31.6494 164.548 32.0019 166.313 32.0019C167.349 32.0019 168.171 31.8442 168.778 31.5381C169.394 31.2227 169.702 30.7588 169.702 30.1466C169.702 29.5528 169.459 29.0983 168.964 28.7921C168.47 28.4767 166.639 27.948 163.465 27.1965C161.177 26.6307 159.561 25.9163 158.628 25.0536C157.694 24.2094 157.218 22.9942 157.218 21.4078C157.218 19.5339 157.946 17.929 159.403 16.5932C160.878 15.2388 162.942 14.5708 165.594 14.5708C168.115 14.5708 170.169 15.0811 171.747 16.1015C173.344 17.1034 174.259 18.8474 174.492 21.3243H169.217C169.142 20.6379 168.946 20.0998 168.647 19.7009C168.068 18.9866 167.078 18.6248 165.678 18.6248C164.529 18.6248 163.707 18.801 163.212 19.1628C162.736 19.5246 162.493 19.9421 162.493 20.4245C162.493 21.0275 162.755 21.4728 163.278 21.7418C163.791 22.0294 165.631 22.521 168.787 23.2075C170.888 23.7085 172.466 24.4506 173.512 25.4525C174.548 26.4729 175.071 27.7439 175.071 29.2653C175.071 31.269 174.324 32.911 172.83 34.1912C171.346 35.4529 169.048 36.093 165.939 36.093C162.764 36.093 160.42 35.425 158.898 34.0892C157.395 32.7348 156.639 31.0186 156.639 28.9406H161.961Z" fill="#111111"/>
<path d="M187.837 14.6173C189.088 14.6173 190.218 14.8399 191.226 15.2666C192.253 15.7027 193.094 16.3613 193.747 17.2612C194.308 18.0126 194.644 18.8011 194.765 19.5989C194.887 20.3967 194.952 21.6955 194.952 23.5044V35.3973H189.555V23.0777C189.555 21.9923 189.368 21.111 188.995 20.4431C188.518 19.5061 187.594 19.033 186.249 19.033C184.849 19.033 183.784 19.5061 183.065 20.4431C182.355 21.3708 181.991 22.7066 181.991 24.4414V35.4066H176.725V8.0957H181.991V17.7807C182.757 16.6025 183.635 15.7861 184.643 15.3316C185.661 14.8585 186.726 14.6173 187.837 14.6173Z" fill="#111111"/>
<path d="M2.51414 36.3251L11.745 27.0667H0.46875V22.0758H11.7448L2.51414 12.8177L6.03442 9.29246L15.2685 18.5541V0.544434H20.2455V18.5409L37.6703 1.06406L41.1906 4.58925L23.756 22.0758H57.4283V27.0667H23.7558L41.1813 44.5443L37.661 48.0694L20.2455 30.6019V48.7837H15.2685V30.5887L6.03442 39.8503L2.51414 36.3251Z" fill="#111111"/>
</g>
</svg>
