<svg width="124" height="33" viewBox="0 0 124 33" fill="none" xmlns="http://www.w3.org/2000/svg">
<g clip-path="url(#clip0_2097_12722)">
<mask id="mask0_2097_12722" style="mask-type:luminance" maskUnits="userSpaceOnUse" x="0" y="0" width="124" height="33">
<path d="M123.049 0.630859H0.751953V32.564H123.049V0.630859Z" fill="white"/>
</mask>
<g mask="url(#mask0_2097_12722)">
<path d="M67.517 28.7559H70.6787V7.42139H67.517V20.1303C67.517 24.0761 64.9598 26.3701 60.8681 26.3701C56.451 26.3701 55.1027 23.2961 55.1027 20.1303V7.42139H51.8945V20.8644C51.8945 25.4066 53.8008 29.2606 59.7522 29.2606C63.6114 29.2606 66.5406 27.196 67.4705 23.0667H67.517V28.7559Z" fill="#111111"/>
<path d="M76.5458 22.5158C76.5458 26.4616 78.4986 29.2603 82.8228 29.2603C84.6361 29.2603 85.845 29.0309 87.2863 28.5721L86.8214 25.6816C85.566 26.0487 84.5896 26.2322 83.3807 26.2322C80.7769 26.2322 79.754 24.9016 79.754 22.2405V10.2198H87.0539V7.421H79.754V1.31885H76.5458V7.421H73.0586V10.2198H76.5458V22.5158Z" fill="#111111"/>
<path d="M93.7689 3.75076V0.630859H89.8633V3.75076H93.7689ZM93.4435 28.7558V7.42122H90.2353V28.7558H93.4435Z" fill="#111111"/>
<path d="M101.423 0.630859H98.2148V28.7558H101.423V0.630859Z" fill="#111111"/>
<path d="M112.634 26.5077C109.24 26.5077 108.031 24.7183 108.031 22.9748C108.031 20.7267 109.705 19.5338 112.727 19.5338H119.887V20.9102C119.887 24.1219 117.144 26.5077 112.634 26.5077ZM119.887 28.7558H123.049V15.4504C123.049 9.99054 120.492 6.9624 114.68 6.9624C109.379 6.9624 106.311 9.62349 105.567 14.7622L108.635 15.2669C109.286 11.3211 111.146 9.71525 114.587 9.71525C118.492 9.71525 119.887 11.7799 119.887 15.5421V16.9645H112.402C107.333 16.9645 104.869 19.7173 104.869 23.2501C104.869 27.2418 107.566 29.2146 111.937 29.2146C115.749 29.2146 118.818 27.2876 119.841 23.2501H119.887V28.7558Z" fill="#111111"/>
<path d="M24.5176 26.5689C24.4825 26.6044 24.4473 26.6396 24.4121 26.6744C23.9637 27.1202 22.1795 28.8635 20.8897 29.6813C14.1849 33.9324 8.94438 33.307 4.646 28.9516C-1.50232 22.7218 0.223254 16.232 5.69773 10.685L13.406 2.87451L19.2823 8.82869L13.1459 15.0464C10.0563 18.1769 8.70642 22.3013 12.6784 26.3259C16.3964 30.0932 20.8 30.246 24.4121 26.6744C24.4803 26.6067 24.5176 26.5689 24.5176 26.5689Z" fill="#111111"/>
<path d="M19.2344 8.82794C19.2695 8.79241 19.3046 8.75722 19.3398 8.72239C19.7882 8.27658 21.5724 6.53326 22.8623 5.71547C29.567 1.46446 34.8075 2.08983 39.1059 6.44521C45.2542 12.6751 43.5287 19.1648 38.0542 24.7119L30.3459 32.5223L24.4697 26.5682L30.606 20.3504C33.6956 17.2199 35.0455 13.0955 31.0736 9.07093C27.3555 5.30361 22.9519 5.15085 19.3398 8.72239C19.2717 8.79016 19.2344 8.82794 19.2344 8.82794Z" fill="#111111"/>
</g>
</g>
<defs>
<clipPath id="clip0_2097_12722">
<rect width="124" height="33" fill="white"/>
</clipPath>
</defs>
</svg>
