<svg width="154" height="26" viewBox="0 0 154 26" fill="none" xmlns="http://www.w3.org/2000/svg">
<mask id="mask0_2400_1622" style="mask-type:luminance" maskUnits="userSpaceOnUse" x="14" y="1" width="125" height="25">
<path d="M138.831 1.11719H14.4326V25.1227H138.831V1.11719Z" fill="white"/>
</mask>
<g mask="url(#mask0_2400_1622)">
<path d="M23.8321 7.95501C21.8594 7.95501 19.9834 8.7082 18.5522 10.0601V1.54324H14.4326V24.699C15.9799 24.699 17.3917 23.8299 18.088 22.4588C19.5579 24.0424 21.5886 25.008 23.8321 25.008C28.2805 25.008 31.8778 21.1841 31.8778 16.4719C31.8778 11.7596 28.2611 7.95501 23.8321 7.95501ZM23.3099 21.2421C21.3759 21.2421 19.6352 20.0833 18.9003 18.2872C18.1654 16.5105 18.5715 14.444 19.9447 13.0922C21.3179 11.721 23.368 11.3154 25.1473 12.0493C26.9266 12.7832 28.0871 14.5213 28.0871 16.4525C28.0871 17.7272 27.5842 18.9246 26.6945 19.8322C25.8049 20.7399 24.5864 21.2421 23.3099 21.2421ZM34.1987 20.5854C34.1987 21.6669 34.6242 22.7098 35.3978 23.4823C36.1714 24.2548 37.2158 24.6797 38.2989 24.6797V1.54324H34.1794V20.5854H34.1987ZM96.2046 8.26401V24.699H100.324V12.3776C100.324 10.0987 98.4868 8.26401 96.2046 8.26401ZM68.1801 21.2614C65.9366 21.2614 64.0025 19.7164 63.519 17.534H76.6706C77.2315 12.9956 74.1177 8.82408 69.6113 8.07089C65.105 7.29838 60.792 10.2339 59.825 14.6951C58.858 19.1563 61.585 23.5982 66.014 24.7569C70.443 25.9157 74.988 23.3858 76.3418 19.0211H72.2223C71.352 20.4116 69.8241 21.2614 68.1801 21.2614ZM68.1801 11.7017C70.0175 11.7017 71.6808 12.7445 72.4737 14.3861H63.8672C64.6795 12.7445 66.3428 11.7017 68.1801 11.7017ZM130.225 21.2614C127.981 21.2614 126.047 19.7164 125.564 17.534H138.715C139.276 12.9956 136.162 8.84339 131.656 8.07089C127.15 7.3177 122.837 10.2339 121.889 14.6951C120.922 19.1563 123.649 23.5789 128.078 24.7376C132.507 25.8964 137.052 23.3664 138.406 19.0018H134.286C133.397 20.4116 131.869 21.2614 130.225 21.2614ZM130.225 11.7017C132.062 11.7017 133.725 12.7445 134.538 14.3861H125.931C126.724 12.7445 128.387 11.7017 130.225 11.7017ZM85.5866 19.2336L81.3124 8.2447H77.0381L83.4398 24.6797H87.7334L94.1352 8.2447H89.8609L85.5866 19.2336ZM53.1138 17.592C53.1331 18.5769 52.7463 19.5232 52.0694 20.2185C51.3731 20.9137 50.4448 21.3193 49.4584 21.3193C48.4721 21.3193 47.5437 20.9331 46.8474 20.2185C46.1512 19.5232 45.7837 18.5769 45.8031 17.592V8.2447H41.6835V18.3452C41.6835 21.1841 43.4822 23.7141 46.1705 24.6411C48.8589 25.5681 51.8373 24.699 53.5973 22.4781C54.3129 23.8299 55.7054 24.6797 57.2333 24.6797V8.2447H53.1138V17.592ZM112.605 7.91639C110.555 7.91639 108.641 8.84339 107.364 10.4463C106.649 9.09446 105.256 8.2447 103.728 8.2447V24.6797H107.848V15.3324C107.828 14.3475 108.215 13.4012 108.892 12.7059C109.588 12.0107 110.517 11.6051 111.503 11.6051C112.489 11.6051 113.418 11.9913 114.114 12.7059C114.81 13.4012 115.178 14.3475 115.158 15.3324V24.6797H119.278V14.5792C119.278 12.8025 118.582 11.1223 117.325 9.86696C116.067 8.63095 114.365 7.91639 112.605 7.91639ZM96.2046 6.10101C96.2046 6.29413 96.224 6.48726 96.2433 6.68038C97.7519 6.87351 99.2798 6.33276 100.363 5.27056C101.446 4.18906 101.968 2.68268 101.794 1.15699C100.382 0.983175 98.951 1.42736 97.8873 2.37368C96.8235 3.31999 96.2046 4.67188 96.2046 6.10101Z" fill="white"/>
</g>
</svg>
