<svg width="221" height="37" viewBox="0 0 221 37" fill="none" xmlns="http://www.w3.org/2000/svg">
<g clip-path="url(#clip0_2097_12311)">
<mask id="mask0_2097_12311" style="mask-type:luminance" maskUnits="userSpaceOnUse" x="0" y="0" width="221" height="37">
<path d="M220.871 0H0V36.4117H220.871V0Z" fill="white"/>
</mask>
<g mask="url(#mask0_2097_12311)">
<path d="M20.7324 8.5804C24.3983 6.01132 26.702 5.03821 31.0007 3.72859C31.0007 3.72859 31.77 3.48667 32.2731 3.3711C33.4906 3.09142 34.3931 3.03877 35.4533 3.02232C36.96 2.99943 38.3314 3.44147 39.2723 4.73345C41.438 7.70171 43.5954 10.6755 45.7447 13.6547C45.8876 13.843 45.975 14.0681 45.9966 14.3043C46.0351 15.0138 46.0091 15.7255 45.9188 16.4305C45.5851 18.1869 44.9474 19.871 44.0348 21.4061C41.4192 25.8883 38.117 29.9269 34.2506 33.3724C33.3689 34.1816 32.2229 35.1631 31.2586 36.0115L25.2701 27.4207L28.6115 24.3768C32.615 20.5003 38.6208 14.2534 40.914 9.11831C39.7182 9.50143 35.8552 11.5192 34.6924 11.9989C33.0423 12.6777 27.9815 15.5938 26.3678 16.3322C26.3678 16.3322 22.9331 11.6076 20.7324 8.5804Z" fill="#111111"/>
<path d="M25.2815 27.4312C21.6155 30.0002 19.3119 30.9733 15.0132 32.283C15.0132 32.283 14.2438 32.5249 13.7408 32.6404C12.5233 32.9201 11.6208 32.9728 10.5605 32.9892C9.05389 33.0121 7.68249 32.5701 6.74155 31.2781C4.57585 28.3098 2.41842 25.3361 0.269207 22.3568C0.126256 22.1686 0.0388827 21.9434 0.0172471 21.7072C-0.0212738 20.9977 0.00476364 20.286 0.0950402 19.581C0.428751 17.8247 1.0665 16.1405 1.97906 14.6054C4.59463 10.1233 7.89683 6.08461 11.7632 2.63912C12.645 1.82998 13.7909 0.848458 14.7553 0L20.7438 8.59085L17.4023 11.6347C13.3989 15.5112 7.39309 21.7582 5.09985 26.8932C6.2957 26.5101 10.1586 24.4923 11.3215 24.0127C12.9716 23.3338 18.0324 20.4177 19.6461 19.6794C19.6461 19.6794 23.0807 24.4039 25.2815 27.4312Z" fill="#111111"/>
<path d="M63.2111 28.3731C57.5952 28.3731 54.459 24.2523 54.459 18.8916C54.459 13.5309 57.5952 9.41016 63.2111 9.41016C67.3684 9.41016 70.3223 11.8534 70.6869 15.7919H67.2225C66.8943 13.7862 65.4356 12.3275 63.357 12.3275H63.0653C59.5644 12.3275 57.9234 15.4272 57.9234 18.8916C57.9234 22.356 59.5644 25.4557 63.0653 25.4557H63.357C65.4356 25.4557 66.8943 23.997 67.2225 21.9913H70.6869C70.3223 25.9298 67.3684 28.3731 63.2111 28.3731Z" fill="#111111"/>
<path d="M76.2378 28.0085H72.7734V2.48145H76.2378V12.3276C77.3318 10.6866 79.1552 9.41024 82.0726 9.41024C86.2663 9.41024 88.6367 11.9629 88.6367 15.792V28.0085H85.1723V16.5213C85.1723 13.9686 84.0783 12.3276 81.4891 12.3276H81.1974C78.6082 12.3276 76.2378 14.3333 76.2378 17.7977V28.0085Z" fill="#111111"/>
<path d="M96.6636 28.3731C93.1993 28.3731 90.6465 26.0757 90.6465 22.9759C90.6465 18.8187 94.3297 17.5788 97.2836 17.3235L102.316 16.9224V16.3389C102.316 13.7862 100.857 12.3275 98.5235 12.3275H98.2317C96.3354 12.3275 94.6944 13.2392 94.4756 15.0625H91.0112C91.23 11.7075 94.2568 9.41016 98.3776 9.41016C103.228 9.41016 105.781 12.6192 105.781 16.3389V23.997C105.781 25.091 105.781 26.7321 105.963 28.0084H102.681C102.499 27.0967 102.499 25.2734 102.499 25.091C101.769 26.7321 99.581 28.3731 96.6636 28.3731ZM97.0648 25.4557H97.3565C99.581 25.4557 102.316 23.6323 102.316 21.4443V19.5845L97.7577 19.9492C95.6426 20.1315 94.1109 21.1526 94.1109 22.8301C94.1109 24.3252 95.3508 25.4557 97.0648 25.4557Z" fill="#111111"/>
<path d="M112.354 28.0087H108.889V9.7751H112.171V13.7865C112.901 11.0514 115.089 9.59277 117.459 9.59277H119.1V12.9477H117.641C114.359 12.9477 112.354 15.1358 112.354 18.7825V28.0087Z" fill="#111111"/>
<path d="M126.951 36.0312C121.845 36.0312 118.855 33.6609 118.49 30.3788H121.955C122.319 32.2022 124.289 33.1138 126.768 33.1138H127.133C130.233 33.1138 132.421 31.4728 132.421 27.6437V25.091C131.509 26.5497 129.686 28.0084 126.951 28.0084C122.757 28.0084 118.855 25.091 118.855 18.7093C118.855 12.3275 122.648 9.41016 126.951 9.41016C129.686 9.41016 131.691 10.8688 132.421 12.3275V9.77483H135.885V28.0084C135.885 32.5668 132.603 36.0312 126.951 36.0312ZM127.097 25.091H127.388C129.905 25.091 132.421 22.7207 132.421 18.7093C132.421 14.6979 130.087 12.3275 127.571 12.3275H127.279C124.69 12.3275 122.319 14.1509 122.319 18.7093C122.319 23.2677 124.507 25.091 127.097 25.091Z" fill="#111111"/>
<path d="M146.676 28.3731C142.155 28.3731 138.07 25.2369 138.07 18.8551C138.07 12.5463 142.264 9.41016 146.567 9.41016C151.308 9.41016 154.298 12.6922 154.298 17.4329V19.4386H141.535C141.753 23.5959 144.416 25.4557 146.64 25.4557H146.932C148.719 25.4557 150.433 24.544 150.797 22.6113H154.262C153.605 26.2945 150.433 28.3731 146.676 28.3731ZM141.753 16.7036H150.834C150.688 13.5309 148.792 12.3275 146.713 12.3275H146.421C144.525 12.3275 142.41 13.458 141.753 16.7036Z" fill="#111111"/>
<path d="M161.859 28.0085H158.394V12.7652H154.383V9.77491H158.394V6.31052C158.394 3.75781 159.671 2.48145 162.223 2.48145H174.075V28.0085H170.611V5.50824H163.317C162.223 5.50824 161.859 5.87291 161.859 6.96693V9.77491H166.417V12.7652H161.859V28.0085Z" fill="#111111"/>
<path d="M184.967 28.3731C180.044 28.3731 176.215 24.544 176.215 18.8916C176.215 13.2392 180.044 9.41016 184.967 9.41016C189.89 9.41016 193.719 13.2392 193.719 18.8916C193.719 24.544 189.89 28.3731 184.967 28.3731ZM184.821 25.4557H185.113C188.067 25.4557 190.255 23.0853 190.255 18.8916C190.255 14.6979 188.067 12.3275 185.113 12.3275H184.821C181.867 12.3275 179.679 14.6979 179.679 18.8916C179.679 23.0853 181.867 25.4557 184.821 25.4557Z" fill="#111111"/>
<path d="M213.067 24.179L216.897 9.77441H220.543L214.891 28.008H211.062L207.05 13.7493L203.039 28.008H199.21L193.557 9.77441H197.204L201.216 24.179L205.227 9.77441H208.874L213.067 24.179Z" fill="#111111"/>
</g>
</g>
<defs>
<clipPath id="clip0_2097_12311">
<rect width="221" height="37" fill="white"/>
</clipPath>
</defs>
</svg>
