<svg width="59" height="37" viewBox="0 0 59 37" fill="none" xmlns="http://www.w3.org/2000/svg">
<path d="M28.4691 15.1398L28.336 15.0597C27.5141 16.2894 26.0844 16.9986 24.5216 16.9986C22.215 17.0244 20.6523 15.4543 20.5481 11.7881H28.5241V11.239C28.5241 8.01886 26.1394 5.7396 23.0138 5.7396C19.1966 5.7396 16.4154 9.22284 16.4154 13.3581C16.4154 17.6793 19.3297 20.0357 22.3511 20.0357C25.2654 20.0357 27.6501 18.0711 28.4691 15.1398ZM22.5623 6.57752C23.7026 6.57752 24.2322 7.83297 24.2843 10.8987H20.5481C20.6262 7.86157 21.4481 6.57752 22.5623 6.57752Z" fill="white"/>
<path d="M6.45404 36.0392C8.33518 36.0392 10.0311 34.5721 10.9311 33.4997L10.9832 33.5255C10.9311 33.8915 10.9051 34.4149 10.9051 34.9382V36.1679H11.0122C12.4968 35.5388 14.404 35.0154 16.3112 35.0154V34.9353C15.4632 34.5178 15.0667 33.5741 15.0667 32.3701V12.9349H15.0146C13.7963 14.1932 11.4897 15.0025 9.55647 15.0569V15.1341C10.4565 15.5802 10.908 16.6012 10.908 17.6478V22.2149C10.3784 22.0577 9.79378 21.9004 9.0529 21.9004C4.81311 21.9004 2.00299 25.7497 2.00299 30.0451C2.00009 33.4482 3.88412 36.0392 6.45404 36.0392ZM9.07605 33.3196C7.51326 33.3196 6.4251 31.8754 6.4251 28.4979C6.39905 25.2235 7.69848 22.7497 9.36546 22.7497C10.2655 22.7497 10.9282 23.3789 10.9282 24.3198V32.7161C10.3205 33.0822 9.73879 33.3196 9.07605 33.3196Z" fill="white"/>
<path d="M16.7192 35.6732H23.3437V35.5931C22.6289 35.1755 22.2295 34.2576 22.2295 33.1308V25.8984H22.1514C20.7709 27.3225 18.3341 27.3082 16.6932 27.0709V27.1481C17.6743 27.5399 17.9637 29.1614 17.9637 30.1566V33.1337C17.9637 34.2862 17.4861 35.1498 16.7192 35.5959V35.6732Z" fill="white"/>
<path d="M36.1035 31.1432L35.9704 31.0632C35.1485 32.2929 33.7188 33.0021 32.1561 33.0021C29.8495 33.0278 28.2867 31.4578 28.1825 27.7915H36.1585V27.2425C36.1585 24.0223 33.7738 21.7431 30.6483 21.7431C26.831 21.7431 24.0498 25.2263 24.0498 29.3616C24.0498 33.6827 26.9641 36.0392 29.9855 36.0392C32.8998 36.0392 35.2845 34.0745 36.1035 31.1432ZM30.1968 22.581C31.337 22.581 31.8667 23.8364 31.9188 26.9022H28.1825C28.2607 23.865 29.0826 22.581 30.1968 22.581Z" fill="white"/>
<path d="M36.8271 35.5959V35.676H43.3705V35.5959C42.6557 35.0469 42.2563 34.2089 42.2563 33.1622V25.2006C43.0782 24.7544 44.1374 24.3369 44.8002 24.3369C45.5671 24.3626 45.9144 24.9117 45.9144 26.0127V33.1622C45.9144 34.289 45.57 35.0469 44.8291 35.5959V35.676H51.1353V35.5959C50.4465 35.0469 50.076 34.2089 50.076 33.1622V25.2292C50.8979 24.783 51.9832 24.3369 52.646 24.3369C53.4129 24.3369 53.7312 24.9403 53.7312 26.0127V33.1622C53.7312 34.289 53.3608 35.0469 52.617 35.5959V35.676H58.9232V35.5959C58.2344 35.1784 57.89 34.3119 57.89 33.1336V24.5971C57.89 22.8956 56.961 21.7688 55.294 21.7431C53.465 21.7688 51.2394 23.3417 50.0992 24.5457H50.0731C50.0731 22.8956 49.147 21.7431 47.4511 21.7431C45.6221 21.7431 43.4226 23.3417 42.2563 24.5457L42.2303 24.5199C42.2563 24.1281 42.2823 23.6048 42.2823 23.1072V21.6401H42.2042C40.9858 22.8698 38.7603 23.7077 36.8242 23.7621V23.8393C37.7792 24.2311 38.0947 25.0947 38.0947 26.2758V33.1365C38.0975 34.2061 37.649 35.0697 36.8271 35.5959Z" fill="white"/>
<path d="M0.498047 0.706371V0.783586C1.55727 1.20112 2.11582 2.19633 2.11582 3.45464V17.0959C2.11582 18.4057 1.56016 19.4009 0.498047 19.8728V19.95H8.2078V19.8756C7.14858 19.4038 6.61897 18.4085 6.61897 17.0988V13.0922C7.20067 13.198 7.83736 13.2495 8.47406 13.2752C12.2103 13.2495 16.6874 10.9702 16.6874 6.33732C16.6874 2.56524 13.2174 0 7.97049 0C5.45266 0 3.04192 0.28884 0.498047 0.706371ZM6.61897 3.01423C6.61897 1.70444 7.14858 1.04955 8.42196 1.04955C10.5404 1.04955 11.7617 3.1944 11.7617 6.86066C11.7617 10.4755 10.1989 12.2228 7.46982 12.2228C7.20357 12.2228 6.91416 12.2228 6.62186 12.1713V3.01423H6.61897Z" fill="white"/>
<path d="M34.7029 7.48984V5.91981H34.6247C33.4063 7.14952 31.1808 7.98744 29.2447 8.04178V8.11899C30.1708 8.51079 30.518 9.37445 30.518 10.5555V17.4162C30.518 18.4886 30.0405 19.3809 29.2447 19.8785V19.9557H35.9212V19.8756C35.1543 19.378 34.6768 18.4886 34.6768 17.4133" fill="white"/>
<path d="M35.4206 10.4726C35.8171 10.0265 36.2425 9.68616 36.694 9.68616C37.5159 9.68616 37.9673 11.2047 39.2378 11.2047C40.1668 11.2047 40.9858 10.3411 40.9858 9.03126C40.9858 7.77581 40.1379 6.83208 39.0237 6.83208C37.539 6.83494 35.5624 8.35921 35.4206 10.4726Z" fill="white"/>
<path d="M19.755 25.7382C21.1104 25.7382 22.2092 24.6524 22.2092 23.3131C22.2092 21.9737 21.1104 20.888 19.755 20.888C18.3996 20.888 17.3009 21.9737 17.3009 23.3131C17.3009 24.6524 18.3996 25.7382 19.755 25.7382Z" fill="white"/>
</svg>
