<svg width="48" height="80" viewBox="0 0 48 80" fill="none" xmlns="http://www.w3.org/2000/svg">
<g clip-path="url(#clip0_2097_12561)">
<mask id="mask0_2097_12561" style="mask-type:luminance" maskUnits="userSpaceOnUse" x="0" y="0" width="48" height="80">
<path d="M47.4738 0.755859H0.572266V79.8184H47.4738V0.755859Z" fill="white"/>
</mask>
<g mask="url(#mask0_2097_12561)">
<path d="M24.025 79.8145C11.1041 79.8145 0.574219 69.1643 0.574219 56.0957V24.4707C0.574219 11.4022 11.1041 0.751953 24.025 0.751953C36.9459 0.751953 47.4757 11.4022 47.4757 24.4707V56.0957C47.4757 69.1643 36.9459 79.8145 24.025 79.8145ZM24.025 1.44957C11.4719 1.44957 1.26395 11.7742 1.26395 24.4707V56.0957C1.26395 68.7922 11.4719 79.1169 24.025 79.1169C36.578 79.1169 46.786 68.7922 46.786 56.0957V24.4707C46.786 11.7742 36.578 1.44957 24.025 1.44957Z" fill="#111111"/>
<path d="M24.0224 77.3073C12.458 77.3073 3.05469 67.7965 3.05469 56.0999V24.4749C3.05469 12.7783 12.458 3.26758 24.0224 3.26758C35.5868 3.26758 44.9901 12.7783 44.9901 24.4749V56.0999C44.9901 67.7965 35.5868 77.3073 24.0224 77.3073ZM24.0224 3.59313C12.6419 3.59313 3.37657 12.9644 3.37657 24.4749V56.0999C3.37657 67.6105 12.6419 76.9817 24.0224 76.9817C35.4029 76.9817 44.6682 67.6105 44.6682 56.0999V24.4749C44.6682 12.9644 35.4029 3.59313 24.0224 3.59313Z" fill="#111111"/>
<path d="M17.1299 29.2871L20.6245 25.5433C21.6821 24.4271 22.2799 23.3109 22.2799 22.5435C22.2799 20.939 20.6475 21.3808 20.6475 20.8925C20.6475 20.6832 20.8315 20.6367 21.1993 20.6367C22.1189 20.6367 23.2225 20.6832 24.3031 20.6832C25.4296 20.6832 26.4412 20.6367 27.177 20.6367C27.4528 20.6367 27.7057 20.6832 27.7057 20.8925C27.7057 21.4041 26.3723 20.7065 23.8433 23.1714L21.2913 25.6595L27.3839 36.6353C28.0966 37.9375 29.2691 37.3561 29.2691 37.984C29.2691 38.17 29.2002 38.2863 28.9473 38.2863C28.0506 38.2863 26.6712 38.2398 22.7857 38.2398L17.8426 29.3569L17.1299 30.0312V36.3097C17.1299 38.1235 19.2681 37.1468 19.2681 37.9607C19.2681 38.1933 19.1761 38.263 18.8772 38.263C17.8886 38.263 16.4172 38.2165 14.5549 38.2165C12.6927 38.2165 11.2213 38.263 10.2326 38.263C9.95675 38.263 9.8418 38.1933 9.8418 37.9607C9.8418 37.1236 11.98 38.1235 11.98 36.3097V22.59C11.98 20.7763 9.8418 21.7529 9.8418 20.939C9.8418 20.7065 9.93376 20.6367 10.2326 20.6367C11.2213 20.6367 12.6927 20.6832 14.5549 20.6832C16.4172 20.6832 17.8886 20.6367 18.8772 20.6367C19.1531 20.6367 19.2681 20.7065 19.2681 20.939C19.2681 21.7762 17.1299 20.7763 17.1299 22.59V29.2871Z" fill="#111111"/>
<path d="M32.7623 49.3562C32.4404 49.3562 32.1875 49.1004 32.1415 48.7981C31.8426 45.6588 31.8196 45.6356 28.7159 45.3333C28.394 45.31 28.1641 45.031 28.1641 44.7054C28.1641 44.3799 28.417 44.1241 28.7159 44.0776C31.8196 43.7753 31.8426 43.752 32.1415 40.6128C32.1645 40.2872 32.4404 40.0547 32.7623 40.0547C33.0841 40.0547 33.337 40.3105 33.383 40.6128C33.6819 43.752 33.7049 43.7753 36.8087 44.0776C37.3145 44.1241 37.6363 44.7984 37.0616 45.2868C33.7049 45.6123 33.6819 45.5658 33.36 48.7981C33.337 49.1004 33.0612 49.3562 32.7623 49.3562ZM31.4058 44.6822C32.0036 44.9845 32.4404 45.4263 32.7393 46.0309C33.0382 45.4263 33.475 44.9845 34.0728 44.6822C33.475 44.3799 33.0382 43.9381 32.7393 43.3335C32.4404 43.9381 32.0266 44.3799 31.4058 44.6822Z" fill="#111111"/>
<path d="M25.8207 59.4045C25.8207 59.5906 25.7517 59.6836 25.6598 59.6836C25.3839 59.6836 25.5218 59.1255 25.085 59.1255C24.4642 59.1255 23.2687 59.9161 21.6593 59.9161C18.4866 59.9161 16.1875 57.8233 16.1875 54.5445C16.1875 51.2657 18.7625 49.1729 21.5904 49.1729C23.2687 49.1729 24.2113 50.1031 24.947 50.1031C25.4758 50.1031 25.2229 49.4055 25.5678 49.4055C25.6827 49.4055 25.7747 49.4752 25.7747 49.7078V53.3121C25.7747 53.4748 25.7747 53.5911 25.6368 53.5911C25.3609 53.5911 25.5218 53.126 24.6712 51.7076C23.9584 50.5216 22.9238 49.5217 21.7973 49.5217C20.073 49.5217 19.4752 51.8238 19.4752 54.5213C19.4752 58.3349 20.3029 59.5208 21.7973 59.5208C22.8319 59.5208 24.1194 58.6139 24.97 57.2187C25.4988 56.3583 25.3839 55.87 25.6598 55.87C25.7747 55.87 25.8207 55.963 25.8207 56.1025V59.4045Z" fill="#111111"/>
<path d="M31.015 52.7285C33.2451 52.7285 34.9694 54.3795 34.9694 56.2863C34.9694 58.1699 33.2681 59.8441 31.015 59.8441C28.7848 59.8441 27.0605 58.1931 27.0605 56.2863C27.0605 54.3795 28.7619 52.7285 31.015 52.7285ZM31.015 59.4488C31.6587 59.4488 32.0955 59.0535 32.0955 56.2631C32.0955 53.4726 31.6587 53.0773 31.015 53.0773C30.3712 53.0773 29.9344 53.4726 29.9344 56.2631C29.9344 59.0535 30.3712 59.4488 31.015 59.4488Z" fill="#111111"/>
<path d="M20.9668 9.05779L21.2657 9.01128L22.3922 10.3135L23.1509 8.75549L23.4498 8.70898L23.7947 11.3366L23.4958 11.3831L23.2199 9.26707L22.4612 10.8018H22.4382L21.3117 9.52286L21.5876 11.6389L21.3347 11.6854L20.9668 9.05779Z" fill="#111111"/>
<path d="M24.3222 10.4073C24.3682 9.84922 24.851 9.43065 25.4258 9.47716C26.0005 9.52367 26.3914 10.0352 26.3454 10.5701C26.2994 11.1282 25.8166 11.5467 25.2418 11.5002C24.6441 11.4537 24.2762 10.9421 24.3222 10.4073ZM26.0235 10.5701C26.0695 10.1515 25.7936 9.77946 25.3798 9.73295C24.9659 9.68644 24.6441 10.012 24.5981 10.4305C24.5521 10.8491 24.828 11.2212 25.2418 11.2444C25.6787 11.2909 26.0005 10.9654 26.0235 10.5701Z" fill="#111111"/>
<path d="M26.7594 10.6639C26.9433 10.036 27.4951 9.80351 27.9319 9.94304C28.2768 10.036 28.4377 10.2918 28.5297 10.5476L28.8516 9.4082L29.1274 9.50122L28.3687 12.1521L28.0928 12.0591L28.2078 11.6871C28.0009 11.8731 27.725 11.9893 27.3801 11.8963C26.9203 11.7801 26.5754 11.2917 26.7594 10.6639ZM28.3687 11.1522C28.5067 10.7104 28.2538 10.3151 27.9089 10.2221C27.5411 10.1058 27.1732 10.2918 27.0353 10.7569C26.8973 11.1987 27.1272 11.5708 27.4721 11.6871C27.84 11.7801 28.2538 11.5708 28.3687 11.1522Z" fill="#111111"/>
<path d="M29.6578 12.5699C29.8877 12.6862 30.1176 12.6862 30.3245 12.5931L30.4165 12.8257C30.1406 12.9419 29.8647 12.9652 29.5428 12.7792C29.06 12.5466 28.8761 11.9653 29.129 11.4305C29.3819 10.9189 29.9336 10.7096 30.4165 10.9421C30.9223 11.1979 31.0142 11.756 30.7613 12.2908C30.7383 12.3141 30.7383 12.3373 30.7153 12.3839L29.3589 11.6862C29.1979 12.0583 29.3589 12.4071 29.6578 12.5699ZM30.5774 12.0351C30.7153 11.7095 30.6694 11.3374 30.3245 11.1747C30.0256 11.0119 29.6807 11.1514 29.4738 11.477L30.5774 12.0351Z" fill="#111111"/>
<path d="M31.7485 11.7568L31.9785 11.9196L31.7026 12.3382C32.0014 12.1521 32.3693 12.1289 32.6682 12.3382L32.4843 12.5939L32.4613 12.5707C32.1164 12.3382 31.6566 12.3847 31.3347 12.873L30.8979 13.5241L30.668 13.3613L31.7485 11.7568Z" fill="#111111"/>
<path d="M33.059 12.708L33.2659 12.894L33.036 13.1498C33.2659 13.08 33.5418 13.08 33.7717 13.3126C34.1166 13.6381 34.1166 14.0567 33.7947 14.4055L32.99 15.3124L32.7831 15.1263L33.5418 14.2892C33.7717 14.0102 33.7947 13.7079 33.5418 13.4986C33.2889 13.2661 32.944 13.2893 32.7141 13.5683L31.9784 14.4055L31.7715 14.2195L33.059 12.708Z" fill="#111111"/>
<path d="M36.7841 15.8008L36.945 16.0333L35.4276 18.5215L35.2437 18.2657L35.6346 17.6146L34.8299 16.4287L34.0712 16.5682L33.9102 16.3124L36.7841 15.8008ZM35.7955 17.3588L36.5772 16.1031L35.1288 16.3589L35.7955 17.3588Z" fill="#111111"/>
<path d="M37.9801 17.6152L38.118 17.871L35.681 19.1267L35.543 18.8709L37.9801 17.6152Z" fill="#111111"/>
<path d="M36.7846 19.1513C37.2904 18.942 37.8882 19.1513 38.0951 19.6861C38.2331 20.0349 38.1871 20.2907 38.0721 20.5465L37.8192 20.4535C37.9112 20.2442 37.9572 20.0349 37.8652 19.8024C37.7273 19.4303 37.2904 19.2908 36.8996 19.4303C36.5087 19.5931 36.3248 20.0117 36.4628 20.3837C36.5547 20.6163 36.7387 20.7558 36.9456 20.8256L36.8536 21.0581C36.5777 20.9651 36.3478 20.8023 36.2099 20.4535C36.0029 19.9419 36.2788 19.3606 36.7846 19.1513Z" fill="#111111"/>
<path d="M39.3153 20.8018L39.3843 21.0808L38.2807 21.3831C38.5106 21.4529 38.7405 21.6157 38.8095 21.9412C38.9245 22.4063 38.6946 22.7551 38.2577 22.8714L37.1082 23.1969L37.0392 22.9179L38.1198 22.6156C38.4646 22.5226 38.6256 22.2668 38.5336 21.9412C38.4417 21.6157 38.1428 21.4296 37.7979 21.5226L36.7173 21.8249L36.6484 21.5459L39.3153 20.8018Z" fill="#111111"/>
<path d="M37.5194 24.4774C37.5654 24.7332 37.6804 24.9193 37.8643 25.0588L37.7263 25.2681C37.4734 25.1053 37.3125 24.896 37.2665 24.524C37.1976 23.9891 37.5424 23.5008 38.1402 23.4078C38.692 23.338 39.1978 23.6636 39.2667 24.1984C39.3357 24.7797 38.9449 25.1751 38.3701 25.2448C38.3471 25.2448 38.3241 25.2448 38.2781 25.2448L38.0712 23.7101C37.6574 23.8031 37.4734 24.1519 37.5194 24.4774ZM38.4621 24.9193C38.8069 24.8263 39.0828 24.5937 39.0138 24.2217C38.9679 23.8961 38.669 23.6636 38.2781 23.6868L38.4621 24.9193Z" fill="#111111"/>
<path d="M39.405 25.752V26.0543H39.0831C39.267 26.1938 39.4509 26.3566 39.4509 26.6821C39.4509 27.0077 39.29 27.1937 39.0601 27.31C39.267 27.4495 39.4509 27.6588 39.4509 28.0076C39.4509 28.4494 39.1521 28.7284 38.6692 28.7284H37.4737V28.4261H38.6003C38.9681 28.4261 39.175 28.2401 39.175 27.9146C39.175 27.6123 38.9681 27.3797 38.5773 27.3797H37.4507V27.1007H38.5773C38.9451 27.1007 39.1521 26.9147 39.1521 26.5891C39.1521 26.2868 38.8992 26.0543 38.5313 26.0543H37.4277V25.752H39.405Z" fill="#111111"/>
<path d="M36.9691 29.0764L37.199 29.1694C37.153 29.2625 37.13 29.3555 37.13 29.4717C37.13 29.6345 37.222 29.7508 37.4979 29.8671L39.4291 28.9834V29.309L37.8197 30.0298L39.4291 30.6577V30.96L37.4289 30.1461C37.038 29.9833 36.8771 29.7973 36.8771 29.495C36.8541 29.3322 36.9001 29.216 36.9691 29.0764Z" fill="#111111"/>
<path d="M10.9233 54.3322V54.6113L8.2793 55.8205V55.4949L8.96902 55.1926V53.7509L8.2793 53.4254V53.123L10.9233 54.3322ZM9.24492 55.0532L10.5784 54.4485L9.24492 53.8439V55.0532Z" fill="#111111"/>
<path d="M10.1851 56.2158L10.2081 56.4948L9.86328 56.5181C10.0702 56.6343 10.2541 56.8204 10.2771 57.1692C10.3001 57.6342 10.0242 57.9365 9.56439 57.9598L8.36887 58.0296L8.34588 57.7505L9.47243 57.6807C9.84029 57.6575 10.0472 57.4482 10.0242 57.0994C10.0012 56.7739 9.74832 56.5413 9.38047 56.5646L8.2769 56.6343L8.25391 56.3553L10.1851 56.2158Z" fill="#111111"/>
<path d="M9.40327 58.5391C9.95505 58.4228 10.4838 58.7483 10.6218 59.3064C10.6908 59.6785 10.5988 59.9343 10.4609 60.1436L10.2309 60.004C10.3459 59.818 10.4379 59.6087 10.3919 59.3529C10.2999 58.9576 9.90907 58.7483 9.51823 58.8414C9.10439 58.9344 8.85149 59.3064 8.94345 59.7017C8.98943 59.9343 9.15037 60.0971 9.35729 60.2133L9.21934 60.4226C8.96644 60.2831 8.75952 60.0738 8.69055 59.725C8.50662 59.1902 8.87448 58.6553 9.40327 58.5391Z" fill="#111111"/>
<path d="M10.8978 60.4706L10.9898 60.7496L9.15055 61.3775L9.05859 61.0984L10.8978 60.4706ZM11.5876 60.2148L11.7025 60.5403L11.4036 60.6334L11.2887 60.3078L11.5876 60.2148Z" fill="#111111"/>
<path d="M9.9342 62.796C10.0492 63.0518 10.2101 63.1681 10.44 63.2379L10.371 63.4704C10.0951 63.3774 9.86523 63.2379 9.70429 62.889C9.47438 62.4007 9.6813 61.8194 10.2101 61.5868C10.7159 61.3543 11.2907 61.5171 11.5206 62.0054C11.7505 62.5402 11.4746 63.0286 10.9688 63.2611C10.9458 63.2611 10.9228 63.2844 10.8768 63.3076L10.2331 61.8891C9.88822 62.1217 9.79626 62.4937 9.9342 62.796ZM10.9688 62.9588C11.2677 62.7728 11.4516 62.4705 11.3137 62.1217C11.1757 61.8194 10.8079 61.7031 10.463 61.8194L10.9688 62.9588Z" fill="#111111"/>
<path d="M12.0937 63.2373L12.2547 63.4698L11.9788 63.6559C12.2317 63.6559 12.4846 63.7256 12.6685 64.0047C12.9214 64.4 12.8065 64.7953 12.4386 65.0511L11.427 65.7254L11.2661 65.4929L12.2087 64.8651C12.5076 64.6558 12.5995 64.3767 12.3926 64.0977C12.2087 63.8186 11.8638 63.7489 11.5649 63.9349L10.6453 64.5627L10.4844 64.3302L12.0937 63.2373Z" fill="#111111"/>
<path d="M12.323 66.0493L13.2197 65.2819L13.0357 65.0726L13.2197 64.9098L13.4036 65.1191L13.8404 64.7471L14.0243 64.9796L13.5875 65.3749L13.9784 65.84L13.7944 66.0028L13.4036 65.5377L12.5529 66.2818C12.369 66.4446 12.392 66.5841 12.5299 66.7469C12.5989 66.8166 12.6679 66.8631 12.7598 66.9096L12.5759 67.0724C12.461 67.0259 12.369 66.9562 12.277 66.8631C12.0471 66.6073 12.0241 66.305 12.323 66.0493Z" fill="#111111"/>
<path d="M15.474 66.376L15.7269 66.562L15.6579 68.306L17.2673 67.7014L17.5202 67.8875L15.9798 70.0268L15.7499 69.8408L16.9914 68.0967L15.382 68.6781H15.359L15.405 66.9573L14.1635 68.7013L13.9336 68.5386L15.474 66.376Z" fill="#111111"/>
<path d="M17.6836 70.6566C17.9136 70.7729 18.1435 70.7496 18.3504 70.6799L18.4423 70.9124C18.1665 71.0287 17.8906 71.0519 17.5687 70.8891C17.0859 70.6566 16.879 70.0985 17.1319 69.5404C17.3618 69.0288 17.9136 68.7963 18.3964 69.0289C18.9022 69.2846 19.0171 69.8427 18.7642 70.3543C18.7642 70.3776 18.7412 70.4008 18.7182 70.4473L17.3388 69.773C17.2008 70.1683 17.3848 70.5171 17.6836 70.6566ZM18.5573 70.0985C18.6723 69.773 18.6263 69.4009 18.2814 69.2381C17.9825 69.0986 17.6377 69.2381 17.4307 69.5637L18.5573 70.0985Z" fill="#111111"/>
<path d="M19.2223 70.5155C19.4062 69.8876 19.935 69.6551 20.3949 69.7946C20.7397 69.8876 20.9007 70.1434 20.9926 70.3992L21.3145 69.2598L21.5904 69.3295L20.8317 71.9805L20.5558 71.9107L20.6707 71.5386C20.4638 71.7247 20.1879 71.8409 19.8431 71.7479C19.3833 71.6316 19.0384 71.1433 19.2223 70.5155ZM20.8317 70.9805C20.9466 70.5387 20.7167 70.1434 20.3719 70.0504C20.004 69.9341 19.6362 70.1202 19.5212 70.5852C19.4062 71.0271 19.6132 71.3991 19.958 71.4921C20.3029 71.6084 20.7167 71.4224 20.8317 70.9805Z" fill="#111111"/>
<path d="M21.9332 70.213L22.2091 70.2595L21.8872 72.1895L21.6113 72.143L21.9332 70.213ZM22.0251 69.4688L22.347 69.5153L22.301 69.8409L21.9792 69.7943L22.0251 69.4688Z" fill="#111111"/>
<path d="M22.6006 71.3301C22.6236 70.772 23.0835 70.3302 23.6582 70.3534C24.0261 70.3767 24.233 70.5394 24.4169 70.7487L24.21 70.9348C24.0721 70.772 23.9111 70.6092 23.6352 70.6092C23.2444 70.586 22.9225 70.9115 22.8995 71.3301C22.8765 71.7486 23.1524 72.0974 23.5663 72.144C23.8192 72.1672 24.0031 72.0509 24.164 71.8882L24.348 72.0742C24.141 72.2835 23.8881 72.423 23.5433 72.3997C22.9685 72.3765 22.5777 71.8649 22.6006 71.3301Z" fill="#111111"/>
<path d="M24.7852 69.6561L25.1071 69.6328L25.1301 69.9584L24.8082 69.9816L24.7852 69.6561ZM24.8312 70.4234L25.1301 70.4002L25.2221 72.3535L24.9232 72.3767L24.8312 70.4234Z" fill="#111111"/>
<path d="M25.707 70.3752L25.9828 70.3287L26.0288 70.6542C26.1208 70.4217 26.3047 70.2356 26.6266 70.1659C27.0864 70.0961 27.4083 70.3752 27.4773 70.817L27.6612 72.0262L27.3853 72.0727L27.2244 70.9333C27.1784 70.5845 26.9485 70.3752 26.6036 70.4217C26.2817 70.4682 26.0748 70.7472 26.1208 71.1193L26.2817 72.2355L26.0058 72.282L25.707 70.3752Z" fill="#111111"/>
<path d="M29.2242 71.3994C29.4771 71.3064 29.6151 71.1669 29.73 70.9576L29.9599 71.0506C29.845 71.3297 29.661 71.5389 29.3162 71.6552C28.8104 71.818 28.2816 71.5622 28.0977 70.9809C27.9367 70.446 28.1666 69.8879 28.6724 69.7252C29.2242 69.5391 29.661 69.8879 29.845 70.446C29.845 70.4693 29.868 70.4925 29.868 70.539L28.3965 71.0041C28.5575 71.3762 28.9023 71.4924 29.2242 71.3994ZM29.5001 70.3763C29.3622 70.0507 29.0863 69.8182 28.7184 69.9344C28.3965 70.0275 28.2356 70.3763 28.3276 70.7483L29.5001 70.3763Z" fill="#111111"/>
</g>
</g>
<defs>
<clipPath id="clip0_2097_12561">
<rect width="48" height="80" fill="white"/>
</clipPath>
</defs>
</svg>
