<svg width="73" height="40" viewBox="0 0 73 40" fill="none" xmlns="http://www.w3.org/2000/svg">
<path d="M0.0996094 21.2153L13.6282 6.31682H0.507398V0.654541H21.8126V6.11587L8.28399 21.0072H22.2203V26.6694H0.0996094V21.2153Z" fill="white"/>
<path d="M25.4199 0.654541H32.0805V26.6694H25.4199V0.654541Z" fill="white"/>
<path d="M65.9658 0.654541H72.6264V26.6694H65.9658V0.654541Z" fill="white"/>
<path fill-rule="evenodd" clip-rule="evenodd" d="M49.025 39.5892C42.7775 39.5892 37.0915 37.0845 33.3008 33.0103L38.1782 28.4723C40.6474 31.1262 44.536 32.9272 49.025 32.9272C53.514 32.9272 57.4026 31.1262 59.8718 28.4723L64.7492 33.0103C60.9585 37.0845 55.2725 39.5892 49.025 39.5892Z" fill="white"/>
<path fill-rule="evenodd" clip-rule="evenodd" d="M56.3194 0.680119V3.43338C55.4053 2.13395 52.5284 0.181641 48.6589 0.181641C41.3187 0.181641 35.7393 6.14533 35.7393 13.5084C35.7393 20.8716 41.6844 26.8352 49.0246 26.8352C56.3648 26.8352 62.3099 20.8716 62.3099 13.5084C62.3099 9.33649 62.3095 4.85209 62.3105 0.680119H56.3194ZM49.0246 6.64051C52.802 6.64051 55.8711 9.71924 55.8711 13.5084C55.8711 17.2976 52.802 20.3764 49.0246 20.3764C45.2472 20.3764 42.178 17.2976 42.178 13.5084C42.178 9.71924 45.2472 6.64051 49.0246 6.64051Z" fill="white"/>
</svg>
