<svg width="48" height="80" viewBox="0 0 48 80" fill="none" xmlns="http://www.w3.org/2000/svg">
<g clip-path="url(#clip0_2400_1493)">
<path d="M24.025 79.8147C11.1041 79.8147 0.574219 69.1645 0.574219 56.0959V24.4709C0.574219 11.4024 11.1041 0.752197 24.025 0.752197C36.9459 0.752197 47.4757 11.4024 47.4757 24.4709V56.0959C47.4757 69.1645 36.9459 79.8147 24.025 79.8147ZM24.025 1.44981C11.4719 1.44981 1.26395 11.7744 1.26395 24.4709V56.0959C1.26395 68.7924 11.4719 79.1171 24.025 79.1171C36.578 79.1171 46.786 68.7924 46.786 56.0959V24.4709C46.786 11.7744 36.578 1.44981 24.025 1.44981Z" fill="white"/>
<path d="M24.0234 77.3073C12.459 77.3073 3.05566 67.7965 3.05566 56.0999V24.4749C3.05566 12.7783 12.459 3.26758 24.0234 3.26758C35.5878 3.26758 44.9911 12.7783 44.9911 24.4749V56.0999C44.9911 67.7965 35.5878 77.3073 24.0234 77.3073ZM24.0234 3.59313C12.6429 3.59313 3.37754 12.9644 3.37754 24.4749V56.0999C3.37754 67.6105 12.6429 76.9817 24.0234 76.9817C35.4039 76.9817 44.6692 67.6105 44.6692 56.0999V24.4749C44.6692 12.9644 35.4039 3.59313 24.0234 3.59313Z" fill="white"/>
<path d="M17.1299 29.2877L20.6245 25.5439C21.6821 24.4277 22.2799 23.3115 22.2799 22.5441C22.2799 20.9396 20.6475 21.3814 20.6475 20.8931C20.6475 20.6838 20.8315 20.6373 21.1993 20.6373C22.1189 20.6373 23.2225 20.6838 24.3031 20.6838C25.4296 20.6838 26.4412 20.6373 27.177 20.6373C27.4528 20.6373 27.7057 20.6838 27.7057 20.8931C27.7057 21.4047 26.3723 20.7071 23.8433 23.172L21.2913 25.6601L27.3839 36.6359C28.0966 37.9381 29.2691 37.3567 29.2691 37.9846C29.2691 38.1706 29.2002 38.2869 28.9473 38.2869C28.0506 38.2869 26.6712 38.2404 22.7857 38.2404L17.8426 29.3575L17.1299 30.0318V36.3103C17.1299 38.1241 19.2681 37.1474 19.2681 37.9613C19.2681 38.1939 19.1761 38.2636 18.8772 38.2636C17.8886 38.2636 16.4172 38.2171 14.5549 38.2171C12.6927 38.2171 11.2213 38.2636 10.2326 38.2636C9.95675 38.2636 9.8418 38.1939 9.8418 37.9613C9.8418 37.1242 11.98 38.1241 11.98 36.3103V22.5906C11.98 20.7769 9.8418 21.7535 9.8418 20.9396C9.8418 20.7071 9.93376 20.6373 10.2326 20.6373C11.2213 20.6373 12.6927 20.6838 14.5549 20.6838C16.4172 20.6838 17.8886 20.6373 18.8772 20.6373C19.1531 20.6373 19.2681 20.7071 19.2681 20.9396C19.2681 21.7768 17.1299 20.7769 17.1299 22.5906V29.2877Z" fill="white"/>
<path d="M32.7613 49.3568C32.4394 49.3568 32.1865 49.101 32.1405 48.7987C31.8416 45.6594 31.8186 45.6362 28.7149 45.3339C28.393 45.3106 28.1631 45.0316 28.1631 44.706C28.1631 44.3805 28.416 44.1247 28.7149 44.0782C31.8186 43.7759 31.8416 43.7526 32.1405 40.6134C32.1635 40.2878 32.4394 40.0553 32.7613 40.0553C33.0831 40.0553 33.336 40.3111 33.382 40.6134C33.6809 43.7526 33.7039 43.7759 36.8077 44.0782C37.3135 44.1247 37.6353 44.799 37.0606 45.2874C33.7039 45.6129 33.6809 45.5664 33.359 48.7987C33.336 49.101 33.0602 49.3568 32.7613 49.3568ZM31.4048 44.6828C32.0026 44.9851 32.4394 45.4269 32.7383 46.0315C33.0372 45.4269 33.474 44.9851 34.0718 44.6828C33.474 44.3805 33.0372 43.9387 32.7383 43.3341C32.4394 43.9387 32.0256 44.3805 31.4048 44.6828Z" fill="white"/>
<path d="M25.8207 59.4048C25.8207 59.5909 25.7517 59.6839 25.6598 59.6839C25.3839 59.6839 25.5218 59.1258 25.085 59.1258C24.4642 59.1258 23.2687 59.9164 21.6593 59.9164C18.4866 59.9164 16.1875 57.8236 16.1875 54.5448C16.1875 51.266 18.7625 49.1732 21.5904 49.1732C23.2687 49.1732 24.2113 50.1034 24.947 50.1034C25.4758 50.1034 25.2229 49.4058 25.5678 49.4058C25.6827 49.4058 25.7747 49.4755 25.7747 49.7081V53.3124C25.7747 53.4751 25.7747 53.5914 25.6368 53.5914C25.3609 53.5914 25.5218 53.1263 24.6712 51.7079C23.9584 50.5219 22.9238 49.522 21.7973 49.522C20.073 49.522 19.4752 51.8241 19.4752 54.5216C19.4752 58.3352 20.3029 59.5211 21.7973 59.5211C22.8319 59.5211 24.1194 58.6142 24.97 57.219C25.4988 56.3586 25.3839 55.8703 25.6598 55.8703C25.7747 55.8703 25.8207 55.9633 25.8207 56.1028V59.4048Z" fill="white"/>
<path d="M31.016 52.7285C33.2461 52.7285 34.9704 54.3795 34.9704 56.2863C34.9704 58.1699 33.2691 59.8441 31.016 59.8441C28.7858 59.8441 27.0615 58.1931 27.0615 56.2863C27.0615 54.3795 28.7629 52.7285 31.016 52.7285ZM31.016 59.4488C31.6597 59.4488 32.0965 59.0535 32.0965 56.2631C32.0965 53.4726 31.6597 53.0773 31.016 53.0773C30.3722 53.0773 29.9354 53.4726 29.9354 56.2631C29.9354 59.0535 30.3722 59.4488 31.016 59.4488Z" fill="white"/>
<path d="M20.9668 9.05767L21.2657 9.01116L22.3922 10.3134L23.1509 8.75537L23.4498 8.70886L23.7947 11.3365L23.4958 11.383L23.2199 9.26695L22.4612 10.8017H22.4382L21.3117 9.52274L21.5876 11.6388L21.3347 11.6853L20.9668 9.05767Z" fill="white"/>
<path d="M24.3232 10.4072C24.3692 9.8491 24.852 9.43053 25.4268 9.47704C26.0015 9.52355 26.3924 10.0351 26.3464 10.57C26.3004 11.1281 25.8176 11.5466 25.2428 11.5001C24.6451 11.4536 24.2772 10.942 24.3232 10.4072ZM26.0245 10.57C26.0705 10.1514 25.7946 9.77934 25.3808 9.73283C24.9669 9.68632 24.6451 10.0119 24.5991 10.4304C24.5531 10.849 24.829 11.2211 25.2428 11.2443C25.6797 11.2908 26.0015 10.9653 26.0245 10.57Z" fill="white"/>
<path d="M26.7604 10.6644C26.9443 10.0365 27.4961 9.804 27.9329 9.94353C28.2778 10.0365 28.4387 10.2923 28.5307 10.5481L28.8526 9.40869L29.1284 9.50171L28.3697 12.1526L28.0938 12.0596L28.2088 11.6876C28.0019 11.8736 27.726 11.9898 27.3811 11.8968C26.9213 11.7806 26.5764 11.2922 26.7604 10.6644ZM28.3697 11.1527C28.5077 10.7109 28.2548 10.3156 27.9099 10.2226C27.5421 10.1063 27.1742 10.2923 27.0363 10.7574C26.8983 11.1992 27.1282 11.5713 27.4731 11.6876C27.841 11.7806 28.2548 11.5713 28.3697 11.1527Z" fill="white"/>
<path d="M29.6569 12.5703C29.8868 12.6866 30.1167 12.6866 30.3236 12.5935L30.4156 12.8261C30.1397 12.9423 29.8638 12.9656 29.5419 12.7796C29.0591 12.547 28.8752 11.9657 29.1281 11.4309C29.381 10.9193 29.9327 10.71 30.4156 10.9425C30.9214 11.1983 31.0133 11.7564 30.7604 12.2912C30.7374 12.3145 30.7374 12.3377 30.7144 12.3843L29.358 11.6866C29.197 12.0587 29.358 12.4075 29.6569 12.5703ZM30.5765 12.0355C30.7144 11.7099 30.6685 11.3378 30.3236 11.1751C30.0247 11.0123 29.6798 11.1518 29.4729 11.4774L30.5765 12.0355Z" fill="white"/>
<path d="M31.7485 11.7567L31.9785 11.9195L31.7026 12.3381C32.0014 12.152 32.3693 12.1288 32.6682 12.3381L32.4843 12.5938L32.4613 12.5706C32.1164 12.3381 31.6566 12.3846 31.3347 12.8729L30.8979 13.524L30.668 13.3612L31.7485 11.7567Z" fill="white"/>
<path d="M33.059 12.7078L33.2659 12.8938L33.036 13.1496C33.2659 13.0798 33.5418 13.0798 33.7717 13.3124C34.1166 13.6379 34.1166 14.0565 33.7947 14.4053L32.99 15.3122L32.7831 15.1261L33.5418 14.289C33.7717 14.01 33.7947 13.7077 33.5418 13.4984C33.2889 13.2659 32.944 13.2891 32.7141 13.5681L31.9784 14.4053L31.7715 14.2193L33.059 12.7078Z" fill="white"/>
<path d="M36.785 15.8009L36.9459 16.0334L35.4285 18.5216L35.2446 18.2658L35.6355 17.6147L34.8308 16.4288L34.0721 16.5683L33.9111 16.3125L36.785 15.8009ZM35.7964 17.3589L36.5781 16.1032L35.1297 16.359L35.7964 17.3589Z" fill="white"/>
<path d="M37.981 17.6156L38.1189 17.8714L35.6819 19.1271L35.5439 18.8713L37.981 17.6156Z" fill="white"/>
<path d="M36.7846 19.1519C37.2904 18.9426 37.8882 19.1519 38.0951 19.6867C38.2331 20.0355 38.1871 20.2913 38.0721 20.5471L37.8192 20.4541C37.9112 20.2448 37.9572 20.0355 37.8652 19.803C37.7273 19.4309 37.2904 19.2914 36.8996 19.4309C36.5087 19.5937 36.3248 20.0123 36.4628 20.3843C36.5547 20.6169 36.7387 20.7564 36.9456 20.8262L36.8536 21.0587C36.5777 20.9657 36.3478 20.8029 36.2099 20.4541C36.0029 19.9425 36.2788 19.3612 36.7846 19.1519Z" fill="white"/>
<path d="M39.3144 20.8019L39.3834 21.0809L38.2798 21.3832C38.5097 21.453 38.7396 21.6158 38.8086 21.9413C38.9236 22.4064 38.6937 22.7552 38.2568 22.8715L37.1073 23.197L37.0383 22.918L38.1189 22.6157C38.4637 22.5227 38.6247 22.2669 38.5327 21.9413C38.4408 21.6158 38.1419 21.4297 37.797 21.5227L36.7164 21.825L36.6475 21.546L39.3144 20.8019Z" fill="white"/>
<path d="M37.5194 24.4773C37.5654 24.7331 37.6804 24.9192 37.8643 25.0587L37.7263 25.268C37.4734 25.1052 37.3125 24.8959 37.2665 24.5239C37.1976 23.989 37.5424 23.5007 38.1402 23.4077C38.692 23.3379 39.1978 23.6635 39.2667 24.1983C39.3357 24.7796 38.9449 25.175 38.3701 25.2447C38.3471 25.2447 38.3241 25.2447 38.2781 25.2447L38.0712 23.71C37.6574 23.803 37.4734 24.1518 37.5194 24.4773ZM38.4621 24.9192C38.8069 24.8262 39.0828 24.5936 39.0138 24.2216C38.9679 23.896 38.669 23.6635 38.2781 23.6867L38.4621 24.9192Z" fill="white"/>
<path d="M39.405 25.7521V26.0544H39.0831C39.267 26.1939 39.4509 26.3567 39.4509 26.6822C39.4509 27.0078 39.29 27.1938 39.0601 27.3101C39.267 27.4496 39.4509 27.6589 39.4509 28.0077C39.4509 28.4495 39.1521 28.7285 38.6692 28.7285H37.4737V28.4262H38.6003C38.9681 28.4262 39.175 28.2402 39.175 27.9147C39.175 27.6124 38.9681 27.3798 38.5773 27.3798H37.4507V27.1008H38.5773C38.9451 27.1008 39.1521 26.9148 39.1521 26.5892C39.1521 26.2869 38.8992 26.0544 38.5313 26.0544H37.4277V25.7521H39.405Z" fill="white"/>
<path d="M36.9681 29.0765L37.198 29.1695C37.152 29.2626 37.129 29.3556 37.129 29.4718C37.129 29.6346 37.221 29.7509 37.4969 29.8672L39.4281 28.9835V29.3091L37.8187 30.0299L39.4281 30.6578V30.9601L37.4279 30.1462C37.037 29.9834 36.8761 29.7974 36.8761 29.4951C36.8531 29.3323 36.8991 29.2161 36.9681 29.0765Z" fill="white"/>
<path d="M10.9233 54.3321V54.6112L8.2793 55.8204V55.4948L8.96902 55.1925V53.7508L8.2793 53.4252V53.1229L10.9233 54.3321ZM9.24492 55.053L10.5784 54.4484L9.24492 53.8438V55.053Z" fill="white"/>
<path d="M10.1861 56.2161L10.2091 56.4951L9.86425 56.5184C10.0712 56.6346 10.2551 56.8207 10.2781 57.1695C10.3011 57.6345 10.0252 57.9368 9.56536 57.9601L8.36984 58.0299L8.34685 57.7508L9.4734 57.681C9.84126 57.6578 10.0482 57.4485 10.0252 57.0997C10.0022 56.7742 9.74929 56.5416 9.38144 56.5649L8.27787 56.6346L8.25488 56.3556L10.1861 56.2161Z" fill="white"/>
<path d="M9.40327 58.5396C9.95505 58.4233 10.4838 58.7488 10.6218 59.3069C10.6908 59.679 10.5988 59.9348 10.4609 60.1441L10.2309 60.0045C10.3459 59.8185 10.4379 59.6092 10.3919 59.3534C10.2999 58.9581 9.90907 58.7488 9.51823 58.8419C9.10439 58.9349 8.85149 59.3069 8.94345 59.7022C8.98943 59.9348 9.15037 60.0976 9.35729 60.2138L9.21934 60.4231C8.96644 60.2836 8.75952 60.0743 8.69055 59.7255C8.50662 59.1907 8.87448 58.6558 9.40327 58.5396Z" fill="white"/>
<path d="M10.8988 60.4709L10.9908 60.7499L9.15153 61.3778L9.05957 61.0987L10.8988 60.4709ZM11.5886 60.2151L11.7035 60.5406L11.4046 60.6337L11.2897 60.3081L11.5886 60.2151Z" fill="white"/>
<path d="M9.9342 62.7959C10.0492 63.0517 10.2101 63.168 10.44 63.2378L10.371 63.4703C10.0951 63.3773 9.86523 63.2378 9.70429 62.8889C9.47438 62.4006 9.6813 61.8193 10.2101 61.5867C10.7159 61.3542 11.2907 61.517 11.5206 62.0053C11.7505 62.5401 11.4746 63.0285 10.9688 63.261C10.9458 63.261 10.9228 63.2843 10.8768 63.3075L10.2331 61.889C9.88822 62.1216 9.79626 62.4936 9.9342 62.7959ZM10.9688 62.9587C11.2677 62.7727 11.4516 62.4704 11.3137 62.1216C11.1757 61.8193 10.8079 61.703 10.463 61.8193L10.9688 62.9587Z" fill="white"/>
<path d="M12.0937 63.2378L12.2547 63.4703L11.9788 63.6564C12.2317 63.6564 12.4846 63.7261 12.6685 64.0052C12.9214 64.4005 12.8065 64.7958 12.4386 65.0516L11.427 65.7259L11.2661 65.4934L12.2087 64.8656C12.5076 64.6563 12.5995 64.3772 12.3926 64.0982C12.2087 63.8191 11.8638 63.7494 11.5649 63.9354L10.6453 64.5632L10.4844 64.3307L12.0937 63.2378Z" fill="white"/>
<path d="M12.3239 66.0498L13.2206 65.2824L13.0366 65.0731L13.2206 64.9103L13.4045 65.1196L13.8413 64.7476L14.0252 64.9801L13.5884 65.3754L13.9793 65.8405L13.7953 66.0033L13.4045 65.5382L12.5538 66.2823C12.3699 66.4451 12.3929 66.5846 12.5308 66.7474C12.5998 66.8171 12.6688 66.8636 12.7607 66.9101L12.5768 67.0729C12.4619 67.0264 12.3699 66.9567 12.2779 66.8636C12.048 66.6078 12.025 66.3055 12.3239 66.0498Z" fill="white"/>
<path d="M15.474 66.376L15.7269 66.562L15.6579 68.306L17.2673 67.7014L17.5202 67.8875L15.9798 70.0268L15.7499 69.8408L16.9914 68.0967L15.382 68.6781H15.359L15.405 66.9573L14.1635 68.7013L13.9336 68.5386L15.474 66.376Z" fill="white"/>
<path d="M17.6827 70.6567C17.9127 70.773 18.1426 70.7497 18.3495 70.68L18.4414 70.9125C18.1656 71.0288 17.8897 71.052 17.5678 70.8892C17.085 70.6567 16.8781 70.0986 17.131 69.5405C17.3609 69.0289 17.9127 68.7964 18.3955 69.029C18.9013 69.2847 19.0162 69.8428 18.7633 70.3544C18.7633 70.3777 18.7403 70.4009 18.7173 70.4474L17.3379 69.7731C17.1999 70.1684 17.3839 70.5172 17.6827 70.6567ZM18.5564 70.0986C18.6714 69.7731 18.6254 69.401 18.2805 69.2382C17.9816 69.0987 17.6368 69.2382 17.4298 69.5638L18.5564 70.0986Z" fill="white"/>
<path d="M19.2213 70.5161C19.4052 69.8882 19.934 69.6557 20.3939 69.7952C20.7387 69.8882 20.8997 70.144 20.9916 70.3998L21.3135 69.2604L21.5894 69.3301L20.8307 71.9811L20.5548 71.9113L20.6697 71.5392C20.4628 71.7253 20.1869 71.8415 19.8421 71.7485C19.3823 71.6322 19.0374 71.1439 19.2213 70.5161ZM20.8307 70.9811C20.9456 70.5393 20.7157 70.144 20.3709 70.051C20.003 69.9347 19.6352 70.1208 19.5202 70.5858C19.4052 71.0277 19.6122 71.3997 19.957 71.4927C20.3019 71.609 20.7157 71.423 20.8307 70.9811Z" fill="white"/>
<path d="M21.9342 70.2134L22.2101 70.2599L21.8882 72.1899L21.6123 72.1434L21.9342 70.2134ZM22.0261 69.4692L22.348 69.5157L22.302 69.8413L21.9802 69.7948L22.0261 69.4692Z" fill="white"/>
<path d="M22.6015 71.3301C22.6245 70.772 23.0844 70.3302 23.6591 70.3534C24.027 70.3767 24.2339 70.5394 24.4178 70.7487L24.2109 70.9348C24.073 70.772 23.912 70.6092 23.6361 70.6092C23.2453 70.586 22.9234 70.9115 22.9004 71.3301C22.8774 71.7486 23.1533 72.0974 23.5672 72.144C23.8201 72.1672 24.004 72.0509 24.1649 71.8882L24.3489 72.0742C24.1419 72.2835 23.889 72.423 23.5442 72.3997C22.9694 72.3765 22.5786 71.8649 22.6015 71.3301Z" fill="white"/>
<path d="M24.7861 69.6561L25.108 69.6328L25.131 69.9584L24.8091 69.9816L24.7861 69.6561ZM24.8321 70.4234L25.131 70.4002L25.223 72.3535L24.9241 72.3767L24.8321 70.4234Z" fill="white"/>
<path d="M25.7061 70.375L25.9819 70.3285L26.0279 70.654C26.1199 70.4215 26.3038 70.2354 26.6257 70.1657C27.0855 70.0959 27.4074 70.375 27.4764 70.8168L27.6603 72.026L27.3844 72.0725L27.2235 70.9331C27.1775 70.5843 26.9476 70.375 26.6027 70.4215C26.2808 70.468 26.0739 70.747 26.1199 71.1191L26.2808 72.2353L26.0049 72.2818L25.7061 70.375Z" fill="white"/>
<path d="M29.2232 71.3998C29.4761 71.3068 29.6141 71.1673 29.729 70.958L29.9589 71.051C29.844 71.3301 29.66 71.5393 29.3152 71.6556C28.8094 71.8184 28.2806 71.5626 28.0967 70.9813C27.9357 70.4464 28.1656 69.8883 28.6714 69.7256C29.2232 69.5395 29.66 69.8883 29.844 70.4464C29.844 70.4697 29.867 70.4929 29.867 70.5394L28.3955 71.0045C28.5565 71.3766 28.9013 71.4928 29.2232 71.3998ZM29.4991 70.3767C29.3612 70.0511 29.0853 69.8186 28.7174 69.9348C28.3955 70.0279 28.2346 70.3767 28.3266 70.7487L29.4991 70.3767Z" fill="white"/>
</g>
<defs>
<clipPath id="clip0_2400_1493">
<rect width="46.9015" height="79.0625" fill="white" transform="translate(0.573242 0.755859)"/>
</clipPath>
</defs>
</svg>
