<svg width="50" height="27" viewBox="0 0 50 27" fill="none" xmlns="http://www.w3.org/2000/svg">
<g clip-path="url(#clip0_2097_12287)">
<mask id="mask0_2097_12287" style="mask-type:luminance" maskUnits="userSpaceOnUse" x="0" y="0" width="50" height="27">
<path d="M49.9094 0H0.462891V26.4976H49.9094V0Z" fill="white"/>
</mask>
<g mask="url(#mask0_2097_12287)">
<path d="M10.3704 21.9555H6.75711C5.21446 21.9555 4.63855 20.5849 4.63855 18.6955L4.63596 8.84082H0.464844V18.6955C0.464844 22.9298 3.40521 26.1214 7.30455 26.1214H14.548V8.84082H10.3704V21.9555Z" fill="#111111"/>
<path d="M21.7238 13.0068H25.3371C26.8798 13.0068 27.4557 14.3773 27.4557 16.2667L27.457 26.1214H31.6281V16.2667C31.6281 12.0324 28.6878 8.84082 24.7884 8.84082H17.5449V26.1214H21.7225V13.0068H21.7238Z" fill="#111111"/>
<path d="M34.627 26.1202H38.8706V7.44971L34.627 9.21261V26.1202Z" fill="#111111"/>
<path d="M49.6859 22.7356L49.6561 22.7369C49.3416 22.7782 49.0013 22.7976 48.6467 22.7976C47.7213 22.7976 47.0639 22.5433 46.6912 22.0426C46.3042 21.5212 46.1075 20.6178 46.1075 19.357V12.4461H49.9072V8.84027H46.1075V4.44336L41.8652 6.20625V19.3892C41.8652 20.4862 41.9623 21.4761 42.1538 22.333C42.3479 23.2067 42.6896 23.963 43.1684 24.5798C43.6499 25.2032 44.3099 25.6858 45.1291 26.0124C45.9367 26.335 46.9526 26.4976 48.1458 26.4976C48.6997 26.4976 49.2278 26.4628 49.717 26.3956L49.9085 26.3685V22.7356H49.6859Z" fill="#111111"/>
<path d="M34.627 0V5.94042L38.8706 4.17752V0H34.627Z" fill="#111111"/>
</g>
</g>
<defs>
<clipPath id="clip0_2097_12287">
<rect width="50" height="27" fill="white"/>
</clipPath>
</defs>
</svg>
