<svg width="173" height="29" viewBox="0 0 173 29" fill="none" xmlns="http://www.w3.org/2000/svg">
<g clip-path="url(#clip0_2097_12542)">
<mask id="mask0_2097_12542" style="mask-type:luminance" maskUnits="userSpaceOnUse" x="0" y="0" width="173" height="29">
<path d="M172.789 0H0.214844V28.5359H172.789V0Z" fill="white"/>
</mask>
<g mask="url(#mask0_2097_12542)">
<mask id="mask1_2097_12542" style="mask-type:luminance" maskUnits="userSpaceOnUse" x="0" y="0" width="30" height="29">
<path d="M29.4429 0H0.214844V28.5359H29.4429V0Z" fill="white"/>
</mask>
<g mask="url(#mask1_2097_12542)">
<path d="M1.79918 17.796C1.14536 17.1575 0.706891 16.4203 0.483765 15.5842C0.265828 14.7431 0.265828 13.9019 0.483765 13.0608C0.706891 12.2146 1.14276 11.4748 1.79139 10.8414C2.45039 10.1979 3.21057 9.76967 4.07195 9.55685C4.93332 9.34403 5.79469 9.34403 6.65606 9.55685C7.51743 9.76967 8.27502 10.1954 8.92883 10.8338L10.5477 12.4147L12.945 10.0737L11.3261 8.49276C10.6723 7.85431 10.2338 7.11704 10.0107 6.28097C9.79277 5.43983 9.7902 4.60123 10.0029 3.76516C10.2208 2.92402 10.6593 2.18168 11.3183 1.53816C11.9721 0.899704 12.7297 0.474073 13.5911 0.261255C14.4524 0.0484367 15.3112 0.0509633 16.1674 0.268849C17.0288 0.481666 17.7864 0.907311 18.4402 1.54577C19.094 2.18422 19.5299 2.92402 19.7478 3.76516C19.9709 4.60123 19.9735 5.43983 19.7556 6.28097C19.5428 7.12717 19.1095 7.86951 18.4557 8.50796L16.8445 10.0813L19.2341 12.4147L20.8452 10.8414C21.4991 10.2029 22.2541 9.77473 23.1103 9.55685C23.9716 9.34403 24.8304 9.34656 25.6866 9.56444C26.5479 9.77726 27.3081 10.2055 27.9671 10.849C28.6209 11.4875 29.0568 12.2273 29.2747 13.0684C29.4979 13.9045 29.4979 14.7405 29.2747 15.5766C29.0568 16.4178 28.6209 17.1575 27.9671 17.796C27.3081 18.4395 26.5479 18.8677 25.6866 19.0805C24.8304 19.2883 23.9716 19.2857 23.1103 19.0729C22.2593 18.8601 21.5068 18.4345 20.853 17.796L19.2419 16.2227L16.8445 18.5637L18.4557 20.137C19.1095 20.7754 19.5428 21.5127 19.7556 22.3488C19.9735 23.1899 19.9735 24.0311 19.7556 24.8722C19.5376 25.7133 19.0992 26.4557 18.4402 27.0992C17.7916 27.7326 17.0339 28.1582 16.1674 28.3761C15.306 28.5889 14.4447 28.5889 13.5833 28.3761C12.7323 28.1633 11.9799 27.7376 11.3261 27.0992C10.6671 26.4557 10.226 25.7159 10.0029 24.8798C9.78501 24.0387 9.78501 23.1975 10.0029 22.3564C10.2312 21.5152 10.6697 20.778 11.3183 20.1446L12.945 18.5561L10.5555 16.2227L8.92883 17.8112C8.28021 18.4446 7.52002 18.8677 6.64827 19.0805C5.7869 19.2933 4.92554 19.2933 4.06417 19.0805C3.20799 18.8626 2.45299 18.4345 1.79918 17.796ZM3.74503 15.8958C4.04081 16.1847 4.38328 16.3772 4.77245 16.4735C5.16682 16.5748 5.55859 16.5774 5.94776 16.4811C6.33694 16.3848 6.67941 16.1923 6.97518 15.9034L8.60192 14.3149L6.98296 12.734C6.68719 12.4451 6.34212 12.2551 5.94776 12.1639C5.55859 12.0676 5.16942 12.0676 4.78024 12.1639C4.39107 12.2602 4.046 12.4553 3.74503 12.7492C3.44926 13.038 3.2495 13.3699 3.14572 13.7449C3.04712 14.1249 3.04713 14.5049 3.14572 14.885C3.2495 15.2701 3.44926 15.607 3.74503 15.8958ZM13.272 6.59259L14.8909 8.17353L16.5021 6.6002C16.803 6.30631 17.0002 5.97188 17.0936 5.59691C17.1922 5.21688 17.1896 4.83431 17.0859 4.44921C16.9873 4.06918 16.7901 3.73475 16.4943 3.44592C16.1985 3.1571 15.8561 2.96455 15.4669 2.86828C15.0777 2.772 14.6885 2.772 14.2994 2.86828C13.9154 2.95948 13.5729 3.15203 13.272 3.44592C12.9762 3.73475 12.7738 4.06918 12.6648 4.44921C12.5663 4.82924 12.5663 5.20927 12.6648 5.58931C12.7738 5.96934 12.9762 6.30377 13.272 6.59259ZM20.7319 14.3225L22.3431 15.8958C22.6388 16.1847 22.9787 16.3797 23.3627 16.4811C23.7519 16.5774 24.5943 16.5748 24.9783 16.4735C25.3675 16.3772 25.7125 16.1821 26.0135 15.8882C26.3144 15.5943 26.5116 15.2599 26.605 14.885C26.7088 14.51 26.7114 14.1325 26.6128 13.7524C26.5142 13.3724 26.317 13.038 26.0213 12.7492C25.7203 12.4553 25.3752 12.2602 24.9861 12.1639C24.5969 12.0676 23.7519 12.0676 23.3627 12.1639C22.9839 12.2602 22.644 12.4553 22.3431 12.7492L20.7319 14.3225ZM13.272 25.199C13.5677 25.4879 13.9102 25.6804 14.2994 25.7767C14.6885 25.873 15.0751 25.8704 15.4591 25.7691C15.8483 25.6728 16.1907 25.4802 16.4865 25.1914C16.7875 24.8975 16.9873 24.5606 17.0859 24.1805C17.1896 23.8056 17.1922 23.4281 17.0936 23.048C17.0002 22.6629 16.8056 22.326 16.5099 22.0372L14.8987 20.4638L13.272 22.0524C12.9762 22.3412 12.7764 22.6731 12.6726 23.048C12.574 23.4281 12.574 23.8081 12.6726 24.1881C12.7712 24.5682 12.971 24.9051 13.272 25.199ZM12.5014 14.3225L14.8909 16.6559L17.2882 14.3149L14.8987 11.9815L12.5014 14.3225Z" fill="#111111"/>
</g>
<path d="M47.4899 10.9098C46.8253 8.96335 45.0808 7.15207 42.3672 7.15207C38.7399 7.15207 36.1094 10.315 36.1094 14.7486C36.1094 19.1822 38.7122 22.3722 42.3672 22.3722C44.6378 22.3722 46.6315 20.9394 47.4899 18.9389V22.0478H50.9234V1.50195H47.4899V10.9098ZM43.6133 19.9932C41.0381 19.9932 39.626 17.9657 39.626 14.7486C39.626 11.5586 41.0381 9.53106 43.6133 9.53106C46.1884 9.53106 47.6006 11.5586 47.6006 14.7486C47.6006 17.9657 46.1884 19.9932 43.6133 19.9932Z" fill="#111111"/>
<path d="M59.6589 19.9933L55.1178 7.47656H51.6289L56.4192 20.4799H59.4928L57.3053 27.3466H60.8773L67.2736 7.47656H63.6463L59.6589 19.9933Z" fill="#111111"/>
<path d="M85.4683 7.15234C82.81 7.15234 81.3702 8.96362 80.761 10.7479C80.2072 8.88251 78.712 7.15234 76.1368 7.15234C73.617 7.15234 72.2602 8.72031 71.5957 10.4776V7.47674H68.1621V22.0481H71.6234V13.5865C71.6234 10.802 72.6202 9.55837 74.5862 9.55837C76.5245 9.55837 77.5213 10.802 77.5213 13.5324V22.0481H80.9825V13.5865C80.9825 10.802 81.9794 9.55837 83.9453 9.55837C85.8836 9.55837 86.8804 10.802 86.8804 13.5324V22.0481H90.3417V12.8836C90.3417 9.55836 88.791 7.15234 85.4683 7.15234Z" fill="#111111"/>
<path d="M106.525 14.6678C106.525 10.1261 103.645 7.15234 99.2421 7.15234C94.7563 7.15234 91.9043 10.2883 91.9043 14.7489C91.9043 19.1825 94.6733 22.3725 99.2421 22.3725C102.731 22.3725 105.251 20.8586 106.193 17.7497H102.676C102.15 19.1555 101.181 19.9935 99.2698 19.9935C97.1653 19.9935 95.6978 18.5607 95.4209 15.7492H106.442C106.497 15.3707 106.525 14.9922 106.525 14.6678ZM99.2421 9.53133C101.375 9.53133 102.814 11.0723 102.981 13.3972H95.4486C95.8086 10.7749 97.2207 9.53133 99.2421 9.53133Z" fill="#111111"/>
<path d="M116.365 7.15234C113.79 7.15234 112.323 8.66624 111.63 10.4505V7.47674H108.197V22.0481H111.658V13.5865C111.658 10.802 112.877 9.55837 114.815 9.55837C116.781 9.55837 117.971 10.7749 117.971 13.5324V22.0481H121.433V12.8836C121.433 9.63947 119.799 7.15234 116.365 7.15234Z" fill="#111111"/>
<path d="M129.442 22.3725C133.263 22.3725 136.059 20.6964 136.059 17.8038C136.059 15.4788 134.703 14.1271 131.574 13.4783L129.22 12.9917C127.42 12.6132 126.506 12.2618 126.506 11.2615C126.506 10.1531 127.863 9.53133 129.358 9.53133C130.688 9.53133 131.906 10.1261 132.294 11.2075H135.782C135.146 8.50404 132.487 7.15234 129.331 7.15234C125.925 7.15234 123.156 8.85548 123.156 11.5319C123.156 13.7487 124.817 14.9652 127.531 15.5329L129.885 16.0466C132.044 16.4791 132.737 17.0198 132.737 18.1282C132.737 19.2636 131.629 19.9935 129.525 19.9935C128.112 19.9935 126.673 19.4799 126.313 17.7227H122.824C123.267 20.8046 125.953 22.3725 129.442 22.3725Z" fill="#111111"/>
<path d="M141.232 5.23265V1.50195H137.605V5.23265H141.232ZM141.149 22.0478V7.47647H137.688V22.0478H141.149Z" fill="#111111"/>
<path d="M150.359 22.3725C154.983 22.3725 157.891 19.2636 157.891 14.7489C157.891 10.2613 154.983 7.15234 150.359 7.15234C145.762 7.15234 142.855 10.2613 142.855 14.7489C142.855 19.2636 145.762 22.3725 150.359 22.3725ZM150.359 19.9935C147.811 19.9935 146.372 17.966 146.372 14.7489C146.372 11.5589 147.811 9.53133 150.359 9.53133C152.934 9.53133 154.346 11.5589 154.346 14.7489C154.346 17.966 152.934 19.9935 150.359 19.9935Z" fill="#111111"/>
<path d="M167.723 7.15234C165.148 7.15234 163.681 8.66624 162.988 10.4505V7.47674H159.555V22.0481H163.016V13.5865C163.016 10.802 164.234 9.55837 166.173 9.55837C168.139 9.55837 169.329 10.7749 169.329 13.5324V22.0481H172.791V12.8836C172.791 9.63947 171.157 7.15234 167.723 7.15234Z" fill="#111111"/>
</g>
</g>
<defs>
<clipPath id="clip0_2097_12542">
<rect width="173" height="29" fill="white"/>
</clipPath>
</defs>
</svg>
