<svg width="185" height="34" viewBox="0 0 185 34" fill="none" xmlns="http://www.w3.org/2000/svg">
<g clip-path="url(#clip0_2400_1614)">
<path d="M3.83032 26.8742C3.14983 26.8757 2.48113 26.6945 1.89256 26.3491C1.30398 26.0036 0.816612 25.5064 0.480247 24.9081C0.14903 24.314 -0.0161566 23.64 0.00238177 22.9583C0.0209201 22.2766 0.222485 21.6128 0.585485 21.038L7.48442 10.0811C7.83752 9.49227 8.33883 9.00874 8.93716 8.67994C9.5355 8.35115 10.2094 8.18886 10.89 8.20966C11.5702 8.22615 12.2337 8.42509 12.8129 8.78613C13.392 9.14717 13.8659 9.65734 14.186 10.2644C14.8292 11.4944 14.7488 12.9741 13.9785 14.1286L7.08393 25.0855C6.7343 25.6365 6.25279 26.0893 5.68403 26.402C5.11527 26.7147 4.47767 26.8771 3.83032 26.8742Z" fill="white"/>
<path d="M15.6642 26.8737C14.2727 26.8737 12.9923 26.1213 12.3199 24.9121C11.9895 24.3196 11.8247 23.6474 11.8432 22.9674C11.8617 22.2875 12.0629 21.6254 12.4252 21.0523L19.311 10.1206C19.6589 9.52342 20.1584 9.03128 20.7577 8.69519C21.3571 8.3591 22.0344 8.19129 22.7195 8.20918C24.1227 8.24022 25.3943 9.03405 26.0374 10.2758C26.6762 11.5175 26.5826 13.0061 25.7889 14.1577L18.9046 25.0894C18.5561 25.6381 18.0765 26.0892 17.5102 26.401C16.9439 26.7128 16.309 26.8754 15.6642 26.8737Z" fill="white"/>
<path d="M27.2324 26.9648C29.194 26.9648 30.7842 25.3903 30.7842 23.4481C30.7842 21.5058 29.194 19.9313 27.2324 19.9313C25.2709 19.9313 23.6807 21.5058 23.6807 23.4481C23.6807 25.3903 25.2709 26.9648 27.2324 26.9648Z" fill="white"/>
<path d="M181.532 20.136C182.605 20.136 183.246 20.9077 183.246 22.1716V26.5029H184.704V22.0725C184.704 19.9231 183.702 18.677 181.82 18.677C181.083 18.677 179.914 18.881 179.217 20.2513C179.055 19.8471 178.787 19.4949 178.443 19.232C178.099 18.9691 177.691 18.8054 177.262 18.7583C176.993 18.7083 176.718 18.6919 176.444 18.7095C175.845 18.7583 174.778 19.1352 174.379 19.9897V18.841H172.92V26.5029H174.379V22.3682C174.379 20.7598 175.419 20.136 176.461 20.136C177.438 20.136 178.079 20.8914 178.079 22.1553V26.5029H179.529V22.3682C179.529 21.088 180.289 20.1212 181.532 20.136ZM167.566 25.2227C168.232 25.2375 168.876 24.9684 169.342 24.4806C169.809 23.9928 170.058 23.329 170.033 22.6476C170.033 21.1043 168.911 20.136 167.566 20.136C166.22 20.136 165.099 21.1043 165.099 22.6476C165.072 23.3276 165.321 23.9898 165.786 24.4762C166.25 24.964 166.891 25.2345 167.554 25.2227H167.566ZM167.566 26.6596C165.435 26.6596 163.656 25.0675 163.656 22.6387C163.656 20.2099 165.435 18.6681 167.566 18.6681C169.697 18.6681 171.49 20.2099 171.49 22.6387C171.49 25.0675 169.687 26.667 167.556 26.667L167.566 26.6596ZM156.15 22.6387L156.136 22.6476C156.136 20.2188 157.961 18.677 160.107 18.6681C160.646 18.6575 161.181 18.7616 161.678 18.9734C162.175 19.1853 162.622 19.5003 162.991 19.898L161.886 20.85C161.651 20.6169 161.373 20.4332 161.068 20.3093C160.763 20.1855 160.436 20.1241 160.107 20.1286C158.762 20.1286 157.593 21.0969 157.593 22.6387C157.593 23.6809 158.206 24.6196 159.145 25.0187C160.085 25.4178 161.167 25.1961 161.886 24.4599L163.007 25.4119C162.637 25.8137 162.188 26.1324 161.688 26.3474C161.189 26.5623 160.65 26.6687 160.107 26.6596C157.978 26.6596 156.15 25.0675 156.15 22.6387ZM151.483 25.032C151.482 24.898 151.506 24.7651 151.556 24.6408C151.605 24.5164 151.678 24.4031 151.771 24.3073C151.863 24.2115 151.973 24.135 152.095 24.0823C152.217 24.0296 152.348 24.0017 152.48 24.0002C152.613 24.0017 152.744 24.0296 152.865 24.0823C152.987 24.135 153.097 24.2115 153.19 24.3073C153.283 24.4031 153.356 24.5164 153.405 24.6408C153.454 24.7651 153.479 24.898 153.477 25.032C153.464 25.2914 153.354 25.536 153.169 25.716C152.983 25.8959 152.737 25.9976 152.48 26.0003C152.223 25.9976 151.977 25.8959 151.792 25.716C151.607 25.536 151.496 25.2914 151.483 25.032Z" fill="white"/>
<path fill-rule="evenodd" clip-rule="evenodd" d="M155.471 9.10017H150.281L146.643 18.5862L143.024 9.10017H137.834L144.143 24.0897L140.219 34H145.371L155.471 9.10017ZM123.906 17.4376C123.906 19.8323 125.975 21.4082 128.008 21.4082C130.006 21.4082 131.969 19.9417 131.969 17.4361C131.969 14.9304 130.006 13.4625 128.008 13.4625C125.975 13.4625 123.906 15.0413 123.906 17.4376ZM131.969 25.8075V23.9109C130.917 25.5222 128.461 26.1312 127.202 26.1312C123.03 26.1312 118.857 22.8051 118.857 17.4361C118.857 12.0685 123.029 8.74243 127.202 8.74243C128.252 8.74243 130.708 9.09722 131.969 10.9598V9.10609H136.807V25.8104L131.969 25.8075ZM117.48 25.8075H112.642V23.732C111.834 25.2694 109.874 26.1652 107.839 26.1652C103.631 26.1652 99.9142 22.7667 99.9142 17.5041C99.9142 12.1424 103.631 8.73948 107.839 8.73948C109.871 8.73948 111.837 9.59687 112.642 11.1357V0H117.48V25.8075ZM112.537 17.3991C112.537 14.895 110.749 13.427 108.751 13.427C106.682 13.427 104.963 15.0014 104.963 17.3991C104.963 19.8737 106.682 21.4407 108.75 21.4407C110.786 21.4437 112.537 19.7969 112.537 17.3991ZM87.9522 16.9675C87.9522 14.4278 89.2501 13.569 90.9675 13.569C92.6148 13.569 93.8075 14.6777 93.8075 16.895V25.8045H98.6806V15.8233C98.6806 11.0663 96.3654 8.73948 92.6835 8.73948C90.7556 8.73948 88.8277 9.84817 87.9507 11.5304V9.10017H83.0805V25.8045H87.9522V16.9675ZM73.1852 26.0913C68.5577 26.0913 64.6975 22.6573 64.6975 17.3977C64.6975 12.135 68.5533 8.73504 73.1852 8.73504C77.8172 8.73504 81.7066 12.135 81.7066 17.3977C81.7066 22.6603 77.8128 26.0913 73.1852 26.0913ZM73.1852 21.2278C75.2169 21.2278 76.9022 19.723 76.9022 17.3991C76.9022 15.1448 75.2184 13.6059 73.1852 13.6059C72.6957 13.5982 72.2097 13.6913 71.7569 13.8796C71.3041 14.0679 70.8939 14.3475 70.5514 14.7013C70.2068 15.057 69.9365 15.4791 69.7565 15.9426C69.5764 16.406 69.4904 16.9014 69.5034 17.3991C69.5048 19.7259 71.1872 21.2278 73.1852 21.2278ZM55.9613 13.5704C57.3981 13.5704 58.6609 14.7161 58.6609 16.8965V25.8075H63.499V16.32C63.499 11.2762 61.0741 8.73652 57.1876 8.73652C56.0329 8.73652 53.858 9.0913 52.2794 11.7049C51.3674 9.77278 49.6149 8.77052 47.0248 8.77052C46.1256 8.7659 45.2441 9.02329 44.4857 9.51194C43.7272 10.0006 43.124 10.6998 42.7481 11.526V9.10165H37.8721V25.806H42.7437V16.9675C42.7437 14.4278 44.1118 13.569 45.5837 13.569C46.9868 13.569 48.2468 14.6777 48.2833 16.7886V25.806H53.1564V16.9675C53.1564 14.5387 54.4193 13.5704 55.9613 13.5704Z" fill="white"/>
</g>
<defs>
<clipPath id="clip0_2400_1614">
<rect width="184.703" height="34" fill="white"/>
</clipPath>
</defs>
</svg>
