<svg width="128" height="35" viewBox="0 0 128 35" fill="none" xmlns="http://www.w3.org/2000/svg">
<g clip-path="url(#clip0_2097_12694)">
<path fill-rule="evenodd" clip-rule="evenodd" d="M21.9326 29.6862C15.4697 29.6862 9.73209 25.9652 6.96437 23.8224L21.9326 7.77866L36.9014 23.8224C34.132 25.9661 28.3951 29.6862 21.9326 29.6862ZM26.3708 20.7241L21.8922 16.1566L17.4137 20.7241L21.8922 25.2915L26.3708 20.7241ZM1.9844 25.6966C2.34675 26.05 10.9931 34.3487 21.9326 34.3487C32.8727 34.3487 41.519 26.05 41.8814 25.6966L43.5201 24.1007L21.9326 0.962891L0.345703 24.1007L1.9844 25.6966ZM71.6106 7.47953L67.2264 7.48071L67.2319 27.6343L71.616 27.6331L71.6106 7.47953ZM59.303 16.6608C59.8853 17.137 60.3223 17.7748 60.6136 18.5749L60.6143 21.6895C60.2505 22.3373 59.8232 22.8469 59.3318 23.2187C58.8407 23.5902 58.2583 23.7761 57.5852 23.7763C57.0938 23.7765 56.6389 23.6765 56.2204 23.4768C55.8013 23.2769 55.4421 23.0055 55.1416 22.6627C54.8413 22.3198 54.6047 21.9153 54.4318 21.4485C54.2585 20.9819 54.1722 20.4725 54.1722 19.9198C54.172 19.4055 54.249 18.9102 54.4036 18.4338C54.558 17.9579 54.7809 17.5336 55.0722 17.1621C55.3629 16.7905 55.704 16.4953 56.0955 16.2761C56.4864 16.057 56.9185 15.9471 57.3921 15.9469C58.0832 15.9467 58.7202 16.185 59.303 16.6608ZM53.6965 27.0492C54.5241 27.4393 55.4388 27.6346 56.4395 27.6344C57.4222 27.6339 58.2548 27.4194 58.9372 26.9906C59.6194 26.5617 60.1789 25.9379 60.6153 25.1185L60.6159 27.3473L64.9834 27.3459L64.9793 12.5444L60.6118 12.5456L60.6124 14.8031C60.1756 13.9652 59.5519 13.2986 58.7423 12.8033C57.9323 12.3084 57.0177 12.0609 55.9989 12.0613C55.0885 12.0615 54.2474 12.2618 53.474 12.662C52.7006 13.0623 52.032 13.6103 51.4684 14.3058C50.9042 15.0014 50.4631 15.8253 50.145 16.7777C49.8266 17.7307 49.6679 18.7496 49.6681 19.8353C49.6685 20.9595 49.8324 21.9929 50.1603 22.9356C50.4882 23.8784 50.9522 24.7025 51.553 25.4067C52.1537 26.1117 52.868 26.6592 53.6965 27.0492ZM73.8108 19.7841C73.8106 18.7486 73.9812 17.7562 74.3224 16.8069C74.6634 15.8577 75.1582 15.0235 75.805 14.3042C76.4521 13.5849 77.2475 13.0144 78.191 12.592C79.1347 12.1703 80.2086 11.9586 81.413 11.9584C83.0488 11.9577 84.4242 12.3268 85.5392 13.0643C86.6539 13.8025 87.49 14.7659 88.0478 15.9544L83.8417 17.3076C83.2841 16.3491 82.4661 15.8696 81.3875 15.87C80.4882 15.8702 79.738 16.2256 79.1358 16.935C78.5335 17.6449 78.2332 18.5941 78.2335 19.7829C78.2336 20.3774 78.3145 20.919 78.4765 21.4078C78.6382 21.8969 78.863 22.3137 79.1508 22.6588C79.4384 23.0039 79.7754 23.2724 80.1625 23.464C80.5487 23.6558 80.9579 23.7513 81.3894 23.7511C81.9287 23.7509 82.4229 23.612 82.8724 23.3337C83.3214 23.0558 83.6543 22.6961 83.8697 22.2547L88.077 23.6341C87.5556 24.8042 86.7246 25.7629 85.5833 26.5113C84.4417 27.2595 83.0528 27.6336 81.4173 27.6343C80.2307 27.6347 79.1656 27.4191 78.2219 26.9879C77.2778 26.5568 76.4776 25.9817 75.8214 25.2629C75.1647 24.544 74.6656 23.7099 74.3242 22.7609C73.9822 21.8119 73.8112 20.8196 73.8108 19.7841ZM89.1757 13.1404L89.1798 27.6343L93.564 27.6331L93.5601 13.1392L89.1757 13.1404ZM89.1753 11.484L89.1744 7.48092L93.5585 7.47953L93.5595 11.4826L89.1753 11.484ZM105.4 17.1761C106.013 17.6299 106.466 18.2289 106.758 18.973L106.759 21.9685C106.467 22.5861 106.046 23.0718 105.498 23.4259C104.949 23.7801 104.355 23.9573 103.715 23.9573C103.221 23.9575 102.764 23.8671 102.343 23.6857C101.922 23.5042 101.561 23.2501 101.259 22.9233C100.958 22.5966 100.72 22.2064 100.546 21.7526C100.372 21.299 100.285 20.8088 100.285 20.2821C100.285 19.7918 100.362 19.3152 100.518 18.8521C100.673 18.3892 100.897 17.9854 101.19 17.64C101.482 17.2954 101.82 17.0182 102.204 16.8092C102.588 16.6007 103.018 16.4959 103.493 16.4957C104.152 16.4955 104.787 16.7225 105.4 17.1761ZM106.76 25.291L106.761 27.3607L111.122 27.3595L111.117 7.47953L106.728 7.48069L106.73 15.4054C106.273 14.607 105.641 13.9718 104.837 13.4997C104.032 13.0281 103.117 12.7921 102.093 12.7925C101.179 12.7927 100.333 12.9834 99.5559 13.3651C98.7789 13.7465 98.1068 14.2688 97.5404 14.9314C96.9736 15.5944 96.5348 16.3798 96.2245 17.2873C95.9134 18.1955 95.7586 19.1668 95.7588 20.2015C95.7592 21.273 95.9282 22.2576 96.2671 23.1562C96.6056 24.0547 97.0768 24.8401 97.6805 25.5114C98.2842 26.1831 99.0019 26.7051 99.8344 27.0768C100.666 27.4484 101.576 27.6346 102.564 27.6343C104.466 27.6337 105.864 26.8529 106.76 25.291ZM121.87 16.1564C122.427 16.709 122.751 17.4612 122.841 18.4136L116.749 18.4154C116.839 17.4822 117.158 16.7342 117.706 16.1719C118.254 15.61 118.95 15.3287 119.795 15.3285C120.621 15.3283 121.313 15.6043 121.87 16.1564ZM114.258 25.3311C114.914 26.0359 115.714 26.5929 116.658 27.0019C117.601 27.4111 118.666 27.6157 119.852 27.6155C121.487 27.6149 122.888 27.2432 124.057 26.4997C125.224 25.7564 126.086 24.7945 126.643 23.6131L122.977 22.5282C122.779 23.0809 122.389 23.519 121.805 23.8429C121.221 24.1674 120.614 24.3291 119.986 24.3293C119.195 24.3295 118.49 24.0681 117.869 23.5441C117.249 23.0207 116.903 22.2542 116.831 21.2442L127.29 21.2411C127.325 21.051 127.352 20.8266 127.37 20.5695C127.388 20.3124 127.397 20.0508 127.397 19.7837C127.397 18.755 127.23 17.7741 126.898 16.8407C126.565 15.9077 126.075 15.0836 125.428 14.3694C124.781 13.6552 123.99 13.0891 123.055 12.6701C122.121 12.2515 121.051 12.042 119.847 12.0424C118.644 12.0426 117.57 12.2529 116.627 12.6719C115.684 13.0913 114.889 13.6631 114.242 14.3871C113.595 15.1114 113.101 15.9545 112.76 16.9164C112.419 17.8785 112.248 18.9024 112.248 19.9883C112.249 20.9982 112.419 21.9647 112.761 22.8883C113.103 23.8126 113.602 24.6269 114.258 25.3311Z" fill="#111111"/>
</g>
<defs>
<clipPath id="clip0_2097_12694">
<rect width="128" height="35" fill="white"/>
</clipPath>
</defs>
</svg>
