<svg width="190" height="35" viewBox="0 0 190 35" fill="none" xmlns="http://www.w3.org/2000/svg">
<g clip-path="url(#clip0_2097_12799)">
<path d="M183.41 12.9617C183.41 11.3394 184.677 10.1226 186.298 10.1226C187.919 10.1226 189.185 11.3394 189.185 12.9617C189.185 14.584 187.919 15.8007 186.298 15.8007C184.677 15.75 183.41 14.5333 183.41 12.9617ZM186.298 15.2938C187.615 15.2938 188.628 14.3305 188.628 12.9617C188.628 11.5929 187.615 10.5789 186.298 10.5789C184.98 10.5789 183.967 11.5422 183.967 12.911C183.967 14.2798 184.98 15.2938 186.298 15.2938ZM185.082 11.3901H186.45C187.209 11.3901 187.615 11.6943 187.615 12.3026C187.615 12.7082 187.361 13.0124 186.956 13.0631C187.716 13.2152 187.463 14.3812 187.665 14.4319V14.4826H186.855C186.652 14.3305 186.956 13.3673 186.196 13.3673H185.892V14.4826H185.082V11.3901ZM186.196 12.7589C186.5 12.7589 186.804 12.7082 186.804 12.3533C186.804 11.9984 186.5 11.9477 186.196 11.9477H185.892V12.7589H186.196Z" fill="#111111"/>
<path d="M35.7871 8.43506L42.4378 27.3073H47.5866L54.2372 8.43506H50.1611L45.7631 22.2408C45.5485 22.9378 45.3608 23.9564 45.334 24.8947C45.334 25.0823 45.2804 25.27 45.0122 25.27C44.744 25.27 44.6904 25.0555 44.6904 24.8947C44.6636 23.9564 44.4758 22.9378 44.2613 22.2408L39.8633 8.43506H35.7871Z" fill="#111111"/>
<path d="M55.3105 11.4372H58.7431V8.00586H55.3105V11.4372ZM55.3105 27.307H58.7431V13.1529H55.3105V27.307Z" fill="#111111"/>
<path d="M60.6855 22.5354C60.8196 25.5647 62.9918 27.5216 67.0948 27.5216C71.2782 27.5216 73.5577 25.8327 73.5577 22.8839C73.5577 20.0424 71.0637 18.9165 67.6043 18.568C64.8422 18.2999 64.5472 17.737 64.5472 17.0668C64.5472 16.2626 65.1372 15.6192 67.0948 15.6192C69.0793 15.6192 69.6692 16.6111 69.7497 17.4957H73.1286C72.9409 14.9222 70.9028 12.9385 67.1752 12.9385C63.1527 12.9385 61.1146 14.949 61.1146 17.2544C61.1146 18.8361 61.6778 21.0879 66.0221 21.624C68.7306 21.9457 70.1251 22.1065 70.1251 23.152C70.1251 24.0903 69.4011 24.8409 67.2021 24.8409C64.7081 24.8409 64.0913 23.5809 64.0645 22.5354H60.6855Z" fill="#111111"/>
<path d="M75.502 11.4372H78.9345V8.00586H75.502V11.4372ZM75.502 27.307H78.9345V13.1529H75.502V27.307Z" fill="#111111"/>
<path d="M87.7478 12.9385C83.3229 12.9385 80.668 16.209 80.668 20.23C80.668 24.2511 83.3229 27.5216 87.7478 27.5216C92.1726 27.5216 94.8274 24.2511 94.8274 20.23C94.8274 16.209 92.1726 12.9385 87.7478 12.9385ZM87.7478 24.412C85.4147 24.412 84.1006 22.5354 84.1006 20.23C84.1006 17.9246 85.4147 16.0481 87.7478 16.0481C90.0808 16.0481 91.3949 17.9246 91.3949 20.23C91.3949 22.5354 90.0808 24.412 87.7478 24.412Z" fill="#111111"/>
<path d="M104.765 12.9385C102.298 12.9385 100.689 14.9222 100.045 16.343C99.9375 16.5575 99.8571 16.7183 99.6426 16.6647C99.2939 16.5843 99.4548 16.209 99.5621 15.9677C99.8303 15.4047 99.9912 14.8954 99.9912 14.0376V13.153H96.5586V27.3071H99.9912V21.5436C99.9912 18.2731 101.815 16.0481 103.8 16.0481C105.596 16.0481 106.428 16.9328 106.428 20.1228V27.3071H109.86V18.9433C109.86 14.9222 107.822 12.9385 104.765 12.9385Z" fill="#111111"/>
<path d="M111.57 17.8708C111.57 23.2054 114.949 27.5214 120.902 27.5214C126.775 27.5214 129.35 23.3663 129.591 20.2298H125.971C125.729 22.0795 124.174 24.3045 120.956 24.3045C117.309 24.3045 115.217 21.4362 115.217 17.8708C115.217 14.3055 117.309 11.4371 120.956 11.4371C124.174 11.4371 125.729 13.6621 125.971 15.5118H129.591C129.35 12.3753 126.775 8.22021 120.902 8.22021C114.949 8.22021 111.57 12.5362 111.57 17.8708Z" fill="#111111"/>
<path d="M130.871 23.4201C130.871 25.8059 133.15 27.5216 135.805 27.5216C138.326 27.5216 139.882 26.3957 140.686 24.4388C140.74 24.3047 140.847 24.0366 141.115 24.1439C141.356 24.2511 141.249 24.5192 141.142 24.7604C140.901 25.2162 140.74 25.6719 140.74 26.3153V27.3071H144.172V19.4794C144.172 14.0108 141.249 12.9385 138.004 12.9385C134.84 12.9385 131.783 14.3057 131.3 17.871H134.679C134.867 16.7183 135.484 15.7264 137.897 15.7264C140.337 15.7264 140.713 16.7987 140.74 17.7638C140.767 19.0773 138.541 18.8361 136.02 18.9701C133.177 19.1309 130.871 20.2837 130.871 23.4201ZM140.74 20.0156C140.713 23.5273 138.836 24.7068 137.012 24.9481C135.43 25.1625 134.304 24.412 134.304 23.2324C134.304 21.9725 135.135 21.4095 136.61 21.2487C138.648 21.0343 139.935 20.9002 140.74 20.0156Z" fill="#111111"/>
<path d="M162.263 12.9385C160.573 12.9385 159.152 13.9572 158.347 15.7532C158.267 15.9409 158.133 15.9945 157.972 15.9945C157.757 15.9945 157.623 15.9141 157.57 15.7264C157.194 14.0912 156.014 12.9385 154.164 12.9385C152.287 12.9385 150.973 14.0912 150.249 15.9409C150.195 16.0749 150.088 16.3162 149.819 16.2358C149.551 16.1554 149.632 15.8873 149.739 15.646C150.007 15.0563 150.195 14.6542 150.195 13.9572V13.153H146.762V27.3071H150.195V20.7662C150.195 18.0319 151.429 16.0481 153.091 16.0481C154.834 16.0481 155.129 17.2276 155.129 19.3722V27.3071H158.562V20.1764C158.562 17.6566 159.715 16.0481 161.217 16.0481C162.879 16.0481 163.496 16.906 163.496 19.0505V27.3071H166.929V18.5144C166.929 14.2789 164.73 12.9385 162.263 12.9385Z" fill="#111111"/>
<path d="M172.716 13.153H169.283V32.4541H172.716V26.6906C172.716 26.1544 172.582 25.7255 172.341 25.243C172.207 24.9749 172.099 24.7068 172.394 24.5996C172.636 24.5192 172.743 24.7873 172.797 24.8677C173.655 26.4225 175.13 27.5216 177.275 27.5216C180.949 27.5216 183.443 24.3047 183.443 20.23C183.443 16.1554 180.949 12.9385 177.275 12.9385C175.076 12.9385 173.655 14.0644 172.797 15.5656C172.743 15.6728 172.582 16.0213 172.314 15.8873C172.046 15.7532 172.233 15.4316 172.341 15.1635C172.582 14.681 172.716 14.252 172.716 13.6891V13.153ZM176.47 24.412C174.218 24.412 172.716 22.4818 172.716 20.23C172.716 17.9782 174.218 16.0481 176.47 16.0481C178.884 16.0481 180.01 17.9782 180.01 20.23C180.01 22.4818 178.884 24.412 176.47 24.412Z" fill="#111111"/>
<path d="M21.0553 9.16965C20.914 9.35997 20.7727 9.5503 20.6455 9.795C20.7162 9.5367 20.7586 9.292 20.7868 9.07448L21.3237 1.76051L18.441 0.686523L18.0312 11.4808L21.3944 12.7315L28.7565 4.52024L25.8598 3.44626L21.0553 9.16965Z" fill="#111111"/>
<path d="M8.81759 14.2407C9.01542 14.3766 9.21326 14.5125 9.46761 14.6349C9.19912 14.5669 8.94477 14.5261 8.71868 14.499L1.11633 13.9824L0 16.7557L11.2198 17.1499L12.5199 13.9144L3.98487 6.83154L2.86854 9.61846L8.81759 14.2407Z" fill="#111111"/>
<path d="M13.8484 9.26462C13.8908 9.49573 13.9191 9.72685 14.018 9.98515C13.8767 9.75404 13.7212 9.55011 13.5799 9.37338L8.59177 3.84032L5.76562 5.05025L13.4104 12.9624L16.7028 11.5622L15.8832 0.740723L13.0288 1.95065L13.8484 9.26462Z" fill="#111111"/>
<path d="M21.0825 26.5302C20.9412 26.3398 20.7999 26.1495 20.6728 25.9048C20.7293 26.1631 20.7858 26.4078 20.7999 26.6253L21.2945 33.9393L18.3977 34.9997L18.0586 24.2055L21.4217 22.9819L28.7414 31.2339L25.8305 32.2943L21.0825 26.5302Z" fill="#111111"/>
<path d="M8.87573 21.3912C9.07356 21.2552 9.27139 21.1193 9.52575 20.9969C9.25726 21.0513 9.00291 21.1057 8.77682 21.1193L1.17447 21.5951L0.0722656 18.8082L11.2921 18.4819L12.5639 21.7175L3.98649 28.7595L2.88429 25.959L8.87573 21.3912Z" fill="#111111"/>
<path d="M13.8635 26.394C13.9059 26.1629 13.9483 25.9318 14.033 25.6735C13.8917 25.9046 13.7363 26.1085 13.595 26.2716L8.56443 31.7775L5.73828 30.554L13.4396 22.6826L16.7179 24.0965L15.8277 34.9043L13.0015 33.6808L13.8635 26.394Z" fill="#111111"/>
<path d="M183.41 12.9617C183.41 11.3394 184.677 10.1226 186.298 10.1226C187.919 10.1226 189.185 11.3394 189.185 12.9617C189.185 14.584 187.919 15.8007 186.298 15.8007C184.677 15.75 183.41 14.5333 183.41 12.9617ZM186.298 15.2938C187.615 15.2938 188.628 14.3305 188.628 12.9617C188.628 11.5929 187.615 10.5789 186.298 10.5789C184.98 10.5789 183.967 11.5422 183.967 12.911C183.967 14.2798 184.98 15.2938 186.298 15.2938ZM185.082 11.3901H186.45C187.209 11.3901 187.615 11.6943 187.615 12.3026C187.615 12.7082 187.361 13.0124 186.956 13.0631C187.716 13.2152 187.463 14.3812 187.665 14.4319V14.4826H186.855C186.652 14.3305 186.956 13.3673 186.196 13.3673H185.892V14.4826H185.082V11.3901ZM186.196 12.7589C186.5 12.7589 186.804 12.7082 186.804 12.3533C186.804 11.9984 186.5 11.9477 186.196 11.9477H185.892V12.7589H186.196Z" fill="#111111"/>
</g>
<defs>
<clipPath id="clip0_2097_12799">
<rect width="190" height="35" fill="white"/>
</clipPath>
</defs>
</svg>
