<svg width="123" height="26" viewBox="0 0 123 26" fill="none" xmlns="http://www.w3.org/2000/svg">
<path d="M0 10.827V6.51565H2.32202V1.55221H7.11468V6.51565H11.4987V10.827H7.11468V17.6924C7.11468 19.0088 7.4119 19.8964 8.00633 20.3553C8.61316 20.8021 9.96922 21.0376 12.0745 21.0618L12.3717 25.5905H11.35C8.40263 25.5905 6.1611 25.0229 4.62547 23.8877C3.08984 22.7525 2.32202 20.6874 2.32202 17.6924V10.827H0Z" fill="white"/>
<path d="M13.9693 25.4818V0.103027H18.7248V8.03729C20.0994 6.9021 21.8456 6.3345 23.9633 6.3345C29.2885 6.3345 31.951 9.40193 31.951 15.5368V25.4818H27.1955V16.7324C27.1955 14.5586 26.9169 13.0007 26.3596 12.0588C25.8023 11.1168 24.6754 10.6458 22.9787 10.6458C21.666 10.6458 20.6258 11.0323 19.8579 11.8052C19.1025 12.566 18.7248 13.6227 18.7248 14.9752V25.4818H13.9693Z" fill="white"/>
<path d="M33.6415 16.0984C33.6415 13.3811 34.626 11.0745 36.5951 9.17852C38.5765 7.28251 40.9915 6.3345 43.8398 6.3345C46.8368 6.3345 49.2826 7.3127 51.1774 9.26909C53.0722 11.2255 54.0195 13.5985 54.0195 16.3882C54.0195 16.6901 53.9948 17.1128 53.9452 17.6562H38.5084C38.9171 18.888 39.6044 19.8481 40.5704 20.5365C41.5487 21.2127 42.7624 21.5509 44.2113 21.5509C45.4002 21.5509 46.3909 21.3577 47.1835 20.9712C47.9885 20.5848 48.7068 19.9749 49.3383 19.1416L53.3508 21.2973C51.2703 24.3647 48.2238 25.8984 44.2113 25.8984C41.1648 25.8984 38.6385 24.9685 36.6322 23.1088C34.6384 21.249 33.6415 18.9122 33.6415 16.0984ZM38.6199 13.9789H48.9668C48.0009 11.7569 46.2919 10.6458 43.8398 10.6458C42.7005 10.6458 41.6602 10.9538 40.719 11.5697C39.7778 12.1856 39.0781 12.9887 38.6199 13.9789Z" fill="white"/>
<path d="M55.1898 16.0984C55.1898 13.3811 56.1744 11.0745 58.1435 9.17852C60.1249 7.28251 62.5398 6.3345 65.3882 6.3345C67.4935 6.3345 69.3697 6.9021 71.0167 8.03729V6.51565H75.7722V25.4818H71.0167V24.2138C69.3449 25.3248 67.4687 25.8864 65.3882 25.8984C62.577 25.8984 60.1745 24.9383 58.1806 23.0182C56.1868 21.098 55.1898 18.7914 55.1898 16.0984ZM61.4129 12.2761C60.2983 13.363 59.741 14.6371 59.741 16.0984C59.741 17.5596 60.2983 18.8337 61.4129 19.9206C62.5398 21.0074 63.8587 21.5509 65.3696 21.5509C66.8928 21.5509 68.2117 21.0074 69.3263 19.9206C70.4533 18.8337 71.0167 17.5596 71.0167 16.0984C71.0167 14.6371 70.4533 13.363 69.3263 12.2761C68.2117 11.1893 66.8928 10.6458 65.3696 10.6458C63.8587 10.6458 62.5398 11.1893 61.4129 12.2761Z" fill="white"/>
<path d="M77.2026 10.827V6.51565H79.5246V1.55221H84.3173V6.51565H88.7013V10.827H84.3173V17.6924C84.3173 19.0088 84.6145 19.8964 85.2089 20.3553C85.8158 20.8021 87.1718 21.0376 89.2771 21.0618L89.5743 25.5905H88.5527C85.6052 25.5905 83.3637 25.0229 81.8281 23.8877C80.2924 22.7525 79.5246 20.6874 79.5246 17.6924V10.827H77.2026Z" fill="white"/>
<path d="M111.717 25.4818V6.51565H116.51V8.34524C117.86 7.0289 119.773 6.35865 122.25 6.3345L121.934 11.2798C119.829 11.2798 118.398 11.6361 117.643 12.3486C116.888 13.0611 116.51 14.2265 116.51 15.8447V25.4818H111.717Z" fill="white"/>
<path fill-rule="evenodd" clip-rule="evenodd" d="M89.5558 16.0984C89.5558 18.7914 90.5465 21.098 92.528 23.0182C94.5218 24.9383 96.9243 25.8984 99.7355 25.8984C102.559 25.8984 104.962 24.9383 106.943 23.0182C108.937 21.098 109.934 18.7914 109.934 16.0984C109.934 13.3811 108.943 11.0745 106.962 9.17852C104.993 7.28251 102.584 6.3345 99.7355 6.3345V10.6458C101.259 10.6458 102.578 11.1893 103.692 12.2761C104.819 13.363 105.383 14.6371 105.383 16.0984C105.383 17.5596 104.819 18.8337 103.692 19.9206C102.578 21.0074 101.259 21.5509 99.7355 21.5509C98.2247 21.5509 96.9057 21.0074 95.7788 19.9206C94.6642 18.8337 94.1069 17.5596 94.1069 16.0984H89.5558Z" fill="white"/>
</svg>
