<svg width="190" height="35" viewBox="0 0 190 35" fill="none" xmlns="http://www.w3.org/2000/svg">
<path d="M183.411 12.9617C183.411 11.3394 184.678 10.1226 186.299 10.1226C187.92 10.1226 189.186 11.3394 189.186 12.9617C189.186 14.584 187.92 15.8007 186.299 15.8007C184.678 15.75 183.411 14.5333 183.411 12.9617ZM186.299 15.2938C187.616 15.2938 188.629 14.3305 188.629 12.9617C188.629 11.5929 187.616 10.5789 186.299 10.5789C184.981 10.5789 183.968 11.5422 183.968 12.911C183.968 14.2798 184.981 15.2938 186.299 15.2938ZM185.083 11.3901H186.451C187.21 11.3901 187.616 11.6943 187.616 12.3026C187.616 12.7082 187.362 13.0124 186.957 13.0631C187.717 13.2152 187.464 14.3812 187.666 14.4319V14.4826H186.856C186.653 14.3305 186.957 13.3673 186.197 13.3673H185.893V14.4826H185.083V11.3901ZM186.197 12.7589C186.501 12.7589 186.805 12.7082 186.805 12.3533C186.805 11.9984 186.501 11.9477 186.197 11.9477H185.893V12.7589H186.197Z" fill="white"/>
<path d="M35.7866 8.43489L42.4373 27.3071H47.5861L54.2367 8.43489H50.1606L45.7626 22.2406C45.548 22.9376 45.3603 23.9562 45.3335 24.8945C45.3335 25.0821 45.2799 25.2698 45.0117 25.2698C44.7435 25.2698 44.6899 25.0553 44.6899 24.8945C44.6631 23.9562 44.4753 22.9376 44.2608 22.2406L39.8628 8.43489H35.7866Z" fill="white"/>
<path d="M55.3111 11.4373H58.7437V8.00598H55.3111V11.4373ZM55.3111 27.3071H58.7437V13.153H55.3111V27.3071Z" fill="white"/>
<path d="M60.6858 22.5354C60.8199 25.5647 62.9921 27.5216 67.0951 27.5216C71.2785 27.5216 73.558 25.8327 73.558 22.8839C73.558 20.0424 71.064 18.9165 67.6046 18.568C64.8425 18.2999 64.5475 17.737 64.5475 17.0668C64.5475 16.2626 65.1375 15.6192 67.0951 15.6192C69.0796 15.6192 69.6695 16.6111 69.75 17.4957H73.1289C72.9412 14.9222 70.9031 12.9385 67.1755 12.9385C63.153 12.9385 61.1149 14.949 61.1149 17.2544C61.1149 18.8361 61.6781 21.0879 66.0224 21.624C68.7309 21.9457 70.1254 22.1065 70.1254 23.152C70.1254 24.0903 69.4014 24.8409 67.2024 24.8409C64.7084 24.8409 64.0916 23.5809 64.0648 22.5354H60.6858Z" fill="white"/>
<path d="M75.5024 11.4373H78.935V8.00598H75.5024V11.4373ZM75.5024 27.3071H78.935V13.153H75.5024V27.3071Z" fill="white"/>
<path d="M87.7474 12.9385C83.3225 12.9385 80.6676 16.209 80.6676 20.23C80.6676 24.2511 83.3225 27.5216 87.7474 27.5216C92.1722 27.5216 94.827 24.2511 94.827 20.23C94.827 16.209 92.1722 12.9385 87.7474 12.9385ZM87.7474 24.412C85.4143 24.412 84.1002 22.5354 84.1002 20.23C84.1002 17.9246 85.4143 16.0481 87.7474 16.0481C90.0804 16.0481 91.3945 17.9246 91.3945 20.23C91.3945 22.5354 90.0804 24.412 87.7474 24.412Z" fill="white"/>
<path d="M104.764 12.9385C102.297 12.9385 100.688 14.9222 100.044 16.343C99.9369 16.5575 99.8565 16.7183 99.642 16.6647C99.2933 16.5843 99.4542 16.209 99.5615 15.9677C99.8297 15.4047 99.9906 14.8954 99.9906 14.0376V13.153H96.558V27.3071H99.9906V21.5436C99.9906 18.2731 101.814 16.0481 103.799 16.0481C105.595 16.0481 106.427 16.9328 106.427 20.1228V27.3071H109.859V18.9433C109.859 14.9222 107.821 12.9385 104.764 12.9385Z" fill="white"/>
<path d="M111.57 17.871C111.57 23.2056 114.949 27.5216 120.902 27.5216C126.775 27.5216 129.35 23.3665 129.591 20.23H125.971C125.729 22.0797 124.174 24.3047 120.956 24.3047C117.309 24.3047 115.217 21.4364 115.217 17.871C115.217 14.3057 117.309 11.4373 120.956 11.4373C124.174 11.4373 125.729 13.6623 125.971 15.512H129.591C129.35 12.3755 126.775 8.22044 120.902 8.22044C114.949 8.22044 111.57 12.5364 111.57 17.871Z" fill="white"/>
<path d="M130.871 23.4201C130.871 25.8059 133.15 27.5216 135.805 27.5216C138.326 27.5216 139.882 26.3957 140.686 24.4388C140.74 24.3047 140.847 24.0366 141.115 24.1439C141.356 24.2511 141.249 24.5192 141.142 24.7604C140.901 25.2162 140.74 25.6719 140.74 26.3153V27.3071H144.172V19.4794C144.172 14.0108 141.249 12.9385 138.004 12.9385C134.84 12.9385 131.783 14.3057 131.3 17.871H134.679C134.867 16.7183 135.484 15.7264 137.897 15.7264C140.337 15.7264 140.713 16.7987 140.74 17.7638C140.767 19.0773 138.541 18.8361 136.02 18.9701C133.177 19.1309 130.871 20.2837 130.871 23.4201ZM140.74 20.0156C140.713 23.5273 138.836 24.7068 137.012 24.9481C135.43 25.1625 134.304 24.412 134.304 23.2324C134.304 21.9725 135.135 21.4095 136.61 21.2487C138.648 21.0343 139.935 20.9002 140.74 20.0156Z" fill="white"/>
<path d="M162.262 12.9385C160.572 12.9385 159.151 13.9572 158.346 15.7532C158.266 15.9409 158.132 15.9945 157.971 15.9945C157.756 15.9945 157.622 15.9141 157.569 15.7264C157.193 14.0912 156.013 12.9385 154.163 12.9385C152.286 12.9385 150.972 14.0912 150.248 15.9409C150.194 16.0749 150.087 16.3162 149.818 16.2358C149.55 16.1554 149.631 15.8873 149.738 15.646C150.006 15.0563 150.194 14.6542 150.194 13.9572V13.153H146.761V27.3071H150.194V20.7662C150.194 18.0319 151.428 16.0481 153.09 16.0481C154.833 16.0481 155.128 17.2276 155.128 19.3722V27.3071H158.561V20.1764C158.561 17.6566 159.714 16.0481 161.216 16.0481C162.878 16.0481 163.495 16.906 163.495 19.0505V27.3071H166.928V18.5144C166.928 14.2789 164.729 12.9385 162.262 12.9385Z" fill="white"/>
<path d="M172.716 13.153H169.283V32.4541H172.716V26.6906C172.716 26.1544 172.582 25.7255 172.341 25.243C172.207 24.9749 172.099 24.7068 172.394 24.5996C172.636 24.5192 172.743 24.7873 172.797 24.8677C173.655 26.4225 175.13 27.5216 177.275 27.5216C180.949 27.5216 183.443 24.3047 183.443 20.23C183.443 16.1554 180.949 12.9385 177.275 12.9385C175.076 12.9385 173.655 14.0644 172.797 15.5656C172.743 15.6728 172.582 16.0213 172.314 15.8873C172.046 15.7532 172.233 15.4316 172.341 15.1635C172.582 14.681 172.716 14.252 172.716 13.6891V13.153ZM176.47 24.412C174.218 24.412 172.716 22.4818 172.716 20.23C172.716 17.9782 174.218 16.0481 176.47 16.0481C178.884 16.0481 180.01 17.9782 180.01 20.23C180.01 22.4818 178.884 24.412 176.47 24.412Z" fill="white"/>
<path d="M21.0543 9.16965C20.913 9.35997 20.7717 9.5503 20.6445 9.795C20.7152 9.5367 20.7576 9.292 20.7858 9.07448L21.3228 1.76051L18.4401 0.686523L18.0303 11.4808L21.3935 12.7315L28.7556 4.52024L25.8588 3.44626L21.0543 9.16965Z" fill="white"/>
<path d="M8.81759 14.2405C9.01542 14.3764 9.21326 14.5123 9.46761 14.6347C9.19912 14.5667 8.94477 14.5259 8.71868 14.4988L1.11633 13.9822L0 16.7555L11.2198 17.1497L12.5199 13.9142L3.98487 6.83132L2.86854 9.61824L8.81759 14.2405Z" fill="white"/>
<path d="M13.8482 9.26477C13.8906 9.49588 13.9189 9.727 14.0178 9.9853C13.8765 9.75419 13.721 9.55026 13.5797 9.37353L8.59157 3.84047L5.76542 5.0504L13.4102 12.9625L16.7026 11.5623L15.883 0.74087L13.0286 1.9508L13.8482 9.26477Z" fill="white"/>
<path d="M21.0832 26.5302C20.9419 26.3398 20.8006 26.1495 20.6735 25.9048C20.73 26.1631 20.7865 26.4078 20.8006 26.6253L21.2952 33.9393L18.3984 34.9997L18.0593 24.2055L21.4224 22.9819L28.7421 31.2339L25.8312 32.2943L21.0832 26.5302Z" fill="white"/>
<path d="M8.87516 21.3911C9.07299 21.2551 9.27082 21.1192 9.52518 20.9968C9.25669 21.0512 9.00234 21.1056 8.77625 21.1192L1.1739 21.595L0.0717 18.8081L11.2915 18.4818L12.5633 21.7174L3.98592 28.7594L2.88372 25.9589L8.87516 21.3911Z" fill="white"/>
<path d="M13.8629 26.3941C13.9053 26.163 13.9477 25.9319 14.0324 25.6736C13.8911 25.9047 13.7357 26.1086 13.5944 26.2717L8.56384 31.7776L5.73769 30.5541L13.439 22.6827L16.7173 24.0966L15.8271 34.9044L13.0009 33.6809L13.8629 26.3941Z" fill="white"/>
<path d="M183.411 12.9617C183.411 11.3394 184.678 10.1226 186.299 10.1226C187.92 10.1226 189.186 11.3394 189.186 12.9617C189.186 14.584 187.92 15.8007 186.299 15.8007C184.678 15.75 183.411 14.5333 183.411 12.9617ZM186.299 15.2938C187.616 15.2938 188.629 14.3305 188.629 12.9617C188.629 11.5929 187.616 10.5789 186.299 10.5789C184.981 10.5789 183.968 11.5422 183.968 12.911C183.968 14.2798 184.981 15.2938 186.299 15.2938ZM185.083 11.3901H186.451C187.21 11.3901 187.616 11.6943 187.616 12.3026C187.616 12.7082 187.362 13.0124 186.957 13.0631C187.717 13.2152 187.464 14.3812 187.666 14.4319V14.4826H186.856C186.653 14.3305 186.957 13.3673 186.197 13.3673H185.893V14.4826H185.083V11.3901ZM186.197 12.7589C186.501 12.7589 186.805 12.7082 186.805 12.3533C186.805 11.9984 186.501 11.9477 186.197 11.9477H185.893V12.7589H186.197Z" fill="white"/>
</svg>
