<svg width="149" height="40" viewBox="0 0 149 40" fill="none" xmlns="http://www.w3.org/2000/svg">
<g clip-path="url(#clip0_2097_12791)">
<path d="M21.3016 33.2976C21.3016 33.6272 21.027 33.792 20.5875 33.792H20.2029C18.39 33.792 15.3135 33.9019 14.3521 30.6881C13.528 32.4735 11.8799 34.259 8.61109 34.259C3.94141 34.259 1.93619 31.6769 1.93619 26.5403V18.849C1.93619 17.5855 1.88125 16.9812 1.13959 16.7339C0.727562 16.6515 0.507812 16.4867 0.507812 16.1571C0.507812 15.8549 0.727562 15.6627 1.16706 15.6352C2.26581 15.6352 4.65559 15.6077 7.56728 15.1408C7.97931 15.0309 8.254 15.2506 8.254 15.6627V26.5403C8.254 29.0674 8.80337 31.3198 11.1657 31.3198C13.6104 31.3198 14.0224 28.573 14.0224 26.1832V18.849C14.0224 17.5855 13.9126 16.9812 13.1709 16.7339C12.8138 16.6241 12.5666 16.4593 12.5666 16.1296C12.5666 15.8275 12.7589 15.6352 13.1984 15.6077C14.2971 15.6077 16.7144 15.5803 19.6261 15.1133C20.0381 15.0309 20.3128 15.2506 20.3128 15.6627V30.0288C20.3128 31.0726 20.2853 32.4461 20.8347 32.8032C21.0544 32.968 21.3016 33.0504 21.3016 33.2976Z" fill="#111111"/>
<path d="M43.5771 25.4393C43.3573 31.7297 39.0448 34.8886 33.7434 34.0645C32.0403 33.7898 30.8317 32.9657 30.09 31.867V36.8388C30.09 38.1848 30.447 38.7891 31.4359 38.9814C31.8204 39.0363 32.0677 39.1737 32.0677 39.4758C32.0677 39.8055 31.8755 39.9428 31.4085 39.9153C30.6394 39.8879 29.211 39.8055 27.1509 39.8055C25.1182 39.8055 23.7172 39.8604 23.003 39.9153C22.536 39.9428 22.3438 39.8055 22.3438 39.4758C22.3438 39.1737 22.536 39.0363 22.948 38.9539C23.7172 38.7342 23.7997 38.0749 23.7997 36.8388V19.4237C23.7997 18.1601 23.6897 17.5558 22.948 17.3086C22.5909 17.1987 22.3438 17.0339 22.3438 16.7043C22.3438 16.4021 22.5086 16.2098 22.8657 16.1823C24.0194 16.0175 26.4915 15.7978 29.0187 15.0287C29.4857 14.8913 29.7328 15.0012 29.7878 15.4132L29.9527 17.6107C31.0514 15.7978 32.7819 14.5342 35.5288 14.5342C40.8578 14.5617 43.8243 19.0116 43.5771 25.4393ZM37.1219 24.0933C37.0395 19.5061 35.3091 17.0064 33.194 17.1712C30.9965 17.3086 29.7878 20.0005 30.0075 25.714C30.1723 30.2189 31.8205 32.334 33.9906 32.1966C36.2155 32.0318 37.2318 28.5433 37.1219 24.0933Z" fill="#111111"/>
<path d="M73.0743 20.0019L67.8278 33.3242C67.6905 33.6264 67.4707 33.8187 67.1411 33.8187H63.3779C63.0482 33.8187 62.8285 33.6539 62.6911 33.3242L59.2301 23.8475L55.4394 33.3517C55.3295 33.6539 55.0823 33.8461 54.7527 33.8461L53.9012 33.8187V33.8461H51.0444C50.7148 33.8461 50.495 33.6813 50.3577 33.3517L44.7541 18.134C44.2322 16.7057 43.9575 16.2936 43.1609 15.9915C42.7763 15.8541 42.5566 15.7168 42.5566 15.4421C42.5566 15.1674 42.7488 15.0026 43.2158 15.0575C44.0124 15.085 45.3309 15.1674 47.4735 15.1674C49.4512 15.1674 50.6324 15.1399 51.3191 15.0575C51.7586 15.0301 51.9783 15.1674 51.9783 15.4421C51.9783 15.7168 51.7586 15.8816 51.429 16.0464C50.962 16.3486 51.1268 16.9254 51.4564 18.1615L54.9724 30.1653L58.1863 21.1281L57.0875 18.134C56.5656 16.7057 56.2635 16.2936 55.4669 16.0189C55.1098 15.8541 54.8626 15.7168 54.8626 15.4146C54.8626 15.1399 55.0548 14.9751 55.5218 15.0301C56.3184 15.0575 57.6644 15.1674 59.8069 15.1674C61.7572 15.1674 62.9658 15.1125 63.6251 15.0301C64.0646 15.0026 64.3118 15.1399 64.3118 15.4146C64.3118 15.7443 64.0921 15.8541 63.7624 16.0464C63.268 16.3211 63.4328 16.9254 63.7899 18.134L67.2784 30.1379L70.4648 21.2105C71.2614 19.013 69.0364 18.5735 68.7068 16.6507C68.5145 15.4421 69.421 14.0687 71.0691 14.1785C74.0083 14.2609 74.228 17.0627 73.0743 20.0019Z" fill="#111111"/>
<path d="M93.7801 24.3933C93.7801 29.8321 90.0169 34.1996 84.0287 34.1996C77.9855 34.1996 74.2773 29.8046 74.2773 24.3933C74.3047 18.982 77.9855 14.587 84.0287 14.587C90.0169 14.5595 93.7801 18.982 93.7801 24.3933ZM80.7599 25.0526C81.6114 29.6124 83.3969 33.3756 85.8691 32.9361C88.2314 32.3867 88.1764 28.2389 87.3524 23.7341C86.4734 19.2292 84.6879 15.411 82.2432 15.8505C79.826 16.3999 79.9084 20.5751 80.7599 25.0526Z" fill="#111111"/>
<path d="M108.008 21.1301C105.069 21.0751 106.58 17.6965 104.327 17.6965C102.899 17.6965 102.816 20.0588 102.816 21.4872V30.6892C102.816 32.0626 103.174 32.6669 104.162 32.8317C104.602 32.9416 104.822 33.0515 104.822 33.3536C104.822 33.6558 104.602 33.8206 104.135 33.7931C103.366 33.7107 101.937 33.6558 99.8773 33.6558C97.8447 33.6558 96.4712 33.7107 95.7296 33.7931C95.2901 33.8206 95.0703 33.6558 95.0703 33.3536C95.0703 33.0515 95.2901 32.9141 95.7021 32.8043C96.4163 32.612 96.5262 31.9527 96.5262 30.6892V20.306C96.5262 19.0424 96.4163 18.3832 95.7021 18.1634C95.3175 18.0536 95.0703 17.8887 95.0703 17.6141C95.0703 17.2844 95.2626 17.1196 95.6197 17.0647C96.7734 16.8724 99.1357 16.2681 101.69 15.032C102.13 14.8122 102.377 15.0045 102.459 15.4715L102.734 17.9712C103.393 16.1307 104.657 14.62 106.964 14.62C112.431 14.565 111.991 21.2399 108.008 21.1301Z" fill="#111111"/>
<path d="M132.546 33.0495C132.546 33.3517 132.326 33.489 131.859 33.489C130.376 33.489 126.86 33.6538 125.459 33.8461C125.019 33.901 124.772 33.6813 124.772 33.2418V31.3739C123.728 33.0495 122.025 34.2032 119.361 34.2032C114.059 34.2032 111.065 29.7532 111.285 23.3256C111.504 17.0352 115.845 13.8763 121.146 14.7004C122.849 14.9751 124.058 15.7991 124.799 16.8979V14.8652C124.799 13.6566 124.744 12.9424 124.003 12.7501C123.646 12.6128 123.371 12.4479 123.371 12.1458C123.371 11.8162 123.563 11.6513 123.975 11.5415C125.129 11.3767 127.903 10.7723 130.403 9.53628C130.788 9.344 131.117 9.50881 131.117 9.97578V30.3576C131.117 31.6211 131.227 32.2804 131.941 32.4727C132.326 32.6375 132.546 32.7199 132.546 33.0495ZM124.854 23.0783C124.689 18.5735 123.041 16.4584 120.871 16.5957C118.674 16.7605 117.685 20.2491 117.74 24.699C117.85 29.2863 119.553 31.7859 121.668 31.6211C123.865 31.4838 125.074 28.7644 124.854 23.0783Z" fill="#111111"/>
<path d="M138.573 9.44585C138.206 9.44585 137.828 9.45399 137.507 9.43772C136.184 9.43772 135.293 8.73794 134.626 7.68422C134.256 7.09836 134.406 6.82984 135.098 6.76882C136.083 6.68745 138.194 6.60608 139.044 6.54098L136.428 2.41151C136.367 2.31387 136.428 2.18775 136.538 2.17148C137.69 2.02094 138.581 2.29353 139.264 2.96075C139.997 3.67273 140.652 4.70612 141.311 5.5727C142.039 4.64509 143.394 2.48068 144.191 1.34558C144.545 0.841097 144.944 0.824823 145.265 1.27235C145.656 1.79311 145.969 2.37083 146.197 2.9811C146.294 3.27402 146.128 3.71749 145.953 4.01448C145.489 4.79155 144.952 5.52794 144.35 6.41893C144.875 6.48403 145.147 6.5003 145.587 6.56946C146.726 6.74441 147.556 7.17973 148.219 8.00156C148.316 8.12361 148.548 8.54673 148.443 8.88034C148.39 9.05121 147.95 9.17734 147.678 9.19768C146.693 9.27091 144.431 9.27498 143.78 9.26277C144.073 9.72657 144.358 10.2067 144.578 10.5606C145.078 11.354 145.582 12.1514 146.087 12.9447C146.396 13.4289 146.254 13.7299 145.721 13.8927C145.257 14.031 144.761 14.031 144.309 13.8601C143.857 13.6892 143.499 13.3475 143.227 12.9488C142.743 12.2287 141.84 10.7681 141.587 10.4426C140.867 11.5086 140.037 12.7616 139.341 13.8316C138.646 14.9016 138.149 14.8854 137.486 13.7787C136.941 12.8715 136.73 11.9764 137.486 11.0488C137.84 10.5606 138.573 9.44585 138.573 9.44585Z" fill="#111111"/>
</g>
<defs>
<clipPath id="clip0_2097_12791">
<rect width="149" height="40" fill="white"/>
</clipPath>
</defs>
</svg>
