<svg width="140" height="30" viewBox="0 0 140 30" fill="none" xmlns="http://www.w3.org/2000/svg">
<path fill-rule="evenodd" clip-rule="evenodd" d="M0 0.401733L0.000683994 11.5935H9.24349V21.1355H12.1318V8.75767H2.88919V3.23779H21.1919V0.401733H0Z" fill="white"/>
<path fill-rule="evenodd" clip-rule="evenodd" d="M26.9436 0.382812V8.73853H17.7005V26.7811H9.23633V29.6172H20.589V11.5746H29.8318V0.382812H26.9436Z" fill="white"/>
<path fill-rule="evenodd" clip-rule="evenodd" d="M43.9989 11.2755V21.3011H41.498V11.2755H37.6074V8.97827H47.8892V11.2755H43.9989Z" fill="white"/>
<path fill-rule="evenodd" clip-rule="evenodd" d="M59.4872 13.9427V8.97827H61.9881V21.3011H59.4872V16.2312H53.4452V21.3011H50.9443V8.97827H53.4452V13.9427H59.4872Z" fill="white"/>
<path fill-rule="evenodd" clip-rule="evenodd" d="M66.1797 21.3011H68.6808V8.97827H66.1797V21.3011Z" fill="white"/>
<path fill-rule="evenodd" clip-rule="evenodd" d="M81.7494 21.3011L75.3848 13.0709L75.3759 21.3011H72.875V8.97827H75.2145L81.5879 17.2082V8.97827H84.098V21.3011H81.7494Z" fill="white"/>
<path fill-rule="evenodd" clip-rule="evenodd" d="M90.7922 16.231V21.3008H88.291V8.97827H90.7922V13.9689H91.9752L96.1257 8.97827H99.2632L94.0012 14.99L99.6574 21.3008H96.4128L91.9486 16.231H90.7922Z" fill="white"/>
<path fill-rule="evenodd" clip-rule="evenodd" d="M104.898 16.3102V21.3011H102.396V8.97827H111.612V11.2403H104.898V14.0482H111.191V16.3102H104.898Z" fill="white"/>
<path fill-rule="evenodd" clip-rule="evenodd" d="M120.495 21.5191C117.303 21.5191 115.089 19.7852 115.089 16.3787V8.97644H117.599V16.2555C117.599 18.2713 118.773 19.1691 120.495 19.1691C122.216 19.1691 123.39 18.2713 123.39 16.2555V8.97644H125.9V16.3787C125.9 19.7852 123.686 21.5191 120.495 21.5191Z" fill="white"/>
<path fill-rule="evenodd" clip-rule="evenodd" d="M129.947 21.2992V8.97644H132.448V19.0018H139.082V21.2992H129.947Z" fill="white"/>
</svg>
