<svg width="96" height="36" viewBox="0 0 96 36" fill="none" xmlns="http://www.w3.org/2000/svg">
<path d="M64.9388 29.271C64.1572 29.271 63.4764 29.6234 63.1233 30.2275L63.0981 26.4016H61.7617L61.8374 35.4127H63.1738L63.1486 32.4677C63.1486 31.184 63.8042 30.4792 64.6867 30.4792C65.4684 30.4792 65.9475 31.0582 65.9475 31.9895L65.9727 35.3875H67.3091L67.2839 31.7629C67.2334 30.2527 66.3257 29.271 64.9388 29.271Z" fill="white"/>
<path d="M71.3183 29.2207C69.4524 29.2458 68.242 30.5799 68.242 32.367C68.2673 34.1793 69.5532 35.4882 71.3435 35.463C72.8817 35.463 73.9407 34.5569 74.2685 33.4242H72.8817C72.6043 34.0031 72.0243 34.28 71.3687 34.28C70.3097 34.28 69.6037 33.5752 69.528 32.6691L74.3189 32.6187C74.4702 30.6051 73.159 29.2207 71.3183 29.2207ZM69.6037 31.7629C69.7802 30.8316 70.461 30.3533 71.2931 30.3533C72.0243 30.3533 72.7052 30.7812 72.9321 31.7377L69.6037 31.7629Z" fill="white"/>
<path d="M79.8159 29.271V30.0765C79.4629 29.5983 78.7569 29.1704 77.8743 29.1704C76.2353 29.1955 74.9746 30.6051 74.9998 32.3167C75.025 34.0283 76.2858 35.4379 77.9247 35.4127C78.7821 35.4127 79.5133 34.9596 79.8411 34.4814V35.2869H81.1775L81.1271 29.271H79.8159ZM78.1769 34.2297C77.1179 34.2297 76.3866 33.399 76.3614 32.3167C76.3614 31.2344 77.0674 30.3786 78.1265 30.3786C79.1855 30.3786 79.9168 31.2092 79.942 32.2915C79.9672 33.3739 79.2612 34.2045 78.1769 34.2297Z" fill="white"/>
<path d="M83.9169 26.246L82.5805 26.2569L82.6546 35.2681L83.991 35.2571L83.9169 26.246Z" fill="white"/>
<path d="M88.2631 34.0786C87.5822 34.0786 87.2544 33.8017 87.2544 33.0717L87.2292 30.4036L88.9439 30.3784V29.1954L87.2292 29.2206L87.204 27.5593H85.8676L85.8928 29.2206H84.632V30.4036H85.8928L85.918 33.2983C85.918 34.6575 86.8258 35.2868 87.9857 35.2868C88.3891 35.2868 88.7169 35.2364 88.9691 35.1357V33.9527C88.7926 34.0282 88.5152 34.0786 88.2631 34.0786Z" fill="white"/>
<path d="M95.3738 31.5363C95.3738 30.0009 94.4408 29.0444 93.054 29.0444C92.2723 29.0444 91.5915 29.3968 91.2385 30.0009L91.2132 26.1749H89.8768L89.9525 35.1861H91.2889L91.2385 32.2411C91.2385 30.9574 91.8941 30.2526 92.7766 30.2526C93.5583 30.2526 94.0374 30.8315 94.0374 31.7628L94.0626 35.1609H95.399L95.3738 31.5363Z" fill="white"/>
<path d="M7.35078 26.9654L13.5285 12.895H16.8447H17.3238C17.5507 12.895 17.8785 12.8446 18.0803 12.6181C18.3072 12.3412 18.1307 12.014 18.0298 11.863C17.9542 11.712 17.4751 10.8989 17.3238 10.5716C17.0212 9.94236 17.0716 9.82414 16.643 9.82414H16.29H14.8649C16.2518 6.62745 16.7828 4.82891 18.0435 3.84725C19.3043 2.86559 20.9845 3.6745 21.6886 3.40782C22.3926 3.14113 23.2439 1.5177 22.9402 1.03489C22.4588 0.269466 21.3365 0.22265 20.2373 0.222656C19.3613 0.222661 18.5983 0.323339 18.0183 0.549876C16.7071 1.05329 16.017 1.58249 15.0429 2.84042C14.0604 4.1092 13.9824 4.33691 12.9486 6.37575C12.3182 7.63428 12.293 7.73497 11.3348 9.79897H8.11947C7.89254 9.79897 7.46388 9.79897 7.21172 10.0759C6.98479 10.3527 7.16129 10.6799 7.26215 10.831C7.3378 10.982 7.91775 11.863 8.06904 12.1902C8.37163 12.8195 8.74986 12.8698 9.17852 12.8698H9.87231C8.58633 15.6386 6.84647 19.8925 3.46762 26.9654C2.73637 28.5009 1.65212 29.5832 0.693935 30.3132C0.492212 30.4642 0.214844 30.7159 0.214844 31.0683C0.214844 31.4458 0.466997 31.6975 0.643504 31.8486C0.895657 32.0751 1.45039 32.2513 2.08078 32.2513H2.13121C2.25728 32.2513 2.38336 32.2513 2.50944 32.2261C2.91288 32.1758 3.2659 32.0751 3.46762 31.9241C4.02236 31.6472 4.47623 31.1941 4.85446 30.7914C5.76221 29.8097 6.5691 28.5764 7.35078 26.9654C8.23331 25.128 6.49346 28.7777 7.35078 26.9654C7.60293 26.4369 7.09862 27.494 7.35078 26.9654Z" fill="white"/>
<path fill-rule="evenodd" clip-rule="evenodd" d="M84.1889 15.3868L84.1133 15.3113C83.9368 15.1854 83.735 15.1351 83.5333 15.1351C83.1047 15.1351 82.7516 15.3868 82.6003 15.7392L82.4743 15.9406C82.4238 16.0161 82.3986 16.0664 82.3986 16.0664C81.4657 17.7277 80.2301 19.1373 78.7676 20.2699C77.4312 21.3019 76.2209 21.9564 74.9853 22.1326C74.5819 22.1829 73.9515 22.2584 73.3968 22.2081C72.7664 22.1577 72.0603 21.755 71.556 21.3271C72.6655 20.6727 73.7246 20.0434 74.5314 19.54C76.347 18.5332 77.5573 17.5012 78.3642 16.746C80.2805 14.9589 81.1883 14.0779 81.5917 12.467C81.8691 11.3343 81.7178 10.2771 81.1631 9.4465C80.5831 8.61587 79.6249 8.08728 78.4398 7.96143C77.2547 7.83557 76.0948 7.9866 75.0105 8.38933C74.7584 8.49001 74.5062 8.5907 74.2793 8.71655C69.5892 10.8812 67.8746 16.3433 67.8746 16.3433C67.3199 17.9039 67.0425 19.691 67.2442 20.7482C66.1852 21.6292 65.58 21.755 65.227 21.8557C64.8992 21.9564 63.7645 22.0319 63.7645 21.4026C63.7645 21.0251 64.4453 19.7413 64.8236 18.9107C65.2018 18.0801 65.6052 17.2746 66.0087 16.444C66.3112 15.84 66.5885 15.2361 66.8658 14.6321L66.866 14.6317C67.3451 13.5997 67.8242 12.467 67.8746 11.1833C67.9503 9.54719 67.0677 8.38933 65.5044 8.03694C64.2436 7.76006 62.9576 7.88592 61.6212 8.4145C60.5874 8.84241 59.6544 9.47167 58.6962 10.3778C58.4945 9.16963 57.7381 8.36416 56.4521 8.06211C55.4687 7.83557 54.4349 7.86074 53.3506 8.13762C52.3168 8.4145 51.3838 8.89275 50.4508 9.6227C50.5013 9.49685 50.6021 9.14445 50.4004 8.8424C50.1735 8.54035 49.7952 8.51518 49.6692 8.51518H48.0049C47.4754 8.49001 47.1224 8.74172 46.8955 9.21997C46.4164 10.2771 45.8869 11.4098 45.3321 12.5425L44.8278 13.5997C44.1218 15.0596 43.3653 16.5698 42.6089 18.0297C41.9785 19.2379 41.2473 20.2196 40.3899 21.0251C39.9613 21.4278 39.6083 21.6292 39.2552 21.6795C39.1544 21.7047 38.877 21.7047 38.8014 21.453C38.7257 21.2013 38.6753 20.9244 38.7005 20.6475C38.7257 20.1189 38.877 19.5652 39.2048 18.8604C40.0369 17.0732 40.8438 15.3113 41.6759 13.5493L43.441 9.74855C43.5166 9.59753 43.6931 9.21997 43.4662 8.89275C43.2393 8.56553 42.8358 8.54035 42.6593 8.54035C42.4324 8.54035 41.0455 8.56553 40.6169 8.54035C40.0874 8.51518 39.7091 8.76689 39.5074 9.24514C39.104 10.1513 38.6753 11.0574 38.2466 11.9384L38.0449 12.3663C37.8936 12.6684 37.7675 12.9704 37.6415 13.2473C37.0111 14.6065 36.3555 15.9909 35.5486 17.2494C34.8174 18.4073 33.8844 19.7162 32.5732 20.6978C31.7663 21.3019 31.0603 21.5788 30.329 21.5285C29.7743 21.5033 29.3961 21.2013 29.3456 20.6978C29.3204 20.421 29.3204 20.1189 29.3708 19.7917C29.4969 18.9359 29.8499 18.1556 30.203 17.3501L33.7331 9.77372C33.8087 9.59753 33.9853 9.21997 33.7835 8.86758C33.5566 8.51518 33.1279 8.51518 32.9514 8.51518C32.7497 8.51518 31.4133 8.54036 30.9594 8.51518C30.4047 8.51518 30.0517 8.74172 29.7995 9.24514L29.1691 10.5792C28.3118 12.4167 27.4293 14.3045 26.5215 16.1168C25.5886 18.0046 24.4791 19.5148 23.1427 20.6978C22.6888 21.1257 22.1593 21.5285 21.5037 21.6543C21.1254 21.7298 20.9237 21.604 20.8481 21.2013C20.7472 20.6978 20.8229 20.1693 21.075 19.5652C21.6045 18.3318 22.1593 17.1236 22.6888 15.9657C24.3782 12.3663 26.0424 8.76689 27.7319 5.16747L28.9926 2.44902C29.0683 2.27283 29.27 1.8701 29.043 1.5177C28.8161 1.16531 28.3875 1.16531 28.1857 1.16531C27.984 1.16531 26.7485 1.19048 26.345 1.16531C25.5129 1.11497 25.1851 1.61839 25.0086 1.99595C23.0922 6.19947 22.008 8.56553 20.0412 12.7439L18.5535 15.9154C18.0744 16.9222 17.5911 17.8993 16.7884 18.9025C15.9224 19.9847 14.8248 21.3178 13.1113 22.2082C12.1316 22.7172 10.9582 22.6651 10.9582 23.4734C10.9582 24.2818 12.0665 24.9285 12.6012 24.9285C15.2236 24.9285 17.2646 21.9564 17.2646 21.9564C17.2646 21.9564 17.9987 24.549 19.4612 24.6748C20.2429 24.7503 21.0498 24.5993 21.9071 24.2469C22.9914 23.7938 24.0252 23.0639 25.1095 21.9564L25.1599 21.906C25.4625 23.3659 26.4711 24.3224 28.0597 24.6245C29.0935 24.8007 30.1525 24.7 31.262 24.2721C32.4219 23.819 33.5062 23.1142 34.5904 22.0571C34.7165 23.4163 35.599 24.3979 36.9354 24.6497C37.5154 24.7503 38.1206 24.7252 38.7509 24.5741C39.3561 24.4231 39.8856 24.1714 40.3647 23.8945C40.3647 23.9197 40.3899 23.9197 40.3899 23.9449C40.6169 24.2721 41.0203 24.2721 41.1968 24.2721H41.8524H43.1636C43.7436 24.2973 44.1218 24.0456 44.3992 23.517L44.8783 22.485C45.8112 20.4965 46.7694 18.4325 47.7528 16.444C48.5849 14.7827 49.5431 13.4235 50.703 12.316C51.3586 11.6867 52.1403 11.0574 53.1993 10.8812C53.754 10.8057 54.1575 10.8812 54.3592 11.0826C54.5861 11.3091 54.5357 11.737 54.4601 12.0643C54.334 12.6432 54.1323 13.2473 53.8045 13.9269C52.7706 16.1419 51.7116 18.3821 50.6778 20.5468L49.5683 22.8877C49.4422 23.1646 49.2405 23.5673 49.4674 23.8945C49.6944 24.2469 50.123 24.2469 50.4256 24.2469H50.9803H52.2915C52.8211 24.2721 53.1993 24.0456 53.4262 23.5421C53.8549 22.636 54.2836 21.755 54.687 20.8489C54.9896 20.1944 55.3174 19.54 55.62 18.8855L55.6842 18.7511C56.446 17.1559 57.2382 15.4972 58.2928 14.0528C58.8727 13.2725 59.6544 12.2656 60.7135 11.5608C61.4195 11.0826 62.0751 10.8561 62.7055 10.8812C63.0333 10.8812 63.2602 10.9567 63.3863 11.1078C63.5124 11.2588 63.588 11.4853 63.5628 11.8126C63.5376 12.3663 63.3863 12.9201 63.0585 13.5997C62.6802 14.38 62.302 15.1603 61.949 15.9406L60.7387 18.508C60.1587 19.7414 59.9318 20.874 60.0326 21.9815C60.1587 23.3408 61.1421 24.2218 62.4281 24.4986C63.5628 24.7252 65.1261 24.6497 66.3617 24.1211C66.8408 23.9197 67.6477 23.4918 68.6059 22.9632C69.3371 24.0959 70.2196 24.6496 71.4047 24.8258C71.8586 24.9014 72.3125 24.9265 72.7916 24.9265C73.5228 24.9265 74.2541 24.851 74.9601 24.6748C79.0702 23.7435 82.5751 20.3958 84.2646 16.8719L84.3654 16.6705C84.4411 16.5195 84.4915 16.3433 84.4915 16.1671C84.5419 15.8399 84.3906 15.563 84.1889 15.3868ZM74.708 12.3663C72.4386 14.5058 71.8586 16.2426 71.5056 17.1488C70.9509 18.5583 71.3543 18.659 75.0358 15.8902C75.4896 15.5378 75.7922 15.261 76.4226 14.6569C77.2295 13.9017 78.0364 12.8949 78.0364 12.1398C78.0364 11.586 77.1791 10.8812 76.0696 11.3847C75.5905 11.6112 75.061 12.0391 74.708 12.3663Z" fill="white"/>
</svg>
