<svg width="221" height="37" viewBox="0 0 221 37" fill="none" xmlns="http://www.w3.org/2000/svg">
<g clip-path="url(#clip0_2400_1381)">
<path d="M20.7333 8.58039C24.3992 6.01131 26.7029 5.0382 31.0016 3.72858C31.0016 3.72858 31.7709 3.48666 32.274 3.37109C33.4915 3.09141 34.394 3.03876 35.4542 3.02231C36.9609 2.99942 38.3323 3.44146 39.2732 4.73344C41.4389 7.7017 43.5963 10.6755 45.7456 13.6547C45.8885 13.843 45.9759 14.0681 45.9975 14.3043C46.036 15.0138 46.01 15.7255 45.9197 16.4305C45.586 18.1869 44.9483 19.871 44.0357 21.4061C41.4201 25.8883 38.1179 29.9269 34.2515 33.3724C33.3698 34.1816 32.2238 35.1631 31.2595 36.0115L25.271 27.4207L28.6124 24.3768C32.6159 20.5003 38.6217 14.2534 40.9149 9.1183C39.7191 9.50142 35.8561 11.5192 34.6933 11.9989C33.0432 12.6777 27.9824 15.5938 26.3687 16.3322C26.3687 16.3322 22.934 11.6076 20.7333 8.58039Z" fill="white"/>
<path d="M25.2815 27.4312C21.6155 30.0002 19.3119 30.9733 15.0132 32.283C15.0132 32.283 14.2438 32.5249 13.7408 32.6404C12.5233 32.9201 11.6208 32.9728 10.5605 32.9892C9.05389 33.0121 7.68249 32.5701 6.74155 31.2781C4.57585 28.3098 2.41842 25.3361 0.269207 22.3568C0.126256 22.1686 0.0388827 21.9434 0.0172471 21.7072C-0.0212738 20.9977 0.00476367 20.286 0.0950402 19.581C0.428751 17.8247 1.0665 16.1405 1.97906 14.6054C4.59463 10.1233 7.89683 6.08461 11.7632 2.63912C12.645 1.82998 13.7909 0.848458 14.7553 0L20.7438 8.59085L17.4023 11.6347C13.3989 15.5112 7.39309 21.7582 5.09985 26.8932C6.2957 26.5101 10.1586 24.4923 11.3215 24.0127C12.9716 23.3338 18.0324 20.4177 19.6461 19.6794C19.6461 19.6794 23.0807 24.4039 25.2815 27.4312Z" fill="white"/>
<path d="M63.2111 28.3731C57.5952 28.3731 54.459 24.2523 54.459 18.8916C54.459 13.5309 57.5952 9.41011 63.2111 9.41011C67.3684 9.41011 70.3223 11.8534 70.6869 15.7919H67.2225C66.8943 13.7862 65.4356 12.3275 63.357 12.3275H63.0653C59.5644 12.3275 57.9234 15.4272 57.9234 18.8916C57.9234 22.356 59.5644 25.4557 63.0653 25.4557H63.357C65.4356 25.4557 66.8943 23.997 67.2225 21.9913H70.6869C70.3223 25.9298 67.3684 28.3731 63.2111 28.3731Z" fill="white"/>
<path d="M76.2382 28.0084H72.7738V2.48132H76.2382V12.3275C77.3322 10.6865 79.1556 9.41011 82.073 9.41011C86.2667 9.41011 88.6371 11.9628 88.6371 15.7919V28.0084H85.1727V16.5212C85.1727 13.9685 84.0787 12.3275 81.4895 12.3275H81.1978C78.6086 12.3275 76.2382 14.3332 76.2382 17.7976V28.0084Z" fill="white"/>
<path d="M96.6627 28.3731C93.1984 28.3731 90.6456 26.0757 90.6456 22.9759C90.6456 18.8187 94.3288 17.5788 97.2827 17.3235L102.315 16.9224V16.3389C102.315 13.7862 100.856 12.3275 98.5226 12.3275H98.2308C96.3345 12.3275 94.6935 13.2392 94.4747 15.0625H91.0103C91.2291 11.7075 94.2559 9.41011 98.3767 9.41011C103.227 9.41011 105.78 12.6192 105.78 16.3389V23.997C105.78 25.091 105.78 26.7321 105.962 28.0084H102.68C102.498 27.0967 102.498 25.2734 102.498 25.091C101.768 26.7321 99.5801 28.3731 96.6627 28.3731ZM97.0639 25.4557H97.3556C99.5801 25.4557 102.315 23.6323 102.315 21.4443V19.5845L97.7568 19.9492C95.6417 20.1315 94.11 21.1526 94.11 22.8301C94.11 24.3252 95.3499 25.4557 97.0639 25.4557Z" fill="white"/>
<path d="M112.354 28.0084H108.889V9.77478H112.171V13.7862C112.901 11.0511 115.089 9.59245 117.459 9.59245H119.1V12.9474H117.641C114.359 12.9474 112.354 15.1355 112.354 18.7822V28.0084Z" fill="white"/>
<path d="M126.952 36.0312C121.846 36.0312 118.856 33.6609 118.491 30.3788H121.956C122.32 32.2022 124.29 33.1138 126.769 33.1138H127.134C130.234 33.1138 132.422 31.4728 132.422 27.6437V25.091C131.51 26.5497 129.687 28.0084 126.952 28.0084C122.758 28.0084 118.856 25.091 118.856 18.7093C118.856 12.3275 122.649 9.41011 126.952 9.41011C129.687 9.41011 131.692 10.8688 132.422 12.3275V9.77478H135.886V28.0084C135.886 32.5668 132.604 36.0312 126.952 36.0312ZM127.098 25.091H127.389C129.906 25.091 132.422 22.7207 132.422 18.7093C132.422 14.6979 130.088 12.3275 127.572 12.3275H127.28C124.691 12.3275 122.32 14.1509 122.32 18.7093C122.32 23.2677 124.508 25.091 127.098 25.091Z" fill="white"/>
<path d="M146.676 28.3731C142.155 28.3731 138.07 25.2369 138.07 18.8551C138.07 12.5463 142.264 9.41011 146.567 9.41011C151.308 9.41011 154.298 12.6922 154.298 17.4329V19.4386H141.535C141.753 23.5959 144.416 25.4557 146.64 25.4557H146.932C148.719 25.4557 150.433 24.544 150.797 22.6113H154.262C153.605 26.2945 150.433 28.3731 146.676 28.3731ZM141.753 16.7036H150.834C150.688 13.5309 148.792 12.3275 146.713 12.3275H146.421C144.525 12.3275 142.41 13.458 141.753 16.7036Z" fill="white"/>
<path d="M161.858 28.0084H158.393V12.7651H154.382V9.77478H158.393V6.31039C158.393 3.75768 159.67 2.48132 162.222 2.48132H174.074V28.0084H170.61V5.50811H163.316C162.222 5.50811 161.858 5.87278 161.858 6.9668V9.77478H166.416V12.7651H161.858V28.0084Z" fill="white"/>
<path d="M184.967 28.3731C180.044 28.3731 176.215 24.544 176.215 18.8916C176.215 13.2392 180.044 9.41011 184.967 9.41011C189.89 9.41011 193.719 13.2392 193.719 18.8916C193.719 24.544 189.89 28.3731 184.967 28.3731ZM184.821 25.4557H185.113C188.067 25.4557 190.255 23.0853 190.255 18.8916C190.255 14.6979 188.067 12.3275 185.113 12.3275H184.821C181.867 12.3275 179.679 14.6979 179.679 18.8916C179.679 23.0853 181.867 25.4557 184.821 25.4557Z" fill="white"/>
<path d="M213.067 24.1794L216.897 9.77478H220.543L214.891 28.0084H211.062L207.05 13.7497L203.039 28.0084H199.21L193.557 9.77478H197.204L201.216 24.1794L205.227 9.77478H208.874L213.067 24.1794Z" fill="white"/>
</g>
<defs>
<clipPath id="clip0_2400_1381">
<rect width="220.871" height="36.4117" fill="white"/>
</clipPath>
</defs>
</svg>
