<svg width="107" height="45" viewBox="0 0 107 45" fill="none" xmlns="http://www.w3.org/2000/svg">
<g clip-path="url(#clip0_2400_1462)">
<path d="M9.09449 20.8015C8.88659 20.9652 8.63414 20.9206 8.33714 20.6378C8.29259 20.5931 8.12924 20.3996 7.83223 20.0275C7.49068 19.5958 7.31248 19.3577 7.29763 19.3279C7.11943 18.9855 7.11943 18.6432 7.28278 18.3008C6.80758 18.405 6.40662 18.2562 6.07992 17.8692L5.91657 17.6757C5.88687 17.631 5.87202 17.5863 5.84232 17.5566C5.82747 17.5268 5.79777 17.5119 5.78292 17.497C5.72352 17.4375 5.66412 17.378 5.60472 17.3184C5.56017 17.2589 5.51562 17.2142 5.47107 17.1696C5.11467 16.723 5.08496 16.3956 5.36712 16.1574L6.21357 15.4727L5.33742 14.3265L0.0507812 18.539L0.956637 19.6702C1.01604 19.6107 1.09029 19.5363 1.14969 19.4767C1.22394 19.4172 1.28334 19.3577 1.34274 19.313C1.77339 18.9707 2.1001 18.8665 2.32285 18.9855C2.41195 19.0302 2.61985 19.2684 2.9614 19.7C3.30295 20.1317 3.48115 20.3698 3.496 20.3996C3.64451 20.6973 3.62966 21.0099 3.4663 21.3671C3.82271 21.3076 4.13456 21.3671 4.38701 21.5458C4.47611 21.6202 4.68401 21.8583 5.01071 22.2751C5.38197 22.7514 5.58987 23.0194 5.60472 23.1087C5.69382 23.3766 5.51562 23.6743 5.09981 24.0167C5.04041 24.0613 4.96616 24.1209 4.90676 24.1804C4.83251 24.2399 4.75826 24.2995 4.66916 24.3441L5.57502 25.4754L10.8617 21.2481L9.9558 20.1168L9.09449 20.8015Z" fill="white"/>
<path d="M23.0233 11.1997L19.9197 12.5989C20.1721 13.2092 20.2761 13.6706 20.2315 13.9981C20.1721 14.4446 19.8751 14.787 19.3554 15.0252C18.4347 15.4419 17.7516 15.1442 17.2912 14.1321C17.0239 13.5515 17.0239 13.0306 17.2615 12.584C16.7863 12.4947 16.4447 12.2119 16.222 11.7356C16.0289 11.3039 15.9844 10.902 16.0735 10.5299C16.1626 10.1578 16.4299 9.87495 16.8605 9.68145C17.7367 9.29444 18.4644 9.71122 19.0138 10.9764L21.8056 9.7261L20.3652 6.43652L18.004 7.49336C18.108 7.71663 18.1525 7.8506 18.1525 7.89525C17.2021 7.80594 16.3408 7.93991 15.5537 8.29715C14.7221 8.66927 14.0687 9.14559 13.5787 9.74099C12.9995 10.4406 12.7619 11.1848 12.8362 12.0184C12.8659 12.3161 12.8956 12.5691 12.9253 12.7626C12.9401 12.971 12.9698 13.1199 12.9847 13.239C13.0441 13.7897 12.955 14.2511 12.7471 14.6233C13.148 14.653 13.5638 14.921 13.9796 15.4271C14.5736 16.1564 14.9746 16.5732 15.1528 16.6923C15.925 17.243 17.0536 17.377 18.5386 17.1091C18.8505 17.0495 19.2811 16.9007 19.8306 16.6625C20.8998 16.1862 21.7759 15.5759 22.4442 14.8614C23.4391 13.7748 23.6619 12.6287 23.1273 11.423L23.0233 11.1997Z" fill="white"/>
<path d="M29.0383 5.60376C29.172 5.69307 29.3056 6.03542 29.4244 6.61594C29.5135 7.0476 29.5581 7.33042 29.5581 7.43461C29.5432 7.7472 29.3799 8.01513 29.0829 8.2384C29.469 8.29794 29.7214 8.49145 29.8699 8.8338C29.8848 8.86357 29.959 9.16127 30.0778 9.7269L30.2263 10.4563C30.256 10.8879 30.1372 11.141 29.8551 11.2005L28.6671 11.4536L28.9641 12.8676L39.1364 10.7093L38.4236 7.33042L36.0179 7.83651C36.0624 7.97047 36.0921 8.07467 36.107 8.16398C36.1218 8.2384 36.1367 8.29794 36.1367 8.31283C36.3446 9.29523 36.1515 9.86086 35.5575 9.97994L33.9091 10.3521L33.4785 8.31283L35.4238 7.89605L35.0674 6.22893L33.1221 6.64571L32.6766 4.56181L33.8052 4.32365C33.9834 4.279 34.2358 4.29388 34.5625 4.35342C34.9783 4.44273 35.2159 4.59158 35.2753 4.82974L35.5278 5.99077L38.1117 5.44002L37.3989 2.01648L27.1523 4.20457L27.4493 5.61864C28.2661 5.42514 28.8007 5.42514 29.0383 5.60376Z" fill="white"/>
<path d="M45.522 2.5518C45.9675 2.53692 46.1903 2.77508 46.2051 3.23651C46.2051 3.31094 46.2051 3.40025 46.1903 3.51933C46.1754 3.63841 46.1754 3.7426 46.1754 3.80214C46.1903 4.26358 46.1754 4.56128 46.1457 4.71013C46.0566 5.08225 45.8636 5.30553 45.5666 5.39483C45.8933 5.5288 46.0863 5.78184 46.1754 6.16885C46.22 6.33259 46.2348 6.64517 46.2497 7.10661L46.2645 7.27034V7.58293C46.2794 8.19321 46.1012 8.5058 45.7448 8.52068L44.438 8.55045L44.4677 9.99429L53.8678 9.7859C54.1945 9.77102 54.5657 9.65194 54.9964 9.41378C55.427 9.16073 55.724 8.90769 55.9171 8.62488C56.0062 8.47603 56.1101 8.17833 56.2586 7.73178C56.3032 7.55316 56.422 7.41919 56.6002 7.315C56.125 6.67494 55.7389 6.24328 55.4419 6.00512C54.9073 5.57345 54.2687 5.37995 53.5262 5.4246C53.5559 5.40972 53.6302 5.39483 53.7787 5.37995C53.9272 5.36507 54.1351 5.32041 54.3875 5.27576C54.7439 5.21622 55.0261 5.12691 55.2191 5.00783C55.3973 4.88875 55.6052 4.60593 55.8577 4.1445C56.125 3.71283 56.3032 3.45979 56.4071 3.40025C55.9022 2.50715 55.4567 1.88198 55.0855 1.55451C54.5954 1.13773 53.9717 0.929341 53.2292 0.944226L44.2598 1.15262L44.2895 2.59646L45.522 2.5518ZM52.0709 8.05925C51.8779 8.26764 51.6254 8.37183 51.3284 8.37183L49.9176 8.4016L49.8731 6.30282L51.3878 6.27305C51.6403 6.27305 51.863 6.37724 52.0561 6.58563C52.2491 6.80891 52.3531 7.03218 52.3679 7.28523C52.3531 7.59781 52.264 7.85086 52.0709 8.05925ZM51.1948 2.5518C51.4621 2.5518 51.6997 2.64111 51.9224 2.83462C52.1452 3.02812 52.264 3.2514 52.264 3.50444C52.264 3.77237 52.1897 4.02542 52.0115 4.23381C51.8333 4.45708 51.6106 4.56128 51.3433 4.57616L49.8286 4.60593L49.784 2.58157L51.1948 2.5518Z" fill="white"/>
<path d="M72.2818 8.19251L69.8464 7.8055C69.8315 7.93947 69.8315 8.05855 69.8167 8.14786C69.8018 8.22228 69.8018 8.28182 69.787 8.29671C69.6385 9.294 69.2524 9.75543 68.6435 9.65124L66.9654 9.39819L67.2773 7.34407L69.2375 7.64177L69.49 5.95976L67.5297 5.66206L67.8564 3.56328L68.9999 3.7419C69.1781 3.77167 69.4157 3.87587 69.6979 4.0396C70.0691 4.26288 70.2325 4.50104 70.1879 4.7392L70.0097 5.91511L72.6085 6.317L73.1431 2.86369L62.8223 1.271L62.5995 2.69995C63.4311 2.80415 63.9212 2.98277 64.0845 3.23581C64.1736 3.36978 64.1736 3.72702 64.0845 4.32242C64.0103 4.75408 63.9657 5.0369 63.9212 5.14109C63.8024 5.43879 63.5499 5.61741 63.1935 5.7216C63.5351 5.91511 63.7133 6.19792 63.7133 6.55516C63.7133 6.58493 63.6836 6.89752 63.5945 7.46315L63.4757 8.2074C63.3569 8.62418 63.149 8.81768 62.8668 8.77303L61.6788 8.59441L61.4561 10.0234L71.7323 11.6012L72.2818 8.19251Z" fill="white"/>
<path d="M89.3891 8.47562C88.9287 7.96953 88.3793 7.5974 87.7704 7.37413L80.1375 4.47156L79.6177 5.82609C79.7217 5.85586 79.8256 5.88563 79.9147 5.9154C80.0038 5.94517 80.0929 5.97494 80.182 6.00471C80.6869 6.19822 80.9245 6.4066 80.9245 6.62988C80.9245 6.73407 80.8206 7.04666 80.6127 7.58252C80.4196 8.08861 80.3157 8.35654 80.286 8.38631C80.0632 8.74355 79.7514 8.87751 79.395 8.83286C79.6623 9.0859 79.7811 9.36872 79.7662 9.6813C79.7514 9.81526 79.6474 10.1278 79.4692 10.6191C79.2465 11.2145 79.0831 11.5419 78.994 11.5866C78.7564 11.7801 78.2515 11.7057 77.509 11.3782L76.9893 12.7327L82.8402 14.9655L83.36 13.6109C82.8848 13.4025 82.6323 13.2984 82.6026 13.2686C82.4393 13.1197 82.4244 12.8816 82.5432 12.569L82.9887 11.3782L84.3252 11.8843C84.4886 11.9438 84.6519 12.1076 84.8004 12.3457C84.9489 12.5839 84.9935 12.7923 84.9341 12.956L84.4143 14.3105C84.3252 14.5636 84.3698 14.8613 84.5777 15.2185C84.7856 15.5758 85.0232 15.8139 85.2756 15.9032L88.3793 17.0791L88.899 15.7246C88.8693 15.7246 88.8248 15.7097 88.7654 15.6948C88.6763 15.6651 88.5575 15.5906 88.409 15.4716C88.2011 15.3078 88.1268 15.159 88.1862 15.025L88.602 13.9384C88.7208 13.6109 88.6169 13.2239 88.2605 12.7923C88.0526 12.5243 87.8001 12.2862 87.518 12.1076C87.9635 12.2564 88.4981 12.1522 89.1366 11.8099C89.3297 11.7205 89.5227 11.6015 89.7306 11.4824C89.9385 11.3633 90.1465 11.2293 90.3692 11.0954C90.2207 10.8721 90.1464 10.7084 90.1613 10.6191C90.2504 9.85992 89.9979 9.14544 89.3891 8.47562ZM86.4042 9.59199C86.3151 9.83015 86.1518 10.0237 85.9142 10.1725C85.6469 10.3511 85.3944 10.3958 85.1717 10.3065L83.7015 9.74084L84.4589 7.73137L85.8845 8.28211C86.1221 8.37142 86.3003 8.55004 86.4042 8.81797C86.4933 9.0859 86.4933 9.33895 86.4042 9.59199Z" fill="white"/>
<path d="M99.1596 20.3104C99.2042 20.3402 99.2636 20.3699 99.3081 20.3997C99.3527 20.4295 99.3972 20.4592 99.4418 20.489C99.8576 20.8016 99.9467 21.1291 99.7091 21.4417C99.2487 22.0519 98.6399 22.0817 97.9122 21.531C97.5113 21.2184 97.3034 20.8611 97.2737 20.4444C97.2588 20.0276 97.4073 19.6257 97.7043 19.2238C98.0607 18.7624 98.5062 18.4944 99.0408 18.4498C98.8478 18.1074 98.9369 17.6758 99.323 17.1697C99.9912 16.2915 100.734 16.1873 101.58 16.8273C102.471 17.512 102.531 18.3753 101.773 19.4173L103.986 21.1142L106.035 18.42L104.149 16.991C104.06 17.1399 103.971 17.2292 103.897 17.2739C103.644 16.5594 103.05 15.83 102.115 15.1155C100.065 13.5526 98.2686 13.4484 96.6945 14.803C96.1154 15.2942 95.5659 15.5025 95.0165 15.4281C95.1501 15.8598 95.0759 16.4552 94.7937 17.1994C94.4522 18.033 94.2888 18.6284 94.3037 18.9707C94.3334 20.3104 95.0462 21.5161 96.4421 22.5729C97.0658 23.0492 97.8677 23.3916 98.8626 23.6149C98.9517 23.8381 98.9517 24.0465 98.8775 24.2103L100.66 25.5797L102.382 23.3023C102.516 23.1237 102.724 23.1237 103.021 23.2725L103.54 23.6595L104.402 22.5283L99.9912 19.1643L99.1596 20.3104Z" fill="white"/>
<path d="M38.484 19.4141C36.8208 19.4141 35.9595 20.0243 35.9595 20.8579C35.9595 21.1258 36.0783 21.3045 36.3307 21.4087C36.5832 21.0068 37.2514 20.7388 38.2167 20.7388C38.8701 20.7388 39.5829 20.8579 40.3848 21.0812C39.5086 24.6833 38.781 26.8417 38.4543 27.6157C37.9197 28.866 37.2811 29.4763 36.1228 29.4763C35.3655 29.4763 34.8457 29.2679 34.3557 28.7023C34.0735 28.8363 33.9102 29.0893 33.9102 29.4614C33.9102 30.2503 34.7121 30.7713 36.1971 30.7713C37.6821 30.7713 38.781 30.0717 39.5829 28.6279C39.8947 29 40.6818 28.9851 40.6818 28.9851C41.2907 28.9404 41.7659 28.7618 42.1223 28.3897C42.0332 28.5832 41.9886 28.7172 41.9886 28.8065C41.9886 28.9702 42.1074 29.0149 42.4341 29.0149C43.3845 29.0149 43.1766 28.8809 43.6964 27.6752C44.6468 25.5169 45.8496 24.5494 46.1466 24.5494C46.2951 24.5494 46.3545 24.6089 46.3545 24.7429C46.3545 24.8769 46.2209 25.1745 45.9833 25.6955C45.5081 26.8119 45.2705 27.5264 45.2705 27.8687C45.2705 28.6428 45.8942 28.9851 47.2158 28.9851C47.2604 28.9851 47.3049 28.9851 47.3495 28.9851C48.1514 28.9404 48.9533 28.7469 49.7552 28.3748C50.2304 28.7618 50.8838 28.9702 51.7451 28.9851C51.7451 28.9851 51.7451 28.9851 51.8194 28.9851C51.8342 28.9851 51.8491 28.9851 51.8639 28.9851C51.9085 28.9851 51.9827 28.9851 52.0273 28.9851C52.1312 28.9851 52.2203 28.9405 52.2352 28.8809C52.2649 28.7469 52.3985 28.3599 52.3985 28.3599C52.4282 28.2706 52.3837 28.1813 52.2946 28.1664H52.2797C52.25 28.1664 52.2203 28.1664 52.1906 28.1664C51.6412 28.1664 51.2402 28.0474 50.8838 27.7348C52.2055 26.7375 52.8292 25.4425 52.8292 24.6238C52.8292 23.7307 52.2946 23.2097 51.4481 23.2097C49.9037 23.2097 48.6118 24.6238 48.6118 26.2314C48.6118 26.8863 48.7454 27.4222 49.0721 27.839C48.5969 28.0474 48.1217 28.1515 47.5871 28.1813C46.9782 28.1367 46.7258 28.0622 46.7258 27.7497C46.7258 27.6157 46.8149 27.1989 47.0525 26.6184C47.5722 25.3383 47.9138 24.5196 47.9138 24.0582C47.9138 23.5819 47.6316 23.2842 47.097 23.2842C46.0427 23.2842 45.0032 24.2815 43.7855 26.2314L45.7902 21.1705C45.9981 20.6346 46.1763 20.2923 46.1763 20.0541C46.1763 19.816 45.909 19.7713 45.3299 19.7713C44.3795 19.7713 44.5725 20.2327 44.0231 21.9296L42.746 25.889C42.2856 27.3329 41.8104 28.0771 40.8897 28.1367C40.3551 28.1515 40.1323 27.8092 40.0284 27.571C40.5333 26.2612 41.2461 23.7456 42.152 20.0392C40.7561 19.6522 39.5532 19.4141 38.484 19.4141ZM51.3739 24.1921C51.7006 24.1921 51.8788 24.3856 51.8788 24.728C51.8788 25.3085 51.3442 26.4398 50.3641 27.0649C50.1562 26.8119 50.0819 26.5291 50.0819 26.157C50.0819 25.0852 50.7205 24.1921 51.3739 24.1921Z" fill="white"/>
<path d="M71.3174 20.5889C71.3174 21.0652 71.5847 21.3183 72.0599 21.3183C72.6093 21.3183 73.04 20.8569 73.04 20.2615C73.04 19.8149 72.7133 19.5023 72.2826 19.5023C71.7629 19.5023 71.3174 19.9638 71.3174 20.5889Z" fill="white"/>
<path d="M81.8318 24.5936C81.8318 23.7005 81.2972 23.1795 80.4507 23.1795C78.9063 23.1795 77.6143 24.5936 77.6143 26.2011C77.6143 26.8561 77.748 27.3919 78.0747 27.8087C77.5995 28.0171 77.1243 28.1213 76.5897 28.1511C75.0007 28.1213 74.2879 27.6301 74.2879 26.4393C74.2879 25.2336 75.1047 24.2512 75.8917 24.2512C76.263 24.2512 76.4263 24.4298 76.4263 24.802C76.4263 24.9062 76.4263 24.9657 76.6045 24.9657C76.9461 24.9657 77.2431 24.668 77.2431 24.2363C77.2431 23.6409 76.7382 23.1944 75.8769 23.1944C74.2879 23.1944 72.7435 24.6829 72.7435 26.5137C72.7435 27.0198 72.8178 27.4366 73.0257 27.7938C72.6247 28.032 72.194 28.1362 71.704 28.166C71.0654 28.1213 70.8278 28.0469 70.8278 27.6748C70.8278 27.4813 70.9318 27.1836 71.0654 26.7817L71.6594 25.0103C71.9119 24.2512 72.1792 23.7749 72.1792 23.4772C72.1792 23.2986 72.0158 23.2093 71.6891 23.2093C70.412 23.2093 70.6793 23.4325 70.3229 24.8466C69.7586 27.0496 69.1349 28.1362 68.1251 28.1809C67.5311 28.1511 67.3232 28.0618 67.3232 27.6152C67.3232 27.1836 67.5311 26.4691 67.9172 25.4718C68.3627 24.3405 68.7043 23.7451 68.7043 23.6112C68.7043 23.3581 68.2142 23.1646 67.6796 23.1646C66.9965 23.1646 67.2193 23.8196 66.4916 25.4718C65.8234 27.0198 65.0512 27.9576 64.5017 27.9576C64.2641 27.9576 64.1304 27.8236 64.1304 27.5706C64.1304 27.2282 64.3829 26.5435 64.8284 25.4718C65.3036 24.3256 65.6452 23.7749 65.6452 23.626C65.6452 23.373 64.9472 23.1348 64.4274 23.1348C64.0562 23.1348 63.9968 23.507 63.6404 24.5638C63.1949 25.8886 62.8088 26.8561 62.8088 27.5557C62.8088 27.6301 62.8088 27.7045 62.8236 27.779C62.3781 28.032 61.9623 28.1511 61.4574 28.1809C61.2495 28.1957 61.0862 28.2255 60.8931 28.2255C60.7595 28.2255 60.5813 28.1957 60.3734 28.1809C61.695 24.7722 62.0663 22.1524 62.0663 21.1254C62.0663 19.9941 61.6356 19.4583 60.7298 19.4583C59.8685 19.4583 58.8141 19.9941 58.0568 20.9914C57.3588 21.8994 56.943 23.0902 56.943 24.1619C56.943 25.6802 57.7746 26.5733 59.2299 26.6477L58.7844 28.032C58.532 28.0171 58.2647 28.0171 57.9677 28.0171C55.9332 28.0171 54.5967 28.9995 54.5967 30.3541C54.5967 31.2174 55.2204 31.8128 56.3044 31.8128C57.7004 31.8128 58.9923 30.8601 59.9576 28.9846C60.1952 28.9995 60.3882 29.0293 60.5219 29.0293C60.7149 29.0293 60.9377 28.9995 61.2198 28.9846C61.8732 28.94 62.4078 28.7911 62.9127 28.4488C63.0612 28.7911 63.4028 28.9846 63.9374 28.9846C64.8878 28.9846 65.5412 28.1957 66.5213 26.7519C66.3431 27.3175 66.2392 27.7492 66.2392 28.0618C66.2392 28.7911 66.6847 28.9846 67.7984 28.9846C67.843 28.9846 67.8727 28.9846 67.9172 28.9846C68.6152 28.94 69.1498 28.6869 69.6398 28.1213C69.7438 28.7316 70.2635 28.9846 71.303 28.9846C71.3624 28.9846 71.4367 28.9846 71.5109 28.9846C72.3574 28.9549 73.0554 28.7465 73.6197 28.3297C74.1394 28.7465 74.971 28.9846 76.1293 28.9846C76.159 28.9846 76.2333 28.9698 76.3669 28.9698C77.1688 28.9251 77.9707 28.7316 78.7726 28.3595C79.2478 28.7465 79.9013 28.94 80.7477 28.9698C80.7477 28.9698 80.7477 28.9698 80.7626 28.9698C80.7626 28.9698 80.7626 28.9698 80.8517 28.9698C80.8665 28.9698 80.8814 28.9698 80.8962 28.9698C80.9408 28.9698 81.015 28.9698 81.0596 28.9698C81.1487 28.9698 81.2378 28.9251 81.2526 28.8656C81.2823 28.7316 81.416 28.3446 81.416 28.3446C81.4457 28.2553 81.4011 28.166 81.312 28.1511C81.312 28.1511 81.312 28.1511 81.2972 28.1511C81.2675 28.1511 81.2378 28.1511 81.2081 28.1511C80.6586 28.1511 80.2577 28.032 79.9013 27.7194C81.2081 26.7072 81.8318 25.4122 81.8318 24.5936ZM56.4084 30.7262C56.052 30.7262 55.8738 30.5327 55.8738 30.1754C55.8738 29.5205 56.7945 28.9102 58.2944 28.9102C58.3389 28.9102 58.3835 28.9102 58.4132 28.9102C57.834 30.101 57.0766 30.7262 56.4084 30.7262ZM59.5566 25.7546C59.5121 25.7546 59.4972 25.7546 59.4675 25.7546C58.8438 25.7546 58.428 25.2783 58.428 24.4745C58.428 23.8791 58.6805 22.8074 59.2448 21.7505C59.6457 20.9914 59.9576 20.6193 60.2843 20.6193C60.4773 20.6193 60.6258 20.7681 60.6258 21.0361C60.6258 21.2593 60.3882 22.9116 59.5566 25.7546ZM79.3963 27.0645C79.1884 26.8114 79.1142 26.5286 79.1142 26.1565C79.1142 25.0848 79.7527 24.1917 80.4061 24.1917C80.7329 24.1917 80.9111 24.3852 80.9111 24.7275C80.9111 25.2932 80.3764 26.4393 79.3963 27.0645Z" fill="white"/>
<path d="M32.1727 28.4639C32.2767 28.4044 32.2767 28.33 32.2024 28.2258L31.7718 27.7494C31.7421 27.7197 31.6381 27.6006 31.5193 27.4815L31.3857 27.3178C31.5193 27.1689 31.8757 26.8266 31.8757 26.8266C31.8906 26.7968 31.9054 26.7819 31.9351 26.767C31.9797 26.7224 32.0094 26.6628 32.0391 26.6331C32.0391 26.6331 32.0391 26.6331 32.0391 26.6182C32.1282 26.4693 32.0985 26.38 32.0094 26.2163C31.95 26.127 31.6827 25.6655 31.549 25.5911C31.4599 25.5465 31.4154 25.6358 31.2669 25.7995C31.252 25.8144 31.2223 25.859 31.1926 25.8888C31.0441 26.0526 30.7917 26.2907 30.4501 26.5586C30.1383 26.2163 29.1433 25.0701 28.7127 24.3854L28.6384 24.2515L28.7721 24.1473C29.8413 23.3286 30.5392 22.7183 30.6729 21.8401C30.8214 20.813 29.9898 20.0539 28.683 20.039C27.4801 20.0241 26.5 20.8279 26.3367 21.9592C26.2624 22.495 26.4258 23.0458 26.8861 23.7603L26.9901 23.9091L26.797 24.0133C25.2823 24.8469 24.4507 25.7251 24.317 26.6033C24.124 27.8834 25.208 28.7318 27.0495 28.7616C28.3117 28.7765 29.2176 28.449 29.7522 28.2555C30.0195 28.1513 30.2868 28.0323 30.2868 28.0323L30.8362 28.5383C30.9699 28.6872 31.1332 28.717 31.3263 28.6723C31.3263 28.6723 31.8015 28.5681 31.95 28.5235C32.0688 28.4937 32.1579 28.4639 32.1727 28.4639ZM27.7177 21.7359C27.8068 21.1405 28.2226 20.6047 28.7869 20.6047C29.3364 20.6195 29.574 21.0661 29.4997 21.6168C29.4255 22.1676 28.9206 22.7779 28.282 23.1649L28.089 23.2839L27.9999 23.1053C27.7474 22.629 27.6583 22.1676 27.7177 21.7359ZM28.8018 27.4815C28.4008 27.6006 27.8811 27.7346 27.198 27.7346C26.5446 27.7197 25.8466 27.5411 25.9803 26.6182C26.0694 26.0228 26.4109 25.5613 27.3316 25.0701L27.495 24.9808L27.5841 25.1148C28.0741 25.8144 28.6384 26.4693 29.2473 27.0498L29.4106 27.1987C29.2324 27.3029 29.0245 27.3922 28.8018 27.4815Z" fill="white"/>
<path d="M33.3887 41.7135L35.5419 41.6539L35.5568 42.1898L34.0866 42.2344L34.1015 42.9936L35.4677 42.9489L35.4825 43.4848L34.1163 43.5294L34.146 44.3928L35.6607 44.3481L35.6756 44.884L33.4778 44.9435L33.3887 41.7135Z" fill="white"/>
<path d="M39.1062 44.5998L37.6064 42.0544L37.5915 42.0693L37.8291 44.7337L37.1906 44.7933L36.8936 41.5781L37.9182 41.4888L39.3735 43.9002L39.3884 43.8853L39.1656 41.3697L39.8042 41.3102L40.1012 44.5253L39.1062 44.5998Z" fill="white"/>
<path d="M41.1113 41.1471L43.2497 40.8643L43.324 41.4001L41.8687 41.5936L41.9726 42.3379L43.324 42.1593L43.3982 42.6951L42.032 42.8737L42.136 43.7222L43.6358 43.5287L43.7101 44.0645L41.5271 44.3473L41.1113 41.1471Z" fill="white"/>
<path d="M45.7585 43.7378L45.0754 43.842L44.5557 40.6566L45.907 40.4334C46.4565 40.3441 47.0356 40.4334 47.1396 41.0883C47.2138 41.5051 46.9762 41.8177 46.605 41.9665V41.9814C47.1396 41.9516 47.1841 42.2791 47.3178 42.7108C47.3772 42.9043 47.4663 43.2764 47.6296 43.4401L46.8723 43.5592C46.7683 43.2913 46.6941 43.0085 46.6198 42.7257C46.5753 42.547 46.4862 42.3238 46.2634 42.3386L45.5358 42.4577L45.7585 43.7378ZM45.4615 41.9368L46.0258 41.8474C46.3228 41.7879 46.4713 41.6093 46.4268 41.3414C46.3822 41.0585 46.1892 40.9692 45.8922 41.0139L45.313 41.1032L45.4615 41.9368Z" fill="white"/>
<path d="M50.1243 41.7563L50.0204 41.2353L51.3123 40.9823L51.6242 42.5601C51.4014 42.6792 51.1787 42.7685 50.9411 42.8429C50.7926 42.8875 50.6441 42.9322 50.2283 43.0215C49.6046 43.1406 48.669 42.9322 48.4166 41.667C48.1641 40.4166 48.9512 39.851 49.5749 39.7319C50.4807 39.5533 51.1044 39.717 51.2529 40.4613L50.5253 40.6101C50.451 40.2082 50.154 40.1189 49.7828 40.1934C49.1888 40.3124 48.9809 40.8185 49.1294 41.533C49.2779 42.2475 49.6491 42.6345 50.2431 42.5154C50.5104 42.4559 50.6886 42.3963 50.852 42.3219L50.7183 41.6521L50.1243 41.7563Z" fill="white"/>
<path d="M53.6296 41.0865L51.9961 39.3003L52.7683 39.077L53.8078 40.3124L54.0603 38.7049L54.7434 38.5114L54.2979 40.8929L54.58 41.9051L53.9118 42.0986L53.6296 41.0865Z" fill="white"/>
<path d="M58.8712 40.5527L58.1436 37.412L59.3167 37.1292C59.8662 36.9654 60.4899 37.0696 60.6384 37.6799C60.7126 38.0223 60.5344 38.32 60.2523 38.4986V38.5135C60.6681 38.4986 61.0245 38.707 61.1284 39.1684C61.2769 39.7936 60.5493 40.1955 60.0592 40.2848L58.8712 40.5527ZM59.6286 38.3944C59.9107 38.3348 60.0444 38.1711 59.985 37.9181C59.9256 37.665 59.7474 37.5906 59.4652 37.6501L58.9455 37.7692L59.1237 38.5135L59.6286 38.3944ZM59.9404 39.7489C60.2523 39.6745 60.4602 39.5703 60.3711 39.2131C60.282 38.8558 60.0592 38.8409 59.7474 38.9154L59.2276 39.0344L59.4207 39.868L59.9404 39.7489Z" fill="white"/>
<path d="M64.8852 36.191L65.1525 38.1856C65.2713 39.0341 64.707 39.5253 63.9348 39.6295C63.1626 39.7337 62.4943 39.4062 62.3903 38.5578L62.123 36.5632L62.8062 36.4739L63.0438 38.2154C63.118 38.7513 63.2071 39.2425 63.8754 39.1532C64.5436 39.0638 64.5139 38.5726 64.4397 38.0219L64.2021 36.2804L64.8852 36.191Z" fill="white"/>
<path d="M66.4746 38.7507L68.0042 36.5477L66.5192 36.5923L66.5043 36.0565L68.8358 35.9821L68.8506 36.5179L67.3359 38.7209L68.9546 38.6614L68.9694 39.1972L66.5043 39.2716L66.4746 38.7507Z" fill="white"/>
<path d="M70.0985 38.6915L71.8359 36.6523L70.3509 36.5481L70.3955 36.0122L72.7121 36.1759L72.6675 36.7118L70.9301 38.751L72.5487 38.8701L72.5042 39.406L70.0391 39.2274L70.0985 38.6915Z" fill="white"/>
<path d="M53.0944 35.8356C53.0944 35.8356 37.383 40.7178 29.3639 37.9939L29.2451 36.5649C29.2451 36.5649 34.8288 38.5744 47.3325 36.7584C51.1639 36.1928 53.0944 35.8356 53.0944 35.8356Z" fill="white"/>
<path d="M53.0059 44.7825C53.0059 44.7825 68.7173 39.9002 76.7363 42.6241L76.8551 44.0531C76.8551 44.0531 71.2715 42.0436 58.7677 43.8596C54.9364 44.4252 53.0059 44.7825 53.0059 44.7825Z" fill="white"/>
</g>
<defs>
<clipPath id="clip0_2400_1462">
<rect width="106" height="44" fill="white" transform="translate(0.0517578 0.928589)"/>
</clipPath>
</defs>
</svg>
