<svg width="193" height="27" viewBox="0 0 193 27" fill="none" xmlns="http://www.w3.org/2000/svg">
<g clip-path="url(#clip0_2400_1406)">
<path fill-rule="evenodd" clip-rule="evenodd" d="M88.637 4.60421C87.9644 4.60421 87.4071 4.38897 86.9651 3.95849C86.5423 3.52801 86.3309 2.97838 86.3309 2.32113C86.3309 1.66387 86.5423 1.12577 86.9651 0.714507C87.4071 0.284026 87.9644 0.068785 88.637 0.068785C89.3097 0.068785 89.8593 0.284026 90.2821 0.714507C90.7241 1.12577 90.947 1.66387 90.947 2.32113C90.947 2.97838 90.7241 3.52417 90.2821 3.95849C89.8593 4.38897 89.3097 4.60421 88.637 4.60421ZM86.5922 22.8843V6.71819H90.6818V22.8843H86.5922ZM50.2781 3.95849C50.7201 4.38897 51.2774 4.60421 51.95 4.60421C52.6227 4.60421 53.1723 4.38897 53.5951 3.95849C54.0371 3.52032 54.26 2.97838 54.26 2.32113C54.26 1.66387 54.0371 1.12577 53.5951 0.714507C53.1723 0.280182 52.6227 0.0649414 51.95 0.0649414C51.2774 0.0649414 50.7201 0.280182 50.2781 0.710664C49.8553 1.12193 49.6439 1.66003 49.6439 2.31728C49.6439 2.97453 49.8553 3.52417 50.2781 3.95465V3.95849ZM49.9052 6.71819V22.8881H53.9948V6.71819H49.9052ZM57.381 6.71819V22.8881H61.4706V14.5437C61.4706 13.0678 61.8011 11.9147 62.4622 11.0883C63.1425 10.262 64.0266 9.85071 65.1143 9.85071C66.202 9.85071 67.0399 10.2197 67.5742 10.9577C68.1084 11.6956 68.3737 12.7603 68.3737 14.1517V22.8881H72.4632V14.5437C72.4632 13.0678 72.7938 11.9147 73.4549 11.0883C74.1352 10.262 75.0307 9.85071 76.1377 9.85071C77.2446 9.85071 78.0249 10.2197 78.5361 10.9577C79.0704 11.6956 79.3356 12.7603 79.3356 14.1517V22.8805H83.4251V13.7558C83.4251 11.3228 82.8717 9.47788 81.7647 8.21334C80.6577 6.95264 79.0704 6.3223 77.0025 6.3223C75.8879 6.31461 74.7924 6.58366 73.8085 7.10639C72.8745 7.60605 72.0789 8.33634 71.5062 9.22805C70.4838 7.29472 68.7465 6.32614 66.2981 6.32614C65.1912 6.32614 64.2111 6.56444 63.3578 7.04105C62.5429 7.48306 61.8511 8.12109 61.3437 8.8975L60.994 6.71434H57.381V6.71819ZM94.0719 0.20331V22.8881H98.1614V0.20331H94.0719ZM108.305 23.2763C106.813 23.2763 105.48 22.9074 104.311 22.1694C103.139 21.4276 102.213 20.4206 101.532 19.1407C100.852 17.8607 100.51 16.4002 100.51 14.7743C100.51 13.1485 100.852 11.6956 101.532 10.4388C102.213 9.15886 103.143 8.15569 104.311 7.44078C105.483 6.69897 106.813 6.33383 108.305 6.33383C109.496 6.33383 110.542 6.5606 111.437 7.01799C112.333 7.47153 113.055 8.11725 113.609 8.94362V6.72587H117.698V22.8958H114.055L113.609 20.5781C113.098 21.2931 112.417 21.9272 111.564 22.4654C110.73 23.0111 109.646 23.2802 108.305 23.2802V23.2763ZM109.166 19.6288C110.488 19.6288 111.564 19.1791 112.394 18.2912C113.248 17.3803 113.674 16.2157 113.674 14.8012C113.674 13.3868 113.248 12.2376 112.394 11.3459C111.564 10.4311 110.488 9.97755 109.166 9.97755C107.843 9.97755 106.79 10.4234 105.937 11.3151C105.084 12.2068 104.657 13.3561 104.657 14.7743C104.657 16.1926 105.084 17.3495 105.937 18.2643C106.79 19.1714 107.866 19.6326 109.166 19.6326V19.6288ZM120.981 6.71819V22.8881H125.07V15.52C125.07 14.2824 125.259 13.3138 125.643 12.6181C126.05 11.9224 126.604 11.4343 127.307 11.1498C128.011 10.8654 128.81 10.727 129.706 10.727H130.855L129.706 6.71819C128.872 6.71819 127.991 6.86809 127.342 7.27166C126.362 7.87895 125.555 8.73222 125.009 9.74693L124.625 6.71819H120.981ZM136.682 22.892L132.046 6.72203H136.105L138.853 18.3566L142.047 6.72203H146.587L149.781 18.3566L152.564 6.72203H156.622L151.956 22.892H147.705L144.319 10.7962L140.929 22.892H136.682ZM160.812 22.2386C162.049 22.9304 163.464 23.2802 165.063 23.2802C166.339 23.2802 167.48 23.0419 168.484 22.5653C169.471 22.1117 170.344 21.443 171.04 20.6089C171.728 19.7902 172.243 18.837 172.542 17.8069H168.388C168.107 18.4181 167.68 18.9139 167.108 19.3059C166.55 19.6749 165.858 19.8594 165.028 19.8594C163.921 19.8594 162.972 19.5019 162.184 18.787C161.419 18.0683 160.993 17.0805 160.908 15.8198H172.954C172.973 15.5354 172.984 15.2663 172.984 15.005C173.008 14.7474 173.019 14.4938 173.019 14.2555C173.019 12.7795 172.677 11.442 171.997 10.2466C171.359 9.0474 170.394 8.05191 169.214 7.37544C168.022 6.68359 166.65 6.33383 165.094 6.33383C163.429 6.33383 161.984 6.70281 160.747 7.44078C159.532 8.15953 158.575 9.16655 157.872 10.4695C157.191 11.7725 156.849 13.26 156.849 14.9358C156.849 16.6116 157.199 18.0414 157.902 19.3021C158.579 20.5359 159.586 21.5506 160.812 22.2386ZM162.442 10.604C163.206 10.016 164.09 9.72003 165.094 9.72003C166.097 9.72003 167.012 10.039 167.715 10.6655C168.418 11.2959 168.799 12.1453 168.864 13.21H160.969C161.185 12.0377 161.673 11.1691 162.442 10.604ZM184.388 23.284C183.193 23.284 182.151 23.0573 181.256 22.596C180.376 22.154 179.626 21.4929 179.084 20.6704L178.635 22.8881H174.991V0.20331H179.08V9.03202C179.592 8.31712 180.264 7.68293 181.094 7.14482C181.948 6.59903 183.043 6.32998 184.385 6.32998C185.876 6.32998 187.206 6.69897 188.378 7.43694C189.554 8.18259 190.515 9.22805 191.157 10.4657C191.837 11.7494 192.179 13.2062 192.179 14.832C192.179 16.4578 191.837 17.9184 191.157 19.1983C190.511 20.4244 189.55 21.4583 188.378 22.1963C187.213 22.9189 185.88 23.2725 184.388 23.2725V23.284ZM183.527 19.6365C184.827 19.6365 185.903 19.1906 186.756 18.2989C187.609 17.411 188.036 16.258 188.036 14.8435C188.036 13.4291 187.609 12.2683 186.756 11.3535C185.903 10.4426 184.83 9.98523 183.527 9.98523C182.224 9.98523 181.121 10.4388 180.268 11.3535C179.438 12.2453 179.023 13.3945 179.023 14.8128C179.023 16.2311 179.438 17.388 180.268 18.2989C181.118 19.1906 182.205 19.6365 183.527 19.6365ZM44.7087 13.9633C45.6465 14.2708 46.3922 14.7359 46.9457 15.3663C47.4992 15.9774 47.7759 16.8537 47.7797 18.0068C47.8105 18.9677 47.5414 19.9132 47.011 20.7127C46.4768 21.516 45.7119 22.1463 44.7087 22.5999C43.7055 23.0611 42.5256 23.2879 41.1611 23.2879C39.7966 23.2879 38.5167 23.0573 37.452 22.5999C36.3874 22.1233 35.5341 21.4699 34.896 20.6435C34.381 19.9786 34.0235 19.206 33.8506 18.3835L37.552 17.8031C37.6865 18.1067 38.2015 18.8754 38.7512 19.2752C38.7896 19.3136 38.8319 19.3444 38.8742 19.3828L38.8934 19.3982C39.4699 19.8325 40.204 20.0477 41.0996 20.0477C41.9951 20.0477 42.6447 19.8632 43.0483 19.4943C43.4749 19.1253 43.6863 18.7025 43.6863 18.222C43.6863 17.5225 43.3865 17.0574 42.7908 16.8191C42.1912 16.5616 41.3609 16.3079 40.2963 16.0696C39.5967 15.912 38.9049 15.7275 38.2207 15.5162C37.5443 15.3086 36.8947 15.0357 36.272 14.7013C35.7147 14.3708 35.2381 13.9249 34.8653 13.3945C34.504 12.8525 34.3233 12.1915 34.3233 11.4074C34.3233 9.9737 34.8768 8.77066 35.9838 7.79055C37.1138 6.81428 38.6897 6.3223 40.7152 6.3223C42.5909 6.3223 44.0822 6.772 45.1892 7.65986C46.0617 8.34402 46.692 9.28954 46.9918 10.3542L43.5749 11.219V11.2036C43.5749 11.2036 43.1213 10.3235 42.391 9.93527C41.9605 9.68159 41.3917 9.55091 40.6845 9.55091C39.9158 9.55091 39.32 9.70081 38.8934 10.0045C38.4898 10.3119 38.2861 10.6925 38.2861 11.146C38.2861 11.6226 38.5974 12.0031 39.2124 12.2875C39.8274 12.572 40.6499 12.8333 41.6723 13.0716C42.7792 13.333 43.7939 13.629 44.7087 13.9518V13.9633Z" fill="white"/>
<path d="M24.3729 7.28639C22.9585 5.08017 20.9099 3.23909 18.5614 2.30126L17.8658 2.0668C17.097 1.8285 16.3014 1.7055 15.4943 1.70166C12.9498 1.71319 10.8896 3.81948 10.8896 6.41774C10.8896 7.50163 11.2471 8.49327 11.8467 9.2889L11.5584 8.91222C11.6968 9.11593 11.8467 9.31964 12.0197 9.5272C12.7499 10.4112 13.7877 11.3298 15.133 12.3715C18.4384 14.9313 20.5832 17.199 20.76 20.0163C20.8023 20.3969 20.8292 20.7851 20.8292 21.1771C20.8292 22.6069 20.5178 24.1213 19.9874 25.186H19.9913C19.9913 25.186 19.7645 25.6011 19.9067 25.7241C19.9797 25.7856 20.1373 25.8355 20.4141 25.6664C21.8938 24.7017 23.1699 23.4525 24.1654 21.9958C25.6298 19.8357 26.4331 17.2912 26.4677 14.6776C26.5061 12.064 25.7797 9.50029 24.3729 7.29792V7.28639Z" fill="white"/>
<path d="M14.3408 16.9032L12.2691 15.1928C7.92971 12.0257 5.67352 8.6126 6.91116 4.40387C7.02262 4.01952 7.16099 3.64669 7.31858 3.28539C7.31858 3.28539 7.62606 2.63967 6.95728 2.95484C2.89461 5.16106 0.261755 9.33519 0.0196095 13.9552C-0.137977 16.8571 0.657645 19.7321 2.28348 22.1382C2.94073 23.0606 3.74404 23.8678 4.65882 24.5289C9.23268 27.8959 13.157 26.124 13.157 26.124C15.1441 25.2861 16.4356 23.3258 16.424 21.1696C16.4317 19.5015 15.663 17.9218 14.3408 16.9032Z" fill="white"/>
</g>
<defs>
<clipPath id="clip0_2400_1406">
<rect width="192.179" height="26.5284" fill="white" transform="translate(0 0.0644531)"/>
</clipPath>
</defs>
</svg>
