<svg width="225" height="30" viewBox="0 0 225 30" fill="none" xmlns="http://www.w3.org/2000/svg">
<path d="M50.9415 8.69128C51.1144 8.6757 51.2498 8.53489 51.2498 8.36378V8.02874C51.2498 7.8499 51.1028 7.70492 50.9214 7.70492H43.2312C43.0498 7.70492 42.9028 7.8499 42.9028 8.02874V8.36349C42.9028 8.53473 43.0385 8.67561 43.2115 8.69092C44.8176 8.83309 45.3874 9.3066 45.3874 10.7326V17.441C45.3874 17.5885 45.286 17.7177 45.1408 17.7531C42.2138 18.4669 39.8434 18.3958 36.7405 17.7465C36.5897 17.715 36.482 17.5831 36.482 17.4311V10.7326C36.482 9.3066 37.0517 8.83309 38.6579 8.69092C38.8309 8.67561 38.9666 8.53473 38.9666 8.36349V8.02874C38.9666 7.8499 38.8195 7.70492 38.6381 7.70492H30.9759C30.7945 7.70492 30.6475 7.8499 30.6475 8.02874V8.36349C30.6475 8.53473 30.7832 8.6756 30.9561 8.69095C32.5592 8.83315 33.1041 9.30668 33.1041 10.7326V24.1452C33.1041 25.3414 32.5559 25.8497 30.9414 26.0647C30.7749 26.0868 30.6475 26.2251 30.6475 26.3907V26.7389C30.6475 26.9178 30.7945 27.0628 30.9759 27.0628H38.6381C38.8195 27.0628 38.9666 26.9178 38.9666 26.7389V26.3907C38.9666 26.2251 38.8391 26.0868 38.6727 26.0647C37.0552 25.8498 36.482 25.3415 36.482 24.1452V19.3532C36.482 19.1318 36.7025 18.9756 36.9172 19.0404C39.5466 19.8342 42.3286 19.9609 44.9338 19.0689C45.1529 18.9939 45.3874 19.1509 45.3874 19.3796V24.1452C45.3874 25.3415 44.8141 25.8498 43.1967 26.0647C43.0302 26.0868 42.9028 26.2251 42.9028 26.3907V26.7389C42.9028 26.9178 43.0498 27.0628 43.2312 27.0628H50.9214C51.1028 27.0628 51.2498 26.9178 51.2498 26.7389V26.3902C51.2498 26.2248 51.1227 26.0867 50.9565 26.0642C49.3625 25.849 48.7653 25.3406 48.7653 24.1452V10.7326C48.7653 9.30777 49.3588 8.83387 50.9415 8.69128Z" fill="white"/>
<path d="M57.9425 12.7727C53.8667 12.7727 51.0472 15.6903 51.0472 20.452C51.0472 24.1128 53.3642 27.4433 57.5517 27.4433C60.5848 27.4433 62.6631 25.5856 63.4638 23.3385C63.5186 23.1844 63.4402 23.0171 63.2889 22.9508L63.0622 22.8515C62.912 22.7857 62.7366 22.8401 62.6424 22.9729C61.8064 24.1521 60.3988 25.0486 58.6963 25.0486C56.188 25.0486 54.4614 23.0961 54.1963 19.9108C54.1809 19.7264 54.331 19.5712 54.5186 19.5712H63.3067C63.489 19.5712 63.6369 19.4246 63.6308 19.245C63.5056 15.5776 61.7119 12.7727 57.9425 12.7727ZM57.4959 14.0113C59.3085 14.0113 60.1284 15.5923 60.3203 17.9636C60.3353 18.1487 60.1851 18.3051 59.9968 18.3051H54.559C54.3667 18.3051 54.2151 18.1423 54.2376 17.954C54.526 15.541 55.604 14.0113 57.4959 14.0113Z" fill="white"/>
<path d="M80.0215 26.0508C78.9606 26.0508 78.2972 25.5554 78.2972 24.3443V13.0965C78.2972 12.9177 78.1502 12.7727 77.9688 12.7727H77.133C77.0232 12.7727 76.9206 12.8268 76.8597 12.9169L76.0967 14.0453C75.9714 14.2306 75.6977 14.2386 75.5424 14.0768C74.8292 13.3338 73.7456 12.7727 72.0718 12.7727C68.2473 12.7727 65.0927 15.6903 65.0927 20.5621C65.0927 24.2779 67.2423 27.4433 71.0389 27.4433C72.3884 27.4433 73.5526 26.8495 74.3708 26.0584C74.6061 25.8308 75.0868 25.9859 75.0868 26.3109V26.7956C75.0868 26.9745 75.2338 27.1194 75.4152 27.1194H75.7847L80.2865 27.0212C80.465 27.0173 80.6077 26.8735 80.6077 26.6975V26.3747C80.6077 26.1958 80.4607 26.0508 80.2793 26.0508H80.0215ZM72.1277 25.5165C69.5314 25.5165 68.4427 22.4613 68.4427 19.5437C68.4427 16.1857 69.9223 14.0663 71.8764 14.0663C74.2214 14.0663 75.0868 16.1307 75.0868 18.3326V24.2465C75.0868 24.3368 75.049 24.4233 74.9801 24.4826C74.2439 25.1163 73.3253 25.5165 72.1277 25.5165Z" fill="white"/>
<path d="M86.4764 8.02388C86.4764 7.84504 86.3294 7.70006 86.148 7.70006H81.724C81.5426 7.70006 81.3956 7.84504 81.3956 8.02388V8.25148C81.3956 8.40978 81.5117 8.54487 81.67 8.57089L81.7306 8.58084C82.931 8.74599 83.266 9.29648 83.266 10.2598V24.4155C83.266 25.4879 82.4309 25.8024 81.3296 26.04C81.1772 26.0729 81.0672 26.205 81.0672 26.3588V26.7341C81.0672 26.9129 81.2142 27.0579 81.3956 27.0579H88.0184C88.1998 27.0579 88.3468 26.9129 88.3468 26.7341V26.3576C88.3468 26.2043 88.2373 26.0727 88.0859 26.038C87.0497 25.8006 86.4764 25.4849 86.4764 24.4155V8.02388Z" fill="white"/>
<path d="M97.9736 25.3593C97.8885 25.1913 97.6774 25.131 97.5101 25.2208C97.0067 25.491 96.5031 25.6817 95.8061 25.6817C94.4382 25.6817 93.5449 24.911 93.5449 23.1769V14.6378C93.5449 14.459 93.6919 14.314 93.8733 14.314H97.4318C97.6132 14.314 97.7602 14.169 97.7602 13.9902V13.4818C97.7602 13.303 97.6132 13.158 97.4318 13.158H93.8733C93.6919 13.158 93.5449 13.013 93.5449 12.8342V9.13941C93.5449 8.96057 93.3978 8.8156 93.2164 8.8156H90.635C90.4536 8.8156 90.3065 8.96057 90.3065 9.13941V12.8342C90.3065 13.013 90.1595 13.158 89.9781 13.158H88.6251C88.4437 13.158 88.2966 13.303 88.2966 13.4818V13.9902C88.2966 14.169 88.4437 14.314 88.6251 14.314H89.9781C90.1595 14.314 90.3065 14.459 90.3065 14.6378V23.2595C90.3065 26.0395 91.7303 27.4432 94.2428 27.4432C95.8374 27.4432 97.0766 26.4853 97.9166 25.818C98.0372 25.7222 98.0737 25.5566 98.0044 25.42L97.9736 25.3593Z" fill="white"/>
<path d="M187.569 25.3593C187.483 25.1913 187.272 25.131 187.105 25.2208C186.602 25.491 186.098 25.6817 185.401 25.6817C184.033 25.6817 183.14 24.911 183.14 23.1769V14.6378C183.14 14.459 183.287 14.314 183.468 14.314H187.027C187.208 14.314 187.355 14.169 187.355 13.9902V13.4818C187.355 13.303 187.208 13.158 187.027 13.158H183.468C183.287 13.158 183.14 13.013 183.14 12.8342V9.13941C183.14 8.96057 182.993 8.8156 182.811 8.8156H180.23C180.049 8.8156 179.902 8.96057 179.902 9.13941V23.2595C179.902 26.0395 181.325 27.4432 183.838 27.4432C185.432 27.4432 186.672 26.4853 187.512 25.818C187.632 25.7222 187.669 25.5566 187.599 25.42L187.569 25.3593Z" fill="white"/>
<path d="M112.501 24.4155V17.4243C112.501 14.3966 110.798 12.7727 108.23 12.7727C106.759 12.7727 105.497 13.4499 104.227 14.7689C104.015 14.9889 103.623 14.8472 103.623 14.5438V8.02388C103.623 7.84504 103.476 7.70006 103.295 7.70006H98.871C98.6896 7.70006 98.5425 7.84504 98.5425 8.02388V8.25412C98.5425 8.41125 98.657 8.5457 98.8139 8.57301L99.0171 8.60837C100.05 8.77352 100.413 9.24143 100.413 10.1773V24.4155C100.413 25.4862 99.8622 25.8014 98.805 26.0389C98.6528 26.0731 98.5425 26.205 98.5425 26.3588V26.7341C98.5425 26.9129 98.6896 27.0579 98.871 27.0579H105.165C105.347 27.0579 105.494 26.9129 105.494 26.7341V26.3576C105.494 26.2043 105.384 26.0727 105.233 26.038C104.197 25.8006 103.623 25.4849 103.623 24.4155V16.8365C103.623 16.7544 103.655 16.6749 103.713 16.6156C104.874 15.4195 105.854 14.9746 106.862 14.9746C108.397 14.9746 109.29 15.9105 109.29 17.7546V24.4155C109.29 25.4754 108.774 25.8181 107.849 26.0374C107.698 26.0734 107.587 26.2049 107.587 26.3587V26.7341C107.587 26.9129 107.735 27.0579 107.916 27.0579H114.043C114.224 27.0579 114.371 26.9129 114.371 26.7341V26.3576C114.371 26.2043 114.262 26.0727 114.11 26.038C113.074 25.8006 112.501 25.4849 112.501 24.4155Z" fill="white"/>
<path d="M150.771 26.0508C149.682 26.0508 149.347 25.5003 149.347 24.3443V13.4155C149.347 13.2366 149.2 13.0916 149.019 13.0916H144.595C144.413 13.0916 144.266 13.2366 144.266 13.4155V13.6431C144.266 13.8014 144.382 13.9364 144.541 13.9625L144.601 13.9724C145.802 14.1376 146.137 14.6881 146.137 15.6514V23.4028C146.137 23.4874 146.103 23.569 146.042 23.6289C144.858 24.7971 143.905 25.2413 142.898 25.2413C141.391 25.2413 140.47 24.3055 140.47 22.4613V13.4155C140.47 13.2366 140.323 13.0916 140.141 13.0916H135.717C135.536 13.0916 135.389 13.2366 135.389 13.4155V13.6431C135.389 13.8014 135.505 13.9364 135.663 13.9625L135.724 13.9724C136.924 14.1376 137.259 14.6881 137.259 15.6514V22.7916C137.259 25.8193 138.962 27.4708 141.558 27.4708C143.023 27.4708 144.282 26.7985 145.529 25.489C145.741 25.2668 146.137 25.4081 146.137 25.713V26.7956C146.137 26.9745 146.284 27.1194 146.465 27.1194H146.835L151.009 27.0217C151.187 27.0175 151.329 26.8738 151.329 26.698V26.3746C151.329 26.1958 151.182 26.0508 151.001 26.0508H150.771Z" fill="white"/>
<path d="M166.421 26.0508C165.36 26.0508 164.697 25.5554 164.697 24.3443V13.0965C164.697 12.9177 164.55 12.7727 164.368 12.7727H163.533C163.423 12.7727 163.32 12.8268 163.259 12.9169L162.496 14.0453C162.371 14.2306 162.097 14.2386 161.942 14.0768C161.229 13.3338 160.145 12.7727 158.471 12.7727C154.647 12.7727 151.492 15.6903 151.492 20.5621C151.492 24.2779 153.642 27.4433 157.439 27.4433C158.788 27.4433 159.952 26.8495 160.77 26.0584C161.006 25.8308 161.486 25.9859 161.486 26.3109V26.7956C161.486 26.9745 161.634 27.1194 161.815 27.1194H162.184L166.686 27.0212C166.865 27.0173 167.007 26.8735 167.007 26.6975V26.3747C167.007 26.1958 166.86 26.0508 166.679 26.0508H166.421ZM158.527 25.5165C155.931 25.5165 154.842 22.4613 154.842 19.5437C154.842 16.1857 156.322 14.0663 158.276 14.0663C160.621 14.0663 161.486 16.1307 161.486 18.3326V24.2465C161.486 24.3368 161.449 24.4233 161.38 24.4826C160.644 25.1163 159.725 25.5165 158.527 25.5165Z" fill="white"/>
<path d="M176.728 12.7176C175.49 12.799 174.312 13.4975 173.41 15.0132C173.22 15.3324 172.569 15.2078 172.569 14.8377V13.2535C172.569 13.0747 172.422 12.9297 172.24 12.9297H167.816C167.635 12.9297 167.488 13.0747 167.488 13.2535V13.4812C167.488 13.6394 167.604 13.7745 167.762 13.8006L167.823 13.8105C169.023 13.9757 169.358 15.4976 169.358 16.461V24.333C169.358 25.3671 168.724 25.7456 167.421 26.0386C167.269 26.0727 167.16 26.2046 167.16 26.3581V26.7341C167.16 26.9129 167.307 27.0579 167.488 27.0579H174.809C174.99 27.0579 175.137 26.9129 175.137 26.7341V26.3754C175.137 26.2143 175.016 26.0779 174.855 26.0525C173.123 25.7791 172.569 25.379 172.569 24.333V18.0658C172.569 18.0239 172.577 17.9821 172.594 17.9435C173.214 16.4914 174.374 15.5791 175.723 15.4976C176.314 15.4575 176.919 15.6076 177.42 15.8732C177.651 15.9959 177.969 15.8672 177.998 15.6098L178.288 13.1003C178.306 12.943 178.207 12.7946 178.049 12.7656C177.688 12.6992 177.234 12.6743 176.728 12.7176Z" fill="white"/>
<path d="M211.129 12.7176C209.89 12.799 208.713 13.4975 207.811 15.0132C207.621 15.3324 206.969 15.2078 206.969 14.8377V13.2535C206.969 13.0747 206.822 12.9297 206.641 12.9297H202.217C202.035 12.9297 201.888 13.0747 201.888 13.2535V13.4812C201.888 13.6394 202.004 13.7745 202.163 13.8006L202.223 13.8105C203.424 13.9757 203.759 15.4976 203.759 16.461V24.333C203.759 25.3662 203.415 25.7449 202.149 26.0378C201.998 26.0729 201.888 26.2046 201.888 26.3581V26.7341C201.888 26.9129 202.035 27.0579 202.217 27.0579H209.209C209.39 27.0579 209.537 26.9129 209.537 26.7341V26.3754C209.537 26.2143 209.416 26.0779 209.255 26.0525C207.523 25.7791 206.969 25.379 206.969 24.333V18.0658C206.969 18.0239 206.977 17.9821 206.994 17.9435C207.614 16.4914 208.774 15.5791 210.124 15.4976C210.714 15.4575 211.319 15.6076 211.82 15.8732C212.051 15.9959 212.369 15.8672 212.399 15.6098L212.688 13.1003C212.707 12.943 212.607 12.7946 212.449 12.7656C212.088 12.6992 211.634 12.6743 211.129 12.7176Z" fill="white"/>
<path d="M195.169 12.7727C191.093 12.7727 188.274 15.6903 188.274 20.452C188.274 24.1128 190.591 27.4433 194.778 27.4433C197.811 27.4433 199.889 25.5856 200.69 23.3385C200.745 23.1844 200.667 23.0171 200.515 22.9508L200.289 22.8515C200.138 22.7857 199.963 22.8401 199.869 22.9729C199.033 24.1521 197.625 25.0486 195.923 25.0486C193.414 25.0486 191.688 23.0961 191.423 19.9108C191.407 19.7264 191.557 19.5712 191.745 19.5712H200.533C200.715 19.5712 200.863 19.4246 200.857 19.245C200.732 15.5776 198.938 12.7727 195.169 12.7727ZM194.722 14.0113C196.535 14.0113 197.355 15.5923 197.547 17.9636C197.562 18.1487 197.411 18.3051 197.223 18.3051H191.785C191.593 18.3051 191.441 18.1423 191.464 17.954C191.752 15.541 192.83 14.0113 194.722 14.0113Z" fill="white"/>
<path d="M218.844 12.7727C215.55 12.7727 213.456 14.3966 213.484 16.9564C213.512 22.0484 221.719 20.5071 221.747 24.0302C221.775 25.4064 220.575 26.2872 219.123 26.2872C217.707 26.2872 216.463 25.243 215.508 23.2457C215.414 23.0489 215.156 22.9881 214.987 23.128L213.099 24.6933C212.969 24.801 212.943 24.9896 213.052 25.1179C214.06 26.3043 216.329 27.4433 218.844 27.4433C222.25 27.4433 224.316 25.434 224.316 23.1219C224.316 17.5619 215.996 19.1859 215.996 15.8554C215.996 14.6719 217.113 13.9287 218.537 13.9287C219.901 13.9287 220.98 14.7939 221.774 16.5243C221.872 16.7377 222.159 16.7962 222.326 16.6295L224.002 14.9555C224.118 14.8403 224.13 14.6578 224.018 14.5396C223.327 13.812 221.727 12.7727 218.844 12.7727Z" fill="white"/>
<path fill-rule="evenodd" clip-rule="evenodd" d="M114.69 17.345C114.69 11.3171 118.745 7.3811 124.597 7.3811C130.767 7.3811 134.201 12.6739 134.201 17.5182C134.201 20.1772 133.348 22.4346 131.934 24.1272C131.831 24.2512 131.829 24.4316 131.938 24.5507C133.246 25.9742 134.754 26.6959 136.292 26.7394C136.387 26.7421 136.477 26.7815 136.539 26.8513L138.162 28.6686C138.321 28.8459 138.238 29.1252 138.005 29.1815C134.681 29.9857 132.133 28.8266 130.116 26.1708C130.009 26.0307 129.811 25.9946 129.66 26.0868C128.152 27.0067 126.367 27.5096 124.458 27.5096C118.288 27.5096 114.69 23.0264 114.69 17.345ZM129.702 21.5121C129.869 21.7212 130.206 21.6648 130.27 21.4064C130.503 20.4589 130.614 19.4149 130.599 18.3164C130.544 14.0501 128.45 8.64723 124.011 8.67476C120.62 8.72503 118.743 12.8714 118.485 16.7411C118.471 16.9524 118.668 17.1144 118.88 17.0776C122.475 16.4532 126.498 17.4897 129.702 21.5121ZM118.488 18.6989C118.477 18.5391 118.59 18.3967 118.75 18.3693C123.156 17.6136 126.557 19.6366 128.521 23.56C128.618 23.7526 128.716 23.9411 128.815 24.1252C128.877 24.2394 128.866 24.3794 128.781 24.4782C127.87 25.54 126.62 26.1768 125.044 26.1885C120.872 26.2399 118.77 22.6279 118.488 18.6989Z" fill="white"/>
<path fill-rule="evenodd" clip-rule="evenodd" d="M0.179688 27.0707V7.0369L11.3865 0.615234L22.5933 7.0369V27.0707H0.179688ZM10.3359 20.2184V23.5145H3.68182L3.68182 20.2184C3.68182 18.3981 5.17138 16.9224 7.00885 16.9224C8.84632 16.9224 10.3359 18.3981 10.3359 20.2184ZM15.7642 8.50867C13.8784 8.50867 12.3496 10.0232 12.3496 11.8914C12.3496 13.7597 13.8784 15.2742 15.7642 15.2742C17.65 15.2742 19.1788 13.7597 19.1788 11.8914C19.1788 10.0232 17.65 8.50867 15.7642 8.50867Z" fill="white"/>
</svg>
