<svg width="61" height="38" viewBox="0 0 61 38" fill="none" xmlns="http://www.w3.org/2000/svg">
<g clip-path="url(#clip0_2097_12452)">
<mask id="mask0_2097_12452" style="mask-type:luminance" maskUnits="userSpaceOnUse" x="0" y="0" width="61" height="38">
<path d="M61 0.097168H0V37.0972H61V0.097168Z" fill="white"/>
</mask>
<g mask="url(#mask0_2097_12452)">
<path d="M12.1959 7.84096L12.1953 7.84952L12.1955 7.8581C12.24 9.50203 12.529 10.7777 13.0062 11.8154C13.4838 12.854 14.1458 13.6451 14.9232 14.3249C15.6979 15.0024 16.5904 15.5716 17.5256 16.1628L17.6109 16.2167C18.5235 16.7935 19.4784 17.3971 20.4278 18.1539C21.4497 18.9686 22.4325 20.2708 22.8685 21.6726C23.3027 23.0684 23.1919 24.5456 22.0615 25.7574C21.42 26.4451 20.5363 26.6669 19.6357 26.566C18.7323 26.4648 17.8274 26.0392 17.1764 25.4553C16.4152 24.7726 15.9043 23.831 15.4391 22.6274C15.1616 21.9093 14.9053 21.1126 14.6218 20.2317C14.4276 19.6279 14.2206 18.9844 13.9853 18.2996C12.8426 14.9739 10.9012 13.206 8.81398 12.5386C6.73353 11.8734 4.53618 12.311 2.89325 13.3411C1.42686 14.2598 0.545103 15.4342 0.123992 16.743C-0.29612 18.0487 -0.253494 19.4743 0.103447 20.8933C0.816352 23.7273 2.79148 26.5707 4.94213 28.4728C7.60927 30.8319 11.0453 33.2198 14.4849 33.9229C16.209 34.2754 17.9403 34.2058 19.5748 33.491C21.2094 32.7761 22.7304 31.4233 24.0467 29.2386C25.3634 27.0531 25.8493 25.0679 25.7886 23.2764C25.7279 21.486 25.1218 19.9031 24.2765 18.5203C23.4318 17.1386 22.346 15.9531 21.3202 14.9554C20.8295 14.4781 20.3511 14.0424 19.9192 13.6492L19.8608 13.596C19.4124 13.1876 19.0193 12.828 18.713 12.512C17.503 11.2639 16.8811 9.52097 16.9355 8.01805C16.9897 6.51767 17.7093 5.29854 19.1445 4.99224C19.6527 4.88379 20.0484 4.89007 20.3608 4.97605C20.6704 5.06125 20.9092 5.22767 21.1016 5.45989C21.4957 5.93553 21.6952 6.68523 21.8601 7.57835C21.9027 7.80924 21.9429 8.04917 21.9839 8.29397C22.0983 8.97694 22.2191 9.69779 22.4163 10.3659C22.6856 11.2782 23.1062 12.1285 23.8794 12.6964C26.8817 14.9013 30.8762 13.8598 33.1886 11.8307C34.1704 10.9696 34.6585 10.0155 34.7448 9.02097C34.8306 8.03073 34.5161 7.02357 33.9376 6.05457C32.7827 4.12032 30.5483 2.29117 28.1531 0.956887C25.7118 -0.403057 21.8483 -0.392567 18.5491 0.792445C15.2491 1.97778 12.437 4.36873 12.1959 7.84096ZM34.434 1.81713C34.03 2.37097 34.0292 2.96562 34.236 3.56422C34.4392 4.15256 34.8486 4.76379 35.2893 5.38021C35.3752 5.5004 35.4624 5.62094 35.55 5.74193C35.9173 6.24949 36.2903 6.76496 36.5965 7.2954C36.9749 7.95108 37.2386 8.60974 37.2593 9.27342C37.2819 9.99724 37.264 10.627 37.2475 11.2075C37.2007 12.8536 37.1652 14.1037 38.0951 15.9805C38.4132 16.6228 38.8241 17.1551 39.2467 17.6688C39.325 17.7639 39.4035 17.8582 39.4819 17.9524C39.8298 18.3704 40.176 18.7863 40.4907 19.2609C41.2525 20.41 41.8293 21.9057 41.6557 24.5208C41.5293 26.4247 41.183 27.9238 40.8935 29.1768C40.7817 29.6605 40.6785 30.1075 40.5996 30.527C40.4592 31.2737 40.3959 31.9389 40.5208 32.5513C40.6472 33.1708 40.9628 33.7216 41.5515 34.2453C41.8646 34.5239 42.3235 34.6674 42.8672 34.7093C43.4138 34.7515 44.0665 34.6928 44.7903 34.5469C46.2384 34.255 47.9966 33.6086 49.8087 32.6806C53.4298 30.8262 57.3041 27.8274 59.3658 24.2234C60.916 21.513 61.4399 18.916 61.0591 17.0985C60.8682 16.1871 60.4461 15.4583 59.7961 15.0235C59.1442 14.5873 58.2909 14.4657 57.2777 14.7142C55.4165 15.1706 54.3068 15.7948 53.6725 16.5539C53.0337 17.3184 52.8998 18.1922 52.9262 19.0881C52.9392 19.5307 52.9915 19.9849 53.0436 20.4363L53.045 20.4483C53.0978 20.9064 53.1501 21.3624 53.1647 21.8169C53.1939 22.723 53.0727 23.6056 52.5148 24.4331C51.8676 25.3929 50.4628 27.4499 48.8721 28.9443C48.0755 29.6926 47.2471 30.2854 46.457 30.5371C45.6789 30.7849 44.9445 30.702 44.2916 30.1053C43.7822 29.6398 43.7385 28.937 43.9956 27.9591C44.1916 27.2133 44.5491 26.356 44.9481 25.3991C45.0711 25.1042 45.198 24.7998 45.3254 24.4863C46.3966 21.8495 47.4744 18.622 46.181 15.3556C46.028 14.9692 45.7269 14.5646 45.3849 14.1581C45.2124 13.9531 45.0258 13.7435 44.8378 13.5322L44.8353 13.5294C44.6474 13.3183 44.4579 13.1054 44.2756 12.8899C43.9084 12.4558 43.5787 12.0205 43.3619 11.5886C43.1455 11.1574 43.0493 10.7446 43.127 10.3484C43.2071 9.9399 43.4571 9.50671 43.7987 9.0391C44.0026 8.75998 44.2279 8.4827 44.4599 8.19705C44.6201 7.99998 44.7834 7.79894 44.9452 7.59056C45.7125 6.60221 46.4174 5.48316 46.0343 4.27308C45.936 3.96252 45.7234 3.6309 45.4347 3.29953C45.1444 2.96629 44.7692 2.62428 44.3335 2.29345C43.4623 1.63194 42.3386 1.007 41.1417 0.582529C38.7638 -0.2608 36.0076 -0.336954 34.434 1.81713ZM27.6594 21.3609C28.028 22.7477 27.9854 23.8368 27.738 24.7662C27.4895 25.6998 27.0321 26.4822 26.5514 27.2586C26.5062 27.3316 26.4608 27.4046 26.4154 27.4775C25.4971 28.9528 24.57 30.4421 25.1369 32.8391C25.6973 35.2089 27.3344 36.4167 29.2114 36.939C31.0791 37.4586 33.1939 37.3047 34.7656 36.9587C35.7156 36.7496 36.8705 36.3118 37.7187 35.5359C38.5761 34.7515 39.1141 33.625 38.8152 32.0774C38.5754 30.8359 38.5849 29.9276 38.7167 29.1884C38.8487 28.448 39.1047 27.8676 39.375 27.2743C39.3863 27.2495 39.3976 27.2247 39.4089 27.1999C39.6682 26.6316 39.9365 26.0433 40.0942 25.3057C40.2593 24.5334 40.3021 23.6051 40.1033 22.3606C39.7729 20.2916 38.3033 18.2451 36.4406 16.8373C34.5794 15.4306 32.2842 14.6309 30.2804 15.1189C29.3383 15.3478 28.3754 15.7973 27.8052 16.7696C27.2359 17.7403 27.083 19.1896 27.6594 21.3609ZM35.1537 27.0139L29.9281 25.9991L30.1015 26.039C30.6006 23.8703 30.2656 22.1153 30.0023 20.7358C29.9913 20.6782 29.9804 20.6213 29.9698 20.565C29.8354 19.8568 29.7355 19.2709 29.7793 18.7723C29.8219 18.2878 29.9999 17.8914 30.4317 17.5554C31.1132 17.025 32.0437 16.9612 32.9926 17.2783C33.9407 17.5951 34.8839 18.2865 35.5567 19.2237C36.7048 20.8228 37.0006 22.1893 36.8222 23.4339C36.6424 24.6882 35.9782 25.8437 35.1537 27.0139ZM51.5086 11.756C50.7503 11.2316 49.7234 10.9469 48.8055 10.9769C47.8935 11.0067 47.0295 11.3534 46.6931 12.1613C46.4409 12.7673 46.4421 13.2468 46.589 13.7155C46.6959 14.0564 46.883 14.3957 47.0869 14.7655C47.1512 14.8821 47.2172 15.0017 47.2828 15.1254C47.8359 16.1674 48.4693 17.6605 48.304 20.5947C48.2188 22.0991 47.5893 23.3187 47.0038 24.4205L46.9604 24.5021C46.6854 25.0192 46.4209 25.5167 46.2426 25.9983C46.0541 26.5076 45.9555 27.0153 46.0463 27.5307C46.0923 27.7915 46.1933 27.9966 46.369 28.114C46.5463 28.2325 46.7575 28.2339 46.9603 28.1807C47.3568 28.0767 47.8279 27.7372 48.2816 27.3274C49.1973 26.5002 50.1521 25.2826 50.4711 24.6677C51.1181 23.4205 51.2962 22.4436 51.3376 21.4349C51.3539 21.0364 51.3489 20.6313 51.3436 20.2066C51.3423 20.0991 51.3409 19.9904 51.3399 19.8803C51.3349 19.3323 51.3376 18.741 51.3886 18.0657C51.4275 17.5495 51.6558 17.062 51.9446 16.57C52.0373 16.4121 52.1378 16.2514 52.2393 16.0893C52.445 15.7606 52.6544 15.4261 52.8088 15.0974C53.0446 14.5955 53.1776 14.0616 53.0056 13.49C52.8349 12.9229 52.3747 12.3548 51.5086 11.756ZM47.9718 6.58079C48.2356 8.70673 49.6901 9.93025 51.165 10.4185C51.9011 10.6622 52.6505 10.726 53.2716 10.625C53.8853 10.5251 54.4137 10.2557 54.6395 9.79286C55.0312 8.99003 55.2168 8.01184 54.9761 7.06445C54.7339 6.11111 54.0655 5.21112 52.7919 4.56433C51.5209 3.91891 50.2632 3.87576 49.3427 4.27006C48.4157 4.66716 47.8382 5.50955 47.9718 6.58079Z" fill="#111111"/>
<path d="M59.3658 24.2234C57.3041 27.8274 53.4298 30.8262 49.8087 32.6806C47.9966 33.6086 46.2384 34.255 44.7903 34.5469C44.0665 34.6928 43.4138 34.7515 42.8672 34.7093C42.3235 34.6674 41.8646 34.5239 41.5515 34.2453C40.9628 33.7216 40.6472 33.1708 40.5208 32.5513C40.3959 31.9389 40.4592 31.2737 40.5996 30.527C40.6785 30.1075 40.7817 29.6605 40.8935 29.1768C41.183 27.9238 41.5293 26.4247 41.6557 24.5208C41.8293 21.9057 41.2525 20.41 40.4907 19.2609C40.176 18.7863 39.8298 18.3704 39.4819 17.9524C39.4035 17.8582 39.325 17.7639 39.2467 17.6688C38.8241 17.1551 38.4132 16.6228 38.0951 15.9805C37.1652 14.1037 37.2007 12.8536 37.2475 11.2075C37.264 10.627 37.2819 9.99724 37.2593 9.27342C37.2386 8.60974 36.9749 7.95108 36.5965 7.2954C36.2903 6.76496 35.9173 6.24949 35.55 5.74193C35.4624 5.62094 35.3752 5.5004 35.2893 5.38021C34.8486 4.76379 34.4392 4.15256 34.236 3.56422C34.0292 2.96562 34.03 2.37097 34.434 1.81713C36.0076 -0.336954 38.7638 -0.2608 41.1417 0.582529C42.3386 1.007 43.4623 1.63194 44.3335 2.29345C44.7692 2.62428 45.1444 2.96629 45.4347 3.29953C45.7234 3.6309 45.936 3.96252 46.0343 4.27308C46.4174 5.48316 45.7125 6.60221 44.9452 7.59056C44.7834 7.79894 44.6201 7.99998 44.4599 8.19705C44.2279 8.4827 44.0026 8.75998 43.7987 9.0391C43.4571 9.50671 43.2071 9.9399 43.127 10.3484C43.0493 10.7446 43.1455 11.1574 43.3619 11.5886C43.5787 12.0205 43.9084 12.4558 44.2756 12.8899C44.4579 13.1054 44.6474 13.3183 44.8353 13.5294L44.8378 13.5322C45.0258 13.7435 45.2124 13.9531 45.3849 14.1581C45.7269 14.5646 46.028 14.9692 46.181 15.3556C47.4744 18.622 46.3966 21.8495 45.3254 24.4863C45.198 24.7998 45.0711 25.1042 44.9481 25.3991C44.5491 26.356 44.1916 27.2133 43.9956 27.9591C43.7385 28.937 43.7822 29.6398 44.2916 30.1053C44.9445 30.702 45.6789 30.7849 46.457 30.5371C47.2471 30.2854 48.0755 29.6926 48.8721 28.9443C50.4628 27.4499 51.8676 25.3929 52.5148 24.4331C53.0727 23.6056 53.1939 22.723 53.1647 21.8169C53.1501 21.3624 53.0978 20.9064 53.045 20.4483L53.0436 20.4363C52.9915 19.9849 52.9392 19.5307 52.9262 19.0881C52.8998 18.1922 53.0337 17.3184 53.6725 16.5539C54.3068 15.7948 55.4165 15.1706 57.2777 14.7142C58.2909 14.4657 59.1442 14.5873 59.7961 15.0235C60.4461 15.4583 60.8682 16.1871 61.0591 17.0985C61.4399 18.916 60.916 21.513 59.3658 24.2234ZM59.3658 24.2234L59.2113 24.1351M12.1959 7.84096L12.1953 7.84952L12.1955 7.8581C12.24 9.50203 12.529 10.7777 13.0062 11.8154C13.4838 12.854 14.1458 13.6451 14.9232 14.3249C15.6979 15.0024 16.5904 15.5716 17.5256 16.1628L17.6109 16.2167C18.5235 16.7935 19.4784 17.3971 20.4278 18.1539C21.4497 18.9686 22.4325 20.2708 22.8685 21.6726C23.3027 23.0684 23.1919 24.5456 22.0615 25.7574C21.42 26.4451 20.5363 26.6669 19.6357 26.566C18.7323 26.4648 17.8274 26.0392 17.1764 25.4553C16.4152 24.7726 15.9043 23.831 15.4391 22.6274C15.1616 21.9093 14.9053 21.1126 14.6218 20.2317C14.4276 19.6279 14.2206 18.9844 13.9853 18.2996C12.8426 14.9739 10.9012 13.206 8.81398 12.5386C6.73353 11.8734 4.53618 12.311 2.89325 13.3411C1.42686 14.2598 0.545103 15.4342 0.123992 16.743C-0.29612 18.0487 -0.253494 19.4743 0.103447 20.8933C0.816352 23.7273 2.79148 26.5707 4.94213 28.4728C7.60927 30.8319 11.0453 33.2198 14.4849 33.9229C16.209 34.2754 17.9403 34.2058 19.5748 33.491C21.2094 32.7761 22.7304 31.4233 24.0467 29.2386C25.3634 27.0531 25.8493 25.0679 25.7886 23.2764C25.7279 21.486 25.1218 19.9031 24.2765 18.5203C23.4318 17.1386 22.346 15.9531 21.3202 14.9554C20.8295 14.4781 20.3511 14.0424 19.9192 13.6492L19.8608 13.596C19.4124 13.1876 19.0193 12.828 18.713 12.512C17.503 11.2639 16.8811 9.52097 16.9355 8.01805C16.9897 6.51767 17.7093 5.29854 19.1445 4.99224C19.6527 4.88379 20.0484 4.89007 20.3608 4.97605C20.6704 5.06125 20.9092 5.22767 21.1016 5.45989C21.4957 5.93553 21.6952 6.68523 21.8601 7.57835C21.9027 7.80924 21.9429 8.04917 21.9839 8.29397C22.0983 8.97694 22.2191 9.69779 22.4163 10.3659C22.6856 11.2782 23.1062 12.1285 23.8794 12.6964C26.8817 14.9013 30.8762 13.8598 33.1886 11.8307C34.1704 10.9696 34.6585 10.0155 34.7448 9.02097C34.8306 8.03073 34.5161 7.02357 33.9376 6.05457C32.7827 4.12032 30.5483 2.29117 28.1531 0.956887C25.7118 -0.403057 21.8483 -0.392567 18.5491 0.792445C15.2491 1.97778 12.437 4.36873 12.1959 7.84096ZM27.6594 21.3609C28.028 22.7477 27.9854 23.8368 27.738 24.7662C27.4895 25.6998 27.0321 26.4822 26.5514 27.2586C26.5062 27.3316 26.4608 27.4046 26.4154 27.4775C25.4971 28.9528 24.57 30.4421 25.1369 32.8391C25.6973 35.2089 27.3344 36.4167 29.2114 36.939C31.0791 37.4586 33.1939 37.3047 34.7656 36.9587C35.7156 36.7496 36.8705 36.3118 37.7187 35.5359C38.5761 34.7515 39.1141 33.625 38.8152 32.0774C38.5754 30.8359 38.5849 29.9276 38.7167 29.1884C38.8487 28.448 39.1047 27.8676 39.375 27.2743C39.3863 27.2495 39.3976 27.2247 39.4089 27.1999C39.6682 26.6316 39.9365 26.0433 40.0942 25.3057C40.2593 24.5334 40.3021 23.6051 40.1033 22.3606C39.7729 20.2916 38.3033 18.2451 36.4406 16.8373C34.5794 15.4306 32.2842 14.6309 30.2804 15.1189C29.3383 15.3478 28.3754 15.7973 27.8052 16.7696C27.2359 17.7403 27.083 19.1896 27.6594 21.3609ZM35.1537 27.0139L29.9281 25.9991L30.1015 26.039C30.6006 23.8703 30.2656 22.1153 30.0023 20.7358C29.9913 20.6782 29.9804 20.6213 29.9698 20.565C29.8354 19.8568 29.7355 19.2709 29.7793 18.7723C29.8219 18.2878 29.9999 17.8914 30.4317 17.5554C31.1132 17.025 32.0437 16.9612 32.9926 17.2783C33.9407 17.5951 34.8839 18.2865 35.5567 19.2237C36.7048 20.8228 37.0006 22.1893 36.8222 23.4339C36.6424 24.6882 35.9782 25.8437 35.1537 27.0139ZM51.5086 11.756C50.7503 11.2316 49.7234 10.9469 48.8055 10.9769C47.8935 11.0067 47.0295 11.3534 46.6931 12.1613C46.4409 12.7673 46.4421 13.2468 46.589 13.7155C46.6959 14.0564 46.883 14.3957 47.0869 14.7655C47.1512 14.8821 47.2172 15.0017 47.2828 15.1254C47.8359 16.1674 48.4693 17.6605 48.304 20.5947C48.2188 22.0991 47.5893 23.3187 47.0038 24.4205L46.9604 24.5021C46.6854 25.0192 46.4209 25.5167 46.2426 25.9983C46.0541 26.5076 45.9555 27.0153 46.0463 27.5307C46.0923 27.7915 46.1933 27.9966 46.369 28.114C46.5463 28.2325 46.7575 28.2339 46.9603 28.1807C47.3568 28.0767 47.8279 27.7372 48.2816 27.3274C49.1973 26.5002 50.1521 25.2826 50.4711 24.6677C51.1181 23.4205 51.2962 22.4436 51.3376 21.4349C51.3539 21.0364 51.3489 20.6313 51.3436 20.2066C51.3423 20.0991 51.3409 19.9904 51.3399 19.8803C51.3349 19.3323 51.3376 18.741 51.3886 18.0657C51.4275 17.5495 51.6558 17.062 51.9446 16.57C52.0373 16.4121 52.1378 16.2514 52.2393 16.0893C52.445 15.7606 52.6544 15.4261 52.8088 15.0974C53.0446 14.5955 53.1776 14.0616 53.0056 13.49C52.8349 12.9229 52.3747 12.3548 51.5086 11.756ZM47.9718 6.58079C48.2356 8.70673 49.6901 9.93025 51.165 10.4185C51.9011 10.6622 52.6505 10.726 53.2716 10.625C53.8853 10.5251 54.4137 10.2557 54.6395 9.79286C55.0312 8.99003 55.2168 8.01184 54.9761 7.06445C54.7339 6.11111 54.0655 5.21112 52.7919 4.56433C51.5209 3.91891 50.2632 3.87576 49.3427 4.27006C48.4157 4.66716 47.8382 5.50955 47.9718 6.58079Z" stroke="#111111" stroke-width="0.355895"/>
</g>
</g>
<defs>
<clipPath id="clip0_2097_12452">
<rect width="61" height="38" fill="white"/>
</clipPath>
</defs>
</svg>
