<svg width="193" height="27" viewBox="0 0 193 27" fill="none" xmlns="http://www.w3.org/2000/svg">
<g clip-path="url(#clip0_2097_12644)">
<mask id="mask0_2097_12644" style="mask-type:luminance" maskUnits="userSpaceOnUse" x="0" y="0" width="193" height="27">
<path d="M192.179 0.0644531H0V26.5929H192.179V0.0644531Z" fill="white"/>
</mask>
<g mask="url(#mask0_2097_12644)">
<path fill-rule="evenodd" clip-rule="evenodd" d="M88.638 4.60421C87.9654 4.60421 87.4081 4.38897 86.9661 3.95849C86.5433 3.52801 86.3319 2.97838 86.3319 2.32113C86.3319 1.66387 86.5433 1.12577 86.9661 0.714507C87.4081 0.284026 87.9654 0.068785 88.638 0.068785C89.3107 0.068785 89.8603 0.284026 90.2831 0.714507C90.7251 1.12577 90.948 1.66387 90.948 2.32113C90.948 2.97838 90.7251 3.52417 90.2831 3.95849C89.8603 4.38897 89.3107 4.60421 88.638 4.60421ZM86.5932 22.8843V6.71819H90.6828V22.8843H86.5932ZM50.2791 3.95849C50.7211 4.38897 51.2784 4.60421 51.951 4.60421C52.6237 4.60421 53.1733 4.38897 53.5961 3.95849C54.0381 3.52032 54.261 2.97838 54.261 2.32113C54.261 1.66387 54.0381 1.12577 53.5961 0.714507C53.1733 0.280182 52.6237 0.0649414 51.951 0.0649414C51.2784 0.0649414 50.7211 0.280182 50.2791 0.710664C49.8563 1.12193 49.6449 1.66003 49.6449 2.31728C49.6449 2.97453 49.8563 3.52417 50.2791 3.95465V3.95849ZM49.9062 6.71819V22.8881H53.9958V6.71819H49.9062ZM57.382 6.71819V22.8881H61.4716V14.5437C61.4716 13.0678 61.8021 11.9147 62.4632 11.0883C63.1435 10.262 64.0276 9.85071 65.1153 9.85071C66.203 9.85071 67.0409 10.2197 67.5752 10.9577C68.1094 11.6956 68.3747 12.7603 68.3747 14.1517V22.8881H72.4642V14.5437C72.4642 13.0678 72.7948 11.9147 73.4559 11.0883C74.1362 10.262 75.0317 9.85071 76.1387 9.85071C77.2456 9.85071 78.0259 10.2197 78.5371 10.9577C79.0714 11.6956 79.3366 12.7603 79.3366 14.1517V22.8805H83.4261V13.7558C83.4261 11.3228 82.8727 9.47788 81.7657 8.21334C80.6587 6.95264 79.0714 6.3223 77.0035 6.3223C75.8889 6.31461 74.7934 6.58366 73.8095 7.10639C72.8755 7.60605 72.0799 8.33634 71.5072 9.22805C70.4848 7.29472 68.7475 6.32614 66.2991 6.32614C65.1922 6.32614 64.2121 6.56444 63.3588 7.04105C62.5439 7.48306 61.8521 8.12109 61.3447 8.8975L60.995 6.71434H57.382V6.71819ZM94.0729 0.20331V22.8881H98.1624V0.20331H94.0729ZM108.306 23.2763C106.814 23.2763 105.481 22.9074 104.312 22.1694C103.14 21.4276 102.214 20.4206 101.533 19.1407C100.853 17.8607 100.511 16.4002 100.511 14.7743C100.511 13.1485 100.853 11.6956 101.533 10.4388C102.214 9.15886 103.144 8.15569 104.312 7.44078C105.484 6.69897 106.814 6.33383 108.306 6.33383C109.497 6.33383 110.543 6.5606 111.438 7.01799C112.334 7.47153 113.056 8.11725 113.61 8.94362V6.72587H117.699V22.8958H114.056L113.61 20.5781C113.099 21.2931 112.418 21.9272 111.565 22.4654C110.731 23.0111 109.647 23.2802 108.306 23.2802V23.2763ZM109.167 19.6288C110.489 19.6288 111.565 19.1791 112.395 18.2912C113.249 17.3803 113.675 16.2157 113.675 14.8012C113.675 13.3868 113.249 12.2376 112.395 11.3459C111.565 10.4311 110.489 9.97755 109.167 9.97755C107.844 9.97755 106.791 10.4234 105.938 11.3151C105.085 12.2068 104.658 13.3561 104.658 14.7743C104.658 16.1926 105.085 17.3495 105.938 18.2643C106.791 19.1714 107.867 19.6326 109.167 19.6326V19.6288ZM120.982 6.71819V22.8881H125.071V15.52C125.071 14.2824 125.26 13.3138 125.644 12.6181C126.051 11.9224 126.605 11.4343 127.308 11.1498C128.012 10.8654 128.811 10.727 129.707 10.727H130.856L129.707 6.71819C128.873 6.71819 127.992 6.86809 127.343 7.27166C126.363 7.87895 125.556 8.73222 125.01 9.74693L124.626 6.71819H120.982ZM136.683 22.892L132.047 6.72203H136.106L138.854 18.3566L142.048 6.72203H146.588L149.782 18.3566L152.565 6.72203H156.623L151.957 22.892H147.706L144.32 10.7962L140.93 22.892H136.683ZM160.813 22.2386C162.05 22.9304 163.465 23.2802 165.064 23.2802C166.34 23.2802 167.481 23.0419 168.485 22.5653C169.472 22.1117 170.345 21.443 171.041 20.6089C171.729 19.7902 172.244 18.837 172.543 17.8069H168.389C168.108 18.4181 167.681 18.9139 167.109 19.3059C166.551 19.6749 165.859 19.8594 165.029 19.8594C163.922 19.8594 162.973 19.5019 162.185 18.787C161.42 18.0683 160.994 17.0805 160.909 15.8198H172.955C172.974 15.5354 172.985 15.2663 172.985 15.005C173.009 14.7474 173.02 14.4938 173.02 14.2555C173.02 12.7795 172.678 11.442 171.998 10.2466C171.36 9.0474 170.395 8.05191 169.215 7.37544C168.023 6.68359 166.651 6.33383 165.095 6.33383C163.43 6.33383 161.985 6.70281 160.748 7.44078C159.533 8.15953 158.576 9.16655 157.873 10.4695C157.192 11.7725 156.85 13.26 156.85 14.9358C156.85 16.6116 157.2 18.0414 157.903 19.3021C158.58 20.5359 159.587 21.5506 160.813 22.2386ZM162.443 10.604C163.207 10.016 164.091 9.72003 165.095 9.72003C166.098 9.72003 167.013 10.039 167.716 10.6655C168.419 11.2959 168.8 12.1453 168.865 13.21H160.97C161.186 12.0377 161.674 11.1691 162.443 10.604ZM184.389 23.284C183.194 23.284 182.152 23.0573 181.257 22.596C180.377 22.154 179.627 21.4929 179.085 20.6704L178.636 22.8881H174.992V0.20331H179.081V9.03202C179.593 8.31712 180.265 7.68293 181.095 7.14482C181.949 6.59903 183.044 6.32998 184.386 6.32998C185.877 6.32998 187.207 6.69897 188.379 7.43694C189.555 8.18259 190.516 9.22805 191.158 10.4657C191.838 11.7494 192.18 13.2062 192.18 14.832C192.18 16.4578 191.838 17.9184 191.158 19.1983C190.512 20.4244 189.551 21.4583 188.379 22.1963C187.214 22.9189 185.881 23.2725 184.389 23.2725V23.284ZM183.528 19.6365C184.828 19.6365 185.904 19.1906 186.757 18.2989C187.61 17.411 188.037 16.258 188.037 14.8435C188.037 13.4291 187.61 12.2683 186.757 11.3535C185.904 10.4426 184.831 9.98523 183.528 9.98523C182.225 9.98523 181.122 10.4388 180.269 11.3535C179.439 12.2453 179.024 13.3945 179.024 14.8128C179.024 16.2311 179.439 17.388 180.269 18.2989C181.119 19.1906 182.206 19.6365 183.528 19.6365ZM44.7097 13.9633C45.6475 14.2708 46.3932 14.7359 46.9467 15.3663C47.5002 15.9774 47.7769 16.8537 47.7807 18.0068C47.8115 18.9677 47.5424 19.9132 47.012 20.7127C46.4778 21.516 45.7129 22.1463 44.7097 22.5999C43.7065 23.0611 42.5266 23.2879 41.1621 23.2879C39.7976 23.2879 38.5177 23.0573 37.453 22.5999C36.3884 22.1233 35.5351 21.4699 34.897 20.6435C34.382 19.9786 34.0245 19.206 33.8516 18.3835L37.553 17.8031C37.6875 18.1067 38.2025 18.8754 38.7522 19.2752C38.7906 19.3136 38.8329 19.3444 38.8752 19.3828L38.8944 19.3982C39.4709 19.8325 40.205 20.0477 41.1006 20.0477C41.9961 20.0477 42.6457 19.8632 43.0493 19.4943C43.4759 19.1253 43.6873 18.7025 43.6873 18.222C43.6873 17.5225 43.3875 17.0574 42.7918 16.8191C42.1922 16.5616 41.3619 16.3079 40.2973 16.0696C39.5977 15.912 38.9059 15.7275 38.2217 15.5162C37.5453 15.3086 36.8957 15.0357 36.273 14.7013C35.7157 14.3708 35.2391 13.9249 34.8663 13.3945C34.505 12.8525 34.3243 12.1915 34.3243 11.4074C34.3243 9.9737 34.8778 8.77066 35.9848 7.79055C37.1148 6.81428 38.6907 6.3223 40.7162 6.3223C42.5919 6.3223 44.0832 6.772 45.1902 7.65986C46.0627 8.34402 46.693 9.28954 46.9928 10.3542L43.5759 11.219V11.2036C43.5759 11.2036 43.1223 10.3235 42.392 9.93527C41.9615 9.68159 41.3927 9.55091 40.6855 9.55091C39.9168 9.55091 39.321 9.70081 38.8944 10.0045C38.4908 10.3119 38.2871 10.6925 38.2871 11.146C38.2871 11.6226 38.5984 12.0031 39.2134 12.2875C39.8284 12.572 40.6509 12.8333 41.6733 13.0716C42.7802 13.333 43.7949 13.629 44.7097 13.9518V13.9633Z" fill="#111111"/>
<path d="M24.372 7.28639C22.9576 5.08017 20.909 3.23909 18.5605 2.30126L17.8649 2.0668C17.0961 1.8285 16.3005 1.7055 15.4934 1.70166C12.9489 1.71319 10.8887 3.81948 10.8887 6.41774C10.8887 7.50163 11.2462 8.49327 11.8458 9.2889L11.5575 8.91222C11.6959 9.11593 11.8458 9.31964 12.0188 9.5272C12.749 10.4112 13.7868 11.3298 15.1321 12.3715C18.4375 14.9313 20.5823 17.199 20.7591 20.0163C20.8014 20.3969 20.8283 20.7851 20.8283 21.1771C20.8283 22.6069 20.5169 24.1213 19.9865 25.186H19.9904C19.9904 25.186 19.7636 25.6011 19.9058 25.7241C19.9788 25.7856 20.1364 25.8355 20.4132 25.6664C21.8929 24.7017 23.169 23.4525 24.1645 21.9958C25.6289 19.8357 26.4322 17.2912 26.4668 14.6776C26.5052 12.064 25.7788 9.50029 24.372 7.29792V7.28639Z" fill="#111111"/>
<path d="M14.3408 16.9032L12.2691 15.1928C7.92971 12.0257 5.67352 8.6126 6.91116 4.40387C7.02262 4.01952 7.16099 3.64669 7.31858 3.28539C7.31858 3.28539 7.62606 2.63967 6.95728 2.95484C2.89461 5.16106 0.261755 9.33519 0.0196094 13.9552C-0.137977 16.8571 0.657645 19.7321 2.28348 22.1382C2.94073 23.0606 3.74404 23.8678 4.65882 24.5289C9.23268 27.8959 13.157 26.124 13.157 26.124C15.1441 25.2861 16.4356 23.3258 16.424 21.1696C16.4317 19.5015 15.663 17.9218 14.3408 16.9032Z" fill="#111111"/>
</g>
</g>
<defs>
<clipPath id="clip0_2097_12644">
<rect width="193" height="27" fill="white"/>
</clipPath>
</defs>
</svg>
