<svg width="54" height="56" viewBox="0 0 54 56" fill="none" xmlns="http://www.w3.org/2000/svg">
<g clip-path="url(#clip0_2400_1356)">
<path d="M27.5205 54.6754H31.0211V37.8122C31.0211 36.3024 31.6075 35.4584 33.1475 35.4584C33.4022 35.4584 33.7635 35.4584 33.7635 35.4584V32.6112C33.7635 32.6112 33.8701 32.6112 33.1475 32.6112C28.8473 32.6112 27.5205 34.7332 27.5205 37.7349V54.6754Z" fill="white"/>
<path d="M45.3311 35.4346H48.8316V49.8013C48.8316 51.311 49.418 52.1551 50.958 52.1551C51.811 52.1551 53.2977 52.1551 53.2977 52.1551V55.0023C53.2977 55.0023 51.6806 55.0023 50.958 55.0023C46.6578 55.0023 45.3311 52.8803 45.3311 49.8785V35.4346Z" fill="white"/>
<path d="M36.417 35.4346H39.9176V49.8013C39.9176 51.311 40.504 52.1551 42.044 52.1551C42.8969 52.1551 42.9976 52.1551 42.9976 52.1551V55.0023C42.9976 55.0023 42.7666 55.0023 42.044 55.0023C37.7438 55.0023 36.417 52.8803 36.417 49.8785V35.4346Z" fill="white"/>
<path d="M0.87793 39.6964H4.40812C4.40812 47.174 4.40812 43.1499 4.40812 54.6753H0.87793V39.6964Z" fill="white"/>
<path fill-rule="evenodd" clip-rule="evenodd" d="M19.7256 50.7998H19.7907V54.6753H23.2913V45.7057C23.2913 41.7649 21.3959 39.5299 16.9476 39.5299C12.8547 39.5299 10.8172 41.4201 10.213 44.5169L13.607 44.9746C14.0571 43.1855 15.1055 42.4841 16.8232 42.4841C18.9497 42.4841 19.7967 43.6313 19.7967 45.7355H15.2122C11.3562 45.7355 9.65625 47.7743 9.65625 50.5977C9.65625 53.5518 11.6523 54.9962 14.4955 54.9962C17.1431 55.0022 19.0089 53.5518 19.7256 50.7998ZM19.7907 48.3627V48.8561C19.7907 50.7284 18.2211 52.1074 15.8045 52.1074C13.8084 52.1074 13.1213 51.1207 13.1213 50.0389C13.1213 48.9868 14.0334 48.3627 15.7393 48.3627H19.7907Z" fill="white"/>
<path d="M53.2981 39.6964H48.832C48.832 41.5093 50.3365 42.9835 52.2023 42.9835H53.2981V39.6964Z" fill="white"/>
<path d="M9.17041 42.9835H4.4082C4.4082 41.1705 5.9186 39.6964 7.77847 39.6964H9.17041V42.9835Z" fill="white"/>
<path d="M24.2744 39.6964H46.4862V42.6863H24.2744V39.6964Z" fill="white"/>
<path d="M13.3877 26.9918C16.5154 25.7899 20.1593 20.2317 20.1593 13.5998C20.1593 6.08883 16.5064 0.65811 13.3877 0H34.1748V0.00793404C37.8488 0.255096 40.7889 6.24579 40.7889 13.5998C40.7889 19.8179 38.6869 25.3562 35.8166 26.9771C35.2977 27.1958 34.7888 27.4113 34.2234 27.483C33.2604 27.5611 32.4339 27.3222 31.556 26.9789C30.0012 26.371 28.8559 26.3682 27.3071 26.9918C26.7309 27.2238 26.1665 27.4415 25.5374 27.483C24.6932 27.483 23.9588 27.2919 23.1925 26.9689C21.5651 26.2829 20.8928 26.288 18.9433 26.9918C18.2784 27.2318 17.4271 27.483 16.7497 27.483C15.6776 27.5278 14.032 27.1627 13.3877 26.9918Z" fill="white"/>
</g>
<defs>
<clipPath id="clip0_2400_1356">
<rect width="52.4198" height="55.1949" fill="white" transform="translate(0.87793)"/>
</clipPath>
</defs>
</svg>
