<svg width="119" height="39" viewBox="0 0 119 39" fill="none" xmlns="http://www.w3.org/2000/svg">
<g clip-path="url(#clip0_2400_1540)">
<path d="M0.314509 28.1199V27.6565C1.55803 27.6565 2.54248 27.2961 3.26787 26.5753C3.68238 26.1634 3.94144 25.6485 4.04507 25.0307C4.20051 24.4128 4.25232 23.486 4.25232 22.1989V8.4003C4.25232 7.06163 4.1487 6.08338 3.99326 5.46553C3.83782 4.84768 3.52694 4.33281 3.11243 3.92091C2.74974 3.61199 2.38704 3.35456 1.92072 3.2001C1.50622 3.04564 0.936269 2.94266 0.262695 2.94266V2.53076H12.2834V2.94266C11.6098 2.99415 11.0399 3.09712 10.5736 3.2001C10.159 3.35456 9.74454 3.61199 9.38184 3.92091C8.96734 4.33281 8.65646 4.84768 8.50102 5.46553C8.34558 6.08338 8.29376 7.06164 8.29376 8.34881V19.1611C8.29376 20.8087 8.34558 22.0444 8.4492 22.8682C8.55283 23.692 8.70827 24.3613 8.96734 24.8762C9.38184 25.7515 10.0554 26.4208 10.9362 26.8327C11.8171 27.2446 12.957 27.4506 14.3559 27.4506C15.8585 27.4506 17.102 27.2446 18.1383 26.8842C19.1746 26.4723 20.0036 25.9059 20.6253 25.0821C21.0398 24.5158 21.4025 23.8979 21.7134 23.1771C21.9725 22.4563 22.2316 21.5295 22.4906 20.3968L22.9569 20.4483L22.6979 28.1199H0.314509Z" fill="white"/>
<path d="M40.8847 26.3179L41.1956 26.5239C40.7293 27.811 39.693 28.4804 38.0868 28.4804C37.206 28.4804 36.4288 28.2744 35.8588 27.811C35.4443 27.5021 35.0816 27.0387 34.6671 26.3179C33.8381 27.0902 33.1645 27.5536 32.75 27.811C31.921 28.2744 30.9884 28.4804 29.9003 28.4804C28.5013 28.4804 27.4132 28.1715 26.636 27.5021C25.807 26.8328 25.4443 25.9575 25.4443 24.8248C25.4443 23.7951 25.7552 22.9198 26.4288 22.1989C26.7915 21.7871 27.2578 21.5296 27.7241 21.2722C28.1904 21.0662 28.9158 20.8088 29.8485 20.5514C30.9365 20.2939 31.7656 20.0365 32.2837 19.882C32.8018 19.6761 33.2163 19.4701 33.579 19.2127C33.9935 18.9038 34.2526 18.5948 34.408 18.1829C34.5635 17.771 34.6153 17.2562 34.6153 16.5868C34.6153 15.1452 34.3562 14.064 33.7863 13.3946C33.5272 13.0857 33.2163 12.8283 32.8018 12.6223C32.3873 12.4164 31.9728 12.3649 31.5583 12.3649C31.0402 12.3649 30.5739 12.5194 30.1593 12.7768C29.7448 13.0342 29.434 13.3946 29.2785 13.858L28.8122 14.9393C28.5531 15.5056 28.0868 15.8145 27.4651 15.8145C27.0505 15.8145 26.6879 15.6601 26.377 15.4026C26.0661 15.1452 25.9625 14.7848 25.9625 14.3214C25.9625 13.7036 26.4288 13.1372 27.3096 12.7253C27.7759 12.5194 28.3977 12.3134 29.1231 12.1589C29.8485 12.0045 30.5739 11.953 31.2474 11.953C32.0246 11.953 32.8536 12.056 33.6827 12.2619C34.5117 12.4679 35.2371 12.7253 35.807 13.0342C36.636 13.4976 37.1541 14.1155 37.3096 14.8363C37.4132 15.1967 37.465 15.866 37.465 16.7413V23.6406C37.465 24.8248 37.5168 25.5971 37.6205 26.0605C37.8277 26.9358 38.3459 27.3992 39.1749 27.3992C39.5894 27.3992 39.8484 27.3477 40.1075 27.1932C40.3148 26.9873 40.5738 26.7298 40.8847 26.3179ZM34.6671 18.9553C33.9935 19.5216 33.2681 19.985 32.4391 20.4484C31.5065 20.9118 30.8847 21.3237 30.522 21.5296C30.1593 21.787 29.8485 22.096 29.5894 22.4049C29.0195 23.1257 28.7086 23.9495 28.7086 24.9278C28.7086 25.7516 28.9158 26.4209 29.3821 26.9873C29.8485 27.5021 30.4184 27.811 31.092 27.811C31.7137 27.811 32.2837 27.6051 32.8018 27.2447C33.32 26.8843 33.7345 26.3694 34.0453 25.7001C34.408 24.8763 34.6153 23.6406 34.6153 22.096V18.9553H34.6671Z" fill="white"/>
<path d="M51.1424 15.8653V22.5071C51.1424 23.7943 51.1943 24.7211 51.3497 25.3389C51.5051 25.9568 51.7642 26.4717 52.1269 26.8836C52.4896 27.244 52.8523 27.5014 53.3186 27.6559C53.7849 27.8103 54.3549 27.9133 55.0803 27.9648V28.3767H43.0596V27.9648C43.785 27.9133 44.3549 27.8103 44.8212 27.6559C45.2875 27.5014 45.6502 27.244 46.0129 26.8836C46.4274 26.4717 46.6865 25.9568 46.8419 25.3904C46.9974 24.7726 47.0492 23.8458 47.0492 22.5586V8.76006C47.0492 7.47288 46.9974 6.54611 46.8419 5.92827C46.6865 5.31042 46.4274 4.79555 46.0129 4.43514C45.6502 4.07473 45.2875 3.8173 44.8212 3.66283C44.3549 3.50837 43.785 3.40539 43.0596 3.35391V2.94202H52.1269C53.6295 2.94202 54.6658 2.94202 55.1321 2.94202C57.101 3.04499 58.6036 3.30243 59.6916 3.71432C60.9352 4.2292 61.9196 4.95001 62.5932 5.92827C63.2668 6.90652 63.6295 8.09073 63.6295 9.37791C63.6295 11.3344 62.9041 12.879 61.4015 14.0632C60.9352 14.4237 60.4688 14.6811 59.8989 14.9385C59.329 15.1445 58.6036 15.3504 57.7227 15.5564C58.4999 15.8653 59.0181 16.1742 59.3808 16.5346C59.6916 16.7921 59.9507 17.101 60.158 17.5129C60.417 17.9248 60.7797 18.5941 61.246 19.6239C62.3859 21.8893 63.215 23.5884 63.7849 24.6181C64.3548 25.6479 64.8212 26.4202 65.2357 26.8836C65.5466 27.2954 65.8574 27.5529 66.1683 27.7073C66.4792 27.8618 66.8419 27.9648 67.36 28.0163V28.4282H61.0906C60.7797 27.7588 60.5725 27.2954 60.4688 27.141L59.1735 24.1547C58.3963 22.3527 57.5673 20.8081 56.7901 19.4179C56.0129 18.0792 55.2357 17.1525 54.6139 16.6376C54.2513 16.3802 53.8886 16.2257 53.5259 16.1227C53.1114 16.0198 52.645 15.9683 52.0751 15.9683H51.1424V15.8653ZM51.1424 15.4534H51.8678C53.4222 15.4534 54.5621 15.3504 55.1839 15.196C55.8575 15.0415 56.4792 14.6811 57.101 14.1147C58.3963 12.879 59.0699 11.3344 59.0699 9.48089C59.0699 8.50263 58.8626 7.57586 58.4999 6.70057C58.1373 5.82529 57.5673 5.10447 56.8937 4.53811C56.3756 4.12622 55.7538 3.8173 55.0284 3.66283C54.3031 3.50837 53.2668 3.4054 51.9196 3.4054H51.1424V15.4534Z" fill="white"/>
<path d="M67.8789 20.4494C67.8789 18.4414 68.6561 16.6393 70.1587 15.0432C71.9722 13.1382 74.2001 12.1599 76.739 12.1599C79.2778 12.1599 81.454 13.1382 83.2675 15.0432C84.7701 16.6393 85.5473 18.4414 85.5473 20.4494C85.5473 22.4574 84.8219 24.2079 83.4229 25.804C81.6613 27.709 79.4333 28.6873 76.739 28.6873C74.0447 28.6873 71.8167 27.709 70.0551 25.804C69.3815 25.0317 68.8115 24.2079 68.4489 23.2811C68.0343 22.3544 67.8789 21.4276 67.8789 20.4494ZM71.2986 20.2434C71.2986 22.4059 71.7649 24.2594 72.7494 25.7525C73.8374 27.4516 75.1846 28.2754 76.7908 28.2754C77.4644 28.2754 78.138 28.0694 78.7597 27.709C79.3815 27.3486 79.9514 26.8338 80.4177 26.1644C80.8841 25.4436 81.2986 24.5683 81.6094 23.5386C81.9203 22.5088 82.0758 21.4791 82.0758 20.5008C82.0758 19.4711 81.9203 18.4413 81.6094 17.4116C81.2986 16.3819 80.8841 15.4551 80.3141 14.7343C79.2778 13.3441 78.0343 12.6233 76.5317 12.6233C75.1328 12.6233 73.8893 13.3441 72.853 14.8372C71.8167 16.2789 71.2986 18.0809 71.2986 20.2434Z" fill="white"/>
<path d="M87.6719 28.3266V23.0234H87.9828C88.3454 24.3106 88.8118 25.3404 89.3817 26.1127C90.418 27.5028 91.6097 28.2236 93.0086 28.2236C93.8377 28.2236 94.5631 27.9662 95.1848 27.5028C95.8584 26.988 96.1693 26.2156 96.1693 25.2889C96.1693 24.5166 95.9102 23.7958 95.4439 23.2294C95.1848 22.9205 94.8221 22.6115 94.4076 22.3541C93.9931 22.0967 93.3195 21.7363 92.3351 21.2729C90.6252 20.4491 89.5372 19.7283 88.9672 19.1619C88.19 18.3896 87.7755 17.4628 87.7755 16.3816C87.7755 15.2489 88.19 14.2706 88.9672 13.4983C89.8999 12.5715 91.1434 12.1082 92.646 12.1082C93.3195 12.1082 93.9413 12.2111 94.563 12.4686L95.2366 12.726C95.4439 12.7775 95.6511 12.829 95.8066 12.829C96.0656 12.829 96.3247 12.623 96.532 12.2626H96.9465L97.1537 16.4846H96.7392C96.5838 15.8667 96.4283 15.4033 96.2729 15.0429C96.1175 14.6825 95.8584 14.3221 95.5475 14.0132C95.133 13.5498 94.6667 13.1894 94.0967 12.8805C93.5268 12.623 93.0086 12.4686 92.4905 12.4686C91.7651 12.4686 91.0916 12.726 90.5734 13.2409C90.0553 13.7558 89.7962 14.3736 89.7962 15.0944C89.7962 15.7123 90.0553 16.2786 90.5216 16.742C90.9879 17.2569 91.7133 17.6688 92.6978 18.0807L94.8221 18.956C96.1174 19.4708 97.0501 20.1402 97.6719 20.964C98.2936 21.7878 98.6045 22.7145 98.6045 23.7958C98.6045 25.0829 98.1382 26.1642 97.2573 27.0394C96.2211 28.0177 94.8739 28.5326 93.2159 28.5326C92.3351 28.5326 91.4543 28.3781 90.5216 28.0692C89.9517 27.8632 89.589 27.7603 89.4335 27.7088C89.3299 27.6573 89.1745 27.6573 88.9672 27.6573C88.5009 27.6573 88.1382 27.8632 87.8791 28.2236H87.6719V28.3266Z" fill="white"/>
<path d="M104.563 2.06763V14.8879C104.977 14.3731 105.392 13.9612 105.754 13.6522C106.117 13.3433 106.48 13.0859 106.998 12.8799C107.931 12.4165 108.967 12.2106 110.107 12.2106C111.609 12.2106 112.801 12.5195 113.785 13.0859C114.459 13.4978 114.925 14.0641 115.184 14.682C115.443 15.2998 115.547 16.2781 115.547 17.5138V22.9714V24.4131C115.547 25.2369 115.599 25.8547 115.703 26.2666C115.806 26.6785 116.013 26.9874 116.273 27.2449C116.635 27.6053 117.257 27.8627 118.19 28.0172V28.4291H109.899V28.0172C110.573 27.9142 111.039 27.8112 111.298 27.7082C111.557 27.6053 111.817 27.3478 112.076 27.0904C112.283 26.7815 112.438 26.3696 112.542 25.8032C112.646 25.2883 112.697 24.4645 112.697 23.4348V17.5138C112.697 16.6385 112.646 15.9177 112.49 15.4028C112.335 14.8879 112.127 14.4246 111.817 14.0127C111.195 13.2918 110.262 12.9314 109.122 12.9314C106.117 12.9314 104.563 15.2998 104.563 20.0881V23.0744V24.4645C104.563 25.2883 104.615 25.9062 104.718 26.3181C104.822 26.73 105.029 27.0389 105.288 27.2963C105.651 27.6567 106.273 27.9142 107.205 28.0686V28.4805H98.915V28.0686C99.6922 27.9657 100.21 27.8112 100.521 27.6568C100.832 27.4508 101.091 27.1934 101.298 26.73C101.454 26.4211 101.558 26.0092 101.609 25.4428C101.661 24.8764 101.713 24.0012 101.713 22.9199V8.24608C101.713 6.9589 101.661 6.08362 101.609 5.56875C101.558 5.05388 101.402 4.64198 101.195 4.28157C100.988 3.92116 100.729 3.66373 100.418 3.50927C100.107 3.3548 99.6922 3.25183 99.1223 3.25183V2.83993L104.563 2.06763Z" fill="white"/>
<path d="M39.069 34.2461H27.5664V37.2838H39.069V34.2461Z" fill="white"/>
<path d="M39.3802 37.5935H27.2041V33.8865H39.3802V37.5935ZM27.8777 36.9242H38.7067V34.6073H27.8777V36.9242Z" fill="white"/>
<path d="M53.0112 37.5938V37.2334C52.7521 37.5424 52.493 37.5938 52.0267 37.5938C51.5604 37.5938 51.2495 37.4909 51.0423 37.2849C50.8868 37.1305 50.7832 36.8215 50.7832 36.5641C50.7832 35.9463 51.1977 35.5344 51.9749 35.5344H53.0112V35.174C53.0112 34.6591 52.7521 34.4016 52.1303 34.4016C51.664 34.4016 51.4568 34.5046 51.2495 34.8135L50.8868 34.5046C51.1977 34.0927 51.5604 33.9897 52.1303 33.9897C53.063 33.9897 53.5293 34.4016 53.5293 35.174V37.5938H53.0112ZM53.0112 35.9463H52.0267C51.5086 35.9463 51.2495 36.1522 51.2495 36.5641C51.2495 36.976 51.5086 37.182 52.0267 37.182C52.3376 37.182 52.5967 37.182 52.8039 36.9245C52.9076 36.8215 52.9594 36.6156 52.9594 36.3067V35.9463H53.0112Z" fill="white"/>
<path d="M57.2076 37.3365C57.0003 37.5424 56.7413 37.6454 56.3786 37.6454C56.0159 37.6454 55.705 37.5424 55.3941 37.182V37.5939H54.876V32.4452H55.3941V34.4532C55.6532 34.0928 56.0159 33.9898 56.3786 33.9898C56.7413 33.9898 57.0521 34.0928 57.2076 34.2987C57.5703 34.6591 57.6221 35.277 57.6221 35.7919C57.6739 36.3582 57.5703 36.9761 57.2076 37.3365ZM56.2749 34.4532C55.5495 34.4532 55.3941 35.1225 55.3941 35.8433C55.3941 36.5642 55.4977 37.2335 56.2749 37.2335C57.0003 37.2335 57.1558 36.5642 57.1558 35.8433C57.1558 35.1225 57.0521 34.4532 56.2749 34.4532Z" fill="white"/>
<path d="M61.1451 37.2332C60.8861 37.4906 60.5752 37.6451 60.1607 37.6451C59.7462 37.6451 59.3835 37.4906 59.1762 37.2332C58.8135 36.8728 58.7617 36.3579 58.7617 35.7915C58.7617 35.2252 58.8135 34.7618 59.1762 34.3499C59.4353 34.0925 59.7462 33.938 60.1607 33.938C60.5752 33.938 60.8861 34.0925 61.1451 34.3499C61.5078 34.7103 61.5596 35.2252 61.5596 35.7915C61.5596 36.3579 61.456 36.8728 61.1451 37.2332ZM60.7824 34.7103C60.627 34.5558 60.4197 34.4529 60.1607 34.4529C59.9016 34.4529 59.6944 34.5558 59.5389 34.7103C59.2799 34.9677 59.2799 35.4311 59.2799 35.7915C59.2799 36.2034 59.3317 36.6153 59.5389 36.8728C59.6944 37.0272 59.9016 37.1302 60.1607 37.1302C60.4197 37.1302 60.627 37.0272 60.7824 36.8728C61.0415 36.6153 61.0415 36.1519 61.0415 35.7915C61.0415 35.3796 61.0415 34.9677 60.7824 34.7103Z" fill="white"/>
<path d="M64.9789 37.5943V37.1824C64.7199 37.4913 64.409 37.6457 63.9945 37.6457C63.6318 37.6457 63.3209 37.5428 63.1137 37.3368C62.8546 37.0794 62.751 36.7705 62.751 36.3586V34.0931H63.2691V36.3071C63.2691 36.9249 63.58 37.2339 64.0981 37.2339C64.6163 37.2339 64.9789 36.9249 64.9789 36.3071V34.0931H65.4971V37.6457H64.9789V37.5943Z" fill="white"/>
<path d="M67.8803 37.5936C67.3103 37.5936 66.9995 37.1818 66.9995 36.6154V34.4014H66.585V34.041H66.9995V32.9083H67.5176V34.041H68.243V34.4529H67.5176V36.6154C67.5176 36.9243 67.673 37.1303 67.9839 37.1303H68.243V37.5936H67.8803Z" fill="white"/>
<path d="M73.5815 37.5939V35.38C73.5815 34.7621 73.2706 34.4532 72.7525 34.4532C72.2343 34.4532 71.8716 34.7621 71.8716 35.38V37.5939H71.3535V32.4452H71.8716V34.4532C72.1307 34.1443 72.4416 34.0413 72.8561 34.0413C73.6333 34.0413 74.0996 34.5562 74.0996 35.38V37.6969H73.5815V37.5939Z" fill="white"/>
<path d="M77.4155 37.5938V37.2334C77.1564 37.5424 76.8973 37.5938 76.431 37.5938C75.9647 37.5938 75.6538 37.4909 75.4466 37.2849C75.2911 37.1305 75.1875 36.8215 75.1875 36.5641C75.1875 35.9463 75.602 35.5344 76.3792 35.5344H77.4155V35.174C77.4155 34.6591 77.1564 34.4016 76.5347 34.4016C76.0683 34.4016 75.8611 34.5046 75.6538 34.8135L75.2911 34.5046C75.602 34.0927 75.9647 33.9897 76.5347 33.9897C77.4673 33.9897 77.9336 34.4016 77.9336 35.174V37.5938H77.4155ZM77.4155 35.9463H76.4828C75.9647 35.9463 75.7056 36.1522 75.7056 36.5641C75.7056 36.976 75.9647 37.182 76.4828 37.182C76.7937 37.182 77.0528 37.182 77.26 36.9245C77.3637 36.8215 77.4155 36.6156 77.4155 36.3067V35.9463Z" fill="white"/>
<path d="M80.3168 37.5936C79.7469 37.5936 79.436 37.1818 79.436 36.6154V34.4014H79.0215V34.041H79.436V32.9083H79.9541V34.041H80.6795V34.4529H79.9541V36.6154C79.9541 36.9243 80.1096 37.1303 80.4204 37.1303H80.6795V37.5936H80.3168Z" fill="white"/>
<path d="M82.9595 37.6453C82.3896 37.6453 81.9232 37.4909 81.5605 37.1305L81.9232 36.7701C82.1823 37.079 82.545 37.182 83.0113 37.182C83.5813 37.182 83.944 36.976 83.944 36.5641C83.944 36.2552 83.7885 36.1007 83.374 36.0492L82.8041 35.9977C82.1305 35.9463 81.7678 35.6373 81.7678 35.0195C81.7678 34.3502 82.2859 33.9897 83.0631 33.9897C83.5295 33.9897 83.9958 34.0927 84.3067 34.3502L83.9958 34.7106C83.7367 34.5046 83.4258 34.4016 83.0631 34.4016C82.545 34.4016 82.2859 34.6076 82.2859 34.968C82.2859 35.2769 82.4414 35.4314 82.9077 35.4829L83.4776 35.5344C84.0994 35.5858 84.5139 35.8433 84.5139 36.5126C84.3585 37.2334 83.7885 37.6453 82.9595 37.6453Z" fill="white"/>
<path d="M96.0688 37.5936C95.4988 37.5936 95.1879 37.1818 95.1879 36.6154V34.4014H94.7734V34.041H95.1879V32.9083H95.7061V34.041H96.4315V34.4529H95.7061V36.6154C95.7061 36.9243 95.8615 37.1303 96.1724 37.1303H96.4315V37.5936H96.0688Z" fill="white"/>
<path d="M99.5903 37.5938V37.2334C99.3312 37.5424 99.0721 37.5938 98.6058 37.5938C98.1395 37.5938 97.8286 37.4909 97.6214 37.2849C97.4659 37.1305 97.3623 36.8215 97.3623 36.5641C97.3623 35.9463 97.7768 35.5344 98.554 35.5344H99.5903V35.174C99.5903 34.6591 99.3312 34.4016 98.7094 34.4016C98.2431 34.4016 98.0359 34.5046 97.8286 34.8135L97.4659 34.5046C97.7768 34.0927 98.1395 33.9897 98.7094 33.9897C99.6421 33.9897 100.108 34.4016 100.108 35.174V37.5938H99.5903ZM99.5903 35.9463H98.6058C98.0877 35.9463 97.8286 36.1522 97.8286 36.5641C97.8286 36.976 98.0877 37.182 98.6058 37.182C98.9167 37.182 99.1758 37.182 99.383 36.9245C99.4867 36.8215 99.5385 36.6156 99.5385 36.3067V35.9463H99.5903Z" fill="white"/>
<path d="M102.338 37.5939C101.716 37.5939 101.457 37.182 101.457 36.6671V32.4452H101.975V36.6671C101.975 37.0276 102.079 37.182 102.441 37.182H102.701V37.6454H102.338V37.5939Z" fill="white"/>
<path d="M104.047 35.946C104.047 36.7183 104.41 37.1817 105.084 37.1817C105.498 37.1817 105.705 37.0787 105.964 36.7698L106.327 37.0787C105.964 37.4391 105.654 37.6451 105.084 37.6451C104.151 37.6451 103.581 37.0787 103.581 35.7915C103.581 34.6588 104.099 33.938 104.98 33.938C105.861 33.938 106.379 34.6073 106.379 35.6885V35.946H104.047ZM105.809 34.9677C105.654 34.6588 105.343 34.4529 104.98 34.4529C104.617 34.4529 104.306 34.6588 104.151 34.9677C104.099 35.1737 104.047 35.2767 104.047 35.5856H105.861C105.861 35.2767 105.861 35.1222 105.809 34.9677Z" fill="white"/>
<path d="M108.71 37.6453C108.141 37.6453 107.674 37.4909 107.312 37.1305L107.674 36.7701C107.933 37.079 108.296 37.182 108.762 37.182C109.332 37.182 109.695 36.976 109.695 36.5641C109.695 36.2552 109.54 36.1007 109.125 36.0492L108.555 35.9977C107.881 35.9463 107.519 35.6373 107.519 35.0195C107.519 34.3502 108.037 33.9897 108.814 33.9897C109.28 33.9897 109.747 34.0927 110.058 34.3502L109.747 34.7106C109.488 34.5046 109.177 34.4016 108.814 34.4016C108.296 34.4016 108.037 34.6076 108.037 34.968C108.037 35.2769 108.192 35.4314 108.659 35.4829L109.229 35.5344C109.85 35.5858 110.265 35.8433 110.265 36.5126C110.161 37.2334 109.591 37.6453 108.71 37.6453Z" fill="white"/>
<path fill-rule="evenodd" clip-rule="evenodd" d="M87.7754 35.4834C87.7754 35.4834 87.7236 35.4319 87.6718 35.4319C86.8428 35.123 86.6873 34.1448 87.3609 33.5269C87.6718 33.218 88.0863 33.0635 88.5008 33.012C88.8635 32.9605 89.2262 32.9605 89.6407 32.9091C89.6925 32.9091 89.6925 32.9091 89.7443 32.9091C89.7443 33.2695 89.7443 33.5784 89.7443 33.8873C89.5889 33.9388 89.4852 33.8873 89.4334 33.7328C89.3298 33.2695 89.0189 33.115 88.6044 33.218C87.7754 33.4239 87.5681 34.3507 87.7754 34.8656C87.879 35.1745 88.1381 35.2775 88.3972 35.329C88.5008 35.329 88.6044 35.329 88.7598 35.3804C88.7598 35.4834 88.7598 35.5864 88.7598 35.6379C88.5008 35.6379 88.2417 35.6379 88.0345 35.6894C87.5163 35.7923 87.1536 36.2042 87.1536 36.7706C87.1018 37.6459 87.4645 38.2637 88.2935 38.4697C89.278 38.7271 90.2106 38.5727 91.0396 37.9548C91.6096 37.5429 91.8686 36.7191 91.7132 35.9983C91.4023 35.9983 91.0396 35.9983 90.7288 35.9468C90.5733 35.9468 90.3661 35.8438 90.2106 35.7923C89.8997 35.6379 89.8479 35.329 90.0552 35.02C90.3661 34.5566 90.936 34.4022 91.4541 34.6081C91.8686 34.7626 92.1277 35.123 92.2832 35.5349C92.335 35.6379 92.3868 35.6894 92.5422 35.6894C92.9049 35.6379 93.2676 35.5864 93.6303 35.5349C93.6821 35.5349 93.7339 35.5349 93.8376 35.4834C93.6303 35.6894 93.4749 35.8953 93.3194 36.0498H93.2158C92.9567 35.9983 92.7495 35.9468 92.4904 35.9468C92.6458 37.337 91.9205 38.1608 90.936 38.4697C89.7443 38.9331 88.5526 38.8816 87.3609 38.4697C86.8946 38.3152 86.5319 37.9548 86.4283 37.4399C86.3246 36.7706 86.5319 36.2557 87.05 35.8438C87.1536 35.7409 87.4645 35.6379 87.7754 35.4834ZM91.5578 35.7923C91.5578 35.7923 91.5578 35.7409 91.6096 35.7409C91.506 35.329 91.2469 35.0715 90.8842 34.9171C90.7806 34.8656 90.6251 34.8656 90.4697 34.9171C90.3142 34.9171 90.3142 35.02 90.3142 35.1745C90.3661 35.3804 90.5215 35.5349 90.7288 35.6379C90.9878 35.6894 91.2469 35.7409 91.5578 35.7923Z" fill="white"/>
</g>
<defs>
<clipPath id="clip0_2400_1540">
<rect width="117.927" height="38.0806" fill="white" transform="translate(0.314453 0.802856)"/>
</clipPath>
</defs>
</svg>
