<svg width="153" height="27" viewBox="0 0 153 27" fill="none" xmlns="http://www.w3.org/2000/svg">
<g clip-path="url(#clip0_2097_12334)">
<path d="M71.0495 12.1653L68.4595 10.739L67.0306 8.15381L65.624 10.739L63.0117 12.1653L65.624 13.5916L67.0306 16.1767L68.4595 13.5916L71.0495 12.1653Z" fill="#111111"/>
<path d="M15.5005 24.2663C14.0939 25.4474 12.7096 26.0491 11.3477 26.0491H7.39578V14.5274H10.6332C13.0445 14.5274 14.6074 15.664 15.3219 17.9372H15.4782V11.0286H15.3219C14.6298 12.9675 13.0669 13.948 10.6332 13.948H7.39578V3.3846H10.5662C12.1738 3.3846 13.5581 3.91946 14.6744 4.96689C15.7908 6.01431 16.7508 7.55202 17.5993 9.58002L17.7332 9.51316L17.443 2.80518H0.273438V2.96118C1.32281 3.31775 1.85866 4.90003 1.85866 7.70802V21.7257C1.85866 24.5783 1.32281 26.1606 0.273438 26.4726V26.6286H18.3807L19.0952 19.8537L18.9612 19.7869C18.0681 21.5697 16.9071 23.0629 15.5005 24.2663Z" fill="#111111"/>
<path d="M37.6513 9.18115H32.1142V9.35944C32.6501 9.49315 33.0743 9.73829 33.4315 10.1171C33.7888 10.496 34.0344 10.9863 34.1683 11.6103C34.3023 12.2343 34.213 12.9697 33.9004 13.8165L31.1765 21.3045L27.8944 12.836C27.113 10.8303 27.3809 9.67143 28.7428 9.35944V9.20344H19.7227V9.35944C20.4818 9.47086 21.1739 10.2508 21.7991 11.7217L28.1623 26.6531H29.9262L30.1271 26.0291L34.7042 13.3708C35.1061 12.3234 35.5749 11.432 36.1331 10.6743C36.6913 9.91658 37.2048 9.47086 37.6513 9.35944V9.18115Z" fill="#111111"/>
<path d="M48.7018 23.1962C46.9603 23.1962 45.4867 22.6168 44.3257 21.4357C43.1647 20.2545 42.5172 18.6277 42.4056 16.5328H52.6091C52.676 16.3991 52.6984 15.9757 52.6984 15.2625C52.6984 13.4351 52.0732 11.9197 50.8229 10.7163C49.5726 9.51285 47.9204 8.91113 45.8439 8.91113C43.4326 8.91113 41.4232 9.7357 39.8156 11.4071C38.2081 13.0785 37.4043 15.2848 37.4043 18.0037C37.4043 20.6334 38.2081 22.7951 39.8379 24.4442C41.4678 26.0934 43.4773 26.9402 45.8886 26.9402C47.8534 26.9402 49.4386 26.4277 50.6219 25.4025C51.8053 24.3774 52.5644 23.1962 52.877 21.8591L52.7877 21.7922C51.8053 22.7282 50.4433 23.1962 48.7018 23.1962ZM42.3832 15.8197C42.3832 13.9477 42.7181 12.41 43.4103 11.2288C44.0801 10.0477 44.9062 9.46827 45.8663 9.46827C46.737 9.46827 47.4068 9.86942 47.8534 10.6717C48.2999 11.474 48.5232 12.6106 48.5232 14.0814C48.5232 14.7945 48.4785 15.3963 48.3669 15.8865H42.4056V15.8197H42.3832Z" fill="#111111"/>
<path d="M62.5236 25.2453C62.2333 24.5768 62.0994 23.5071 62.0994 22.0585V15.2391C62.0994 12.3419 62.1887 10.2471 62.3896 8.97684L62.3003 8.8877C60.4695 9.46713 58.1921 9.80141 55.4682 9.86827L55.4012 10.002C55.9371 10.2694 56.3166 10.782 56.5846 11.562C56.8525 12.3419 56.9865 13.5677 56.9865 15.2391V22.0585C56.9865 23.6408 56.8748 24.7105 56.6516 25.3122C56.4283 25.9139 56.0041 26.3151 55.3789 26.5156V26.6493H64.0418V26.5156C63.305 26.3151 62.7915 25.8916 62.5236 25.2453Z" fill="#111111"/>
<path d="M149.508 10.739L148.079 8.15381L146.673 10.739L144.061 12.1653L146.673 13.5916L148.079 16.1767L149.508 13.5916L152.098 12.1653L149.508 10.739Z" fill="#111111"/>
<path d="M143.569 25.2453C143.278 24.5768 143.144 23.5071 143.144 22.0585V15.2391C143.144 12.3419 143.234 10.2471 143.435 8.97684L143.345 8.8877C141.514 9.46713 139.237 9.80141 136.513 9.86827L136.446 10.002C136.982 10.2694 137.362 10.782 137.629 11.562C137.897 12.3419 138.031 13.5677 138.031 15.2391V22.0585C138.031 23.6408 137.92 24.7105 137.696 25.3122C137.473 25.9139 137.049 26.3151 136.424 26.5156V26.6493H145.087V26.5156C144.35 26.3151 143.836 25.8916 143.569 25.2453Z" fill="#111111"/>
<path d="M91.9722 25.2468C91.5034 24.5783 90.9005 23.2634 90.0967 21.3023L82.8404 2.80518H79.9156L72.2574 21.3914C71.6992 22.7954 71.0517 23.932 70.3819 24.8457C69.6898 25.7594 69.0423 26.2943 68.4395 26.4726V26.6286H75.5171V26.4726C74.4008 26.272 73.597 25.6926 73.1281 24.7343C72.6369 23.776 72.6816 22.528 73.2175 21.0126L74.2445 18.5166H83.1084L84.247 21.5697C85.2741 24.3554 84.9615 26.0046 83.287 26.4726V26.6286H93.4458V26.4726C92.9323 26.3166 92.4188 25.8931 91.9722 25.2468ZM74.5124 17.8257L78.8439 7.28459L82.8404 17.8257H74.5124Z" fill="#111111"/>
<path d="M101.369 6.99534C101.369 4.7222 101.547 3.16221 101.927 2.31535C102.307 1.4685 102.865 1.04507 103.602 1.04507C105.231 1.04507 106.437 2.91707 107.174 6.68334L107.308 6.70563L108.893 2.18164C108.357 1.66907 107.598 1.26793 106.638 0.933644C105.656 0.599359 104.651 0.443359 103.602 0.443359C101.28 0.443359 99.4711 0.978215 98.1761 2.02564C96.8811 3.09535 96.2336 4.74449 96.2336 6.99534V9.17933H95.0503V9.73647H96.2336V22.0382C96.2336 23.6204 96.122 24.6901 95.8987 25.2919C95.6755 25.8936 95.2736 26.2947 94.6484 26.4953V26.629H103.244V26.4953C102.575 26.317 102.083 25.8936 101.793 25.225C101.503 24.5564 101.369 23.4867 101.369 22.0604V9.73647H105.432V9.17933H101.369V6.99534Z" fill="#111111"/>
<path d="M115.658 24.3795C113.738 24.3795 112.778 23.0646 112.778 20.4126V9.73783H117.377V9.18069H112.778V5.52584L112.621 5.45898C111.974 6.08298 111.036 6.81841 109.808 7.64298C108.58 8.46754 107.531 9.04697 106.66 9.40354V9.76011H107.91V20.9252C107.91 22.8863 108.379 24.3795 109.295 25.4046C110.232 26.4298 111.594 26.9423 113.403 26.9423C114.676 26.9423 115.725 26.5858 116.573 25.8949C117.422 25.204 117.958 24.3572 118.136 23.3989L118.047 23.3321C117.556 24.0229 116.752 24.3795 115.658 24.3795Z" fill="#111111"/>
<path d="M129.747 23.1962C128.005 23.1962 126.532 22.6168 125.371 21.4357C124.21 20.2545 123.562 18.6277 123.45 16.5328H133.654C133.721 16.3991 133.743 15.9757 133.743 15.2625C133.743 13.4351 133.118 11.9197 131.868 10.7163C130.617 9.51285 128.965 8.91113 126.889 8.91113C124.478 8.91113 122.468 9.7357 120.861 11.4071C119.253 13.0785 118.449 15.2848 118.449 18.0037C118.449 20.6334 119.253 22.7951 120.883 24.4442C122.513 26.0934 124.522 26.9402 126.934 26.9402C128.898 26.9402 130.484 26.4277 131.667 25.4025C132.85 24.3774 133.609 23.1962 133.922 21.8591L133.833 21.7922C132.828 22.7282 131.466 23.1962 129.747 23.1962ZM123.406 15.8197C123.406 13.9477 123.741 12.41 124.433 11.2288C125.103 10.0477 125.929 9.46827 126.889 9.46827C127.76 9.46827 128.429 9.86942 128.876 10.6717C129.323 11.474 129.546 12.6106 129.546 14.0814C129.546 14.7945 129.501 15.3963 129.389 15.8865H123.428V15.8197H123.406Z" fill="#111111"/>
</g>
<defs>
<clipPath id="clip0_2097_12334">
<rect width="153" height="27" fill="white"/>
</clipPath>
</defs>
</svg>
