<svg width="133" height="28" viewBox="0 0 133 28" fill="none" xmlns="http://www.w3.org/2000/svg">
<g clip-path="url(#clip0_2097_12425)">
<path d="M16.9177 12.9594L14.2681 1.76543C13.9308 0.348877 12.2527 0.552404 11.8111 1.02459C9.03296 3.95538 1.373 11.3475 1.373 11.3475C0.786858 11.9255 0.586125 13.5374 0.923356 14.954L3.58106 26.1398C3.91829 27.5564 5.47597 27.4424 5.92561 27.0028C7.70009 25.2525 16.4681 16.5741 16.4681 16.5741C17.0542 15.996 17.255 14.376 16.9177 12.9594Z" fill="#111111"/>
<path d="M36.6597 12.9594L34.01 1.76543C33.6728 0.348877 31.9947 0.552404 31.553 1.02459C28.7829 3.95538 21.123 11.3393 21.123 11.3393C20.5368 11.9174 20.3361 13.5293 20.6733 14.9458L23.331 26.1317C23.6683 27.5482 25.2259 27.4343 25.6756 26.9947C27.4501 25.2443 36.2181 16.5659 36.2181 16.5659C36.8042 15.996 36.9969 14.376 36.6597 12.9594Z" fill="#111111"/>
<path d="M26.8006 12.9594L24.1429 1.76543C23.8056 0.348877 22.1275 0.552404 21.6859 1.02459C18.9158 3.95538 11.2558 11.3393 11.2558 11.3393C10.6697 11.9174 10.469 13.5293 10.8062 14.9458L13.4639 26.1317C13.8011 27.5482 15.3588 27.4343 15.8084 26.9947C17.5829 25.2443 26.3509 16.5659 26.3509 16.5659C26.9371 15.996 27.1378 14.376 26.8006 12.9594Z" fill="#111111"/>
<path d="M44.3223 2.00342V25.9713H49.2172V9.91254L55.4517 25.9713H59.6252L65.8598 9.91254V25.9713H70.7547V2.00342H64.1509L57.7188 19.5993L51.0721 2.00342H44.3223Z" fill="#111111"/>
<path d="M73.8184 2.00342V25.9713H90.2807V21.5573H78.9451V16.0097H87.8418V11.8018H78.9537V6.426H89.9114V2.00342H73.8184Z" fill="#111111"/>
<path d="M91.3945 18.0933C91.4632 22.7477 95.4993 26.1741 101.322 26.1741C106.697 26.1741 110.631 22.9882 110.665 18.6085C110.699 13.7823 107.067 12.5457 102.962 11.7986C98.9945 11.0429 97.1052 10.6307 97.1052 8.68135C97.1052 6.83503 98.6767 5.90757 100.867 5.90757C103.366 5.90757 104.937 7.30734 105.143 9.334H110.175C110.072 4.98871 106.208 1.80273 100.867 1.80273C95.6625 1.80273 91.9355 4.85131 91.9355 9.0592C91.9355 13.9197 95.4993 15.225 99.5355 15.9721C103.537 16.7622 105.495 17.1744 105.495 19.1925C105.495 21.0731 103.752 22.1036 101.39 22.1036C98.4449 22.1036 96.5986 20.4978 96.4268 18.1705L91.3945 18.0933Z" fill="#111111"/>
<path d="M112.727 2.00342V25.9713H117.862V16.0784H127.377V25.9713H132.512V2.00342H127.377V11.6215H117.862V2.00342H112.727Z" fill="#111111"/>
</g>
<defs>
<clipPath id="clip0_2097_12425">
<rect width="133" height="28" fill="white"/>
</clipPath>
</defs>
</svg>
