<svg width="86" height="55" viewBox="0 0 86 55" fill="none" xmlns="http://www.w3.org/2000/svg">
<g clip-path="url(#clip0_2400_1430)">
<path d="M38.3448 5.4826C38.5932 5.25883 38.7589 5.00709 38.9245 4.72738C37.7928 5.25883 36.3851 5.03507 35.4742 4.02811C34.5633 3.02116 34.4529 1.65058 35.0601 0.531738C34.7841 0.671593 34.5081 0.839419 34.2873 1.06319C33.0728 2.21 33.0176 4.11202 34.1216 5.34275C35.2534 6.5455 37.1579 6.62941 38.3448 5.4826Z" fill="white"/>
<path d="M60.9234 3.58016C62.0275 3.58016 62.3588 3.91581 62.3588 5.03465C62.3588 5.11856 62.4416 5.20248 62.5244 5.20248C62.6072 5.20248 62.69 5.11856 62.69 5.03465C62.69 3.91581 63.0212 3.58016 64.1253 3.58016C64.2081 3.58016 64.2909 3.49625 64.2909 3.41234C64.2909 3.32842 64.2081 3.24451 64.1253 3.24451C63.0212 3.24451 62.69 2.90886 62.69 1.79002C62.69 1.70611 62.6072 1.62219 62.5244 1.62219C62.4416 1.62219 62.3588 1.70611 62.3588 1.79002C62.3588 2.90886 62.0275 3.24451 60.9234 3.24451C60.8406 3.24451 60.7578 3.32842 60.7578 3.41234C60.7578 3.49625 60.8406 3.58016 60.9234 3.58016Z" fill="white"/>
<path d="M47.5914 13.9299C48.6955 13.9299 49.0267 14.2655 49.0267 15.3844C49.0267 15.4683 49.1095 15.5522 49.1923 15.5522C49.2751 15.5522 49.358 15.4683 49.358 15.3844C49.358 14.2655 49.6892 13.9299 50.7933 13.9299C50.8761 13.9299 50.9589 13.846 50.9589 13.7621C50.9589 13.6782 50.8761 13.5942 50.7933 13.5942C49.6892 13.5942 49.358 13.2586 49.358 12.1397C49.358 12.0558 49.2751 11.9719 49.1923 11.9719C49.1095 11.9719 49.0267 12.0558 49.0267 12.1397C49.0267 13.2586 48.6955 13.5942 47.5914 13.5942C47.5086 13.5942 47.4258 13.6782 47.4258 13.7621C47.4258 13.846 47.481 13.9299 47.5914 13.9299Z" fill="white"/>
<path d="M21.4517 13.9299C22.5558 13.9299 22.8871 14.2655 22.8871 15.3844C22.8871 15.4683 22.9699 15.5522 23.0527 15.5522C23.1355 15.5522 23.2183 15.4683 23.2183 15.3844C23.2183 14.2655 23.5495 13.9299 24.6536 13.9299C24.7364 13.9299 24.8192 13.846 24.8192 13.7621C24.8192 13.6782 24.7364 13.5942 24.6536 13.5942C23.5495 13.5942 23.2183 13.2586 23.2183 12.1397C23.2183 12.0558 23.1355 11.9719 23.0527 11.9719C22.9699 11.9719 22.8871 12.0558 22.8871 12.1397C22.8871 13.2586 22.5558 13.5942 21.4517 13.5942C21.3689 13.5942 21.2861 13.6782 21.2861 13.7621C21.2861 13.846 21.3413 13.9299 21.4517 13.9299Z" fill="white"/>
<path d="M8.11921 3.58016C9.22331 3.58016 9.55453 3.91581 9.55453 5.03465C9.55453 5.11856 9.63734 5.20248 9.72015 5.20248C9.80296 5.20248 9.88576 5.11856 9.88576 5.03465C9.88576 3.91581 10.217 3.58016 11.3211 3.58016C11.4039 3.58016 11.4867 3.49625 11.4867 3.41234C11.4867 3.32842 11.4039 3.24451 11.3211 3.24451C10.217 3.24451 9.88576 2.90886 9.88576 1.79002C9.88576 1.70611 9.80296 1.62219 9.72015 1.62219C9.63734 1.62219 9.55453 1.70611 9.55453 1.79002C9.55453 2.90886 9.22331 3.24451 8.11921 3.24451C8.0364 3.24451 7.95359 3.32842 7.95359 3.41234C7.92599 3.49625 8.0088 3.58016 8.11921 3.58016Z" fill="white"/>
<path d="M74.2555 13.0913C75.3596 13.0913 75.6908 13.4269 75.6908 14.5458C75.6908 14.6297 75.7736 14.7136 75.8564 14.7136C75.9392 14.7136 76.022 14.6297 76.022 14.5458C76.022 13.4269 76.3532 13.0913 77.4573 13.0913C77.5402 13.0913 77.623 13.0074 77.623 12.9234C77.623 12.8395 77.5402 12.7556 77.4573 12.7556C76.3532 12.7556 76.022 12.42 76.022 11.3011C76.022 11.2172 75.9392 11.1333 75.8564 11.1333C75.7736 11.1333 75.6908 11.2172 75.6908 11.3011C75.6908 12.42 75.3596 12.7556 74.2555 12.7556C74.1727 12.7556 74.0898 12.8395 74.0898 12.9234C74.0898 13.0074 74.1727 13.0913 74.2555 13.0913Z" fill="white"/>
<path d="M9.88625 24.922C8.61653 24.1388 7.20881 23.7752 5.74588 23.6073C4.58657 23.4675 3.42727 23.4675 2.26797 23.4955C1.57791 23.4955 0.887845 23.5234 0.197783 23.5514C0.197783 23.5794 0.170181 23.5794 0.170181 23.6073C0.197783 23.6353 0.252988 23.6912 0.28059 23.6912C0.61182 23.7472 0.805037 23.9989 0.860242 24.3066C0.915447 24.5583 0.943049 24.8101 0.943049 25.0618C0.943049 29.4812 0.943049 33.8727 0.943049 38.2921C0.943049 38.4599 0.943049 38.6557 0.915447 38.8235C0.860242 39.2151 0.72223 39.5508 0.28059 39.6347C0.252988 39.6347 0.225386 39.6906 0.142578 39.7746C0.225386 39.7746 0.28059 39.8025 0.308193 39.8025C1.66071 39.8305 3.01323 39.9144 4.36575 39.9144C5.69067 39.9144 6.98799 39.6906 8.2301 39.1872C10.2175 38.376 11.6804 37.0054 12.5637 35.0195C13.3366 33.2294 13.4746 31.3833 13.0881 29.4812C12.6741 27.4673 11.5976 25.9569 9.88625 24.922ZM11.294 35.0195C10.6039 36.8656 9.3342 38.1243 7.51243 38.8235C6.15991 39.355 4.75219 39.4949 3.28926 39.4949C2.98563 39.4949 2.682 39.4948 2.37838 39.4669C2.35077 39.4669 2.35077 39.4669 2.29557 39.4389C2.18516 34.2922 2.24036 29.1176 2.26797 23.915C2.73721 23.915 3.20645 23.915 3.64809 23.915C4.8626 23.943 6.0495 24.0828 7.1812 24.4744C9.74823 25.3415 11.294 27.1317 11.708 29.8449C12.0116 31.607 11.9012 33.3412 11.294 35.0195Z" fill="white"/>
<path d="M31.0024 39.6918C30.8368 39.5799 30.6436 39.496 30.4779 39.3561C30.0915 39.0484 29.8155 38.6289 29.5947 38.1813C27.2485 33.3423 24.9851 28.4474 22.7769 23.5245C22.7217 23.4126 22.6941 23.3287 22.5284 23.3287C22.3628 23.3287 22.3076 23.4126 22.2524 23.5245C21.5624 25.0629 20.8723 26.6293 20.1546 28.1397C18.5537 31.5802 16.9251 34.9926 15.3242 38.4051C15.0482 38.9925 14.6617 39.468 14.0269 39.6918C13.9993 39.6918 13.9717 39.7477 13.9717 39.7757C13.9993 39.8036 14.0545 39.8316 14.0821 39.8316C14.8826 39.7477 15.6554 39.7477 16.4559 39.8316C16.5111 39.8316 16.5663 39.8036 16.6215 39.7757C16.5663 39.7197 16.5387 39.6638 16.4835 39.6358C16.0419 39.44 15.8762 39.1044 15.9591 38.6289C15.9867 38.489 16.0419 38.3492 16.0971 38.2373C16.6215 37.0345 17.146 35.8318 17.6704 34.629C17.7256 34.4892 17.8084 34.4332 17.974 34.4332C20.6239 34.4332 23.2737 34.4332 25.8959 34.4332C26.2548 34.4332 26.4204 34.5451 26.586 34.8808C27.1104 36.1115 27.7177 37.3422 28.2698 38.5729C28.5734 39.2442 28.4078 39.496 27.7453 39.7477C27.7453 39.7477 27.7453 39.7477 27.6625 39.8036C27.7729 39.8316 27.8281 39.8876 27.8833 39.8876C28.2974 39.8596 28.7114 39.8036 29.1254 39.8036C29.7327 39.8036 30.3123 39.8316 30.9196 39.8596C30.9748 39.8596 31.03 39.8316 31.0852 39.8036C31.0852 39.7757 31.0576 39.7197 31.0024 39.6918ZM18.0292 33.9577C19.3818 30.9928 20.7067 28.0838 22.0868 25.0909C23.4669 28.0838 24.847 30.9928 26.2272 33.9577C23.4669 33.9577 20.7619 33.9577 18.0292 33.9577Z" fill="white"/>
<path d="M85.351 39.6918C85.1854 39.5799 84.9922 39.496 84.8542 39.3561C84.4678 39.0484 84.1917 38.6289 83.9709 38.1813C81.5971 33.3423 79.3337 28.4474 77.1255 23.5245C77.0703 23.4126 77.0427 23.3287 76.8771 23.3287C76.7115 23.3287 76.6563 23.4126 76.6011 23.5245C75.8558 25.1468 75.1381 26.7692 74.3929 28.3915C72.8195 31.748 71.2462 35.0765 69.6728 38.4331C69.3968 39.0205 69.038 39.468 68.4031 39.7197C68.3755 39.7197 68.3479 39.7757 68.3203 39.8036C68.3755 39.8316 68.4031 39.8596 68.4583 39.8316C69.2588 39.7477 70.0317 39.7477 70.8321 39.8316C70.8873 39.8316 70.9425 39.8036 70.9978 39.7757C70.9425 39.7197 70.9149 39.6638 70.8597 39.6358C70.4181 39.44 70.2525 39.1044 70.3353 38.6289C70.3629 38.489 70.4181 38.3771 70.4733 38.2373C70.9978 37.0065 71.5498 35.7758 72.0742 34.5451C72.1295 34.4332 72.1847 34.4052 72.2951 34.4052C75.0553 34.4052 77.8156 34.4052 80.6034 34.4052C80.7414 34.4052 80.7966 34.4612 80.8518 34.5731C81.4315 35.8318 82.0111 37.0905 82.5908 38.3491C82.6736 38.517 82.7288 38.6848 82.784 38.8806C82.8668 39.1883 82.7564 39.44 82.4528 39.5799C82.3424 39.6358 82.232 39.6638 82.1491 39.7197C82.1491 39.7477 82.1215 39.7757 82.1215 39.7757C82.1767 39.8036 82.232 39.8316 82.3148 39.8316C82.7288 39.8036 83.1428 39.7477 83.5569 39.7477C84.1641 39.7477 84.7438 39.7757 85.351 39.8036C85.4062 39.8036 85.4614 39.7757 85.489 39.7757C85.4338 39.7757 85.4062 39.7197 85.351 39.6918ZM72.3779 33.9577C73.7304 30.9928 75.0553 28.0838 76.4354 25.0909C77.8156 28.0838 79.1957 30.9928 80.5758 33.9577C77.8156 33.9577 75.1105 33.9577 72.3779 33.9577Z" fill="white"/>
<path d="M50.6827 23.3285C50.7103 23.3565 50.7379 23.4124 50.7931 23.4404C51.1795 23.5803 51.3727 23.8879 51.4003 24.2795C51.4279 24.4194 51.4279 24.5872 51.4279 24.7271C51.4831 29.3703 51.5384 33.9855 51.3175 38.6286C51.2899 39.1321 51.1519 39.5517 50.6275 39.7475C50.5999 39.7475 50.5723 39.8034 50.5723 39.8314C50.5999 39.8594 50.6551 39.8873 50.6827 39.8873C51.3727 39.8034 52.0352 39.8034 52.7253 39.8873C52.7529 39.8873 52.8081 39.8594 52.8357 39.8594C52.8081 39.8314 52.7805 39.7755 52.7529 39.7475C52.256 39.5517 52.0904 39.1601 52.0904 38.6846C52.0352 36.6707 51.98 34.6288 51.9524 32.6149C51.9248 29.9576 51.9248 27.3284 51.9248 24.6711C51.9248 24.6152 51.9248 24.5872 51.9248 24.5033C51.98 24.5592 52.0076 24.5872 52.0352 24.6432C56.2308 29.8178 60.4539 35.0204 64.6495 40.195C64.7599 40.3349 64.8703 40.3908 65.0084 40.3349C65.0084 39.7755 65.0084 39.272 65.0084 38.7405C64.9807 35.44 64.9531 32.1674 64.9531 28.8668C64.9531 27.4123 65.036 25.9578 65.0636 24.4753C65.0912 23.9719 65.2292 23.5523 65.7536 23.3845C65.7812 23.3845 65.8088 23.3285 65.8364 23.3006C65.7812 23.2726 65.726 23.2726 65.6984 23.2726C65.036 23.2726 64.3735 23.2726 63.711 23.2726C63.6558 23.2726 63.6282 23.3006 63.573 23.3285C63.6006 23.3565 63.6282 23.4124 63.6834 23.4404C64.0699 23.6082 64.2907 23.9159 64.3183 24.3355C64.3735 25.2026 64.4287 26.0697 64.4287 26.9368C64.4563 30.4611 64.4839 33.9855 64.5115 37.5098C64.5115 37.5658 64.5115 37.6217 64.5115 37.7336C64.4287 37.6497 64.4011 37.5937 64.3459 37.5657C60.5092 32.8666 56.7 28.1675 52.8633 23.4684C52.8081 23.4124 52.6977 23.3565 52.6148 23.3565C52.0076 23.3285 51.4279 23.3285 50.8207 23.3006C50.7655 23.2726 50.7103 23.3006 50.6827 23.3285Z" fill="white"/>
<path d="M66.0577 43.3C65.1744 44.2231 64.65 44.7545 63.8771 45.3699C63.6839 45.5097 63.4907 45.6496 63.2698 45.8174C59.5159 48.6145 52.0632 49.9851 45.0522 40.2512C43.4513 38.2373 41.9607 35.8318 40.6634 34.0976C41.1051 33.8738 41.2983 33.7619 41.5191 33.65C42.568 33.1745 43.3685 32.6151 43.9481 31.9998C45.1074 30.8809 45.5215 29.4264 45.3006 27.6922C45.1074 26.2657 44.2794 25.2587 43.0924 24.5315C41.6571 23.6364 40.0286 23.3287 38.3724 23.2448C37.0475 23.1889 35.7226 23.2448 34.3977 23.2448C34.1216 23.2448 33.8456 23.2728 33.5696 23.3008C33.5696 23.3287 33.542 23.3287 33.542 23.3567C33.5972 23.3847 33.6248 23.4686 33.68 23.4686C34.1216 23.5525 34.3701 23.8602 34.4253 24.3077C34.4529 24.4196 34.4529 24.5595 34.4805 24.6993C34.4805 29.0348 34.4805 33.9857 34.4805 38.3771C34.4805 38.489 34.4805 38.6009 34.4805 38.6848C34.4805 39.1603 34.2873 39.5239 33.818 39.6918C33.7904 39.6918 33.7628 39.7757 33.7352 39.8037C33.7628 39.8037 33.818 39.8316 33.8456 39.8316C34.7289 39.7477 35.6398 39.7477 36.5507 39.8037C36.5231 39.7477 36.4955 39.6638 36.4403 39.6638C36.109 39.5239 35.8882 39.2722 35.8606 38.9086C35.833 38.7687 35.833 38.6009 35.833 38.461C35.833 37.9576 35.833 37.4541 35.833 36.9506C35.833 36.0276 35.833 35.1045 35.833 34.4892C38.262 33.8458 39.9182 34.4892 41.4363 36.587C42.0988 37.51 42.9268 38.6848 43.8653 39.8876C44.5278 40.8386 53.5538 53.4535 63.6011 46.2649C64.0427 46.0412 65.478 44.8944 66.6649 43.5238C67.079 43.0483 67.2998 42.5448 67.1342 42.405C66.7477 42.0973 66.6097 42.7406 66.0577 43.3ZM39.9182 33.3144C38.7589 33.6221 37.1303 33.6221 35.9434 33.5382C35.8882 33.5382 35.8054 33.5102 35.7778 33.5102C35.7778 33.5102 35.7778 33.5102 35.7778 33.4822C35.7778 30.2376 35.7778 26.9929 35.7778 23.7483C35.833 23.7203 35.8606 23.7203 35.8882 23.7203C37.3235 23.7203 39.1729 23.8043 40.553 24.2518C41.7675 24.6434 42.8164 25.3147 43.2305 26.6014C43.8101 28.3915 43.6997 30.1537 42.5404 31.6921C41.9055 32.5871 40.9671 33.0347 39.9182 33.3144Z" fill="white"/>
<path d="M20.0994 51.2426C19.2989 51.2426 18.6641 51.8859 18.6641 52.781C18.6641 53.676 19.2989 54.3194 20.0994 54.3194C20.8999 54.3194 21.5623 53.676 21.5623 52.781C21.5623 51.8859 20.8999 51.2426 20.0994 51.2426ZM20.0994 53.9837C19.4645 53.9837 18.9953 53.5082 18.9953 52.781C18.9953 52.0817 19.4645 51.5782 20.0994 51.5782C20.7342 51.5782 21.2035 52.0537 21.2035 52.781C21.2035 53.4802 20.7342 53.9837 20.0994 53.9837Z" fill="white"/>
<path d="M24.626 53.0329C24.626 53.6762 24.35 53.9839 23.798 53.9839C23.2459 53.9839 22.9699 53.6762 22.9699 53.0329V51.2987H22.6387V53.0329C22.6387 53.872 23.0527 54.3196 23.7704 54.3196C24.488 54.3196 24.9297 53.872 24.9297 53.0329V51.2987H24.5984V53.0329H24.626Z" fill="white"/>
<path d="M28.1038 52.2507C28.1038 51.6913 27.7174 51.3276 27.0549 51.3276H26.1992V54.2646H26.5304V53.1737H27.0549C27.1101 53.1737 27.1653 53.1737 27.1929 53.1737L27.8278 54.2646H28.1866L27.4965 53.0898C27.883 52.9499 28.1038 52.6702 28.1038 52.2507ZM27.0825 52.8381H26.5304V51.6353H27.0825C27.4965 51.6353 27.7726 51.8591 27.7726 52.2507C27.745 52.5863 27.5241 52.8381 27.0825 52.8381Z" fill="white"/>
<path d="M32.8523 52.5584H31.3342V51.3276H31.0029V54.2646H31.3342V52.894H32.8523V54.2646H33.1835V51.3276H32.8523V52.5584Z" fill="white"/>
<path d="M35.8054 51.2426C35.005 51.2426 34.3701 51.8859 34.3701 52.781C34.3701 53.676 35.005 54.3194 35.8054 54.3194C36.6059 54.3194 37.2684 53.676 37.2684 52.781C37.2684 51.8859 36.6059 51.2426 35.8054 51.2426ZM35.8054 53.9837C35.1706 53.9837 34.7013 53.5082 34.7013 52.781C34.7013 52.0817 35.1706 51.5782 35.8054 51.5782C36.4403 51.5782 36.9095 52.0537 36.9095 52.781C36.9095 53.4802 36.4403 53.9837 35.8054 53.9837Z" fill="white"/>
<path d="M39.9725 52.5584C39.7241 52.9779 39.6965 53.1178 39.6965 53.1178C39.6965 53.1178 39.6413 53.0059 39.4204 52.5584L38.7304 51.3276H38.4268V54.2646H38.758V52.9499C38.758 52.5024 38.7304 51.915 38.7304 51.915C38.7304 51.915 38.8684 52.1947 38.9788 52.3626L39.6413 53.5653H39.8069L40.4693 52.3626C40.5798 52.1947 40.7178 51.915 40.7178 51.915C40.7178 51.915 40.6902 52.5024 40.6902 52.9499V54.2646H41.0214V51.3276H40.7178L39.9725 52.5584Z" fill="white"/>
<path d="M42.6779 52.8381H43.92V52.5304H42.6779V51.6353H44.2236V51.3276H42.3467V54.2646H44.2513V53.9289H42.6779V52.8381Z" fill="white"/>
<path d="M47.4533 51.3276H47.1221V54.2646H47.4533V51.3276Z" fill="white"/>
<path d="M50.7928 52.8651C50.7928 53.2846 50.7928 53.6762 50.7928 53.6762C50.7928 53.6762 50.572 53.3686 50.3787 53.0609L49.1366 51.2987H48.833V54.2357H49.1642V52.6973C49.1642 52.2217 49.1642 51.8581 49.1642 51.8581C49.1642 51.8581 49.3575 52.1378 49.5783 52.4735L50.8204 54.2357H51.124V51.2987H50.7928V52.8651Z" fill="white"/>
<path d="M54.464 52.8381H55.7062V52.5304H54.464V51.6353H56.0098V51.3276H54.1328V54.2646H56.0374V53.9289H54.464V52.8381Z" fill="white"/>
<path d="M57.6115 51.3276H57.2803V54.2646H57.6115V51.3276Z" fill="white"/>
<path d="M59.3215 51.3276H58.9902V54.2646H60.812V53.9289H59.3215V51.3276Z" fill="white"/>
<path d="M62.9098 51.3276L61.6953 54.2646H62.0541L62.3578 53.5094H63.7655L64.0691 54.2646H64.428L63.2134 51.3276H62.9098ZM62.4682 53.1737L62.9098 52.0829C62.965 51.943 63.0478 51.7192 63.0478 51.7192C63.0478 51.7192 63.1306 51.915 63.1858 52.0829L63.6275 53.1737H62.4682Z" fill="white"/>
<path d="M64.8701 51.6353H65.781V54.2646H66.1122V51.6353H67.0507V51.3276H64.8701V51.6353Z" fill="white"/>
</g>
<defs>
<clipPath id="clip0_2400_1430">
<rect width="85.3192" height="53.7882" fill="white" transform="translate(0.142578 0.533203)"/>
</clipPath>
</defs>
</svg>
