<svg width="149" height="42" viewBox="0 0 149 42" fill="none" xmlns="http://www.w3.org/2000/svg">
<path d="M13.4658 15.4598H14.0034H19.1108V11.24H9.1648C8.89599 11.24 8.62718 11.24 8.35837 11.24C8.62718 11.24 10.24 10.4487 10.7777 10.185C12.3905 9.39377 13.197 8.07506 13.4658 6.49261V4.91016H6.74551V5.70138C6.74551 5.70138 6.74551 5.70138 6.74551 5.96513C6.74551 7.28384 6.74551 8.60255 6.74551 9.92126C6.74551 10.9762 6.74551 11.24 6.20789 11.24H3.25098V15.4598H5.40146H5.93908H6.4767V16.7786C6.4767 19.1522 6.4767 21.5259 6.4767 24.1633C6.74551 27.0645 8.35837 29.7019 11.5841 30.2294C13.4658 30.4932 15.6162 30.4932 17.4979 30.2294C17.7667 30.2294 18.3043 29.9657 18.3043 29.9657V25.7458C18.3043 25.7458 17.7667 25.7458 16.9603 26.0095C14.8098 26.0095 12.6593 25.2183 12.6593 23.1084C12.6593 20.7347 12.6593 15.4598 12.6593 15.4598H13.4658Z" fill="white"/>
<path d="M41.9593 18.8878V29.7012H36.3143V27.0638C34.9703 29.1737 32.551 30.4925 29.3253 30.4925C25.0243 30.2287 22.0674 27.5913 22.0674 23.8989C22.0674 20.2065 25.0243 17.5691 29.8629 17.5691C32.8198 17.5691 34.9703 18.6241 36.5831 20.4703V19.4153C36.5831 15.7229 33.6262 13.8767 30.1317 13.8767C27.4436 13.8767 25.2931 14.9317 23.4114 16.5141V11.503C25.2931 10.1843 27.9812 8.8656 31.7445 8.8656C38.196 8.8656 41.9593 12.558 41.9593 18.8878ZM36.5831 23.3714C36.5831 21.5252 34.7015 20.2065 32.0134 20.2065C29.3253 20.2065 27.4436 21.789 27.4436 23.6352C27.4436 25.4814 29.0564 26.8001 31.7445 26.8001C34.4326 26.8001 36.5831 25.2176 36.5831 23.3714Z" fill="white"/>
<path d="M62.9268 9.92135H68.5718V25.7459C68.5718 32.6032 63.7332 36.8231 55.9377 36.8231C52.4432 36.8231 49.2174 36.0318 47.067 34.1856V29.702C48.9486 31.2845 51.9055 32.6032 55.1313 32.6032C60.5075 32.6032 63.1956 29.9658 63.1956 25.2184V23.8997C61.5827 27.0646 58.8946 28.9108 55.1313 28.9108C49.2174 28.9108 45.4541 24.6909 45.4541 19.1523C45.4541 13.0863 49.4863 9.13013 55.4001 9.13013C59.1634 9.13013 61.5827 10.9763 63.1956 14.1412V9.92135H62.9268ZM63.1956 19.1523C63.1956 15.9874 60.7763 13.6137 57.2818 13.6137C53.7872 13.6137 51.3679 15.9874 51.3679 19.4161C51.3679 22.581 53.5184 24.9547 57.2818 24.9547C60.7763 24.6909 63.1956 22.3172 63.1956 19.1523Z" fill="white"/>
<path d="M96.5276 19.4156C96.5276 26.0092 91.9578 30.229 86.5816 30.229C82.8183 30.229 79.8614 28.3828 78.2485 25.4817V29.7016H72.6035V4.90979H78.2485V14.4045C79.5926 11.2396 82.5495 9.12966 86.8505 9.12966C92.7643 8.86592 96.5276 13.6133 96.5276 19.4156ZM90.345 19.6794C90.345 16.2507 88.1945 13.6133 84.4312 13.6133C80.6678 13.6133 78.2485 16.2507 78.2485 19.6794C78.2485 23.108 80.399 25.7454 84.1624 25.7454C88.1945 25.7454 90.345 23.108 90.345 19.6794Z" fill="white"/>
<path d="M98.9473 19.4153C98.9473 13.3492 103.517 8.8656 110.775 8.8656C118.033 8.8656 122.603 13.3492 122.603 19.4153C122.603 25.4814 118.033 30.2287 110.775 30.2287C103.517 30.2287 98.9473 25.4814 98.9473 19.4153ZM116.958 19.679C116.958 15.9866 114.538 13.613 110.775 13.613C107.012 13.613 104.592 15.9866 104.592 19.679C104.592 23.1077 107.012 25.7451 110.775 25.7451C114.807 25.7451 116.958 23.1077 116.958 19.679Z" fill="white"/>
<path d="M146.258 29.7016H139.537L134.43 22.5806L129.323 29.7016H122.871L130.398 19.1519L123.409 9.65723H129.86L134.43 16.2508L139.269 9.65723H145.72L138.731 19.1519L146.258 29.7016Z" fill="white"/>
</svg>
