<svg width="112" height="32" viewBox="0 0 112 32" fill="none" xmlns="http://www.w3.org/2000/svg">
<g clip-path="url(#clip0_2400_1607)">
<path fill-rule="evenodd" clip-rule="evenodd" d="M6.62063 5.10241L10.7062 16.2401L14.9869 5.10241H21.0637L10.6725 30.8941H4.66212L7.73568 22.9021L0.348633 5.10241H6.62063ZM70.8046 4.70747C76.2916 4.70747 80.2928 8.91755 80.2928 14.6799C80.2928 20.4423 76.2916 24.6534 70.8046 24.6534C68.7796 24.6534 67.0749 24.1232 65.7735 23.1011L65.6892 23.0335L65.6169 22.9747V30.8882H59.7612V5.10241H64.9389V7.03007L64.9687 6.99675C66.2443 5.55811 68.174 4.76235 70.5588 4.71041L70.6846 4.70845L70.8046 4.70747ZM31.7294 4.70747C37.7715 4.70747 42.0543 8.83523 42.0543 14.6799C42.0543 20.5002 37.7576 24.6534 31.7294 24.6534C25.6676 24.6534 21.364 20.506 21.364 14.6799C21.364 8.82935 25.6527 4.70747 31.7294 4.70747ZM51.8102 0.859009V5.10241H56.6271V10.1033H51.8102V17.0065C51.8102 18.551 52.5684 19.4006 53.95 19.4526L54.0174 19.4535L54.0858 19.4545C55.0225 19.4545 55.7321 19.2115 56.3675 18.6078L56.4269 18.55L56.5845 18.3902H56.6281V23.9067L56.4487 23.9919C55.4843 24.4476 54.8906 24.6534 53.2473 24.6534C48.6048 24.6534 46.0555 22.1544 45.9564 17.4876L45.9544 17.3455V17.2035L45.9534 10.1033H43.8344V5.10241H46.113V0.859009H51.8102ZM93.0886 4.70747C99.1306 4.70747 103.413 8.83523 103.413 14.6799C103.413 20.5002 99.1168 24.6534 93.0886 24.6534C87.0267 24.6534 82.7231 20.506 82.7231 14.6799C82.7231 8.82935 87.0128 4.70747 93.0886 4.70747ZM108.187 18.3079C109.959 18.3079 111.395 19.7289 111.395 21.4802C111.395 23.2324 109.958 24.6534 108.187 24.6534C106.415 24.6534 104.978 23.2324 104.978 21.4802C104.978 19.7279 106.416 18.3079 108.187 18.3079ZM69.9274 9.90637C67.2889 9.90637 65.4969 11.837 65.4969 14.6799C65.4969 17.5239 67.2889 19.4545 69.9274 19.4545C72.5995 19.4545 74.3975 17.5298 74.3975 14.6799C74.3975 11.8311 72.5995 9.90637 69.9274 9.90637ZM31.7285 9.90637C29.0821 9.90637 27.2594 11.8468 27.2594 14.6799C27.2594 17.5141 29.0821 19.4545 31.7294 19.4545C34.3421 19.4545 36.1599 17.5082 36.1599 14.6799C36.1599 11.8526 34.3411 9.90637 31.7285 9.90637ZM93.0886 9.90637C90.4422 9.90637 88.6185 11.8468 88.6185 14.6799C88.6185 17.5141 90.4422 19.4545 93.0886 19.4545C95.7013 19.4545 97.519 17.5082 97.519 14.6799C97.519 11.8526 95.7013 9.90637 93.0886 9.90637Z" fill="white"/>
</g>
<defs>
<clipPath id="clip0_2400_1607">
<rect width="112" height="31.36" fill="white" transform="translate(0 0.319702)"/>
</clipPath>
</defs>
</svg>
