<svg width="154" height="26" viewBox="0 0 154 26" fill="none" xmlns="http://www.w3.org/2000/svg">
<mask id="mask0_2097_12600" style="mask-type:luminance" maskUnits="userSpaceOnUse" x="14" y="1" width="125" height="25">
<path d="M138.83 1.11719H14.4316V25.1227H138.83V1.11719Z" fill="white"/>
</mask>
<g mask="url(#mask0_2097_12600)">
<path d="M23.8311 7.95513C21.8584 7.95513 19.9824 8.70832 18.5512 10.0602V1.54336H14.4316V24.6991C15.9789 24.6991 17.3907 23.83 18.087 22.4589C19.5569 24.0425 21.5876 25.0081 23.8311 25.0081C28.2795 25.0081 31.8768 21.1842 31.8768 16.472C31.8768 11.7597 28.2601 7.95513 23.8311 7.95513ZM23.3089 21.2422C21.3749 21.2422 19.6342 20.0834 18.8993 18.2873C18.1644 16.5106 18.5705 14.4441 19.9437 13.0923C21.3169 11.7211 23.367 11.3155 25.1463 12.0494C26.9256 12.7833 28.0861 14.5214 28.0861 16.4526C28.0861 17.7273 27.5832 18.9247 26.6935 19.8323C25.8039 20.74 24.5854 21.2422 23.3089 21.2422ZM34.1977 20.5855C34.1977 21.667 34.6232 22.7099 35.3968 23.4824C36.1704 24.2549 37.2148 24.6798 38.2979 24.6798V1.54336H34.1784V20.5855H34.1977ZM96.2036 8.26413V24.6991H100.323V12.3777C100.323 10.0988 98.4858 8.26413 96.2036 8.26413ZM68.1791 21.2615C65.9356 21.2615 64.0015 19.7165 63.518 17.5341H76.6696C77.2305 12.9957 74.1167 8.8242 69.6103 8.07101C65.104 7.2985 60.791 10.234 59.824 14.6952C58.857 19.1564 61.584 23.5983 66.013 24.757C70.442 25.9158 74.987 23.3859 76.3408 19.0212H72.2213C71.351 20.4117 69.8231 21.2615 68.1791 21.2615ZM68.1791 11.7018C70.0165 11.7018 71.6798 12.7446 72.4727 14.3862H63.8662C64.6785 12.7446 66.3418 11.7018 68.1791 11.7018ZM130.224 21.2615C127.98 21.2615 126.046 19.7165 125.563 17.5341H138.714C139.275 12.9957 136.161 8.84351 131.655 8.07101C127.149 7.31782 122.836 10.234 121.888 14.6952C120.921 19.1564 123.648 23.579 128.077 24.7377C132.506 25.8965 137.051 23.3665 138.405 19.0019H134.285C133.396 20.4117 131.868 21.2615 130.224 21.2615ZM130.224 11.7018C132.061 11.7018 133.724 12.7446 134.537 14.3862H125.93C126.723 12.7446 128.386 11.7018 130.224 11.7018ZM85.5856 19.2337L81.3114 8.24482H77.0371L83.4388 24.6798H87.7324L94.1342 8.24482H89.8599L85.5856 19.2337ZM53.1128 17.5921C53.1321 18.577 52.7453 19.5233 52.0684 20.2186C51.3721 20.9138 50.4438 21.3194 49.4574 21.3194C48.4711 21.3194 47.5427 20.9332 46.8464 20.2186C46.1502 19.5233 45.7827 18.577 45.8021 17.5921V8.24482H41.6825V18.3453C41.6825 21.1842 43.4812 23.7142 46.1695 24.6412C48.8579 25.5682 51.8363 24.6991 53.5963 22.4782C54.3119 23.83 55.7044 24.6798 57.2323 24.6798V8.24482H53.1128V17.5921ZM112.604 7.91651C110.554 7.91651 108.64 8.84351 107.363 10.4464C106.648 9.09458 105.255 8.24482 103.727 8.24482V24.6798H107.847V15.3325C107.827 14.3476 108.214 13.4013 108.891 12.706C109.587 12.0108 110.516 11.6052 111.502 11.6052C112.488 11.6052 113.417 11.9914 114.113 12.706C114.809 13.4013 115.177 14.3476 115.157 15.3325V24.6798H119.277V14.5793C119.277 12.8026 118.581 11.1224 117.324 9.86708C116.066 8.63107 114.364 7.91651 112.604 7.91651ZM96.2036 6.10113C96.2036 6.29425 96.223 6.48738 96.2423 6.6805C97.7509 6.87363 99.2788 6.33288 100.362 5.27068C101.445 4.18918 101.967 2.6828 101.793 1.15711C100.381 0.983296 98.95 1.42748 97.8863 2.3738C96.8225 3.32011 96.2036 4.672 96.2036 6.10113Z" fill="#111111"/>
</g>
</svg>
