<svg width="54" height="56" viewBox="0 0 54 56" fill="none" xmlns="http://www.w3.org/2000/svg">
<g clip-path="url(#clip0_2097_12652)">
<mask id="mask0_2097_12652" style="mask-type:luminance" maskUnits="userSpaceOnUse" x="0" y="0" width="54" height="56">
<path d="M53.2987 0H0.878906V55.1949H53.2987V0Z" fill="white"/>
</mask>
<g mask="url(#mask0_2097_12652)">
<path d="M27.5215 54.6755H31.0221V37.8123C31.0221 36.3025 31.6085 35.4585 33.1485 35.4585C33.4032 35.4585 33.7645 35.4585 33.7645 35.4585V32.6113C33.7645 32.6113 33.8711 32.6113 33.1485 32.6113C28.8483 32.6113 27.5215 34.7333 27.5215 37.735V54.6755Z" fill="#111111"/>
<path d="M45.332 35.4346H48.8325V49.8013C48.8325 51.311 49.4189 52.1551 50.9589 52.1551C51.8119 52.1551 53.2986 52.1551 53.2986 52.1551V55.0023C53.2986 55.0023 51.6815 55.0023 50.9589 55.0023C46.6587 55.0023 45.332 52.8803 45.332 49.8785V35.4346Z" fill="#111111"/>
<path d="M36.418 35.4346H39.9186V49.8013C39.9186 51.311 40.505 52.1551 42.045 52.1551C42.8979 52.1551 42.9986 52.1551 42.9986 52.1551V55.0023C42.9986 55.0023 42.7676 55.0023 42.045 55.0023C37.7448 55.0023 36.418 52.8803 36.418 49.8785V35.4346Z" fill="#111111"/>
<path d="M0.878906 39.6963H4.4091C4.4091 47.1739 4.4091 43.1498 4.4091 54.6752H0.878906V39.6963Z" fill="#111111"/>
<path fill-rule="evenodd" clip-rule="evenodd" d="M19.7256 50.7997H19.7907V54.6752H23.2913V45.7056C23.2913 41.7648 21.3959 39.5298 16.9476 39.5298C12.8547 39.5298 10.8172 41.42 10.213 44.5168L13.607 44.9745C14.0571 43.1854 15.1055 42.484 16.8232 42.484C18.9497 42.484 19.7967 43.6312 19.7967 45.7354H15.2122C11.3562 45.7354 9.65625 47.7742 9.65625 50.5976C9.65625 53.5517 11.6523 54.9961 14.4955 54.9961C17.1431 55.0021 19.0089 53.5517 19.7256 50.7997ZM19.7907 48.3626V48.856C19.7907 50.7283 18.2211 52.1073 15.8045 52.1073C13.8084 52.1073 13.1213 51.1206 13.1213 50.0388C13.1213 48.9867 14.0334 48.3626 15.7393 48.3626H19.7907Z" fill="#111111"/>
<path d="M53.2981 39.6963H48.832C48.832 41.5092 50.3365 42.9834 52.2023 42.9834H53.2981V39.6963Z" fill="#111111"/>
<path d="M9.17041 42.9834H4.4082C4.4082 41.1704 5.9186 39.6963 7.77847 39.6963H9.17041V42.9834Z" fill="#111111"/>
<path d="M24.2754 39.6963H46.4872V42.6862H24.2754V39.6963Z" fill="#111111"/>
<path d="M13.3887 26.9918C16.5164 25.7899 20.1603 20.2317 20.1603 13.5998C20.1603 6.08883 16.5074 0.65811 13.3887 0H34.1758V0.00793404C37.8498 0.255096 40.7899 6.24579 40.7899 13.5998C40.7899 19.8179 38.6879 25.3562 35.8176 26.9771C35.2987 27.1958 34.7898 27.4113 34.2244 27.483C33.2614 27.5611 32.4349 27.3222 31.557 26.9789C30.0022 26.371 28.8569 26.3682 27.3081 26.9918C26.7319 27.2238 26.1675 27.4415 25.5384 27.483C24.6942 27.483 23.9598 27.2919 23.1935 26.9689C21.5661 26.2829 20.8938 26.288 18.9443 26.9918C18.2794 27.2318 17.4281 27.483 16.7507 27.483C15.6786 27.5278 14.033 27.1627 13.3887 26.9918Z" fill="#111111"/>
</g>
</g>
<defs>
<clipPath id="clip0_2097_12652">
<rect width="54" height="56" fill="white"/>
</clipPath>
</defs>
</svg>
