<svg width="239" height="27" viewBox="0 0 239 27" fill="none" xmlns="http://www.w3.org/2000/svg">
<path d="M0.0478516 17.9191H4.83722C4.83722 20.9635 7.54426 22.7482 16.533 22.7482C23.6824 22.7482 26.32 21.4184 26.32 18.9689C26.32 16.3444 24.6194 15.9245 15.4918 15.3646C5.25369 14.7697 1.01961 13.09 1.01961 7.70105C1.01961 2.34708 6.60721 0.597412 15.2836 0.597412C24.3418 0.597412 29.9988 3.32689 30.0335 8.89082H25.2788C25.2788 5.70643 22.2941 4.44667 14.6936 4.44667C7.57896 4.44667 5.77427 5.63644 5.77427 7.91101C5.77427 10.2905 7.57896 10.9204 15.6654 11.4803C25.14 12.1452 31.0746 12.6001 31.0746 18.7239C31.0746 25.1277 24.6194 26.5974 16.5677 26.5974C6.60721 26.5974 0.394907 24.4978 0.0478516 17.9191Z" fill="white"/>
<path d="M35.7444 1.29728H40.1867V25.8975H35.7444V1.29728Z" fill="white"/>
<path d="M44.8194 13.6149C44.8194 5.67144 50.5805 0.597412 60.4716 0.597412C69.6686 0.597412 74.5621 4.86659 75.2562 10.0806H70.4668C69.7727 6.72123 66.4063 4.58665 60.4716 4.58665C50.9276 4.58665 49.6088 10.6055 49.6088 13.6499C49.6088 16.6943 51.2399 22.7132 60.8881 22.7132C65.261 22.7132 67.6904 22.1183 70.7445 20.7885V16.7993H60.1593V13.09H75.2562V22.7132C70.0156 25.5826 66.0592 26.5974 60.8534 26.5974C50.8929 26.5974 44.8194 21.5584 44.8194 13.6149Z" fill="white"/>
<path d="M84.7549 11.6203H105.648V1.29728H110.09V25.8975H105.648V15.6095H84.7549V25.8975H80.3126V1.29728H84.7549V11.6203Z" fill="white"/>
<path d="M114.468 5.28651V1.29728H144.315V5.28651H131.612V25.8975H127.205V5.28651H114.468Z" fill="white"/>
<path d="M148.707 1.29728H174.389V5.28651H153.149V13.5449H172.307V17.5342H153.149V25.8975H148.707V1.29728Z" fill="white"/>
<path d="M209.514 1.29728V13.9298C209.514 22.4332 204.898 26.5974 194.243 26.5974C183.554 26.5974 178.973 22.4682 178.973 13.9298V1.29728H183.415V13.8599C183.415 17.7791 184.387 22.6082 194.243 22.6082C204.134 22.6082 205.106 17.7441 205.106 13.8599V1.29728H209.514Z" fill="white"/>
<path d="M214.865 1.29728H219.307V21.9083H238.048V25.8975H214.865V1.29728Z" fill="white"/>
</svg>
