<svg width="135" height="40" viewBox="0 0 135 40" fill="none" xmlns="http://www.w3.org/2000/svg">
<g clip-path="url(#clip0_2400_1427)">
<path d="M1.3735 36.7483H2.31883C2.75513 36.7483 3.15507 36.672 3.4823 36.5193C3.80953 36.3667 4.10039 36.1377 4.31855 35.8706C4.57306 35.6035 4.79121 35.2601 5.04572 34.8403C11.2994 23.7738 26.3518 18.2406 34.7143 7.17412L38.1684 7.17412C29.7332 18.3169 14.4626 23.8883 8.3907 35.0693C7.77261 36.2141 7.29995 37.1299 6.79093 37.8168C6.28191 38.5037 5.73653 39.0379 5.00936 39.3814C4.28219 39.7248 3.40958 39.8774 2.31883 39.8774C2.02796 39.8774 1.73709 39.8774 1.5553 39.8774C1.3735 39.8774 1.08263 39.8774 0.828125 39.8011C0.828125 38.58 0.973559 37.9694 1.40986 36.7483H1.3735ZM36.2777 4.73187C37.2957 2.82386 37.623 1.86985 37.623 0L41.077 0C41.077 1.90801 40.7498 2.86202 39.7318 4.73187L36.2777 4.73187Z" fill="white"/>
<path d="M20.2779 31.4828C19.0417 31.4828 18.2055 31.2157 17.7692 30.7196C17.3692 30.2235 17.4056 29.4603 17.9873 28.4682C18.5691 27.476 19.7325 26.2549 21.4777 24.7666C29.9856 17.707 36.3848 14.1962 41.6931 7.1366L45.1472 7.1366C39.9842 13.9673 33.9124 17.4017 25.5863 24.2324C24.4591 25.1482 23.6956 25.9114 23.2593 26.522C22.8594 27.1326 22.7503 27.5523 22.9321 27.8194C23.1139 28.0866 23.5865 28.2392 24.3137 28.2392C25.0409 28.2392 25.8771 28.0484 26.9315 27.6668C27.9859 27.2852 29.1858 26.6746 30.5674 25.797C31.9854 24.9574 33.4761 23.8508 35.1849 22.5152H37.2574C35.6939 23.7363 34.9304 24.3469 33.5124 25.568H32.5307C30.7855 26.7891 29.2221 27.8194 27.7314 28.6971C26.2407 29.5748 24.8955 30.2617 23.6229 30.7196C22.3504 31.1775 21.2232 31.4447 20.2052 31.4447L20.2779 31.4828ZM25.9498 31.0631C27.9496 28.7735 29.2221 27.6668 31.9127 25.3772C31.9127 25.3772 31.9127 25.339 31.9127 25.3009C40.5296 18.0504 47.256 14.4252 52.7097 7.17476L56.1638 7.17476C48.9284 16.7148 37.6937 21.4848 29.2585 31.0631L25.9135 31.0631H25.9498Z" fill="white"/>
<path d="M38.714 31.4823C37.1142 31.4823 35.9871 31.2151 35.4054 30.7191C34.8236 30.223 34.7873 29.3834 35.4417 28.2386C36.0962 27.0938 37.5141 25.5674 39.8411 23.6212H43.1861C41.6954 24.8805 40.7137 25.8727 40.2047 26.5596C39.6957 27.2465 39.5502 27.7426 39.8047 28.0478C40.0592 28.3531 40.641 28.5058 41.5863 28.5058C42.4226 28.5058 43.2224 28.3913 44.0223 28.1242C44.8222 27.857 45.5857 27.4754 46.3493 26.9793C47.1128 26.4833 47.9127 25.9109 48.7489 25.224C49.6579 24.4608 50.3487 23.812 50.7487 23.316C51.1486 22.8199 51.3304 22.362 51.2577 22.0185C51.2213 21.6751 51.0032 21.2553 50.6032 20.7974C50.3487 20.4158 50.2396 20.225 49.9851 19.8434C49.5125 19.3855 49.2943 18.8894 49.367 18.2407C49.4397 17.6301 49.8397 16.8669 50.5305 15.951C51.2577 15.0352 52.3121 14.0049 53.6573 12.7837C55.0753 11.5245 56.4206 10.4178 57.8022 9.50196C59.1475 8.58611 60.4928 7.89923 61.838 7.40315C63.1833 6.90706 64.5649 6.6781 65.9829 6.6781C67.5463 6.6781 68.6734 6.94522 69.2552 7.47947C69.8732 8.01371 69.946 8.81507 69.4369 9.88356C68.8916 10.952 67.6917 12.364 65.7284 14.043L62.4561 14.043C63.765 12.8982 64.5649 12.0205 64.9648 11.3718C65.3648 10.7231 65.4012 10.3033 65.1466 10.0362C64.8921 9.76908 64.3468 9.6546 63.5105 9.6546C62.8197 9.6546 62.0925 9.76908 61.4017 9.99804C60.6745 10.227 59.9837 10.5704 59.2929 11.0284C58.6021 11.4863 57.8749 12.0205 57.1478 12.6693C56.3479 13.3943 55.7298 14.0049 55.4026 14.5009C55.039 14.997 54.8935 15.4168 54.8935 15.7984C54.8935 16.18 55.0753 16.5234 55.3298 16.9432C55.5843 17.3248 55.6934 17.5156 55.9479 17.8972C56.4933 18.4315 56.7842 18.9657 56.7842 19.6144C56.7842 20.225 56.4206 20.9882 55.6934 21.8659C54.9662 22.7436 53.8391 23.812 52.3484 25.0713C50.6759 26.4833 49.1125 27.6281 47.5855 28.5821C46.0584 29.5361 44.6041 30.2611 43.1497 30.7572C41.6954 31.2533 40.241 31.4823 38.7503 31.4823H38.714Z" fill="white"/>
<path d="M71.0363 10.3416C72.2725 9.08233 72.8543 8.4336 73.7996 7.17432L83.4346 7.17432C82.4893 8.4336 81.9075 9.08233 80.6713 10.3416L71.0363 10.3416ZM54.3478 31.1389C53.257 31.1389 52.4935 30.9863 52.0572 30.681C51.6209 30.3757 51.5845 29.8797 51.9481 29.1546C52.3117 28.4296 53.1843 27.4374 54.6386 26.1781C61.4377 20.3014 66.4188 17.3249 72.5997 11.4483C73.7632 10.3416 74.3086 9.76921 75.2903 8.66257C76.2356 7.59408 76.6719 7.05984 77.3627 5.95319C78.8898 3.62541 79.3624 2.48061 79.4352 0.152832L82.8892 0.152832C82.8529 2.48061 82.3438 3.62541 80.8168 5.95319C80.126 7.02168 79.6897 7.55592 78.7443 8.66257C77.7627 9.76921 77.2173 10.3416 76.0538 11.4483C70.0547 17.1723 65.2553 20.0343 58.5654 25.7965C57.9473 26.3308 57.511 26.7505 57.2928 27.094C57.0746 27.3992 57.0383 27.6282 57.1837 27.7808C57.3292 27.9335 57.6564 27.9716 58.1654 27.9716H59.6197C58.2745 29.1928 57.6564 29.8415 56.5656 31.0626C56.5293 31.0626 56.4929 31.0626 56.4566 31.0626C56.4202 31.0626 56.3838 31.0626 56.3475 31.0626C55.9839 31.0626 55.6567 31.1008 55.2931 31.1389C54.9295 31.1389 54.6386 31.1389 54.3478 31.1389Z" fill="white"/>
<path d="M59.0732 31.0623C67.5084 21.5223 78.7432 16.7522 85.9786 7.17403H89.2872C87.3238 9.73077 85.9786 11.0282 82.9972 13.6231C82.9972 13.6231 82.9972 13.6613 83.0335 13.6994C74.9983 20.6446 68.6719 24.1172 62.5273 31.0623H59.0732ZM80.2339 15.1877C82.1609 13.6613 84.0152 12.2493 85.7604 11.0282C87.5056 9.76893 89.069 8.77676 90.5961 8.05171C92.0868 7.32667 93.4684 6.94507 94.7773 6.94507C94.9228 6.94507 95.0318 6.94507 95.1773 6.94507C95.3227 6.94507 95.4318 6.94507 95.5772 6.94507C94.5228 8.357 93.9047 9.08204 92.4867 10.494C92.3413 10.494 92.1959 10.494 92.0504 10.494H91.6869C90.5961 10.494 89.469 10.7229 88.2328 11.1427C87.033 11.5625 85.7241 12.2493 84.197 13.2415C82.6699 14.1955 80.9611 15.4548 78.9977 17.0194C78.4523 17.0957 78.1978 17.172 77.6525 17.2483C78.7069 16.4088 79.2522 15.989 80.2703 15.1495L80.2339 15.1877Z" fill="white"/>
<path d="M99.5039 4.73187C100.522 2.82386 100.849 1.86985 100.849 0L104.303 0C104.303 1.90801 103.976 2.86202 102.958 4.73187L99.5039 4.73187ZM71.0352 31.0243C79.4703 21.4842 90.7051 16.7142 97.9405 7.13597H101.395C94.1592 16.676 82.9244 21.4461 74.4892 31.0243H71.0352Z" fill="white"/>
<path d="M73.835 39.8017C73.944 26.7509 95.1047 20.2255 104.994 7.17472H108.339C106.376 9.80778 104.958 11.1052 101.94 13.7383H101.758C96.7408 18.0504 93.5049 20.2255 88.2693 24.5376H88.5602C81.143 30.6433 77.3617 33.6961 77.3254 39.8017H73.8713H73.835ZM86.2332 31.4828C84.8516 31.4828 84.0154 31.1012 83.7608 30.338C83.5063 29.5748 83.9063 28.43 85.1061 26.8654C86.3059 25.339 88.3784 23.3928 91.2507 21.1032C93.3231 19.5005 94.3775 18.6991 96.3773 17.0582C99.3587 14.7686 101.867 12.8224 104.013 11.296C106.158 9.76962 107.903 8.62481 109.466 7.8616C111.066 7.0984 112.484 6.7168 113.829 6.7168C115.32 6.7168 116.302 7.13656 116.665 7.97608C117.029 8.81561 116.665 10.1512 115.247 11.9829C113.866 13.8146 111.248 16.1805 107.539 19.0807C103.794 22.0191 100.486 24.385 97.8316 26.2167C95.1411 28.0484 92.9959 29.384 91.1416 30.2235C89.2873 31.063 87.6512 31.4828 86.1605 31.4828H86.2332ZM88.5238 28.3155C89.4328 28.3155 90.5599 28.0102 91.8688 27.3996C93.1777 26.7891 94.7775 25.7969 96.7772 24.4231C98.7769 23.0494 101.286 21.2558 104.194 18.9662C107.103 16.7148 109.139 14.9212 110.339 13.5856C111.539 12.25 112.011 11.296 111.975 10.7236C111.902 10.1512 111.393 9.8841 110.448 9.8841C109.503 9.8841 108.448 10.1894 107.212 10.7999C105.94 11.4105 104.412 12.4027 102.522 13.7383C100.595 15.112 98.2315 16.8674 95.3956 19.0807C92.5596 21.294 90.4872 23.0494 89.1783 24.4231C87.8694 25.7588 87.2513 26.7509 87.2149 27.3615C87.2149 27.972 87.6512 28.2773 88.5965 28.2773L88.5238 28.3155Z" fill="white"/>
<path d="M103.358 31.4828C101.686 31.4828 100.631 31.063 100.231 30.2235C99.8676 29.384 100.268 28.0484 101.758 26.2167C103.249 24.385 105.94 22.019 109.684 19.0807C113.393 16.1805 116.593 13.8146 119.174 11.9829C121.755 10.1512 123.828 8.81561 125.682 7.97608C127.536 7.13656 129.245 6.7168 130.918 6.7168C132.59 6.7168 133.754 7.17472 134.19 8.0524C134.59 8.93009 134.263 10.3039 132.881 12.0974C131.5 13.8909 129.027 16.1805 125.464 18.9662C125.21 19.157 124.991 19.3478 124.737 19.5386C124.482 19.7294 124.264 19.9202 124.01 20.111L110.084 20.111C111.611 18.9281 112.375 18.3175 113.866 17.1345L125.9 17.1345C124.773 17.5161 124.228 17.7069 123.101 18.1267C125.573 16.1424 127.355 14.5778 128.409 13.3567C129.463 12.1355 129.936 11.2579 129.863 10.6855C129.791 10.1131 129.282 9.84594 128.336 9.84594C127.391 9.84594 126.373 10.1131 125.21 10.6473C124.01 11.1815 122.592 12.0974 120.774 13.3948C118.956 14.6923 116.665 16.4095 113.866 18.5846C113.429 18.9281 113.211 19.1189 112.739 19.4623C109.794 21.7519 107.685 23.5455 106.485 24.8429C105.249 26.1404 104.74 27.0562 104.776 27.6286C104.849 28.1628 105.358 28.43 106.339 28.43C107.067 28.43 107.903 28.2773 108.775 27.9339C109.684 27.5904 110.702 27.0562 111.939 26.2548C113.175 25.4916 114.666 24.4231 116.483 23.1257C117.829 23.1257 118.52 23.1257 119.865 23.1257C117.211 25.0719 114.956 26.6364 112.993 27.8576C111.03 29.0787 109.357 29.9945 107.794 30.6051C106.23 31.2157 104.776 31.4828 103.322 31.4828H103.358Z" fill="white"/>
</g>
<defs>
<clipPath id="clip0_2400_1427">
<rect width="133.543" height="39.8774" fill="white" transform="translate(0.790039)"/>
</clipPath>
</defs>
</svg>
