<svg width="133" height="28" viewBox="0 0 133 28" fill="none" xmlns="http://www.w3.org/2000/svg">
<path d="M16.9177 12.9594L14.2681 1.76543C13.9308 0.348878 12.2527 0.552405 11.8111 1.02459C9.03296 3.95538 1.373 11.3475 1.373 11.3475C0.786858 11.9255 0.586125 13.5374 0.923356 14.954L3.58106 26.1398C3.91829 27.5564 5.47597 27.4424 5.92561 27.0028C7.70009 25.2525 16.4681 16.5741 16.4681 16.5741C17.0542 15.996 17.255 14.376 16.9177 12.9594Z" fill="white"/>
<path d="M36.6607 12.9594L34.011 1.76543C33.6738 0.348878 31.9957 0.552405 31.554 1.02459C28.7839 3.95538 21.124 11.3393 21.124 11.3393C20.5378 11.9174 20.3371 13.5293 20.6743 14.9458L23.332 26.1317C23.6693 27.5482 25.2269 27.4343 25.6766 26.9947C27.4511 25.2443 36.2191 16.5659 36.2191 16.5659C36.8052 15.996 36.9979 14.376 36.6607 12.9594Z" fill="white"/>
<path d="M26.7996 12.9594L24.1419 1.76543C23.8046 0.348878 22.1265 0.552405 21.6849 1.02459C18.9148 3.95538 11.2548 11.3393 11.2548 11.3393C10.6687 11.9174 10.468 13.5293 10.8052 14.9458L13.4629 26.1317C13.8001 27.5482 15.3578 27.4343 15.8074 26.9947C17.5819 25.2443 26.3499 16.5659 26.3499 16.5659C26.9361 15.996 27.1368 14.376 26.7996 12.9594Z" fill="white"/>
<path d="M44.3223 2.00366V25.9715H49.2172V9.91278L55.4517 25.9715H59.6252L65.8598 9.91278V25.9715H70.7547V2.00366H64.1509L57.7188 19.5995L51.0721 2.00366H44.3223Z" fill="white"/>
<path d="M73.8174 2.00366V25.9715H90.2797V21.5575H78.9441V16.0099H87.8408V11.802H78.9527V6.42624H89.9104V2.00366H73.8174Z" fill="white"/>
<path d="M91.3955 18.0932C91.4642 22.7476 95.5003 26.174 101.323 26.174C106.698 26.174 110.632 22.9881 110.666 18.6084C110.7 13.7822 107.068 12.5456 102.963 11.7985C98.9955 11.0428 97.1062 10.6306 97.1062 8.68123C97.1062 6.83491 98.6777 5.90745 100.868 5.90745C103.367 5.90745 104.938 7.30722 105.144 9.33388H110.176C110.073 4.98859 106.209 1.80261 100.868 1.80261C95.6635 1.80261 91.9365 4.85119 91.9365 9.05908C91.9365 13.9196 95.5003 15.2249 99.5365 15.972C103.538 16.7621 105.496 17.1743 105.496 19.1924C105.496 21.073 103.753 22.1035 101.391 22.1035C98.4459 22.1035 96.5996 20.4977 96.4278 18.1704L91.3955 18.0932Z" fill="white"/>
<path d="M112.726 2.00366V25.9715H117.861V16.0786H127.376V25.9715H132.511V2.00366H127.376V11.6217H117.861V2.00366H112.726Z" fill="white"/>
</svg>
