<svg width="181" height="39" viewBox="0 0 181 39" fill="none" xmlns="http://www.w3.org/2000/svg">
<g clip-path="url(#clip0_2400_1303)">
<path d="M15.1417 19.1946C15.0878 17.1868 15.5787 15.2019 16.5619 13.4521C17.5034 11.8083 18.8954 10.47 20.5726 9.59598C22.3864 8.65252 24.4063 8.17806 26.4491 8.21562C28.4923 8.17429 30.5131 8.64896 32.3256 9.59598C34.011 10.4584 35.4059 11.7995 36.3363 13.4521C37.3174 15.2028 37.8081 17.187 37.7564 19.1946C37.814 21.1983 37.3318 23.1804 36.3608 24.9322C35.4202 26.5756 34.0278 27.9126 32.3501 28.7835C30.5277 29.6995 28.5116 30.1596 26.4736 30.1245C24.4191 30.1522 22.3871 29.6927 20.5432 28.7835C18.8884 27.9144 17.5131 26.5927 16.5765 24.9715C15.594 23.2084 15.0987 21.2141 15.1417 19.1946ZM26.4589 24.7259C27.2644 24.736 28.0583 24.5326 28.7605 24.1364C29.4608 23.7072 30.0024 23.0604 30.3031 22.2943C30.719 21.3294 30.9196 20.2848 30.8907 19.2339C30.9104 18.1609 30.7259 17.0938 30.3472 16.0901C30.0059 15.3387 29.4591 14.6999 28.7703 14.2479C28.0748 13.8357 27.2759 13.6328 26.4687 13.6634C25.6506 13.6328 24.8406 13.8355 24.1328 14.2479C23.4374 14.687 22.8937 15.3302 22.5755 16.0901C22.1974 17.0923 22.0129 18.1576 22.0319 19.229C22.0122 20.275 22.1968 21.3147 22.5755 22.2894C22.8889 23.0493 23.4296 23.6929 24.123 24.1315C24.8371 24.5295 25.642 24.7343 26.4589 24.7259Z" fill="white"/>
<path d="M54.7246 8.67738V11.777C54.192 10.911 53.4968 10.1569 52.6776 9.55668C51.3113 8.59517 49.6687 8.10865 48.0009 8.17141C46.3298 8.14067 44.687 8.60733 43.2801 9.51247C41.9004 10.43 40.8125 11.7259 40.146 13.2458C39.3919 15.0194 39.0197 16.9328 39.0539 18.8606C39.0208 20.8001 39.3894 22.7254 40.1362 24.5147C40.8151 26.0255 41.9005 27.3167 43.2703 28.2431C44.68 29.138 46.3235 29.5912 47.9911 29.5449C49.6733 29.6127 51.3313 29.1261 52.7119 28.1596C53.4284 27.6268 54.0494 26.9756 54.5483 26.234V29.5007C54.5667 30.2929 54.4112 31.0794 54.0929 31.8046C53.8092 32.3856 53.3429 32.8568 52.7658 33.1456C52.0489 33.4895 51.2577 33.6482 50.4641 33.6074C49.7991 33.6308 49.1353 33.5326 48.5053 33.3176C47.9873 33.1249 47.5376 32.7831 47.2125 32.3351C46.8775 31.8676 46.676 31.3173 46.6297 30.7435H39.6612C39.7794 32.2946 40.344 33.778 41.2862 35.0136C42.2285 36.2492 43.5081 37.1839 44.9696 37.7043C46.7395 38.3296 48.6078 38.6275 50.4837 38.5836C52.5458 38.6432 54.5965 38.2579 56.4973 37.4537C58.0458 36.7806 59.3455 35.6384 60.2142 34.187C61.1122 32.6223 61.5613 30.8389 61.5119 29.034V8.67738H54.7246ZM54.1859 21.9406C53.9013 22.7291 53.3728 23.4056 52.6776 23.8712C51.9815 24.3374 51.1528 24.5633 50.3172 24.5147C49.487 24.5648 48.663 24.3427 47.9696 23.8819C47.2761 23.4211 46.7509 22.7467 46.473 21.9603C46.1187 20.9667 45.9526 19.9154 45.9833 18.8606C45.9591 17.8191 46.1251 16.7819 46.473 15.8002C46.7547 15.0131 47.2795 14.3367 47.9708 13.8694C48.6622 13.402 49.4842 13.1681 50.3172 13.2016C51.147 13.168 51.9657 13.4022 52.6531 13.8697C53.3447 14.3197 53.8736 14.9811 54.1614 15.756C54.5127 16.7368 54.6788 17.7746 54.6511 18.8164C54.6823 19.8712 54.5162 20.9226 54.1614 21.9161L54.1859 21.9406Z" fill="white"/>
<path d="M68.1136 28.8335C66.4595 28.0117 65.102 26.6929 64.2302 25.0608C63.2798 23.2696 62.8042 21.2634 62.8493 19.2348C62.7994 17.2198 63.2754 15.2266 64.2302 13.453C65.0941 11.7979 66.4333 10.4408 68.0744 9.55756C69.895 8.63655 71.9124 8.17615 73.951 8.21649C75.9506 8.16957 77.9313 8.61484 79.7197 9.51334C81.3374 10.3906 82.67 11.7154 83.559 13.3302C84.4822 15.088 84.9455 17.052 84.9057 19.0383V19.9569C84.8666 20.2517 84.8666 20.6299 84.8225 21.0082H69.3673C69.4098 21.7883 69.594 22.5541 69.9109 23.2678C70.2752 23.9673 70.8443 24.5381 71.5416 24.9036C72.3486 25.2902 73.2389 25.4692 74.1321 25.4243C74.7536 25.438 75.3733 25.3534 75.9686 25.1738C76.475 25.0056 76.9336 24.7175 77.3055 24.3338C77.6904 23.9803 77.9787 23.5339 78.1429 23.0369H84.5091C84.1559 24.4504 83.469 25.7578 82.5062 26.8489C81.5073 27.9224 80.2782 28.7539 78.9117 29.2805C77.3425 29.8512 75.6837 30.1341 74.0146 30.1156C71.9727 30.1782 69.9467 29.738 68.1136 28.8335ZM78.231 17.0734C78.1908 16.4489 78.0347 15.8375 77.7707 15.2706C77.4493 14.5707 76.9277 13.9825 76.2722 13.5807C75.5148 13.2152 74.684 13.0287 73.8436 13.0356C73.0031 13.0424 72.1754 13.2423 71.4241 13.62C70.7289 14.051 70.1952 14.7004 69.906 15.4671C69.692 15.9749 69.5518 16.5109 69.4897 17.0587L78.231 17.0734Z" fill="white"/>
<path d="M127.598 28.8335C125.944 28.0117 124.586 26.6929 123.715 25.0608C122.764 23.2696 122.289 21.2634 122.334 19.2348C122.284 17.2198 122.76 15.2266 123.715 13.453C124.578 11.7979 125.918 10.4408 127.559 9.55756C129.379 8.63655 131.397 8.17615 133.435 8.21649C135.435 8.16957 137.416 8.61484 139.204 9.51334C140.822 10.3906 142.154 11.7154 143.043 13.3302C143.967 15.088 144.43 17.052 144.39 19.0383V19.9569C144.351 20.2517 144.351 20.6299 144.307 21.0082H128.852C128.894 21.7883 129.078 22.5541 129.395 23.2678C129.76 23.9673 130.329 24.5381 131.026 24.9036C131.833 25.2902 132.723 25.4692 133.617 25.4243C134.238 25.438 134.858 25.3534 135.453 25.1738C135.959 25.0056 136.418 24.7175 136.79 24.3338C137.175 23.9813 137.462 23.5344 137.622 23.0369H143.989C143.635 24.4504 142.948 25.7578 141.986 26.8489C140.987 27.9224 139.758 28.7539 138.391 29.2805C136.822 29.8508 135.163 30.1336 133.494 30.1156C131.454 30.1774 129.43 29.7373 127.598 28.8335ZM137.71 17.0439C137.67 16.4195 137.514 15.8081 137.25 15.2411C136.923 14.5475 136.4 13.9651 135.747 13.566C134.989 13.2005 134.159 13.014 133.318 13.0208C132.478 13.0276 131.65 13.2276 130.899 13.6053C130.209 14.0387 129.681 14.6878 129.395 15.4523C129.181 15.9602 129.041 16.4962 128.979 17.0439H137.71Z" fill="white"/>
<path d="M145.854 8.67688H152.539V12.5281L152.666 12.1941C153.753 9.30566 155.923 8.67688 158.641 8.67688H166.202V12.5281L166.324 12.1941C167.411 9.30566 169.586 8.67688 172.299 8.67688H173.552V14.6699H171.006C167.411 14.6699 166.368 17.2636 166.368 20.4075V29.6279H159.522V14.6699H157.348C153.758 14.6699 152.71 17.2636 152.71 20.4075V29.6279H145.854V8.67688Z" fill="white"/>
<path d="M180.747 22.7959V29.6289H173.186V22.7959H180.747Z" fill="white"/>
<path d="M94.7682 13.6006H98.8475V8.60966H94.7682V2.15979H88.1767V8.60966H84.8369V13.6006H88.1767V23.9852C88.1242 25.1606 88.3989 26.3274 88.97 27.3551C89.5435 28.2475 90.4095 28.9112 91.4186 29.2316C92.8127 29.6751 94.2708 29.8826 95.7329 29.8456C96.1884 29.8456 96.6536 29.8456 97.1286 29.8112C97.6036 29.7768 98.0737 29.7621 98.539 29.7228C98.5878 29.718 98.637 29.718 98.6859 29.7228H98.8377V24.7024H97.1678C96.6997 24.7165 96.2318 24.6669 95.777 24.555C95.4665 24.4742 95.1974 24.2797 95.0228 24.0098C94.8317 23.6566 94.7434 23.2565 94.7682 22.8554V13.6006Z" fill="white"/>
<path d="M10.2399 13.6006H14.3191V8.60966H10.2399V2.15979H3.64839V8.60966H0.313477V13.6006H3.64839V23.9852C3.59584 25.1606 3.87054 26.3274 4.44172 27.3551C5.01575 28.2469 5.88152 28.9104 6.89026 29.2316C8.28419 29.6761 9.74241 29.8836 11.2046 29.8456C11.66 29.8456 12.1252 29.8456 12.6003 29.8112C13.0753 29.7768 13.5454 29.7621 14.0155 29.7228C14.0644 29.7177 14.1136 29.7177 14.1624 29.7228H14.3093V24.7024H12.6394C12.173 24.7165 11.7067 24.667 11.2536 24.555C10.9417 24.4745 10.671 24.28 10.4945 24.0098C10.3033 23.6566 10.2151 23.2565 10.2399 22.8554V13.6006Z" fill="white"/>
<path d="M120.023 11.6682C119.502 10.5338 118.629 9.59838 117.536 9.00086C116.479 8.49436 115.334 8.20276 114.164 8.1429C112.995 8.08304 111.826 8.2561 110.724 8.65209C109.845 8.98948 109.043 9.50256 108.368 10.1602C107.923 10.5996 107.536 11.0949 107.217 11.6339V0.605713H100.626V29.667H107.217V17.9364C107.191 17.122 107.38 16.3152 107.766 15.5981C108.097 15.0031 108.594 14.5182 109.196 14.203C109.765 13.9011 110.398 13.7395 111.042 13.7314C111.665 13.7078 112.283 13.843 112.839 14.1244C113.317 14.385 113.698 14.7933 113.926 15.2886C114.192 15.8825 114.319 16.5293 114.299 17.1799V29.667H120.88V16.1679C120.934 14.6226 120.642 13.0848 120.023 11.6682Z" fill="white"/>
</g>
<defs>
<clipPath id="clip0_2400_1303">
<rect width="180.438" height="37.9869" fill="white" transform="translate(0.313477 0.60498)"/>
</clipPath>
</defs>
</svg>
