<svg width="73" height="40" viewBox="0 0 73 40" fill="none" xmlns="http://www.w3.org/2000/svg">
<g clip-path="url(#clip0_2097_12276)">
<path d="M0.0996094 21.2151L13.6282 6.31658H0.507398V0.654297H21.8126V6.11563L8.28399 21.007H22.2203V26.6692H0.0996094V21.2151Z" fill="#111111"/>
<path d="M25.4199 0.654297H32.0805V26.6692H25.4199V0.654297Z" fill="#111111"/>
<path d="M65.9648 0.654297H72.6255V26.6692H65.9648V0.654297Z" fill="#111111"/>
<path fill-rule="evenodd" clip-rule="evenodd" d="M49.025 39.5891C42.7775 39.5891 37.0915 37.0844 33.3008 33.0102L38.1782 28.4722C40.6474 31.1261 44.536 32.9271 49.025 32.9271C53.514 32.9271 57.4026 31.1261 59.8718 28.4722L64.7492 33.0102C60.9585 37.0844 55.2725 39.5891 49.025 39.5891Z" fill="#111111"/>
<path fill-rule="evenodd" clip-rule="evenodd" d="M56.3203 0.680119V3.43338C55.4062 2.13395 52.5293 0.181641 48.6598 0.181641C41.3196 0.181641 35.7402 6.14533 35.7402 13.5084C35.7402 20.8716 41.6853 26.8352 49.0255 26.8352C56.3657 26.8352 62.3108 20.8716 62.3108 13.5084C62.3108 9.33649 62.3104 4.85209 62.3114 0.680119H56.3203ZM49.0255 6.64051C52.8029 6.64051 55.872 9.71924 55.872 13.5084C55.872 17.2976 52.8029 20.3764 49.0255 20.3764C45.2481 20.3764 42.1789 17.2976 42.1789 13.5084C42.1789 9.71924 45.2481 6.64051 49.0255 6.64051Z" fill="#111111"/>
</g>
<defs>
<clipPath id="clip0_2097_12276">
<rect width="73" height="40" fill="white"/>
</clipPath>
</defs>
</svg>
