<svg width="161" height="31" viewBox="0 0 161 31" fill="none" xmlns="http://www.w3.org/2000/svg">
<g clip-path="url(#clip0_2400_1370)">
<path d="M40.6963 26.4402V2.98975H50.0239C52.436 2.98975 54.2948 3.66757 55.6005 5.02321C56.7069 6.18206 57.2602 7.69076 57.2602 9.5493C57.2602 11.7358 56.6184 13.3976 55.3349 14.5346C54.0735 15.6716 52.2036 16.24 49.7251 16.24H42.9203V26.4402H40.6963ZM42.9203 14.3706H49.5591C53.1884 14.3706 55.003 12.7853 55.003 9.6149C55.003 8.1062 54.5493 6.94734 53.642 6.13833C52.7568 5.32932 51.4623 4.92482 49.7583 4.92482H42.9203V14.3706Z" fill="white"/>
<path d="M65.9752 25.161C67.8119 25.161 69.2393 24.4832 70.2572 23.1276C71.2752 21.7719 71.7842 20.0555 71.7842 17.9783C71.7842 15.9011 71.2752 14.1847 70.2572 12.8291C69.2393 11.4734 67.8119 10.7956 65.9752 10.7956C64.1163 10.7956 62.6779 11.4734 61.66 12.8291C60.642 14.1847 60.133 15.9011 60.133 17.9783C60.133 20.0555 60.642 21.7719 61.66 23.1276C62.6779 24.4832 64.1163 25.161 65.9752 25.161ZM65.9752 26.8665C63.541 26.8665 61.6046 26.0357 60.1662 24.3739C58.7278 22.6903 58.0086 20.5584 58.0086 17.9783C58.0086 15.3982 58.7278 13.2773 60.1662 11.6156C61.6046 9.93194 63.541 9.09013 65.9752 9.09013C68.3873 9.09013 70.3015 9.93194 71.7178 11.6156C73.1562 13.2773 73.8754 15.3982 73.8754 17.9783C73.8754 20.5584 73.1562 22.6903 71.7178 24.3739C70.3015 26.0357 68.3873 26.8665 65.9752 26.8665Z" fill="white"/>
<path d="M76.5408 26.4402V9.48371H78.5988V26.4402H76.5408ZM76.5408 5.87595V2.98975H78.5988V5.87595H76.5408Z" fill="white"/>
<path d="M82.0824 26.4402V9.48371H84.1404V12.0747H84.2068C85.5567 10.1069 87.4709 9.12293 89.9494 9.12293C91.587 9.12293 92.9037 9.59303 93.8995 10.5332C94.9175 11.4516 95.4265 12.7416 95.4265 14.4034V26.4402H93.3684V14.6002C93.3684 12.1075 92.0628 10.8612 89.4515 10.8612C87.9688 10.8612 86.7075 11.3204 85.6674 12.2387C84.6494 13.1571 84.1404 14.305 84.1404 15.6825V26.4402H82.0824Z" fill="white"/>
<path d="M103.134 26.5713C100.943 26.5713 99.8475 25.5546 99.8475 23.5212V11.1564H97.2584V9.48371H99.8475V4.26886H101.906V9.48371H105.092V11.1564H101.906V23.1932C101.906 23.7835 102.038 24.199 102.304 24.4395C102.569 24.68 102.99 24.8003 103.565 24.8003C104.074 24.8003 104.528 24.7128 104.926 24.5379H105.026V26.2762C104.473 26.473 103.842 26.5713 103.134 26.5713Z" fill="white"/>
<path d="M108.187 26.4402V2.98975H123.655V4.92482H110.411V13.2555H121.697V15.1577H110.411V26.4402H108.187Z" fill="white"/>
<path d="M126.3 26.4402V9.48371H128.358V26.4402H126.3ZM126.3 5.87595V2.98975H128.358V5.87595H126.3Z" fill="white"/>
<path d="M136.389 26.4402L130.314 9.48371H132.505L136.19 20.2414L137.584 24.5379H137.65C138.226 22.7668 138.701 21.3346 139.078 20.2414L142.928 9.48371H145.019L138.812 26.4402H136.389Z" fill="white"/>
<path d="M153.597 26.8665C151.096 26.8665 149.138 26.0466 147.722 24.4067C146.305 22.7449 145.597 20.6022 145.597 17.9783C145.597 15.3982 146.316 13.2773 147.755 11.6156C149.193 9.93194 151.085 9.09013 153.431 9.09013C154.759 9.09013 155.909 9.34158 156.883 9.84448C157.879 10.3474 158.653 11.0471 159.207 11.9435C159.76 12.84 160.158 13.8239 160.402 14.8953C160.667 15.9449 160.8 17.0928 160.8 18.3391H147.722C147.766 20.3507 148.286 21.9906 149.282 23.2588C150.277 24.5051 151.716 25.1282 153.597 25.1282C156.208 25.1282 157.879 23.8601 158.609 21.3237H160.601C160.225 23.0292 159.428 24.3848 158.211 25.3906C157.016 26.3746 155.478 26.8665 153.597 26.8665ZM147.755 16.732H158.642C158.598 14.9609 158.133 13.5288 157.248 12.4355C156.385 11.3204 155.113 10.7628 153.431 10.7628C151.771 10.7628 150.455 11.3094 149.481 12.4027C148.529 13.496 147.954 14.9391 147.755 16.732Z" fill="white"/>
<g clip-path="url(#clip1_2400_1370)">
<path fill-rule="evenodd" clip-rule="evenodd" d="M31.5043 3.55055C31.5043 1.58964 29.8954 0 27.9108 0H4.26875C2.28414 0 0.675289 1.58964 0.675289 3.55055C0.675289 5.51147 2.28414 7.1011 4.26875 7.1011H27.9108C29.8954 7.1011 31.5043 5.51147 31.5043 3.55055ZM31.5043 21.1756C31.5043 15.985 27.2455 11.7771 21.9921 11.7771H4.26875C2.28414 11.7771 0.675289 13.3667 0.675289 15.3276C0.675289 17.2885 2.28414 18.8782 4.26875 18.8782H21.9921C23.2763 18.8782 24.3173 19.9068 24.3173 21.1756C24.3173 22.4445 23.2763 23.4731 21.9921 23.4731H15.5153C13.5307 23.4731 11.9219 25.0627 11.9219 27.0236C11.9219 28.9846 13.5307 30.5742 15.5153 30.5742H21.9921C27.2455 30.5742 31.5043 26.3663 31.5043 21.1756ZM7.94336 27.0236C7.94336 25.0627 6.33451 23.4731 4.3499 23.4731H4.15401C2.16939 23.4731 0.560547 25.0627 0.560547 27.0236C0.560547 28.9846 2.16939 30.5742 4.15401 30.5742H4.3499C6.33451 30.5742 7.94336 28.9846 7.94336 27.0236Z" fill="white"/>
</g>
</g>
<defs>
<clipPath id="clip0_2400_1370">
<rect width="160.345" height="30.5742" fill="white" transform="translate(0.560547)"/>
</clipPath>
<clipPath id="clip1_2400_1370">
<rect width="30.9437" height="30.5742" fill="white" transform="translate(0.560547)"/>
</clipPath>
</defs>
</svg>
