<svg width="102" height="33" viewBox="0 0 102 33" fill="none" xmlns="http://www.w3.org/2000/svg">
<g clip-path="url(#clip0_2097_12327)">
<path d="M28.6047 16.7827C28.8215 17.4331 28.9549 18.0946 29.0049 18.77C29.0772 19.4455 29.1133 20.2209 29.1133 21.0965V31.7531H23.5904V21.6607C23.5904 20.6101 23.4932 19.8346 23.2986 19.3343C23.104 18.8089 22.7649 18.3976 22.2813 18.0974C21.8199 17.7972 21.2529 17.6471 20.5747 17.6471C19.4851 17.6471 18.5651 18.0223 17.8146 18.7728C17.0641 19.4983 16.6889 20.4238 16.6889 21.5495V31.7559H11.166V13.1804H16.6889V18.9201C17.1003 17.094 17.9008 15.6181 19.0876 14.4924C20.2745 13.3667 21.7031 12.8052 23.3736 12.8052C24.705 12.8052 25.8085 13.1693 26.6785 13.892C27.5763 14.6202 28.2155 15.5819 28.6047 16.7827Z" fill="#111111"/>
<path d="M41.0568 32.1314C39.1667 32.1314 37.449 31.7311 35.898 30.9306C34.3721 30.1051 33.1741 28.9683 32.3013 27.5174C31.4286 26.0415 30.9922 24.3654 30.9922 22.4893C30.9922 20.5881 31.4286 18.912 32.3013 17.4611C33.1741 15.9852 34.3721 14.8484 35.898 14.0479C37.449 13.2224 39.1667 12.811 41.0568 12.811C42.9469 12.811 44.6535 13.2224 46.1794 14.0479C47.7304 14.8484 48.9395 15.9852 49.8123 17.4611C50.685 18.912 51.1186 20.5881 51.1186 22.4893C51.1186 24.3654 50.6822 26.0415 49.8123 27.5174C48.9395 28.9683 47.7304 30.1051 46.1794 30.9306C44.6535 31.7311 42.9469 32.1314 41.0568 32.1314ZM41.0568 26.8781C42.2909 26.8781 43.2971 26.4779 44.0726 25.6774C44.8481 24.8518 45.2344 23.7762 45.2344 22.4503C45.2344 21.1245 44.8342 20.0627 44.0364 19.2622C43.261 18.4617 42.2687 18.0615 41.0568 18.0615C39.8227 18.0615 38.8054 18.4617 38.0049 19.2622C37.2294 20.0627 36.8431 21.1245 36.8431 22.4503C36.8431 23.7762 37.2294 24.8518 38.0049 25.6774C38.8054 26.4779 39.8227 26.8781 41.0568 26.8781Z" fill="#111111"/>
<path d="M58.5181 18.433V23.4223C58.5181 24.3979 58.76 25.1595 59.2436 25.7098C59.7272 26.2351 60.4916 26.4964 61.5339 26.4964H64.2578V31.7497H60.5889C59.1852 31.7497 57.9011 31.4745 56.7392 30.9242C55.5996 30.3488 54.6935 29.5372 54.0153 28.4865C53.3371 27.4109 52.998 26.1601 52.998 24.7342V6.76465H58.5209V13.1798H64.2606V18.433H58.5181Z" fill="#111111"/>
<path d="M75.351 32.1321C73.5109 32.1321 71.8404 31.7458 70.3367 30.9703C68.8358 30.1948 67.6489 29.083 66.7762 27.6321C65.9284 26.1562 65.5059 24.444 65.5059 22.4928C65.5059 20.5166 65.9423 18.8044 66.8151 17.3535C67.6879 15.8776 68.8747 14.7519 70.3756 13.9764C71.9016 13.2009 73.5971 12.8145 75.4621 12.8145C77.4717 12.8145 79.4452 13.2009 81.3853 13.9764V19.3797C79.4952 18.5042 77.6663 18.0678 75.8985 18.0678C74.5671 18.0678 73.4776 18.4569 72.6298 19.2296C71.7821 19.9801 71.3596 21.0558 71.3596 22.4567C71.3596 23.8575 71.7821 24.9443 72.6298 25.7198C73.4776 26.4953 74.5671 26.8816 75.8985 26.8816C77.8831 26.8816 79.7259 26.4063 81.4214 25.4558V30.8591C79.4563 31.7069 77.4328 32.1321 75.351 32.1321Z" fill="#111111"/>
<path d="M101.296 16.782C101.513 17.4324 101.646 18.0939 101.696 18.7693C101.769 19.4448 101.805 20.2202 101.805 21.0958V31.7524H96.2818V21.66C96.2818 20.6094 96.1846 19.8339 95.99 19.3336C95.7954 18.8083 95.4563 18.3969 94.9727 18.0967C94.5113 17.7965 93.9443 17.6464 93.2661 17.6464C92.1765 17.6464 91.2565 18.0217 90.506 18.7721C89.7555 19.4976 89.3803 20.4231 89.3803 21.5489V31.7552H83.8574V5.03857H89.3803V18.9222C89.7917 17.0961 90.5922 15.6202 91.779 14.4945C92.9659 13.3687 94.3945 12.8073 96.065 12.8073C97.3964 12.8073 98.4999 13.1714 99.3699 13.8941C100.265 14.6195 100.907 15.5812 101.296 16.782Z" fill="#111111"/>
<path d="M6.04467 1.28883C6.12485 0.75789 6.89021 0.75789 6.97039 1.28883L7.13902 2.4054C7.51467 4.89274 9.32976 6.92043 11.7605 7.56814L12.3999 7.73853C12.8633 7.86202 12.8633 8.51969 12.3999 8.64318L11.7605 8.81356C9.32976 9.46128 7.51467 11.489 7.13902 13.9763L6.97039 15.0929C6.89021 15.6238 6.12485 15.6238 6.04467 15.0929L5.87604 13.9763C5.5004 11.489 3.6853 9.46128 1.25457 8.81357L0.615158 8.64318C0.151718 8.51969 0.151718 7.86202 0.615158 7.73853L1.25457 7.56814C3.6853 6.92043 5.5004 4.89275 5.87604 2.4054L6.04467 1.28883Z" fill="#111111"/>
</g>
<defs>
<clipPath id="clip0_2097_12327">
<rect width="102" height="33" fill="white"/>
</clipPath>
</defs>
</svg>
