<svg width="107" height="45" viewBox="0 0 107 45" fill="none" xmlns="http://www.w3.org/2000/svg">
<g clip-path="url(#clip0_2097_12346)">
<mask id="mask0_2097_12346" style="mask-type:luminance" maskUnits="userSpaceOnUse" x="0" y="0" width="107" height="45">
<path d="M106.051 0.928711H0.0507812V44.9287H106.051V0.928711Z" fill="white"/>
</mask>
<g mask="url(#mask0_2097_12346)">
<path d="M9.09254 20.8012C8.88464 20.9649 8.63219 20.9203 8.33519 20.6375C8.29064 20.5928 8.12729 20.3993 7.83028 20.0272C7.48873 19.5955 7.31053 19.3574 7.29568 19.3276C7.11748 18.9852 7.11748 18.6429 7.28083 18.3005C6.80563 18.4047 6.40467 18.2559 6.07797 17.8689L5.91462 17.6754C5.88492 17.6307 5.87007 17.586 5.84037 17.5563C5.82552 17.5265 5.79582 17.5116 5.78097 17.4967C5.72157 17.4372 5.66217 17.3777 5.60277 17.3181C5.55822 17.2586 5.51367 17.2139 5.46912 17.1693C5.11272 16.7227 5.08301 16.3953 5.36517 16.1571L6.21162 15.4724L5.33547 14.3262L0.0488281 18.5387L0.954684 19.6699C1.01409 19.6104 1.08834 19.536 1.14774 19.4764C1.22199 19.4169 1.28139 19.3574 1.34079 19.3127C1.77144 18.9704 2.09815 18.8662 2.3209 18.9852C2.41 19.0299 2.6179 19.2681 2.95945 19.6997C3.301 20.1314 3.4792 20.3695 3.49405 20.3993C3.64256 20.697 3.62771 21.0096 3.46435 21.3668C3.82076 21.3073 4.13261 21.3668 4.38506 21.5455C4.47416 21.6199 4.68206 21.858 5.00876 22.2748C5.38002 22.7511 5.58792 23.0191 5.60277 23.1084C5.69187 23.3763 5.51367 23.674 5.09786 24.0164C5.03846 24.061 4.96421 24.1206 4.90481 24.1801C4.83056 24.2396 4.75631 24.2992 4.66721 24.3438L5.57307 25.4751L10.8597 21.2478L9.95385 20.1165L9.09254 20.8012Z" fill="#111111"/>
<path d="M23.0223 11.1997L19.9187 12.5989C20.1711 13.2092 20.2751 13.6706 20.2305 13.9981C20.1711 14.4446 19.8741 14.787 19.3544 15.0252C18.4337 15.4419 17.7506 15.1442 17.2902 14.1321C17.0229 13.5515 17.0229 13.0306 17.2605 12.584C16.7853 12.4947 16.4437 12.2119 16.221 11.7356C16.0279 11.3039 15.9834 10.902 16.0725 10.5299C16.1616 10.1578 16.4289 9.87495 16.8595 9.68145C17.7357 9.29444 18.4634 9.71122 19.0128 10.9764L21.8046 9.7261L20.3642 6.43652L18.003 7.49336C18.107 7.71663 18.1515 7.8506 18.1515 7.89525C17.2011 7.80594 16.3398 7.93991 15.5527 8.29715C14.7211 8.66927 14.0677 9.14559 13.5777 9.74099C12.9985 10.4406 12.7609 11.1848 12.8352 12.0184C12.8649 12.3161 12.8946 12.5691 12.9243 12.7626C12.9391 12.971 12.9688 13.1199 12.9837 13.239C13.0431 13.7897 12.954 14.2511 12.7461 14.6233C13.147 14.653 13.5628 14.921 13.9786 15.4271C14.5726 16.1564 14.9736 16.5732 15.1518 16.6923C15.924 17.243 17.0526 17.377 18.5376 17.1091C18.8495 17.0495 19.2801 16.9007 19.8296 16.6625C20.8988 16.1862 21.7749 15.5759 22.4432 14.8614C23.4381 13.7748 23.6609 12.6287 23.1263 11.423L23.0223 11.1997Z" fill="#111111"/>
<path d="M29.0364 5.60388C29.1701 5.69319 29.3037 6.03554 29.4225 6.61606C29.5116 7.04772 29.5562 7.33054 29.5562 7.43473C29.5413 7.74732 29.378 8.01525 29.081 8.23852C29.4671 8.29806 29.7195 8.49157 29.868 8.83392C29.8829 8.86369 29.9571 9.16139 30.0759 9.72702L30.2244 10.4564C30.2541 10.888 30.1353 11.1411 29.8532 11.2006L28.6652 11.4537L28.9622 12.8677L39.1345 10.7094L38.4217 7.33054L36.016 7.83663C36.0605 7.97059 36.0902 8.07479 36.1051 8.1641C36.1199 8.23852 36.1348 8.29806 36.1348 8.31295C36.3427 9.29535 36.1496 9.86098 35.5556 9.98006L33.9072 10.3522L33.4766 8.31295L35.4219 7.89617L35.0655 6.22905L33.1202 6.64583L32.6747 4.56193L33.8033 4.32377C33.9815 4.27912 34.2339 4.294 34.5606 4.35354C34.9764 4.44285 35.214 4.5917 35.2734 4.82986L35.5259 5.99089L38.1098 5.44014L37.397 2.0166L27.1504 4.20469L27.4474 5.61876C28.2642 5.42526 28.7988 5.42526 29.0364 5.60388Z" fill="#111111"/>
<path d="M45.52 2.55168C45.9655 2.5368 46.1883 2.77496 46.2031 3.23639C46.2031 3.31082 46.2031 3.40013 46.1883 3.51921C46.1734 3.63829 46.1734 3.74248 46.1734 3.80202C46.1883 4.26346 46.1734 4.56116 46.1437 4.71001C46.0546 5.08213 45.8616 5.30541 45.5646 5.39471C45.8913 5.52868 46.0843 5.78172 46.1734 6.16873C46.218 6.33247 46.2328 6.64505 46.2477 7.10649L46.2625 7.27022V7.58281C46.2774 8.19309 46.0992 8.50568 45.7428 8.52056L44.436 8.55033L44.4657 9.99417L53.8658 9.78578C54.1925 9.7709 54.5637 9.65182 54.9944 9.41366C55.425 9.16061 55.722 8.90757 55.9151 8.62476C56.0042 8.47591 56.1081 8.17821 56.2566 7.73166C56.3012 7.55304 56.42 7.41907 56.5982 7.31488C56.123 6.67482 55.7369 6.24316 55.4399 6.005C54.9053 5.57333 54.2667 5.37983 53.5242 5.42448C53.5539 5.4096 53.6282 5.39471 53.7767 5.37983C53.9252 5.36495 54.1331 5.32029 54.3855 5.27564C54.7419 5.2161 55.0241 5.12679 55.2171 5.00771C55.3953 4.88863 55.6032 4.60581 55.8557 4.14438C56.123 3.71271 56.3012 3.45967 56.4051 3.40013C55.9002 2.50703 55.4547 1.88186 55.0835 1.55439C54.5934 1.13761 53.9697 0.929219 53.2272 0.944104L44.2578 1.1525L44.2875 2.59634L45.52 2.55168ZM52.0689 8.05913C51.8759 8.26752 51.6234 8.37171 51.3264 8.37171L49.9156 8.40148L49.8711 6.3027L51.3858 6.27293C51.6383 6.27293 51.861 6.37712 52.0541 6.58551C52.2471 6.80879 52.3511 7.03206 52.3659 7.28511C52.3511 7.59769 52.262 7.85074 52.0689 8.05913ZM51.1928 2.55168C51.4601 2.55168 51.6977 2.64099 51.9204 2.8345C52.1432 3.028 52.262 3.25128 52.262 3.50432C52.262 3.77225 52.1877 4.0253 52.0095 4.23369C51.8313 4.45696 51.6086 4.56116 51.3413 4.57604L49.8266 4.60581L49.782 2.58145L51.1928 2.55168Z" fill="#111111"/>
<path d="M72.2808 8.19202L69.8454 7.80501C69.8305 7.93898 69.8305 8.05806 69.8157 8.14737C69.8008 8.22179 69.8008 8.28133 69.786 8.29622C69.6375 9.29351 69.2514 9.75494 68.6425 9.65075L66.9644 9.3977L67.2763 7.34358L69.2365 7.64128L69.489 5.95927L67.5287 5.66157L67.8554 3.56279L68.9989 3.74141C69.1771 3.77118 69.4147 3.87538 69.6969 4.03911C70.0681 4.26239 70.2315 4.50055 70.1869 4.73871L70.0087 5.91462L72.6075 6.31651L73.1421 2.8632L62.8213 1.27051L62.5985 2.69946C63.4301 2.80366 63.9202 2.98228 64.0835 3.23532C64.1726 3.36929 64.1726 3.72653 64.0835 4.32193C64.0093 4.75359 63.9647 5.03641 63.9202 5.1406C63.8014 5.4383 63.5489 5.61692 63.1925 5.72111C63.5341 5.91462 63.7123 6.19743 63.7123 6.55467C63.7123 6.58444 63.6826 6.89703 63.5935 7.46266L63.4747 8.20691C63.3559 8.62369 63.148 8.81719 62.8658 8.77254L61.6778 8.59392L61.4551 10.0229L71.7313 11.6007L72.2808 8.19202Z" fill="#111111"/>
<path d="M89.3881 8.47574C88.9277 7.96965 88.3783 7.59752 87.7694 7.37425L80.1365 4.47168L79.6167 5.82621C79.7207 5.85598 79.8246 5.88575 79.9137 5.91552C80.0028 5.94529 80.0919 5.97506 80.181 6.00483C80.6859 6.19834 80.9235 6.40672 80.9235 6.63C80.9235 6.73419 80.8196 7.04678 80.6117 7.58264C80.4186 8.08873 80.3147 8.35666 80.285 8.38643C80.0622 8.74367 79.7504 8.87763 79.394 8.83298C79.6613 9.08602 79.7801 9.36884 79.7652 9.68142C79.7504 9.81538 79.6464 10.1279 79.4682 10.6192C79.2455 11.2146 79.0821 11.542 78.993 11.5867C78.7554 11.7802 78.2505 11.7058 77.508 11.3783L76.9883 12.7328L82.8392 14.9656L83.359 13.611C82.8838 13.4026 82.6313 13.2985 82.6016 13.2687C82.4383 13.1198 82.4234 12.8817 82.5422 12.5691L82.9877 11.3783L84.3242 11.8844C84.4876 11.9439 84.6509 12.1077 84.7994 12.3458C84.9479 12.584 84.9925 12.7924 84.9331 12.9561L84.4133 14.3106C84.3242 14.5637 84.3688 14.8614 84.5767 15.2186C84.7846 15.5759 85.0222 15.814 85.2746 15.9033L88.3783 17.0792L88.898 15.7247C88.8683 15.7247 88.8238 15.7098 88.7644 15.6949C88.6753 15.6652 88.5565 15.5907 88.408 15.4717C88.2001 15.3079 88.1258 15.1591 88.1852 15.0251L88.601 13.9385C88.7198 13.611 88.6159 13.224 88.2595 12.7924C88.0516 12.5244 87.7991 12.2863 87.517 12.1077C87.9625 12.2565 88.4971 12.1523 89.1356 11.81C89.3287 11.7206 89.5217 11.6016 89.7296 11.4825C89.9375 11.3634 90.1455 11.2294 90.3682 11.0955C90.2197 10.8722 90.1454 10.7085 90.1603 10.6192C90.2494 9.86004 89.9969 9.14556 89.3881 8.47574ZM86.4032 9.59211C86.3141 9.83027 86.1508 10.0238 85.9132 10.1726C85.6459 10.3512 85.3934 10.3959 85.1707 10.3066L83.7005 9.74096L84.4579 7.73149L85.8835 8.28223C86.1211 8.37154 86.2993 8.55016 86.4032 8.81809C86.4923 9.08602 86.4923 9.33907 86.4032 9.59211Z" fill="#111111"/>
<path d="M99.1576 20.3102C99.2022 20.34 99.2616 20.3697 99.3061 20.3995C99.3507 20.4293 99.3952 20.459 99.4398 20.4888C99.8556 20.8014 99.9447 21.1289 99.7071 21.4415C99.2467 22.0517 98.6379 22.0815 97.9102 21.5308C97.5093 21.2182 97.3014 20.8609 97.2717 20.4442C97.2568 20.0274 97.4053 19.6255 97.7023 19.2236C98.0587 18.7622 98.5042 18.4942 99.0388 18.4496C98.8458 18.1072 98.9349 17.6756 99.321 17.1695C99.9892 16.2913 100.732 16.1871 101.578 16.8271C102.469 17.5118 102.529 18.3751 101.771 19.4171L103.984 21.114L106.033 18.4198L104.147 16.9908C104.058 17.1397 103.969 17.229 103.895 17.2737C103.642 16.5592 103.048 15.8298 102.113 15.1153C100.063 13.5524 98.2666 13.4482 96.6925 14.8028C96.1134 15.294 95.5639 15.5023 95.0145 15.4279C95.1481 15.8596 95.0739 16.455 94.7917 17.1992C94.4502 18.0328 94.2868 18.6282 94.3017 18.9705C94.3314 20.3102 95.0442 21.5159 96.4401 22.5727C97.0638 23.049 97.8657 23.3914 98.8606 23.6147C98.9497 23.8379 98.9497 24.0463 98.8755 24.2101L100.658 25.5795L102.38 23.3021C102.514 23.1235 102.722 23.1235 103.019 23.2723L103.538 23.6593L104.4 22.5281L99.9892 19.1641L99.1576 20.3102Z" fill="#111111"/>
<path d="M38.482 19.4141C36.8188 19.4141 35.9575 20.0243 35.9575 20.8579C35.9575 21.1258 36.0763 21.3045 36.3287 21.4087C36.5812 21.0068 37.2494 20.7388 38.2147 20.7388C38.8681 20.7388 39.5809 20.8579 40.3828 21.0812C39.5066 24.6833 38.779 26.8417 38.4523 27.6157C37.9177 28.866 37.2791 29.4763 36.1208 29.4763C35.3635 29.4763 34.8437 29.2679 34.3537 28.7023C34.0715 28.8363 33.9082 29.0893 33.9082 29.4614C33.9082 30.2503 34.7101 30.7713 36.1951 30.7713C37.6801 30.7713 38.779 30.0717 39.5809 28.6279C39.8927 29 40.6798 28.9851 40.6798 28.9851C41.2887 28.9404 41.7639 28.7618 42.1203 28.3897C42.0312 28.5832 41.9866 28.7172 41.9866 28.8065C41.9866 28.9702 42.1054 29.0149 42.4321 29.0149C43.3825 29.0149 43.1746 28.8809 43.6944 27.6752C44.6448 25.5169 45.8476 24.5494 46.1446 24.5494C46.2931 24.5494 46.3525 24.6089 46.3525 24.7429C46.3525 24.8769 46.2189 25.1745 45.9813 25.6955C45.5061 26.8119 45.2685 27.5264 45.2685 27.8687C45.2685 28.6428 45.8922 28.9851 47.2138 28.9851C47.2584 28.9851 47.3029 28.9851 47.3475 28.9851C48.1494 28.9404 48.9513 28.7469 49.7532 28.3748C50.2284 28.7618 50.8818 28.9702 51.7431 28.9851C51.7431 28.9851 51.7431 28.9851 51.8174 28.9851C51.8322 28.9851 51.8471 28.9851 51.8619 28.9851C51.9065 28.9851 51.9807 28.9851 52.0253 28.9851C52.1292 28.9851 52.2183 28.9405 52.2332 28.8809C52.2629 28.7469 52.3965 28.3599 52.3965 28.3599C52.4262 28.2706 52.3817 28.1813 52.2926 28.1664H52.2777C52.248 28.1664 52.2183 28.1664 52.1886 28.1664C51.6392 28.1664 51.2382 28.0474 50.8818 27.7348C52.2035 26.7375 52.8272 25.4425 52.8272 24.6238C52.8272 23.7307 52.2926 23.2097 51.4461 23.2097C49.9017 23.2097 48.6098 24.6238 48.6098 26.2314C48.6098 26.8863 48.7434 27.4222 49.0701 27.839C48.5949 28.0474 48.1197 28.1515 47.5851 28.1813C46.9762 28.1367 46.7238 28.0622 46.7238 27.7497C46.7238 27.6157 46.8129 27.1989 47.0505 26.6184C47.5702 25.3383 47.9118 24.5196 47.9118 24.0582C47.9118 23.5819 47.6296 23.2842 47.095 23.2842C46.0407 23.2842 45.0012 24.2815 43.7835 26.2314L45.7882 21.1705C45.9961 20.6346 46.1743 20.2923 46.1743 20.0541C46.1743 19.816 45.907 19.7713 45.3279 19.7713C44.3775 19.7713 44.5705 20.2327 44.0211 21.9296L42.744 25.889C42.2836 27.3329 41.8084 28.0771 40.8877 28.1367C40.3531 28.1515 40.1303 27.8092 40.0264 27.571C40.5313 26.2612 41.2441 23.7456 42.15 20.0392C40.7541 19.6522 39.5512 19.4141 38.482 19.4141ZM51.3719 24.1921C51.6986 24.1921 51.8768 24.3856 51.8768 24.728C51.8768 25.3085 51.3422 26.4398 50.3621 27.0649C50.1542 26.8119 50.0799 26.5291 50.0799 26.157C50.0799 25.0852 50.7185 24.1921 51.3719 24.1921Z" fill="#111111"/>
<path d="M71.3164 20.5886C71.3164 21.0649 71.5837 21.318 72.0589 21.318C72.6083 21.318 73.039 20.8566 73.039 20.2612C73.039 19.8146 72.7123 19.502 72.2816 19.502C71.7619 19.502 71.3164 19.9635 71.3164 20.5886Z" fill="#111111"/>
<path d="M81.8308 24.5933C81.8308 23.7002 81.2962 23.1792 80.4497 23.1792C78.9053 23.1792 77.6133 24.5933 77.6133 26.2008C77.6133 26.8558 77.747 27.3916 78.0737 27.8084C77.5985 28.0168 77.1233 28.121 76.5887 28.1508C74.9997 28.121 74.2869 27.6298 74.2869 26.439C74.2869 25.2333 75.1037 24.2509 75.8907 24.2509C76.262 24.2509 76.4253 24.4295 76.4253 24.8017C76.4253 24.9059 76.4253 24.9654 76.6035 24.9654C76.9451 24.9654 77.2421 24.6677 77.2421 24.236C77.2421 23.6406 76.7372 23.1941 75.8759 23.1941C74.2869 23.1941 72.7425 24.6826 72.7425 26.5134C72.7425 27.0195 72.8168 27.4363 73.0247 27.7935C72.6237 28.0317 72.193 28.1359 71.703 28.1657C71.0644 28.121 70.8268 28.0466 70.8268 27.6745C70.8268 27.481 70.9308 27.1833 71.0644 26.7814L71.6584 25.01C71.9109 24.2509 72.1782 23.7746 72.1782 23.4769C72.1782 23.2983 72.0148 23.209 71.6881 23.209C70.411 23.209 70.6783 23.4322 70.3219 24.8463C69.7576 27.0493 69.1339 28.1359 68.1241 28.1806C67.5301 28.1508 67.3222 28.0615 67.3222 27.6149C67.3222 27.1833 67.5301 26.4688 67.9162 25.4715C68.3617 24.3402 68.7033 23.7448 68.7033 23.6109C68.7033 23.3578 68.2132 23.1643 67.6786 23.1643C66.9955 23.1643 67.2183 23.8193 66.4906 25.4715C65.8224 27.0195 65.0502 27.9573 64.5007 27.9573C64.2631 27.9573 64.1294 27.8233 64.1294 27.5703C64.1294 27.2279 64.3819 26.5432 64.8274 25.4715C65.3026 24.3253 65.6442 23.7746 65.6442 23.6257C65.6442 23.3727 64.9462 23.1345 64.4264 23.1345C64.0552 23.1345 63.9958 23.5067 63.6394 24.5635C63.1939 25.8883 62.8078 26.8558 62.8078 27.5554C62.8078 27.6298 62.8078 27.7042 62.8226 27.7787C62.3771 28.0317 61.9613 28.1508 61.4564 28.1806C61.2485 28.1954 61.0852 28.2252 60.8921 28.2252C60.7585 28.2252 60.5803 28.1954 60.3724 28.1806C61.694 24.7719 62.0653 22.1521 62.0653 21.1251C62.0653 19.9938 61.6346 19.458 60.7288 19.458C59.8675 19.458 58.8131 19.9938 58.0558 20.9911C57.3578 21.8991 56.942 23.0899 56.942 24.1616C56.942 25.6799 57.7736 26.573 59.2289 26.6474L58.7834 28.0317C58.531 28.0168 58.2637 28.0168 57.9667 28.0168C55.9322 28.0168 54.5957 28.9992 54.5957 30.3538C54.5957 31.2171 55.2194 31.8125 56.3034 31.8125C57.6994 31.8125 58.9913 30.8598 59.9566 28.9843C60.1942 28.9992 60.3872 29.029 60.5209 29.029C60.7139 29.029 60.9367 28.9992 61.2188 28.9843C61.8722 28.9397 62.4068 28.7908 62.9117 28.4485C63.0602 28.7908 63.4018 28.9843 63.9364 28.9843C64.8868 28.9843 65.5402 28.1954 66.5203 26.7516C66.3421 27.3172 66.2382 27.7489 66.2382 28.0615C66.2382 28.7908 66.6837 28.9843 67.7974 28.9843C67.842 28.9843 67.8717 28.9843 67.9162 28.9843C68.6142 28.9397 69.1488 28.6866 69.6388 28.121C69.7428 28.7313 70.2625 28.9843 71.302 28.9843C71.3614 28.9843 71.4357 28.9843 71.5099 28.9843C72.3564 28.9546 73.0544 28.7462 73.6187 28.3294C74.1384 28.7462 74.97 28.9843 76.1283 28.9843C76.158 28.9843 76.2323 28.9695 76.3659 28.9695C77.1678 28.9248 77.9697 28.7313 78.7716 28.3592C79.2468 28.7462 79.9003 28.9397 80.7467 28.9695C80.7467 28.9695 80.7467 28.9695 80.7616 28.9695C80.7616 28.9695 80.7616 28.9695 80.8507 28.9695C80.8655 28.9695 80.8804 28.9695 80.8952 28.9695C80.9398 28.9695 81.014 28.9695 81.0586 28.9695C81.1477 28.9695 81.2368 28.9248 81.2516 28.8653C81.2813 28.7313 81.415 28.3443 81.415 28.3443C81.4447 28.255 81.4001 28.1657 81.311 28.1508C81.311 28.1508 81.311 28.1508 81.2962 28.1508C81.2665 28.1508 81.2368 28.1508 81.2071 28.1508C80.6576 28.1508 80.2567 28.0317 79.9003 27.7191C81.2071 26.7069 81.8308 25.4119 81.8308 24.5933ZM56.4074 30.7259C56.051 30.7259 55.8728 30.5324 55.8728 30.1751C55.8728 29.5202 56.7935 28.9099 58.2934 28.9099C58.3379 28.9099 58.3825 28.9099 58.4122 28.9099C57.833 30.1007 57.0756 30.7259 56.4074 30.7259ZM59.5556 25.7543C59.5111 25.7543 59.4962 25.7543 59.4665 25.7543C58.8428 25.7543 58.427 25.278 58.427 24.4742C58.427 23.8788 58.6795 22.8071 59.2438 21.7502C59.6447 20.9911 59.9566 20.619 60.2833 20.619C60.4763 20.619 60.6248 20.7678 60.6248 21.0358C60.6248 21.259 60.3872 22.9113 59.5556 25.7543ZM79.3953 27.0642C79.1874 26.8111 79.1132 26.5283 79.1132 26.1562C79.1132 25.0845 79.7517 24.1914 80.4051 24.1914C80.7319 24.1914 80.9101 24.3849 80.9101 24.7272C80.9101 25.2929 80.3754 26.439 79.3953 27.0642Z" fill="#111111"/>
<path d="M32.1708 28.4642C32.2748 28.4047 32.2748 28.3303 32.2005 28.2261L31.7699 27.7497C31.7402 27.72 31.6362 27.6009 31.5174 27.4818L31.3838 27.3181C31.5174 27.1692 31.8738 26.8269 31.8738 26.8269C31.8887 26.7971 31.9035 26.7822 31.9332 26.7673C31.9778 26.7227 32.0075 26.6631 32.0372 26.6334C32.0372 26.6334 32.0372 26.6334 32.0372 26.6185C32.1263 26.4696 32.0966 26.3803 32.0075 26.2166C31.9481 26.1273 31.6808 25.6658 31.5471 25.5914C31.458 25.5468 31.4135 25.6361 31.265 25.7998C31.2501 25.8147 31.2204 25.8593 31.1907 25.8891C31.0422 26.0529 30.7898 26.291 30.4482 26.5589C30.1364 26.2166 29.1414 25.0704 28.7108 24.3857L28.6365 24.2518L28.7702 24.1476C29.8394 23.3289 30.5373 22.7186 30.671 21.8404C30.8195 20.8133 29.9879 20.0542 28.6811 20.0393C27.4782 20.0244 26.4981 20.8282 26.3348 21.9595C26.2605 22.4953 26.4239 23.0461 26.8842 23.7606L26.9882 23.9094L26.7951 24.0136C25.2804 24.8472 24.4488 25.7254 24.3151 26.6036C24.1221 27.8837 25.2061 28.7321 27.0476 28.7619C28.3098 28.7768 29.2157 28.4493 29.7503 28.2558C30.0176 28.1516 30.2849 28.0326 30.2849 28.0326L30.8343 28.5386C30.968 28.6875 31.1313 28.7173 31.3244 28.6726C31.3244 28.6726 31.7996 28.5684 31.9481 28.5238C32.0669 28.494 32.156 28.4642 32.1708 28.4642ZM27.7158 21.7362C27.8049 21.1408 28.2207 20.605 28.785 20.605C29.3345 20.6198 29.5721 21.0664 29.4978 21.6171C29.4236 22.1679 28.9187 22.7782 28.2801 23.1652L28.0871 23.2842L27.998 23.1056C27.7455 22.6293 27.6564 22.1679 27.7158 21.7362ZM28.7999 27.4818C28.3989 27.6009 27.8792 27.7349 27.1961 27.7349C26.5427 27.72 25.8447 27.5414 25.9784 26.6185C26.0675 26.0231 26.409 25.5616 27.3297 25.0704L27.4931 24.9811L27.5822 25.1151C28.0722 25.8147 28.6365 26.4696 29.2454 27.0501L29.4087 27.199C29.2305 27.3032 29.0226 27.3925 28.7999 27.4818Z" fill="#111111"/>
<path d="M33.3867 41.7129L35.5399 41.6533L35.5548 42.1892L34.0846 42.2338L34.0995 42.993L35.4657 42.9483L35.4805 43.4842L34.1143 43.5288L34.144 44.3922L35.6587 44.3475L35.6736 44.8834L33.4758 44.9429L33.3867 41.7129Z" fill="#111111"/>
<path d="M39.1052 44.6001L37.6054 42.0547L37.5905 42.0696L37.8281 44.734L37.1896 44.7936L36.8926 41.5784L37.9172 41.4891L39.3725 43.9005L39.3874 43.8856L39.1646 41.37L39.8032 41.3105L40.1002 44.5256L39.1052 44.6001Z" fill="#111111"/>
<path d="M41.1094 41.1471L43.2478 40.8643L43.3221 41.4001L41.8668 41.5936L41.9707 42.3379L43.3221 42.1593L43.3963 42.6951L42.0301 42.8737L42.1341 43.7222L43.6339 43.5287L43.7082 44.0645L41.5252 44.3473L41.1094 41.1471Z" fill="#111111"/>
<path d="M45.7575 43.7378L45.0744 43.842L44.5547 40.6566L45.906 40.4334C46.4555 40.3441 47.0346 40.4334 47.1386 41.0883C47.2128 41.5051 46.9752 41.8177 46.604 41.9665V41.9814C47.1386 41.9516 47.1831 42.2791 47.3168 42.7108C47.3762 42.9043 47.4653 43.2764 47.6286 43.4401L46.8713 43.5592C46.7673 43.2913 46.6931 43.0085 46.6188 42.7257C46.5743 42.547 46.4852 42.3238 46.2624 42.3386L45.5348 42.4577L45.7575 43.7378ZM45.4605 41.9368L46.0248 41.8474C46.3218 41.7879 46.4703 41.6093 46.4258 41.3414C46.3812 41.0585 46.1882 40.9692 45.8912 41.0139L45.312 41.1032L45.4605 41.9368Z" fill="#111111"/>
<path d="M50.1233 41.7566L50.0194 41.2356L51.3113 40.9826L51.6232 42.5604C51.4004 42.6795 51.1777 42.7688 50.9401 42.8432C50.7916 42.8878 50.6431 42.9325 50.2273 43.0218C49.6036 43.1409 48.668 42.9325 48.4156 41.6673C48.1631 40.4169 48.9502 39.8513 49.5739 39.7322C50.4797 39.5536 51.1034 39.7173 51.2519 40.4616L50.5243 40.6104C50.45 40.2085 50.153 40.1192 49.7818 40.1937C49.1878 40.3127 48.9799 40.8188 49.1284 41.5333C49.2769 42.2478 49.6481 42.6348 50.2421 42.5157C50.5094 42.4562 50.6876 42.3966 50.851 42.3222L50.7173 41.6524L50.1233 41.7566Z" fill="#111111"/>
<path d="M53.6276 41.0868L51.9941 39.3006L52.7663 39.0773L53.8058 40.3127L54.0583 38.7052L54.7414 38.5117L54.2959 40.8932L54.578 41.9054L53.9098 42.0989L53.6276 41.0868Z" fill="#111111"/>
<path d="M58.8702 40.5525L58.1426 37.4118L59.3157 37.129C59.8652 36.9652 60.4889 37.0694 60.6374 37.6797C60.7116 38.0221 60.5334 38.3198 60.2513 38.4984V38.5133C60.6671 38.4984 61.0235 38.7068 61.1274 39.1682C61.2759 39.7934 60.5483 40.1953 60.0582 40.2846L58.8702 40.5525ZM59.6276 38.3942C59.9097 38.3346 60.0434 38.1709 59.984 37.9179C59.9246 37.6648 59.7464 37.5904 59.4642 37.6499L58.9445 37.769L59.1227 38.5133L59.6276 38.3942ZM59.9394 39.7487C60.2513 39.6743 60.4592 39.5701 60.3701 39.2129C60.281 38.8556 60.0582 38.8407 59.7464 38.9152L59.2266 39.0342L59.4197 39.8678L59.9394 39.7487Z" fill="#111111"/>
<path d="M64.8833 36.1904L65.1506 38.185C65.2694 39.0335 64.7051 39.5247 63.9329 39.6289C63.1607 39.7331 62.4924 39.4056 62.3884 38.5572L62.1211 36.5626L62.8043 36.4733L63.0419 38.2148C63.1161 38.7507 63.2052 39.2419 63.8735 39.1526C64.5417 39.0632 64.512 38.572 64.4378 38.0213L64.2002 36.2798L64.8833 36.1904Z" fill="#111111"/>
<path d="M66.4727 38.751L68.0023 36.548L66.5173 36.5926L66.5024 36.0568L68.8339 35.9824L68.8487 36.5182L67.334 38.7212L68.9527 38.6617L68.9675 39.1975L66.5024 39.2719L66.4727 38.751Z" fill="#111111"/>
<path d="M70.0965 38.691L71.8339 36.6518L70.3489 36.5476L70.3935 36.0117L72.7101 36.1754L72.6655 36.7113L70.9281 38.7505L72.5467 38.8696L72.5022 39.4055L70.0371 39.2269L70.0965 38.691Z" fill="#111111"/>
<path d="M53.0915 35.8359C53.0915 35.8359 37.3801 40.7181 29.361 37.9942L29.2422 36.5652C29.2422 36.5652 34.8259 38.5747 47.3296 36.7587C51.161 36.1931 53.0915 35.8359 53.0915 35.8359Z" fill="#111111"/>
<path d="M53.0039 44.7826C53.0039 44.7826 68.7153 39.9003 76.7343 42.6242L76.8531 44.0532C76.8531 44.0532 71.2695 42.0437 58.7657 43.8597C54.9344 44.4253 53.0039 44.7826 53.0039 44.7826Z" fill="#111111"/>
</g>
</g>
<defs>
<clipPath id="clip0_2097_12346">
<rect width="107" height="45" fill="white"/>
</clipPath>
</defs>
</svg>
