<svg width="135" height="27" viewBox="0 0 135 27" fill="none" xmlns="http://www.w3.org/2000/svg">
<g clip-path="url(#clip0_2097_12778)">
<mask id="mask0_2097_12778" style="mask-type:luminance" maskUnits="userSpaceOnUse" x="0" y="0" width="135" height="27">
<path d="M134.622 0.0644531H0.775391V26.5621H134.622V0.0644531Z" fill="white"/>
</mask>
<g mask="url(#mask0_2097_12778)">
<path d="M26.5898 26.0176V0.0644531H31.5477V26.0176H26.5898Z" fill="#111111"/>
<path d="M42.9419 26.5623C37.1455 26.5623 33.1719 22.2791 33.1719 16.7255C33.1719 11.1719 37.1455 6.88867 42.9419 6.88867C48.7383 6.88867 52.712 11.1719 52.712 16.7255C52.712 22.2791 48.7383 26.5623 42.9419 26.5623ZM42.9419 22.7873C45.9677 22.7873 47.6811 20.3553 47.6811 16.7255C47.6811 13.0957 45.9677 10.6274 42.9419 10.6274C39.8797 10.6274 38.2027 13.0957 38.2027 16.7255C38.2027 20.3553 39.8797 22.7873 42.9419 22.7873Z" fill="#111111"/>
<path d="M62.9628 26.5623C57.057 26.5623 53.375 22.2791 53.375 16.7255C53.375 11.1719 57.0206 6.88867 62.7076 6.88867C67.5562 6.88867 70.5455 9.68363 71.2017 13.7128H66.3532C66.0251 12.0793 64.7491 10.8452 62.9263 10.8452C59.937 10.8452 58.4059 13.132 58.4059 16.7255C58.4059 20.2464 59.8276 22.6058 62.8534 22.6058C64.8585 22.6058 66.2802 21.5531 66.6083 19.4479H71.384C71.0559 23.4044 67.9572 26.5623 62.9628 26.5623Z" fill="#111111"/>
<path d="M85.1403 26.0176L79.8908 17.5239L77.7399 19.738V26.0176H72.8184V0.0644531H77.7399V14.4385L84.3748 7.39668H90.317L83.427 14.4748L91.1555 26.0176H85.1403Z" fill="#111111"/>
<path d="M103.231 26.0176C102.939 25.6546 102.757 24.7835 102.648 23.9486H102.575C101.627 25.3643 100.278 26.4532 97.0704 26.4532C93.2426 26.4532 90.5449 24.4568 90.5449 20.7544C90.5449 16.6527 93.8988 15.346 98.0547 14.7652C101.153 14.3296 102.575 14.0755 102.575 12.6599C102.575 11.3169 101.518 10.4457 99.44 10.4457C97.1068 10.4457 95.9767 11.2806 95.8309 13.0592H91.4198C91.5656 9.79236 94.0081 6.9248 99.4764 6.9248C105.09 6.9248 107.35 9.42937 107.35 13.7851V23.259C107.35 24.6746 107.569 25.5094 108.007 25.8361V26.0176H103.231ZM98.2734 23.0049C101.117 23.0049 102.684 21.2626 102.684 19.4477V16.6527C101.809 17.1609 100.46 17.4513 99.2212 17.7416C96.6329 18.3224 95.357 18.9032 95.357 20.6455C95.357 22.3878 96.5235 23.0049 98.2734 23.0049Z" fill="#111111"/>
<path d="M109.773 26.0176V7.39668H114.731V26.0176H109.773ZM109.773 4.49282V0.0644531H114.731V4.49282H109.773Z" fill="#111111"/>
<path d="M124.196 26.5621C119.493 26.5621 116.285 22.7508 116.285 16.7253C116.285 10.9176 119.603 6.8885 124.269 6.8885C126.894 6.8885 128.534 8.08634 129.555 9.64716H129.664V0.0644531H134.622V26.0176H129.847V23.5856H129.774C128.68 25.3643 126.821 26.5621 124.196 26.5621ZM125.29 22.4241C128.243 22.4241 129.774 20.2462 129.774 16.8342C129.774 13.277 128.607 10.8813 125.436 10.8813C122.702 10.8813 121.316 13.277 121.316 16.7253C121.316 20.3188 122.738 22.4241 125.29 22.4241Z" fill="#111111"/>
<path fill-rule="evenodd" clip-rule="evenodd" d="M18.8381 4.30034H1.02071V0.0703125H18.8381C22.1734 0.0703125 24.8772 2.76335 24.8772 6.08539C24.8772 9.40743 22.1734 12.1005 18.8381 12.1005H5.91687C5.42284 12.1005 5.02235 12.4994 5.02235 12.9914C5.02235 13.4835 5.42284 13.8824 5.91687 13.8824H18.8386C22.1737 13.8824 24.8772 16.5752 24.8772 19.8969C24.8772 23.2187 22.1737 25.9115 18.8386 25.9115H1.02071V21.6815H18.8386C19.8281 21.6815 20.6303 20.8825 20.6303 19.8969C20.6303 18.9114 19.8281 18.1124 18.8386 18.1124H5.91687C3.07731 18.1124 0.775391 15.8197 0.775391 12.9914C0.775391 10.1632 3.07731 7.87045 5.91687 7.87045H18.8381C19.8279 7.87045 20.6303 7.07125 20.6303 6.08539C20.6303 5.09953 19.8279 4.30034 18.8381 4.30034Z" fill="#111111"/>
</g>
</g>
<defs>
<clipPath id="clip0_2097_12778">
<rect width="135" height="27" fill="white"/>
</clipPath>
</defs>
</svg>
