<svg width="225" height="30" viewBox="0 0 225 30" fill="none" xmlns="http://www.w3.org/2000/svg">
<g clip-path="url(#clip0_2097_12474)">
<path d="M50.9424 8.69144C51.1153 8.67586 51.2507 8.53505 51.2507 8.36394V8.0289C51.2507 7.85006 51.1037 7.70508 50.9223 7.70508H43.2321C43.0507 7.70508 42.9037 7.85006 42.9037 8.0289V8.36365C42.9037 8.53489 43.0394 8.67577 43.2124 8.69108C44.8185 8.83325 45.3883 9.30676 45.3883 10.7328V17.4412C45.3883 17.5887 45.2869 17.7179 45.1417 17.7533C42.2147 18.4671 39.8443 18.396 36.7414 17.7467C36.5906 17.7152 36.4829 17.5833 36.4829 17.4313V10.7328C36.4829 9.30676 37.0526 8.83325 38.6588 8.69108C38.8318 8.67577 38.9675 8.53489 38.9675 8.36365V8.0289C38.9675 7.85006 38.8204 7.70508 38.639 7.70508H30.9768C30.7954 7.70508 30.6484 7.85006 30.6484 8.0289V8.36365C30.6484 8.53489 30.7841 8.67576 30.957 8.69111C32.5601 8.83331 33.105 9.30684 33.105 10.7328V24.1454C33.105 25.3416 32.5568 25.8499 30.9423 26.0649C30.7758 26.087 30.6484 26.2253 30.6484 26.3909V26.7391C30.6484 26.918 30.7954 27.063 30.9768 27.063H38.639C38.8204 27.063 38.9675 26.918 38.9675 26.7391V26.3909C38.9675 26.2253 38.84 26.087 38.6736 26.0649C37.0561 25.85 36.4829 25.3417 36.4829 24.1454V19.3534C36.4829 19.132 36.7034 18.9758 36.9181 19.0406C39.5475 19.8344 42.3295 19.9611 44.9347 19.0691C45.1538 18.9941 45.3883 19.1511 45.3883 19.3798V24.1454C45.3883 25.3417 44.815 25.85 43.1976 26.0649C43.0311 26.087 42.9037 26.2253 42.9037 26.3909V26.7391C42.9037 26.918 43.0507 27.063 43.2321 27.063H50.9223C51.1037 27.063 51.2507 26.918 51.2507 26.7391V26.3904C51.2507 26.225 51.1236 26.0869 50.9574 26.0644C49.3634 25.8492 48.7662 25.3408 48.7662 24.1454V10.7328C48.7662 9.30793 49.3597 8.83403 50.9424 8.69144Z" fill="#111111"/>
<path d="M57.9422 12.7725C53.8664 12.7725 51.0469 15.6901 51.0469 20.4518C51.0469 24.1126 53.3639 27.4431 57.5514 27.4431C60.5845 27.4431 62.6628 25.5854 63.4635 23.3383C63.5183 23.1842 63.4399 23.0169 63.2886 22.9506L63.0619 22.8513C62.9117 22.7855 62.7363 22.8399 62.6421 22.9727C61.8061 24.1519 60.3985 25.0484 58.696 25.0484C56.1877 25.0484 54.4611 23.0959 54.196 19.9106C54.1806 19.7262 54.3307 19.571 54.5183 19.571H63.3064C63.4887 19.571 63.6366 19.4244 63.6305 19.2448C63.5053 15.5774 61.7116 12.7725 57.9422 12.7725ZM57.4956 14.0111C59.3082 14.0111 60.1281 15.5921 60.32 17.9634C60.335 18.1485 60.1848 18.3049 59.9965 18.3049H54.5587C54.3664 18.3049 54.2148 18.1421 54.2373 17.9538C54.5257 15.5408 55.6037 14.0111 57.4956 14.0111Z" fill="#111111"/>
<path d="M80.0206 26.0506C78.9597 26.0506 78.2963 25.5552 78.2963 24.3441V13.0963C78.2963 12.9175 78.1493 12.7725 77.9679 12.7725H77.1321C77.0223 12.7725 76.9197 12.8266 76.8588 12.9167L76.0958 14.0451C75.9705 14.2304 75.6968 14.2384 75.5415 14.0766C74.8283 13.3336 73.7447 12.7725 72.0709 12.7725C68.2464 12.7725 65.0918 15.6901 65.0918 20.5619C65.0918 24.2777 67.2414 27.4431 71.038 27.4431C72.3875 27.4431 73.5517 26.8493 74.3699 26.0582C74.6052 25.8306 75.0859 25.9857 75.0859 26.3107V26.7954C75.0859 26.9743 75.2329 27.1192 75.4143 27.1192H75.7838L80.2856 27.021C80.4641 27.0171 80.6068 26.8733 80.6068 26.6973V26.3745C80.6068 26.1956 80.4598 26.0506 80.2784 26.0506H80.0206ZM72.1268 25.5163C69.5305 25.5163 68.4418 22.4611 68.4418 19.5435C68.4418 16.1855 69.9214 14.0661 71.8755 14.0661C74.2205 14.0661 75.0859 16.1305 75.0859 18.3324V24.2463C75.0859 24.3366 75.0481 24.4231 74.9792 24.4824C74.243 25.1161 73.3244 25.5163 72.1268 25.5163Z" fill="#111111"/>
<path d="M86.4756 8.02402C86.4756 7.84518 86.3286 7.7002 86.1472 7.7002H81.7232C81.5418 7.7002 81.3948 7.84518 81.3948 8.02402V8.25162C81.3948 8.40992 81.5109 8.54501 81.6692 8.57103L81.7298 8.58098C82.9302 8.74613 83.2652 9.29662 83.2652 10.2599V24.4156C83.2652 25.488 82.4301 25.8025 81.3288 26.0401C81.1764 26.073 81.0664 26.2051 81.0664 26.3589V26.7342C81.0664 26.913 81.2134 27.058 81.3948 27.058H88.0176C88.199 27.058 88.346 26.913 88.346 26.7342V26.3577C88.346 26.2044 88.2365 26.0728 88.0851 26.0381C87.0489 25.8007 86.4756 25.485 86.4756 24.4156V8.02402Z" fill="#111111"/>
<path d="M97.9739 25.3591C97.8888 25.1911 97.6777 25.1308 97.5104 25.2206C97.007 25.4908 96.5034 25.6815 95.8064 25.6815C94.4385 25.6815 93.5452 24.9108 93.5452 23.1767V14.6376C93.5452 14.4588 93.6922 14.3138 93.8736 14.3138H97.4321C97.6135 14.3138 97.7605 14.1688 97.7605 13.99V13.4816C97.7605 13.3028 97.6135 13.1578 97.4321 13.1578H93.8736C93.6922 13.1578 93.5452 13.0128 93.5452 12.834V9.13924C93.5452 8.9604 93.3981 8.81543 93.2167 8.81543H90.6353C90.4539 8.81543 90.3068 8.9604 90.3068 9.13924V12.834C90.3068 13.0128 90.1598 13.1578 89.9784 13.1578H88.6254C88.444 13.1578 88.2969 13.3028 88.2969 13.4816V13.99C88.2969 14.1688 88.444 14.3138 88.6254 14.3138H89.9784C90.1598 14.3138 90.3068 14.4588 90.3068 14.6376V23.2593C90.3068 26.0393 91.7306 27.443 94.2431 27.443C95.8377 27.443 97.0769 26.4851 97.9169 25.8178C98.0375 25.722 98.074 25.5564 98.0047 25.4198L97.9739 25.3591Z" fill="#111111"/>
<path d="M187.569 25.3591C187.483 25.1911 187.272 25.1308 187.105 25.2206C186.602 25.4908 186.098 25.6815 185.401 25.6815C184.033 25.6815 183.14 24.9108 183.14 23.1767V14.6376C183.14 14.4588 183.287 14.3138 183.468 14.3138H187.027C187.208 14.3138 187.355 14.1688 187.355 13.99V13.4816C187.355 13.3028 187.208 13.1578 187.027 13.1578H183.468C183.287 13.1578 183.14 13.0128 183.14 12.834V9.13924C183.14 8.9604 182.993 8.81543 182.811 8.81543H180.23C180.049 8.81543 179.902 8.9604 179.902 9.13924V23.2593C179.902 26.0393 181.325 27.443 183.838 27.443C185.432 27.443 186.672 26.4851 187.512 25.8178C187.632 25.722 187.669 25.5564 187.599 25.4198L187.569 25.3591Z" fill="#111111"/>
<path d="M112.501 24.4156V17.4244C112.501 14.3967 110.798 12.7728 108.23 12.7728C106.759 12.7728 105.497 13.45 104.227 14.769C104.015 14.989 103.623 14.8473 103.623 14.5439V8.02402C103.623 7.84518 103.476 7.7002 103.295 7.7002H98.8715C98.6901 7.7002 98.543 7.84518 98.543 8.02402V8.25426C98.543 8.41139 98.6575 8.54584 98.8144 8.57315L99.0176 8.60851C100.05 8.77366 100.413 9.24157 100.413 10.1774V24.4156C100.413 25.4863 99.8627 25.8015 98.8055 26.039C98.6533 26.0732 98.543 26.2051 98.543 26.3589V26.7342C98.543 26.913 98.6901 27.058 98.8715 27.058H105.165C105.347 27.058 105.494 26.913 105.494 26.7342V26.3577C105.494 26.2044 105.384 26.0728 105.233 26.0381C104.197 25.8007 103.623 25.485 103.623 24.4156V16.8366C103.623 16.7545 103.655 16.675 103.713 16.6157C104.874 15.4196 105.854 14.9747 106.862 14.9747C108.397 14.9747 109.29 15.9106 109.29 17.7547V24.4156C109.29 25.4755 108.774 25.8182 107.849 26.0375C107.698 26.0735 107.587 26.205 107.587 26.3588V26.7342C107.587 26.913 107.735 27.058 107.916 27.058H114.043C114.224 27.058 114.371 26.913 114.371 26.7342V26.3577C114.371 26.2044 114.262 26.0728 114.11 26.0381C113.074 25.8007 112.501 25.485 112.501 24.4156Z" fill="#111111"/>
<path d="M150.771 26.051C149.682 26.051 149.347 25.5005 149.347 24.3445V13.4157C149.347 13.2368 149.2 13.0918 149.019 13.0918H144.595C144.413 13.0918 144.266 13.2368 144.266 13.4157V13.6433C144.266 13.8016 144.382 13.9366 144.541 13.9627L144.601 13.9726C145.802 14.1378 146.137 14.6883 146.137 15.6516V23.403C146.137 23.4876 146.103 23.5692 146.042 23.6291C144.858 24.7973 143.905 25.2415 142.898 25.2415C141.391 25.2415 140.47 24.3057 140.47 22.4615V13.4157C140.47 13.2368 140.323 13.0918 140.141 13.0918H135.717C135.536 13.0918 135.389 13.2368 135.389 13.4157V13.6433C135.389 13.8016 135.505 13.9366 135.663 13.9627L135.724 13.9726C136.924 14.1378 137.259 14.6883 137.259 15.6516V22.7918C137.259 25.8195 138.962 27.471 141.558 27.471C143.023 27.471 144.282 26.7987 145.529 25.4892C145.741 25.267 146.137 25.4083 146.137 25.7132V26.7958C146.137 26.9747 146.284 27.1196 146.465 27.1196H146.835L151.009 27.0219C151.187 27.0177 151.329 26.874 151.329 26.6982V26.3748C151.329 26.196 151.182 26.051 151.001 26.051H150.771Z" fill="#111111"/>
<path d="M166.421 26.0506C165.36 26.0506 164.697 25.5552 164.697 24.3441V13.0963C164.697 12.9175 164.55 12.7725 164.368 12.7725H163.533C163.423 12.7725 163.32 12.8266 163.259 12.9167L162.496 14.0451C162.371 14.2304 162.097 14.2384 161.942 14.0766C161.229 13.3336 160.145 12.7725 158.471 12.7725C154.647 12.7725 151.492 15.6901 151.492 20.5619C151.492 24.2777 153.642 27.4431 157.439 27.4431C158.788 27.4431 159.952 26.8493 160.77 26.0582C161.006 25.8306 161.486 25.9857 161.486 26.3107V26.7954C161.486 26.9743 161.634 27.1192 161.815 27.1192H162.184L166.686 27.021C166.865 27.0171 167.007 26.8733 167.007 26.6973V26.3745C167.007 26.1956 166.86 26.0506 166.679 26.0506H166.421ZM158.527 25.5163C155.931 25.5163 154.842 22.4611 154.842 19.5435C154.842 16.1855 156.322 14.0661 158.276 14.0661C160.621 14.0661 161.486 16.1305 161.486 18.3324V24.2463C161.486 24.3366 161.449 24.4231 161.38 24.4824C160.644 25.1161 159.725 25.5163 158.527 25.5163Z" fill="#111111"/>
<path d="M176.728 12.7174C175.49 12.7988 174.312 13.4973 173.41 15.013C173.22 15.3322 172.569 15.2076 172.569 14.8375V13.2533C172.569 13.0745 172.422 12.9295 172.24 12.9295H167.816C167.635 12.9295 167.488 13.0745 167.488 13.2533V13.481C167.488 13.6392 167.604 13.7743 167.762 13.8004L167.823 13.8103C169.023 13.9755 169.358 15.4974 169.358 16.4608V24.3328C169.358 25.3669 168.724 25.7454 167.421 26.0384C167.269 26.0725 167.16 26.2044 167.16 26.3579V26.7339C167.16 26.9127 167.307 27.0577 167.488 27.0577H174.809C174.99 27.0577 175.137 26.9127 175.137 26.7339V26.3752C175.137 26.2141 175.016 26.0777 174.855 26.0523C173.123 25.7789 172.569 25.3788 172.569 24.3328V18.0656C172.569 18.0237 172.577 17.9819 172.594 17.9433C173.214 16.4912 174.374 15.5789 175.723 15.4974C176.314 15.4573 176.919 15.6074 177.42 15.873C177.651 15.9957 177.969 15.867 177.998 15.6096L178.288 13.1001C178.306 12.9428 178.207 12.7944 178.049 12.7654C177.688 12.699 177.234 12.6741 176.728 12.7174Z" fill="#111111"/>
<path d="M211.13 12.7174C209.891 12.7988 208.714 13.4973 207.812 15.013C207.622 15.3322 206.97 15.2076 206.97 14.8375V13.2533C206.97 13.0745 206.823 12.9295 206.642 12.9295H202.218C202.036 12.9295 201.889 13.0745 201.889 13.2533V13.481C201.889 13.6392 202.005 13.7743 202.164 13.8004L202.224 13.8103C203.425 13.9755 203.76 15.4974 203.76 16.4608V24.3328C203.76 25.366 203.416 25.7447 202.15 26.0376C201.999 26.0727 201.889 26.2044 201.889 26.3579V26.7339C201.889 26.9127 202.036 27.0577 202.218 27.0577H209.21C209.391 27.0577 209.538 26.9127 209.538 26.7339V26.3752C209.538 26.2141 209.417 26.0777 209.256 26.0523C207.524 25.7789 206.97 25.3788 206.97 24.3328V18.0656C206.97 18.0237 206.978 17.9819 206.995 17.9433C207.615 16.4912 208.775 15.5789 210.125 15.4974C210.715 15.4573 211.32 15.6074 211.821 15.873C212.052 15.9957 212.37 15.867 212.4 15.6096L212.689 13.1001C212.708 12.9428 212.608 12.7944 212.45 12.7654C212.089 12.699 211.635 12.6741 211.13 12.7174Z" fill="#111111"/>
<path d="M195.168 12.7725C191.092 12.7725 188.273 15.6901 188.273 20.4518C188.273 24.1126 190.59 27.4431 194.777 27.4431C197.81 27.4431 199.888 25.5854 200.689 23.3383C200.744 23.1842 200.666 23.0169 200.514 22.9506L200.288 22.8513C200.137 22.7855 199.962 22.8399 199.868 22.9727C199.032 24.1519 197.624 25.0484 195.922 25.0484C193.413 25.0484 191.687 23.0959 191.422 19.9106C191.406 19.7262 191.556 19.571 191.744 19.571H200.532C200.714 19.571 200.862 19.4244 200.856 19.2448C200.731 15.5774 198.937 12.7725 195.168 12.7725ZM194.721 14.0111C196.534 14.0111 197.354 15.5921 197.546 17.9634C197.561 18.1485 197.41 18.3049 197.222 18.3049H191.784C191.592 18.3049 191.44 18.1421 191.463 17.9538C191.751 15.5408 192.829 14.0111 194.721 14.0111Z" fill="#111111"/>
<path d="M218.845 12.7725C215.551 12.7725 213.457 14.3964 213.485 16.9562C213.513 22.0482 221.72 20.5069 221.748 24.03C221.776 25.4062 220.576 26.287 219.124 26.287C217.708 26.287 216.464 25.2428 215.509 23.2455C215.415 23.0487 215.157 22.9879 214.988 23.1278L213.1 24.6931C212.97 24.8008 212.944 24.9894 213.053 25.1177C214.061 26.3041 216.33 27.4431 218.845 27.4431C222.251 27.4431 224.317 25.4338 224.317 23.1217C224.317 17.5617 215.997 19.1857 215.997 15.8552C215.997 14.6717 217.114 13.9285 218.538 13.9285C219.902 13.9285 220.981 14.7937 221.775 16.5241C221.873 16.7375 222.16 16.796 222.327 16.6293L224.003 14.9553C224.119 14.8401 224.131 14.6576 224.019 14.5394C223.328 13.8118 221.728 12.7725 218.845 12.7725Z" fill="#111111"/>
<path fill-rule="evenodd" clip-rule="evenodd" d="M114.689 17.3448C114.689 11.3169 118.744 7.38086 124.596 7.38086C130.766 7.38086 134.2 12.6737 134.2 17.518C134.2 20.177 133.347 22.4344 131.933 24.127C131.83 24.251 131.828 24.4314 131.937 24.5505C133.245 25.974 134.753 26.6957 136.291 26.7392C136.386 26.7419 136.476 26.7813 136.538 26.8511L138.161 28.6684C138.32 28.8457 138.237 29.125 138.004 29.1813C134.68 29.9855 132.132 28.8264 130.115 26.1706C130.008 26.0305 129.81 25.9944 129.659 26.0866C128.151 27.0065 126.366 27.5094 124.457 27.5094C118.287 27.5094 114.689 23.0262 114.689 17.3448ZM129.701 21.5119C129.868 21.721 130.205 21.6646 130.269 21.4062C130.502 20.4587 130.613 19.4147 130.598 18.3162C130.543 14.0499 128.449 8.64699 124.01 8.67452C120.619 8.72479 118.742 12.8712 118.484 16.7409C118.47 16.9522 118.667 17.1142 118.879 17.0774C122.474 16.453 126.497 17.4895 129.701 21.5119ZM118.487 18.6987C118.476 18.5389 118.589 18.3965 118.749 18.3691C123.155 17.6134 126.556 19.6364 128.52 23.5598C128.617 23.7524 128.715 23.9409 128.814 24.125C128.876 24.2392 128.865 24.3792 128.78 24.478C127.869 25.5398 126.619 26.1766 125.043 26.1883C120.871 26.2397 118.769 22.6277 118.487 18.6987Z" fill="#111111"/>
<path fill-rule="evenodd" clip-rule="evenodd" d="M0.179688 27.0707V7.0369L11.3865 0.615234L22.5933 7.0369V27.0707H0.179688ZM10.3359 20.2184V23.5145H3.68182V20.2184C3.68182 18.3981 5.17138 16.9224 7.00885 16.9224C8.84632 16.9224 10.3359 18.3981 10.3359 20.2184ZM15.7642 8.50867C13.8784 8.50867 12.3496 10.0232 12.3496 11.8914C12.3496 13.7597 13.8784 15.2742 15.7642 15.2742C17.65 15.2742 19.1788 13.7597 19.1788 11.8914C19.1788 10.0232 17.65 8.50867 15.7642 8.50867Z" fill="#111111"/>
</g>
<defs>
<clipPath id="clip0_2097_12474">
<rect width="225" height="30" fill="white"/>
</clipPath>
</defs>
</svg>
