<svg width="239" height="27" viewBox="0 0 239 27" fill="none" xmlns="http://www.w3.org/2000/svg">
<g clip-path="url(#clip0_2097_12685)">
<path d="M0.0488281 17.9189H4.8382C4.8382 20.9633 7.54524 22.748 16.534 22.748C23.6834 22.748 26.321 21.4182 26.321 18.9687C26.321 16.3442 24.6204 15.9243 15.4928 15.3644C5.25467 14.7695 1.02059 13.0898 1.02059 7.70081C1.02059 2.34684 6.60819 0.597168 15.2846 0.597168C24.3428 0.597168 29.9998 3.32665 30.0345 8.89058H25.2798C25.2798 5.70619 22.2951 4.44643 14.6946 4.44643C7.57994 4.44643 5.77525 5.6362 5.77525 7.91077C5.77525 10.2903 7.57994 10.9202 15.6664 11.4801C25.141 12.145 31.0756 12.5999 31.0756 18.7237C31.0756 25.1275 24.6204 26.5972 16.5687 26.5972C6.60819 26.5972 0.395884 24.4976 0.0488281 17.9189Z" fill="#111111"/>
<path d="M35.7441 1.29736H40.1864V25.8976H35.7441V1.29736Z" fill="#111111"/>
<path d="M44.8203 13.6147C44.8203 5.6712 50.5814 0.597168 60.4725 0.597168C69.6695 0.597168 74.563 4.86635 75.2571 10.0804H70.4677C69.7736 6.72099 66.4072 4.58641 60.4725 4.58641C50.9285 4.58641 49.6097 10.6053 49.6097 13.6497C49.6097 16.6941 51.2408 22.713 60.889 22.713C65.2619 22.713 67.6913 22.1181 70.7454 20.7883V16.7991H60.1602V13.0898H75.2571V22.713C70.0165 25.5824 66.0601 26.5972 60.8543 26.5972C50.8938 26.5972 44.8203 21.5582 44.8203 13.6147Z" fill="#111111"/>
<path d="M84.7548 11.6204H105.648V1.29736H110.09V25.8976H105.648V15.6096H84.7548V25.8976H80.3125V1.29736H84.7548V11.6204Z" fill="#111111"/>
<path d="M114.469 5.28659V1.29736H144.316V5.28659H131.613V25.8976H127.206V5.28659H114.469Z" fill="#111111"/>
<path d="M148.707 1.29736H174.389V5.28659H153.149V13.545H172.307V17.5343H153.149V25.8976H148.707V1.29736Z" fill="#111111"/>
<path d="M209.514 1.29736V13.9299C209.514 22.4333 204.898 26.5975 194.243 26.5975C183.554 26.5975 178.973 22.4683 178.973 13.9299V1.29736H183.415V13.86C183.415 17.7792 184.387 22.6083 194.243 22.6083C204.134 22.6083 205.106 17.7442 205.106 13.86V1.29736H209.514Z" fill="#111111"/>
<path d="M214.865 1.29736H219.307V21.9084H238.048V25.8976H214.865V1.29736Z" fill="#111111"/>
</g>
<defs>
<clipPath id="clip0_2097_12685">
<rect width="239" height="27" fill="white"/>
</clipPath>
</defs>
</svg>
