<svg width="177" height="28" viewBox="0 0 177 28" fill="none" xmlns="http://www.w3.org/2000/svg">
<g clip-path="url(#clip0_2097_12458)">
<mask id="mask0_2097_12458" style="mask-type:luminance" maskUnits="userSpaceOnUse" x="0" y="0" width="177" height="28">
<path d="M176.164 0.59375H0.193359V27.0914H176.164V0.59375Z" fill="white"/>
</mask>
<g mask="url(#mask0_2097_12458)">
<path d="M8.06548 8.65031C10.5255 8.65031 11.7204 9.6574 11.7204 11.359C11.7204 13.0259 10.7012 14.033 8.10062 14.033C5.50001 14.033 4.55114 12.9912 4.55114 11.359C4.55114 9.72685 5.53516 8.65031 8.06548 8.65031ZM8.34663 24.3123C4.12942 24.3123 3.1454 23.8609 3.1454 22.6107C3.1454 21.812 3.91856 21.0132 5.64059 21.0132H11.9664C13.337 21.0132 13.7939 21.6383 13.7939 22.3676C13.7939 23.6872 12.845 24.3123 8.34663 24.3123ZM8.41691 27.0905C14.6724 27.1252 16.8162 25.4236 16.8162 22.3676C16.8162 19.8325 15.3402 18.3045 11.8258 18.3045C9.99837 18.3045 7.88976 18.4087 5.92173 18.4087C4.93772 18.4087 4.48085 18.1656 4.48085 17.5405C4.48085 17.2627 4.65657 17.0543 4.86743 16.707L5.21886 16.1514C6.06231 16.3945 7.01118 16.4987 8.06548 16.4987C12.5638 16.4987 14.9887 15.0054 14.9887 12.123C14.9887 9.93522 13.4424 9.06703 11.4041 8.68503V8.65031C12.5638 8.71976 13.3721 8.71976 14.1804 8.71976H16.3242V5.55957H8.2412C3.77799 5.55957 1.14223 7.57376 1.14223 11.1507C1.14223 13.5816 2.47768 15.3179 4.93772 16.0819L3.67256 16.6376C2.33711 17.089 1.5991 17.9572 1.5991 18.7907C1.5991 20.0061 2.51282 20.7701 4.12942 20.9785C1.56395 21.2911 0.193359 22.3676 0.193359 23.7567C0.193359 25.8056 1.98567 27.1252 8.41691 27.0905Z" fill="#111111"/>
<path d="M21.7641 21.8814V13.6163C21.7641 10.7687 22.9239 9.76158 25.8759 9.76158H27.4925V5.55957H26.5436C24.0485 5.55957 22.5724 6.67085 21.8344 10.9076H21.7641V5.55957H17.9688V21.8814H21.7641Z" fill="#111111"/>
<path d="M36.2683 22.3331C41.5047 22.3331 44.7027 19.034 44.7027 13.686C44.7027 8.30326 41.329 5.14307 36.2683 5.14307C31.1725 5.14307 27.7988 8.30326 27.7988 13.686C27.7988 19.034 30.9617 22.3331 36.2683 22.3331ZM36.2683 8.54635C39.1852 8.54635 40.9424 10.5258 40.9424 13.6512C40.9424 16.8114 39.2555 18.8951 36.2332 18.8951C33.246 18.8951 31.5943 16.8114 31.5943 13.6512C31.5943 10.5258 33.3163 8.54635 36.2683 8.54635Z" fill="#111111"/>
<path d="M57.3494 21.8814H61.1449V5.55957H57.3494V15.2138C57.3494 17.5405 55.8734 18.9296 53.4485 18.9296C50.8831 18.9296 50.0045 17.1932 50.0045 15.2138V5.55957H46.209V16.2209C46.209 19.7283 47.7202 22.3329 51.6914 22.3329C54.4677 22.3329 56.5763 20.9091 57.3143 17.4016H57.3494V21.8814Z" fill="#111111"/>
<path d="M67.4088 12.2274C67.4088 9.90072 68.8848 8.51163 71.3097 8.51163C73.8752 8.51163 74.7537 10.248 74.7537 12.2274V21.8816H78.5492V11.255C78.5492 7.7129 77.0381 5.14307 73.0668 5.14307C70.2905 5.14307 68.1819 6.56689 67.4439 10.0396H67.4088V5.5598H63.6133V21.8816H67.4088V12.2274Z" fill="#111111"/>
<path d="M88.1162 18.9298C85.1642 18.9298 83.8287 17.0545 83.8287 13.7901C83.8287 10.4216 85.2345 8.47686 88.1162 8.47686C90.8223 8.47686 92.5092 10.491 92.5092 13.6165V13.8943C92.5092 17.124 90.8223 18.9298 88.1162 18.9298ZM92.5092 21.8816H96.3046V0.59375H92.5092V10.248H92.474C91.736 6.8794 89.8734 5.10831 86.5699 5.14303C82.423 5.10831 80.0684 8.37268 80.0684 13.7901C80.0684 19.0687 82.2824 22.3331 86.5699 22.3331C89.768 22.3331 91.7009 20.562 92.4389 17.2629H92.5092V21.8816Z" fill="#111111"/>
<path d="M110.706 12.3663L114.361 11.776C113.694 7.57399 111.409 5.14307 106.454 5.14307C101.428 5.14307 97.9492 8.33799 97.9492 13.7554C97.9492 19.3118 101.358 22.3331 106.559 22.3331C111.339 22.3331 113.729 19.7285 114.396 15.5612L110.777 14.832C110.249 17.1587 109.265 18.8951 106.489 18.8951C103.678 18.8951 101.815 17.0545 101.815 13.7207C101.815 10.2132 103.713 8.54635 106.419 8.54635C108.984 8.54635 110.214 10.0743 110.706 12.3663Z" fill="#111111"/>
<path d="M123.748 22.3331C128.985 22.3331 132.183 19.034 132.183 13.686C132.183 8.30326 128.809 5.14307 123.748 5.14307C118.652 5.14307 115.279 8.30326 115.279 13.686C115.279 19.034 118.442 22.3331 123.748 22.3331ZM123.748 8.54635C126.665 8.54635 128.422 10.5258 128.422 13.6512C128.422 16.8114 126.735 18.8951 123.713 18.8951C120.726 18.8951 119.074 16.8114 119.074 13.6512C119.074 10.5258 120.796 8.54635 123.748 8.54635Z" fill="#111111"/>
<path d="M142.793 21.8814L149.259 5.55957H145.288L143.004 11.8799C142.231 14.0678 141.422 16.3945 140.684 18.4781H140.614C139.911 16.3945 139.068 14.0678 138.295 11.8799L136.045 5.55957H131.934L138.47 21.8814H142.793Z" fill="#111111"/>
<path d="M157.276 8.30326C159.877 8.30326 161.212 9.6229 161.423 12.158H152.778C153.2 9.51872 154.781 8.30326 157.276 8.30326ZM157.382 22.2983C161.74 22.2983 163.989 20.1452 164.832 17.0198L161.529 16.0821C161.037 17.7491 160.053 19.034 157.417 19.034C154.711 19.034 153.094 17.6796 152.743 14.9361H164.867C164.938 14.068 164.938 13.4081 164.938 12.7483C164.938 8.26853 162.407 5.14307 157.382 5.14307C152.251 5.14307 148.947 8.40744 148.947 13.9291C148.947 19.3118 152.321 22.2983 157.382 22.2983Z" fill="#111111"/>
<path d="M170.436 21.8814V13.6163C170.436 10.7687 171.596 9.76158 174.548 9.76158H176.165V5.55957H175.216C172.721 5.55957 171.245 6.67085 170.507 10.9076H170.436V5.55957H166.641V21.8814H170.436Z" fill="#111111"/>
</g>
</g>
<defs>
<clipPath id="clip0_2097_12458">
<rect width="177" height="28" fill="white"/>
</clipPath>
</defs>
</svg>
