<svg width="130" height="35" viewBox="0 0 130 35" fill="none" xmlns="http://www.w3.org/2000/svg">
<g clip-path="url(#clip0_2097_12606)">
<mask id="mask0_2097_12606" style="mask-type:luminance" maskUnits="userSpaceOnUse" x="0" y="0" width="130" height="35">
<path d="M129.091 0.734375H0V34.1002H129.091V0.734375Z" fill="white"/>
</mask>
<g mask="url(#mask0_2097_12606)">
<path d="M9.68936 9.33666C7.58762 9.33666 5.27215 10.1897 4.13223 11.9669V0.734863H0V26.3625H4.13223V24.1232C5.27215 25.9004 7.65887 26.789 9.65373 26.789C14.0353 26.789 17.8469 23.3412 17.8469 18.0451C17.8469 12.7134 14.0709 9.33666 9.68936 9.33666ZM9.01253 22.9502C6.48332 22.9502 4.20347 20.9242 4.20347 18.0095C4.20347 15.0949 6.62581 13.1755 9.01253 13.1755C11.5774 13.1755 13.7147 15.237 13.7147 18.0095C13.7147 20.782 11.5774 22.9502 9.01253 22.9502Z" fill="#111111"/>
<path d="M34.494 12.0739C33.3897 10.3322 31.1811 9.33691 28.9013 9.33691C24.1991 9.33691 20.7793 13.0336 20.7793 18.0454C20.7793 23.1994 24.3416 26.7894 28.7944 26.7894C31.1811 26.7894 33.3897 25.5808 34.494 23.7681V26.3628H38.6262V9.76344H34.494V12.0739ZM29.6493 22.9505C26.942 22.9505 24.9115 20.7112 24.9115 18.0454C24.9115 15.3795 26.942 13.1758 29.6137 13.1758C32.0717 13.1758 34.4228 15.2018 34.4228 18.0454C34.4228 20.8179 32.2142 22.9505 29.6493 22.9505Z" fill="#111111"/>
<path d="M44.056 34.0985L53.3318 0.780273H49.1995L39.9238 34.0985H44.056Z" fill="#111111"/>
<path d="M66.4217 12.0739C65.3174 10.3322 63.1088 9.33691 60.829 9.33691C56.1268 9.33691 52.707 13.0336 52.707 18.0454C52.707 23.1994 56.2693 26.7894 60.7221 26.7894C63.1088 26.7894 65.3174 25.5808 66.4217 23.7681V26.3628H70.554V9.76344H66.4217V12.0739ZM61.577 22.9505C58.8697 22.9505 56.8392 20.7112 56.8392 18.0454C56.8392 15.3795 58.8697 13.1758 61.5414 13.1758C63.9994 13.1758 66.3505 15.2018 66.3505 18.0454C66.3505 20.8179 64.1419 22.9505 61.577 22.9505Z" fill="#111111"/>
<path d="M84.4381 9.33691C82.7282 9.33691 80.1278 10.2967 79.2729 12.3938V9.76344H75.1406V26.3628H79.2729V17.5478C79.2729 14.3487 81.6239 13.2469 83.5119 13.2469C85.3643 13.2469 86.9673 14.6686 86.9673 17.3345V26.3628H91.0996V17.0501C91.0996 12.2161 88.7129 9.33691 84.4381 9.33691Z" fill="#111111"/>
<path d="M103.351 26.7894C106.236 26.7894 108.587 25.5098 110.119 23.5903L107.198 21.2799C106.343 22.3107 104.918 22.9505 103.422 22.9505C100.537 22.9505 98.4706 20.8179 98.4706 18.0454C98.4706 15.2374 100.537 13.1758 103.422 13.1758C104.918 13.1758 106.343 13.8156 107.198 14.8464L110.119 12.536C108.587 10.6166 106.236 9.33691 103.351 9.33691C98.5418 9.33691 94.3027 12.7848 94.3027 18.0454C94.3027 23.306 98.5418 26.7894 103.351 26.7894Z" fill="#111111"/>
<path d="M129.092 17.9032C129.092 12.7137 125.352 9.33691 120.614 9.33691C115.841 9.33691 111.887 12.7492 111.887 18.0454C111.887 23.2349 115.663 26.7894 120.614 26.7894C123.642 26.7894 126.599 25.4387 128.131 23.0216L125.352 20.9245C124.39 22.2752 122.645 23.0572 120.864 23.0572C118.37 23.0572 116.589 21.8131 116.126 19.5027H129.021C129.057 18.8985 129.092 18.3653 129.092 17.9032ZM116.126 16.6236C116.625 14.0999 118.441 12.998 120.65 12.998C122.965 12.998 124.747 14.3487 124.996 16.6236H116.126Z" fill="#111111"/>
</g>
</g>
<defs>
<clipPath id="clip0_2097_12606">
<rect width="130" height="35" fill="white"/>
</clipPath>
</defs>
</svg>
