<svg width="102" height="33" viewBox="0 0 102 33" fill="none" xmlns="http://www.w3.org/2000/svg">
<path d="M28.6047 16.7828C28.8215 17.4332 28.9549 18.0947 29.0049 18.7701C29.0772 19.4456 29.1133 20.221 29.1133 21.0966V31.7532H23.5904V21.6608C23.5904 20.6102 23.4932 19.8347 23.2986 19.3344C23.104 18.809 22.7649 18.3977 22.2813 18.0975C21.8199 17.7973 21.2529 17.6472 20.5747 17.6472C19.4851 17.6472 18.5651 18.0224 17.8146 18.7729C17.0641 19.4984 16.6889 20.4239 16.6889 21.5496V31.756H11.166V13.1805H16.6889V18.9202C17.1003 17.0941 17.9008 15.6182 19.0876 14.4925C20.2745 13.3668 21.7031 12.8053 23.3736 12.8053C24.705 12.8053 25.8085 13.1694 26.6785 13.8921C27.5763 14.6203 28.2155 15.582 28.6047 16.7828Z" fill="white"/>
<path d="M41.0568 32.1312C39.1667 32.1312 37.449 31.7309 35.898 30.9304C34.3721 30.1049 33.1741 28.9681 32.3013 27.5172C31.4286 26.0413 30.9922 24.3652 30.9922 22.4891C30.9922 20.5879 31.4286 18.9118 32.3013 17.4609C33.1741 15.985 34.3721 14.8482 35.898 14.0477C37.449 13.2222 39.1667 12.8108 41.0568 12.8108C42.9469 12.8108 44.6535 13.2222 46.1794 14.0477C47.7304 14.8482 48.9395 15.985 49.8123 17.4609C50.685 18.9118 51.1186 20.5879 51.1186 22.4891C51.1186 24.3652 50.6822 26.0413 49.8123 27.5172C48.9395 28.9681 47.7304 30.1049 46.1794 30.9304C44.6535 31.7309 42.9469 32.1312 41.0568 32.1312ZM41.0568 26.8779C42.2909 26.8779 43.2971 26.4777 44.0726 25.6772C44.8481 24.8516 45.2344 23.776 45.2344 22.4501C45.2344 21.1243 44.8342 20.0625 44.0364 19.262C43.261 18.4615 42.2687 18.0613 41.0568 18.0613C39.8227 18.0613 38.8054 18.4615 38.0049 19.262C37.2294 20.0625 36.8431 21.1243 36.8431 22.4501C36.8431 23.776 37.2294 24.8516 38.0049 25.6772C38.8054 26.4777 39.8227 26.8779 41.0568 26.8779Z" fill="white"/>
<path d="M58.5191 18.433V23.4223C58.5191 24.3979 58.761 25.1595 59.2446 25.7098C59.7282 26.2351 60.4926 26.4964 61.5349 26.4964H64.2588V31.7497H60.5899C59.1862 31.7497 57.9021 31.4745 56.7402 30.9242C55.6006 30.3488 54.6945 29.5372 54.0163 28.4865C53.3381 27.4109 52.999 26.1601 52.999 24.7342V6.76465H58.5219V13.1798H64.2616V18.433H58.5191Z" fill="white"/>
<path d="M75.3519 32.1319C73.5118 32.1319 71.8413 31.7456 70.3376 30.9701C68.8367 30.1946 67.6498 29.0828 66.7771 27.6319C65.9293 26.156 65.5068 24.4438 65.5068 22.4926C65.5068 20.5164 65.9432 18.8042 66.816 17.3533C67.6888 15.8774 68.8756 14.7517 70.3765 13.9762C71.9025 13.2007 73.598 12.8143 75.463 12.8143C77.4726 12.8143 79.4461 13.2007 81.3862 13.9762V19.3795C79.4961 18.504 77.6672 18.0676 75.8994 18.0676C74.568 18.0676 73.4785 18.4567 72.6307 19.2294C71.783 19.9799 71.3605 21.0556 71.3605 22.4565C71.3605 23.8573 71.783 24.9441 72.6307 25.7196C73.4785 26.4951 74.568 26.8814 75.8994 26.8814C77.884 26.8814 79.7268 26.4061 81.4223 25.4556V30.8589C79.4572 31.7067 77.4337 32.1319 75.3519 32.1319Z" fill="white"/>
<path d="M101.296 16.7819C101.513 17.4323 101.646 18.0938 101.696 18.7692C101.769 19.4447 101.805 20.2201 101.805 21.0957V31.7523H96.2818V21.6599C96.2818 20.6093 96.1846 19.8338 95.99 19.3335C95.7954 18.8082 95.4563 18.3968 94.9727 18.0966C94.5113 17.7964 93.9443 17.6463 93.2661 17.6463C92.1765 17.6463 91.2565 18.0216 90.506 18.772C89.7555 19.4975 89.3803 20.423 89.3803 21.5488V31.7551H83.8574V5.03845H89.3803V18.9221C89.7917 17.096 90.5922 15.6201 91.779 14.4944C92.9659 13.3686 94.3945 12.8072 96.065 12.8072C97.3964 12.8072 98.4999 13.1713 99.3699 13.894C100.265 14.6194 100.907 15.5811 101.296 16.7819Z" fill="white"/>
<path d="M6.04467 1.28883C6.12485 0.757889 6.89021 0.757889 6.97039 1.28883L7.13902 2.4054C7.51467 4.89274 9.32976 6.92043 11.7605 7.56814L12.3999 7.73853C12.8633 7.86202 12.8633 8.51969 12.3999 8.64318L11.7605 8.81356C9.32976 9.46128 7.51467 11.489 7.13902 13.9763L6.97039 15.0929C6.89021 15.6238 6.12485 15.6238 6.04467 15.0929L5.87604 13.9763C5.5004 11.489 3.6853 9.46128 1.25457 8.81357L0.615158 8.64318C0.151718 8.51969 0.151718 7.86202 0.615158 7.73853L1.25457 7.56814C3.6853 6.92043 5.5004 4.89275 5.87604 2.4054L6.04467 1.28883Z" fill="white"/>
</svg>
