<svg width="149" height="40" viewBox="0 0 149 40" fill="none" xmlns="http://www.w3.org/2000/svg">
<path d="M21.3016 33.2974C21.3016 33.627 21.027 33.7918 20.5875 33.7918H20.2029C18.39 33.7918 15.3135 33.9017 14.3521 30.6879C13.528 32.4733 11.8799 34.2588 8.61109 34.2588C3.94141 34.2588 1.93619 31.6767 1.93619 26.5401V18.8488C1.93619 17.5853 1.88125 16.981 1.13959 16.7337C0.727562 16.6513 0.507812 16.4865 0.507812 16.1569C0.507812 15.8547 0.727562 15.6625 1.16706 15.635C2.26581 15.635 4.65559 15.6075 7.56728 15.1406C7.97931 15.0307 8.254 15.2504 8.254 15.6625V26.5401C8.254 29.0672 8.80337 31.3196 11.1657 31.3196C13.6104 31.3196 14.0224 28.5728 14.0224 26.183V18.8488C14.0224 17.5853 13.9126 16.981 13.1709 16.7337C12.8138 16.6239 12.5666 16.4591 12.5666 16.1294C12.5666 15.8273 12.7589 15.635 13.1984 15.6075C14.2971 15.6075 16.7144 15.5801 19.6261 15.1131C20.0381 15.0307 20.3128 15.2504 20.3128 15.6625V30.0286C20.3128 31.0724 20.2853 32.4459 20.8347 32.803C21.0544 32.9678 21.3016 33.0502 21.3016 33.2974Z" fill="white"/>
<path d="M43.5781 25.4395C43.3583 31.7299 39.0457 34.8888 33.7443 34.0647C32.0412 33.79 30.8326 32.9659 30.0909 31.8672V36.839C30.0909 38.185 30.448 38.7893 31.4369 38.9816C31.8214 39.0365 32.0687 39.1739 32.0687 39.476C32.0687 39.8057 31.8764 39.943 31.4094 39.9155C30.6403 39.8881 29.2119 39.8057 27.1518 39.8057C25.1191 39.8057 23.7182 39.8606 23.004 39.9155C22.537 39.943 22.3447 39.8057 22.3447 39.476C22.3447 39.1739 22.537 39.0365 22.949 38.9541C23.7182 38.7344 23.8006 38.0751 23.8006 36.839V19.4239C23.8006 18.1603 23.6907 17.556 22.949 17.3088C22.5919 17.1989 22.3447 17.0341 22.3447 16.7045C22.3447 16.4023 22.5095 16.21 22.8666 16.1825C24.0203 16.0177 26.4925 15.798 29.0196 15.0289C29.4866 14.8915 29.7338 15.0014 29.7888 15.4134L29.9536 17.6109C31.0523 15.798 32.7828 14.5344 35.5297 14.5344C40.8587 14.5619 43.8253 19.0118 43.5781 25.4395ZM37.1229 24.0935C37.0405 19.5063 35.31 17.0066 33.1949 17.1714C30.9974 17.3088 29.7888 20.0007 30.0085 25.7142C30.1733 30.2191 31.8214 32.3342 33.9915 32.1968C36.2164 32.032 37.2328 28.5435 37.1229 24.0935Z" fill="white"/>
<path d="M73.0734 20.0018L67.8269 33.3241C67.6896 33.6263 67.4698 33.8186 67.1402 33.8186H63.377C63.0473 33.8186 62.8276 33.6538 62.6902 33.3241L59.2292 23.8474L55.4385 33.3516C55.3286 33.6538 55.0814 33.846 54.7518 33.846L53.9003 33.8186V33.846H51.0435C50.7139 33.846 50.4941 33.6812 50.3568 33.3516L44.7532 18.1339C44.2313 16.7056 43.9566 16.2935 43.16 15.9914C42.7754 15.854 42.5557 15.7167 42.5557 15.442C42.5557 15.1673 42.7479 15.0025 43.2149 15.0574C44.0115 15.0849 45.33 15.1673 47.4726 15.1673C49.4503 15.1673 50.6315 15.1398 51.3182 15.0574C51.7577 15.03 51.9774 15.1673 51.9774 15.442C51.9774 15.7167 51.7577 15.8815 51.4281 16.0463C50.9611 16.3485 51.1259 16.9253 51.4555 18.1614L54.9715 30.1652L58.1854 21.128L57.0866 18.1339C56.5647 16.7056 56.2626 16.2935 55.466 16.0188C55.1089 15.854 54.8617 15.7167 54.8617 15.4145C54.8617 15.1398 55.0539 14.975 55.5209 15.03C56.3175 15.0574 57.6635 15.1673 59.806 15.1673C61.7563 15.1673 62.9649 15.1124 63.6242 15.03C64.0637 15.0025 64.3109 15.1398 64.3109 15.4145C64.3109 15.7442 64.0912 15.854 63.7615 16.0463C63.2671 16.321 63.4319 16.9253 63.789 18.1339L67.2775 30.1378L70.4639 21.2104C71.2605 19.0129 69.0355 18.5734 68.7059 16.6506C68.5136 15.442 69.4201 14.0686 71.0682 14.1784C74.0074 14.2608 74.2271 17.0626 73.0734 20.0018Z" fill="white"/>
<path d="M93.7792 24.3935C93.7792 29.8323 90.016 34.1998 84.0278 34.1998C77.9846 34.1998 74.2764 29.8048 74.2764 24.3935C74.3038 18.9822 77.9846 14.5872 84.0278 14.5872C90.016 14.5597 93.7792 18.9822 93.7792 24.3935ZM80.759 25.0528C81.6105 29.6126 83.396 33.3758 85.8682 32.9363C88.2305 32.3869 88.1755 28.2391 87.3515 23.7343C86.4725 19.2294 84.687 15.4112 82.2423 15.8507C79.8251 16.4001 79.9075 20.5753 80.759 25.0528Z" fill="white"/>
<path d="M108.008 21.1301C105.069 21.0751 106.58 17.6965 104.327 17.6965C102.899 17.6965 102.816 20.0588 102.816 21.4872V30.6892C102.816 32.0626 103.174 32.6669 104.162 32.8317C104.602 32.9416 104.822 33.0515 104.822 33.3536C104.822 33.6558 104.602 33.8206 104.135 33.7931C103.366 33.7107 101.937 33.6558 99.8773 33.6558C97.8447 33.6558 96.4712 33.7107 95.7296 33.7931C95.2901 33.8206 95.0703 33.6558 95.0703 33.3536C95.0703 33.0515 95.2901 32.9141 95.7021 32.8043C96.4163 32.612 96.5262 31.9527 96.5262 30.6892V20.306C96.5262 19.0424 96.4163 18.3832 95.7021 18.1634C95.3175 18.0536 95.0703 17.8887 95.0703 17.6141C95.0703 17.2844 95.2626 17.1196 95.6197 17.0647C96.7734 16.8724 99.1357 16.2681 101.69 15.032C102.13 14.8122 102.377 15.0045 102.459 15.4715L102.734 17.9712C103.393 16.1307 104.657 14.62 106.964 14.62C112.431 14.565 111.991 21.2399 108.008 21.1301Z" fill="white"/>
<path d="M132.546 33.0494C132.546 33.3516 132.326 33.4889 131.859 33.4889C130.376 33.4889 126.86 33.6537 125.459 33.846C125.019 33.9009 124.772 33.6812 124.772 33.2417V31.3738C123.728 33.0494 122.025 34.2031 119.361 34.2031C114.059 34.2031 111.065 29.7531 111.285 23.3255C111.504 17.0351 115.845 13.8762 121.146 14.7003C122.849 14.975 124.058 15.799 124.799 16.8978V14.8651C124.799 13.6565 124.744 12.9423 124.003 12.75C123.646 12.6127 123.371 12.4478 123.371 12.1457C123.371 11.8161 123.563 11.6512 123.975 11.5414C125.129 11.3766 127.903 10.7722 130.403 9.53616C130.788 9.34388 131.117 9.50869 131.117 9.97566V30.3575C131.117 31.621 131.227 32.2803 131.941 32.4726C132.326 32.6374 132.546 32.7198 132.546 33.0494ZM124.854 23.0782C124.689 18.5734 123.041 16.4583 120.871 16.5956C118.674 16.7604 117.685 20.249 117.74 24.6989C117.85 29.2862 119.553 31.7858 121.668 31.621C123.865 31.4837 125.074 28.7643 124.854 23.0782Z" fill="white"/>
<path d="M138.574 9.44585C138.207 9.44585 137.829 9.45399 137.508 9.43772C136.185 9.43772 135.294 8.73794 134.627 7.68422C134.257 7.09836 134.407 6.82984 135.099 6.76882C136.084 6.68745 138.195 6.60608 139.045 6.54098L136.429 2.41151C136.368 2.31387 136.429 2.18775 136.539 2.17148C137.691 2.02094 138.582 2.29353 139.265 2.96075C139.998 3.67273 140.653 4.70612 141.312 5.5727C142.04 4.64509 143.395 2.48068 144.192 1.34558C144.546 0.841096 144.945 0.824822 145.266 1.27235C145.657 1.79311 145.97 2.37083 146.198 2.9811C146.295 3.27402 146.129 3.71749 145.954 4.01448C145.49 4.79155 144.953 5.52794 144.351 6.41893C144.876 6.48403 145.148 6.5003 145.588 6.56946C146.727 6.74441 147.557 7.17973 148.22 8.00156C148.317 8.12361 148.549 8.54673 148.444 8.88034C148.391 9.05121 147.951 9.17734 147.679 9.19768C146.694 9.27091 144.432 9.27498 143.781 9.26277C144.074 9.72657 144.359 10.2067 144.579 10.5606C145.079 11.354 145.583 12.1514 146.088 12.9447C146.397 13.4289 146.255 13.7299 145.722 13.8927C145.258 14.031 144.762 14.031 144.31 13.8601C143.858 13.6892 143.5 13.3475 143.228 12.9488C142.744 12.2287 141.841 10.7681 141.588 10.4426C140.868 11.5086 140.038 12.7616 139.342 13.8316C138.647 14.9016 138.15 14.8854 137.487 13.7787C136.942 12.8715 136.731 11.9764 137.487 11.0488C137.841 10.5606 138.574 9.44585 138.574 9.44585Z" fill="white"/>
</svg>
