<svg width="95" height="22" viewBox="0 0 95 22" fill="none" xmlns="http://www.w3.org/2000/svg">
<g clip-path="url(#clip0_2097_12818)">
<path d="M0 0.354004H12.2563L10.4769 3.69129H3.6315V9.22858H11.2213V12.5659H3.6315V18.2896H15.5065L12.6558 21.6269H0V0.354004Z" fill="#111111"/>
<path d="M16.9414 0.354004H20.3187L31.413 15.0828V0.354004H34.99V21.6269H31.9577L20.5185 6.50655V21.6455H16.9414V0.354004Z" fill="#111111"/>
<path d="M37.2227 0.354004H44.9396C51.4581 0.354004 55.9612 4.94044 55.9612 10.9252V10.9998C55.9612 16.9845 51.4581 21.6455 44.9396 21.6455H37.2227V0.354004ZM40.8542 3.76586V18.2337H44.9396C49.2974 18.2337 52.13 15.232 52.13 11.0557V10.9998C52.13 6.84213 49.2792 3.76586 44.9396 3.76586H40.8542Z" fill="#111111"/>
<path d="M57.4141 11.0559V11C57.4141 5.01525 61.9171 0 68.2722 0C74.6274 0 79.076 4.95932 79.076 10.9441V11C79.076 16.9847 74.5729 22 68.2178 22C61.8627 22 57.4141 17.0593 57.4141 11.0559ZM75.2629 11.0559V11C75.2629 6.86102 72.3395 3.43051 68.2178 3.43051C64.096 3.43051 61.2271 6.80508 61.2271 10.9441V11C61.2271 15.139 64.1505 18.5322 68.2722 18.5322C72.394 18.5322 75.2629 15.1949 75.2629 11.0559Z" fill="#111111"/>
<path d="M89.4075 13.5913C92.2764 12.7337 94.3282 10.6455 94.3282 7.14044V7.08452C94.3282 5.23875 93.7108 3.65401 92.6032 2.49808C91.2596 1.15569 89.2259 0.354004 86.6112 0.354004H77.3691L79.6206 3.76586H86.3207C89.008 3.76586 90.6059 5.01503 90.6059 7.2896V7.34552C90.6059 9.50824 88.8991 11.41 83.7968 11.2049L83.7787 11.1676L85.5763 14.2252L90.6785 21.6455H95L89.4075 13.5913Z" fill="#111111"/>
</g>
<defs>
<clipPath id="clip0_2097_12818">
<rect width="95" height="22" fill="white"/>
</clipPath>
</defs>
</svg>
