<svg width="100" height="34" viewBox="0 0 100 34" fill="none" xmlns="http://www.w3.org/2000/svg">
<mask id="mask0_2400_1573" style="mask-type:luminance" maskUnits="userSpaceOnUse" x="0" y="0" width="100" height="34">
<path fill-rule="evenodd" clip-rule="evenodd" d="M50.0491 33.3858H0.333008V0H50.0491H99.7652V33.3858H50.0491Z" fill="white"/>
</mask>
<g mask="url(#mask0_2400_1573)">
<path fill-rule="evenodd" clip-rule="evenodd" d="M99.4144 9.9707L98.8444 10.8682L98.2744 9.9707H97.9238V11.8688H98.2476V10.513L98.8336 11.4024H98.8444L99.4358 10.5076V11.8688H99.7649V9.9707H99.4144ZM96.0557 10.2798H96.6498V11.8688H96.9815V10.2798H97.5756V9.9707H96.0557V10.2798ZM95.3474 28.6502L93.5899 26.3516H93.0557V29.676H93.6227V27.3109L95.4317 29.676H95.9145V26.3516H95.3474V28.6502ZM90.8632 28.0221C90.8632 28.6679 90.4085 29.1952 89.757 29.1952C89.1057 29.1952 88.6416 28.6586 88.6416 28.0125V28.0032C88.6416 27.3573 89.0963 26.8301 89.7478 26.8301C90.3991 26.8301 90.8632 27.3667 90.8632 28.0125V28.0221ZM89.7571 26.2949C88.7495 26.2949 88.0371 27.0787 88.0371 28.0141V28.0237C88.0371 28.9593 88.7401 29.7334 89.7478 29.7334C90.7554 29.7334 91.4678 28.9498 91.4678 28.0141V28.0047C91.4678 27.0691 90.7649 26.2949 89.7571 26.2949ZM85.8398 29.676H86.4163V26.3516H85.8398V29.676ZM83.1839 27.7465C82.5558 27.5946 82.4059 27.4806 82.4059 27.2241V27.2147C82.4059 26.9961 82.6027 26.8204 82.9402 26.8204C83.2401 26.8204 83.5353 26.9392 83.8307 27.1623L84.1399 26.7207C83.8072 26.45 83.4277 26.3027 82.9496 26.3027C82.2981 26.3027 81.8295 26.697 81.8295 27.2668V27.2764C81.8295 27.889 82.2231 28.098 82.9213 28.2689C83.5306 28.4114 83.662 28.5396 83.662 28.7771V28.7866C83.662 29.0384 83.4369 29.2046 83.0808 29.2046C82.673 29.2046 82.359 29.0478 82.0449 28.7723L81.6982 29.1903C82.0919 29.5465 82.5652 29.7222 83.0667 29.7222C83.7557 29.7222 84.2384 29.3517 84.2384 28.7295V28.7201C84.2384 28.1692 83.8775 27.9175 83.1839 27.7465ZM79.5752 29.676H80.1517V26.3516H79.5752V29.676ZM76.4827 28.9065L75.4938 26.3516H74.8564L76.2203 29.6997H76.7265L78.0902 26.3516H77.467L76.4827 28.9065ZM73.4473 29.6741H74.0707V29.0234H73.4473V29.6741ZM70.3362 26.3516H69.7598V29.676H72.0609V29.1441H70.3362V26.3516ZM66.0254 28.3551L66.5877 27.0254L67.1549 28.3551H66.0254ZM66.3303 26.3281L64.8867 29.6764H65.4773L65.8148 28.8737H67.366L67.6989 29.6764H68.3082L66.8646 26.3281H66.3303ZM62.3621 29.1967C61.734 29.1967 61.2795 28.6649 61.2795 28.0141V28.0047C61.2795 27.3541 61.734 26.8317 62.3621 26.8317C62.7371 26.8317 63.0182 26.9979 63.2806 27.2449L63.6509 26.8126C63.3369 26.5087 62.9714 26.2949 62.3667 26.2949C61.3732 26.2949 60.6748 27.0691 60.6748 28.0141V28.0237C60.6748 28.9782 61.3872 29.7334 62.3433 29.7334C62.9573 29.7334 63.3322 29.5054 63.6744 29.1446L63.3041 28.7646C63.0229 29.0306 62.7652 29.1967 62.3621 29.1967ZM58.4766 29.676H59.053V26.3516H58.4766V29.676ZM56.2525 28.0226C56.2525 28.6733 55.8026 29.1435 55.1136 29.1435H54.4668V26.8828H55.1136C55.8026 26.8828 56.2525 27.3625 56.2525 28.0131V28.0226ZM55.1139 26.3516H53.8906V29.676H55.1139C56.145 29.676 56.8574 28.9493 56.8574 28.0137V28.0043C56.8574 27.0687 56.145 26.3516 55.1139 26.3516ZM50.4378 28.2607H52.0828V27.7382H50.4378V26.8739H52.2937V26.3516H49.8613V29.676H52.3171V29.1535H50.4378V28.2607ZM46.5155 27.9235L45.5173 26.3516H44.9033V29.676H45.4704V27.3013L46.4968 28.8591H46.5155L47.5513 27.2918V29.676H48.1278V26.3516H47.5138L46.5155 27.9235ZM89.6471 20.029C87.6463 20.029 86.3037 18.6418 86.3037 16.4275C86.3037 14.2134 87.6463 12.8262 89.6471 12.8262C91.6479 12.8262 92.9905 14.2134 92.9905 16.4275C92.9905 18.6418 91.6479 20.029 89.6471 20.029ZM89.6471 9.73242C85.9088 9.73242 83.1973 12.5335 83.1973 16.4283C83.1973 20.3233 86.0405 23.1511 89.6471 23.1511C90.358 23.1511 91.7269 22.8843 92.1219 22.5374L92.6747 19.6296H92.938V23.1511H95.9655V15.7348C95.9655 11.8132 93.2276 9.73242 89.6471 9.73242ZM75.4834 14.6944V23.1511H78.5109V14.7477C78.5109 12.5335 80.3801 12.4268 81.3541 12.3734V9.73242C77.9055 9.73242 75.4834 11.1731 75.4834 14.6944ZM66.2165 20.1891C64.1103 20.1891 62.8203 18.6951 62.8203 16.4809C62.8203 14.2667 64.1103 12.8262 66.2165 12.8262C68.3226 12.8262 69.6126 14.2667 69.6126 16.4809C69.6126 18.6951 68.3226 20.1891 66.2165 20.1891ZM66.2158 9.72892C65.505 9.72892 64.0833 9.99573 63.6883 10.3424L63.1356 13.2504H62.8723V4.90039H59.8447V17.1986C59.8447 21.1201 62.6354 23.281 66.2158 23.281C69.954 23.281 72.7183 20.3997 72.7183 16.5049C72.7183 12.61 69.8224 9.72892 66.2158 9.72892ZM47.3926 15.3064C47.6296 13.8125 48.9458 12.7188 50.5254 12.7188C52.1049 12.7188 53.4213 13.8125 53.6583 15.3064H47.3926ZM50.4199 9.73242C46.6026 9.73242 44.1016 12.7203 44.1016 16.7752C44.1016 20.8835 47.0501 23.2845 50.4199 23.2845C52.605 23.2845 54.2635 22.404 55.7116 20.8301C55.6851 20.8034 53.6054 18.776 53.6054 18.776C52.8682 19.683 51.8151 20.2433 50.4199 20.2433C48.7876 20.2433 47.3924 19.1495 47.3924 17.6288H57.0278C57.0278 13.6806 55.2903 9.73242 50.4199 9.73242ZM42.3101 11.9727C42.3101 10.1587 40.4146 9.86523 38.9667 9.86523H32.8853V12.8531H38.6771L34.6228 17.5215C33.5434 18.7487 32.5957 19.9225 32.5957 20.8562C32.5957 22.1367 33.4381 23.1505 34.7808 23.1505H42.0206V20.1626H36.3077L40.3619 15.4407C41.9679 13.6534 42.3101 13.1199 42.3101 11.9727ZM23.7144 23.1454L23.7125 23.1409C23.7107 23.1402 23.7089 23.1394 23.707 23.1387C23.7097 23.1408 23.7119 23.1433 23.7144 23.1454ZM14.3124 0C11.6673 0 9.17872 0.746772 7.00582 2.06145H21.6189C19.446 0.746772 16.9574 0 14.3124 0ZM21.8224 3.62109H6.52104C4.22208 3.62109 2.35823 5.50979 2.35823 7.83954C2.35823 9.6385 3.4716 11.1702 5.0364 11.7767C4.43051 11.145 4.05586 10.2842 4.05586 9.33382C4.05586 7.39669 5.60552 5.82653 7.51703 5.82653H20.2391C22.1506 5.82653 23.7001 7.39669 23.7001 9.33382C23.7001 9.95956 23.5365 10.5457 23.2532 11.0544C23.0936 11.3664 22.8855 11.6594 22.6273 11.9211L15.9531 18.6841C15.9219 18.6825 15.8912 18.6794 15.8596 18.6794H15.0413L20.8227 12.821C21.0324 12.6084 21.2014 12.3705 21.3308 12.1173C21.561 11.7043 21.6938 11.2283 21.6938 10.7203C21.6938 9.1478 20.4357 7.87292 18.8839 7.87292H8.55553C7.00352 7.87292 5.74555 9.1478 5.74555 10.7203C5.74555 12.0282 6.6168 13.1273 7.8024 13.4612C7.43186 13.0552 7.20357 12.5138 7.20357 11.917C7.20357 10.6589 8.21015 9.63909 9.45164 9.63909H17.7143C18.9558 9.63909 19.9622 10.6589 19.9622 11.917C19.9622 12.3234 19.856 12.7041 19.6719 13.0344C19.5683 13.2372 19.4331 13.4275 19.2654 13.5974L14.2503 18.6794H13.5786L17.9423 14.2576C18.0744 14.1237 18.1808 13.9738 18.2624 13.8143C18.4073 13.5541 18.491 13.2543 18.491 12.9343C18.491 11.9435 17.6984 11.1404 16.7207 11.1404H10.2139C9.23614 11.1404 8.44359 11.9435 8.44359 12.9343C8.44359 13.6253 8.82986 14.2242 9.39515 14.5238L1.62348 22.3991C1.18955 22.8388 0.875057 23.3527 0.6728 23.8995C0.45495 24.4115 0.333008 24.975 0.333008 25.568C0.333008 27.8976 2.19686 29.7863 4.49597 29.7863H19.7973C22.0965 29.7863 23.9602 27.8976 23.9602 25.568C23.9602 23.6283 22.6666 21.9987 20.9073 21.5059C21.5879 22.1464 22.0164 23.0582 22.0164 24.0737C22.0164 26.0107 20.4668 27.581 18.5553 27.581H5.83322C3.92171 27.581 2.37205 26.0107 2.37205 24.0737C2.37205 23.5808 2.4734 23.1121 2.65462 22.6866C2.82275 22.232 3.08414 21.8046 3.44497 21.439L10.0747 14.7209C10.1208 14.7246 10.1668 14.728 10.2139 14.728H10.9931L5.24954 20.5481C4.95653 20.845 4.74442 21.1918 4.60776 21.5609C4.46082 21.9064 4.37844 22.2868 4.37844 22.687C4.37844 24.2596 5.63655 25.5345 7.18842 25.5345H17.5169C19.0688 25.5345 20.3267 24.2596 20.3267 22.687C20.3267 21.3792 19.4555 20.2801 18.2699 19.9462C18.6404 20.3524 18.8687 20.8937 18.8687 21.4904C18.8687 22.7484 17.8623 23.7683 16.6207 23.7683H8.35798C7.11649 23.7683 6.11006 22.7484 6.11006 21.4904C6.11006 21.1702 6.17581 20.8659 6.29349 20.5895C6.40278 20.2942 6.57253 20.0167 6.80685 19.7792L11.7916 14.728H12.4709L8.13116 19.1256C7.94655 19.3127 7.81284 19.5312 7.72679 19.7637C7.63427 19.9814 7.58234 20.221 7.58234 20.4732C7.58234 21.4639 8.37504 22.2671 9.35264 22.2671H15.8596C16.8372 22.2671 17.6299 21.4639 17.6299 20.4732C17.6299 19.8322 17.2969 19.2711 16.7976 18.9539L24.6949 10.9514C25.0056 10.6367 25.2558 10.2842 25.4477 9.90888C25.7886 9.29716 25.9854 8.59212 25.9854 7.83954C25.9854 5.50979 24.1215 3.62109 21.8224 3.62109ZM12.0812 33.3845C14.7131 33.3845 17.1896 32.6442 19.3548 31.3418H4.80762C6.97272 32.6442 9.44938 33.3845 12.0812 33.3845Z" fill="white"/>
</g>
</svg>
