<svg width="177" height="28" viewBox="0 0 177 28" fill="none" xmlns="http://www.w3.org/2000/svg">
<g clip-path="url(#clip0_2400_1371)">
<path d="M8.06548 8.6505C10.5255 8.6505 11.7204 9.65759 11.7204 11.3592C11.7204 13.0261 10.7012 14.0332 8.10062 14.0332C5.50001 14.0332 4.55114 12.9914 4.55114 11.3592C4.55114 9.72704 5.53516 8.6505 8.06548 8.6505ZM8.34663 24.3125C4.12942 24.3125 3.1454 23.8611 3.1454 22.6109C3.1454 21.8122 3.91856 21.0134 5.64059 21.0134H11.9664C13.337 21.0134 13.7939 21.6385 13.7939 22.3678C13.7939 23.6874 12.845 24.3125 8.34663 24.3125ZM8.41691 27.0907C14.6724 27.1254 16.8162 25.4238 16.8162 22.3678C16.8162 19.8327 15.3402 18.3047 11.8258 18.3047C9.99837 18.3047 7.88976 18.4089 5.92173 18.4089C4.93772 18.4089 4.48085 18.1658 4.48085 17.5407C4.48085 17.2629 4.65657 17.0545 4.86743 16.7072L5.21886 16.1516C6.06231 16.3947 7.01118 16.4989 8.06548 16.4989C12.5638 16.4989 14.9887 15.0056 14.9887 12.1232C14.9887 9.93541 13.4424 9.06722 11.4041 8.68522V8.6505C12.5638 8.71995 13.3721 8.71995 14.1804 8.71995H16.3242V5.55976H8.2412C3.77799 5.55976 1.14223 7.57395 1.14223 11.1509C1.14223 13.5818 2.47768 15.3181 4.93772 16.0821L3.67256 16.6378C2.33711 17.0892 1.5991 17.9574 1.5991 18.7909C1.5991 20.0063 2.51282 20.7703 4.12942 20.9787C1.56395 21.2913 0.193359 22.3678 0.193359 23.7569C0.193359 25.8058 1.98567 27.1254 8.41691 27.0907Z" fill="white"/>
<path d="M21.7634 21.8816V13.6165C21.7634 10.7689 22.9232 9.76177 25.8752 9.76177H27.4918V5.55976H26.5429C24.0478 5.55976 22.5717 6.67104 21.8337 10.9078H21.7634V5.55976H17.968V21.8816H21.7634Z" fill="white"/>
<path d="M36.2683 22.3331C41.5047 22.3331 44.7027 19.034 44.7027 13.686C44.7027 8.30322 41.329 5.14303 36.2683 5.14303C31.1725 5.14303 27.7988 8.30322 27.7988 13.686C27.7988 19.034 30.9617 22.3331 36.2683 22.3331ZM36.2683 8.54631C39.1852 8.54631 40.9424 10.5258 40.9424 13.6512C40.9424 16.8114 39.2555 18.8951 36.2332 18.8951C33.246 18.8951 31.5943 16.8114 31.5943 13.6512C31.5943 10.5258 33.3163 8.54631 36.2683 8.54631Z" fill="white"/>
<path d="M57.3502 21.8816H61.1457V5.55976H57.3502V15.214C57.3502 17.5407 55.8742 18.9298 53.4493 18.9298C50.8839 18.9298 50.0053 17.1934 50.0053 15.214V5.55976H46.2098V16.2211C46.2098 19.7285 47.721 22.3331 51.6922 22.3331C54.4685 22.3331 56.5771 20.9093 57.3151 17.4018H57.3502V21.8816Z" fill="white"/>
<path d="M67.4087 12.2274C67.4087 9.90068 68.8847 8.51159 71.3096 8.51159C73.8751 8.51159 74.7536 10.248 74.7536 12.2274V21.8816H78.5491V11.255C78.5491 7.71286 77.038 5.14303 73.0667 5.14303C70.2904 5.14303 68.1818 6.56685 67.4438 10.0396H67.4087V5.55976H63.6132V21.8816H67.4087V12.2274Z" fill="white"/>
<path d="M88.1155 18.9298C85.1635 18.9298 83.828 17.0545 83.828 13.7901C83.828 10.4216 85.2338 8.47686 88.1155 8.47686C90.8216 8.47686 92.5085 10.491 92.5085 13.6165V13.8943C92.5085 17.124 90.8216 18.9298 88.1155 18.9298ZM92.5085 21.8816H96.3039V0.59375H92.5085V10.248H92.4733C91.7353 6.8794 89.8727 5.10831 86.5692 5.14303C82.4223 5.10831 80.0677 8.37268 80.0677 13.7901C80.0677 19.0687 82.2817 22.3331 86.5692 22.3331C89.7673 22.3331 91.7002 20.562 92.4382 17.2629H92.5085V21.8816Z" fill="white"/>
<path d="M110.705 12.3663L114.36 11.776C113.693 7.57395 111.408 5.14303 106.453 5.14303C101.427 5.14303 97.9483 8.33795 97.9483 13.7554C97.9483 19.3118 101.357 22.3331 106.558 22.3331C111.338 22.3331 113.728 19.7285 114.395 15.5612L110.776 14.832C110.248 17.1587 109.264 18.8951 106.488 18.8951C103.677 18.8951 101.814 17.0545 101.814 13.7207C101.814 10.2132 103.712 8.54631 106.418 8.54631C108.983 8.54631 110.213 10.0743 110.705 12.3663Z" fill="white"/>
<path d="M123.749 22.3331C128.986 22.3331 132.184 19.034 132.184 13.686C132.184 8.30322 128.81 5.14303 123.749 5.14303C118.653 5.14303 115.28 8.30322 115.28 13.686C115.28 19.034 118.443 22.3331 123.749 22.3331ZM123.749 8.54631C126.666 8.54631 128.423 10.5258 128.423 13.6512C128.423 16.8114 126.736 18.8951 123.714 18.8951C120.727 18.8951 119.075 16.8114 119.075 13.6512C119.075 10.5258 120.797 8.54631 123.749 8.54631Z" fill="white"/>
<path d="M142.793 21.8816L149.259 5.55976H145.288L143.004 11.8801C142.231 14.068 141.422 16.3947 140.684 18.4783H140.614C139.911 16.3947 139.068 14.068 138.295 11.8801L136.045 5.55976H131.934L138.47 21.8816H142.793Z" fill="white"/>
<path d="M157.276 8.30322C159.877 8.30322 161.212 9.62286 161.423 12.158H152.778C153.2 9.51868 154.781 8.30322 157.276 8.30322ZM157.382 22.2983C161.74 22.2983 163.989 20.1452 164.832 17.0198L161.529 16.0821C161.037 17.7491 160.053 19.034 157.417 19.034C154.711 19.034 153.094 17.6796 152.743 14.9361H164.867C164.938 14.068 164.938 13.4081 164.938 12.7483C164.938 8.26849 162.407 5.14303 157.382 5.14303C152.251 5.14303 148.947 8.4074 148.947 13.9291C148.947 19.3118 152.321 22.2983 157.382 22.2983Z" fill="white"/>
<path d="M170.436 21.8816V13.6165C170.436 10.7689 171.596 9.76177 174.548 9.76177H176.165V5.55976H175.216C172.721 5.55976 171.245 6.67104 170.507 10.9078H170.436V5.55976H166.641V21.8816H170.436Z" fill="white"/>
</g>
<defs>
<clipPath id="clip0_2400_1371">
<rect width="175.971" height="26.4976" fill="white" transform="translate(0.193359 0.59375)"/>
</clipPath>
</defs>
</svg>
