<svg width="130" height="35" viewBox="0 0 130 35" fill="none" xmlns="http://www.w3.org/2000/svg">
<g clip-path="url(#clip0_2400_1372)">
<path d="M9.68936 9.33654C7.58762 9.33654 5.27215 10.1896 4.13223 11.9668V0.734741H0V26.3624H4.13223V24.1231C5.27215 25.9003 7.65887 26.7889 9.65373 26.7889C14.0353 26.7889 17.8469 23.3411 17.8469 18.045C17.8469 12.7133 14.0709 9.33654 9.68936 9.33654ZM9.01253 22.9501C6.48332 22.9501 4.20347 20.9241 4.20347 18.0094C4.20347 15.0948 6.62581 13.1754 9.01253 13.1754C11.5774 13.1754 13.7147 15.2369 13.7147 18.0094C13.7147 20.7819 11.5774 22.9501 9.01253 22.9501Z" fill="white"/>
<path d="M34.494 12.0735C33.3897 10.3318 31.1811 9.33655 28.9013 9.33655C24.1991 9.33655 20.7793 13.0332 20.7793 18.045C20.7793 23.199 24.3416 26.789 28.7944 26.789C31.1811 26.789 33.3897 25.5804 34.494 23.7677V26.3624H38.6262V9.76308H34.494V12.0735ZM29.6493 22.9501C26.942 22.9501 24.9115 20.7108 24.9115 18.045C24.9115 15.3791 26.942 13.1754 29.6137 13.1754C32.0717 13.1754 34.4228 15.2014 34.4228 18.045C34.4228 20.8175 32.2142 22.9501 29.6493 22.9501Z" fill="white"/>
<path d="M44.0551 34.0983L53.3309 0.780029H49.1986L39.9229 34.0983H44.0551Z" fill="white"/>
<path d="M66.4227 12.0735C65.3184 10.3318 63.1098 9.33655 60.83 9.33655C56.1278 9.33655 52.708 13.0332 52.708 18.045C52.708 23.199 56.2703 26.789 60.7231 26.789C63.1098 26.789 65.3184 25.5804 66.4227 23.7677V26.3624H70.555V9.76308H66.4227V12.0735ZM61.578 22.9501C58.8707 22.9501 56.8402 20.7108 56.8402 18.045C56.8402 15.3791 58.8707 13.1754 61.5424 13.1754C64.0004 13.1754 66.3515 15.2014 66.3515 18.045C66.3515 20.8175 64.1429 22.9501 61.578 22.9501Z" fill="white"/>
<path d="M84.4381 9.33655C82.7282 9.33655 80.1278 10.2963 79.2729 12.3934V9.76308H75.1406V26.3624H79.2729V17.5474C79.2729 14.3483 81.6239 13.2465 83.5119 13.2465C85.3643 13.2465 86.9673 14.6682 86.9673 17.3341V26.3624H91.0996V17.0497C91.0996 12.2157 88.7129 9.33655 84.4381 9.33655Z" fill="white"/>
<path d="M103.351 26.789C106.236 26.789 108.587 25.5094 110.119 23.5899L107.198 21.2795C106.343 22.3103 104.918 22.9501 103.422 22.9501C100.537 22.9501 98.4706 20.8175 98.4706 18.045C98.4706 15.237 100.537 13.1754 103.422 13.1754C104.918 13.1754 106.343 13.8152 107.198 14.846L110.119 12.5356C108.587 10.6162 106.236 9.33655 103.351 9.33655C98.5418 9.33655 94.3027 12.7844 94.3027 18.045C94.3027 23.3056 98.5418 26.789 103.351 26.789Z" fill="white"/>
<path d="M129.091 17.9028C129.091 12.7133 125.351 9.33655 120.613 9.33655C115.84 9.33655 111.886 12.7488 111.886 18.045C111.886 23.2345 115.662 26.789 120.613 26.789C123.641 26.789 126.598 25.4383 128.13 23.0212L125.351 20.9241C124.389 22.2748 122.644 23.0568 120.863 23.0568C118.369 23.0568 116.588 21.8127 116.125 19.5023H129.02C129.056 18.8981 129.091 18.3649 129.091 17.9028ZM116.125 16.6232C116.624 14.0995 118.44 12.9976 120.649 12.9976C122.964 12.9976 124.746 14.3483 124.995 16.6232H116.125Z" fill="white"/>
</g>
<defs>
<clipPath id="clip0_2400_1372">
<rect width="129.091" height="33.3658" fill="white" transform="translate(0 0.734375)"/>
</clipPath>
</defs>
</svg>
