<svg width="50" height="27" viewBox="0 0 50 27" fill="none" xmlns="http://www.w3.org/2000/svg">
<g clip-path="url(#clip0_2400_1384)">
<path d="M10.3704 21.9557H6.75711C5.21446 21.9557 4.63855 20.5851 4.63855 18.6957L4.63596 8.84106H0.464844V18.6957C0.464844 22.93 3.40521 26.1216 7.30455 26.1216H14.548V8.84106H10.3704V21.9557Z" fill="white"/>
<path d="M21.7238 13.007H25.3371C26.8798 13.007 27.4557 14.3775 27.4557 16.2669L27.457 26.1216H31.6281V16.2669C31.6281 12.0326 28.6878 8.84106 24.7884 8.84106H17.5449V26.1216H21.7225V13.007H21.7238Z" fill="white"/>
<path d="M34.6279 26.1204H38.8715V7.44995L34.6279 9.21285V26.1204Z" fill="white"/>
<path d="M49.6869 22.7355L49.6571 22.7368C49.3426 22.7781 49.0023 22.7975 48.6477 22.7975C47.7223 22.7975 47.0649 22.5432 46.6922 22.0425C46.3052 21.5211 46.1085 20.6177 46.1085 19.3569V12.446H49.9082V8.84015H46.1085V4.44324L41.8662 6.20613V19.3891C41.8662 20.4861 41.9633 21.476 42.1548 22.3329C42.3489 23.2066 42.6906 23.9629 43.1694 24.5797C43.6509 25.2031 44.3109 25.6857 45.1301 26.0123C45.9377 26.3349 46.9536 26.4975 48.1468 26.4975C48.7007 26.4975 49.2288 26.4627 49.718 26.3955L49.9095 26.3684V22.7355H49.6869Z" fill="white"/>
<path d="M34.6279 0.00012207V5.94054L38.8715 4.17764V0.00012207H34.6279Z" fill="white"/>
</g>
<defs>
<clipPath id="clip0_2400_1384">
<rect width="49.4465" height="26.4976" fill="white" transform="translate(0.463867)"/>
</clipPath>
</defs>
</svg>
