<svg width="61" height="38" viewBox="0 0 61 38" fill="none" xmlns="http://www.w3.org/2000/svg">
<g clip-path="url(#clip0_2400_1368)">
<path d="M12.1957 7.841L12.1951 7.84956L12.1953 7.85814C12.2398 9.50207 12.5288 10.7777 13.006 11.8154C13.4836 12.854 14.1456 13.6451 14.923 14.3249C15.6977 15.0024 16.5902 15.5716 17.5254 16.1628L17.6107 16.2167C18.5233 16.7935 19.4782 17.3971 20.4276 18.1539C21.4495 18.9686 22.4323 20.2708 22.8683 21.6726C23.3025 23.0684 23.1917 24.5456 22.0613 25.7574C21.4198 26.4451 20.5361 26.6669 19.6355 26.566C18.7321 26.4648 17.8272 26.0392 17.1762 25.4553C16.415 24.7726 15.9041 23.831 15.4389 22.6274C15.1614 21.9093 14.9051 21.1126 14.6216 20.2317C14.4274 19.6279 14.2204 18.9844 13.9851 18.2996C12.8424 14.9739 10.901 13.206 8.81377 12.5386C6.73332 11.8734 4.53597 12.311 2.89304 13.3411C1.42665 14.2598 0.544889 15.4342 0.123778 16.743C-0.296334 18.0487 -0.253708 19.4743 0.103233 20.8933C0.816138 23.7273 2.79127 26.5707 4.94192 28.4728C7.60906 30.8319 11.0451 33.2198 14.4847 33.9229C16.2088 34.2754 17.9401 34.2058 19.5746 33.491C21.2092 32.7761 22.7302 31.4233 24.0465 29.2386C25.3632 27.0531 25.8491 25.0679 25.7884 23.2764C25.7277 21.486 25.1216 19.9031 24.2763 18.5203C23.4316 17.1386 22.3458 15.9531 21.32 14.9554C20.8293 14.4781 20.3509 14.0424 19.919 13.6492L19.8606 13.596C19.4122 13.1876 19.0191 12.828 18.7128 12.512C17.5028 11.2639 16.8809 9.52101 16.9353 8.01809C16.9895 6.51771 17.7091 5.29858 19.1443 4.99228C19.6525 4.88383 20.0482 4.89011 20.3606 4.97609C20.6702 5.06129 20.909 5.22771 21.1014 5.45993C21.4955 5.93557 21.695 6.68527 21.8599 7.57839C21.9025 7.80928 21.9427 8.04921 21.9837 8.29401C22.0981 8.97698 22.2189 9.69783 22.4161 10.3659C22.6854 11.2782 23.106 12.1285 23.8792 12.6964C26.8815 14.9013 30.876 13.8598 33.1884 11.8307C34.1702 10.9696 34.6583 10.0155 34.7446 9.02101C34.8304 8.03077 34.5159 7.02361 33.9374 6.05461C32.7825 4.12036 30.5481 2.29121 28.1529 0.956927C25.7116 -0.403016 21.8481 -0.392527 18.5489 0.792485C15.2489 1.97782 12.4368 4.36877 12.1957 7.841ZM34.4338 1.81717L34.4337 1.81727C34.0297 2.37111 34.029 2.96566 34.2358 3.56426C34.439 4.1526 34.8484 4.76383 35.2891 5.38025C35.375 5.50044 35.4622 5.62098 35.5498 5.74197C35.9171 6.24953 36.2901 6.765 36.5963 7.29544C36.9747 7.95112 37.2384 8.60978 37.2591 9.27346C37.2817 9.99728 37.2638 10.627 37.2473 11.2075C37.2005 12.8536 37.165 14.1037 38.0949 15.9805C38.413 16.6228 38.8239 17.1551 39.2465 17.6688C39.3248 17.7639 39.4033 17.8582 39.4817 17.9524C39.8296 18.3704 40.1758 18.7863 40.4905 19.2609C41.2523 20.41 41.8291 21.9057 41.6555 24.5208C41.5291 26.4247 41.1828 27.9238 40.8933 29.1768C40.7815 29.6605 40.6783 30.1075 40.5994 30.527C40.459 31.2737 40.3957 31.9389 40.5206 32.5513C40.647 33.1708 40.9626 33.7216 41.5513 34.2453C41.8644 34.5239 42.3233 34.6674 42.867 34.7093C43.4136 34.7515 44.0663 34.6928 44.7901 34.5469C46.2382 34.255 47.9964 33.6086 49.8085 32.6806C53.4296 30.8262 57.3039 27.8274 59.3656 24.2234L59.2111 24.1351L59.3656 24.2234C60.9158 21.513 61.4397 18.916 61.0589 17.0985C60.868 16.1871 60.4459 15.4583 59.7959 15.0235C59.144 14.5873 58.2907 14.4657 57.2775 14.7142C55.4163 15.1706 54.3066 15.7948 53.6723 16.5539C53.0335 17.3184 52.8996 18.1922 52.926 19.0881C52.939 19.5307 52.9913 19.9849 53.0434 20.4363L53.0448 20.4483C53.0976 20.9064 53.1499 21.3624 53.1645 21.8169C53.1937 22.723 53.0725 23.6056 52.5146 24.4331C51.8674 25.3929 50.4626 27.4499 48.8719 28.9443C48.0753 29.6926 47.2469 30.2854 46.4568 30.5371C45.6787 30.7849 44.9443 30.702 44.2914 30.1053C43.782 29.6398 43.7383 28.937 43.9954 27.9591C44.1914 27.2133 44.5489 26.356 44.9479 25.3991C45.0709 25.1042 45.1978 24.7998 45.3252 24.4863C46.3964 21.8495 47.4742 18.622 46.1808 15.3556C46.0278 14.9692 45.7267 14.5646 45.3847 14.1581C45.2122 13.9531 45.0256 13.7435 44.8376 13.5322L44.8351 13.5294C44.6472 13.3183 44.4577 13.1054 44.2754 12.8899C43.9082 12.4558 43.5785 12.0205 43.3617 11.5886C43.1453 11.1574 43.0491 10.7446 43.1268 10.3484C43.2069 9.93994 43.4569 9.50675 43.7985 9.03914C44.0024 8.76002 44.2277 8.48274 44.4597 8.19709C44.6199 8.00002 44.7832 7.79898 44.945 7.5906C45.7123 6.60225 46.4172 5.4832 46.0341 4.27312C45.9358 3.96256 45.7232 3.63094 45.4345 3.29957C45.1442 2.96633 44.769 2.62432 44.3333 2.29349C43.4621 1.63198 42.3384 1.00704 41.1415 0.582569C38.7636 -0.26076 36.0074 -0.336913 34.4338 1.81717ZM27.6592 21.3609L27.6592 21.3609C28.0278 22.7477 27.9852 23.8368 27.7378 24.7662C27.4893 25.6998 27.0319 26.4822 26.5512 27.2586C26.506 27.3316 26.4606 27.4046 26.4152 27.4775C25.4969 28.9528 24.5698 30.4421 25.1367 32.8391C25.6971 35.2089 27.3342 36.4167 29.2112 36.939C31.0789 37.4586 33.1937 37.3047 34.7654 36.9587C35.7154 36.7496 36.8703 36.3118 37.7185 35.5359C38.5759 34.7515 39.1139 33.625 38.815 32.0774C38.5752 30.8359 38.5847 29.9276 38.7165 29.1884C38.8485 28.448 39.1045 27.8676 39.3748 27.2743C39.3861 27.2495 39.3974 27.2247 39.4087 27.1999C39.668 26.6316 39.9363 26.0433 40.094 25.3057C40.2591 24.5334 40.3019 23.6051 40.1031 22.3606C39.7727 20.2916 38.3031 18.2451 36.4404 16.8373C34.5792 15.4306 32.284 14.6309 30.2802 15.1189C29.3381 15.3478 28.3752 15.7973 27.805 16.7696C27.2357 17.7403 27.0828 19.1896 27.6592 21.3609ZM35.1535 27.0139L35.1534 27.014L29.9279 25.9991L30.1013 26.039C30.1013 26.039 30.1013 26.039 30.1013 26.039C30.6004 23.8703 30.2654 22.1153 30.0021 20.7358C29.9911 20.6782 29.9802 20.6213 29.9696 20.565C29.8352 19.8568 29.7353 19.2709 29.7791 18.7723C29.8217 18.2878 29.9997 17.8914 30.4315 17.5554C31.113 17.025 32.0435 16.9612 32.9924 17.2783C33.9405 17.5951 34.8837 18.2865 35.5565 19.2237C36.7046 20.8228 37.0004 22.1893 36.822 23.4339C36.6422 24.6882 35.978 25.8437 35.1535 27.0139ZM51.5084 11.756C50.7501 11.2316 49.7232 10.9469 48.8053 10.9769C47.8933 11.0067 47.0293 11.3534 46.6929 12.1613C46.4407 12.7673 46.4419 13.2468 46.5888 13.7155C46.6957 14.0564 46.8828 14.3957 47.0867 14.7655C47.151 14.8821 47.217 15.0017 47.2826 15.1254C47.8357 16.1674 48.4691 17.6605 48.3038 20.5947C48.2186 22.0991 47.5891 23.3187 47.0036 24.4205L46.9602 24.5021C46.6852 25.0192 46.4207 25.5167 46.2424 25.9983C46.0539 26.5076 45.9553 27.0153 46.0461 27.5307C46.0921 27.7915 46.1931 27.9966 46.3688 28.114C46.5461 28.2325 46.7573 28.2339 46.9601 28.1807C47.3566 28.0767 47.8277 27.7372 48.2814 27.3274C49.1971 26.5002 50.1519 25.2826 50.4709 24.6677C51.1179 23.4205 51.296 22.4436 51.3374 21.4349C51.3537 21.0364 51.3487 20.6313 51.3434 20.2066C51.3421 20.0991 51.3407 19.9904 51.3397 19.8803C51.3347 19.3323 51.3374 18.741 51.3884 18.0657C51.4273 17.5495 51.6556 17.062 51.9444 16.57C52.0371 16.4121 52.1376 16.2514 52.2391 16.0893C52.4448 15.7606 52.6542 15.4261 52.8086 15.0974C53.0444 14.5955 53.1774 14.0616 53.0054 13.49C52.8347 12.9229 52.3745 12.3548 51.5084 11.756ZM47.9716 6.58083C48.2354 8.70677 49.6899 9.93029 51.1648 10.4185C51.9009 10.6622 52.6503 10.726 53.2714 10.625C53.8851 10.5251 54.4135 10.2557 54.6393 9.7929C55.031 8.99007 55.2166 8.01188 54.9759 7.06449C54.7337 6.11115 54.0653 5.21116 52.7917 4.56437C51.5207 3.91895 50.263 3.8758 49.3425 4.2701C48.4155 4.6672 47.838 5.50959 47.9716 6.58083Z" fill="white" stroke="white" stroke-width="0.355895"/>
</g>
<defs>
<clipPath id="clip0_2400_1368">
<rect width="61" height="37" fill="white" transform="translate(0 0.0974121)"/>
</clipPath>
</defs>
</svg>
