<svg width="77" height="36" viewBox="0 0 77 36" fill="none" xmlns="http://www.w3.org/2000/svg">
<g clip-path="url(#clip0_2400_1342)">
<path d="M13.6194 10.1936V12.1713H13.547C12.3511 10.5096 10.6175 9.67993 8.34621 9.67993C5.95435 9.67993 4.00132 10.5216 2.48712 12.2075C0.97292 13.8692 0.21582 16.0904 0.21582 18.8761C0.21582 21.5869 1.0332 23.7599 2.67037 25.3951C4.33165 27.0303 6.27021 27.8503 8.49329 27.8503C10.4704 27.8503 12.1076 27.1171 13.4 25.6532H13.5109V27.7056C13.5109 30.3175 12.1196 31.6247 9.33719 31.6247C7.31182 31.6247 6.05321 30.9277 5.56615 29.5361H0.618482C0.886119 31.3908 1.77824 32.833 3.29244 33.858C4.83075 34.883 6.86817 35.3968 9.40711 35.3968C12.409 35.3968 14.6682 34.6877 16.1824 33.272C17.6725 31.9045 18.4152 29.9992 18.4152 27.5585V10.1936H13.6194ZM12.667 22.4286C11.934 23.3813 10.8249 23.8564 9.33478 23.8564C8.03999 23.8564 7.0032 23.4174 6.22199 22.5371C5.46489 21.6327 5.08634 20.3882 5.08634 18.8013C5.08634 17.2385 5.46489 15.994 6.22199 15.0654C7.0032 14.1369 8.02793 13.6738 9.29861 13.6738C10.7381 13.6738 11.8375 14.1634 12.5946 15.1402C13.3759 16.0929 13.7665 17.3012 13.7665 18.7675C13.7641 20.2556 13.4 21.476 12.667 22.4286Z" fill="white"/>
<path d="M25.9622 10.194V13.1966H26.0732C26.6591 12.0969 27.3053 11.2913 28.0141 10.78C28.723 10.2422 29.6127 9.97449 30.6881 9.97449C31.2017 9.97449 31.5923 10.0227 31.8599 10.1216V14.4797H31.749C30.0636 14.3085 28.711 14.675 27.6838 15.5795C26.6591 16.4839 26.1455 17.8996 26.1455 19.829V28.9866H21.1641V10.194H25.9622Z" fill="white"/>
<path d="M40.8972 9.71912C38.31 9.71912 36.3329 10.3052 34.9658 11.4773C33.5987 12.6494 32.8777 14.1279 32.8054 15.9102H37.2371C37.3842 14.152 38.5921 13.2717 40.8634 13.2717C41.8882 13.2717 42.6694 13.4791 43.2071 13.8939C43.7448 14.2846 44.0124 14.8224 44.0124 15.505C44.0124 16.1634 43.6941 16.6289 43.06 16.8966C42.4259 17.1402 41.2299 17.3862 39.4722 17.6298C37.0804 17.9722 35.2238 18.5945 33.9049 19.4989C32.586 20.3792 31.9277 21.7708 31.9277 23.6737C31.9277 25.5042 32.5257 26.9224 33.7216 27.9232C34.9176 28.9241 36.5041 29.4258 38.4812 29.4258C39.9713 29.4258 41.1311 29.2063 41.9605 28.7674C42.7899 28.3284 43.4747 27.7062 44.0124 26.8982H44.0847V28.9868H48.8106C48.8106 28.9868 48.8106 27.6194 48.8106 26.2036V16.6409C48.8058 12.0248 46.1704 9.71912 40.8972 9.71912ZM44.1185 22.3544C44.1185 23.4338 43.7158 24.1729 42.9105 24.882C42.1293 25.5911 41.0539 25.9456 39.6892 25.9456C38.2285 25.9456 36.7597 25.1521 36.7597 23.5652C36.7597 22.7355 37.0538 22.1253 37.6397 21.7346C38.2256 21.3198 39.2263 20.9532 40.6416 20.6348C42.4235 20.22 43.5832 19.8534 44.1209 19.5351V22.3544C44.1209 22.3544 44.1185 21.2751 44.1185 22.3544Z" fill="white"/>
<path d="M64.1542 10.1744V12.7381H64.2652C65.5599 10.6857 67.4141 9.66064 69.8301 9.66064C71.759 9.66064 73.3214 10.3191 74.5173 11.6383C75.7133 12.9334 76.3112 14.6169 76.3112 16.6934V28.9645H71.3322V17.4266C71.3322 16.4016 71.0381 15.5695 70.4521 14.9352C69.8904 14.3009 69.0971 13.9826 68.0723 13.9826C66.9729 13.9826 66.059 14.3853 65.3261 15.1909C64.6172 15.9964 64.2652 17.0335 64.2652 18.3045V28.9645H59.2861V10.1744H64.1542Z" fill="white"/>
<path d="M51.5566 14.2243V28.9844H56.5357V9.71912L52.7622 12.0585C52.0123 12.5216 51.5566 13.3416 51.5566 14.2243Z" fill="white"/>
<path d="M51.5566 5.7852V10.3242L57.2855 6.77162C58.0354 6.30614 58.4911 5.48614 58.4911 4.60343V0.0644531L52.7622 3.61701C52.0123 4.08248 51.5566 4.90249 51.5566 5.7852Z" fill="white"/>
</g>
<defs>
<clipPath id="clip0_2400_1342">
<rect width="76.0958" height="35.3302" fill="white" transform="translate(0.21582 0.0644531)"/>
</clipPath>
</defs>
</svg>
