<svg width="106" height="37" viewBox="0 0 106 37" fill="none" xmlns="http://www.w3.org/2000/svg">
<mask id="mask0_2097_12618" style="mask-type:luminance" maskUnits="userSpaceOnUse" x="0" y="0" width="106" height="37">
<path d="M105.311 0.0371094H0V36.0467H105.311V0.0371094Z" fill="white"/>
</mask>
<g mask="url(#mask0_2097_12618)">
<path d="M44.4219 12.5375V30.0164H47.2973V20.1444C47.2973 19.3555 47.3988 18.6343 47.6017 17.9806C47.8273 17.3045 48.1543 16.7185 48.5827 16.2226C49.0112 15.7268 49.5412 15.3436 50.1727 15.0731C50.8267 14.8027 51.5934 14.6674 52.473 14.6674C53.578 14.6674 54.4463 14.983 55.0777 15.6141C55.7092 16.2451 56.0249 17.1016 56.0249 18.1835V30.0164H58.9003V18.5216C58.9003 17.5749 58.7988 16.7185 58.5959 15.9521C58.4154 15.1633 58.0884 14.4871 57.6148 13.9236C57.1412 13.3602 56.5211 12.9207 55.7543 12.6051C54.9875 12.2896 54.0291 12.1318 52.8789 12.1318C50.2854 12.1318 48.3911 13.1911 47.1958 15.3098H47.1281V12.5375H44.4219Z" fill="#111111"/>
<path d="M64.9085 9.39302V5.87695H62.0332V9.39302H64.9085ZM62.0332 12.5372V30.0161H64.9085V12.5372H62.0332Z" fill="#111111"/>
<path d="M68.1797 5.87695V30.0161H71.0551V5.87695H68.1797Z" fill="#111111"/>
<path d="M88.6347 30.0165V12.5376H85.7592V22.4096C85.7592 23.1985 85.6465 23.931 85.421 24.6072C85.218 25.2608 84.9022 25.8355 84.4737 26.3314C84.0452 26.8273 83.5041 27.2104 82.8501 27.4809C82.2186 27.7513 81.463 27.8866 80.5835 27.8866C79.4784 27.8866 78.6103 27.571 77.9788 26.94C77.3474 26.3089 77.0315 25.4524 77.0315 24.3705V12.5376H74.1562V24.0324C74.1562 24.9791 74.2464 25.8468 74.4268 26.6357C74.6298 27.402 74.9681 28.0669 75.4417 28.6304C75.9153 29.1938 76.5354 29.6333 77.3022 29.9489C78.0689 30.2419 79.0275 30.3884 80.1776 30.3884C81.4631 30.3884 82.5794 30.1405 83.5266 29.6446C84.4738 29.1262 85.2518 28.3261 85.8607 27.2442H85.9284V30.0165H88.6347Z" fill="#111111"/>
<path d="M93.3597 24.5057H90.4844C90.5295 25.5875 90.755 26.5116 91.1609 27.2779C91.5668 28.0217 92.1081 28.6303 92.7847 29.1036C93.4612 29.5544 94.2393 29.8812 95.1188 30.084C95.9983 30.2869 96.923 30.3883 97.8927 30.3883C98.7722 30.3883 99.6518 30.2981 100.531 30.1178C101.433 29.9601 102.234 29.6671 102.933 29.2388C103.655 28.8106 104.23 28.2471 104.658 27.5484C105.109 26.8497 105.335 25.9707 105.335 24.9114C105.335 24.0774 105.166 23.3787 104.827 22.8152C104.512 22.2518 104.083 21.7897 103.542 21.4291C103.023 21.0459 102.414 20.7417 101.715 20.5163C101.038 20.2909 100.339 20.0993 99.6179 19.9415C98.9414 19.7838 98.2648 19.6372 97.5882 19.502C96.9117 19.3442 96.3028 19.1639 95.7615 18.9611C95.2203 18.7357 94.7692 18.4652 94.4084 18.1497C94.0701 17.8116 93.901 17.3946 93.901 16.8988C93.901 16.448 94.0137 16.0874 94.2393 15.8169C94.4648 15.5239 94.758 15.2985 95.1188 15.1407C95.4796 14.9604 95.8743 14.8365 96.3028 14.7688C96.7538 14.7012 97.1936 14.6674 97.6221 14.6674C98.0957 14.6674 98.558 14.7238 99.009 14.8365C99.4826 14.9266 99.9111 15.0844 100.294 15.3098C100.678 15.5352 100.993 15.8394 101.241 16.2226C101.49 16.5832 101.636 17.0453 101.681 17.6087H104.557C104.489 16.5494 104.263 15.6704 103.88 14.9717C103.497 14.2505 102.978 13.687 102.324 13.2813C101.693 12.853 100.96 12.56 100.125 12.4023C99.2909 12.222 98.3776 12.1318 97.3853 12.1318C96.6185 12.1318 95.8405 12.2332 95.0511 12.4361C94.2844 12.6164 93.5852 12.9094 92.9538 13.3151C92.3449 13.6983 91.8375 14.2054 91.4315 14.8365C91.0481 15.4676 90.8565 16.2226 90.8565 17.1016C90.8565 18.2286 91.1384 19.1076 91.7022 19.7387C92.266 20.3698 92.9651 20.8656 93.7995 21.2262C94.6565 21.5643 95.5811 21.8348 96.5734 22.0376C97.5657 22.218 98.4791 22.4321 99.3135 22.68C100.17 22.9054 100.881 23.2097 101.444 23.5928C102.008 23.976 102.29 24.5395 102.29 25.2832C102.29 25.8242 102.155 26.275 101.884 26.6356C101.614 26.9737 101.264 27.2329 100.836 27.4132C100.43 27.5935 99.9788 27.7174 99.4826 27.7851C98.9865 27.8527 98.5129 27.8865 98.0618 27.8865C97.4755 27.8865 96.9004 27.8301 96.3366 27.7174C95.7954 27.6047 95.2992 27.4244 94.8482 27.1765C94.4197 26.906 94.0701 26.5567 93.7995 26.1284C93.5289 25.6777 93.3823 25.1367 93.3597 24.5057Z" fill="#111111"/>
<path fill-rule="evenodd" clip-rule="evenodd" d="M20.8922 24.7036C20.8922 27.3956 23.0508 29.5779 25.7135 29.5779V32.4664C21.4729 32.4664 18.0352 28.9909 18.0352 24.7036H20.8922Z" fill="#111111"/>
<path fill-rule="evenodd" clip-rule="evenodd" d="M15.1786 24.7036C15.1786 27.3956 13.0201 29.5779 10.3574 29.5779V32.4664C14.598 32.4664 18.0356 28.9909 18.0356 24.7036H15.1786Z" fill="#111111"/>
<path fill-rule="evenodd" clip-rule="evenodd" d="M20.8922 14.7744C20.8922 20.2368 25.3479 24.7036 30.8918 24.7036V27.5921C23.8126 27.5921 18.0352 21.8748 18.0352 14.7744H20.8922Z" fill="#111111"/>
<path fill-rule="evenodd" clip-rule="evenodd" d="M15.1784 14.7739C15.1784 20.2577 10.7814 24.7031 5.35742 24.7031V27.5916C12.3593 27.5916 18.0354 21.8531 18.0354 14.7741L15.1784 14.7739Z" fill="#111111"/>
<path fill-rule="evenodd" clip-rule="evenodd" d="M20.8922 3.94238C20.8922 12.4172 27.6876 19.2875 36.0702 19.2875V22.176C26.1097 22.176 18.0352 14.0125 18.0352 3.94239L20.8922 3.94238Z" fill="#111111"/>
<path fill-rule="evenodd" clip-rule="evenodd" d="M15.1779 3.94238C15.1779 12.4172 8.38253 19.2875 0 19.2875L5.96021e-07 22.176C9.96042 22.176 18.0349 14.0125 18.0349 3.94239L15.1779 3.94238Z" fill="#111111"/>
</g>
</svg>
