<svg width="93" height="36" viewBox="0 0 93 36" fill="none" xmlns="http://www.w3.org/2000/svg">
<path d="M74.4482 23.9485C73.2113 23.2952 72.0983 22.4142 71.1925 21.3237C68.1869 17.7007 68.3491 10.6373 71.6972 6.87236C75.203 2.9317 81.9105 3.20495 85.9728 6.29619C86.1576 4.57934 87.5477 2.99705 89.1925 3.43414C91.4523 4.03347 91.7633 6.76872 91.948 9.13221C92.2882 13.4469 92.1868 17.7863 92.0854 22.1145C92.0043 25.6136 91.4816 29.0676 89.3547 31.8209C87.6671 34.0063 84.9409 35.1937 82.2169 35.4416C79.4929 35.6894 78.2109 35.4776 75.6491 34.5065C73.9683 33.8689 72.2425 33.0037 71.1069 31.582C69.6356 29.7412 70.636 26.0304 73.6259 26.5711C74.2477 26.6838 74.82 26.9902 75.2931 27.4093C77.7152 29.5565 80.4978 30.2347 83.1497 29.0157C85.1347 28.1032 86.4478 26.0504 86.4478 22.7512C84.1992 25.8379 78.7291 26.2107 74.4482 23.9485ZM80.3221 19.368C81.9871 19.5528 83.749 19.0165 84.853 17.8201C86.0269 16.5471 86.3851 14.6996 85.9728 13.0548C85.3983 10.7635 83.224 8.82129 80.7366 8.71764C75.0363 8.48332 73.9526 16.3511 78.3574 18.7597C78.9567 19.0909 79.6304 19.2914 80.3221 19.368Z" fill="white"/>
<path d="M6.91982 8.31358C5.48393 8.29317 3.50589 8.34761 2.16301 7.8531C0.788361 7.34725 -0.121264 5.61193 0.713504 4.16242C1.5029 2.78778 3.6919 2.62219 5.11418 2.56094C8.85249 2.40215 12.4479 2.64941 16.1862 2.49062C17.0232 2.45432 17.9056 2.42937 18.6497 2.80366C19.9472 3.45696 20.2376 4.91326 19.8247 6.26976C19.4119 7.62626 18.3843 8.71509 17.3907 9.75401C14.8048 12.4557 12.3299 15.4046 9.7417 18.1062C11.9942 18.1834 13.5277 18.0586 15.424 18.02C17.9125 17.9679 19.4051 18.2741 20.4757 19.7236C21.5215 21.1368 20.9113 23.2215 19.3574 23.8634C17.7038 24.5485 15.6577 24.3874 13.8588 24.3466C11.2774 24.2876 8.69371 24.2286 6.11228 24.1696C4.68319 24.1379 3.118 24.054 2.07 23.1148C0.942612 22.1054 1.0583 20.6264 1.58457 19.2314C2.11083 17.8363 3.17925 16.7044 4.22951 15.6178C6.59544 13.1725 8.75042 10.5117 11.2071 8.15026C11.1753 8.14799 8.75042 8.3408 6.91982 8.31358Z" fill="white"/>
<path d="M57.4742 22.8936C53.8054 23.4865 50.7657 22.6308 48.2722 20.4676C45.7942 18.3185 44.0025 15.4333 44.0931 11.6094C44.1807 7.91209 45.5803 5.57094 48.3961 3.17325C51.5949 0.449376 54.7378 -0.574913 58.8083 0.465872C63.9987 1.793 67.1933 6.43963 67.1766 11.3363C67.1685 13.4406 66.6809 15.5868 65.6488 17.3646C63.9042 20.3702 61.2789 22.2788 57.4742 22.8936Z" fill="white"/>
<path d="M47.9664 12.2318C48.7612 12.1701 49.3556 11.4758 49.2939 10.6809C49.2322 9.8861 48.5379 9.29175 47.743 9.35342C46.9482 9.41509 46.3539 10.1094 46.4155 10.9043C46.4772 11.6991 47.1715 12.2935 47.9664 12.2318Z" fill="white"/>
<path d="M58.2626 11.6524C59.0575 11.5907 59.6518 10.8964 59.5901 10.1016C59.5285 9.30673 58.8341 8.71238 58.0393 8.77405C57.2445 8.83572 56.6501 9.53005 56.7118 10.3249C56.7735 11.1197 57.4678 11.7141 58.2626 11.6524Z" fill="white"/>
<path fill-rule="evenodd" clip-rule="evenodd" d="M56.2588 12.9269C56.5875 13.0436 56.7594 13.4047 56.6427 13.7335C56.1675 15.0725 54.927 16.0679 53.4163 16.1612L53.4156 16.1612C51.9975 16.2472 50.7225 15.5092 50.0481 14.3697C49.8704 14.0694 49.9698 13.682 50.27 13.5044C50.5702 13.3267 50.9576 13.426 51.1353 13.7263C51.5792 14.4763 52.4148 14.9562 53.3388 14.9002C54.3279 14.8391 55.1409 14.1879 55.4522 13.3109C55.5689 12.9822 55.93 12.8102 56.2588 12.9269Z" fill="white"/>
<path d="M43.0649 17.0062C43.3176 20.4529 42.0529 23.9295 38.8145 26.2022C34.6834 29.1014 28.6592 28.5286 25.4217 24.6022C23.6318 22.431 21.8724 18.1616 23.5175 14.5157C24.8674 11.5233 27.965 9.03369 30.9577 8.28266C34.5129 7.3891 38.5673 8.62169 40.9648 11.5693C42.1978 13.0815 42.921 15.0311 43.0649 17.0062Z" fill="white"/>
<path d="M40.1895 17.094C39.5303 17.2415 38.8764 16.8266 38.729 16.1674C38.5816 15.5082 38.9964 14.8543 39.6556 14.7069C40.3148 14.5594 40.9687 14.9743 41.1162 15.6335C41.2636 16.2927 40.8487 16.9466 40.1895 17.094Z" fill="white"/>
<path d="M31.7051 19.1817C31.0459 19.3292 30.392 18.9143 30.2446 18.2551C30.0972 17.5959 30.512 16.942 31.1712 16.7946C31.8304 16.6471 32.4843 17.062 32.6318 17.7212C32.7792 18.3804 32.3643 19.0343 31.7051 19.1817Z" fill="white"/>
<path d="M33.7538 20.5064C33.5458 20.2263 33.6044 19.8306 33.8845 19.6227C34.1646 19.4148 34.5602 19.4733 34.7681 19.7534C35.2158 20.3565 35.9972 20.6665 36.7749 20.4798C37.5005 20.3044 38.0319 19.7369 38.1971 19.0527C38.279 18.7136 38.6203 18.505 38.9594 18.5869C39.2985 18.6688 39.507 19.01 39.4251 19.3491C39.1537 20.4734 38.2779 21.4165 37.071 21.7079L37.0703 21.708C35.7846 22.017 34.4936 21.5031 33.7538 20.5064Z" fill="white"/>
</svg>
