<svg width="149" height="42" viewBox="0 0 149 42" fill="none" xmlns="http://www.w3.org/2000/svg">
<path d="M13.4668 15.4598H14.0044H19.1118V11.24H9.16577C8.89696 11.24 8.62815 11.24 8.35934 11.24C8.62815 11.24 10.241 10.4487 10.7787 10.185C12.3915 9.39377 13.198 8.07506 13.4668 6.49261V4.91016H6.74648V5.70138C6.74648 5.70138 6.74648 5.70138 6.74648 5.96513C6.74648 7.28384 6.74648 8.60255 6.74648 9.92126C6.74648 10.9762 6.74648 11.24 6.20886 11.24H3.25195V15.4598H5.40243H5.94005H6.47767V16.7786C6.47767 19.1522 6.47767 21.5259 6.47767 24.1633C6.74648 27.0645 8.35934 29.7019 11.5851 30.2294C13.4668 30.4932 15.6172 30.4932 17.4989 30.2294C17.7677 30.2294 18.3053 29.9657 18.3053 29.9657V25.7458C18.3053 25.7458 17.7677 25.7458 16.9613 26.0095C14.8108 26.0095 12.6603 25.2183 12.6603 23.1084C12.6603 20.7347 12.6603 15.4598 12.6603 15.4598H13.4668Z" fill="#111111"/>
<path d="M41.9603 18.8879V29.7013H36.3153V27.0639C34.9713 29.1738 32.552 30.4926 29.3263 30.4926C25.0253 30.2288 22.0684 27.5914 22.0684 23.899C22.0684 20.2066 25.0253 17.5692 29.8639 17.5692C32.8208 17.5692 34.9713 18.6242 36.5841 20.4704V19.4154C36.5841 15.723 33.6272 13.8768 30.1327 13.8768C27.4446 13.8768 25.2941 14.9318 23.4124 16.5142V11.5031C25.2941 10.1844 27.9822 8.86572 31.7455 8.86572C38.197 8.86572 41.9603 12.5581 41.9603 18.8879ZM36.5841 23.3715C36.5841 21.5253 34.7025 20.2066 32.0144 20.2066C29.3263 20.2066 27.4446 21.7891 27.4446 23.6353C27.4446 25.4815 29.0574 26.8002 31.7455 26.8002C34.4336 26.8002 36.5841 25.2177 36.5841 23.3715Z" fill="#111111"/>
<path d="M62.9258 9.92159H68.5708V25.7461C68.5708 32.6034 63.7322 36.8233 55.9367 36.8233C52.4422 36.8233 49.2164 36.032 47.066 34.1858V29.7022C48.9476 31.2847 51.9045 32.6034 55.1303 32.6034C60.5065 32.6034 63.1946 29.966 63.1946 25.2186V23.8999C61.5817 27.0648 58.8936 28.911 55.1303 28.911C49.2164 28.911 45.4531 24.6911 45.4531 19.1525C45.4531 13.0865 49.4853 9.13037 55.3991 9.13037C59.1624 9.13037 61.5817 10.9765 63.1946 14.1414V9.92159H62.9258ZM63.1946 19.1525C63.1946 15.9876 60.7753 13.6139 57.2808 13.6139C53.7862 13.6139 51.3669 15.9876 51.3669 19.4163C51.3669 22.5812 53.5174 24.9549 57.2808 24.9549C60.7753 24.6911 63.1946 22.3174 63.1946 19.1525Z" fill="#111111"/>
<path d="M96.5276 19.4155C96.5276 26.0091 91.9578 30.2289 86.5816 30.2289C82.8183 30.2289 79.8614 28.3827 78.2485 25.4816V29.7015H72.6035V4.90967H78.2485V14.4044C79.5926 11.2395 82.5495 9.12954 86.8505 9.12954C92.7643 8.8658 96.5276 13.6132 96.5276 19.4155ZM90.345 19.6793C90.345 16.2506 88.1945 13.6132 84.4312 13.6132C80.6678 13.6132 78.2485 16.2506 78.2485 19.6793C78.2485 23.1079 80.399 25.7453 84.1624 25.7453C88.1945 25.7453 90.345 23.1079 90.345 19.6793Z" fill="#111111"/>
<path d="M98.9473 19.4154C98.9473 13.3493 103.517 8.86572 110.775 8.86572C118.033 8.86572 122.603 13.3493 122.603 19.4154C122.603 25.4815 118.033 30.2288 110.775 30.2288C103.517 30.2288 98.9473 25.4815 98.9473 19.4154ZM116.958 19.6791C116.958 15.9867 114.538 13.6131 110.775 13.6131C107.012 13.6131 104.592 15.9867 104.592 19.6791C104.592 23.1078 107.012 25.7452 110.775 25.7452C114.807 25.7452 116.958 23.1078 116.958 19.6791Z" fill="#111111"/>
<path d="M146.258 29.7016H139.537L134.43 22.5806L129.323 29.7016H122.871L130.398 19.1519L123.409 9.65723H129.86L134.43 16.2508L139.269 9.65723H145.72L138.731 19.1519L146.258 29.7016Z" fill="#111111"/>
</svg>
