<svg width="185" height="34" viewBox="0 0 185 34" fill="none" xmlns="http://www.w3.org/2000/svg">
<g clip-path="url(#clip0_2097_12745)">
<mask id="mask0_2097_12745" style="mask-type:luminance" maskUnits="userSpaceOnUse" x="0" y="0" width="185" height="34">
<path d="M184.703 0H0V34H184.703V0Z" fill="white"/>
</mask>
<g mask="url(#mask0_2097_12745)">
<path d="M3.82934 26.8743C3.14885 26.8758 2.48015 26.6946 1.89158 26.3492C1.303 26.0037 0.815635 25.5065 0.47927 24.9082C0.148053 24.3141 -0.0171332 23.6401 0.00140521 22.9584C0.0199435 22.2767 0.221508 21.6129 0.584508 21.0381L7.48344 10.0812C7.83654 9.49239 8.33785 9.00886 8.93618 8.68006C9.53452 8.35127 10.2084 8.18898 10.889 8.20978C11.5692 8.22627 12.2327 8.42521 12.8119 8.78625C13.391 9.14729 13.8649 9.65746 14.185 10.2645C14.8282 11.4945 14.7478 12.9742 13.9775 14.1287L7.08295 25.0856C6.73332 25.6366 6.25181 26.0894 5.68305 26.4021C5.11429 26.7148 4.47669 26.8772 3.82934 26.8743Z" fill="#111111"/>
<path d="M15.6622 26.8738C14.2707 26.8738 12.9903 26.1214 12.3179 24.9122C11.9875 24.3197 11.8227 23.6475 11.8412 22.9675C11.8597 22.2876 12.0609 21.6255 12.4232 21.0524L19.309 10.1207C19.6569 9.52354 20.1564 9.0314 20.7557 8.69531C21.3551 8.35922 22.0324 8.19141 22.7175 8.2093C24.1207 8.24034 25.3923 9.03417 26.0354 10.2759C26.6742 11.5176 26.5806 13.0062 25.7869 14.1578L18.9026 25.0895C18.5541 25.6382 18.0745 26.0893 17.5082 26.4011C16.9419 26.7129 16.307 26.8755 15.6622 26.8738Z" fill="#111111"/>
<path d="M27.2314 26.9647C29.193 26.9647 30.7832 25.3902 30.7832 23.448C30.7832 21.5057 29.193 19.9312 27.2314 19.9312C25.2699 19.9312 23.6797 21.5057 23.6797 23.448C23.6797 25.3902 25.2699 26.9647 27.2314 26.9647Z" fill="#111111"/>
<path d="M181.531 20.1361C182.604 20.1361 183.245 20.9078 183.245 22.1717V26.503H184.703V22.0726C184.703 19.9232 183.701 18.6771 181.819 18.6771C181.082 18.6771 179.913 18.8811 179.216 20.2514C179.054 19.8472 178.786 19.495 178.442 19.2321C178.098 18.9692 177.69 18.8055 177.261 18.7584C176.992 18.7084 176.717 18.692 176.443 18.7096C175.844 18.7584 174.777 19.1353 174.378 19.9898V18.8411H172.919V26.503H174.378V22.3683C174.378 20.7599 175.418 20.1361 176.46 20.1361C177.437 20.1361 178.078 20.8915 178.078 22.1554V26.503H179.528V22.3683C179.528 21.0881 180.288 20.1213 181.531 20.1361ZM167.565 25.2228C168.231 25.2376 168.875 24.9685 169.341 24.4807C169.808 23.9929 170.057 23.3291 170.032 22.6477C170.032 21.1044 168.91 20.1361 167.565 20.1361C166.219 20.1361 165.098 21.1044 165.098 22.6477C165.071 23.3277 165.32 23.9899 165.785 24.4763C166.249 24.9641 166.89 25.2346 167.553 25.2228H167.565ZM167.565 26.6597C165.434 26.6597 163.655 25.0676 163.655 22.6388C163.655 20.21 165.434 18.6682 167.565 18.6682C169.696 18.6682 171.489 20.21 171.489 22.6388C171.489 25.0676 169.686 26.6671 167.555 26.6671L167.565 26.6597ZM156.149 22.6388L156.135 22.6477C156.135 20.2189 157.96 18.6771 160.106 18.6682C160.645 18.6576 161.18 18.7617 161.677 18.9735C162.174 19.1854 162.621 19.5004 162.99 19.8981L161.885 20.8501C161.65 20.617 161.372 20.4333 161.067 20.3094C160.762 20.1856 160.435 20.1242 160.106 20.1287C158.761 20.1287 157.592 21.097 157.592 22.6388C157.592 23.681 158.205 24.6197 159.144 25.0188C160.084 25.4179 161.166 25.1962 161.885 24.46L163.006 25.412C162.636 25.8138 162.187 26.1325 161.687 26.3475C161.188 26.5624 160.649 26.6688 160.106 26.6597C157.977 26.6597 156.149 25.0676 156.149 22.6388ZM151.482 25.0321C151.481 24.8981 151.505 24.7652 151.555 24.6409C151.604 24.5165 151.677 24.4032 151.77 24.3074C151.862 24.2116 151.972 24.1351 152.094 24.0824C152.216 24.0297 152.347 24.0018 152.479 24.0003C152.612 24.0018 152.743 24.0297 152.864 24.0824C152.986 24.1351 153.096 24.2116 153.189 24.3074C153.282 24.4032 153.355 24.5165 153.404 24.6409C153.453 24.7652 153.478 24.8981 153.476 25.0321C153.463 25.2915 153.353 25.5361 153.168 25.7161C152.982 25.896 152.736 25.9977 152.479 26.0004C152.222 25.9977 151.976 25.896 151.791 25.7161C151.606 25.5361 151.495 25.2915 151.482 25.0321Z" fill="#111111"/>
<path fill-rule="evenodd" clip-rule="evenodd" d="M155.47 9.10017H150.28L146.642 18.5862L143.023 9.10017H137.833L144.142 24.0897L140.218 34H145.37L155.47 9.10017ZM123.905 17.4376C123.905 19.8323 125.974 21.4082 128.007 21.4082C130.005 21.4082 131.968 19.9417 131.968 17.4361C131.968 14.9304 130.005 13.4625 128.007 13.4625C125.974 13.4625 123.905 15.0413 123.905 17.4376ZM131.968 25.8075V23.9109C130.916 25.5222 128.46 26.1312 127.201 26.1312C123.029 26.1312 118.856 22.8051 118.856 17.4361C118.856 12.0685 123.028 8.74243 127.201 8.74243C128.251 8.74243 130.707 9.09722 131.968 10.9598V9.10609H136.806V25.8104L131.968 25.8075ZM117.479 25.8075H112.641V23.732C111.833 25.2694 109.873 26.1652 107.838 26.1652C103.63 26.1652 99.9132 22.7667 99.9132 17.5041C99.9132 12.1424 103.63 8.73948 107.838 8.73948C109.87 8.73948 111.836 9.59687 112.641 11.1357V0H117.479V25.8075ZM112.536 17.3991C112.536 14.895 110.748 13.427 108.75 13.427C106.681 13.427 104.962 15.0014 104.962 17.3991C104.962 19.8737 106.681 21.4407 108.749 21.4407C110.785 21.4437 112.536 19.7969 112.536 17.3991ZM87.9512 16.9675C87.9512 14.4278 89.2491 13.569 90.9665 13.569C92.6138 13.569 93.8065 14.6777 93.8065 16.895V25.8045H98.6796V15.8233C98.6796 11.0663 96.3644 8.73948 92.6825 8.73948C90.7546 8.73948 88.8267 9.84817 87.9497 11.5304V9.10017H83.0795V25.8045H87.9512V16.9675ZM73.1842 26.0913C68.5567 26.0913 64.6965 22.6573 64.6965 17.3977C64.6965 12.135 68.5523 8.73504 73.1842 8.73504C77.8162 8.73504 81.7056 12.135 81.7056 17.3977C81.7056 22.6603 77.8118 26.0913 73.1842 26.0913ZM73.1842 21.2278C75.2159 21.2278 76.9012 19.723 76.9012 17.3991C76.9012 15.1448 75.2174 13.6059 73.1842 13.6059C72.6947 13.5982 72.2087 13.6913 71.7559 13.8796C71.3031 14.0679 70.8929 14.3475 70.5504 14.7013C70.2058 15.057 69.9355 15.4791 69.7555 15.9426C69.5754 16.406 69.4894 16.9014 69.5024 17.3991C69.5038 19.7259 71.1862 21.2278 73.1842 21.2278ZM55.9603 13.5704C57.3971 13.5704 58.6599 14.7161 58.6599 16.8965V25.8075H63.498V16.32C63.498 11.2762 61.0731 8.73652 57.1866 8.73652C56.0319 8.73652 53.857 9.0913 52.2784 11.7049C51.3664 9.77278 49.6139 8.77052 47.0238 8.77052C46.1246 8.7659 45.2431 9.02329 44.4847 9.51194C43.7262 10.0006 43.123 10.6998 42.7471 11.526V9.10165H37.8711V25.806H42.7427V16.9675C42.7427 14.4278 44.1108 13.569 45.5827 13.569C46.9858 13.569 48.2458 14.6777 48.2823 16.7886V25.806H53.1554V16.9675C53.1554 14.5387 54.4183 13.5704 55.9603 13.5704Z" fill="#111111"/>
</g>
</g>
<defs>
<clipPath id="clip0_2097_12745">
<rect width="185" height="34" fill="white"/>
</clipPath>
</defs>
</svg>
