<svg width="124" height="33" viewBox="0 0 124 33" fill="none" xmlns="http://www.w3.org/2000/svg">
<g clip-path="url(#clip0_2400_1392)">
<path d="M67.5161 28.7559H70.6778V7.42134H67.5161V20.1303C67.5161 24.0761 64.9589 26.3701 60.8672 26.3701C56.4501 26.3701 55.1018 23.2961 55.1018 20.1303V7.42134H51.8936V20.8644C51.8936 25.4066 53.7999 29.2606 59.7513 29.2606C63.6105 29.2606 66.5397 27.196 67.4696 23.0667H67.5161V28.7559Z" fill="white"/>
<path d="M76.545 22.5161C76.545 26.4619 78.4978 29.2606 82.822 29.2606C84.6353 29.2606 85.8442 29.0312 87.2855 28.5724L86.8206 25.6819C85.5652 26.049 84.5888 26.2325 83.3799 26.2325C80.7761 26.2325 79.7532 24.9019 79.7532 22.2408V10.2201H87.0531V7.42134H79.7532V1.31919H76.545V7.42134H73.0578V10.2201H76.545V22.5161Z" fill="white"/>
<path d="M93.7673 3.75088V0.630981H89.8617V3.75088H93.7673ZM93.4419 28.7559V7.42134H90.2337V28.7559H93.4419Z" fill="white"/>
<path d="M101.421 0.630981H98.2131V28.7559H101.421V0.630981Z" fill="white"/>
<path d="M112.633 26.5078C109.239 26.5078 108.03 24.7184 108.03 22.9749C108.03 20.7268 109.704 19.5339 112.726 19.5339H119.886V20.9103C119.886 24.122 117.143 26.5078 112.633 26.5078ZM119.886 28.7559H123.048V15.4505C123.048 9.99067 120.491 6.96253 114.679 6.96253C109.378 6.96253 106.31 9.62362 105.566 14.7623L108.634 15.267C109.285 11.3212 111.145 9.71538 114.586 9.71538C118.491 9.71538 119.886 11.78 119.886 15.5422V16.9646H112.401C107.332 16.9646 104.868 19.7174 104.868 23.2502C104.868 27.2419 107.565 29.2147 111.936 29.2147C115.748 29.2147 118.817 27.2877 119.84 23.2502H119.886V28.7559Z" fill="white"/>
<path d="M24.5166 26.569C24.4815 26.6045 24.4463 26.6397 24.4111 26.6745C23.9627 27.1203 22.1785 28.8636 20.8887 29.6814C14.1839 33.9325 8.9434 33.3071 4.64502 28.9517C-1.50329 22.7219 0.222279 16.2321 5.69675 10.6851L13.405 2.87459L19.2813 8.82877L13.1449 15.0465C10.0553 18.177 8.70545 22.3014 12.6774 26.326C16.3954 30.0933 20.799 30.2461 24.4111 26.6745C24.4793 26.6068 24.5166 26.569 24.5166 26.569Z" fill="white"/>
<path d="M19.2334 8.82806C19.2685 8.79253 19.3036 8.75734 19.3388 8.72251C19.7872 8.2767 21.5714 6.53338 22.8613 5.71559C29.566 1.46458 34.8065 2.08995 39.1049 6.44533C45.2532 12.6752 43.5277 19.1649 38.0532 24.712L30.3449 32.5224L24.4687 26.5683L30.605 20.3505C33.6946 17.22 35.0445 13.0956 31.0726 9.07105C27.3545 5.30373 22.9509 5.15097 19.3388 8.72251C19.2707 8.79028 19.2334 8.82806 19.2334 8.82806Z" fill="white"/>
</g>
<defs>
<clipPath id="clip0_2400_1392">
<rect width="122.297" height="31.9331" fill="white" transform="translate(0.750977 0.630981)"/>
</clipPath>
</defs>
</svg>
