<svg width="197" height="49" viewBox="0 0 197 49" fill="none" xmlns="http://www.w3.org/2000/svg">
<g clip-path="url(#clip0_2400_1343)">
<path d="M73.0853 15.1461V27.3544C73.0853 28.5047 73.2253 29.3767 73.4961 29.9612C73.9723 30.9909 74.9248 31.5011 76.3348 31.5011C78.1369 31.5011 79.3695 30.7682 80.0418 29.3025C80.3873 28.5047 80.5554 27.4657 80.5554 26.1577V15.1461H85.9152V35.4066H80.7795V32.5494C80.7328 32.605 80.6021 32.7999 80.406 33.106C80.2099 33.4214 79.9764 33.6904 79.7057 33.9223C78.8746 34.6645 78.0716 35.1747 77.2965 35.453C76.5309 35.722 75.6251 35.8612 74.5886 35.8612C71.6006 35.8612 69.5837 34.7851 68.5472 32.6236C67.9682 31.4269 67.6788 29.6736 67.6788 27.3637V15.1461H73.0853Z" fill="white"/>
<path d="M99.94 14.6545C102.032 14.6545 103.731 15.2111 105.057 16.3058C106.392 17.3911 107.055 19.2094 107.055 21.7512V35.3974H101.649V23.0778C101.649 22.011 101.509 21.1946 101.219 20.6287C100.696 19.5897 99.7159 19.0702 98.2499 19.0702C96.4571 19.0702 95.2245 19.8309 94.5616 21.3616C94.2161 22.1687 94.0387 23.1984 94.0387 24.4508V35.4159H88.7722V15.174H93.8706V18.1333C94.5522 17.0943 95.1872 16.3429 95.7941 15.8883C96.896 15.0719 98.2779 14.6545 99.94 14.6545Z" fill="white"/>
<path d="M115.067 8.00311H109.791V35.4067H115.067V8.00311Z" fill="white"/>
<path d="M135.889 22.7253C135.656 21.139 135.142 19.7475 134.349 18.5415C133.471 17.1778 132.36 16.1852 131.015 15.5451C129.671 14.9143 128.158 14.5989 126.477 14.5989C123.648 14.5989 121.341 15.5358 119.567 17.4097C117.802 19.2837 116.915 21.9739 116.915 25.4713C116.915 29.2098 117.896 31.9186 119.857 33.5792C121.818 35.2397 124.087 36.0654 126.655 36.0654C129.773 36.0654 132.192 35.082 133.919 33.1061C135.03 31.863 135.656 30.6477 135.787 29.4417H130.399C130.119 30.0354 129.792 30.4993 129.419 30.8333C128.737 31.4548 127.859 31.7609 126.767 31.7609C125.739 31.7609 124.862 31.5105 124.133 31.0002C122.929 30.1839 122.303 28.7553 122.229 26.7236H136.048C136.086 24.9889 136.03 23.653 135.889 22.7253ZM122.369 23.2448C122.546 21.9275 122.966 20.8885 123.629 20.1186C124.311 19.3486 125.263 18.9682 126.486 18.9682C127.607 18.9682 128.55 19.3393 129.297 20.0629C130.063 20.7772 130.483 21.844 130.576 23.2448H122.369Z" fill="white"/>
<path d="M155.219 34.0151C155.041 33.7646 154.939 33.3008 154.901 32.605C154.883 31.6866 154.864 30.9074 154.864 30.2673V20.9627C154.864 18.5229 154.005 16.8623 152.287 15.9811C150.569 15.0998 148.608 14.6637 146.395 14.6637C142.996 14.6637 140.605 15.5543 139.205 17.3355C138.327 18.4765 137.832 19.933 137.72 21.7048H142.818C142.94 20.9256 143.192 20.304 143.556 19.8402C144.079 19.2186 144.957 18.9125 146.208 18.9125C147.319 18.9125 148.159 19.0702 148.729 19.3949C149.308 19.7103 149.597 20.2762 149.597 21.1111C149.597 21.7976 149.224 22.2893 148.468 22.614C148.047 22.7995 147.347 22.9572 146.376 23.0778L144.574 23.3004C142.538 23.5602 140.988 23.9962 139.942 24.5992C138.028 25.7124 137.066 27.5121 137.066 30.0076C137.066 31.9278 137.664 33.4121 138.84 34.4697C140.045 35.5087 141.548 36.0282 143.379 36.0282C144.817 36.0282 146.096 35.7035 147.235 35.0448C148.187 34.4882 149.028 33.811 149.756 33.0225C149.794 33.4863 149.84 33.8945 149.906 34.247C149.962 34.6088 150.083 34.9892 150.242 35.3974H155.984V34.6181C155.648 34.4604 155.396 34.2563 155.219 34.0151ZM149.588 27.5214C149.551 29.2932 149.056 30.5178 148.085 31.1857C147.132 31.8536 146.086 32.1876 144.957 32.1876C144.247 32.1876 143.631 31.9928 143.126 31.5939C142.632 31.1857 142.389 30.5271 142.389 29.6272C142.389 28.6068 142.8 27.8553 143.612 27.3822C144.088 27.0946 144.891 26.8534 146.002 26.6586L147.188 26.436C147.786 26.3247 148.243 26.2041 148.58 26.0835C148.925 25.9443 149.271 25.7681 149.597 25.564V27.5214H149.588Z" fill="white"/>
<path d="M161.96 28.9408C162.072 29.8777 162.315 30.5457 162.679 30.9446C163.333 31.6496 164.547 32.0021 166.312 32.0021C167.348 32.0021 168.17 31.8444 168.777 31.5383C169.393 31.2229 169.701 30.759 169.701 30.1468C169.701 29.553 169.458 29.0985 168.963 28.7923C168.469 28.4769 166.638 27.9482 163.464 27.1967C161.176 26.6309 159.56 25.9165 158.627 25.0538C157.693 24.2096 157.217 22.9944 157.217 21.408C157.217 19.5341 157.945 17.9292 159.402 16.5934C160.877 15.239 162.941 14.571 165.593 14.571C168.114 14.571 170.168 15.0813 171.746 16.1017C173.343 17.1036 174.258 18.8476 174.491 21.3245H169.216C169.141 20.6381 168.945 20.1 168.646 19.7011C168.067 18.9868 167.077 18.625 165.677 18.625C164.528 18.625 163.706 18.8012 163.211 19.163C162.735 19.5248 162.492 19.9423 162.492 20.4247C162.492 21.0277 162.754 21.473 163.277 21.742C163.79 22.0296 165.63 22.5212 168.786 23.2077C170.887 23.7087 172.465 24.4508 173.511 25.4527C174.547 26.4731 175.07 27.7441 175.07 29.2655C175.07 31.2692 174.323 32.9112 172.829 34.1914C171.345 35.4531 169.047 36.0932 165.938 36.0932C162.763 36.0932 160.419 35.4252 158.897 34.0894C157.394 32.735 156.638 31.0188 156.638 28.9408H161.96Z" fill="white"/>
<path d="M187.836 14.6175C189.087 14.6175 190.217 14.8401 191.225 15.2668C192.252 15.7029 193.093 16.3615 193.746 17.2614C194.307 18.0128 194.643 18.8013 194.764 19.5991C194.886 20.3969 194.951 21.6957 194.951 23.5046V35.3975H189.554V23.0779C189.554 21.9925 189.367 21.1112 188.994 20.4433C188.517 19.5063 187.593 19.0332 186.248 19.0332C184.848 19.0332 183.783 19.5063 183.064 20.4433C182.354 21.371 181.99 22.7068 181.99 24.4416V35.4068H176.724V8.09589H181.99V17.7809C182.756 16.6027 183.634 15.7863 184.642 15.3318C185.66 14.8587 186.725 14.6175 187.836 14.6175Z" fill="white"/>
<path d="M2.51414 36.3252L11.745 27.0668H0.46875V22.0759H11.7448L2.51414 12.8178L6.03442 9.29258L15.2685 18.5542V0.544556H20.2455V18.541L37.6703 1.06418L41.1906 4.58937L23.756 22.0759H57.4283V27.0668H23.7558L41.1813 44.5444L37.661 48.0695L20.2455 30.602V48.7838H15.2685V30.5888L6.03442 39.8504L2.51414 36.3252Z" fill="white"/>
</g>
<defs>
<clipPath id="clip0_2400_1343">
<rect width="195.675" height="48.2393" fill="white" transform="translate(0.46875 0.544922)"/>
</clipPath>
</defs>
</svg>
