<svg width="135" height="40" viewBox="0 0 135 40" fill="none" xmlns="http://www.w3.org/2000/svg">
<g clip-path="url(#clip0_2097_12696)">
<mask id="mask0_2097_12696" style="mask-type:luminance" maskUnits="userSpaceOnUse" x="0" y="0" width="135" height="40">
<path d="M134.332 0H0.789062V39.8774H134.332V0Z" fill="white"/>
</mask>
<g mask="url(#mask0_2097_12696)">
<path d="M1.3735 36.7483H2.31883C2.75513 36.7483 3.15507 36.672 3.4823 36.5193C3.80953 36.3667 4.10039 36.1377 4.31855 35.8706C4.57306 35.6035 4.79121 35.2601 5.04572 34.8403C11.2994 23.7738 26.3518 18.2406 34.7143 7.17412H38.1684C29.7332 18.3169 14.4626 23.8883 8.3907 35.0693C7.77261 36.2141 7.29995 37.1299 6.79093 37.8168C6.28191 38.5037 5.73653 39.0379 5.00936 39.3814C4.28219 39.7248 3.40958 39.8774 2.31883 39.8774C2.02796 39.8774 1.73709 39.8774 1.5553 39.8774C1.3735 39.8774 1.08263 39.8774 0.828125 39.8011C0.828125 38.58 0.973559 37.9694 1.40986 36.7483H1.3735ZM36.2777 4.73187C37.2957 2.82386 37.623 1.86985 37.623 0H41.077C41.077 1.90801 40.7498 2.86202 39.7318 4.73187H36.2777Z" fill="#111111"/>
<path d="M20.2779 31.4829C19.0417 31.4829 18.2055 31.2158 17.7692 30.7197C17.3692 30.2236 17.4056 29.4604 17.9873 28.4683C18.5691 27.4761 19.7325 26.255 21.4777 24.7667C29.9856 17.7071 36.3848 14.1963 41.6931 7.13672H45.1472C39.9842 13.9674 33.9124 17.4018 25.5863 24.2325C24.4591 25.1483 23.6956 25.9115 23.2593 26.5221C22.8594 27.1327 22.7503 27.5524 22.9321 27.8195C23.1139 28.0867 23.5865 28.2393 24.3137 28.2393C25.0409 28.2393 25.8771 28.0485 26.9315 27.6669C27.9859 27.2853 29.1858 26.6747 30.5674 25.7971C31.9854 24.9575 33.4761 23.8509 35.1849 22.5153H37.2574C35.6939 23.7364 34.9304 24.347 33.5124 25.5681H32.5307C30.7855 26.7892 29.2221 27.8195 27.7314 28.6972C26.2407 29.5749 24.8955 30.2618 23.6229 30.7197C22.3504 31.1776 21.2232 31.4448 20.2052 31.4448L20.2779 31.4829ZM25.9498 31.0632C27.9496 28.7736 29.2221 27.6669 31.9127 25.3773C31.9127 25.3773 31.9127 25.3391 31.9127 25.301C40.5296 18.0505 47.256 14.4253 52.7097 7.17488H56.1638C48.9284 16.7149 37.6937 21.4849 29.2585 31.0632H25.9135H25.9498Z" fill="#111111"/>
<path d="M38.715 31.4824C37.1152 31.4824 35.9881 31.2152 35.4064 30.7192C34.8246 30.2231 34.7883 29.3835 35.4427 28.2387C36.0972 27.0939 37.5151 25.5675 39.8421 23.6213H43.1871C41.6964 24.8806 40.7147 25.8728 40.2057 26.5597C39.6967 27.2466 39.5512 27.7427 39.8057 28.0479C40.0602 28.3532 40.642 28.5059 41.5873 28.5059C42.4236 28.5059 43.2234 28.3914 44.0233 28.1243C44.8232 27.8571 45.5867 27.4755 46.3503 26.9794C47.1138 26.4834 47.9137 25.911 48.7499 25.2241C49.6589 24.4609 50.3497 23.8121 50.7497 23.3161C51.1496 22.82 51.3314 22.3621 51.2587 22.0186C51.2223 21.6752 51.0042 21.2554 50.6042 20.7975C50.3497 20.4159 50.2406 20.2251 49.9861 19.8435C49.5135 19.3856 49.2953 18.8895 49.368 18.2408C49.4407 17.6302 49.8407 16.867 50.5315 15.9511C51.2587 15.0353 52.3131 14.005 53.6583 12.7838C55.0763 11.5246 56.4216 10.4179 57.8032 9.50208C59.1485 8.58623 60.4938 7.89935 61.839 7.40327C63.1843 6.90718 64.5659 6.67822 65.9839 6.67822C67.5473 6.67822 68.6744 6.94534 69.2562 7.47959C69.8742 8.01383 69.947 8.81519 69.4379 9.88368C68.8926 10.9521 67.6927 12.3641 65.7294 14.0431H62.4571C63.766 12.8983 64.5659 12.0206 64.9658 11.3719C65.3658 10.7232 65.4022 10.3034 65.1476 10.0363C64.8931 9.7692 64.3478 9.65472 63.5115 9.65472C62.8207 9.65472 62.0935 9.7692 61.4027 9.99816C60.6755 10.2271 59.9847 10.5705 59.2939 11.0285C58.6031 11.4864 57.8759 12.0206 57.1488 12.6694C56.3489 13.3944 55.7308 14.005 55.4036 14.501C55.04 14.9971 54.8945 15.4169 54.8945 15.7985C54.8945 16.1801 55.0763 16.5235 55.3308 16.9433C55.5853 17.3249 55.6944 17.5157 55.9489 17.8973C56.4943 18.4316 56.7852 18.9658 56.7852 19.6145C56.7852 20.2251 56.4216 20.9883 55.6944 21.866C54.9672 22.7437 53.8401 23.8121 52.3494 25.0714C50.6769 26.4834 49.1135 27.6282 47.5865 28.5822C46.0594 29.5362 44.6051 30.2612 43.1507 30.7573C41.6964 31.2534 40.242 31.4824 38.7513 31.4824H38.715Z" fill="#111111"/>
<path d="M71.0373 10.3416C72.2735 9.08233 72.8553 8.4336 73.8006 7.17432H83.4356C82.4903 8.4336 81.9085 9.08233 80.6723 10.3416H71.0373ZM54.3488 31.1389C53.258 31.1389 52.4945 30.9863 52.0582 30.681C51.6219 30.3757 51.5855 29.8797 51.9491 29.1546C52.3127 28.4296 53.1853 27.4374 54.6396 26.1781C61.4387 20.3014 66.4198 17.3249 72.6007 11.4483C73.7642 10.3416 74.3096 9.76921 75.2913 8.66257C76.2366 7.59408 76.6729 7.05984 77.3637 5.95319C78.8908 3.62541 79.3634 2.48061 79.4362 0.152832H82.8902C82.8539 2.48061 82.3448 3.62541 80.8178 5.95319C80.127 7.02168 79.6907 7.55592 78.7453 8.66257C77.7637 9.76921 77.2183 10.3416 76.0548 11.4483C70.0557 17.1723 65.2563 20.0343 58.5664 25.7965C57.9483 26.3308 57.512 26.7505 57.2938 27.094C57.0756 27.3992 57.0393 27.6282 57.1847 27.7808C57.3302 27.9335 57.6574 27.9716 58.1664 27.9716H59.6207C58.2755 29.1928 57.6574 29.8415 56.5666 31.0626C56.5303 31.0626 56.4939 31.0626 56.4576 31.0626C56.4212 31.0626 56.3848 31.0626 56.3485 31.0626C55.9849 31.0626 55.6577 31.1008 55.2941 31.1389C54.9305 31.1389 54.6396 31.1389 54.3488 31.1389Z" fill="#111111"/>
<path d="M59.0723 31.0625C67.5075 21.5225 78.7423 16.7524 85.9777 7.17427H89.2863C87.3229 9.73101 85.9777 11.0284 82.9963 13.6233C82.9963 13.6233 82.9963 13.6615 83.0326 13.6996C74.9974 20.6448 68.671 24.1174 62.5264 31.0625H59.0723ZM80.233 15.1879C82.16 13.6615 84.0143 12.2495 85.7595 11.0284C87.5047 9.76917 89.0681 8.777 90.5952 8.05195C92.0859 7.32691 93.4675 6.94531 94.7764 6.94531C94.9219 6.94531 95.0309 6.94531 95.1764 6.94531C95.3218 6.94531 95.4309 6.94531 95.5763 6.94531C94.5219 8.35724 93.9038 9.08228 92.4858 10.4942C92.3404 10.4942 92.195 10.4942 92.0495 10.4942H91.686C90.5952 10.4942 89.4681 10.7231 88.2319 11.1429C87.0321 11.5627 85.7232 12.2495 84.1961 13.2417C82.669 14.1957 80.9602 15.455 78.9968 17.0196C78.4514 17.0959 78.1969 17.1722 77.6516 17.2485C78.706 16.409 79.2513 15.9892 80.2694 15.1497L80.233 15.1879Z" fill="#111111"/>
<path d="M99.5039 4.73187C100.522 2.82386 100.849 1.86985 100.849 0H104.303C104.303 1.90801 103.976 2.86202 102.958 4.73187H99.5039ZM71.0352 31.0243C79.4703 21.4842 90.7051 16.7142 97.9405 7.13597H101.395C94.1592 16.676 82.9244 21.4461 74.4892 31.0243H71.0352Z" fill="#111111"/>
<path d="M73.8359 39.8017C73.9449 26.7509 95.1056 20.2255 104.995 7.17472H108.34C106.377 9.80778 104.959 11.1052 101.941 13.7383H101.759C96.7417 18.0504 93.5058 20.2255 88.2702 24.5376H88.5611C81.1439 30.6433 77.3626 33.6961 77.3263 39.8017H73.8722H73.8359ZM86.2341 31.4828C84.8525 31.4828 84.0163 31.1012 83.7617 30.338C83.5072 29.5748 83.9072 28.43 85.107 26.8654C86.3068 25.339 88.3793 23.3928 91.2516 21.1032C93.324 19.5005 94.3784 18.6991 96.3782 17.0582C99.3596 14.7686 101.868 12.8224 104.014 11.296C106.159 9.76962 107.904 8.62481 109.467 7.8616C111.067 7.0984 112.485 6.7168 113.83 6.7168C115.321 6.7168 116.303 7.13656 116.666 7.97608C117.03 8.81561 116.666 10.1512 115.248 11.9829C113.867 13.8146 111.249 16.1805 107.54 19.0807C103.795 22.0191 100.487 24.385 97.8325 26.2167C95.142 28.0484 92.9968 29.384 91.1425 30.2235C89.2882 31.063 87.6521 31.4828 86.1614 31.4828H86.2341ZM88.5247 28.3155C89.4337 28.3155 90.5608 28.0102 91.8697 27.3996C93.1786 26.7891 94.7784 25.7969 96.7781 24.4231C98.7778 23.0494 101.287 21.2558 104.195 18.9662C107.104 16.7148 109.14 14.9212 110.34 13.5856C111.54 12.25 112.012 11.296 111.976 10.7236C111.903 10.1512 111.394 9.8841 110.449 9.8841C109.504 9.8841 108.449 10.1894 107.213 10.7999C105.941 11.4105 104.413 12.4027 102.523 13.7383C100.596 15.112 98.2324 16.8674 95.3965 19.0807C92.5605 21.294 90.4881 23.0494 89.1792 24.4231C87.8703 25.7588 87.2522 26.7509 87.2158 27.3615C87.2158 27.972 87.6521 28.2773 88.5974 28.2773L88.5247 28.3155Z" fill="#111111"/>
<path d="M103.358 31.4828C101.686 31.4828 100.631 31.063 100.231 30.2235C99.8677 29.384 100.268 28.0484 101.758 26.2167C103.249 24.385 105.94 22.019 109.684 19.0807C113.393 16.1805 116.593 13.8146 119.174 11.9829C121.755 10.1512 123.828 8.81561 125.682 7.97608C127.536 7.13656 129.245 6.7168 130.918 6.7168C132.59 6.7168 133.754 7.17472 134.19 8.0524C134.59 8.93009 134.263 10.3039 132.881 12.0974C131.5 13.8909 129.027 16.1805 125.464 18.9662C125.21 19.157 124.991 19.3478 124.737 19.5386C124.482 19.7294 124.264 19.9202 124.01 20.111H110.084C111.611 18.9281 112.375 18.3175 113.866 17.1345H125.9C124.773 17.5161 124.228 17.7069 123.101 18.1267C125.573 16.1424 127.355 14.5778 128.409 13.3567C129.463 12.1355 129.936 11.2579 129.863 10.6855C129.791 10.1131 129.282 9.84594 128.336 9.84594C127.391 9.84594 126.373 10.1131 125.21 10.6473C124.01 11.1815 122.592 12.0974 120.774 13.3948C118.956 14.6923 116.665 16.4095 113.866 18.5846C113.429 18.9281 113.211 19.1189 112.739 19.4623C109.794 21.7519 107.685 23.5455 106.485 24.8429C105.249 26.1404 104.74 27.0562 104.776 27.6286C104.849 28.1628 105.358 28.43 106.339 28.43C107.067 28.43 107.903 28.2773 108.775 27.9339C109.684 27.5904 110.702 27.0562 111.939 26.2548C113.175 25.4916 114.666 24.4231 116.483 23.1257C117.829 23.1257 118.52 23.1257 119.865 23.1257C117.211 25.0719 114.956 26.6364 112.993 27.8576C111.03 29.0787 109.357 29.9945 107.794 30.6051C106.23 31.2157 104.776 31.4828 103.322 31.4828H103.358Z" fill="#111111"/>
</g>
</g>
<defs>
<clipPath id="clip0_2097_12696">
<rect width="135" height="40" fill="white"/>
</clipPath>
</defs>
</svg>
