<svg width="59" height="37" viewBox="0 0 59 37" fill="none" xmlns="http://www.w3.org/2000/svg">
<g clip-path="url(#clip0_2097_12634)">
<path d="M28.4697 15.1399L28.3366 15.0598C27.5147 16.2895 26.085 16.9987 24.5222 16.9987C22.2156 17.0245 20.6529 15.4544 20.5487 11.7882H28.5247V11.2391C28.5247 8.01901 26.14 5.73975 23.0144 5.73975C19.1972 5.73975 16.416 9.22299 16.416 13.3582C16.416 17.6794 19.3303 20.0358 22.3517 20.0358C25.266 20.0358 27.6507 18.0712 28.4697 15.1399ZM22.5629 6.57767C23.7032 6.57767 24.2328 7.83312 24.2849 10.8988H20.5487C20.6268 7.86172 21.4487 6.57767 22.5629 6.57767Z" fill="#111111"/>
<path d="M6.45496 36.0394C8.3361 36.0394 10.032 34.5723 10.932 33.4999L10.9841 33.5257C10.932 33.8917 10.906 34.4151 10.906 34.9384V36.1681H11.0131C12.4977 35.539 14.4049 35.0156 16.3121 35.0156V34.9355C15.4641 34.518 15.0676 33.5743 15.0676 32.3703V12.9351H15.0155C13.7972 14.1934 11.4906 15.0027 9.55739 15.0571V15.1343C10.4574 15.5804 10.9089 16.6014 10.9089 17.648V22.2151C10.3793 22.0579 9.7947 21.9006 9.05382 21.9006C4.81403 21.9006 2.00391 25.7499 2.00391 30.0453C2.00101 33.4484 3.88504 36.0394 6.45496 36.0394ZM9.07697 33.3198C7.51418 33.3198 6.42602 31.8756 6.42602 28.4981C6.39997 25.2237 7.6994 22.7499 9.36638 22.7499C10.2664 22.7499 10.9291 23.3791 10.9291 24.32V32.7163C10.3214 33.0824 9.73971 33.3198 9.07697 33.3198Z" fill="#111111"/>
<path d="M16.7194 35.6732H23.3439V35.5931C22.6291 35.1755 22.2297 34.2576 22.2297 33.1308V25.8984H22.1516C20.7711 27.3225 18.3343 27.3082 16.6934 27.0709V27.1481C17.6745 27.5399 17.9639 29.1614 17.9639 30.1566V33.1337C17.9639 34.2862 17.4863 35.1498 16.7194 35.5959V35.6732Z" fill="#111111"/>
<path d="M36.1025 31.1433L35.9694 31.0633C35.1475 32.293 33.7178 33.0022 32.1551 33.0022C29.8485 33.0279 28.2857 31.4579 28.1815 27.7916H36.1575V27.2426C36.1575 24.0224 33.7728 21.7432 30.6473 21.7432C26.83 21.7432 24.0488 25.2264 24.0488 29.3617C24.0488 33.6828 26.9631 36.0393 29.9845 36.0393C32.8988 36.0393 35.2835 34.0746 36.1025 31.1433ZM30.1958 22.5811C31.336 22.5811 31.8657 23.8365 31.9178 26.9023H28.1815C28.2597 23.8651 29.0816 22.5811 30.1958 22.5811Z" fill="#111111"/>
<path d="M36.8271 35.5959V35.676H43.3705V35.5959C42.6557 35.0469 42.2563 34.2089 42.2563 33.1622V25.2006C43.0782 24.7544 44.1374 24.3369 44.8002 24.3369C45.5671 24.3626 45.9144 24.9117 45.9144 26.0127V33.1622C45.9144 34.289 45.57 35.0469 44.8291 35.5959V35.676H51.1353V35.5959C50.4465 35.0469 50.076 34.2089 50.076 33.1622V25.2292C50.8979 24.783 51.9832 24.3369 52.646 24.3369C53.4129 24.3369 53.7312 24.9403 53.7312 26.0127V33.1622C53.7312 34.289 53.3608 35.0469 52.617 35.5959V35.676H58.9232V35.5959C58.2344 35.1784 57.89 34.3119 57.89 33.1336V24.5971C57.89 22.8956 56.961 21.7688 55.294 21.7431C53.465 21.7688 51.2394 23.3417 50.0992 24.5457H50.0731C50.0731 22.8956 49.147 21.7431 47.4511 21.7431C45.6221 21.7431 43.4226 23.3417 42.2563 24.5457L42.2303 24.5199C42.2563 24.1281 42.2823 23.6048 42.2823 23.1072V21.6401H42.2042C40.9858 22.8698 38.7603 23.7077 36.8242 23.7621V23.8393C37.7792 24.2311 38.0947 25.0947 38.0947 26.2758V33.1365C38.0975 34.2061 37.649 35.0697 36.8271 35.5959Z" fill="#111111"/>
<path d="M0.498047 0.706371V0.783586C1.55727 1.20112 2.11582 2.19633 2.11582 3.45464V17.0959C2.11582 18.4057 1.56016 19.4009 0.498047 19.8728V19.95H8.2078V19.8756C7.14858 19.4038 6.61897 18.4085 6.61897 17.0988V13.0922C7.20067 13.198 7.83736 13.2495 8.47406 13.2752C12.2103 13.2495 16.6874 10.9702 16.6874 6.33732C16.6874 2.56524 13.2174 0 7.97049 0C5.45266 0 3.04192 0.28884 0.498047 0.706371ZM6.61897 3.01423C6.61897 1.70444 7.14858 1.04955 8.42196 1.04955C10.5404 1.04955 11.7617 3.1944 11.7617 6.86066C11.7617 10.4755 10.1989 12.2228 7.46982 12.2228C7.20357 12.2228 6.91416 12.2228 6.62186 12.1713V3.01423H6.61897Z" fill="#111111"/>
<path d="M34.7023 7.48995V5.91992H34.6241C33.4057 7.14963 31.1802 7.98755 29.2441 8.04189V8.1191C30.1702 8.5109 30.5174 9.37456 30.5174 10.5556V17.4163C30.5174 18.4887 30.0399 19.381 29.2441 19.8786V19.9558H35.9206V19.8757C35.1537 19.3781 34.6762 18.4887 34.6762 17.4134" fill="#111111"/>
<path d="M35.4199 10.4726C35.8164 10.0265 36.2418 9.68611 36.6933 9.68611C37.5152 9.68611 37.9666 11.2047 39.2371 11.2047C40.1661 11.2047 40.9851 10.3411 40.9851 9.03121C40.9851 7.77576 40.1372 6.83203 39.023 6.83203C37.5383 6.83489 35.5617 8.35916 35.4199 10.4726Z" fill="#111111"/>
<path d="M19.7549 25.7384C21.1103 25.7384 22.2091 24.6526 22.2091 23.3133C22.2091 21.9739 21.1103 20.8882 19.7549 20.8882C18.3995 20.8882 17.3008 21.9739 17.3008 23.3133C17.3008 24.6526 18.3995 25.7384 19.7549 25.7384Z" fill="#111111"/>
</g>
<defs>
<clipPath id="clip0_2097_12634">
<rect width="59" height="37" fill="white"/>
</clipPath>
</defs>
</svg>
