<svg width="123" height="26" viewBox="0 0 123 26" fill="none" xmlns="http://www.w3.org/2000/svg">
<g clip-path="url(#clip0_2097_12770)">
<path d="M0 10.827V6.51569H2.32202V1.55225H7.11468V6.51569H11.4987V10.827H7.11468V17.6924C7.11468 19.0088 7.4119 19.8964 8.00633 20.3553C8.61316 20.8021 9.96922 21.0376 12.0745 21.0618L12.3717 25.5905H11.35C8.40263 25.5905 6.1611 25.0229 4.62547 23.8877C3.08984 22.7525 2.32202 20.6874 2.32202 17.6924V10.827H0Z" fill="#111111"/>
<path d="M13.9688 25.4818V0.103027H18.7242V8.03729C20.0988 6.9021 21.8451 6.3345 23.9628 6.3345C29.288 6.3345 31.9505 9.40193 31.9505 15.5368V25.4818H27.1949V16.7324C27.1949 14.5586 26.9163 13.0007 26.359 12.0588C25.8017 11.1168 24.6749 10.6458 22.9782 10.6458C21.6655 10.6458 20.6253 11.0323 19.8574 11.8052C19.102 12.566 18.7242 13.6227 18.7242 14.9752V25.4818H13.9688Z" fill="#111111"/>
<path d="M33.6406 16.0984C33.6406 13.3811 34.6251 11.0745 36.5942 9.17849C38.5756 7.28248 40.9906 6.33447 43.8389 6.33447C46.8359 6.33447 49.2817 7.31267 51.1765 9.26906C53.0713 11.2255 54.0186 13.5985 54.0186 16.3882C54.0186 16.6901 53.9939 17.1128 53.9443 17.6562H38.5075C38.9162 18.888 39.6035 19.8481 40.5695 20.5365C41.5478 21.2127 42.7615 21.5509 44.2104 21.5509C45.3993 21.5509 46.39 21.3577 47.1826 20.9712C47.9876 20.5848 48.7059 19.9749 49.3374 19.1416L53.3499 21.2973C51.2694 24.3647 48.2229 25.8984 44.2104 25.8984C41.1639 25.8984 38.6376 24.9685 36.6313 23.1088C34.6375 21.249 33.6406 18.9122 33.6406 16.0984ZM38.619 13.9789H48.9659C48 11.7569 46.291 10.6458 43.8389 10.6458C42.6996 10.6458 41.6593 10.9538 40.7181 11.5697C39.7769 12.1856 39.0772 12.9887 38.619 13.9789Z" fill="#111111"/>
<path d="M55.1895 16.0984C55.1895 13.3811 56.1741 11.0745 58.1432 9.17849C60.1246 7.28248 62.5395 6.33447 65.3879 6.33447C67.4932 6.33447 69.3694 6.90207 71.0164 8.03726V6.51562H75.7719V25.4818H71.0164V24.2138C69.3446 25.3248 67.4684 25.8864 65.3879 25.8984C62.5767 25.8984 60.1742 24.9383 58.1803 23.0182C56.1865 21.098 55.1895 18.7914 55.1895 16.0984ZM61.4126 12.2761C60.298 13.363 59.7407 14.6371 59.7407 16.0984C59.7407 17.5596 60.298 18.8337 61.4126 19.9206C62.5395 21.0074 63.8584 21.5509 65.3693 21.5509C66.8925 21.5509 68.2114 21.0074 69.326 19.9206C70.453 18.8337 71.0164 17.5596 71.0164 16.0984C71.0164 14.6371 70.453 13.363 69.326 12.2761C68.2114 11.1893 66.8925 10.6458 65.3693 10.6458C63.8584 10.6458 62.5395 11.1893 61.4126 12.2761Z" fill="#111111"/>
<path d="M77.2031 10.827V6.51569H79.5251V1.55225H84.3178V6.51569H88.7018V10.827H84.3178V17.6924C84.3178 19.0088 84.615 19.8964 85.2094 20.3553C85.8163 20.8021 87.1723 21.0376 89.2776 21.0618L89.5748 25.5905H88.5532C85.6057 25.5905 83.3642 25.0229 81.8286 23.8877C80.2929 22.7525 79.5251 20.6874 79.5251 17.6924V10.827H77.2031Z" fill="#111111"/>
<path d="M111.717 25.4818V6.51562H116.51V8.34521C117.86 7.02887 119.773 6.35862 122.25 6.33447L121.934 11.2798C119.829 11.2798 118.398 11.6361 117.643 12.3486C116.888 13.0611 116.51 14.2265 116.51 15.8447V25.4818H111.717Z" fill="#111111"/>
<path fill-rule="evenodd" clip-rule="evenodd" d="M89.5566 16.0984C89.5566 18.7914 90.5473 21.098 92.5288 23.0182C94.5226 24.9383 96.9251 25.8984 99.7363 25.8984C102.56 25.8984 104.963 24.9383 106.944 23.0182C108.938 21.098 109.935 18.7914 109.935 16.0984C109.935 13.3811 108.944 11.0745 106.963 9.17849C104.994 7.28248 102.585 6.33447 99.7363 6.33447V10.6458C101.26 10.6458 102.579 11.1893 103.693 12.2761C104.82 13.363 105.384 14.6371 105.384 16.0984C105.384 17.5596 104.82 18.8337 103.693 19.9206C102.579 21.0074 101.26 21.5509 99.7363 21.5509C98.2255 21.5509 96.9065 21.0074 95.7796 19.9206C94.665 18.8337 94.1077 17.5596 94.1077 16.0984H89.5566Z" fill="#111111"/>
</g>
<defs>
<clipPath id="clip0_2097_12770">
<rect width="123" height="26" fill="white"/>
</clipPath>
</defs>
</svg>
