<svg width="77" height="36" viewBox="0 0 77 36" fill="none" xmlns="http://www.w3.org/2000/svg">
<g clip-path="url(#clip0_2097_12520)">
<mask id="mask0_2097_12520" style="mask-type:luminance" maskUnits="userSpaceOnUse" x="0" y="0" width="77" height="36">
<path d="M76.3106 0.0644531H0.214844V35.3947H76.3106V0.0644531Z" fill="white"/>
</mask>
<g mask="url(#mask0_2097_12520)">
<path d="M13.6184 10.1934V12.1711H13.546C12.3501 10.5094 10.6165 9.67969 8.34523 9.67969C5.95337 9.67969 4.00034 10.5214 2.48614 12.2073C0.971944 13.869 0.214844 16.0902 0.214844 18.8759C0.214844 21.5867 1.03222 23.7597 2.66939 25.3949C4.33067 27.0301 6.26923 27.8501 8.49231 27.8501C10.4694 27.8501 12.1066 27.1169 13.399 25.653H13.5099V27.7054C13.5099 30.3173 12.1186 31.6245 9.33621 31.6245C7.31084 31.6245 6.05223 30.9275 5.56517 29.5359H0.617506C0.885143 31.3906 1.77726 32.8328 3.29146 33.8578C4.82977 34.8828 6.86719 35.3966 9.40613 35.3966C12.408 35.3966 14.6672 34.6875 16.1814 33.2718C17.6715 31.9043 18.4142 29.999 18.4142 27.5583V10.1934H13.6184ZM12.666 22.4284C11.933 23.3811 10.8239 23.8562 9.3338 23.8562C8.03901 23.8562 7.00222 23.4172 6.22101 22.5369C5.46391 21.6325 5.08536 20.388 5.08536 18.8011C5.08536 17.2383 5.46391 15.9938 6.22101 15.0652C7.00222 14.1367 8.02695 13.6736 9.29763 13.6736C10.7371 13.6736 11.8365 14.1632 12.5936 15.14C13.3749 16.0927 13.7655 17.301 13.7655 18.7673C13.7631 20.2554 13.399 21.4758 12.666 22.4284Z" fill="#111111"/>
<path d="M25.9622 10.1941V13.1967H26.0732C26.6591 12.097 27.3053 11.2914 28.0141 10.7801C28.723 10.2423 29.6127 9.97461 30.6881 9.97461C31.2017 9.97461 31.5923 10.0228 31.8599 10.1217V14.4798H31.749C30.0636 14.3086 28.711 14.6751 27.6838 15.5796C26.6591 16.484 26.1455 17.8997 26.1455 19.8291V28.9867H21.1641V10.1941H25.9622Z" fill="#111111"/>
<path d="M40.8953 9.71924C38.3081 9.71924 36.331 10.3053 34.9639 11.4774C33.5968 12.6495 32.8758 14.128 32.8035 15.9103H37.2352C37.3823 14.1521 38.5902 13.2718 40.8615 13.2718C41.8863 13.2718 42.6675 13.4792 43.2052 13.894C43.7429 14.2847 44.0105 14.8225 44.0105 15.5051C44.0105 16.1635 43.6922 16.629 43.0581 16.8967C42.424 17.1403 41.228 17.3863 39.4703 17.6299C37.0785 17.9723 35.2219 18.5946 33.903 19.499C32.5841 20.3793 31.9258 21.7709 31.9258 23.6738C31.9258 25.5043 32.5238 26.9225 33.7197 27.9233C34.9157 28.9242 36.5022 29.4259 38.4793 29.4259C39.9694 29.4259 41.1292 29.2064 41.9586 28.7675C42.788 28.3285 43.4728 27.7063 44.0105 26.8983H44.0828V28.9869H48.8087C48.8087 28.9869 48.8087 27.6195 48.8087 26.2037V16.641C48.8039 12.0249 46.1685 9.71924 40.8953 9.71924ZM44.1166 22.3545C44.1166 23.4339 43.7139 24.173 42.9086 24.8821C42.1274 25.5912 41.052 25.9457 39.6873 25.9457C38.2266 25.9457 36.7578 25.1522 36.7578 23.5653C36.7578 22.7356 37.0519 22.1254 37.6378 21.7347C38.2237 21.3199 39.2244 20.9533 40.6397 20.6349C42.4216 20.2201 43.5813 19.8535 44.119 19.5352V22.3545C44.119 22.3545 44.1166 21.2752 44.1166 22.3545Z" fill="#111111"/>
<path d="M64.1533 10.1744V12.7381H64.2643C65.559 10.6857 67.4132 9.66064 69.8292 9.66064C71.7581 9.66064 73.3205 10.3191 74.5164 11.6383C75.7124 12.9334 76.3103 14.6169 76.3103 16.6934V28.9645H71.3313V17.4266C71.3313 16.4016 71.0372 15.5695 70.4512 14.9352C69.8895 14.3009 69.0962 13.9826 68.0714 13.9826C66.972 13.9826 66.0581 14.3853 65.3252 15.1909C64.6163 15.9964 64.2643 17.0335 64.2643 18.3045V28.9645H59.2852V10.1744H64.1533Z" fill="#111111"/>
<path d="M51.5547 14.2244V28.9845H56.5338V9.71924L52.7603 12.0586C52.0104 12.5217 51.5547 13.3417 51.5547 14.2244Z" fill="#111111"/>
<path d="M51.5547 5.7852V10.3242L57.2836 6.77162C58.0335 6.30614 58.4892 5.48614 58.4892 4.60343V0.0644531L52.7603 3.61701C52.0104 4.08248 51.5547 4.90249 51.5547 5.7852Z" fill="#111111"/>
</g>
</g>
<defs>
<clipPath id="clip0_2097_12520">
<rect width="77" height="36" fill="white"/>
</clipPath>
</defs>
</svg>
