<svg width="126" height="44" viewBox="0 0 126 44" fill="none" xmlns="http://www.w3.org/2000/svg">
<path d="M24.2805 32.4772C24.2805 32.3053 24.3665 32.0474 24.3665 31.8755C24.3665 31.6175 24.2805 31.3596 24.1945 31.1877C24.0225 31.0157 23.7645 30.9298 23.3345 30.9298H20.4963L18.9482 35.1423H20.7543C21.0124 35.1423 21.2704 35.0563 21.4424 34.9704C21.6144 34.7984 21.7864 34.7125 21.9584 34.4546C22.1304 34.1967 22.2164 34.1107 22.3024 33.9387C22.3884 33.7668 22.4744 33.5948 22.4744 33.5089H22.6464L21.2704 37.2916H21.0984C21.0984 37.2056 21.1844 37.0337 21.1844 36.8617C21.1844 36.6898 21.2704 36.5178 21.2704 36.3459C21.2704 36.002 21.1844 35.7441 21.0124 35.5722C20.8403 35.4002 20.4963 35.3143 20.0663 35.3143H18.7762L17.3142 39.7847H18.8622L18.7762 39.9567H14.82L14.906 39.7847H16.1961L19.3783 30.9298H17.9162L18.0022 30.7578H25.3126L24.5385 32.9071H24.1945C24.1945 32.9071 24.2805 32.7351 24.2805 32.4772ZM28.8388 39.011C28.7528 39.1829 28.7528 39.4408 28.7528 39.5268C28.7528 39.7847 28.8388 39.8707 29.0968 39.8707C29.2688 39.8707 29.4408 39.7847 29.5268 39.6987C29.6988 39.6128 29.7848 39.5268 29.8708 39.3549C29.9568 39.1829 30.0428 39.097 30.1288 39.011C30.2149 38.925 30.2148 38.839 30.3009 38.7531L30.4729 38.839C30.4729 38.925 30.3869 39.097 30.3009 39.1829C30.2148 39.3549 30.1288 39.4408 29.9568 39.6128C29.7848 39.7847 29.6988 39.8707 29.4408 39.9567C29.2688 40.0426 29.0108 40.1286 28.8388 40.1286C28.2367 40.1286 27.9787 39.8707 27.9787 39.3549C27.9787 39.2689 27.9787 39.1829 27.9787 39.011C27.9787 38.8391 28.0647 38.7531 28.0647 38.5811C27.9787 38.7531 27.8067 38.925 27.6347 39.097C27.4627 39.2689 27.2907 39.4408 27.1187 39.6128C26.9467 39.7847 26.6887 39.8707 26.5167 39.9567C26.2586 40.0426 26.0006 40.1286 25.7426 40.1286C25.5706 40.1286 25.3986 40.1286 25.2266 40.0426C25.0546 39.9567 24.8826 39.8707 24.7966 39.7847C24.7106 39.6128 24.5385 39.4408 24.4525 39.2689C24.3665 39.097 24.3665 38.839 24.3665 38.4952C24.3665 38.1513 24.4525 37.8074 24.5385 37.4635C24.7106 37.1196 24.8826 36.7758 25.0546 36.5178C25.3126 36.174 25.4846 35.916 25.8286 35.6581C26.0866 35.4002 26.4306 35.1423 26.6887 34.9704C26.9467 34.7984 27.2907 34.6265 27.5487 34.5405C27.8067 34.4546 28.0647 34.3686 28.3228 34.3686C28.5808 34.3686 28.8388 34.4546 29.0108 34.6265C29.1828 34.7984 29.2688 34.9704 29.2688 35.2283L29.5268 34.6265H30.3869L29.0108 38.4952C29.0108 38.5811 28.9248 38.7531 28.8388 39.011ZM28.9248 36.088C29.0108 35.8301 29.0968 35.6581 29.0968 35.4862C29.0968 35.4002 29.1828 35.2283 29.1828 35.1423C29.1828 35.0564 29.1828 34.9704 29.1828 34.8844C29.1828 34.7984 29.0968 34.7125 29.0968 34.6265C29.0108 34.5405 28.9248 34.4546 28.8388 34.4546C28.7528 34.3686 28.5808 34.3686 28.4948 34.3686C28.2367 34.3686 27.8927 34.4546 27.6347 34.6265C27.3767 34.7984 27.1187 34.9704 26.8607 35.2283C26.6027 35.4862 26.4307 35.7441 26.1726 36.088C26.0006 36.4319 25.8286 36.7757 25.6566 37.1196C25.4846 37.4635 25.3986 37.8074 25.3126 38.0653C25.2266 38.3232 25.2266 38.6671 25.2266 38.925C25.2266 39.1829 25.3126 39.4408 25.3986 39.6128C25.4846 39.7847 25.6566 39.8707 25.9146 39.8707C26.1726 39.8707 26.4306 39.7847 26.6887 39.6128C26.9467 39.4408 27.2047 39.2689 27.3767 39.097C27.5487 38.925 27.8067 38.6671 27.8927 38.4092C28.0647 38.2373 28.1507 38.0653 28.1507 37.8934L28.9248 36.088ZM34.7731 34.2826C34.5151 34.2826 34.1711 34.3686 33.9131 34.4546C33.655 34.5405 33.483 34.7125 33.225 34.8844C33.053 35.0564 32.881 35.2283 32.795 35.4862C32.709 35.6581 32.623 35.916 32.623 36.088C32.623 36.3459 32.709 36.5178 32.795 36.6898C32.881 36.8617 33.053 37.0337 33.139 37.2056L33.827 38.0653C33.9991 38.2373 34.0851 38.4092 34.0851 38.4952C34.1711 38.6671 34.1711 38.7531 34.1711 38.925C34.1711 39.011 34.1711 39.1829 34.0851 39.2689C33.9991 39.3549 33.9131 39.5268 33.827 39.6128C33.741 39.6987 33.569 39.7847 33.397 39.8707C33.225 39.9567 33.053 39.9567 32.795 39.9567C32.537 39.9567 32.365 39.9567 32.279 39.8707C32.107 39.7847 32.107 39.6128 32.107 39.4408C32.107 39.3549 32.107 39.2689 32.193 39.1829C32.279 39.097 32.279 39.011 32.279 38.925C32.279 38.839 32.279 38.7531 32.193 38.7531C32.107 38.6671 32.0209 38.6671 32.0209 38.6671C31.8489 38.6671 31.6769 38.7531 31.5909 38.839C31.5049 38.925 31.4189 39.097 31.4189 39.2689C31.4189 39.4408 31.5049 39.6128 31.5909 39.6987C31.6769 39.7847 31.7629 39.9567 31.9349 40.0426C32.107 40.1286 32.279 40.2146 32.451 40.2146C32.623 40.2146 32.795 40.3006 33.053 40.3006C33.311 40.3006 33.483 40.3005 33.741 40.2146C33.9991 40.1286 34.2571 40.0426 34.4291 39.8707C34.6011 39.6987 34.8591 39.5268 34.9451 39.3549C35.1171 39.097 35.2031 38.8391 35.2031 38.5811C35.2031 38.4092 35.2031 38.3232 35.1171 38.1513C35.1171 37.9793 35.0311 37.8934 34.9451 37.7214L34.1711 36.6898C33.9991 36.5178 33.9131 36.3459 33.827 36.174C33.741 36.002 33.655 35.8301 33.655 35.6581C33.655 35.4862 33.655 35.4002 33.741 35.3143C33.827 35.1423 33.827 35.0563 33.9991 34.9704C34.1711 34.8844 34.2571 34.7984 34.3431 34.7125C34.4291 34.6265 34.6871 34.6265 34.8591 34.6265C35.1171 34.6265 35.2891 34.7125 35.2891 34.9704C35.2891 35.0563 35.2891 35.1423 35.2031 35.1423C35.1171 35.2283 35.1171 35.3143 35.1171 35.4002C35.1171 35.4862 35.2031 35.6581 35.2891 35.6581C35.3751 35.7441 35.4611 35.7441 35.6331 35.7441C35.9772 35.7441 36.1492 35.5722 36.1492 35.2283C36.1492 34.9704 36.0632 34.7984 35.8052 34.6265C35.4611 34.3686 35.1171 34.2826 34.7731 34.2826ZM42.3415 39.097C42.2555 39.2689 42.1695 39.3549 42.0835 39.4408C41.9975 39.5268 41.8255 39.6987 41.7395 39.7847C41.6535 39.8707 41.4815 39.9567 41.3095 39.9567C41.1374 39.9567 41.0514 39.9567 41.0514 39.7847C40.9654 39.6987 40.9654 39.6128 40.9654 39.5268C40.9654 39.3549 40.9654 39.2689 41.0514 39.097C41.0514 38.925 41.1375 38.839 41.2235 38.6671L42.0835 36.2599C42.1695 36.088 42.1695 35.9161 42.2555 35.7441C42.3415 35.5722 42.3415 35.4862 42.3415 35.3143C42.3415 35.0564 42.2555 34.7984 41.9975 34.6265C41.8255 34.4546 41.4815 34.3686 41.1374 34.3686C40.8794 34.3686 40.7074 34.4546 40.4494 34.5405C40.1914 34.6265 40.0194 34.7984 39.7614 34.9704C39.5894 35.1423 39.3313 35.3143 39.1593 35.4862C38.9873 35.6581 38.8153 35.8301 38.7293 36.002L40.8794 30.156H38.8153L38.7293 30.328H39.9334L36.4932 39.9567H37.3532L38.2993 37.2916C38.4713 36.8617 38.6433 36.5178 38.8153 36.174C39.0733 35.8301 39.2453 35.5722 39.5034 35.3143C39.7614 35.0564 40.0194 34.8844 40.2774 34.7125C40.5354 34.5405 40.7074 34.5405 40.9654 34.5405C41.1374 34.5405 41.3095 34.6265 41.3955 34.7125C41.4815 34.7984 41.4815 34.8844 41.4815 35.0564C41.4815 35.2283 41.4815 35.4002 41.3955 35.5722L40.2774 38.6671C40.2774 38.839 40.1914 38.925 40.1914 39.097C40.1914 39.1829 40.1054 39.3549 40.1054 39.4408C40.1054 39.6987 40.1914 39.9567 40.3634 40.0426C40.5354 40.1286 40.7934 40.2146 41.0514 40.2146C41.3095 40.2146 41.4815 40.1286 41.7395 40.0426C41.9115 39.9567 42.0835 39.7847 42.1695 39.6987C42.2555 39.5268 42.4275 39.4408 42.5135 39.2689C42.5995 39.097 42.6855 39.011 42.6855 38.925L42.5135 38.839C42.5135 38.925 42.4275 39.011 42.3415 39.097ZM46.8138 30.7578C46.6417 30.7578 46.4697 30.8438 46.3837 30.9298C46.2977 31.0157 46.2117 31.1877 46.2117 31.3596C46.2117 31.5316 46.2977 31.7035 46.3837 31.7895C46.4697 31.8754 46.6417 31.9614 46.8138 31.9614C46.9858 31.9614 47.1578 31.8754 47.2438 31.7895C47.3298 31.7035 47.4158 31.5316 47.4158 31.3596C47.4158 31.1877 47.3298 31.0157 47.2438 30.9298C47.1578 30.8438 46.9858 30.7578 46.8138 30.7578ZM46.0397 39.097C45.9537 39.2689 45.8677 39.3549 45.7817 39.4408C45.6957 39.5268 45.5237 39.6987 45.4377 39.7847C45.3517 39.8707 45.1797 39.9567 45.0077 39.9567C44.9216 39.9567 44.8356 39.9567 44.7496 39.8707C44.6636 39.7847 44.6636 39.6987 44.6636 39.6128C44.6636 39.5268 44.6636 39.3549 44.7496 39.2689C44.7496 39.097 44.8356 39.011 44.9216 38.839L46.4697 34.4546H44.4056L44.3196 34.6265H45.4377L44.1476 38.4092C44.0616 38.5811 44.0616 38.7531 43.9756 38.925C43.8896 39.097 43.8896 39.2689 43.8896 39.4408C43.8896 39.6987 43.9756 39.8707 44.1476 40.0426C44.3196 40.1286 44.5776 40.2146 44.8356 40.2146C45.0937 40.2146 45.3517 40.1286 45.5237 40.0426C45.6957 39.9567 45.8677 39.7847 46.0397 39.6987C46.2117 39.5268 46.2977 39.4408 46.3837 39.2689C46.4697 39.097 46.4697 39.011 46.5557 38.925L46.3837 38.839C46.2117 38.839 46.1257 39.011 46.0397 39.097ZM52.7481 35.7441C52.8341 36.002 52.8341 36.2599 52.8341 36.5178C52.8341 37.0337 52.7481 37.4635 52.4901 37.8934C52.3181 38.3232 51.974 38.7531 51.716 39.097C51.372 39.4408 51.028 39.6987 50.598 39.8707C50.1679 40.0426 49.8239 40.1286 49.4799 40.1286C49.1359 40.1286 48.8779 40.0426 48.6199 39.9567C48.3618 39.8707 48.1898 39.6987 48.0178 39.4408C47.8458 39.2689 47.6738 39.011 47.5878 38.7531C47.5018 38.4952 47.4158 38.2373 47.4158 37.8934C47.4158 37.3776 47.5018 36.8617 47.7598 36.4319C48.0178 36.002 48.2758 35.5722 48.6199 35.2283C48.9639 34.8844 49.3079 34.6265 49.7379 34.4546C50.1679 34.2826 50.512 34.1966 50.856 34.1966C51.2 34.1966 51.458 34.2826 51.716 34.3686C51.974 34.5405 52.146 34.7125 52.3181 34.8844C52.5761 35.2283 52.6621 35.4862 52.7481 35.7441ZM52.06 35.7441C52.06 35.3143 51.974 34.9704 51.802 34.7984C51.63 34.5405 51.286 34.4546 50.856 34.4546C50.598 34.4546 50.3399 34.5405 50.1679 34.7125C49.9099 34.8844 49.7379 35.0564 49.5659 35.3143C49.3939 35.5722 49.2219 35.8301 49.0499 36.088C48.8779 36.3459 48.7919 36.6898 48.7059 37.0337C48.6199 37.3775 48.5338 37.6355 48.4478 37.9793C48.3618 38.2373 48.3618 38.4952 48.3618 38.7531C48.3618 39.1829 48.4478 39.5268 48.7059 39.6987C48.9639 39.8707 49.2219 40.0426 49.4799 40.0426C49.7379 40.0426 49.9959 39.9567 50.2539 39.7847C50.512 39.6128 50.684 39.4408 50.856 39.1829C51.028 38.925 51.2 38.6671 51.372 38.3232C51.544 37.9793 51.63 37.7214 51.716 37.3775C51.802 37.0337 51.888 36.7758 51.974 36.5178C51.974 36.174 52.06 35.9161 52.06 35.7441ZM59.7145 39.097C59.6285 39.2689 59.5424 39.3549 59.4564 39.4408C59.3704 39.5268 59.1984 39.6987 59.1124 39.7847C59.0264 39.8707 58.8544 39.9567 58.6824 39.9567C58.5104 39.9567 58.4244 39.9567 58.4244 39.7847C58.3384 39.6987 58.3384 39.6128 58.3384 39.5268C58.3384 39.3549 58.3384 39.2689 58.4244 39.097C58.4244 38.925 58.5104 38.839 58.5964 38.6671L59.4564 36.2599C59.5424 36.088 59.5424 35.9161 59.6284 35.7441C59.7145 35.5722 59.7145 35.4862 59.7145 35.3143C59.7145 35.0564 59.6284 34.7984 59.3704 34.6265C59.1984 34.4546 58.8544 34.3686 58.5104 34.3686C57.7363 34.3686 56.9623 34.8844 56.1883 36.002L56.7043 34.4546H54.6402L54.5542 34.6265H55.7582L53.8661 39.9567H54.7262L55.6722 37.2916C55.8442 36.8617 56.0163 36.5178 56.1883 36.174C56.4463 35.8301 56.6183 35.5722 56.8763 35.3143C57.1343 35.0564 57.3923 34.8844 57.6503 34.7125C57.9084 34.5405 58.0804 34.5405 58.3384 34.5405C58.5104 34.5405 58.6824 34.6265 58.7684 34.7125C58.8544 34.7984 58.8544 34.8844 58.8544 35.0564C58.8544 35.2283 58.8544 35.4002 58.7684 35.5722L57.6503 38.6671C57.6503 38.839 57.5643 38.925 57.5643 39.097C57.5643 39.1829 57.4783 39.3549 57.4783 39.4408C57.4783 39.6987 57.5643 39.9567 57.7363 40.0426C57.9084 40.1286 58.1664 40.2146 58.4244 40.2146C58.6824 40.2146 58.8544 40.1286 59.1124 40.0426C59.2844 39.9567 59.4564 39.7847 59.5424 39.6987C59.6284 39.5268 59.8005 39.4408 59.8865 39.2689C59.9725 39.097 60.0585 39.011 60.0585 38.925L59.8865 38.839C59.8005 38.925 59.8005 39.011 59.7145 39.097ZM71.4971 39.7847H72.8732L72.7872 39.9567H68.917L69.003 39.7847H70.379L70.293 36.174H67.2829L64.7887 39.7847H66.0788L65.9928 39.9567H63.3266L63.4127 39.7847H64.5307L70.9811 30.5859H71.2391L71.4971 39.7847ZM70.293 36.002L70.207 32.0474L67.4549 36.002H70.293ZM80.8716 34.6265C81.0436 34.7984 81.1296 34.9704 81.1296 35.2283C81.1296 35.4002 81.1296 35.4862 80.9576 35.5722C80.8716 35.6581 80.6996 35.7441 80.5276 35.7441C80.4416 35.7441 80.2696 35.7441 80.1836 35.6581C80.0976 35.5722 80.0976 35.4862 80.0976 35.4002C80.0976 35.3143 80.0976 35.2283 80.0976 35.2283L80.1836 35.1423L80.2696 35.0564C80.2696 35.0564 80.2696 34.9704 80.2696 34.8844C80.2696 34.7984 80.2696 34.7984 80.1836 34.7125C80.1836 34.6265 80.0976 34.6265 80.0116 34.6265C79.8395 34.6265 79.7535 34.7125 79.5815 34.7984C79.4095 34.8844 79.3235 35.0564 79.2375 35.3143C79.3235 35.4002 79.3235 35.4862 79.4095 35.6581C79.4095 35.8301 79.4955 35.9161 79.4955 36.002C79.4955 36.2599 79.4095 36.5178 79.2375 36.7758C79.0655 37.0337 78.8935 37.2916 78.6355 37.4635C78.3775 37.6355 78.1195 37.8074 77.7754 37.9793C77.5174 38.1513 77.1734 38.1513 76.9154 38.1513C76.4854 38.1513 76.2273 38.0653 75.9693 37.9793C75.7113 37.8934 75.6253 37.8074 75.4533 37.7214L75.1953 37.8934C74.9373 38.0653 74.6793 38.1513 74.5933 38.3232C74.4213 38.4952 74.4212 38.6671 74.4212 38.7531C74.4212 38.925 74.5073 39.097 74.6793 39.1829C74.8513 39.2689 75.1953 39.3549 75.5393 39.3549L77.1734 39.4408C77.6894 39.4408 78.1195 39.6128 78.3775 39.7847C78.6355 39.9567 78.8935 40.3865 78.8935 40.8164C78.8935 41.0743 78.8075 41.4182 78.6355 41.762C78.4635 42.1059 78.2915 42.3638 78.0335 42.7077C77.7754 42.9656 77.4314 43.2235 77.0014 43.3955C76.5714 43.5674 76.1413 43.6534 75.6253 43.6534C75.2813 43.6534 74.9373 43.5674 74.6793 43.4815C74.4213 43.3955 74.0772 43.3095 73.9052 43.1376C73.6472 42.9656 73.4752 42.7937 73.3892 42.6217C73.3032 42.4498 73.2172 42.1919 73.2172 42.02C73.2172 41.848 73.3032 41.5901 73.3892 41.4182C73.4752 41.2462 73.6472 41.0743 73.7332 40.9023C73.9052 40.7304 73.9912 40.6444 74.1632 40.4725C74.3353 40.3005 74.4213 40.3005 74.5073 40.2146L74.8513 40.0426C74.7653 40.0426 74.6793 39.9567 74.5933 39.9567C74.5073 39.9567 74.4213 39.8707 74.2492 39.7847C74.1632 39.6987 74.0772 39.6128 73.9912 39.5268C73.9052 39.4408 73.9052 39.2689 73.9052 39.011C73.9052 38.7531 73.9912 38.4952 74.0772 38.3232C74.2492 38.1513 74.4213 37.8934 74.7653 37.7214L75.2813 37.4635C75.1953 37.2916 75.1093 37.2056 75.0233 37.0337C74.9373 36.8617 74.9373 36.6898 74.9373 36.4319C74.9373 36.088 75.0233 35.8301 75.1953 35.5722C75.3673 35.3143 75.5393 35.0564 75.7973 34.7984C76.0553 34.5405 76.3134 34.3686 76.6574 34.2826C77.0014 34.1107 77.2594 34.1107 77.5174 34.1107C77.7754 34.1107 77.9474 34.1107 78.1195 34.1966C78.2915 34.2826 78.4635 34.2826 78.5495 34.3686C78.7215 34.4545 78.8075 34.5405 78.8935 34.6265C78.9795 34.7125 79.0655 34.7984 79.0655 34.8844C79.1515 34.7125 79.3235 34.5405 79.4095 34.4546C79.4955 34.3686 79.7535 34.1966 80.0116 34.1966C80.5276 34.3686 80.6996 34.4546 80.8716 34.6265ZM75.2813 40.2146L74.9373 40.4725C74.6793 40.6444 74.5073 40.9023 74.4212 41.0743C74.3353 41.3322 74.2492 41.5901 74.2492 41.934C74.2492 42.1919 74.3353 42.4498 74.4212 42.6217C74.5073 42.7937 74.5933 42.9656 74.7653 43.0516C74.9373 43.1376 75.1093 43.2235 75.2813 43.3095C75.4533 43.3955 75.7113 43.3955 75.8833 43.3955C76.2274 43.3955 76.5714 43.3095 76.9154 43.2235C77.2594 43.1376 77.5174 42.9656 77.7754 42.7077C78.0335 42.4498 78.2055 42.2779 78.3775 42.02C78.5495 41.762 78.6355 41.5041 78.6355 41.2462C78.6355 41.0743 78.6355 40.9883 78.5495 40.8164C78.4635 40.7304 78.4635 40.5585 78.2915 40.4725C78.1195 40.3865 78.0334 40.3005 77.8614 40.2146C77.6894 40.1286 77.4314 40.1286 77.1734 40.1286L75.2813 40.2146ZM78.7215 35.4862C78.7215 35.1423 78.6355 34.8844 78.4635 34.7125C78.2915 34.5405 78.0335 34.4546 77.7754 34.4546C77.5174 34.4546 77.2594 34.5405 77.0874 34.7125C76.9154 34.8844 76.7434 35.1423 76.5714 35.3143C76.3994 35.5722 76.3134 35.8301 76.2274 36.088C76.1414 36.3459 76.1413 36.6038 76.1413 36.8617C76.1413 37.2916 76.2274 37.5495 76.3994 37.7214C76.5714 37.8934 76.8294 37.9793 77.1734 37.9793C77.4314 37.9793 77.6894 37.8934 77.9474 37.7214C78.1195 37.5495 78.2915 37.3775 78.4635 37.1196C78.6355 36.8617 78.7215 36.6038 78.8075 36.2599C78.8935 35.916 78.7215 35.6581 78.7215 35.4862ZM86.2899 34.7984C86.3759 34.8844 86.4619 35.0563 86.4619 35.2283C86.4619 35.4862 86.3759 35.6581 86.2899 35.8301C86.2039 36.002 86.0319 36.174 85.7739 36.2599C85.5159 36.3459 85.3439 36.5178 85.0858 36.6038C84.8278 36.6898 84.6558 36.7758 84.3978 36.7758C84.1398 36.8617 83.9678 36.8617 83.7958 36.8617C83.6238 36.8617 83.4518 36.8617 83.3657 36.8617C83.1937 36.8617 83.1077 36.8617 82.9357 36.8617C82.7637 36.8617 82.6777 36.8617 82.5917 36.8617C82.5057 37.1196 82.4197 37.3776 82.3337 37.7214C82.2477 38.0653 82.2477 38.2373 82.2477 38.5811C82.2477 39.011 82.3337 39.3549 82.5917 39.6128C82.8497 39.8707 83.1077 39.9567 83.5378 39.9567C83.7958 39.9567 84.0538 39.8707 84.2258 39.7847C84.3978 39.6987 84.6558 39.5268 84.7418 39.4408C84.9138 39.2689 84.9998 39.1829 85.1718 39.011C85.3438 38.8391 85.3438 38.7531 85.4299 38.6671L85.6019 38.7531C85.5159 38.839 85.5159 38.925 85.3439 39.097C85.1719 39.2689 85.0858 39.4408 84.9138 39.6128C84.7418 39.7847 84.4838 39.9567 84.2258 40.0426C83.9678 40.1286 83.6238 40.2146 83.2797 40.2146C82.9357 40.2146 82.5917 40.1286 82.3337 40.0426C82.0757 39.9567 81.9037 39.7847 81.7316 39.6128C81.5596 39.4408 81.4736 39.1829 81.3876 39.011C81.3016 38.8391 81.3016 38.5811 81.3016 38.3232C81.3016 37.8934 81.3876 37.4635 81.6456 36.9477C81.9037 36.4319 82.1617 36.088 82.5057 35.6581C82.8497 35.3143 83.1937 34.9704 83.6238 34.7125C84.0538 34.4546 84.4838 34.3686 84.9138 34.3686C85.0858 34.3686 85.2579 34.3686 85.4299 34.4546C85.6019 34.5405 85.7739 34.5405 85.8599 34.6265C86.1179 34.5405 86.2039 34.7125 86.2899 34.7984ZM85.6019 35.0564C85.6019 34.8844 85.5159 34.7125 85.4299 34.6265C85.3438 34.5405 85.1719 34.4546 84.9138 34.4546C84.6558 34.4546 84.3978 34.5405 84.1398 34.7125C83.8818 34.8844 83.7098 35.0564 83.4517 35.3143C83.2797 35.5722 83.1077 35.7441 82.9357 36.088C82.7637 36.4319 82.6777 36.6038 82.5917 36.7758C82.7637 36.7758 83.0217 36.8617 83.2797 36.8617C83.6238 36.8617 83.8818 36.7757 84.1398 36.6898C84.3978 36.6038 84.6558 36.4319 84.8278 36.3459C84.9998 36.2599 85.1719 36.002 85.3439 35.8301C85.6019 35.4862 85.6019 35.3143 85.6019 35.0564ZM92.9123 39.097C92.8262 39.2689 92.7403 39.3549 92.6543 39.4408C92.5682 39.5268 92.3962 39.6987 92.3102 39.7847C92.2242 39.8707 92.0522 39.9567 91.8802 39.9567C91.7082 39.9567 91.6222 39.9567 91.6222 39.7847C91.5362 39.6987 91.5362 39.6128 91.5362 39.5268C91.5362 39.3549 91.5362 39.2689 91.6222 39.097C91.6222 38.925 91.7082 38.839 91.7942 38.6671L92.6543 36.2599C92.7403 36.088 92.7402 35.9161 92.8263 35.7441C92.9123 35.5722 92.9123 35.4862 92.9123 35.3143C92.9123 35.0564 92.8263 34.7984 92.5682 34.6265C92.3962 34.4546 92.0522 34.3686 91.7082 34.3686C90.9342 34.3686 90.1601 34.8844 89.3861 36.002L89.9021 34.4546H87.838L87.752 34.6265H88.956L87.0639 39.9567H87.924L88.87 37.2916C89.0421 36.8617 89.2141 36.5178 89.3861 36.174C89.6441 35.8301 89.8161 35.5722 90.0741 35.3143C90.3321 35.0564 90.5901 34.8844 90.8482 34.7125C91.1062 34.5405 91.2782 34.5405 91.5362 34.5405C91.7082 34.5405 91.8802 34.6265 91.9662 34.7125C92.0522 34.7984 92.0522 34.8844 92.0522 35.0564C92.0522 35.2283 92.0522 35.4002 91.9662 35.5722L90.8482 38.6671C90.8482 38.839 90.7621 38.925 90.7621 39.097C90.7621 39.1829 90.6761 39.3549 90.6761 39.4408C90.6761 39.6987 90.7622 39.9567 90.9342 40.0426C91.1062 40.1286 91.3642 40.2146 91.6222 40.2146C91.8802 40.2146 92.0522 40.1286 92.3102 40.0426C92.4822 39.9567 92.6542 39.7847 92.7402 39.6987C92.8263 39.5268 92.9983 39.4408 93.0843 39.2689C93.1703 39.097 93.2563 39.011 93.2563 38.925L93.0843 38.839C93.0843 38.925 92.9983 39.011 92.9123 39.097ZM98.5026 38.5811C98.4166 38.6671 98.3306 38.8391 98.2446 39.011C98.1586 39.1829 97.9865 39.3549 97.8145 39.4408C97.6425 39.6128 97.4705 39.6987 97.2985 39.7847C97.1265 39.8707 96.8685 39.9567 96.6105 39.9567C96.1804 39.9567 95.8364 39.7847 95.6644 39.6128C95.4924 39.3549 95.3204 39.011 95.3204 38.6671C95.3204 38.4092 95.3204 38.1513 95.4064 37.8074C95.4924 37.4635 95.5784 37.2056 95.6644 36.8617C95.7504 36.5178 95.9224 36.2599 96.0944 36.002C96.2664 35.7441 96.4385 35.4862 96.6105 35.2283C96.7825 34.9704 97.0405 34.7984 97.2985 34.7125C97.5565 34.5405 97.8145 34.5405 98.0725 34.5405C98.2446 34.5405 98.4166 34.5405 98.5026 34.6265C98.5886 34.7125 98.6746 34.7984 98.6746 34.8844C98.6746 34.9704 98.6746 35.0564 98.5886 35.1423C98.5026 35.2283 98.5026 35.2283 98.5026 35.3143C98.4166 35.4002 98.4166 35.4002 98.4166 35.4862C98.4166 35.5722 98.3306 35.6581 98.3306 35.7441C98.3306 35.8301 98.3306 35.9161 98.4166 36.002C98.5026 36.088 98.5886 36.088 98.7606 36.088C98.9326 36.088 99.1046 36.002 99.1906 35.9161C99.2766 35.8301 99.3626 35.6581 99.3626 35.4002C99.3626 35.2283 99.3626 35.0564 99.2766 34.8844C99.1906 34.7125 99.1046 34.6265 99.0186 34.5405C98.9326 34.4546 98.7606 34.3686 98.6746 34.3686C98.5886 34.3686 98.4166 34.2826 98.2446 34.2826C97.7285 34.2826 97.2985 34.3686 96.8685 34.6265C96.4385 34.8844 96.0084 35.2283 95.6644 35.5722C95.3204 35.9161 95.0624 36.3459 94.8044 36.8617C94.6324 37.2916 94.4604 37.8074 94.4604 38.2373C94.4604 38.4952 94.5463 38.7531 94.6323 39.011C94.7184 39.2689 94.8904 39.4408 95.0624 39.6128C95.2344 39.7847 95.4064 39.9567 95.6644 40.0426C95.9224 40.1286 96.1804 40.2146 96.5245 40.2146C96.8685 40.2146 97.1265 40.1286 97.2985 40.0426C97.4705 39.9567 97.7285 39.8707 97.9005 39.6987C98.0725 39.5268 98.2445 39.4408 98.4166 39.2689C98.5886 39.097 98.6746 38.925 98.7606 38.7531L98.5026 38.5811ZM105.813 34.2826C105.641 34.2826 105.469 34.2826 105.383 34.3686C105.297 34.4545 105.125 34.5405 105.039 34.6265C104.953 34.7125 104.867 34.7984 104.781 34.9704C104.695 35.1423 104.609 35.2283 104.609 35.4002L102.631 38.925C102.717 38.6671 102.717 38.3232 102.803 37.8934C102.889 37.4635 102.889 37.0337 102.889 36.4319C102.889 36.2599 102.889 36.002 102.803 35.7441C102.717 35.4862 102.717 35.2283 102.545 35.0564C102.373 34.8844 102.287 34.6265 102.115 34.5405C101.943 34.4546 101.685 34.3686 101.427 34.3686C101.169 34.3686 100.997 34.4546 100.825 34.5405C100.653 34.6265 100.567 34.7984 100.481 34.9704C100.395 35.1423 100.309 35.3143 100.223 35.4862C100.137 35.6581 100.137 35.8301 100.137 36.002L100.309 36.088C100.309 36.002 100.395 35.8301 100.395 35.6581C100.395 35.4862 100.481 35.3143 100.567 35.1423C100.653 34.9704 100.739 34.7984 100.825 34.7125C100.911 34.6265 101.083 34.5405 101.255 34.5405C101.341 34.5405 101.427 34.5405 101.513 34.6265C101.599 34.7125 101.685 34.8844 101.685 35.1423C101.771 35.4002 101.771 35.7441 101.857 36.088C101.857 36.5178 101.943 37.0337 101.943 37.7214C101.943 38.4092 101.857 39.0969 101.771 39.6987C101.599 40.3865 101.427 40.9023 101.255 41.4182C101.083 41.934 100.825 42.3638 100.567 42.6217C100.309 42.9656 100.051 43.0516 99.7926 43.0516C99.7066 43.0516 99.5346 43.0516 99.4486 42.9656C99.3626 42.8796 99.3626 42.7937 99.3626 42.7077C99.3626 42.6217 99.3626 42.5358 99.3626 42.5358C99.3626 42.4498 99.3626 42.4498 99.4486 42.4498C99.4486 42.4498 99.4486 42.3638 99.5346 42.3638C99.5346 42.3638 99.5346 42.2779 99.5346 42.1919C99.5346 42.1059 99.5346 42.0199 99.4486 41.934C99.3626 41.848 99.2766 41.848 99.1906 41.848C99.0186 41.848 98.9326 41.848 98.7606 41.934C98.5886 42.0199 98.5886 42.1919 98.5886 42.3638C98.5886 42.6217 98.6746 42.8797 98.9326 43.0516C99.1046 43.2235 99.3626 43.3095 99.7066 43.3095C99.8787 43.3095 100.137 43.2235 100.309 43.1376C100.481 43.0516 100.739 42.8797 100.911 42.6217C101.083 42.3638 101.255 42.1919 101.427 41.934C101.599 41.6761 101.771 41.4182 101.857 41.1603L102.631 39.7847L104.953 35.4862C105.125 35.1423 105.297 34.8844 105.383 34.7984C105.469 34.6265 105.641 34.5405 105.727 34.5405C105.813 34.5405 105.899 34.5405 105.899 34.7125C105.899 34.7984 105.899 34.8844 105.813 34.8844C105.727 34.9704 105.727 34.9704 105.727 35.0564C105.727 35.2283 105.813 35.3143 105.985 35.3143C106.157 35.3143 106.329 35.2283 106.415 35.1423C106.501 35.0564 106.587 34.8844 106.587 34.7125C106.587 34.5405 106.587 34.4545 106.501 34.3686C106.157 34.2826 105.985 34.2826 105.813 34.2826ZM5.01548 6.77209C3.38139 6.77209 1.83331 6.77209 0.199219 6.77209V25.4277C3.98342 25.4277 7.93964 25.4277 11.8099 25.4277C11.8099 23.7942 11.8099 22.7626 11.8099 21.1291H5.01548C5.01548 13.2199 5.01548 16.4008 5.01548 6.77209ZM26.3446 21.2151C23.5065 21.2151 21.9584 21.2151 19.2063 21.2151C19.2063 20.0975 19.2063 19.0659 19.2063 17.9482H25.5706C25.5706 16.5727 25.5706 15.1112 25.5706 13.7357H19.2063V11.0706C21.9584 11.0706 23.3345 11.0706 26.0866 11.0706C26.0866 9.60911 26.0866 8.23359 26.0866 6.77209C21.7004 6.77209 18.7762 6.77209 14.476 6.77209C14.476 12.962 14.476 19.1518 14.476 25.4277C18.7762 25.4277 21.9584 25.4277 26.3446 25.4277C26.3446 23.9662 26.3446 22.5906 26.3446 21.2151ZM41.1374 19.7536C39.5034 19.7536 38.1273 19.7536 36.4932 19.7536C36.4072 28.0068 51.544 27.8348 51.544 20.0115C51.544 15.3691 47.9318 14.7673 44.2336 14.4235C42.5135 14.2515 41.1374 13.9076 41.3095 12.5321C41.4815 10.2969 46.4697 10.1249 46.4697 12.6181C48.1038 12.6181 49.3079 12.6181 51.028 12.6181C51.114 4.53687 36.6652 4.53687 36.7512 12.6181C36.8372 16.6587 39.5034 18.0342 43.5456 18.3781C45.4377 18.4641 46.9858 18.8079 46.9858 20.0975C46.9858 22.0748 41.1374 22.0748 41.1374 19.7536ZM65.6488 23.1065H58.2524L57.1343 25.4277H52.4901V24.7399L60.9185 6.51418H62.9826L71.4111 24.7399V25.4277H66.7668L65.6488 23.1065ZM64.1007 18.9799L61.9506 14.0796L59.8865 18.9799H64.1007ZM85.2579 21.1291H78.4635C78.4635 13.2199 78.4635 16.4008 78.4635 6.77209C76.8294 6.77209 75.2813 6.77209 73.6472 6.77209V25.4277C77.4314 25.4277 81.3876 25.4277 85.2579 25.4277C85.2579 23.7942 85.2579 22.7626 85.2579 21.1291ZM100.223 1.87178V1.44193L96.1804 0.0664062L94.1163 4.53686V4.96671H97.4705L100.223 1.87178ZM86.8059 16.1429C86.8059 3.2473 105.985 3.2473 105.985 16.1429C105.985 29.0384 86.8059 29.0384 86.8059 16.1429ZM91.7082 16.1429C91.7082 22.9345 101.083 22.9345 101.083 16.1429C101.083 9.43717 91.7082 9.43717 91.7082 16.1429ZM120.52 6.77209V15.8849L111.059 6.68612H109.339V25.4277C110.973 25.4277 112.607 25.4277 114.241 25.4277V16.2288L123.616 25.4277H125.336V6.77209C123.788 6.77209 122.154 6.77209 120.52 6.77209Z" fill="white"/>
</svg>
