<svg width="90" height="27" viewBox="0 0 90 27" fill="none" xmlns="http://www.w3.org/2000/svg">
<g clip-path="url(#clip0_2097_12418)">
<mask id="mask0_2097_12418" style="mask-type:luminance" maskUnits="userSpaceOnUse" x="0" y="0" width="90" height="27">
<path d="M89.8021 0.0644531H0.773438V26.9586H89.8021V0.0644531Z" fill="white"/>
</mask>
<g mask="url(#mask0_2097_12418)">
<path d="M82.3998 13.1141H79.2988C77.2981 13.1141 76.1978 14.6082 76.1978 17.198V26.4615H70.1959V13.1141H67.6951C65.6944 13.1141 64.5941 14.6082 64.5941 17.198V26.4615H58.5921V8.13366H64.5941V10.9227C65.5944 8.73131 66.8948 8.13366 68.8954 8.13366H76.1978V10.9227C77.1981 8.73131 78.4985 8.13366 80.4992 8.13366H82.4998L82.3998 13.1141ZM57.1917 18.6921H44.7877C45.0878 20.7839 46.3882 21.8795 48.4889 21.8795C50.0894 21.8795 51.1897 21.1823 51.5899 20.0866L56.8916 21.5807C55.5911 24.7682 52.3901 26.6607 48.4889 26.6607C41.9868 26.6607 38.9858 21.5807 38.9858 17.198C38.9858 12.9148 41.5866 7.83484 48.0887 7.83484C54.991 7.83484 57.2917 13.0145 57.2917 16.8992C57.2917 17.7956 57.2917 18.2937 57.1917 18.6921ZM51.4898 15.2058C51.3898 13.6121 50.1894 12.2176 48.1888 12.2176C46.2881 12.2176 45.1878 13.0145 44.7877 15.2058H51.4898ZM28.5824 26.4615H33.7841L40.3862 8.23327H34.3843L31.1833 18.8913L27.9822 8.13366H21.9803L28.5824 26.4615ZM4.17454 26.4615H10.0765V13.1141H15.7783V26.4615H21.6802V8.13366H10.0765V7.03797C10.0765 5.84268 10.9768 5.04582 12.2772 5.04582H15.7783V0.0654297H11.3769C7.07548 0.0654297 4.17454 2.75484 4.17454 6.63954V8.13366H0.773438V13.1141H4.17454V26.4615Z" fill="#111111"/>
<path d="M86.0996 26.9588C88.1003 26.9588 89.8008 25.2655 89.8008 23.2733C89.8008 21.2812 88.1003 19.5879 86.0996 19.5879C84.099 19.5879 82.3984 21.2812 82.3984 23.2733C82.3984 25.2655 84.099 26.9588 86.0996 26.9588Z" fill="#111111"/>
</g>
</g>
<defs>
<clipPath id="clip0_2097_12418">
<rect width="90" height="27" fill="white"/>
</clipPath>
</defs>
</svg>
