<svg width="100" height="34" viewBox="0 0 100 34" fill="none" xmlns="http://www.w3.org/2000/svg">
<g clip-path="url(#clip0_2097_12666)">
<mask id="mask0_2097_12666" style="mask-type:luminance" maskUnits="userSpaceOnUse" x="0" y="0" width="100" height="34">
<path fill-rule="evenodd" clip-rule="evenodd" d="M50.0501 33.3858H0.333984V0H50.0501H99.7662V33.3858H50.0501Z" fill="white"/>
</mask>
<g mask="url(#mask0_2097_12666)">
<path fill-rule="evenodd" clip-rule="evenodd" d="M99.4154 9.9707L98.8454 10.8682L98.2754 9.9707H97.9248V11.8688H98.2486V10.513L98.8346 11.4024H98.8454L99.4368 10.5076V11.8688H99.7659V9.9707H99.4154ZM96.0567 10.2798H96.6508V11.8688H96.9825V10.2798H97.5766V9.9707H96.0567V10.2798ZM95.3484 28.6502L93.5909 26.3516H93.0567V29.676H93.6237V27.3109L95.4327 29.676H95.9155V26.3516H95.3484V28.6502ZM90.8642 28.0221C90.8642 28.6679 90.4095 29.1952 89.758 29.1952C89.1067 29.1952 88.6426 28.6586 88.6426 28.0125V28.0032C88.6426 27.3573 89.0973 26.8301 89.7488 26.8301C90.4001 26.8301 90.8642 27.3667 90.8642 28.0125V28.0221ZM89.7581 26.2949C88.7505 26.2949 88.0381 27.0787 88.0381 28.0141V28.0237C88.0381 28.9593 88.7411 29.7334 89.7488 29.7334C90.7564 29.7334 91.4688 28.9498 91.4688 28.0141V28.0047C91.4688 27.0691 90.7659 26.2949 89.7581 26.2949ZM85.8408 29.676H86.4173V26.3516H85.8408V29.676ZM83.1849 27.7465C82.5568 27.5946 82.4069 27.4806 82.4069 27.2241V27.2147C82.4069 26.9961 82.6037 26.8204 82.9412 26.8204C83.2411 26.8204 83.5363 26.9392 83.8317 27.1623L84.1409 26.7207C83.8082 26.45 83.4287 26.3027 82.9506 26.3027C82.2991 26.3027 81.8305 26.697 81.8305 27.2668V27.2764C81.8305 27.889 82.2241 28.098 82.9223 28.2689C83.5316 28.4114 83.663 28.5396 83.663 28.7771V28.7866C83.663 29.0384 83.4379 29.2046 83.0818 29.2046C82.674 29.2046 82.36 29.0478 82.0459 28.7723L81.6992 29.1903C82.0929 29.5465 82.5662 29.7222 83.0677 29.7222C83.7567 29.7222 84.2394 29.3517 84.2394 28.7295V28.7201C84.2394 28.1692 83.8785 27.9175 83.1849 27.7465ZM79.5762 29.676H80.1527V26.3516H79.5762V29.676ZM76.4837 28.9065L75.4948 26.3516H74.8574L76.2213 29.6997H76.7275L78.0912 26.3516H77.468L76.4837 28.9065ZM73.4483 29.6741H74.0717V29.0234H73.4483V29.6741ZM70.3372 26.3516H69.7608V29.676H72.0619V29.1441H70.3372V26.3516ZM66.0264 28.3551L66.5887 27.0254L67.1559 28.3551H66.0264ZM66.3313 26.3281L64.8877 29.6764H65.4783L65.8158 28.8737H67.367L67.6999 29.6764H68.3092L66.8656 26.3281H66.3313ZM62.3631 29.1967C61.735 29.1967 61.2805 28.6649 61.2805 28.0141V28.0047C61.2805 27.3541 61.735 26.8317 62.3631 26.8317C62.7381 26.8317 63.0192 26.9979 63.2816 27.2449L63.6519 26.8126C63.3379 26.5087 62.9724 26.2949 62.3677 26.2949C61.3742 26.2949 60.6758 27.0691 60.6758 28.0141V28.0237C60.6758 28.9782 61.3882 29.7334 62.3443 29.7334C62.9583 29.7334 63.3332 29.5054 63.6754 29.1446L63.3051 28.7646C63.0239 29.0306 62.7662 29.1967 62.3631 29.1967ZM58.4776 29.676H59.054V26.3516H58.4776V29.676ZM56.2535 28.0226C56.2535 28.6733 55.8036 29.1435 55.1146 29.1435H54.4678V26.8828H55.1146C55.8036 26.8828 56.2535 27.3625 56.2535 28.0131V28.0226ZM55.1149 26.3516H53.8916V29.676H55.1149C56.146 29.676 56.8584 28.9493 56.8584 28.0137V28.0043C56.8584 27.0687 56.146 26.3516 55.1149 26.3516ZM50.4388 28.2607H52.0838V27.7382H50.4388V26.8739H52.2947V26.3516H49.8623V29.676H52.3181V29.1535H50.4388V28.2607ZM46.5165 27.9235L45.5183 26.3516H44.9043V29.676H45.4714V27.3013L46.4978 28.8591H46.5165L47.5523 27.2918V29.676H48.1288V26.3516H47.5148L46.5165 27.9235ZM89.6481 20.029C87.6473 20.029 86.3047 18.6418 86.3047 16.4275C86.3047 14.2134 87.6473 12.8262 89.6481 12.8262C91.6489 12.8262 92.9915 14.2134 92.9915 16.4275C92.9915 18.6418 91.6489 20.029 89.6481 20.029ZM89.6481 9.73242C85.9098 9.73242 83.1983 12.5335 83.1983 16.4283C83.1983 20.3233 86.0415 23.1511 89.6481 23.1511C90.359 23.1511 91.7279 22.8843 92.1229 22.5374L92.6757 19.6296H92.939V23.1511H95.9665V15.7348C95.9665 11.8132 93.2286 9.73242 89.6481 9.73242ZM75.4844 14.6944V23.1511H78.5119V14.7477C78.5119 12.5335 80.3811 12.4268 81.3551 12.3734V9.73242C77.9065 9.73242 75.4844 11.1731 75.4844 14.6944ZM66.2175 20.1891C64.1113 20.1891 62.8213 18.6951 62.8213 16.4809C62.8213 14.2667 64.1113 12.8262 66.2175 12.8262C68.3236 12.8262 69.6136 14.2667 69.6136 16.4809C69.6136 18.6951 68.3236 20.1891 66.2175 20.1891ZM66.2168 9.72892C65.506 9.72892 64.0843 9.99573 63.6893 10.3424L63.1366 13.2504H62.8733V4.90039H59.8457V17.1986C59.8457 21.1201 62.6364 23.281 66.2168 23.281C69.955 23.281 72.7193 20.3997 72.7193 16.5049C72.7193 12.61 69.8234 9.72892 66.2168 9.72892ZM47.3936 15.3064C47.6306 13.8125 48.9468 12.7188 50.5264 12.7188C52.1059 12.7188 53.4223 13.8125 53.6593 15.3064H47.3936ZM50.4209 9.73242C46.6036 9.73242 44.1026 12.7203 44.1026 16.7752C44.1026 20.8835 47.0511 23.2845 50.4209 23.2845C52.606 23.2845 54.2645 22.404 55.7126 20.8301C55.6861 20.8034 53.6064 18.776 53.6064 18.776C52.8692 19.683 51.8161 20.2433 50.4209 20.2433C48.7886 20.2433 47.3934 19.1495 47.3934 17.6288H57.0288C57.0288 13.6806 55.2913 9.73242 50.4209 9.73242ZM42.3111 11.9727C42.3111 10.1587 40.4156 9.86523 38.9677 9.86523H32.8863V12.8531H38.6781L34.6238 17.5215C33.5444 18.7487 32.5967 19.9225 32.5967 20.8562C32.5967 22.1367 33.4391 23.1505 34.7818 23.1505H42.0216V20.1626H36.3087L40.3629 15.4407C41.9689 13.6534 42.3111 13.1199 42.3111 11.9727ZM23.7154 23.1454L23.7135 23.1409C23.7135 23.1409 23.7099 23.1394 23.708 23.1387C23.7107 23.1408 23.7129 23.1433 23.7154 23.1454ZM14.3134 0C11.6683 0 9.1797 0.746772 7.0068 2.06145H21.6199C19.447 0.746772 16.9584 0 14.3134 0ZM21.8234 3.62109H6.52202C4.22306 3.62109 2.35921 5.50979 2.35921 7.83954C2.35921 9.6385 3.47258 11.1702 5.03738 11.7767C4.43149 11.145 4.05684 10.2842 4.05684 9.33382C4.05684 7.39669 5.6065 5.82653 7.51801 5.82653H20.2401C22.1516 5.82653 23.7011 7.39669 23.7011 9.33382C23.7011 9.95956 23.5375 10.5457 23.2542 11.0544C23.0946 11.3664 22.8865 11.6594 22.6283 11.9211L15.9541 18.6841C15.9229 18.6825 15.8922 18.6794 15.8606 18.6794H15.0423L20.8237 12.821C21.0334 12.6084 21.2024 12.3705 21.3318 12.1173C21.562 11.7043 21.6948 11.2283 21.6948 10.7203C21.6948 9.1478 20.4367 7.87292 18.8849 7.87292H8.55651C7.0045 7.87292 5.74653 9.1478 5.74653 10.7203C5.74653 12.0282 6.61778 13.1273 7.80338 13.4612C7.43284 13.0552 7.20455 12.5138 7.20455 11.917C7.20455 10.6589 8.21113 9.63909 9.45262 9.63909H17.7153C18.9568 9.63909 19.9632 10.6589 19.9632 11.917C19.9632 12.3234 19.857 12.7041 19.6729 13.0344C19.5693 13.2372 19.4341 13.4275 19.2664 13.5974L14.2513 18.6794H13.5796L17.9433 14.2576C18.0754 14.1237 18.1818 13.9738 18.2634 13.8143C18.4083 13.5541 18.492 13.2543 18.492 12.9343C18.492 11.9435 17.6994 11.1404 16.7217 11.1404H10.2149C9.23712 11.1404 8.44457 11.9435 8.44457 12.9343C8.44457 13.6253 8.83084 14.2242 9.39613 14.5238L1.62446 22.3991C1.19053 22.8388 0.876033 23.3527 0.673776 23.8995C0.455926 24.4115 0.333984 24.975 0.333984 25.568C0.333984 27.8976 2.19784 29.7863 4.49695 29.7863H19.7983C22.0975 29.7863 23.9612 27.8976 23.9612 25.568C23.9612 23.6283 22.6676 21.9987 20.9083 21.5059C21.5889 22.1464 22.0174 23.0582 22.0174 24.0737C22.0174 26.0107 20.4678 27.581 18.5563 27.581H5.8342C3.92269 27.581 2.37303 26.0107 2.37303 24.0737C2.37303 23.5808 2.47438 23.1121 2.6556 22.6866C2.82373 22.232 3.08512 21.8046 3.44595 21.439L10.0757 14.7209C10.1218 14.7246 10.1678 14.728 10.2149 14.728H10.9941L5.25052 20.5481C4.95751 20.845 4.7454 21.1918 4.60874 21.5609C4.4618 21.9064 4.37942 22.2868 4.37942 22.687C4.37942 24.2596 5.63753 25.5345 7.1894 25.5345H17.5179C19.0698 25.5345 20.3277 24.2596 20.3277 22.687C20.3277 21.3792 19.4565 20.2801 18.2709 19.9462C18.6414 20.3524 18.8697 20.8937 18.8697 21.4904C18.8697 22.7484 17.8633 23.7683 16.6217 23.7683H8.35896C7.11747 23.7683 6.11104 22.7484 6.11104 21.4904C6.11104 21.1702 6.17679 20.8659 6.29447 20.5895C6.40376 20.2942 6.57351 20.0167 6.80783 19.7792L11.7926 14.728H12.4719L8.13214 19.1256C7.94753 19.3127 7.81382 19.5312 7.72777 19.7637C7.63525 19.9814 7.58332 20.221 7.58332 20.4732C7.58332 21.4639 8.37602 22.2671 9.35362 22.2671H15.8606C16.8382 22.2671 17.6309 21.4639 17.6309 20.4732C17.6309 19.8322 17.2979 19.2711 16.7986 18.9539L24.6959 10.9514C25.0066 10.6367 25.2568 10.2842 25.4487 9.90888C25.7896 9.29716 25.9864 8.59212 25.9864 7.83954C25.9864 5.50979 24.1225 3.62109 21.8234 3.62109ZM12.0822 33.3845C14.7141 33.3845 17.1906 32.6442 19.3558 31.3418H4.8086C6.9737 32.6442 9.45036 33.3845 12.0822 33.3845Z" fill="#111111"/>
</g>
</g>
<defs>
<clipPath id="clip0_2097_12666">
<rect width="100" height="34" fill="white"/>
</clipPath>
</defs>
</svg>
