<svg width="128" height="35" viewBox="0 0 128 35" fill="none" xmlns="http://www.w3.org/2000/svg">
<path fill-rule="evenodd" clip-rule="evenodd" d="M21.9316 29.6862C15.4687 29.6862 9.73111 25.9652 6.96339 23.8224L21.9316 7.77866L36.9004 23.8224C34.131 25.9661 28.3941 29.6862 21.9316 29.6862ZM26.3698 20.7241L21.8912 16.1566L17.4127 20.7241L21.8912 25.2915L26.3698 20.7241ZM1.98342 25.6966C2.34577 26.05 10.9921 34.3487 21.9316 34.3487C32.8717 34.3487 41.518 26.05 41.8804 25.6966L43.5191 24.1007L21.9316 0.962891L0.344727 24.1007L1.98342 25.6966ZM71.6096 7.47953L67.2254 7.48071L67.2309 27.6343L71.615 27.6331L71.6096 7.47953ZM59.302 16.6608C59.8843 17.137 60.3213 17.7748 60.6126 18.5749L60.6133 21.6895C60.2495 22.3373 59.8222 22.8469 59.3308 23.2187C58.8397 23.5902 58.2573 23.7761 57.5842 23.7763C57.0928 23.7765 56.6379 23.6765 56.2194 23.4768C55.8003 23.2769 55.4411 23.0055 55.1406 22.6627C54.8403 22.3198 54.6037 21.9153 54.4308 21.4485C54.2575 20.9819 54.1712 20.4725 54.1712 19.9198C54.171 19.4055 54.248 18.9102 54.4026 18.4338C54.557 17.9579 54.7799 17.5336 55.0712 17.1621C55.3619 16.7905 55.703 16.4953 56.0945 16.2761C56.4854 16.057 56.9175 15.9471 57.3911 15.9469C58.0822 15.9467 58.7192 16.185 59.302 16.6608ZM53.6955 27.0492C54.5231 27.4393 55.4378 27.6346 56.4385 27.6344C57.4212 27.6339 58.2538 27.4194 58.9362 26.9906C59.6184 26.5617 60.1779 25.9379 60.6143 25.1185L60.6149 27.3473L64.9824 27.3459L64.9783 12.5444L60.6108 12.5456L60.6114 14.8031C60.1746 13.9652 59.5509 13.2986 58.7413 12.8033C57.9313 12.3084 57.0167 12.0609 55.9979 12.0613C55.0875 12.0615 54.2464 12.2618 53.473 12.662C52.6996 13.0623 52.031 13.6103 51.4674 14.3058C50.9032 15.0014 50.4621 15.8253 50.144 16.7777C49.8256 17.7307 49.6669 18.7496 49.6671 19.8353C49.6675 20.9595 49.8314 21.9929 50.1593 22.9356C50.4872 23.8784 50.9512 24.7025 51.552 25.4067C52.1527 26.1117 52.867 26.6592 53.6955 27.0492ZM73.8098 19.7841C73.8096 18.7486 73.9802 17.7562 74.3214 16.8069C74.6624 15.8577 75.1572 15.0235 75.804 14.3042C76.4511 13.5849 77.2465 13.0144 78.19 12.592C79.1337 12.1703 80.2076 11.9586 81.412 11.9584C83.0478 11.9577 84.4232 12.3268 85.5382 13.0643C86.6529 13.8025 87.489 14.7659 88.0468 15.9544L83.8407 17.3076C83.2831 16.3491 82.4651 15.8696 81.3865 15.87C80.4872 15.8702 79.737 16.2256 79.1348 16.935C78.5325 17.6449 78.2322 18.5941 78.2325 19.7829C78.2326 20.3774 78.3135 20.919 78.4755 21.4078C78.6372 21.8969 78.862 22.3137 79.1498 22.6588C79.4374 23.0039 79.7744 23.2724 80.1615 23.464C80.5477 23.6558 80.9569 23.7513 81.3884 23.7511C81.9277 23.7509 82.4219 23.612 82.8714 23.3337C83.3204 23.0558 83.6533 22.6961 83.8687 22.2547L88.076 23.6341C87.5546 24.8042 86.7236 25.7629 85.5823 26.5113C84.4407 27.2595 83.0518 27.6336 81.4163 27.6343C80.2297 27.6347 79.1646 27.4191 78.2209 26.9879C77.2768 26.5568 76.4766 25.9817 75.8204 25.2629C75.1637 24.544 74.6646 23.7099 74.3232 22.7609C73.9812 21.8119 73.8102 20.8196 73.8098 19.7841ZM89.1747 13.1404L89.1788 27.6343L93.563 27.6331L93.5591 13.1392L89.1747 13.1404ZM89.1743 11.484L89.1734 7.48092L93.5575 7.47953L93.5585 11.4826L89.1743 11.484ZM105.399 17.1761C106.012 17.6299 106.465 18.2289 106.757 18.973L106.758 21.9685C106.466 22.5861 106.045 23.0718 105.497 23.4259C104.948 23.7801 104.354 23.9573 103.714 23.9573C103.22 23.9575 102.763 23.8671 102.342 23.6857C101.921 23.5042 101.56 23.2501 101.258 22.9233C100.957 22.5966 100.719 22.2064 100.545 21.7526C100.371 21.299 100.284 20.8088 100.284 20.2821C100.284 19.7918 100.361 19.3152 100.517 18.8521C100.672 18.3892 100.896 17.9854 101.189 17.64C101.481 17.2954 101.819 17.0182 102.203 16.8092C102.587 16.6007 103.017 16.4959 103.492 16.4957C104.151 16.4955 104.786 16.7225 105.399 17.1761ZM106.759 25.291L106.76 27.3607L111.121 27.3595L111.116 7.47953L106.727 7.48069L106.729 15.4054C106.272 14.607 105.64 13.9718 104.836 13.4997C104.031 13.0281 103.116 12.7921 102.092 12.7925C101.178 12.7927 100.332 12.9834 99.5549 13.3651C98.7779 13.7465 98.1058 14.2688 97.5394 14.9314C96.9726 15.5944 96.5338 16.3798 96.2235 17.2873C95.9124 18.1955 95.7576 19.1668 95.7578 20.2015C95.7582 21.273 95.9272 22.2576 96.2661 23.1562C96.6046 24.0547 97.0758 24.8401 97.6795 25.5114C98.2832 26.1831 99.0009 26.7051 99.8334 27.0768C100.665 27.4484 101.575 27.6346 102.563 27.6343C104.465 27.6337 105.863 26.8529 106.759 25.291ZM121.869 16.1564C122.426 16.709 122.75 17.4612 122.84 18.4136L116.748 18.4154C116.838 17.4822 117.157 16.7342 117.705 16.1719C118.253 15.61 118.949 15.3287 119.794 15.3285C120.62 15.3283 121.312 15.6043 121.869 16.1564ZM114.257 25.3311C114.913 26.0359 115.713 26.5929 116.657 27.0019C117.6 27.4111 118.665 27.6157 119.851 27.6155C121.486 27.6149 122.887 27.2432 124.056 26.4997C125.223 25.7564 126.085 24.7945 126.642 23.6131L122.976 22.5282C122.778 23.0809 122.388 23.519 121.804 23.8429C121.22 24.1674 120.613 24.3291 119.985 24.3293C119.194 24.3295 118.489 24.0681 117.868 23.5441C117.248 23.0207 116.902 22.2542 116.83 21.2442L127.289 21.2411C127.324 21.051 127.351 20.8266 127.369 20.5695C127.387 20.3124 127.396 20.0508 127.396 19.7837C127.396 18.755 127.229 17.7741 126.897 16.8407C126.564 15.9077 126.074 15.0836 125.427 14.3694C124.78 13.6552 123.989 13.0891 123.054 12.6701C122.12 12.2515 121.05 12.042 119.846 12.0424C118.643 12.0426 117.569 12.2529 116.626 12.6719C115.683 13.0913 114.888 13.6631 114.241 14.3871C113.594 15.1114 113.1 15.9545 112.759 16.9164C112.418 17.8785 112.247 18.9024 112.247 19.9883C112.248 20.9982 112.418 21.9647 112.76 22.8883C113.102 23.8126 113.601 24.6269 114.257 25.3311Z" fill="white"/>
</svg>
