<svg width="105" height="29" viewBox="0 0 105 29" fill="none" xmlns="http://www.w3.org/2000/svg">
<g clip-path="url(#clip0_2097_12282)">
<path d="M19.8029 20.8023C18.8203 17.6107 17.684 17.0098 16.3079 16.4647C19.5554 15.5632 22.0965 13.196 22.0965 8.893C22.0984 1.42149 16.3463 0 13.4462 0C8.8322 0 5.03198 0.053932 0.417969 0.053932C1.00336 0.83402 1.27398 2.46161 1.27398 6.233C1.27398 11.0407 1.27398 11.0407 1.27398 27.5535H8.14509C7.64799 26.889 7.34282 25.61 7.30635 22.9153C7.291 21.6903 7.30635 17.4913 7.30635 17.4913C9.19111 17.4913 11.5826 17.4624 12.8627 19.0688C13.999 20.4942 14.9778 23.2389 16.3117 27.6093H23.8335C22.0965 26.3882 21.0006 24.6912 19.8029 20.8023ZM11.3791 13.0072C9.49628 13.0072 7.30251 13.0072 7.30251 13.0072C7.30251 13.0072 7.30635 6.31005 7.30635 4.96752C7.30635 4.96752 9.91085 4.96752 11.3791 4.96752C14.022 4.96752 16.2983 5.76495 16.2983 8.70232C16.2964 11.6397 14.5287 13.0072 11.3791 13.0072Z" fill="#111111"/>
<path d="M104.217 17.6516C104.191 13.9506 102.556 10.2554 99.4155 8.46495C95.187 6.05699 88.6345 6.51961 85.326 10.4316C81.3413 15.143 82.337 23.8341 87.7626 26.8692C91.9745 29.2249 98.4531 28.77 101.756 24.9084C103.428 22.9592 104.235 20.3054 104.217 17.6516ZM93.5577 23.4257C92.3347 23.4121 91.097 22.8179 90.2694 21.6449C89.5379 20.6073 89.1758 19.1827 89.1739 17.6516C89.1758 16.1185 89.536 14.6939 90.2694 13.6583C91.097 12.4853 92.3347 11.893 93.5577 11.8775C94.7806 11.8911 96.0165 12.4853 96.8459 13.6583C97.5774 14.6958 97.9395 16.1205 97.9414 17.6516C97.9395 19.1846 97.5793 20.6093 96.8459 21.6449C96.0183 22.8179 94.7806 23.4121 93.5577 23.4257Z" fill="#111111"/>
<path d="M74.7984 23.1973C72.5778 23.1973 69.3327 21.6388 69.3327 17.6495C69.3327 13.6602 72.5778 12.1018 74.7984 12.1018C76.5473 12.1018 78.5509 12.6552 79.9414 13.593C79.9414 13.593 80.4979 11.8001 81.8488 9.52871C79.7489 7.84152 76.4001 6.99023 73.7343 6.99023C68.9177 6.99023 62.9766 9.83041 62.9766 17.6495C62.9766 25.4687 68.9177 28.3088 73.7343 28.3088C76.4001 28.3088 79.7489 27.4576 81.8488 25.7704C80.4979 23.499 79.9414 21.7061 79.9414 21.7061C78.5509 22.6439 76.5473 23.1973 74.7984 23.1973Z" fill="#111111"/>
<path d="M52.2134 23.2999C56.8367 21.0041 60.8828 18.6549 61.1156 14.309C61.2484 11.8494 60.2806 9.70785 58.576 8.49611C55.159 6.06691 49.7256 6.70517 46.5318 9.48875C43.3169 12.2914 42.6069 15.9285 43.1649 19.8914C43.2515 20.5011 43.5805 21.3871 43.7517 21.9491C41.6526 22.7874 38.6955 23.5838 36.1597 23.7477C34.7128 23.841 33.2795 23.6238 32.025 23.197C32.025 23.197 36.0577 21.61 38.5666 19.4742C42.2452 16.3438 41.6796 10.5995 38.7186 8.49611C35.3016 6.06691 29.8683 6.70517 26.6745 9.48875C23.4595 12.2914 22.7495 15.9285 23.3075 19.8914C23.7442 22.9989 25.2584 25.5329 28.1367 26.9313C30.255 27.9602 32.2906 28.3031 35.4286 28.3031C40.2193 28.3031 44.3481 26.4284 46.2202 25.7806C46.7435 26.2188 49.5871 28.3088 53.8276 28.3088C56.5154 28.3088 60.067 27.9621 62.9761 26.1121C62.1238 24.8413 61.4792 23.4466 61.1194 22.0272C59.2724 23.0694 55.7111 24.3383 52.2134 23.2999ZM30.4551 13.3335C31.4055 12.0037 33.4372 10.9748 34.9764 11.9922C36.5849 13.0573 35.8749 14.8177 35.0072 15.8123C33.4469 17.5937 31.4632 18.4358 29.3738 19.2665C29.2468 18.2281 29.1314 15.1874 30.4551 13.3335ZM50.3144 13.3335C51.2648 12.0037 53.2966 10.9748 54.8357 11.9922C56.4442 13.0573 55.8535 15.1835 54.9839 16.1762C53.4235 17.9576 51.4842 18.8226 49.3947 19.6533C48.9137 17.9309 48.9888 15.1874 50.3144 13.3335Z" fill="#111111"/>
</g>
<defs>
<clipPath id="clip0_2097_12282">
<rect width="105" height="29" fill="white"/>
</clipPath>
</defs>
</svg>
