<svg width="112" height="32" viewBox="0 0 112 32" fill="none" xmlns="http://www.w3.org/2000/svg">
<mask id="mask0_2097_12762" style="mask-type:luminance" maskUnits="userSpaceOnUse" x="0" y="0" width="112" height="32">
<path d="M112 0.319824H0V31.6798H112V0.319824Z" fill="white"/>
</mask>
<g mask="url(#mask0_2097_12762)">
<path fill-rule="evenodd" clip-rule="evenodd" d="M6.62161 5.10278L10.7072 16.2405L14.9879 5.10278H21.0647L10.6735 30.8945H4.6631L7.73666 22.9025L0.349609 5.10278H6.62161ZM70.8056 4.70784C76.2926 4.70784 80.2938 8.91792 80.2938 14.6803C80.2938 20.4427 76.2926 24.6538 70.8056 24.6538C68.7806 24.6538 67.0759 24.1236 65.7745 23.1015L65.6902 23.0339L65.6179 22.9751V30.8886H59.7622V5.10278H64.9399V7.03044L64.9697 6.99712C66.2453 5.55848 68.175 4.76272 70.5598 4.71078L70.6856 4.70882L70.8056 4.70784ZM31.7304 4.70784C37.7725 4.70784 42.0553 8.8356 42.0553 14.6803C42.0553 20.5006 37.7586 24.6538 31.7304 24.6538C25.6686 24.6538 21.365 20.5064 21.365 14.6803C21.365 8.82972 25.6537 4.70784 31.7304 4.70784ZM51.8112 0.859375V5.10278H56.6281V10.1037H51.8112V17.0069C51.8112 18.5514 52.5694 19.401 53.951 19.453L54.0184 19.4539L54.0868 19.4549C55.0235 19.4549 55.7331 19.2119 56.3685 18.6082L56.4279 18.5504L56.5855 18.3906H56.6291V23.9071L56.4497 23.9923C55.4853 24.448 54.8916 24.6538 53.2483 24.6538C48.6058 24.6538 46.0565 22.1548 45.9574 17.488L45.9554 17.3459V17.2039L45.9544 10.1037H43.8354V5.10278H46.114V0.859375H51.8112ZM93.0896 4.70784C99.1316 4.70784 103.414 8.8356 103.414 14.6803C103.414 20.5006 99.1178 24.6538 93.0896 24.6538C87.0277 24.6538 82.7241 20.5064 82.7241 14.6803C82.7241 8.82972 87.0138 4.70784 93.0896 4.70784ZM108.188 18.3083C109.96 18.3083 111.396 19.7293 111.396 21.4806C111.396 23.2328 109.959 24.6538 108.188 24.6538C106.416 24.6538 104.979 23.2328 104.979 21.4806C104.979 19.7283 106.417 18.3083 108.188 18.3083ZM69.9284 9.90674C67.2899 9.90674 65.4979 11.8374 65.4979 14.6803C65.4979 17.5243 67.2899 19.4549 69.9284 19.4549C72.6005 19.4549 74.3985 17.5302 74.3985 14.6803C74.3985 11.8315 72.6005 9.90674 69.9284 9.90674ZM31.7295 9.90674C29.0831 9.90674 27.2604 11.8472 27.2604 14.6803C27.2604 17.5145 29.0831 19.4549 31.7304 19.4549C34.3431 19.4549 36.1609 17.5086 36.1609 14.6803C36.1609 11.853 34.3421 9.90674 31.7295 9.90674ZM93.0896 9.90674C90.4432 9.90674 88.6195 11.8472 88.6195 14.6803C88.6195 17.5145 90.4432 19.4549 93.0896 19.4549C95.7023 19.4549 97.52 17.5086 97.52 14.6803C97.52 11.853 95.7023 9.90674 93.0896 9.90674Z" fill="#111111"/>
</g>
</svg>
