<svg width="119" height="39" viewBox="0 0 119 39" fill="none" xmlns="http://www.w3.org/2000/svg">
<mask id="mask0_2097_12379" style="mask-type:luminance" maskUnits="userSpaceOnUse" x="0" y="0" width="119" height="39">
<path d="M118.241 0.802734H0.314453V38.8833H118.241V0.802734Z" fill="white"/>
</mask>
<g mask="url(#mask0_2097_12379)">
<path d="M0.313533 28.1194V27.656C1.55705 27.656 2.5415 27.2956 3.26689 26.5748C3.6814 26.1629 3.94046 25.648 4.04409 25.0302C4.19953 24.4123 4.25134 23.4855 4.25134 22.1984V8.39981C4.25134 7.06114 4.14772 6.08289 3.99228 5.46504C3.83684 4.84719 3.52596 4.33232 3.11145 3.92042C2.74876 3.6115 2.38606 3.35407 1.91974 3.19961C1.50524 3.04515 0.935293 2.94217 0.261719 2.94217V2.53027H12.2824V2.94217C11.6088 2.99366 11.0389 3.09663 10.5726 3.19961C10.158 3.35407 9.74356 3.6115 9.38086 3.92042C8.96636 4.33232 8.65548 4.84719 8.50004 5.46504C8.3446 6.08289 8.29278 7.06115 8.29278 8.34832V19.1606C8.29278 20.8082 8.3446 22.0439 8.44822 22.8677C8.55185 23.6915 8.70729 24.3608 8.96636 24.8757C9.38086 25.751 10.0544 26.4203 10.9352 26.8322C11.8161 27.2441 12.956 27.4501 14.3549 27.4501C15.8575 27.4501 17.101 27.2441 18.1373 26.8837C19.1736 26.4718 20.0026 25.9054 20.6243 25.0816C21.0388 24.5153 21.4015 23.8974 21.7124 23.1766C21.9715 22.4558 22.2306 21.529 22.4896 20.3963L22.9559 20.4478L22.6969 28.1194H0.313533Z" fill="#111111"/>
<path d="M40.8838 26.3175L41.1947 26.5235C40.7284 27.8106 39.6921 28.48 38.0859 28.48C37.2051 28.48 36.4279 28.274 35.8579 27.8106C35.4434 27.5017 35.0807 27.0383 34.6662 26.3175C33.8372 27.0898 33.1636 27.5532 32.7491 27.8106C31.9201 28.274 30.9875 28.48 29.8994 28.48C28.5004 28.48 27.4123 28.1711 26.6351 27.5017C25.8061 26.8324 25.4434 25.9571 25.4434 24.8244C25.4434 23.7947 25.7543 22.9194 26.4279 22.1985C26.7906 21.7867 27.2569 21.5292 27.7232 21.2718C28.1895 21.0658 28.9149 20.8084 29.8476 20.551C30.9356 20.2935 31.7647 20.0361 32.2828 19.8816C32.8009 19.6757 33.2154 19.4697 33.5781 19.2123C33.9926 18.9034 34.2517 18.5944 34.4071 18.1825C34.5626 17.7706 34.6144 17.2558 34.6144 16.5864C34.6144 15.1448 34.3553 14.0636 33.7854 13.3942C33.5263 13.0853 33.2154 12.8279 32.8009 12.6219C32.3864 12.416 31.9719 12.3645 31.5574 12.3645C31.0393 12.3645 30.573 12.519 30.1584 12.7764C29.7439 13.0338 29.4331 13.3942 29.2776 13.8576L28.8113 14.9389C28.5522 15.5052 28.0859 15.8141 27.4642 15.8141C27.0496 15.8141 26.687 15.6597 26.3761 15.4022C26.0652 15.1448 25.9616 14.7844 25.9616 14.321C25.9616 13.7032 26.4279 13.1368 27.3087 12.7249C27.775 12.519 28.3968 12.313 29.1222 12.1585C29.8476 12.0041 30.573 11.9526 31.2465 11.9526C32.0237 11.9526 32.8527 12.0556 33.6818 12.2615C34.5108 12.4675 35.2362 12.7249 35.8061 13.0338C36.6351 13.4972 37.1532 14.1151 37.3087 14.8359C37.4123 15.1963 37.4641 15.8656 37.4641 16.7409V23.6402C37.4641 24.8244 37.5159 25.5967 37.6196 26.0601C37.8268 26.9354 38.345 27.3988 39.174 27.3988C39.5885 27.3988 39.8475 27.3473 40.1066 27.1928C40.3139 26.9869 40.5729 26.7294 40.8838 26.3175ZM34.6662 18.9549C33.9926 19.5212 33.2672 19.9846 32.4382 20.448C31.5056 20.9114 30.8838 21.3233 30.5211 21.5292C30.1584 21.7866 29.8476 22.0956 29.5885 22.4045C29.0186 23.1253 28.7077 23.9491 28.7077 24.9274C28.7077 25.7512 28.9149 26.4205 29.3812 26.9869C29.8476 27.5017 30.4175 27.8106 31.0911 27.8106C31.7128 27.8106 32.2828 27.6047 32.8009 27.2443C33.3191 26.8839 33.7336 26.369 34.0444 25.6997C34.4071 24.8759 34.6144 23.6402 34.6144 22.0956V18.9549H34.6662Z" fill="#111111"/>
<path d="M51.1414 15.8652V22.507C51.1414 23.7942 51.1933 24.721 51.3487 25.3388C51.5041 25.9567 51.7632 26.4716 52.1259 26.8835C52.4886 27.2439 52.8513 27.5013 53.3176 27.6558C53.7839 27.8102 54.3539 27.9132 55.0793 27.9647V28.3766H43.0586V27.9647C43.784 27.9132 44.3539 27.8102 44.8202 27.6558C45.2865 27.5013 45.6492 27.2439 46.0119 26.8835C46.4264 26.4716 46.6855 25.9567 46.8409 25.3903C46.9964 24.7725 47.0482 23.8457 47.0482 22.5585V8.75993C47.0482 7.47275 46.9964 6.54598 46.8409 5.92814C46.6855 5.31029 46.4264 4.79542 46.0119 4.43501C45.6492 4.0746 45.2865 3.81717 44.8202 3.6627C44.3539 3.50824 43.784 3.40526 43.0586 3.35378V2.94189H52.1259C53.6285 2.94189 54.6648 2.94189 55.1311 2.94189C57.1 3.04486 58.6026 3.3023 59.6906 3.71419C60.9342 4.22907 61.9186 4.94988 62.5922 5.92814C63.2658 6.90639 63.6285 8.0906 63.6285 9.37778C63.6285 11.3343 62.9031 12.8789 61.4005 14.0631C60.9342 14.4236 60.4678 14.681 59.8979 14.9384C59.328 15.1444 58.6026 15.3503 57.7217 15.5563C58.4989 15.8652 59.0171 16.1741 59.3798 16.5345C59.6906 16.792 59.9497 17.1009 60.157 17.5128C60.416 17.9247 60.7787 18.594 61.245 19.6238C62.3849 21.8892 63.214 23.5883 63.7839 24.618C64.3538 25.6478 64.8202 26.4201 65.2347 26.8835C65.5456 27.2953 65.8564 27.5528 66.1673 27.7072C66.4782 27.8617 66.8409 27.9647 67.359 28.0162V28.4281H61.0896C60.7787 27.7587 60.5715 27.2953 60.4678 27.1409L59.1725 24.1546C58.3953 22.3526 57.5663 20.808 56.7891 19.4178C56.0119 18.0791 55.2347 17.1524 54.6129 16.6375C54.2503 16.3801 53.8876 16.2256 53.5249 16.1226C53.1104 16.0197 52.644 15.9682 52.0741 15.9682H51.1414V15.8652ZM51.1414 15.4533H51.8668C53.4212 15.4533 54.5611 15.3503 55.1829 15.1959C55.8565 15.0414 56.4782 14.681 57.1 14.1146C58.3953 12.8789 59.0689 11.3343 59.0689 9.48076C59.0689 8.5025 58.8616 7.57573 58.4989 6.70044C58.1363 5.82516 57.5663 5.10434 56.8927 4.53798C56.3746 4.12609 55.7528 3.81717 55.0274 3.6627C54.3021 3.50824 53.2658 3.40527 51.9186 3.40527H51.1414V15.4533Z" fill="#111111"/>
<path d="M67.877 20.4492C67.877 18.4412 68.6542 16.6391 70.1568 15.043C71.9703 13.138 74.1982 12.1597 76.7371 12.1597C79.2759 12.1597 81.4521 13.138 83.2656 15.043C84.7682 16.6391 85.5454 18.4412 85.5454 20.4492C85.5454 22.4572 84.82 24.2077 83.421 25.8038C81.6594 27.7088 79.4314 28.6871 76.7371 28.6871C74.0428 28.6871 71.8148 27.7088 70.0532 25.8038C69.3796 25.0315 68.8096 24.2077 68.447 23.2809C68.0324 22.3542 67.877 21.4274 67.877 20.4492ZM71.2967 20.2432C71.2967 22.4057 71.763 24.2592 72.7475 25.7523C73.8355 27.4514 75.1827 28.2752 76.7889 28.2752C77.4625 28.2752 78.1361 28.0692 78.7578 27.7088C79.3796 27.3484 79.9495 26.8336 80.4158 26.1642C80.8822 25.4434 81.2967 24.5681 81.6075 23.5384C81.9184 22.5086 82.0739 21.4789 82.0739 20.5006C82.0739 19.4709 81.9184 18.4411 81.6075 17.4114C81.2967 16.3817 80.8822 15.4549 80.3122 14.7341C79.2759 13.3439 78.0324 12.6231 76.5298 12.6231C75.1309 12.6231 73.8874 13.3439 72.8511 14.837C71.8148 16.2787 71.2967 18.0807 71.2967 20.2432Z" fill="#111111"/>
<path d="M87.6719 28.3263V23.0231H87.9828C88.3454 24.3103 88.8118 25.3401 89.3817 26.1124C90.418 27.5025 91.6097 28.2233 93.0086 28.2233C93.8377 28.2233 94.5631 27.9659 95.1848 27.5025C95.8584 26.9877 96.1693 26.2153 96.1693 25.2886C96.1693 24.5163 95.9102 23.7955 95.4439 23.2291C95.1848 22.9202 94.8221 22.6112 94.4076 22.3538C93.9931 22.0964 93.3195 21.736 92.3351 21.2726C90.6252 20.4488 89.5372 19.728 88.9672 19.1616C88.19 18.3893 87.7755 17.4625 87.7755 16.3813C87.7755 15.2486 88.19 14.2703 88.9672 13.498C89.8999 12.5712 91.1434 12.1079 92.646 12.1079C93.3195 12.1079 93.9413 12.2108 94.563 12.4683L95.2366 12.7257C95.4439 12.7772 95.6511 12.8287 95.8066 12.8287C96.0656 12.8287 96.3247 12.6227 96.532 12.2623H96.9465L97.1537 16.4843H96.7392C96.5838 15.8664 96.4283 15.403 96.2729 15.0426C96.1175 14.6822 95.8584 14.3218 95.5475 14.0129C95.133 13.5495 94.6667 13.1891 94.0967 12.8802C93.5268 12.6227 93.0086 12.4683 92.4905 12.4683C91.7651 12.4683 91.0916 12.7257 90.5734 13.2406C90.0553 13.7555 89.7962 14.3733 89.7962 15.0941C89.7962 15.712 90.0553 16.2783 90.5216 16.7417C90.9879 17.2566 91.7133 17.6685 92.6978 18.0804L94.8221 18.9557C96.1174 19.4705 97.0501 20.1399 97.6719 20.9637C98.2936 21.7875 98.6045 22.7142 98.6045 23.7955C98.6045 25.0826 98.1382 26.1639 97.2573 27.0391C96.2211 28.0174 94.8739 28.5323 93.2159 28.5323C92.3351 28.5323 91.4543 28.3778 90.5216 28.0689C89.9517 27.8629 89.589 27.76 89.4335 27.7085C89.3299 27.657 89.1745 27.657 88.9672 27.657C88.5009 27.657 88.1382 27.8629 87.8791 28.2233H87.6719V28.3263Z" fill="#111111"/>
<path d="M104.562 2.06738V14.8877C104.976 14.3729 105.391 13.961 105.753 13.652C106.116 13.3431 106.479 13.0857 106.997 12.8797C107.93 12.4163 108.966 12.2104 110.106 12.2104C111.608 12.2104 112.8 12.5193 113.784 13.0857C114.458 13.4976 114.924 14.0639 115.183 14.6818C115.442 15.2996 115.546 16.2779 115.546 17.5136V22.9712V24.4129C115.546 25.2367 115.598 25.8545 115.702 26.2664C115.805 26.6783 116.012 26.9872 116.272 27.2447C116.634 27.6051 117.256 27.8625 118.189 28.017V28.4289H109.898V28.017C110.572 27.914 111.038 27.811 111.297 27.708C111.556 27.6051 111.816 27.3476 112.075 27.0902C112.282 26.7813 112.437 26.3694 112.541 25.803C112.645 25.2881 112.696 24.4643 112.696 23.4346V17.5136C112.696 16.6383 112.645 15.9175 112.489 15.4026C112.334 14.8877 112.126 14.4244 111.816 14.0125C111.194 13.2916 110.261 12.9312 109.121 12.9312C106.116 12.9312 104.562 15.2996 104.562 20.0879V23.0742V24.4643C104.562 25.2881 104.614 25.906 104.717 26.3179C104.821 26.7298 105.028 27.0387 105.287 27.2961C105.65 27.6565 106.272 27.914 107.204 28.0684V28.4803H98.9141V28.0684C99.6913 27.9655 100.209 27.811 100.52 27.6566C100.831 27.4506 101.09 27.1932 101.297 26.7298C101.453 26.4209 101.557 26.009 101.608 25.4426C101.66 24.8762 101.712 24.001 101.712 22.9197V8.24583C101.712 6.95865 101.66 6.08337 101.608 5.5685C101.557 5.05363 101.401 4.64173 101.194 4.28132C100.987 3.92091 100.728 3.66348 100.417 3.50902C100.106 3.35455 99.6913 3.25158 99.1214 3.25158V2.83968L104.562 2.06738Z" fill="#111111"/>
<path d="M39.0671 34.2461H27.5645V37.2838H39.0671V34.2461Z" fill="#111111"/>
<path d="M39.3792 37.5932H27.2031V33.8862H39.3792V37.5932ZM27.8767 36.9239H38.7057V34.607H27.8767V36.9239Z" fill="#111111"/>
<path d="M53.0093 37.5934V37.233C52.7502 37.542 52.491 37.5934 52.0247 37.5934C51.5584 37.5934 51.2476 37.4905 51.0404 37.2845C50.8849 37.1301 50.7812 36.8211 50.7812 36.5637C50.7812 35.9459 51.1957 35.534 51.9729 35.534H53.0093V35.1736C53.0093 34.6587 52.7501 34.4012 52.1283 34.4012C51.662 34.4012 51.4549 34.5042 51.2476 34.8131L50.8848 34.5042C51.1957 34.0923 51.5584 33.9893 52.1283 33.9893C53.061 33.9893 53.5274 34.4012 53.5274 35.1736V37.5934H53.0093ZM53.0093 35.9459H52.0247C51.5066 35.9459 51.2476 36.1518 51.2476 36.5637C51.2476 36.9756 51.5066 37.1816 52.0247 37.1816C52.3356 37.1816 52.5948 37.1816 52.802 36.9241C52.9057 36.8211 52.9575 36.6152 52.9575 36.3063V35.9459H53.0093Z" fill="#111111"/>
<path d="M57.2066 37.3361C56.9993 37.542 56.7403 37.645 56.3776 37.645C56.0149 37.645 55.704 37.542 55.3931 37.1816V37.5935H54.875V32.4448H55.3931V34.4528C55.6522 34.0924 56.0149 33.9894 56.3776 33.9894C56.7403 33.9894 57.0511 34.0924 57.2066 34.2983C57.5693 34.6587 57.6211 35.2766 57.6211 35.7915C57.6729 36.3578 57.5693 36.9757 57.2066 37.3361ZM56.2739 34.4528C55.5485 34.4528 55.3931 35.1221 55.3931 35.8429C55.3931 36.5638 55.4967 37.2331 56.2739 37.2331C56.9993 37.2331 57.1548 36.5638 57.1548 35.8429C57.1548 35.1221 57.0511 34.4528 56.2739 34.4528Z" fill="#111111"/>
<path d="M61.1432 37.2332C60.8842 37.4906 60.5733 37.6451 60.1588 37.6451C59.7443 37.6451 59.3816 37.4906 59.1743 37.2332C58.8116 36.8728 58.7598 36.3579 58.7598 35.7915C58.7598 35.2252 58.8116 34.7618 59.1743 34.3499C59.4334 34.0925 59.7443 33.938 60.1588 33.938C60.5733 33.938 60.8842 34.0925 61.1432 34.3499C61.5059 34.7103 61.5577 35.2252 61.5577 35.7915C61.5577 36.3579 61.4541 36.8728 61.1432 37.2332ZM60.7805 34.7103C60.6251 34.5558 60.4178 34.4529 60.1588 34.4529C59.8997 34.4529 59.6925 34.5558 59.537 34.7103C59.278 34.9677 59.278 35.4311 59.278 35.7915C59.278 36.2034 59.3298 36.6153 59.537 36.8728C59.6925 37.0272 59.8997 37.1302 60.1588 37.1302C60.4178 37.1302 60.6251 37.0272 60.7805 36.8728C61.0396 36.6153 61.0396 36.1519 61.0396 35.7915C61.0396 35.3796 61.0396 34.9677 60.7805 34.7103Z" fill="#111111"/>
<path d="M64.9779 37.594V37.1821C64.7189 37.491 64.408 37.6454 63.9935 37.6454C63.6308 37.6454 63.3199 37.5425 63.1127 37.3365C62.8536 37.0791 62.75 36.7702 62.75 36.3583V34.0928H63.2681V36.3068C63.2681 36.9246 63.579 37.2336 64.0971 37.2336C64.6153 37.2336 64.9779 36.9246 64.9779 36.3068V34.0928H65.4961V37.6454H64.9779V37.594Z" fill="#111111"/>
<path d="M67.8793 37.5935C67.3093 37.5935 66.9985 37.1817 66.9985 36.6153V34.4013H66.584V34.0409H66.9985V32.9082H67.5166V34.0409H68.242V34.4528H67.5166V36.6153C67.5166 36.9242 67.672 37.1302 67.9829 37.1302H68.242V37.5935H67.8793Z" fill="#111111"/>
<path d="M73.5796 37.5935V35.3796C73.5796 34.7617 73.2687 34.4528 72.7506 34.4528C72.2324 34.4528 71.8697 34.7617 71.8697 35.3796V37.5935H71.3516V32.4448H71.8697V34.4528C72.1288 34.1439 72.4397 34.0409 72.8542 34.0409C73.6314 34.0409 74.0977 34.5558 74.0977 35.3796V37.6965H73.5796V37.5935Z" fill="#111111"/>
<path d="M77.4155 37.5934V37.233C77.1564 37.542 76.8973 37.5934 76.431 37.5934C75.9647 37.5934 75.6538 37.4905 75.4466 37.2845C75.2911 37.1301 75.1875 36.8211 75.1875 36.5637C75.1875 35.9459 75.602 35.534 76.3792 35.534H77.4155V35.1736C77.4155 34.6587 77.1564 34.4012 76.5347 34.4012C76.0683 34.4012 75.8611 34.5042 75.6538 34.8131L75.2911 34.5042C75.602 34.0923 75.9647 33.9893 76.5347 33.9893C77.4673 33.9893 77.9336 34.4012 77.9336 35.1736V37.5934H77.4155ZM77.4155 35.9459H76.4828C75.9647 35.9459 75.7056 36.1518 75.7056 36.5637C75.7056 36.9756 75.9647 37.1816 76.4828 37.1816C76.7937 37.1816 77.0528 37.1816 77.26 36.9241C77.3637 36.8211 77.4155 36.6152 77.4155 36.3063V35.9459Z" fill="#111111"/>
<path d="M80.3168 37.5935C79.7469 37.5935 79.436 37.1817 79.436 36.6153V34.4013H79.0215V34.0409H79.436V32.9082H79.9541V34.0409H80.6795V34.4528H79.9541V36.6153C79.9541 36.9242 80.1096 37.1302 80.4204 37.1302H80.6795V37.5935H80.3168Z" fill="#111111"/>
<path d="M82.9576 37.6449C82.3877 37.6449 81.9213 37.4905 81.5586 37.1301L81.9213 36.7697C82.1804 37.0786 82.5431 37.1816 83.0094 37.1816C83.5794 37.1816 83.9421 36.9756 83.9421 36.5637C83.9421 36.2548 83.7866 36.1003 83.3721 36.0488L82.8022 35.9973C82.1286 35.9459 81.7659 35.6369 81.7659 35.0191C81.7659 34.3498 82.284 33.9893 83.0612 33.9893C83.5276 33.9893 83.9939 34.0923 84.3048 34.3498L83.9939 34.7102C83.7348 34.5042 83.4239 34.4012 83.0612 34.4012C82.5431 34.4012 82.284 34.6072 82.284 34.9676C82.284 35.2765 82.4395 35.431 82.9058 35.4825L83.4757 35.534C84.0975 35.5854 84.512 35.8429 84.512 36.5122C84.3566 37.233 83.7866 37.6449 82.9576 37.6449Z" fill="#111111"/>
<path d="M96.0669 37.5935C95.4969 37.5935 95.186 37.1817 95.186 36.6153V34.4013H94.7715V34.0409H95.186V32.9082H95.7042V34.0409H96.4296V34.4528H95.7042V36.6153C95.7042 36.9242 95.8596 37.1302 96.1705 37.1302H96.4296V37.5935H96.0669Z" fill="#111111"/>
<path d="M99.5893 37.5934V37.233C99.3302 37.542 99.0711 37.5934 98.6048 37.5934C98.1385 37.5934 97.8276 37.4905 97.6204 37.2845C97.4649 37.1301 97.3613 36.8211 97.3613 36.5637C97.3613 35.9459 97.7758 35.534 98.553 35.534H99.5893V35.1736C99.5893 34.6587 99.3302 34.4012 98.7084 34.4012C98.2421 34.4012 98.0349 34.5042 97.8276 34.8131L97.4649 34.5042C97.7758 34.0923 98.1385 33.9893 98.7084 33.9893C99.6411 33.9893 100.107 34.4012 100.107 35.1736V37.5934H99.5893ZM99.5893 35.9459H98.6048C98.0867 35.9459 97.8276 36.1518 97.8276 36.5637C97.8276 36.9756 98.0867 37.1816 98.6048 37.1816C98.9157 37.1816 99.1748 37.1816 99.382 36.9241C99.4857 36.8211 99.5375 36.6152 99.5375 36.3063V35.9459H99.5893Z" fill="#111111"/>
<path d="M102.336 37.5935C101.714 37.5935 101.455 37.1816 101.455 36.6667V32.4448H101.973V36.6667C101.973 37.0272 102.077 37.1816 102.439 37.1816H102.699V37.645H102.336V37.5935Z" fill="#111111"/>
<path d="M104.046 35.946C104.046 36.7183 104.409 37.1817 105.083 37.1817C105.497 37.1817 105.704 37.0787 105.963 36.7698L106.326 37.0787C105.963 37.4391 105.653 37.6451 105.083 37.6451C104.15 37.6451 103.58 37.0787 103.58 35.7915C103.58 34.6588 104.098 33.938 104.979 33.938C105.86 33.938 106.378 34.6073 106.378 35.6885V35.946H104.046ZM105.808 34.9677C105.653 34.6588 105.342 34.4529 104.979 34.4529C104.616 34.4529 104.305 34.6588 104.15 34.9677C104.098 35.1737 104.046 35.2767 104.046 35.5856H105.86C105.86 35.2767 105.86 35.1222 105.808 34.9677Z" fill="#111111"/>
<path d="M108.709 37.6449C108.14 37.6449 107.673 37.4905 107.311 37.1301L107.673 36.7697C107.932 37.0786 108.295 37.1816 108.761 37.1816C109.331 37.1816 109.694 36.9756 109.694 36.5637C109.694 36.2548 109.539 36.1003 109.124 36.0488L108.554 35.9973C107.88 35.9459 107.518 35.6369 107.518 35.0191C107.518 34.3498 108.036 33.9893 108.813 33.9893C109.279 33.9893 109.746 34.0923 110.057 34.3498L109.746 34.7102C109.487 34.5042 109.176 34.4012 108.813 34.4012C108.295 34.4012 108.036 34.6072 108.036 34.9676C108.036 35.2765 108.191 35.431 108.658 35.4825L109.228 35.534C109.849 35.5854 110.264 35.8429 110.264 36.5122C110.16 37.233 109.59 37.6449 108.709 37.6449Z" fill="#111111"/>
<path fill-rule="evenodd" clip-rule="evenodd" d="M87.7754 35.483C87.7754 35.483 87.7236 35.4315 87.6718 35.4315C86.8428 35.1226 86.6873 34.1444 87.3609 33.5265C87.6718 33.2176 88.0863 33.0631 88.5008 33.0116C88.8635 32.9601 89.2262 32.9601 89.6407 32.9087C89.6925 32.9087 89.6925 32.9087 89.7443 32.9087C89.7443 33.2691 89.7443 33.578 89.7443 33.8869C89.5889 33.9384 89.4852 33.8869 89.4334 33.7324C89.3298 33.2691 89.0189 33.1146 88.6044 33.2176C87.7754 33.4235 87.5681 34.3503 87.7754 34.8652C87.879 35.1741 88.1381 35.2771 88.3972 35.3286C88.5008 35.3286 88.6044 35.3286 88.7598 35.38C88.7598 35.483 88.7598 35.586 88.7598 35.6375C88.5008 35.6375 88.2417 35.6375 88.0345 35.689C87.5163 35.7919 87.1536 36.2038 87.1536 36.7702C87.1018 37.6455 87.4645 38.2633 88.2935 38.4693C89.278 38.7267 90.2106 38.5723 91.0396 37.9544C91.6096 37.5425 91.8686 36.7187 91.7132 35.9979C91.4023 35.9979 91.0396 35.9979 90.7288 35.9464C90.5733 35.9464 90.3661 35.8434 90.2106 35.7919C89.8997 35.6375 89.8479 35.3286 90.0552 35.0196C90.3661 34.5562 90.936 34.4018 91.4541 34.6077C91.8686 34.7622 92.1277 35.1226 92.2832 35.5345C92.335 35.6375 92.3868 35.689 92.5422 35.689C92.9049 35.6375 93.2676 35.586 93.6303 35.5345C93.6821 35.5345 93.7339 35.5345 93.8376 35.483C93.6303 35.689 93.4749 35.8949 93.3194 36.0494H93.2158C92.9567 35.9979 92.7495 35.9464 92.4904 35.9464C92.6458 37.3366 91.9205 38.1604 90.936 38.4693C89.7443 38.9327 88.5526 38.8812 87.3609 38.4693C86.8946 38.3148 86.5319 37.9544 86.4283 37.4395C86.3246 36.7702 86.5319 36.2553 87.05 35.8434C87.1536 35.7405 87.4645 35.6375 87.7754 35.483ZM91.5578 35.7919C91.5578 35.7919 91.5578 35.7405 91.6096 35.7405C91.506 35.3286 91.2469 35.0711 90.8842 34.9167C90.7806 34.8652 90.6251 34.8652 90.4697 34.9167C90.3142 34.9167 90.3142 35.0196 90.3142 35.1741C90.3661 35.38 90.5215 35.5345 90.7288 35.6375C90.9878 35.689 91.2469 35.7405 91.5578 35.7919Z" fill="#111111"/>
</g>
</svg>
