<svg width="95" height="22" viewBox="0 0 95 22" fill="none" xmlns="http://www.w3.org/2000/svg">
<path d="M0 0.354219H12.2563L10.4769 3.69151H3.6315V9.2288H11.2213V12.5661H3.6315V18.2898H15.5065L12.6558 21.6271H0V0.354219Z" fill="white"/>
<path d="M16.9409 0.354219H20.3182L31.4125 15.083V0.354219H34.9895V21.6271H31.9572L20.518 6.50676V21.6457H16.9409V0.354219Z" fill="white"/>
<path d="M37.2229 0.354219H44.9398C51.4583 0.354219 55.9614 4.94066 55.9614 10.9254V11C55.9614 16.9847 51.4583 21.6457 44.9398 21.6457H37.2229V0.354219ZM40.8544 3.76608V18.2339H44.9398C49.2976 18.2339 52.1302 15.2322 52.1302 11.0559V11C52.1302 6.84235 49.2794 3.76608 44.9398 3.76608H40.8544Z" fill="white"/>
<path d="M57.414 11.0559V11C57.414 5.01525 61.917 0 68.2721 0C74.6273 0 79.0759 4.95932 79.0759 10.9441V11C79.0759 16.9847 74.5728 22 68.2177 22C61.8626 22 57.414 17.0593 57.414 11.0559ZM75.2628 11.0559V11C75.2628 6.86102 72.3394 3.43051 68.2177 3.43051C64.0959 3.43051 61.227 6.80508 61.227 10.9441V11C61.227 15.139 64.1504 18.5322 68.2721 18.5322C72.3939 18.5322 75.2628 15.1949 75.2628 11.0559Z" fill="white"/>
<path d="M89.4075 13.5915C92.2764 12.7339 94.3282 10.6457 94.3282 7.14066V7.08473C94.3282 5.23896 93.7108 3.65422 92.6032 2.49829C91.2596 1.15591 89.2259 0.354219 86.6112 0.354219H77.3691L79.6206 3.76608H86.3207C89.008 3.76608 90.6059 5.01524 90.6059 7.28981V7.34574C90.6059 9.50846 88.8991 11.4102 83.7968 11.2051L83.7787 11.1678L85.5763 14.2254L90.6785 21.6457H95L89.4075 13.5915Z" fill="white"/>
</svg>
