<svg width="166" height="27" viewBox="0 0 166 27" fill="none" xmlns="http://www.w3.org/2000/svg">
<g clip-path="url(#clip0_2097_12407)">
<path d="M0.394531 0.818359H11.6944V5.88979H6.29493V11.0764H11.0007V16.0251H6.29493V26.3884H0.394531V0.818359Z" fill="#111111"/>
<path d="M42.1384 0.818359H38.6348V26.3884H42.1384V0.818359Z" fill="#111111"/>
<path d="M50.25 0.818359H51.9856L60.1299 20.6733V0.818359H62.2136V26.3884H60.5081L52.3312 6.31053V26.3884H50.25V0.818359Z" fill="#111111"/>
<path d="M73.3449 1.95536H67.9805V0.818359H79.7863V1.95536H74.5496V26.3884H73.3449V1.95536Z" fill="#111111"/>
<path d="M86.7285 0.818359H87.9306V25.2814H95.6668V26.3884H86.7285V0.818359Z" fill="#111111"/>
<path d="M104.528 0.818359H102.129V26.3884H104.528V0.818359Z" fill="#111111"/>
<path d="M113.004 0.818359H115.684L122.946 17.8008V0.818359H126.162V26.3884H123.64L116.285 8.93015V26.3884H113.004V0.818359Z" fill="#111111"/>
<path d="M134.311 0.818359H145.044V5.10341H138.951V10.9562H143.75V14.9583H138.951V22.1985H145.107V26.3884H134.311V0.818359Z" fill="#111111"/>
<path fill-rule="evenodd" clip-rule="evenodd" d="M21.6492 0.818359H26.6355L31.7495 26.3884H27.4243L26.4151 20.4855H21.9647L20.9229 26.3884H16.5352L21.6492 0.818359ZM22.6084 16.4641H25.7388L24.1736 6.78387L22.6084 16.4641Z" fill="#111111"/>
<path d="M151.449 7.16288C151.397 8.59166 151.679 9.8344 152.297 10.8874C152.937 11.918 153.849 12.8966 155.032 13.8231C155.032 13.8231 156.818 15.2705 157.417 15.7504C158.455 16.5802 160.628 18.0164 160.628 19.7949C160.583 21.0377 160.003 22.139 158.671 22.139C156.468 22.139 156.066 19.5494 156.1 17.9308H151.203C150.92 20.1186 152.249 26.7639 158.47 26.7639C165.257 26.7639 165.952 20.9112 165.993 19.7875C166.053 18.1429 165.718 16.7253 164.989 15.5235C164.259 14.3254 161.443 11.8473 160.111 10.7944C157.607 8.81118 157.246 7.46054 157.276 6.59732C157.302 5.85689 157.733 4.61042 159.281 4.61042C160.029 4.61042 161.424 5.09412 161.007 8.33492L165.391 8.3312C165.993 3.59135 163.015 0.443359 158.755 0.443359C153.866 0.443359 151.553 4.14532 151.449 7.16288Z" fill="#111111"/>
</g>
<defs>
<clipPath id="clip0_2097_12407">
<rect width="166" height="27" fill="white"/>
</clipPath>
</defs>
</svg>
