<svg width="181" height="39" viewBox="0 0 181 39" fill="none" xmlns="http://www.w3.org/2000/svg">
<g clip-path="url(#clip0_2097_12297)">
<mask id="mask0_2097_12297" style="mask-type:luminance" maskUnits="userSpaceOnUse" x="0" y="0" width="181" height="39">
<path d="M180.752 0.60498H0.314453V38.5919H180.752V0.60498Z" fill="white"/>
</mask>
<g mask="url(#mask0_2097_12297)">
<path d="M15.1427 19.1948C15.0888 17.187 15.5797 15.2021 16.5629 13.4523C17.5044 11.8085 18.8964 10.4702 20.5736 9.59622C22.3874 8.65276 24.4073 8.1783 26.4501 8.21586C28.4933 8.17453 30.5141 8.6492 32.3266 9.59622C34.012 10.4586 35.4069 11.7997 36.3373 13.4523C37.3184 15.203 37.8091 17.1872 37.7574 19.1948C37.815 21.1985 37.3328 23.1806 36.3618 24.9324C35.4212 26.5758 34.0288 27.9128 32.3511 28.7837C30.5287 29.6997 28.5126 30.1598 26.4746 30.1247C24.4201 30.1524 22.3881 29.6929 20.5442 28.7837C18.8894 27.9146 17.5141 26.5929 16.5775 24.9717C15.595 23.2086 15.0997 21.2143 15.1427 19.1948ZM26.4599 24.7261C27.2654 24.7362 28.0593 24.5328 28.7615 24.1366C29.4618 23.7074 30.0034 23.0606 30.3041 22.2945C30.72 21.3296 30.9206 20.285 30.8917 19.2341C30.9114 18.1611 30.7269 17.094 30.3482 16.0903C30.0069 15.3389 29.4601 14.7001 28.7713 14.2481C28.0758 13.8359 27.2769 13.633 26.4697 13.6636C25.6516 13.633 24.8416 13.8357 24.1338 14.2481C23.4384 14.6872 22.8947 15.3304 22.5765 16.0903C22.1984 17.0925 22.0139 18.1578 22.0329 19.2292C22.0132 20.2752 22.1978 21.3149 22.5765 22.2896C22.8899 23.0495 23.4306 23.6931 24.124 24.1317C24.8381 24.5297 25.643 24.7345 26.4599 24.7261Z" fill="#111111"/>
<path d="M54.7256 8.67787V11.7775C54.193 10.9115 53.4978 10.1574 52.6786 9.55717C51.3123 8.59566 49.6697 8.10914 48.0019 8.1719C46.3308 8.14116 44.688 8.60782 43.2811 9.51296C41.9014 10.4305 40.8135 11.7264 40.147 13.2463C39.3929 15.0199 39.0207 16.9333 39.0549 18.8611C39.0218 20.8006 39.3904 22.7259 40.1372 24.5152C40.8161 26.026 41.9015 27.3172 43.2713 28.2436C44.681 29.1385 46.3245 29.5917 47.9921 29.5454C49.6743 29.6132 51.3323 29.1266 52.7129 28.1601C53.4294 27.6273 54.0504 26.9761 54.5493 26.2345V29.5012C54.5677 30.2934 54.4122 31.0799 54.0939 31.8051C53.8102 32.3861 53.3439 32.8573 52.7668 33.1461C52.0499 33.49 51.2587 33.6487 50.4651 33.6079C49.8001 33.6313 49.1363 33.5331 48.5063 33.3181C47.9883 33.1254 47.5386 32.7836 47.2135 32.3356C46.8785 31.8681 46.677 31.3178 46.6307 30.744H39.6622C39.7804 32.2951 40.345 33.7785 41.2872 35.0141C42.2295 36.2497 43.5091 37.1844 44.9706 37.7048C46.7405 38.3301 48.6088 38.628 50.4847 38.5841C52.5468 38.6437 54.5975 38.2584 56.4983 37.4542C58.0468 36.7811 59.3465 35.6389 60.2152 34.1875C61.1132 32.6228 61.5623 30.8394 61.5129 29.0345V8.67787H54.7256ZM54.1869 21.9411C53.9023 22.7296 53.3738 23.4061 52.6786 23.8717C51.9825 24.3379 51.1538 24.5638 50.3182 24.5152C49.488 24.5653 48.664 24.3432 47.9706 23.8824C47.2771 23.4216 46.7519 22.7472 46.474 21.9608C46.1197 20.9672 45.9536 19.9159 45.9843 18.8611C45.9601 17.8196 46.1261 16.7824 46.474 15.8007C46.7557 15.0136 47.2805 14.3372 47.9718 13.8699C48.6632 13.4025 49.4852 13.1686 50.3182 13.2021C51.148 13.1685 51.9667 13.4027 52.6541 13.8702C53.3457 14.3202 53.8746 14.9816 54.1624 15.7565C54.5137 16.7373 54.6798 17.7751 54.6521 18.8169C54.6833 19.8717 54.5172 20.9231 54.1624 21.9166L54.1869 21.9411Z" fill="#111111"/>
<path d="M68.1155 28.8337C66.4614 28.0119 65.1039 26.6931 64.2321 25.061C63.2817 23.2698 62.8061 21.2636 62.8512 19.235C62.8013 17.22 63.2773 15.2268 64.2321 13.4532C65.096 11.7981 66.4352 10.441 68.0763 9.55781C69.8969 8.6368 71.9143 8.1764 73.9529 8.21674C75.9525 8.16982 77.9332 8.61509 79.7216 9.51359C81.3393 10.3908 82.6719 11.7156 83.5609 13.3304C84.4841 15.0882 84.9474 17.0522 84.9076 19.0385V19.9571C84.8685 20.2519 84.8685 20.6301 84.8244 21.0084H69.3692C69.4117 21.7885 69.5959 22.5543 69.9128 23.268C70.2771 23.9675 70.8462 24.5383 71.5435 24.9038C72.3505 25.2904 73.2408 25.4694 74.134 25.4245C74.7555 25.4382 75.3752 25.3536 75.9705 25.174C76.4769 25.0058 76.9355 24.7177 77.3074 24.334C77.6923 23.9805 77.9806 23.5341 78.1448 23.0371H84.511C84.1578 24.4506 83.4709 25.758 82.5081 26.8491C81.5092 27.9226 80.2801 28.7541 78.9136 29.2807C77.3444 29.8514 75.6856 30.1343 74.0165 30.1158C71.9746 30.1784 69.9486 29.7382 68.1155 28.8337ZM78.2329 17.0736C78.1927 16.4491 78.0366 15.8377 77.7726 15.2708C77.4512 14.5709 76.9296 13.9827 76.2741 13.5809C75.5167 13.2154 74.6859 13.0289 73.8455 13.0358C73.005 13.0426 72.1773 13.2425 71.426 13.6202C70.7308 14.0512 70.1971 14.7006 69.9079 15.4673C69.6939 15.9751 69.5537 16.5111 69.4916 17.0589L78.2329 17.0736Z" fill="#111111"/>
<path d="M127.6 28.8337C125.946 28.0119 124.588 26.6931 123.717 25.061C122.766 23.2698 122.291 21.2636 122.336 19.235C122.286 17.22 122.762 15.2268 123.717 13.4532C124.58 11.7981 125.92 10.441 127.561 9.55781C129.381 8.6368 131.399 8.1764 133.437 8.21674C135.437 8.16982 137.418 8.61509 139.206 9.51359C140.824 10.3908 142.156 11.7156 143.045 13.3304C143.969 15.0882 144.432 17.0522 144.392 19.0385V19.9571C144.353 20.2519 144.353 20.6301 144.309 21.0084H128.854C128.896 21.7885 129.08 22.5543 129.397 23.268C129.762 23.9675 130.331 24.5383 131.028 24.9038C131.835 25.2904 132.725 25.4694 133.619 25.4245C134.24 25.4382 134.86 25.3536 135.455 25.174C135.961 25.0058 136.42 24.7177 136.792 24.334C137.177 23.9815 137.464 23.5346 137.624 23.0371H143.991C143.637 24.4506 142.95 25.758 141.988 26.8491C140.989 27.9226 139.76 28.7541 138.393 29.2807C136.824 29.851 135.165 30.1338 133.496 30.1158C131.456 30.1776 129.432 29.7375 127.6 28.8337ZM137.712 17.0441C137.672 16.4197 137.516 15.8083 137.252 15.2413C136.925 14.5477 136.402 13.9653 135.749 13.5662C134.991 13.2007 134.161 13.0142 133.32 13.021C132.48 13.0278 131.652 13.2278 130.901 13.6055C130.211 14.0389 129.683 14.688 129.397 15.4525C129.183 15.9604 129.043 16.4964 128.981 17.0441H137.712Z" fill="#111111"/>
<path d="M145.855 8.67725H152.54V12.5285L152.667 12.1945C153.754 9.30603 155.924 8.67725 158.642 8.67725H166.203V12.5285L166.325 12.1945C167.412 9.30603 169.587 8.67725 172.3 8.67725H173.553V14.6703H171.007C167.412 14.6703 166.369 17.264 166.369 20.4079V29.6283H159.523V14.6703H157.349C153.759 14.6703 152.711 17.264 152.711 20.4079V29.6283H145.855V8.67725Z" fill="#111111"/>
<path d="M180.748 22.7964V29.6294H173.188V22.7964H180.748Z" fill="#111111"/>
<path d="M94.7692 13.601H98.8485V8.61003H94.7692V2.16016H88.1777V8.61003H84.8379V13.601H88.1777V23.9856C88.1252 25.161 88.3999 26.3278 88.971 27.3555C89.5445 28.2479 90.4105 28.9116 91.4196 29.232C92.8137 29.6755 94.2718 29.883 95.7339 29.846C96.1894 29.846 96.6546 29.846 97.1296 29.8116C97.6046 29.7772 98.0747 29.7625 98.54 29.7232C98.5888 29.7184 98.638 29.7184 98.6869 29.7232H98.8387V24.7028H97.1688C96.7007 24.7169 96.2328 24.6673 95.778 24.5554C95.4675 24.4746 95.1984 24.2801 95.0238 24.0102C94.8327 23.657 94.7444 23.2569 94.7692 22.8558V13.601Z" fill="#111111"/>
<path d="M10.2409 13.601H14.3201V8.61003H10.2409V2.16016H3.64937V8.61003H0.314453V13.601H3.64937V23.9856C3.59682 25.161 3.87152 26.3278 4.4427 27.3555C5.01673 28.2473 5.8825 28.9108 6.89124 29.232C8.28517 29.6765 9.74339 29.884 11.2056 29.846C11.661 29.846 12.1262 29.846 12.6013 29.8116C13.0763 29.7772 13.5464 29.7625 14.0165 29.7232C14.0654 29.7181 14.1146 29.7181 14.1634 29.7232H14.3103V24.7028H12.6404C12.174 24.7169 11.7077 24.6674 11.2546 24.5554C10.9427 24.4749 10.672 24.2804 10.4955 24.0102C10.3043 23.657 10.2161 23.2569 10.2409 22.8558V13.601Z" fill="#111111"/>
<path d="M120.024 11.6684C119.503 10.534 118.63 9.59862 117.537 9.0011C116.48 8.4946 115.335 8.203 114.165 8.14314C112.996 8.08328 111.827 8.25634 110.725 8.65233C109.846 8.98972 109.044 9.5028 108.369 10.1604C107.924 10.5998 107.537 11.0951 107.218 11.6341V0.605957H100.627V29.6672H107.218V17.9366C107.192 17.1222 107.381 16.3154 107.767 15.5983C108.098 15.0033 108.595 14.5184 109.197 14.2032C109.766 13.9013 110.399 13.7397 111.043 13.7316C111.666 13.708 112.284 13.8432 112.84 14.1246C113.318 14.3852 113.699 14.7935 113.927 15.2888C114.193 15.8827 114.32 16.5295 114.3 17.1801V29.6672H120.881V16.1681C120.935 14.6228 120.643 13.085 120.024 11.6684Z" fill="#111111"/>
</g>
</g>
<defs>
<clipPath id="clip0_2097_12297">
<rect width="181" height="39" fill="white"/>
</clipPath>
</defs>
</svg>
