<svg width="93" height="36" viewBox="0 0 93 36" fill="none" xmlns="http://www.w3.org/2000/svg">
<g clip-path="url(#clip0_2097_12531)">
<path d="M74.4472 23.9483C73.2103 23.295 72.0973 22.414 71.1915 21.3235C68.1859 17.7005 68.3481 10.6371 71.6962 6.87212C75.202 2.93146 81.9095 3.20471 85.9718 6.29595C86.1566 4.5791 87.5467 2.99681 89.1915 3.4339C91.4513 4.03323 91.7623 6.76848 91.947 9.13197C92.2872 13.4467 92.1858 17.7861 92.0844 22.1143C92.0033 25.6134 91.4806 29.0674 89.3537 31.8207C87.6661 34.0061 84.9399 35.1935 82.2159 35.4414C79.4919 35.6892 78.2099 35.4774 75.6481 34.5063C73.9673 33.8687 72.2415 33.0035 71.1059 31.5818C69.6346 29.741 70.635 26.0302 73.6249 26.5709C74.2467 26.6836 74.819 26.99 75.2921 27.4091C77.7142 29.5563 80.4968 30.2345 83.1487 29.0155C85.1337 28.103 86.4468 26.0502 86.4468 22.751C84.1982 25.8377 78.7281 26.2105 74.4472 23.9483ZM80.3211 19.3678C81.9861 19.5526 83.748 19.0163 84.852 17.8199C86.0259 16.5469 86.3841 14.6994 85.9718 13.0546C85.3973 10.7633 83.223 8.82105 80.7356 8.7174C75.0353 8.48308 73.9516 16.3509 78.3564 18.7595C78.9557 19.0907 79.6294 19.2912 80.3211 19.3678Z" fill="#111111"/>
<path d="M6.9208 8.31346C5.48491 8.29305 3.50687 8.34749 2.16399 7.85298C0.789337 7.34713 -0.120288 5.61181 0.71448 4.1623C1.50388 2.78766 3.69288 2.62207 5.11516 2.56082C8.85347 2.40203 12.4489 2.64929 16.1872 2.4905C17.0242 2.4542 17.9066 2.42925 18.6507 2.80354C19.9482 3.45684 20.2386 4.91314 19.8257 6.26964C19.4129 7.62614 18.3853 8.71497 17.3917 9.75389C14.8058 12.4556 12.3309 15.4045 9.74268 18.1061C11.9952 18.1833 13.5287 18.0585 15.425 18.0199C17.9135 17.9678 19.4061 18.274 20.4767 19.7235C21.5225 21.1367 20.9123 23.2214 19.3584 23.8633C17.7048 24.5484 15.6587 24.3873 13.8598 24.3465C11.2784 24.2875 8.69469 24.2285 6.11326 24.1695C4.68417 24.1378 3.11898 24.0539 2.07098 23.1147C0.943588 22.1053 1.05928 20.6263 1.58555 19.2313C2.11181 17.8362 3.18023 16.7043 4.23049 15.6177C6.59642 13.1724 8.7514 10.5116 11.2081 8.15014C11.1763 8.14787 8.7514 8.34068 6.9208 8.31346Z" fill="#111111"/>
<path fill-rule="evenodd" clip-rule="evenodd" d="M48.2722 20.4676C50.7657 22.6308 53.8054 23.4865 57.4742 22.8936C61.2789 22.2788 63.9042 20.3702 65.6488 17.3646C66.6809 15.5868 67.1685 13.4406 67.1766 11.3363C67.1933 6.43963 63.9987 1.793 58.8083 0.465872C54.7378 -0.574913 51.5949 0.449376 48.3961 3.17325C45.5803 5.57094 44.1807 7.91209 44.0931 11.6094C44.0025 15.4333 45.7942 18.3185 48.2722 20.4676ZM56.6418 13.7333C56.7585 13.4045 56.5866 13.0434 56.2579 12.9267C55.9291 12.81 55.568 12.982 55.4513 13.3107C55.14 14.1877 54.3269 14.8389 53.3378 14.9C52.4138 14.956 51.5782 14.4761 51.1343 13.7261C50.9566 13.4258 50.5693 13.3265 50.2691 13.5042C49.9689 13.6818 49.8694 14.0692 50.0471 14.3695C50.7215 15.509 51.9973 16.247 53.4154 16.161C54.9261 16.0677 56.1666 15.0723 56.6418 13.7333ZM58.2622 11.6523C59.0571 11.5906 59.6514 10.8963 59.5897 10.1015C59.5281 9.30661 58.8337 8.71226 58.0389 8.77393C57.2441 8.8356 56.6497 9.52993 56.7114 10.3248C56.7731 11.1196 57.4674 11.714 58.2622 11.6523ZM49.2929 10.681C49.3546 11.4759 48.7602 12.1702 47.9654 12.2319C47.1705 12.2936 46.4762 11.6992 46.4145 10.9044C46.3529 10.1095 46.9472 9.41519 47.742 9.35352C48.5369 9.29185 49.2312 9.8862 49.2929 10.681Z" fill="#111111"/>
<path fill-rule="evenodd" clip-rule="evenodd" d="M38.8135 26.2022C42.0519 23.9295 43.3166 20.4529 43.0639 17.0062C42.92 15.0311 42.1968 13.0815 40.9638 11.5693C38.5663 8.62169 34.5119 7.3891 30.9567 8.28266C27.964 9.03369 24.8664 11.5233 23.5165 14.5157C21.8714 18.1616 23.6308 22.431 25.4207 24.6022C28.6582 28.5286 34.6824 29.1014 38.8135 26.2022ZM33.8841 19.6229C33.604 19.8308 33.5454 20.2265 33.7534 20.5066C34.4932 21.5033 35.7849 22.0171 37.0706 21.7081C38.2775 21.4167 39.1533 20.4736 39.4247 19.3493C39.5066 19.0102 39.2981 18.669 38.959 18.5871C38.6199 18.5052 38.2786 18.7138 38.1967 19.0529C38.0315 19.7371 37.5001 20.3046 36.7745 20.48C35.9968 20.6667 35.2154 20.3567 34.7677 19.7536C34.5598 19.4735 34.1642 19.415 33.8841 19.6229ZM31.7051 19.1815C31.0459 19.329 30.392 18.9141 30.2446 18.2549C30.0972 17.5957 30.512 16.9418 31.1712 16.7944C31.8304 16.6469 32.4843 17.0618 32.6318 17.721C32.7792 18.3802 32.3643 19.0341 31.7051 19.1815ZM38.729 16.1675C38.8764 16.8267 39.5303 17.2416 40.1895 17.0941C40.8487 16.9467 41.2636 16.2928 41.1162 15.6336C40.9687 14.9744 40.3148 14.5595 39.6556 14.707C38.9964 14.8544 38.5816 15.5083 38.729 16.1675Z" fill="#111111"/>
</g>
<defs>
<clipPath id="clip0_2097_12531">
<rect width="93" height="36" fill="white"/>
</clipPath>
</defs>
</svg>
