<svg width="130" height="40" viewBox="0 0 130 40" fill="none" xmlns="http://www.w3.org/2000/svg">
<g clip-path="url(#clip0_2097_12709)">
<mask id="mask0_2097_12709" style="mask-type:luminance" maskUnits="userSpaceOnUse" x="0" y="0" width="130" height="40">
<path d="M129.228 0.951172H0.136719V39.6785H129.228V0.951172Z" fill="white"/>
</mask>
<g mask="url(#mask0_2097_12709)">
<path fill-rule="evenodd" clip-rule="evenodd" d="M13.0837 7.13086C13.0881 1.657 19.6785 -1.10282 23.5736 2.73809C27.5014 6.61135 24.7646 13.3049 19.2517 13.3081L16.7662 13.3095L16.7636 16.6551H20.2041V20.3473H16.7606L16.7569 24.9748C16.7506 32.8976 6.72967 36.3214 1.88786 30.0551C-2.33369 24.5915 1.55552 16.6551 8.4545 16.6551H13.0761L13.0788 13.3117L9.46731 13.3138L9.46517 9.6216L13.0817 9.6195L13.0837 7.13086ZM16.7692 9.61735L19.2495 9.61591C21.4647 9.61462 22.5644 6.92506 20.9861 5.36871C19.421 3.82537 16.7729 4.93432 16.7711 7.1338L16.7692 9.61735ZM13.0732 20.3473H8.4545C4.61962 20.3473 2.45776 24.7588 4.80436 27.7958C7.49574 31.279 13.066 29.3759 13.0695 24.9719L13.0732 20.3473Z" fill="#111111"/>
<path d="M22.5762 33.0326V16.5508H26.7578V33.0326H22.5762Z" fill="#111111"/>
<path d="M29.4492 33.0324V16.5506H33.5644V18.7105H34.1618C34.4273 18.1345 34.9251 17.5918 35.6552 17.0822C36.3853 16.5506 37.4915 16.2847 38.9739 16.2847C40.2571 16.2847 41.3744 16.5838 42.3258 17.1819C43.2993 17.7579 44.0515 18.5665 44.5825 19.6077C45.1135 20.6267 45.379 21.823 45.379 23.1965V33.0324H41.1974V23.5288C41.1974 22.2882 40.8877 21.3578 40.2682 20.7375C39.6708 20.1172 38.808 19.8071 37.6796 19.8071C36.3964 19.8071 35.4008 20.239 34.6928 21.103C33.9848 21.9448 33.6308 23.13 33.6308 24.6586V33.0324H29.4492Z" fill="#111111"/>
<path d="M53.6826 33.4977C52.51 33.4977 51.4591 33.2983 50.5298 32.8996C49.6006 32.4787 48.8594 31.8805 48.3063 31.1052C47.7753 30.3077 47.5098 29.344 47.5098 28.2142C47.5098 27.0844 47.7753 26.1429 48.3063 25.3897C48.8594 24.6144 49.6117 24.0384 50.563 23.6618C51.5365 23.263 52.6428 23.0636 53.8817 23.0636H58.3952V22.1332C58.3952 21.3579 58.1518 20.7265 57.665 20.2391C57.1783 19.7296 56.4039 19.4749 55.342 19.4749C54.3021 19.4749 53.5277 19.7185 53.0189 20.2059C52.51 20.6711 52.1781 21.2803 52.0233 22.0335L48.1736 20.7376C48.4391 19.8958 48.8594 19.1315 49.4347 18.4447C50.032 17.7359 50.8175 17.1709 51.791 16.75C52.7866 16.307 53.9924 16.0854 55.4083 16.0854C57.5765 16.0854 59.2912 16.6282 60.5523 17.7137C61.8134 18.7992 62.444 20.3721 62.444 22.4323V28.5797C62.444 29.2443 62.7537 29.5766 63.3732 29.5766H64.7007V33.0325H61.913C61.0944 33.0325 60.4196 32.8332 59.8886 32.4345C59.3576 32.0357 59.0921 31.5039 59.0921 30.8393V30.8061H58.4615C58.373 31.0719 58.1739 31.4264 57.8642 31.8695C57.5544 32.2904 57.0677 32.667 56.4039 32.9993C55.7402 33.3315 54.8331 33.4977 53.6826 33.4977ZM54.4127 30.1083C55.5853 30.1083 56.5367 29.7871 57.2668 29.1446C58.019 28.4801 58.3952 27.605 58.3952 26.5195V26.1872H54.1804C53.406 26.1872 52.7976 26.3534 52.3551 26.6857C51.9126 27.018 51.6914 27.4832 51.6914 28.0813C51.6914 28.6794 51.9237 29.1668 52.3883 29.5434C52.8529 29.92 53.5277 30.1083 54.4127 30.1083Z" fill="#111111"/>
<path d="M66.4297 33.0326V9.77197H70.6113V33.0326H66.4297Z" fill="#111111"/>
<path d="M81.7497 33.4977C80.1125 33.4977 78.6412 33.1654 77.3358 32.5008C76.0304 31.8362 75.0017 30.8726 74.2494 29.6098C73.4972 28.3471 73.1211 26.8297 73.1211 25.0574V24.5257C73.1211 22.7535 73.4972 21.236 74.2494 19.9733C75.0017 18.7106 76.0304 17.7469 77.3358 17.0823C78.6412 16.4177 80.1125 16.0854 81.7497 16.0854C83.3869 16.0854 84.8582 16.4177 86.1635 17.0823C87.4689 17.7469 88.4977 18.7106 89.2499 19.9733C90.0022 21.236 90.3783 22.7535 90.3783 24.5257V25.0574C90.3783 26.8297 90.0022 28.3471 89.2499 29.6098C88.4977 30.8726 87.4689 31.8362 86.1635 32.5008C84.8582 33.1654 83.3869 33.4977 81.7497 33.4977ZM81.7497 29.776C83.0329 29.776 84.0949 29.3662 84.9356 28.5465C85.7763 27.7047 86.1967 26.5084 86.1967 24.9577V24.6254C86.1967 23.0747 85.7763 21.8895 84.9356 21.0699C84.117 20.2281 83.055 19.8072 81.7497 19.8072C80.4664 19.8072 79.4045 20.2281 78.5637 21.0699C77.723 21.8895 77.3026 23.0747 77.3026 24.6254V24.9577C77.3026 26.5084 77.723 27.7047 78.5637 28.5465C79.4045 29.3662 80.4664 29.776 81.7497 29.776Z" fill="#111111"/>
<path d="M100.744 33.4977C99.1066 33.4977 97.6353 33.1654 96.33 32.5008C95.0246 31.8362 93.9958 30.8726 93.2436 29.6098C92.4913 28.3471 92.1152 26.8297 92.1152 25.0574V24.5257C92.1152 22.7535 92.4913 21.236 93.2436 19.9733C93.9958 18.7106 95.0246 17.7469 96.33 17.0823C97.6353 16.4177 99.1066 16.0854 100.744 16.0854C102.381 16.0854 103.853 16.4177 105.158 17.0823C106.463 17.7469 107.492 18.7106 108.244 19.9733C108.997 21.236 109.373 22.7535 109.373 24.5257V25.0574C109.373 26.8297 108.997 28.3471 108.244 29.6098C107.492 30.8726 106.463 31.8362 105.158 32.5008C103.853 33.1654 102.381 33.4977 100.744 33.4977ZM100.744 29.776C102.027 29.776 103.089 29.3662 103.93 28.5465C104.771 27.7047 105.191 26.5084 105.191 24.9577V24.6254C105.191 23.0747 104.771 21.8895 103.93 21.0699C103.111 20.2281 102.049 19.8072 100.744 19.8072C99.4606 19.8072 98.3986 20.2281 97.5579 21.0699C96.7171 21.8895 96.2968 23.0747 96.2968 24.6254V24.9577C96.2968 26.5084 96.7171 27.7047 97.5579 28.5465C98.3986 29.3662 99.4606 29.776 100.744 29.776Z" fill="#111111"/>
<path d="M111.904 39.6784V16.5507H116.019V18.5444H116.617C116.993 17.902 117.579 17.3371 118.375 16.8497C119.172 16.3402 120.311 16.0854 121.794 16.0854C123.121 16.0854 124.349 16.4177 125.478 17.0823C126.606 17.7248 127.513 18.6773 128.199 19.9401C128.885 21.2028 129.228 22.7313 129.228 24.5257V25.0574C129.228 26.8518 128.885 28.3804 128.199 29.6431C127.513 30.9058 126.606 31.8695 125.478 32.534C124.349 33.1765 123.121 33.4977 121.794 33.4977C120.798 33.4977 119.957 33.3759 119.272 33.1322C118.608 32.9106 118.066 32.6227 117.645 32.2682C117.247 31.8916 116.926 31.515 116.683 31.1384H116.086V39.6784H111.904ZM120.533 29.8425C121.838 29.8425 122.911 29.4326 123.752 28.613C124.615 27.7712 125.046 26.5527 125.046 24.9577V24.6254C125.046 23.0304 124.615 21.8231 123.752 21.0034C122.889 20.1616 121.816 19.7407 120.533 19.7407C119.249 19.7407 118.176 20.1616 117.314 21.0034C116.451 21.8231 116.019 23.0304 116.019 24.6254V24.9577C116.019 26.5527 116.451 27.7712 117.314 28.613C118.176 29.4326 119.249 29.8425 120.533 29.8425Z" fill="#111111"/>
</g>
</g>
<defs>
<clipPath id="clip0_2097_12709">
<rect width="130" height="40" fill="white"/>
</clipPath>
</defs>
</svg>
