<svg width="161" height="31" viewBox="0 0 161 31" fill="none" xmlns="http://www.w3.org/2000/svg">
<g clip-path="url(#clip0_2097_12433)">
<mask id="mask0_2097_12433" style="mask-type:luminance" maskUnits="userSpaceOnUse" x="0" y="0" width="161" height="31">
<path d="M160.906 0H0.560547V30.5742H160.906V0Z" fill="white"/>
</mask>
<g mask="url(#mask0_2097_12433)">
<path d="M40.6973 26.4407V2.99023H50.0249C52.437 2.99023 54.2958 3.66805 55.6015 5.02369C56.7079 6.18254 57.2612 7.69124 57.2612 9.54978C57.2612 11.7363 56.6194 13.3981 55.3359 14.5351C54.0745 15.6721 52.2046 16.2405 49.7261 16.2405H42.9213V26.4407H40.6973ZM42.9213 14.3711H49.5601C53.1894 14.3711 55.004 12.7858 55.004 9.61538C55.004 8.10668 54.5503 6.94782 53.643 6.13881C52.7578 5.3298 51.4633 4.9253 49.7593 4.9253H42.9213V14.3711Z" fill="#111111"/>
<path d="M65.9744 25.1607C67.8111 25.1607 69.2385 24.4829 70.2564 23.1273C71.2744 21.7716 71.7834 20.0552 71.7834 17.978C71.7834 15.9008 71.2744 14.1844 70.2564 12.8288C69.2385 11.4731 67.8111 10.7953 65.9744 10.7953C64.1155 10.7953 62.6771 11.4731 61.6592 12.8288C60.6412 14.1844 60.1322 15.9008 60.1322 17.978C60.1322 20.0552 60.6412 21.7716 61.6592 23.1273C62.6771 24.4829 64.1155 25.1607 65.9744 25.1607ZM65.9744 26.8662C63.5402 26.8662 61.6038 26.0354 60.1654 24.3736C58.727 22.69 58.0078 20.5581 58.0078 17.978C58.0078 15.3979 58.727 13.277 60.1654 11.6153C61.6038 9.93165 63.5402 9.08984 65.9744 9.08984C68.3865 9.08984 70.3007 9.93165 71.717 11.6153C73.1554 13.277 73.8746 15.3979 73.8746 17.978C73.8746 20.5581 73.1554 22.69 71.717 24.3736C70.3007 26.0354 68.3865 26.8662 65.9744 26.8662Z" fill="#111111"/>
<path d="M76.541 26.4407V9.48419H78.599V26.4407H76.541ZM76.541 5.87643V2.99023H78.599V5.87643H76.541Z" fill="#111111"/>
<path d="M82.082 26.4403V9.48383H84.14V12.0748H84.2064C85.5563 10.107 87.4705 9.12305 89.949 9.12305C91.5866 9.12305 92.9033 9.59315 93.8991 10.5333C94.9171 11.4517 95.4261 12.7417 95.4261 14.4035V26.4403H93.368V14.6003C93.368 12.1076 92.0624 10.8613 89.4511 10.8613C87.9684 10.8613 86.7071 11.3205 85.667 12.2388C84.649 13.1572 84.14 14.3051 84.14 15.6826V26.4403H82.082Z" fill="#111111"/>
<path d="M103.133 26.571C100.942 26.571 99.8469 25.5543 99.8469 23.5209V11.1561H97.2578V9.48341H99.8469V4.26855H101.905V9.48341H105.091V11.1561H101.905V23.1929C101.905 23.7832 102.037 24.1987 102.303 24.4392C102.568 24.6797 102.989 24.8 103.564 24.8C104.073 24.8 104.527 24.7125 104.925 24.5376H105.025V26.2759C104.472 26.4727 103.841 26.571 103.133 26.571Z" fill="#111111"/>
<path d="M108.188 26.4407V2.99023H123.656V4.9253H110.412V13.256H121.698V15.1582H110.412V26.4407H108.188Z" fill="#111111"/>
<path d="M126.301 26.4407V9.48419H128.359V26.4407H126.301ZM126.301 5.87643V2.99023H128.359V5.87643H126.301Z" fill="#111111"/>
<path d="M136.389 26.4399L130.314 9.4834H132.505L136.19 20.2411L137.584 24.5376H137.65C138.226 22.7665 138.701 21.3343 139.078 20.2411L142.928 9.4834H145.019L138.812 26.4399H136.389Z" fill="#111111"/>
<path d="M153.598 26.8662C151.097 26.8662 149.139 26.0463 147.723 24.4064C146.306 22.7446 145.598 20.6019 145.598 17.978C145.598 15.3979 146.317 13.277 147.756 11.6153C149.194 9.93165 151.086 9.08984 153.432 9.08984C154.76 9.08984 155.91 9.34129 156.884 9.84419C157.88 10.3471 158.654 11.0468 159.208 11.9432C159.761 12.8397 160.159 13.8236 160.403 14.895C160.668 15.9446 160.801 17.0925 160.801 18.3388H147.723C147.767 20.3504 148.287 21.9903 149.283 23.2585C150.278 24.5048 151.717 25.1279 153.598 25.1279C156.209 25.1279 157.88 23.8598 158.61 21.3234H160.602C160.226 23.0289 159.429 24.3845 158.212 25.3903C157.017 26.3743 155.479 26.8662 153.598 26.8662ZM147.756 16.7317H158.643C158.599 14.9606 158.134 13.5285 157.249 12.4352C156.386 11.3201 155.114 10.7625 153.432 10.7625C151.772 10.7625 150.456 11.3091 149.482 12.4024C148.53 13.4957 147.955 14.9388 147.756 16.7317Z" fill="#111111"/>
<mask id="mask1_2097_12433" style="mask-type:luminance" maskUnits="userSpaceOnUse" x="0" y="0" width="32" height="31">
<path d="M31.5042 0H0.560547V30.5742H31.5042V0Z" fill="white"/>
</mask>
<g mask="url(#mask1_2097_12433)">
<path fill-rule="evenodd" clip-rule="evenodd" d="M31.5043 3.55055C31.5043 1.58964 29.8954 0 27.9108 0H4.26875C2.28414 0 0.675289 1.58964 0.675289 3.55055C0.675289 5.51147 2.28414 7.1011 4.26875 7.1011H27.9108C29.8954 7.1011 31.5043 5.51147 31.5043 3.55055ZM31.5043 21.1756C31.5043 15.985 27.2455 11.7771 21.9921 11.7771H4.26875C2.28414 11.7771 0.675289 13.3667 0.675289 15.3276C0.675289 17.2885 2.28414 18.8782 4.26875 18.8782H21.9921C23.2763 18.8782 24.3173 19.9068 24.3173 21.1756C24.3173 22.4445 23.2763 23.4731 21.9921 23.4731H15.5153C13.5307 23.4731 11.9219 25.0627 11.9219 27.0236C11.9219 28.9846 13.5307 30.5742 15.5153 30.5742H21.9921C27.2455 30.5742 31.5043 26.3663 31.5043 21.1756ZM7.94336 27.0236C7.94336 25.0627 6.33451 23.4731 4.3499 23.4731H4.15401C2.16939 23.4731 0.560547 25.0627 0.560547 27.0236C0.560547 28.9846 2.16939 30.5742 4.15401 30.5742H4.3499C6.33451 30.5742 7.94336 28.9846 7.94336 27.0236Z" fill="#111111"/>
</g>
</g>
</g>
<defs>
<clipPath id="clip0_2097_12433">
<rect width="161" height="31" fill="white"/>
</clipPath>
</defs>
</svg>
