<svg width="106" height="37" viewBox="0 0 106 37" fill="none" xmlns="http://www.w3.org/2000/svg">
<g clip-path="url(#clip0_2400_1357)">
<path d="M44.4209 12.5372V30.0161H47.2963V20.1441C47.2963 19.3552 47.3978 18.634 47.6007 17.9803C47.8263 17.3042 48.1533 16.7182 48.5817 16.2223C49.0102 15.7265 49.5402 15.3433 50.1717 15.0728C50.8257 14.8024 51.5924 14.6671 52.472 14.6671C53.577 14.6671 54.4453 14.9827 55.0767 15.6138C55.7082 16.2448 56.0239 17.1013 56.0239 18.1832V30.0161H58.8993V18.5213C58.8993 17.5746 58.7978 16.7182 58.5949 15.9518C58.4144 15.163 58.0874 14.4868 57.6138 13.9233C57.1402 13.3599 56.5201 12.9204 55.7533 12.6048C54.9865 12.2893 54.0281 12.1315 52.8779 12.1315C50.2844 12.1315 48.3901 13.1908 47.1948 15.3095H47.1271V12.5372H44.4209Z" fill="white"/>
<path d="M64.9093 9.39302V5.87695H62.034V9.39302H64.9093ZM62.034 12.5372V30.0161H64.9093V12.5372H62.034Z" fill="white"/>
<path d="M68.1798 5.87695V30.0161H71.0552V5.87695H68.1798Z" fill="white"/>
<path d="M88.635 30.0161V12.5372H85.7596V22.4092C85.7596 23.1981 85.6468 23.9306 85.4213 24.6068C85.2183 25.2604 84.9026 25.8351 84.4741 26.331C84.0456 26.8269 83.5044 27.21 82.8504 27.4805C82.2189 27.7509 81.4634 27.8862 80.5839 27.8862C79.4788 27.8862 78.6106 27.5706 77.9791 26.9396C77.3477 26.3085 77.0319 25.452 77.0319 24.3701V12.5372H74.1566V24.032C74.1566 24.9787 74.2468 25.8464 74.4272 26.6353C74.6302 27.4016 74.9684 28.0665 75.442 28.63C75.9156 29.1934 76.5358 29.6329 77.3026 29.9485C78.0693 30.2415 79.0278 30.388 80.1779 30.388C81.4634 30.388 82.5797 30.1401 83.5269 29.6442C84.4741 29.1258 85.2522 28.3257 85.8611 27.2438H85.9287V30.0161H88.635Z" fill="white"/>
<path d="M93.3595 24.5054H90.4842C90.5293 25.5872 90.7548 26.5113 91.1607 27.2776C91.5666 28.0214 92.1079 28.63 92.7845 29.1033C93.461 29.5541 94.2391 29.8809 95.1186 30.0837C95.9981 30.2866 96.9228 30.388 97.8925 30.388C98.772 30.388 99.6516 30.2978 100.531 30.1175C101.433 29.9598 102.234 29.6668 102.933 29.2385C103.655 28.8103 104.23 28.2468 104.658 27.5481C105.109 26.8494 105.335 25.9704 105.335 24.9111C105.335 24.0771 105.166 23.3784 104.827 22.8149C104.512 22.2515 104.083 21.7894 103.542 21.4288C103.023 21.0456 102.414 20.7414 101.715 20.516C101.038 20.2906 100.339 20.099 99.6177 19.9412C98.9412 19.7835 98.2646 19.6369 97.588 19.5017C96.9115 19.3439 96.3026 19.1636 95.7613 18.9608C95.2201 18.7354 94.769 18.4649 94.4082 18.1494C94.0699 17.8113 93.9008 17.3943 93.9008 16.8985C93.9008 16.4477 94.0135 16.0871 94.2391 15.8166C94.4646 15.5236 94.7578 15.2982 95.1186 15.1404C95.4794 14.9601 95.8741 14.8362 96.3026 14.7685C96.7536 14.7009 97.1934 14.6671 97.6219 14.6671C98.0955 14.6671 98.5578 14.7235 99.0088 14.8362C99.4824 14.9263 99.9109 15.0841 100.294 15.3095C100.678 15.5349 100.993 15.8391 101.241 16.2223C101.49 16.5829 101.636 17.045 101.681 17.6084H104.557C104.489 16.5491 104.263 15.6701 103.88 14.9714C103.497 14.2502 102.978 13.6867 102.324 13.281C101.693 12.8527 100.96 12.5597 100.125 12.402C99.2907 12.2217 98.3774 12.1315 97.3851 12.1315C96.6183 12.1315 95.8403 12.2329 95.0509 12.4358C94.2842 12.6161 93.585 12.9091 92.9536 13.3148C92.3447 13.698 91.8373 14.2051 91.4313 14.8362C91.0479 15.4673 90.8563 16.2223 90.8563 17.1013C90.8563 18.2283 91.1382 19.1073 91.702 19.7384C92.2658 20.3695 92.9649 20.8653 93.7993 21.2259C94.6563 21.564 95.5809 21.8345 96.5732 22.0373C97.5655 22.2177 98.4789 22.4318 99.3133 22.6797C100.17 22.9051 100.881 23.2094 101.444 23.5925C102.008 23.9757 102.29 24.5392 102.29 25.2829C102.29 25.8239 102.155 26.2747 101.884 26.6353C101.614 26.9734 101.264 27.2326 100.836 27.4129C100.43 27.5932 99.9786 27.7171 99.4824 27.7848C98.9863 27.8524 98.5127 27.8862 98.0616 27.8862C97.4753 27.8862 96.9002 27.8298 96.3364 27.7171C95.7952 27.6044 95.299 27.4241 94.848 27.1762C94.4195 26.9057 94.0699 26.5564 93.7993 26.1281C93.5287 25.6774 93.3821 25.1364 93.3595 24.5054Z" fill="white"/>
<path fill-rule="evenodd" clip-rule="evenodd" d="M20.8919 24.7032C20.8919 27.3952 23.0505 29.5775 25.7132 29.5775V32.466C21.4726 32.466 18.0349 28.9905 18.0349 24.7032H20.8919Z" fill="white"/>
<path fill-rule="evenodd" clip-rule="evenodd" d="M15.1779 24.7032C15.1779 27.3952 13.0194 29.5775 10.3567 29.5775V32.466C14.5973 32.466 18.0349 28.9905 18.0349 24.7032L15.1779 24.7032Z" fill="white"/>
<path fill-rule="evenodd" clip-rule="evenodd" d="M20.8919 14.774C20.8919 20.2364 25.3476 24.7032 30.8915 24.7032V27.5917C23.8123 27.5917 18.0349 21.8744 18.0349 14.774H20.8919Z" fill="white"/>
<path fill-rule="evenodd" clip-rule="evenodd" d="M15.1779 14.7738C15.1779 20.2576 10.7809 24.703 5.35691 24.703L5.35691 27.5915C12.3588 27.5915 18.0349 21.853 18.0349 14.774L15.1779 14.7738Z" fill="white"/>
<path fill-rule="evenodd" clip-rule="evenodd" d="M20.8919 3.94214C20.8919 12.417 27.6873 19.2873 36.0699 19.2873V22.1758C26.1094 22.1758 18.0349 14.0123 18.0349 3.94215L20.8919 3.94214Z" fill="white"/>
<path fill-rule="evenodd" clip-rule="evenodd" d="M15.1779 3.94214C15.1779 12.417 8.38253 19.2873 0 19.2873L5.96021e-07 22.1758C9.96042 22.1758 18.0349 14.0123 18.0349 3.94215L15.1779 3.94214Z" fill="white"/>
</g>
<defs>
<clipPath id="clip0_2400_1357">
<rect width="105.311" height="36.0096" fill="white" transform="translate(0 0.0371094)"/>
</clipPath>
</defs>
</svg>
