<svg width="90" height="27" viewBox="0 0 90 27" fill="none" xmlns="http://www.w3.org/2000/svg">
<g clip-path="url(#clip0_2400_1424)">
<path d="M82.3988 13.1136H79.2978C77.2971 13.1136 76.1968 14.6077 76.1968 17.1975V26.461H70.1949V13.1136H67.6941C65.6934 13.1136 64.5931 14.6077 64.5931 17.1975V26.461H58.5911V8.13317H64.5931V10.9222C65.5934 8.73082 66.8938 8.13317 68.8944 8.13317H76.1968V10.9222C77.1971 8.73082 78.4975 8.13317 80.4982 8.13317H82.4988L82.3988 13.1136ZM57.1907 18.6916H44.7867C45.0868 20.7834 46.3872 21.879 48.4879 21.879C50.0884 21.879 51.1887 21.1818 51.5889 20.0861L56.8906 21.5802C55.5901 24.7677 52.3891 26.6602 48.4879 26.6602C41.9858 26.6602 38.9848 21.5802 38.9848 17.1975C38.9848 12.9143 41.5856 7.83435 48.0877 7.83435C54.99 7.83435 57.2907 13.014 57.2907 16.8987C57.2907 17.7951 57.2907 18.2932 57.1907 18.6916ZM51.4888 15.2053C51.3888 13.6116 50.1884 12.2171 48.1878 12.2171C46.2871 12.2171 45.1868 13.014 44.7867 15.2053H51.4888ZM28.5814 26.461H33.7831L40.3852 8.23278H34.3833L31.1823 18.8908L27.9812 8.13317H21.9793L28.5814 26.461ZM4.17356 26.461H10.0755V13.1136H15.7773V26.461H21.6792V8.13317H10.0755V7.03748C10.0755 5.84219 10.9758 5.04533 12.2762 5.04533H15.7773V0.0649414H11.3759C7.0745 0.0649414 4.17356 2.75435 4.17356 6.63905V8.13317H0.772461V13.1136H4.17356V26.461Z" fill="white"/>
<path d="M86.0996 26.9581C88.1003 26.9581 89.8008 25.2648 89.8008 23.2726C89.8008 21.2805 88.1003 19.5872 86.0996 19.5872C84.099 19.5872 82.3984 21.2805 82.3984 23.2726C82.3984 25.2648 84.099 26.9581 86.0996 26.9581Z" fill="white"/>
</g>
<defs>
<clipPath id="clip0_2400_1424">
<rect width="89.0287" height="26.8941" fill="white" transform="translate(0.772461 0.0644531)"/>
</clipPath>
</defs>
</svg>
