<svg width="173" height="29" viewBox="0 0 173 29" fill="none" xmlns="http://www.w3.org/2000/svg">
<g clip-path="url(#clip0_2400_1369)">
<g clip-path="url(#clip1_2400_1369)">
<path d="M1.80113 17.7962C1.14731 17.1577 0.708844 16.4205 0.485718 15.5844C0.267781 14.7433 0.267781 13.9021 0.485718 13.061C0.708844 12.2148 1.14471 11.475 1.79334 10.8416C2.45234 10.1981 3.21252 9.76991 4.0739 9.55709C4.93527 9.34427 5.79664 9.34427 6.65801 9.55709C7.51938 9.76991 8.27697 10.1956 8.93078 10.834L10.5497 12.4149L12.947 10.0739L11.3281 8.493C10.6743 7.85455 10.2358 7.11728 10.0127 6.28121C9.79472 5.44007 9.79215 4.60147 10.0049 3.7654C10.2228 2.92426 10.6613 2.18192 11.3203 1.5384C11.9741 0.899948 12.7317 0.474317 13.5931 0.261499C14.4544 0.0486809 15.3132 0.0512075 16.1694 0.269093C17.0308 0.48191 17.7884 0.907555 18.4422 1.54601C19.096 2.18446 19.5319 2.92426 19.7498 3.7654C19.9729 4.60147 19.9755 5.44007 19.7576 6.28121C19.5448 7.12741 19.1115 7.86975 18.4577 8.5082L16.8465 10.0815L19.2361 12.4149L20.8472 10.8416C21.5011 10.2031 22.2561 9.77497 23.1123 9.55709C23.9736 9.34427 24.8324 9.3468 25.6886 9.56468C26.5499 9.7775 27.3101 10.2057 27.9691 10.8492C28.6229 11.4877 29.0588 12.2275 29.2767 13.0686C29.4999 13.9047 29.4999 14.7407 29.2767 15.5768C29.0588 16.418 28.6229 17.1577 27.9691 17.7962C27.3101 18.4397 26.5499 18.8679 25.6886 19.0807C24.8324 19.2885 23.9736 19.2859 23.1123 19.0731C22.2613 18.8603 21.5088 18.4347 20.855 17.7962L19.2439 16.2229L16.8465 18.5639L18.4577 20.1372C19.1115 20.7756 19.5448 21.5129 19.7576 22.349C19.9755 23.1901 19.9755 24.0313 19.7576 24.8724C19.5396 25.7135 19.1012 26.4559 18.4422 27.0994C17.7936 27.7328 17.0359 28.1584 16.1694 28.3763C15.308 28.5891 14.4467 28.5891 13.5853 28.3763C12.7343 28.1635 11.9819 27.7378 11.3281 27.0994C10.6691 26.4559 10.228 25.7161 10.0049 24.88C9.78696 24.0389 9.78696 23.1977 10.0049 22.3566C10.2332 21.5154 10.6717 20.7782 11.3203 20.1448L12.947 18.5563L10.5575 16.2229L8.93078 17.8114C8.28216 18.4448 7.52197 18.8679 6.65022 19.0807C5.78885 19.2935 4.92749 19.2935 4.06612 19.0807C3.20994 18.8628 2.45494 18.4347 1.80113 17.7962ZM3.74698 15.896C4.04276 16.1849 4.38523 16.3774 4.7744 16.4737C5.16877 16.575 5.56054 16.5776 5.94971 16.4813C6.33889 16.385 6.68136 16.1925 6.97713 15.9036L8.60387 14.3151L6.98491 12.7342C6.68914 12.4453 6.34407 12.2553 5.94971 12.1641C5.56054 12.0678 5.17137 12.0678 4.78219 12.1641C4.39302 12.2604 4.04795 12.4555 3.74698 12.7494C3.45121 13.0382 3.25145 13.3701 3.14767 13.7451C3.04907 14.1251 3.04908 14.5051 3.14767 14.8852C3.25145 15.2703 3.45121 15.6072 3.74698 15.896ZM13.274 6.59283L14.8929 8.17377L16.5041 6.60044C16.805 6.30655 17.0022 5.97212 17.0956 5.59715C17.1942 5.21712 17.1916 4.83455 17.0879 4.44945C16.9893 4.06942 16.7921 3.73499 16.4963 3.44616C16.2005 3.15734 15.8581 2.96479 15.4689 2.86852C15.0797 2.77224 14.6905 2.77224 14.3014 2.86852C13.9174 2.95972 13.5749 3.15227 13.274 3.44616C12.9782 3.73499 12.7758 4.06942 12.6668 4.44945C12.5683 4.82948 12.5683 5.20951 12.6668 5.58955C12.7758 5.96958 12.9782 6.30401 13.274 6.59283ZM20.7339 14.3227L22.3451 15.896C22.6408 16.1849 22.9807 16.3799 23.3647 16.4813C23.7539 16.5776 24.5963 16.575 24.9803 16.4737C25.3695 16.3774 25.7145 16.1823 26.0155 15.8884C26.3164 15.5945 26.5136 15.2601 26.607 14.8852C26.7108 14.5102 26.7134 14.1327 26.6148 13.7526C26.5162 13.3726 26.319 13.0382 26.0233 12.7494C25.7223 12.4555 25.3772 12.2604 24.9881 12.1641C24.5989 12.0678 23.7539 12.0678 23.3647 12.1641C22.9859 12.2604 22.646 12.4555 22.3451 12.7494L20.7339 14.3227ZM13.274 25.1992C13.5697 25.4881 13.9122 25.6806 14.3014 25.7769C14.6905 25.8732 15.0771 25.8706 15.4611 25.7693C15.8503 25.673 16.1927 25.4804 16.4885 25.1916C16.7895 24.8977 16.9893 24.5608 17.0879 24.1807C17.1916 23.8058 17.1942 23.4283 17.0956 23.0482C17.0022 22.6631 16.8076 22.3262 16.5119 22.0374L14.9007 20.464L13.274 22.0526C12.9782 22.3414 12.7784 22.6733 12.6746 23.0482C12.576 23.4283 12.576 23.8083 12.6746 24.1883C12.7732 24.5684 12.973 24.9053 13.274 25.1992ZM12.5034 14.3227L14.8929 16.6561L17.2902 14.3151L14.9007 11.9817L12.5034 14.3227Z" fill="white"/>
</g>
<path d="M47.4909 10.9098C46.8263 8.96335 45.0818 7.15207 42.3682 7.15207C38.7409 7.15207 36.1104 10.315 36.1104 14.7486C36.1104 19.1822 38.7132 22.3722 42.3682 22.3722C44.6388 22.3722 46.6325 20.9394 47.4909 18.9389V22.0478H50.9244V1.50195H47.4909V10.9098ZM43.6143 19.9932C41.0391 19.9932 39.627 17.9657 39.627 14.7486C39.627 11.5586 41.0391 9.53106 43.6143 9.53106C46.1894 9.53106 47.6016 11.5586 47.6016 14.7486C47.6016 17.9657 46.1894 19.9932 43.6143 19.9932Z" fill="white"/>
<path d="M59.6594 19.9932L55.1183 7.47647H51.6294L56.4197 20.4798H59.4933L57.3058 27.3465H60.8778L67.2741 7.47647H63.6468L59.6594 19.9932Z" fill="white"/>
<path d="M85.4685 7.15207C82.8102 7.15207 81.3704 8.96335 80.7612 10.7476C80.2074 8.88224 78.7122 7.15207 76.137 7.15207C73.6172 7.15207 72.2604 8.72004 71.5959 10.4773V7.47647H68.1623V22.0478H71.6236V13.5862C71.6236 10.8017 72.6204 9.5581 74.5864 9.5581C76.5247 9.5581 77.5215 10.8017 77.5215 13.5321V22.0478H80.9827V13.5862C80.9827 10.8017 81.9796 9.5581 83.9455 9.5581C85.8838 9.5581 86.8806 10.8017 86.8806 13.5321V22.0478H90.3419V12.8833C90.3419 9.55809 88.7912 7.15207 85.4685 7.15207Z" fill="white"/>
<path d="M106.526 14.6675C106.526 10.1258 103.646 7.15207 99.2435 7.15207C94.7577 7.15207 91.9057 10.288 91.9057 14.7486C91.9057 19.1822 94.6747 22.3722 99.2435 22.3722C102.732 22.3722 105.252 20.8583 106.194 17.7494H102.677C102.151 19.1552 101.182 19.9932 99.2712 19.9932C97.1667 19.9932 95.6992 18.5604 95.4223 15.7489H106.443C106.498 15.3704 106.526 14.9919 106.526 14.6675ZM99.2435 9.53106C101.376 9.53106 102.815 11.072 102.982 13.3969H95.45C95.81 10.7746 97.2221 9.53106 99.2435 9.53106Z" fill="white"/>
<path d="M116.367 7.15207C113.792 7.15207 112.325 8.66597 111.632 10.4502V7.47647H108.199V22.0478H111.66V13.5862C111.66 10.8017 112.879 9.5581 114.817 9.5581C116.783 9.5581 117.973 10.7746 117.973 13.5321V22.0478H121.435V12.8833C121.435 9.6392 119.801 7.15207 116.367 7.15207Z" fill="white"/>
<path d="M129.444 22.3722C133.265 22.3722 136.061 20.6961 136.061 17.8035C136.061 15.4785 134.705 14.1268 131.576 13.478L129.222 12.9914C127.422 12.6129 126.508 12.2615 126.508 11.2612C126.508 10.1528 127.865 9.53106 129.36 9.53106C130.69 9.53106 131.908 10.1258 132.296 11.2072H135.784C135.148 8.50377 132.489 7.15207 129.333 7.15207C125.927 7.15207 123.158 8.85521 123.158 11.5316C123.158 13.7484 124.819 14.9649 127.533 15.5326L129.887 16.0463C132.046 16.4788 132.739 17.0195 132.739 18.1279C132.739 19.2633 131.631 19.9932 129.527 19.9932C128.114 19.9932 126.675 19.4796 126.315 17.7224H122.826C123.269 20.8043 125.955 22.3722 129.444 22.3722Z" fill="white"/>
<path d="M141.234 5.23265V1.50195H137.607V5.23265H141.234ZM141.151 22.0478V7.47647H137.69V22.0478H141.151Z" fill="white"/>
<path d="M150.36 22.3722C154.984 22.3722 157.892 19.2633 157.892 14.7486C157.892 10.261 154.984 7.15207 150.36 7.15207C145.763 7.15207 142.856 10.261 142.856 14.7486C142.856 19.2633 145.763 22.3722 150.36 22.3722ZM150.36 19.9932C147.812 19.9932 146.373 17.9657 146.373 14.7486C146.373 11.5586 147.812 9.53106 150.36 9.53106C152.935 9.53106 154.347 11.5586 154.347 14.7486C154.347 17.9657 152.935 19.9932 150.36 19.9932Z" fill="white"/>
<path d="M167.723 7.15207C165.148 7.15207 163.681 8.66597 162.988 10.4502V7.47647H159.555V22.0478H163.016V13.5862C163.016 10.8017 164.234 9.5581 166.173 9.5581C168.139 9.5581 169.329 10.7746 169.329 13.5321V22.0478H172.791V12.8833C172.791 9.6392 171.157 7.15207 167.723 7.15207Z" fill="white"/>
</g>
<defs>
<clipPath id="clip0_2400_1369">
<rect width="172.574" height="28.5359" fill="white" transform="translate(0.21582)"/>
</clipPath>
<clipPath id="clip1_2400_1369">
<rect width="29.2281" height="28.5359" fill="white" transform="translate(0.21582)"/>
</clipPath>
</defs>
</svg>
