<svg width="102" height="31" viewBox="0 0 102 31" fill="none" xmlns="http://www.w3.org/2000/svg">
<path d="M12.0465 13.6939C12.5043 13.0757 12.7328 12.519 12.7328 12.0238C12.7328 11.7521 12.5716 11.5477 12.25 11.4114C11.9285 11.276 11.4831 11.207 10.914 11.207C10.3448 11.207 9.83131 11.3001 9.37348 11.4854C8.91566 11.6707 8.50104 11.949 8.13046 12.3204C7.53637 12.7907 7.05445 13.3541 6.68304 14.0096C6.31163 14.6652 6.0391 15.4263 5.86627 16.2921V16.1068C5.86627 15.2161 5.70508 14.3129 5.38352 13.3973C5.06196 12.4825 4.69055 11.826 4.27012 11.4297C4.22027 11.3807 4.18288 11.3499 4.15878 11.3367C4.13385 11.3242 4.09646 11.3433 4.04744 11.3923C3.75081 11.6649 3.19993 12.0296 2.39562 12.4874C1.59131 12.9453 0.966478 13.261 0.521117 13.4338C0.471264 13.4588 0.447168 13.4895 0.447168 13.5269C0.447168 13.5643 0.471264 13.6075 0.521117 13.6565C1.11521 14.2008 1.54727 14.7018 1.81981 15.1596C2.09151 15.6174 2.22778 16.057 2.22778 16.4774V25.7195C2.22778 26.3875 2.21531 26.9317 2.19039 27.353C2.16546 27.7743 2.12807 28.1324 2.07905 28.429C2.0051 28.9483 1.85637 29.3073 1.63369 29.505C1.41101 29.7036 0.94072 29.8017 0.223657 29.8017C0.0749263 29.8017 0.000976562 29.8573 0.000976562 29.9687C0.000976562 30.08 0.0749263 30.1357 0.223657 30.1357C0.446337 30.1357 0.742967 30.1357 1.11438 30.1357C1.48579 30.1357 2.09151 30.1232 2.93321 30.0983C3.45252 30.0742 3.81147 30.0609 4.00922 30.0609C4.20697 30.0609 4.34324 30.0609 4.41719 30.0609C4.54099 30.0609 4.7753 30.0675 5.12262 30.0792C5.4691 30.0916 6.07483 30.0975 6.94145 30.0975C7.48569 30.1224 7.84463 30.1348 8.01746 30.1348C8.19029 30.1348 8.30163 30.1348 8.35148 30.1348C8.50021 30.1348 8.57416 30.0792 8.57416 29.9678C8.57416 29.8565 8.50021 29.8008 8.35148 29.8008H5.90366V19.0756C5.90366 17.9132 5.94687 17.0466 6.03328 16.4774C6.11969 15.9082 6.27424 15.4878 6.49692 15.2153C6.69467 14.9926 6.97302 14.838 7.33197 14.7516C7.69009 14.6652 8.22851 14.622 8.9464 14.622H10.5426C11.0868 14.622 11.5878 14.3129 12.0465 13.6939Z" fill="white"/>
<path d="M50.0205 29.8036C48.9811 29.8036 48.3563 29.5992 48.146 29.1912C47.9358 28.7833 47.8303 27.6267 47.8303 25.7206V0.222057C47.8303 0.148107 47.7746 0.0866209 47.6633 0.0367671C47.5519 -0.0122557 47.4589 -0.0122557 47.3849 0.0367671C47.1623 0.383251 46.908 0.686528 46.6238 0.945767C46.3388 1.20584 46.0115 1.4227 45.6401 1.59553C45.3185 1.52158 44.9845 1.46009 44.638 1.41024C44.2915 1.36122 43.945 1.33629 43.5985 1.33629C42.5591 1.33629 41.4332 1.64621 40.2209 2.2644C39.0087 2.88342 37.8695 3.73675 36.806 4.82522C35.8413 5.78989 35.0245 6.86091 34.3565 8.0358C33.6884 9.21152 33.2306 10.3931 32.983 11.5804H31.6095L30.4588 13.5471C30.4588 13.646 30.4961 13.7141 30.5701 13.7515C30.644 13.7889 30.7678 13.8072 30.9415 13.8072H32.7603C32.7603 14.0548 32.7603 14.6796 32.7603 15.6817C32.7603 16.4893 32.7686 17.8553 32.7844 19.7789C32.7097 19.7813 32.6407 19.8694 32.575 20.0422C31.6104 22.5914 30.379 24.4958 28.8817 25.758C27.3844 27.0201 25.5972 27.6508 23.5183 27.6508C21.0189 27.6508 18.9533 26.8963 17.3198 25.3866C15.6863 23.8777 14.8703 21.96 14.8703 19.6334C14.8703 19.213 14.8886 18.8109 14.926 18.427C14.9634 18.0439 15.019 17.6792 15.093 17.3319H26.7106C27.4526 17.3319 27.991 17.2388 28.325 17.0535C28.659 16.8682 28.8501 16.5284 28.9 16.0332C28.9989 14.6971 28.4605 13.5588 27.2856 12.6182C26.1098 11.6784 24.458 11.2082 22.3301 11.2082C19.5582 11.2082 17.0838 12.2601 14.9069 14.3631C12.7291 16.4669 11.6406 18.879 11.6406 21.601C11.6406 24.2491 12.494 26.3953 14.2014 28.0404C15.9089 29.6865 18.1598 30.509 20.9566 30.509C21.9712 30.509 22.9425 30.3661 23.8706 30.082C24.7987 29.7978 25.7326 29.3458 26.6732 28.7276C27.9594 27.8618 29.1418 26.6736 30.2178 25.1647C31.2697 23.6907 32.1255 22.0497 32.7878 20.2442C32.7902 20.5707 32.7936 20.9122 32.7969 21.2678C32.7969 23.149 32.7969 24.392 32.7969 24.9977C32.7969 25.6043 32.7969 25.9566 32.7969 26.0554C32.7969 27.8618 32.6789 28.9386 32.4446 29.2843C32.2095 29.6308 31.6095 29.8036 30.644 29.8036C30.4953 29.8036 30.4214 29.8593 30.4214 29.9706C30.4214 30.082 30.4953 30.1376 30.644 30.1376C30.8667 30.1376 31.1575 30.1376 31.5165 30.1376C31.8746 30.1376 32.4629 30.1252 33.2796 30.1002C33.799 30.0761 34.1521 30.0628 34.3374 30.0628C34.5227 30.0628 34.6531 30.0628 34.7271 30.0628C34.801 30.0628 34.9373 30.0628 35.135 30.0628C35.3328 30.0628 35.6917 30.0753 36.2111 30.1002C37.0278 30.1252 37.6211 30.1376 37.9925 30.1376C38.3639 30.1376 38.6605 30.1376 38.8832 30.1376C39.0319 30.1376 39.1059 30.082 39.1059 29.9706C39.1059 29.8593 39.0319 29.8036 38.8832 29.8036C38.0166 29.8036 37.4541 29.7355 37.1948 29.5992C36.9348 29.4638 36.7553 29.1971 36.6564 28.8015C36.5825 28.5789 36.5326 28.2631 36.5077 27.8552C36.4827 27.4472 36.4703 26.8473 36.4703 26.0546C36.4703 23.4323 36.4636 21.1058 36.452 19.0767C36.4395 17.0477 36.4337 15.2912 36.4337 13.8064H39.4773C39.7241 13.5097 40.034 13.0893 40.4054 12.5442C40.7768 12 40.9621 11.6909 40.9621 11.6161C40.9621 11.592 40.9247 11.5787 40.8508 11.5787C40.7768 11.5787 40.5167 11.5787 40.0714 11.5787H36.4337V10.8733C36.4337 8.34905 36.7179 6.46292 37.2871 5.21325C37.8562 3.96441 38.7345 3.33875 39.9227 3.33875C40.7394 3.33875 41.5122 3.49329 42.2425 3.80239C42.972 4.11231 43.6093 4.55102 44.1544 5.12019V25.7198C44.1544 27.6499 44.0613 28.8132 43.8761 29.2087C43.6908 29.605 43.2263 29.8028 42.4843 29.8028C42.3356 29.8028 42.2616 29.8584 42.2616 29.9698C42.2616 30.0811 42.3356 30.1368 42.4843 30.1368C42.707 30.1368 42.9978 30.1368 43.3567 30.1368C43.7149 30.1368 44.2907 30.1243 45.0825 30.0994C45.5769 30.0753 45.9176 30.062 46.1029 30.062C46.2882 30.062 46.4186 30.062 46.4926 30.062C46.5665 30.062 46.6837 30.062 46.8449 30.062C47.0052 30.062 47.296 30.0745 47.7173 30.0994C48.3853 30.1243 48.8797 30.1368 49.2021 30.1368C49.5237 30.1368 49.7962 30.1368 50.0189 30.1368C50.1676 30.1368 50.2416 30.0811 50.2416 29.9698C50.2432 29.8593 50.1684 29.8036 50.0205 29.8036ZM17.2475 13.268C18.287 12.3648 19.5732 11.9136 21.1079 11.9136C22.2453 11.9136 23.1676 12.2351 23.8731 12.8783C24.5785 13.5222 24.9308 14.2891 24.9308 15.1798C24.9308 15.4765 24.8934 15.7432 24.8195 15.9775C24.7455 16.2126 24.6458 16.3921 24.5228 16.5159C24.424 16.5899 24.2196 16.6647 23.9105 16.7386C23.6005 16.8126 23.3106 16.8624 23.038 16.8873C22.7414 16.8873 22.419 16.894 22.0734 16.9056C21.7269 16.9181 21.1826 16.9372 20.4406 16.9613C19.1785 16.9862 18.164 17.0111 17.3971 17.0352C16.6302 17.0602 15.8757 17.0726 15.1329 17.0726C15.5026 15.4399 16.2081 14.172 17.2475 13.268Z" fill="white"/>
<path d="M89.6251 22.9005C89.5753 22.8764 89.5321 22.8764 89.4955 22.9005C89.4581 22.9254 89.4274 22.9745 89.4025 23.0493C88.5358 24.6329 87.503 25.8087 86.3032 26.5756C85.1026 27.3425 83.6867 27.7264 82.0532 27.7264C79.6037 27.7264 77.6112 26.9536 76.0774 25.4065C74.5427 23.8602 73.7758 21.8744 73.7758 19.449C73.7758 17.1723 74.3009 15.3477 75.3528 13.9742C76.4039 12.6007 77.784 11.9144 79.4915 11.9144C80.1837 11.9144 80.7902 12.0814 81.3104 12.4154C81.8297 12.7495 82.4113 13.4358 83.0553 14.4752C83.5746 15.292 84.0075 15.8238 84.3539 16.0714C84.7004 16.319 85.0835 16.4428 85.5047 16.4428C86.1479 16.4428 86.6796 16.245 87.1009 15.8487C87.5213 15.4532 87.7315 14.9829 87.7315 14.4378C87.7315 13.5471 87.1192 12.786 85.8944 12.1554C84.6697 11.5247 83.1417 11.209 81.3104 11.209C78.3906 11.209 75.8481 12.2543 73.6828 14.3456C71.5174 16.437 70.4348 18.8433 70.4348 21.5644C70.4348 21.9159 70.4497 22.2574 70.4796 22.5914C69.6679 24.3172 68.6575 25.5959 67.4469 26.4268C66.2221 27.2685 64.793 27.6765 63.1603 27.6516C60.7349 27.6516 58.7183 26.8905 57.1105 25.3691C55.5027 23.8469 54.6984 21.9359 54.6984 19.6343C54.6984 19.2138 54.7167 18.8117 54.7541 18.4278C54.7915 18.0448 54.8472 17.68 54.9211 17.3327H66.5387C67.2807 17.3327 67.8191 17.2396 68.1531 17.0543C68.4872 16.869 68.6783 16.5292 68.7281 16.034C68.827 14.6979 68.2886 13.5596 67.1137 12.619C65.938 11.6793 64.2861 11.209 62.1582 11.209C59.3864 11.209 56.9119 12.2609 54.735 14.3639C52.5572 16.4677 51.4688 18.8798 51.4688 21.6018C51.4688 24.225 52.2972 26.3654 53.9556 28.023C55.6133 29.6815 57.7536 30.5099 60.3768 30.5099C62.4798 30.5099 64.4781 29.7862 66.3709 28.3387C68.1299 26.9935 69.52 25.2586 70.5411 23.1332C70.8137 25.0758 71.613 26.706 72.9399 28.023C74.61 29.6815 76.7812 30.5099 79.4542 30.5099C81.4583 30.5099 83.3702 29.8485 85.189 28.524C87.0078 27.2004 88.4985 25.4123 89.6617 23.1606C89.6858 23.1116 89.6991 23.0617 89.6991 23.0119C89.6991 22.9628 89.6742 22.9254 89.6251 22.9005ZM57.074 13.2688C58.1134 12.3656 59.3997 11.9144 60.9343 11.9144C62.0718 11.9144 62.9941 12.236 63.6995 12.8791C64.405 13.523 64.7573 14.2899 64.7573 15.1807C64.7573 15.4773 64.7199 15.744 64.6459 15.9783C64.572 16.2135 64.4723 16.3929 64.3493 16.5167C64.2504 16.5907 64.046 16.6655 63.7369 16.7394C63.427 16.8134 63.137 16.8632 62.8645 16.8882C62.5679 16.8882 62.2455 16.8948 61.8998 16.9064C61.5533 16.9189 61.0091 16.938 60.2671 16.9621C59.005 16.987 57.9904 17.012 57.2235 17.0361C56.4566 17.061 55.7022 17.0734 54.9593 17.0734C55.3299 15.4407 56.0345 14.1728 57.074 13.2688Z" fill="white"/>
<path d="M101.269 24.9405C101.121 24.8665 101.009 24.9031 100.935 25.0518C100.465 26.2151 99.9267 27.0933 99.321 27.6874C98.7145 28.2815 98.0647 28.5781 97.3726 28.5781C96.5807 28.5781 95.9808 28.2317 95.572 27.5387C95.164 26.8466 94.9596 25.8312 94.9596 24.4951V13.8057H99.5994C99.9458 13.509 100.291 13.1002 100.639 12.5809C100.985 12.0616 101.158 11.74 101.158 11.6162C101.158 11.5921 101.065 11.573 100.88 11.5606C100.694 11.5481 100.428 11.5548 100.082 11.5788H95.0344V7.94119C95.0344 7.84231 95.0161 7.78664 94.9787 7.77418C94.9414 7.76171 94.8857 7.79246 94.8117 7.86724L88.8733 13.583C88.8492 13.6079 88.8359 13.6511 88.8359 13.7126C88.8359 13.7749 88.8484 13.8057 88.8733 13.8057H91.3228V25.1632C91.3228 27.0443 91.607 28.4053 92.1761 29.2462C92.7453 30.0879 93.661 30.5083 94.9231 30.5083C96.0606 30.5083 97.1931 30.0505 98.319 29.1348C99.4448 28.22 100.465 26.933 101.381 25.2745C101.455 25.1266 101.417 25.0153 101.269 24.9405Z" fill="white"/>
</svg>
