<svg width="96" height="36" viewBox="0 0 96 36" fill="none" xmlns="http://www.w3.org/2000/svg">
<g clip-path="url(#clip0_2097_12267)">
<path d="M64.9388 29.2708C64.1572 29.2708 63.4764 29.6232 63.1233 30.2273L63.0981 26.4014H61.7617L61.8374 35.4125H63.1738L63.1486 32.4675C63.1486 31.1838 63.8042 30.479 64.6867 30.479C65.4684 30.479 65.9475 31.058 65.9475 31.9893L65.9727 35.3873H67.3091L67.2839 31.7627C67.2334 30.2525 66.3257 29.2708 64.9388 29.2708Z" fill="#111111"/>
<path d="M71.3185 29.2207C69.4526 29.2458 68.2422 30.5799 68.2422 32.367C68.2675 34.1793 69.5534 35.4882 71.3437 35.463C72.8819 35.463 73.9409 34.5569 74.2687 33.4242H72.8819C72.6045 34.0031 72.0245 34.28 71.3689 34.28C70.3099 34.28 69.6039 33.5752 69.5282 32.6691L74.3191 32.6187C74.4704 30.6051 73.1592 29.2207 71.3185 29.2207ZM69.6039 31.7629C69.7804 30.8316 70.4612 30.3533 71.2933 30.3533C72.0245 30.3533 72.7054 30.7812 72.9323 31.7377L69.6039 31.7629Z" fill="#111111"/>
<path d="M79.8165 29.271V30.0765C79.4635 29.5983 78.7575 29.1704 77.8749 29.1704C76.2359 29.1955 74.9752 30.6051 75.0004 32.3167C75.0256 34.0283 76.2864 35.4379 77.9253 35.4127C78.7827 35.4127 79.5139 34.9596 79.8417 34.4814V35.2869H81.1781L81.1277 29.271H79.8165ZM78.1775 34.2297C77.1185 34.2297 76.3872 33.399 76.362 32.3167C76.362 31.2344 77.068 30.3786 78.1271 30.3786C79.1861 30.3786 79.9174 31.2092 79.9426 32.2915C79.9678 33.3739 79.2618 34.2045 78.1775 34.2297Z" fill="#111111"/>
<path d="M83.9165 26.2461L82.5801 26.257L82.6542 35.2682L83.9906 35.2572L83.9165 26.2461Z" fill="#111111"/>
<path d="M88.2639 34.0784C87.583 34.0784 87.2552 33.8015 87.2552 33.0715L87.23 30.4034L88.9447 30.3782V29.1952L87.23 29.2204L87.2048 27.5591H85.8684L85.8936 29.2204H84.6328V30.4034H85.8936L85.9188 33.2981C85.9188 34.6573 86.8266 35.2866 87.9865 35.2866C88.3899 35.2866 88.7177 35.2362 88.9699 35.1355V33.9525C88.7934 34.028 88.516 34.0784 88.2639 34.0784Z" fill="#111111"/>
<path d="M95.374 31.5362C95.374 30.0008 94.441 29.0443 93.0542 29.0443C92.2725 29.0443 91.5917 29.3967 91.2387 30.0008L91.2134 26.1748H89.877L89.9527 35.186H91.2891L91.2387 32.241C91.2387 30.9573 91.8943 30.2525 92.7768 30.2525C93.5585 30.2525 94.0376 30.8314 94.0376 31.7627L94.0628 35.1608H95.3992L95.374 31.5362Z" fill="#111111"/>
<path d="M7.35078 26.9654L13.5285 12.895H16.8447H17.3238C17.5507 12.895 17.8785 12.8446 18.0803 12.6181C18.3072 12.3412 18.1307 12.014 18.0298 11.863C17.9542 11.712 17.4751 10.8989 17.3238 10.5716C17.0212 9.94236 17.0716 9.82414 16.643 9.82414H16.29H14.8649C16.2518 6.62745 16.7828 4.82891 18.0435 3.84725C19.3043 2.86559 20.9845 3.6745 21.6886 3.40782C22.3926 3.14113 23.2439 1.5177 22.9402 1.03489C22.4588 0.269466 21.3365 0.22265 20.2373 0.222656C19.3613 0.222661 18.5983 0.323339 18.0183 0.549876C16.7071 1.05329 16.017 1.58249 15.0429 2.84042C14.0604 4.1092 13.9824 4.33691 12.9486 6.37575C12.3182 7.63428 12.293 7.73497 11.3348 9.79897H8.11947C7.89254 9.79897 7.46388 9.79897 7.21172 10.0759C6.98479 10.3527 7.16129 10.6799 7.26215 10.831C7.3378 10.982 7.91775 11.863 8.06904 12.1902C8.37163 12.8195 8.74986 12.8698 9.17852 12.8698H9.87231C8.58633 15.6386 6.84647 19.8925 3.46762 26.9654C2.73637 28.5009 1.65212 29.5832 0.693935 30.3132C0.492212 30.4642 0.214844 30.7159 0.214844 31.0683C0.214844 31.4458 0.466997 31.6975 0.643504 31.8486C0.895657 32.0751 1.45039 32.2513 2.08078 32.2513H2.13121C2.25728 32.2513 2.38336 32.2513 2.50944 32.2261C2.91288 32.1758 3.2659 32.0751 3.46762 31.9241C4.02236 31.6472 4.47623 31.1941 4.85446 30.7914C5.76221 29.8097 6.5691 28.5764 7.35078 26.9654C8.23331 25.128 6.49346 28.7777 7.35078 26.9654C7.60293 26.4369 7.09862 27.494 7.35078 26.9654Z" fill="#111111"/>
<path fill-rule="evenodd" clip-rule="evenodd" d="M84.1897 15.3866L84.1141 15.3111C83.9376 15.1852 83.7358 15.1349 83.5341 15.1349C83.1055 15.1349 82.7524 15.3866 82.6011 15.739L82.4751 15.9404C82.4246 16.0159 82.3994 16.0662 82.3994 16.0662C81.4665 17.7275 80.2309 19.1371 78.7684 20.2697C77.432 21.3017 76.2217 21.9562 74.9861 22.1324C74.5827 22.1827 73.9523 22.2582 73.3976 22.2079C72.7672 22.1575 72.0611 21.7548 71.5568 21.3269C72.6663 20.6725 73.7254 20.0432 74.5322 19.5398C76.3478 18.533 77.5581 17.501 78.365 16.7458C80.2813 14.9587 81.1891 14.0777 81.5925 12.4668C81.8699 11.3341 81.7186 10.2769 81.1639 9.44631C80.5839 8.61568 79.6257 8.08709 78.4406 7.96124C77.2555 7.83538 76.0956 7.98641 75.0113 8.38914C74.7592 8.48982 74.507 8.59051 74.2801 8.71636C69.59 10.881 67.8754 16.3431 67.8754 16.3431C67.3207 17.9037 67.0433 19.6908 67.245 20.748C66.186 21.629 65.5808 21.7548 65.2278 21.8555C64.9 21.9562 63.7653 22.0317 63.7653 21.4024C63.7653 21.0249 64.4461 19.7411 64.8244 18.9105C65.2026 18.0799 65.606 17.2744 66.0095 16.4438C66.312 15.8398 66.5893 15.2359 66.8666 14.6319C67.3457 13.5999 67.825 12.4668 67.8754 11.1831C67.9511 9.547 67.0685 8.38914 65.5052 8.03675C64.2444 7.75987 62.9584 7.88573 61.622 8.41431C60.5882 8.84222 59.6552 9.47148 58.697 10.3776C58.4953 9.16944 57.7389 8.36397 56.4529 8.06192C55.4695 7.83538 54.4357 7.86055 53.3514 8.13743C52.3176 8.41431 51.3846 8.89256 50.4516 9.62251C50.5021 9.49666 50.6029 9.14426 50.4012 8.84221C50.1743 8.54016 49.796 8.51499 49.67 8.51499H48.0057C47.4762 8.48982 47.1232 8.74153 46.8963 9.21978C46.4172 10.2769 45.8877 11.4096 45.3329 12.5423L44.8286 13.5995C44.1226 15.0594 43.3661 16.5696 42.6097 18.0295C41.9793 19.2377 41.2481 20.2194 40.3907 21.0249C39.9621 21.4276 39.6091 21.629 39.256 21.6793C39.1552 21.7045 38.8778 21.7045 38.8022 21.4528C38.7265 21.2011 38.6761 20.9242 38.7013 20.6473C38.7265 20.1187 38.8778 19.565 39.2056 18.8602C40.0377 17.073 40.8446 15.3111 41.6767 13.5491L43.4418 9.74836C43.5174 9.59734 43.6939 9.21978 43.467 8.89256C43.2401 8.56534 42.8366 8.54016 42.6601 8.54016C42.4332 8.54016 41.0463 8.56534 40.6177 8.54016C40.0882 8.51499 39.7099 8.7667 39.5082 9.24495C39.1048 10.1511 38.6761 11.0572 38.2474 11.9382L38.0457 12.3661C37.8944 12.6682 37.7683 12.9702 37.6423 13.2471C37.0119 14.6063 36.3563 15.9907 35.5494 17.2492C34.8182 18.4071 33.8852 19.716 32.574 20.6976C31.7671 21.3017 31.0611 21.5786 30.3298 21.5283C29.7751 21.5031 29.3969 21.2011 29.3464 20.6976C29.3212 20.4208 29.3212 20.1187 29.3716 19.7915C29.4977 18.9357 29.8507 18.1554 30.2038 17.3499L33.7339 9.77353C33.8095 9.59734 33.9861 9.21978 33.7843 8.86739C33.5574 8.51499 33.1287 8.51499 32.9522 8.51499C32.7505 8.51499 31.4141 8.54017 30.9602 8.51499C30.4055 8.51499 30.0525 8.74153 29.8003 9.24495L29.1699 10.579C28.3126 12.4165 27.4301 14.3043 26.5223 16.1166C25.5894 18.0044 24.4799 19.5146 23.1435 20.6976C22.6896 21.1255 22.1601 21.5283 21.5045 21.6541C21.1262 21.7296 20.9245 21.6038 20.8489 21.2011C20.748 20.6976 20.8237 20.1691 21.0758 19.565C21.6053 18.3316 22.1601 17.1234 22.6896 15.9655C24.379 12.3661 26.0432 8.7667 27.7327 5.16728L28.9934 2.44883C29.0691 2.27264 29.2708 1.86991 29.0438 1.51751C28.8169 1.16512 28.3883 1.16512 28.1865 1.16512C27.9848 1.16512 26.7493 1.19029 26.3458 1.16512C25.5137 1.11478 25.1859 1.6182 25.0094 1.99576C23.093 6.19928 22.0088 8.56534 20.042 12.7437L18.5543 15.9152C18.0752 16.922 17.5919 17.8991 16.7892 18.9023C15.9232 19.9845 14.8256 21.3176 13.1121 22.208C12.1324 22.717 10.959 22.6649 10.959 23.4732C10.959 24.2816 12.0673 24.9283 12.602 24.9283C15.2244 24.9283 17.2654 21.9562 17.2654 21.9562C17.2654 21.9562 17.9995 24.5488 19.462 24.6746C20.2437 24.7501 21.0506 24.5991 21.9079 24.2467C22.9922 23.7936 24.026 23.0637 25.1103 21.9562L25.1607 21.9058C25.4633 23.3657 26.4719 24.3222 28.0605 24.6243C29.0943 24.8005 30.1533 24.6998 31.2628 24.2719C32.4227 23.8188 33.507 23.114 34.5912 22.0569C34.7173 23.4161 35.5998 24.3977 36.9362 24.6495C37.5162 24.7501 38.1214 24.725 38.7517 24.5739C39.3569 24.4229 39.8864 24.1712 40.3655 23.8943C40.3655 23.9195 40.3907 23.9195 40.3907 23.9447C40.6177 24.2719 41.0211 24.2719 41.1976 24.2719H41.8532H43.1644C43.7444 24.2971 44.1226 24.0454 44.4 23.5168L44.8791 22.4848C45.812 20.4963 46.7702 18.4323 47.7536 16.4438C48.5857 14.7825 49.5439 13.4233 50.7038 12.3158C51.3594 11.6865 52.1411 11.0572 53.2001 10.881C53.7548 10.8055 54.1583 10.881 54.36 11.0824C54.5869 11.3089 54.5365 11.7368 54.4609 12.0641C54.3348 12.643 54.1331 13.2471 53.8053 13.9267C52.7714 16.1417 51.7124 18.3819 50.6786 20.5466L49.5691 22.8875C49.443 23.1644 49.2413 23.5671 49.4682 23.8943C49.6952 24.2467 50.1238 24.2467 50.4264 24.2467H50.9811H52.2923C52.8219 24.2719 53.2001 24.0454 53.427 23.5419C53.8557 22.6358 54.2844 21.7548 54.6878 20.8487C54.9904 20.1942 55.3182 19.5398 55.6208 18.8853L55.685 18.7509C56.4468 17.1557 57.239 15.497 58.2936 14.0526C58.8735 13.2723 59.6552 12.2654 60.7143 11.5606C61.4203 11.0824 62.0759 10.8559 62.7063 10.881C63.0341 10.881 63.261 10.9565 63.3871 11.1076C63.5132 11.2586 63.5888 11.4851 63.5636 11.8124C63.5384 12.3661 63.3871 12.9199 63.0593 13.5995C62.681 14.3798 62.3028 15.1601 61.9498 15.9404L60.7395 18.5078C60.1595 19.7412 59.9326 20.8738 60.0334 21.9813C60.1595 23.3406 61.1429 24.2216 62.4289 24.4984C63.5636 24.725 65.1269 24.6495 66.3625 24.1209C66.8416 23.9195 67.6485 23.4916 68.6067 22.963C69.3379 24.0957 70.2204 24.6494 71.4055 24.8256C71.8594 24.9012 72.3133 24.9263 72.7924 24.9263C73.5236 24.9263 74.2549 24.8508 74.9609 24.6746C79.071 23.7433 82.5759 20.3956 84.2654 16.8717L84.3662 16.6703C84.4419 16.5193 84.4923 16.3431 84.4923 16.1669C84.5427 15.8397 84.3914 15.5628 84.1897 15.3866ZM74.7088 12.3661C72.4394 14.5056 71.8594 16.2424 71.5064 17.1486C70.9517 18.5581 71.3551 18.6588 75.0366 15.89C75.4904 15.5376 75.793 15.2608 76.4234 14.6567C77.2303 13.9015 78.0372 12.8947 78.0372 12.1396C78.0372 11.5858 77.1799 10.881 76.0704 11.3845C75.5913 11.611 75.0618 12.0389 74.7088 12.3661Z" fill="#111111"/>
</g>
<defs>
<clipPath id="clip0_2097_12267">
<rect width="96" height="36" fill="white"/>
</clipPath>
</defs>
</svg>
