<svg width="153" height="27" viewBox="0 0 153 27" fill="none" xmlns="http://www.w3.org/2000/svg">
<path d="M71.0495 12.1655L68.4595 10.7392L67.0306 8.15405L65.624 10.7392L63.0117 12.1655L65.624 13.5918L67.0306 16.1769L68.4595 13.5918L71.0495 12.1655Z" fill="white"/>
<path d="M15.5005 24.2664C14.0939 25.4475 12.7096 26.0492 11.3477 26.0492H7.39578V14.5275H10.6332C13.0445 14.5275 14.6074 15.6641 15.3219 17.9373H15.4782V11.0287H15.3219C14.6298 12.9676 13.0669 13.9481 10.6332 13.9481H7.39578V3.38472H10.5662C12.1738 3.38472 13.5581 3.91958 14.6744 4.96701C15.7908 6.01443 16.7508 7.55214 17.5993 9.58014L17.7332 9.51328L17.443 2.8053H0.273438V2.9613C1.32281 3.31787 1.85866 4.90015 1.85866 7.70814V21.7258C1.85866 24.5784 1.32281 26.1607 0.273438 26.4727V26.6287H18.3807L19.0952 19.8538L18.9612 19.787C18.0681 21.5698 16.9071 23.063 15.5005 24.2664Z" fill="white"/>
<path d="M37.6503 9.18103H32.1132V9.35932C32.6491 9.49303 33.0733 9.73817 33.4305 10.117C33.7878 10.4959 34.0334 10.9862 34.1673 11.6102C34.3013 12.2342 34.212 12.9696 33.8994 13.8164L31.1755 21.3044L27.8934 12.8359C27.112 10.8302 27.3799 9.67131 28.7418 9.35932V9.20332H19.7217V9.35932C20.4808 9.47074 21.1729 10.2507 21.7981 11.7216L28.1613 26.653H29.9252L30.1261 26.029L34.7032 13.3707C35.1051 12.3233 35.5739 11.4319 36.1321 10.6742C36.6903 9.91646 37.2038 9.47074 37.6503 9.35932V9.18103Z" fill="white"/>
<path d="M48.7018 23.1962C46.9603 23.1962 45.4867 22.6168 44.3257 21.4357C43.1647 20.2545 42.5172 18.6277 42.4056 16.5328H52.6091C52.676 16.3991 52.6984 15.9757 52.6984 15.2625C52.6984 13.4351 52.0732 11.9197 50.8229 10.7163C49.5726 9.51285 47.9204 8.91113 45.8439 8.91113C43.4326 8.91113 41.4232 9.7357 39.8156 11.4071C38.2081 13.0785 37.4043 15.2848 37.4043 18.0037C37.4043 20.6334 38.2081 22.7951 39.8379 24.4442C41.4678 26.0934 43.4773 26.9402 45.8886 26.9402C47.8534 26.9402 49.4386 26.4277 50.6219 25.4025C51.8053 24.3774 52.5644 23.1962 52.877 21.8591L52.7877 21.7922C51.8053 22.7282 50.4433 23.1962 48.7018 23.1962ZM42.3832 15.8197C42.3832 13.9477 42.7181 12.41 43.4103 11.2288C44.0801 10.0477 44.9062 9.46827 45.8663 9.46827C46.737 9.46827 47.4068 9.86942 47.8534 10.6717C48.2999 11.474 48.5232 12.6106 48.5232 14.0814C48.5232 14.7945 48.4785 15.3963 48.3669 15.8865H42.4056V15.8197H42.3832Z" fill="white"/>
<path d="M62.5236 25.2452C62.2333 24.5767 62.0994 23.507 62.0994 22.0584V15.239C62.0994 12.3418 62.1887 10.247 62.3896 8.97672L62.3003 8.88757C60.4695 9.467 58.1921 9.80128 55.4682 9.86814L55.4012 10.0019C55.9371 10.2693 56.3166 10.7819 56.5846 11.5619C56.8525 12.3418 56.9865 13.5676 56.9865 15.239V22.0584C56.9865 23.6407 56.8748 24.7104 56.6516 25.3121C56.4283 25.9138 56.0041 26.315 55.3789 26.5155V26.6492H64.0418V26.5155C63.305 26.315 62.7915 25.8915 62.5236 25.2452Z" fill="white"/>
<path d="M149.508 10.7392L148.079 8.15405L146.673 10.7392L144.061 12.1655L146.673 13.5918L148.079 16.1769L149.508 13.5918L152.098 12.1655L149.508 10.7392Z" fill="white"/>
<path d="M143.569 25.2452C143.278 24.5767 143.144 23.507 143.144 22.0584V15.239C143.144 12.3418 143.234 10.247 143.435 8.97672L143.345 8.88757C141.514 9.467 139.237 9.80128 136.513 9.86814L136.446 10.0019C136.982 10.2693 137.362 10.7819 137.629 11.5619C137.897 12.3418 138.031 13.5676 138.031 15.239V22.0584C138.031 23.6407 137.92 24.7104 137.696 25.3121C137.473 25.9138 137.049 26.315 136.424 26.5155V26.6492H145.087V26.5155C144.35 26.315 143.836 25.8915 143.569 25.2452Z" fill="white"/>
<path d="M91.9722 25.2469C91.5034 24.5784 90.9005 23.2635 90.0967 21.3024L82.8404 2.8053H79.9156L72.2574 21.3915C71.6992 22.7955 71.0517 23.9321 70.3819 24.8458C69.6898 25.7595 69.0423 26.2944 68.4395 26.4727V26.6287H75.5171V26.4727C74.4008 26.2721 73.597 25.6927 73.1281 24.7344C72.6369 23.7761 72.6816 22.5281 73.2175 21.0127L74.2445 18.5167H83.1084L84.247 21.5698C85.2741 24.3555 84.9615 26.0047 83.287 26.4727V26.6287H93.4458V26.4727C92.9323 26.3167 92.4188 25.8932 91.9722 25.2469ZM74.5124 17.8258L78.8439 7.28471L82.8404 17.8258H74.5124Z" fill="white"/>
<path d="M101.37 6.99534C101.37 4.7222 101.548 3.16221 101.928 2.31535C102.308 1.4685 102.866 1.04507 103.603 1.04507C105.232 1.04507 106.438 2.91707 107.175 6.68334L107.309 6.70563L108.894 2.18164C108.358 1.66907 107.599 1.26793 106.639 0.933644C105.657 0.599359 104.652 0.443359 103.603 0.443359C101.281 0.443359 99.4721 0.978215 98.1771 2.02564C96.8821 3.09535 96.2346 4.74449 96.2346 6.99534V9.17933H95.0513V9.73647H96.2346V22.0382C96.2346 23.6204 96.123 24.6901 95.8997 25.2919C95.6765 25.8936 95.2746 26.2947 94.6494 26.4953V26.629H103.245V26.4953C102.576 26.317 102.084 25.8936 101.794 25.225C101.504 24.5564 101.37 23.4867 101.37 22.0604V9.73647H105.433V9.17933H101.37V6.99534Z" fill="white"/>
<path d="M115.659 24.3794C113.739 24.3794 112.779 23.0645 112.779 20.4125V9.73771H117.378V9.18057H112.779V5.52572L112.622 5.45886C111.975 6.08286 111.037 6.81829 109.809 7.64286C108.581 8.46742 107.532 9.04685 106.661 9.40342V9.75999H107.911V20.9251C107.911 22.8862 108.38 24.3794 109.296 25.4045C110.233 26.4297 111.595 26.9422 113.404 26.9422C114.677 26.9422 115.726 26.5857 116.574 25.8948C117.423 25.2039 117.959 24.3571 118.137 23.3988L118.048 23.332C117.557 24.0228 116.753 24.3794 115.659 24.3794Z" fill="white"/>
<path d="M129.747 23.1962C128.005 23.1962 126.532 22.6168 125.371 21.4357C124.21 20.2545 123.562 18.6277 123.45 16.5328H133.654C133.721 16.3991 133.743 15.9757 133.743 15.2625C133.743 13.4351 133.118 11.9197 131.868 10.7163C130.617 9.51285 128.965 8.91113 126.889 8.91113C124.478 8.91113 122.468 9.7357 120.861 11.4071C119.253 13.0785 118.449 15.2848 118.449 18.0037C118.449 20.6334 119.253 22.7951 120.883 24.4442C122.513 26.0934 124.522 26.9402 126.934 26.9402C128.898 26.9402 130.484 26.4277 131.667 25.4025C132.85 24.3774 133.609 23.1962 133.922 21.8591L133.833 21.7922C132.828 22.7282 131.466 23.1962 129.747 23.1962ZM123.406 15.8197C123.406 13.9477 123.741 12.41 124.433 11.2288C125.103 10.0477 125.929 9.46827 126.889 9.46827C127.76 9.46827 128.429 9.86942 128.876 10.6717C129.323 11.474 129.546 12.6106 129.546 14.0814C129.546 14.7945 129.501 15.3963 129.389 15.8865H123.428V15.8197H123.406Z" fill="white"/>
</svg>
