<svg width="1000" height="424" viewBox="0 0 1000 424" fill="none" xmlns="http://www.w3.org/2000/svg">
<g clip-path="url(#clip0_2429_658)">
<path d="M976.603 200.888C956.146 205.609 942.873 196.475 944.633 170.378L944.473 77.5151L923.769 82.2929L926.136 53.2018L944.376 48.9928L944.315 8.26562L978.575 0.359558L978.39 41.1436L999.833 36.1952L997.466 65.2863L978.241 69.7228L977.946 163.989C978.516 169.826 981.606 171.967 987.029 170.716C991.712 169.635 996.281 168.061 999.808 166.469L997.497 192.433C993.023 195.542 985.723 198.783 976.603 200.888Z" fill="white"/>
<path d="M886.832 102.235C886.168 94.8624 881.579 90.7314 875.171 92.2102C869.502 93.5184 864.326 98.0863 863.17 104.321L861.418 224.873L826.665 232.893L829.02 75.6129L858.844 68.7306L858.523 83.0771C866.163 71.1936 877.064 62.1906 888.402 59.5742C908.86 54.8533 921.925 68.7057 921.055 93.0398L920.819 211.166L885.82 219.242L886.832 102.235Z" fill="white"/>
<path d="M781.894 243.225L784.249 85.9445L819.003 77.9246L816.648 235.205L781.894 243.225ZM782.238 71.6172L784.453 37.3713L820.193 29.1239L817.978 63.3698L782.238 71.6172Z" fill="white"/>
<path d="M714.016 258.888L716.372 101.608L744.224 95.1807L743.619 111.669C748.338 98.3832 758.197 89.3612 771.507 86.2898C773.971 85.721 776.74 85.3417 778.332 85.4932L775.662 117.768C773.14 118.091 769.083 118.508 766.125 119.19C756.02 121.522 749.327 128.516 750.276 140.494L749.859 139.811L748.523 250.925L714.016 258.888Z" fill="white"/>
<path d="M666.847 272.628C653.044 275.813 642.084 271.076 634.12 260.199L634.221 325.828L599.468 333.848L601.898 165.652C602.067 152.897 602.047 140.446 601.534 128.109L630.372 121.454C630.998 127.537 631.492 134.17 631.928 140.557C636.743 125.433 644.781 115.274 658.091 112.203C688.654 105.15 706.632 139.147 704.495 196.211C705.086 238.113 691.248 266.997 666.847 272.628ZM635.783 195.46C635.805 228.151 643.846 248.353 656.17 245.509C666.768 243.063 671.715 224.016 670.764 195.172C670.496 162.537 662.796 140.44 650.718 143.227C639.873 145.73 634.965 166.066 635.783 195.46Z" fill="white"/>
<path d="M555.623 298.294C524.321 305.518 501.529 286.644 497.942 250.883L529.472 244.644C531.787 265.908 540.377 276.122 550.976 273.676C557.631 272.141 561.612 265.773 560.701 258.457C559.961 248.508 552.49 240.89 538.326 233.519C513.012 218.341 500.497 204.621 500.722 181.993C499.981 161.923 514.769 145.017 536.952 139.898C566.036 133.186 588.468 151.624 592.396 185.49L561.358 191.615C557.906 172.171 550.397 163.264 541.277 165.368C534.376 166.961 530.831 172.969 531.628 179.792C532.633 188.642 539.213 194.649 554.117 201.849C579.449 215.985 591.812 231.297 591.378 255.271C591.854 276.44 578.053 293.118 555.623 298.294Z" fill="white"/>
<path d="M433.391 326.501C402.582 333.611 385.021 300.295 387.689 241.033C386.567 201.329 400.481 171.65 424.882 166.019C438.192 162.947 449.398 167.627 457.438 177.709L456.446 113.842L491.199 105.822L490.419 271.043C490.041 285.143 489.852 298.94 491.674 310.197L462.343 316.965C461.394 311.735 460.578 305.955 460.009 300.118C454.853 313.763 445.962 323.6 433.391 326.501ZM420.851 242.982C420.626 275.73 428.44 298.32 440.764 295.476C451.609 292.974 457.143 271.975 456.022 242.391C455.981 210.742 448.016 189.744 435.938 192.531C424.847 195.091 420.336 213.777 420.851 242.982Z" fill="white"/>
<path d="M342.125 227.933C341.461 220.561 336.872 216.43 330.463 217.909C324.794 219.217 319.619 223.785 318.463 230.02L316.711 350.572L281.957 358.592L284.312 201.312L314.136 194.429L313.815 208.776C321.455 196.892 332.357 187.889 343.695 185.273C364.152 180.552 377.217 194.404 376.347 218.738L376.112 336.864L341.112 344.941L342.125 227.933Z" fill="white"/>
<path d="M247.928 366.445C246.581 362.863 245.121 358.788 244.154 354.6C238.618 365.479 229.518 373.288 218.426 375.847C195.75 381.08 178.76 363.722 180.047 333.323C180.253 311.737 190.035 296.765 214.607 281.753C233.225 270.19 237.357 265.604 238.229 258.137L238.399 255.502C237.981 244.7 232.084 238.276 224.197 240.096C215.077 242.2 210.186 254.747 210.909 272.486L177.577 279.918C178.541 243.625 194.446 219.195 222.791 212.654C251.875 205.942 272.373 222.751 270.878 254.495L270.695 322.266C270.981 336.991 272.878 350.826 276.026 359.96L247.928 366.445ZM212.146 329.549C212.906 341.83 218.367 348.614 226.008 346.851C230.937 345.713 234.824 341.183 236.89 335.516L238.362 260.96L237.075 284.612C237.151 290.563 232.829 295.453 223.918 302.959C215.064 310.711 211.539 319.05 212.146 329.549ZM238.513 255.995C238.456 255.749 238.646 255.445 238.589 255.199L238.513 255.995Z" fill="white"/>
<path d="M113.948 397.362L116.303 240.082L144.155 233.655L143.55 250.143C148.27 236.857 158.128 227.835 171.438 224.764C173.903 224.195 176.671 223.816 178.264 223.967L175.593 256.242C173.071 256.565 169.014 256.982 166.056 257.664C155.951 259.996 149.258 266.99 150.207 278.968L149.79 278.285L148.455 389.399L113.948 397.362Z" fill="white"/>
<path d="M66.7837 411.101C53.4739 414.172 41.7749 409.606 33.4884 399.581C33.4509 405.039 33.4135 410.497 33.6226 415.899L0.101562 423.634C0.32791 411.126 0.250873 398.428 0.230742 385.977L1.59912 218.804L36.1061 210.841L37.2681 268.7C42.2917 258.978 49.6477 252.609 59.5068 250.334C89.0842 243.509 106.663 275.782 104.356 332.106C104.928 375.051 91.678 405.356 66.7837 411.101ZM35.435 332.7C35.457 365.392 44.086 387.015 56.6564 384.114C67.0085 381.726 71.4243 361.504 70.6632 332.356C70.5084 300.214 62.4863 278.97 50.4088 281.757C39.5638 284.26 34.6169 303.306 35.435 332.7Z" fill="white"/>
</g>
<defs>
<clipPath id="clip0_2429_658">
<rect width="1000" height="424" fill="white"/>
</clipPath>
</defs>
</svg>
