<svg width="302" height="302" viewBox="0 0 302 302" fill="none" xmlns="http://www.w3.org/2000/svg">
<rect width="302" height="302" fill="#111111"/>
<path d="M203.5 116L154.387 115.806L123.594 115.823L94 92.001L70 117.001L101 143.001L114 173.501L89 189.001L88.8452 239.001H129L125 199.001L135.5 186.5L159 239.001H205.5L159.5 173.001L148.406 142.658L202.5 152L204 143L205 134L203.5 116Z" fill="white"/>
<circle cx="128" cy="88.0005" r="20" fill="white"/>
<path d="M100 114.808H99.5V115.308V116.308V116.808H100H224.094H224.594V116.308V115.308V114.808H224.094H100Z" fill="white" stroke="#111111"/>
<path d="M182.211 77C212.703 107.492 212.703 156.93 182.211 187.422" stroke="white"/>
</svg>
