<svg width="302" height="302" viewBox="0 0 302 302" fill="none" xmlns="http://www.w3.org/2000/svg">
<rect width="302" height="302" fill="#111111"/>
<path d="M143.368 55.2312L156 58.5L163 55L155 41.5L166.5 34.5L179.5 56.9999L156.729 71.5116L153.534 82.0815L160.072 120.149L142.162 115.515L140.831 81.8107L136.5 88.9999L140 92.4999L140.586 111.751L117.54 89.5069L132.403 75.0751L135.494 65.4997L123 45.4999L145.5 29.5L153 41L139.5 49L143.368 55.2312Z" fill="white"/>
<circle cx="152.914" cy="42.9133" r="11" transform="rotate(12.3938 152.914 42.9133)" fill="white" stroke="#111111" stroke-width="2"/>
<path d="M57.7623 135.411L63.3812 123.634L61.2813 116.095L46.5028 121.372L41.8257 108.748L66.3928 100.28L76.2929 125.402L86.059 130.555L124.675 131.4L116.708 148.097L83.3693 142.973L89.6001 148.596L93.7036 145.828L112.713 148.925L86.48 167.304L75.1493 149.96L66.3397 145.099L44.3234 153.547L32.9106 128.408L45.6304 123.24L50.9075 138.018L57.7623 135.411Z" fill="white"/>
<circle cx="47.4922" cy="123.69" r="11" transform="rotate(-66.6062 47.4922 123.69)" fill="white" stroke="#111111" stroke-width="2"/>
<path d="M99.0783 241.295L90.4338 231.521L82.6731 230.508L81.7566 246.174L68.3083 245.546L70.1124 219.624L97.1056 220.326L105.665 213.35L121.531 178.135L133.788 191.992L116.045 220.678L123.655 217.14L122.711 212.281L132.989 195.993L139.657 227.322L119.265 230.975L111.348 237.185L110.522 260.752L82.9219 261.435L83.1348 247.707L98.8003 248.623L99.0783 241.295Z" fill="white"/>
<circle cx="84.2766" cy="246.169" r="11" transform="rotate(-133.606 84.2766 246.169)" fill="white" stroke="#111111" stroke-width="2"/>
<path d="M221.586 227.606L210.012 233.629L207.151 240.914L222.13 245.593L218.268 258.49L193.551 250.468L200.763 224.447L196.065 214.454L165.734 190.54L182.145 181.999L205.686 206.155L204.094 197.915L199.151 197.656L185.834 183.742L217.845 184.852L216.457 205.522L220.567 214.706L243.234 221.209L237.219 248.154L223.951 244.627L228.63 229.648L221.586 227.606Z" fill="white"/>
<circle cx="222.734" cy="243.147" r="11" transform="rotate(150.394 222.734 243.147)" fill="white" stroke="#111111" stroke-width="2"/>
<path d="M239.8 113.356L242.176 126.186L248.306 131.051L257.16 118.095L268.365 125.559L253.467 146.85L230.691 132.345L219.761 133.917L188.024 155.93L184.655 137.74L214.638 122.289L206.293 121.403L204.6 126.054L187.4 134.721L197.82 104.433L217.181 111.805L227.166 110.559L240.012 90.7838L264.021 104.414L256.768 116.071L243.813 107.217L239.8 113.356Z" fill="white"/>
<circle cx="254.998" cy="116.801" r="11" transform="rotate(77.3938 254.998 116.801)" fill="white" stroke="#111111" stroke-width="2"/>
</svg>
