<svg width="644" height="644" viewBox="0 0 644 644" fill="none" xmlns="http://www.w3.org/2000/svg">
<g clip-path="url(#clip0_2694_675)">
<circle cx="228.396" cy="306.794" r="29.8733" fill="#111111"/>
<path d="M355.053 229.239L311.645 205.493L261.256 291.287V330.693L337.415 332.353L312.041 365.795L350.13 428.373L403.155 405.968L364.228 361.749L384.484 329.366L377.395 291.287H312.667L355.053 229.239Z" fill="#111111"/>
<ellipse cx="68.2576" cy="520.337" rx="29.8733" ry="29.8733" fill="#111111"/>
<path d="M170.596 414.762L121.55 399.834L96.6592 496.47L105.621 533.812L177.299 511.728L151.925 545.17L190.013 607.748L234.077 575.635L204.112 541.124L224.368 508.741L210.178 459.129L146.073 475.536L170.596 414.762Z" fill="#111111"/>
<ellipse cx="405.719" cy="113.401" rx="29.8733" ry="29.8733" fill="#111111"/>
<path d="M532.047 50.1127L490.464 23.457L440.821 100.705L434.846 139.54L498.327 165.679L475.922 202.427L490.858 267.402H552.099L528.108 198.382L548.364 165.999L540.15 131.325L489.365 108.92L532.047 50.1127Z" fill="#111111"/>
<path d="M424.357 266.556H663.192" stroke="#111111"/>
<path d="M234.569 426.49H475.536" stroke="#111111"/>
<path d="M72.5034 605.616H315.603" stroke="#111111"/>
</g>
<defs>
<clipPath id="clip0_2694_675">
<rect width="644" height="644" fill="white"/>
</clipPath>
</defs>
</svg>
