<svg width="604" height="604" viewBox="0 0 604 604" fill="none" xmlns="http://www.w3.org/2000/svg">
<g clip-path="url(#clip0_2883_551)">
<circle cx="214.209" cy="287.739" r="28.0178" fill="#111111"/>
<path d="M332.998 215L292.286 192.729L245.027 273.195V310.153L316.455 311.71L292.658 343.074L328.38 401.766L378.112 380.753L341.603 339.28L360.601 308.908L353.953 273.195H293.245L332.998 215Z" fill="#111111"/>
<circle cx="64.0178" cy="488.018" r="28.0178" fill="#111111"/>
<path d="M159.999 389L113.999 375L90.6543 465.634L99.0597 500.656L166.285 479.944L142.487 511.308L178.21 570L219.536 539.881L191.433 507.514L210.431 477.142L197.122 430.611L136.999 446L159.999 389Z" fill="#111111"/>
<circle cx="380.52" cy="106.357" r="28.0178" fill="#111111"/>
<path d="M499.001 47L460.001 22L413.442 94.4501L407.838 130.873L467.376 155.389L446.362 189.854L460.371 250.793H517.808L495.307 186.06L514.305 155.688L506.601 123.168L458.97 102.155L499.001 47Z" fill="#111111"/>
<path d="M398 250H622" stroke="#111111" stroke-width="2"/>
<path d="M220 400H446" stroke="#111111" stroke-width="2"/>
<path d="M68 568H296" stroke="#111111" stroke-width="2"/>
</g>
<defs>
<clipPath id="clip0_2883_551">
<rect width="604" height="604" fill="white"/>
</clipPath>
</defs>
</svg>
