<svg width="302" height="302" viewBox="0 0 302 302" fill="none" xmlns="http://www.w3.org/2000/svg">
<path fill-rule="evenodd" clip-rule="evenodd" d="M246 123L173.58 120.5H99.0592L98.1992 144.205L127.966 142.73L151.994 128.637L153.006 130.363L128.767 144.579L128.555 144.703L128.31 144.715L64 147.902V187.5L131 172L118.5 237.5H162V177L188.5 150L244 159.5L246 123Z" fill="#111111"/>
<circle cx="187" cy="97.5" r="20" fill="#111111"/>
<path d="M243.5 170.5L250.5 57.5" stroke="#111111"/>
<path d="M249.748 65.3662C225.066 40.5054 185.166 40.6249 160.629 65.6341C135.401 91.3476 94.3772 91.4706 69 65.909L70.2516 64.6338C94.9336 89.4946 134.834 89.3751 159.371 64.3659C184.599 38.6524 225.623 38.5294 251 64.091L249.748 65.3662Z" fill="#111111"/>
</svg>
