<svg width="389" height="401" viewBox="0 0 389 401" fill="none" xmlns="http://www.w3.org/2000/svg">
<path d="M386.259 42.351C334.933 -9.34634 251.961 -9.09797 200.938 42.908C148.477 96.3785 63.1688 96.6342 10.3978 43.4796L13.0005 40.8279C64.326 92.5252 147.298 92.2768 198.321 40.2709C250.782 -13.1997 336.09 -13.4554 388.861 39.6992L386.259 42.351Z" fill="#111111"/>
<path fill-rule="evenodd" clip-rule="evenodd" d="M378.464 162.199L227.868 157H72.9045L71.077 207.377L133.334 204.292L183.527 174.853L184.539 176.578L134.134 206.141L133.923 206.265L133.678 206.277L21.7684 211.822L0 213.146V296.324L139.325 264.093L113.331 400.298H203.788V274.49L258.894 218.344L374.305 238.099L378.464 162.199Z" fill="#111111"/>
<ellipse cx="255.774" cy="109.172" rx="41.5894" ry="41.5894" fill="#111111"/>
<path d="M373.265 260.974L387.821 25.9934" stroke="#111111"/>
</svg>
