<svg width="368" height="457" viewBox="0 0 368 457" fill="none" xmlns="http://www.w3.org/2000/svg">
<circle cx="182.516" cy="127.761" r="45.6291" fill="#111111"/>
<path d="M90.7583 45.6291C90.7583 70.5533 70.5533 90.7583 45.6291 90.7583C20.705 90.7583 0.5 70.5533 0.5 45.6291C0.5 20.705 20.705 0.5 45.6291 0.5C70.5533 0.5 90.7583 20.705 90.7583 45.6291Z" stroke="#111111"/>
<path d="M225.864 296.589L239.553 239.553L367.314 250.96V181.376H225.864L149.435 182.517L106.088 174.532L99.2432 101.525H23.9551L45.6289 221.301L134.606 237.272L110.65 369.596L39.9253 456.291H136.887L175.672 387.848L184.798 334.234L225.864 365.033V456.291H303.434L302.293 330.811L225.864 296.589Z" fill="#111111"/>
</svg>
