<svg width="604" height="604" viewBox="0 0 604 604" fill="none" xmlns="http://www.w3.org/2000/svg">
<path d="M348.176 370.873L350.776 262.835L300 228.178L308.761 132L368.476 132.788L356.317 208.087L411.507 241.783V365.696L476 434.25L415.779 482L348.176 370.873Z" fill="white"/>
<path d="M253.824 362.873L251.224 254.835L296 220.178L304 124L245.524 124.788L245.683 200.087L190.493 233.783V357.696L126 426.25L186.221 474L253.824 362.873Z" fill="white"/>
<path d="M514 409.982L414 354V364.978L479.217 433.759L458.565 449.879L480.304 466L514 409.982Z" fill="white"/>
<path d="M88 401.982L188 346V356.978L122.783 425.759L143.435 441.879L121.696 458L88 401.982Z" fill="white"/>
<circle cx="40" cy="40" r="40" transform="matrix(-1 0 0 1 450 144)" fill="white"/>
<circle cx="192" cy="176" r="40" fill="white"/>
<path d="M504 288L414 242L414.428 287.984L487 347L504 288Z" fill="white"/>
<path d="M98 280L188 234L187.572 279.984L115 339L98 280Z" fill="white"/>
</svg>
