<svg width="463" height="389" viewBox="0 0 463 389" fill="none" xmlns="http://www.w3.org/2000/svg">
<path d="M282.575 268.127L285.399 150.787L230.252 113.147L239.767 8.68896L304.623 9.54518L291.417 91.3266L351.359 127.923V262.504L421.404 336.961L355.999 388.821L282.575 268.127Z" fill="white"/>
<path d="M180.101 259.438L177.277 142.098L225.907 104.458L234.596 0L171.086 0.856215L171.258 82.6377L111.317 119.234V253.815L41.2715 328.272L106.677 380.132L180.101 259.438Z" fill="white"/>
<path d="M462.676 310.603L354.066 249.802V261.725L424.898 336.427L402.468 353.936L426.079 371.444L462.676 310.603Z" fill="white"/>
<path d="M0 301.913L108.609 241.112V253.035L37.7771 327.738L60.2073 345.246L36.5966 362.755L0 301.913Z" fill="white"/>
<circle cx="43.4437" cy="43.4437" r="43.4437" transform="matrix(-1 0 0 1 393.166 21.7217)" fill="white"/>
<circle cx="112.953" cy="56.4769" r="43.4437" fill="white"/>
<path d="M451.814 178.119L354.066 128.159L354.531 178.102L433.351 242.199L451.814 178.119Z" fill="white"/>
<path d="M10.8608 169.43L108.609 119.47L108.144 169.413L29.3244 233.51L10.8608 169.43Z" fill="white"/>
</svg>
