<svg width="302" height="302" viewBox="0 0 302 302" fill="none" xmlns="http://www.w3.org/2000/svg">
<rect width="302" height="302" fill="#111111"/>
<path d="M192.5 102.59L192.5 75.4099L231.5 67.6099L231.5 110.39L192.5 102.59Z" stroke="white"/>
<path d="M176.5 75.5L192.5 75.5L192.5 102.5L176.5 102.5L176.5 75.5Z" stroke="white"/>
<path d="M185.5 102.5L192.5 102.5L192.5 129.5L185.5 129.5L185.5 102.5Z" stroke="white"/>
<circle cx="144" cy="90" r="20" fill="white"/>
<path d="M151.5 164.5L157.5 139.5L213.5 144.5V114H151.5L114.5 114.5L84 141.5L106.25 167.5L101 196.5L70 234.5H112.5L129.5 204.5L133.5 181L151.5 194.5V234.5H185.5L185 179.5L151.5 164.5Z" fill="white"/>
<path d="M111.5 138.5L106.25 167.5M106.25 167.5L101 196.5L70 234.5H112.5L129.5 204.5L133.5 181L151.5 194.5V234.5H185.5L185 179.5L151.5 164.5L157.5 139.5L213.5 144.5V114H151.5L114.5 114.5L84 141.5L106.25 167.5Z" stroke="white"/>
<path d="M111.5 137.5L102.5 181.5" stroke="#111111"/>
</svg>
