<svg width="612" height="612" viewBox="0 0 612 612" fill="none" xmlns="http://www.w3.org/2000/svg">
<path d="M378.454 403.271C378.454 437.706 351.443 465.593 318.159 465.593C284.874 465.593 257.864 437.706 257.864 403.271C257.864 368.837 284.874 340.95 318.159 340.95C351.443 340.95 378.454 368.837 378.454 403.271Z" stroke="#111111"/>
<path d="M585.156 403.271C585.156 437.706 558.146 465.593 524.861 465.593C491.577 465.593 464.566 437.706 464.566 403.271C464.566 368.837 491.577 340.95 524.861 340.95C558.146 340.95 585.156 368.837 585.156 403.271Z" stroke="#111111"/>
<circle cx="318.159" cy="271.55" r="28.3709" fill="#111111"/>
<path d="M476.225 411.377L470.313 283.474L349.916 275.603L345.974 303.151L364.826 335.947L326.265 365.041L356.257 400.602L407.672 348.878L393.276 322.829L432.009 326.764L426.439 411.377H476.225Z" fill="#111111"/>
<ellipse cx="247.232" cy="510.676" rx="28.3709" ry="28.3709" fill="#111111"/>
<path d="M170.226 487.371L233.864 546.495L324.167 540.095V573.497H118.91L173.266 534.994L161.107 525.874L120.577 547.153L101.325 510.676L170.226 487.371Z" fill="#111111"/>
<path d="M50.6621 573.497H404.302" stroke="#111111"/>
<path d="M287.246 220.888L326.265 158.066L38.503 158.066L67.7669 217.581" stroke="#111111"/>
<ellipse cx="28.3709" cy="28.3709" rx="28.3709" ry="28.3709" transform="matrix(-1 0 0 1 223.131 20.2646)" fill="#111111"/>
<path d="M297.894 72.4497L196.769 211.846" stroke="#111111" stroke-width="4"/>
<path d="M168.43 81.0596H289.788L259.969 123.763L207.691 117.298L181.126 158.066H107.404L168.43 81.0596Z" fill="#111111"/>
</svg>
