<svg width="604" height="604" viewBox="0 0 604 604" fill="none" xmlns="http://www.w3.org/2000/svg">
<path d="M373 398C373 431.721 346.554 459 314 459C281.446 459 255 431.721 255 398C255 364.279 281.446 337 314 337C346.554 337 373 364.279 373 398Z" stroke="#111111" stroke-width="2"/>
<path d="M577 398C577 431.721 550.554 459 518 459C485.446 459 459 431.721 459 398C459 364.279 485.446 337 518 337C550.554 337 577 364.279 577 398Z" stroke="#111111" stroke-width="2"/>
<circle cx="314" cy="268" r="28" fill="#111111"/>
<path d="M470 406L464.165 279.768L345.342 272L341.451 299.188L360.057 331.556L322 360.27L351.6 395.365L402.343 344.317L388.135 318.609L426.361 322.493L420.864 406H470Z" fill="#111111"/>
<circle cx="244" cy="504" r="28" fill="#111111"/>
<path d="M168 481L230.806 539.351L319.929 533.035V566H117.355L171 528L159 519L119 540L100 504L168 481Z" fill="#111111"/>
<path d="M50 566H399.018" stroke="#111111" stroke-width="2"/>
<path d="M283.492 218L322 156L38 156L66.8814 214.737" stroke="#111111" stroke-width="2"/>
<circle cx="28" cy="28" r="28" transform="matrix(-1 0 0 1 220.215 20)" fill="#111111"/>
<path d="M294 71.5029L194.197 209.077" stroke="#111111" stroke-width="8"/>
<path d="M166.228 80H286L256.57 122.145L204.976 115.765L178.758 156H106L166.228 80Z" fill="#111111"/>
</svg>
