<svg width="475" height="486" viewBox="0 0 475 486" fill="none" xmlns="http://www.w3.org/2000/svg">
<path d="M322.212 174.545L473.95 52.1881M473.95 52.1881L434.265 1.38721C403.917 31.7349 443.603 77.2564 473.95 52.1881Z" stroke="#111111"/>
<path fill-rule="evenodd" clip-rule="evenodd" d="M167.556 320.428L84.0996 459.346H177.477L222.123 340.405L247.51 459.346H340.888L274.356 320.428L256.682 255.459L354.894 242.793L347.212 189.623L360.73 181.548L313.75 118.519L147.129 237.575L167.556 320.428Z" fill="#111111"/>
<path d="M212.493 260.919L354.894 242.793L342.511 158.204L147.129 237.575" stroke="#FDC800"/>
<ellipse cx="147.129" cy="167.542" rx="46.6887" ry="46.6887" fill="#111111"/>
<path d="M50.9172 459.346C50.9172 473.252 39.6443 484.525 25.7384 484.525C11.8325 484.525 0.55957 473.252 0.55957 459.346C0.55957 445.44 11.8325 434.167 25.7384 434.167C39.6443 434.167 50.9172 445.44 50.9172 459.346Z" stroke="#111111"/>
</svg>
