<svg width="302" height="302" viewBox="0 0 302 302" fill="none" xmlns="http://www.w3.org/2000/svg">
<g clip-path="url(#clip0_2889_536)">
<circle cx="8.39368" cy="8.39368" r="7.89368" transform="matrix(-1 0 0 1 80.7876 11)" stroke="#111111"/>
<path d="M103.975 80.6962V109.32H127.057V81.0459L162.381 61.1109L148.041 40.4764L103.975 80.6962Z" fill="#111111"/>
<path d="M165.528 76.8491L157.834 64.6083L127.757 81.3956V84.893L165.528 76.8491Z" fill="#111111"/>
<circle cx="13.9895" cy="13.9895" r="13.9895" transform="matrix(-1 0 0 1 119.363 42.5746)" fill="#111111"/>
<line y1="-0.5" x2="47.0054" y2="-0.5" transform="matrix(-0.803557 0.595228 0.595228 0.803557 184.414 30.6837)" stroke="#111111"/>
<circle cx="17.4868" cy="17.4868" r="16.9868" transform="matrix(-1 0 0 1 204 9)" fill="#014ADD" stroke="#111111"/>
<path d="M179 108.783H58" stroke="#111111"/>
<circle cx="89" cy="210" r="14" fill="#111111"/>
<path d="M78.6605 226H97.1159H115.333L127 272.53H105.067L105.252 239.438L103.667 273H71.9333L70.5247 239.438L70.5333 272.53H50L60.7333 226H78.6605Z" fill="#111111"/>
<path d="M14 273L164 273" stroke="#111111"/>
<rect x="22.5" y="258.5" width="13" height="29" fill="#014ADD" stroke="#111111"/>
<rect x="141.5" y="258.5" width="14" height="29" fill="#014ADD" stroke="#111111"/>
<path d="M150 216L308 216" stroke="#111111"/>
<path fill-rule="evenodd" clip-rule="evenodd" d="M284.782 146.744L243.968 129.907C242.517 129.308 240.962 129 239.392 129H191.784L191.19 145.336L210.132 144.109L227.32 133.376L227.85 134.224L210.554 145.024L210.448 145.091L210.322 145.099L191.154 146.341L191.152 146.383L186.487 146.643L165.185 148.023V175.728L209.565 168.405L207.468 210.6H235.774L231.58 168.405L247 151L275 168L284.782 146.744Z" fill="#111111"/>
<circle cx="256.5" cy="118" r="14" fill="#111111"/>
<path d="M157 148V158.571M164.579 185L157 179.127V168.849M157 158.571H167.737M157 158.571V168.849M157 168.849L169 168.556" stroke="#111111"/>
<path d="M205 216L215.571 216M242 208.421L236.127 216L225.849 216M215.571 216L215.571 205.263M215.571 216L225.849 216M225.849 216L225.556 204" stroke="#111111"/>
</g>
<defs>
<clipPath id="clip0_2889_536">
<rect width="302" height="302" fill="white"/>
</clipPath>
</defs>
</svg>
