<svg width="751" height="751" viewBox="0 0 751 751" fill="none" xmlns="http://www.w3.org/2000/svg">
<path d="M127.324 55.6875C127.324 66.9392 136.446 76.0605 147.697 76.0605C158.949 76.0605 168.07 66.9392 168.07 55.6875C168.07 44.4358 158.949 35.3145 147.697 35.3145C136.446 35.3145 127.324 44.4358 127.324 55.6875Z" stroke="#111111"/>
<path d="M226.232 208.131V279.312H283.633V209.001L371.473 159.428L335.815 108.115L226.232 208.131Z" fill="#111111"/>
<path d="M379.301 198.565L360.167 168.125L285.372 209.871V218.568L379.301 198.565Z" fill="#111111"/>
<ellipse cx="34.7884" cy="34.7884" rx="34.7884" ry="34.7884" transform="matrix(-1 0 0 1 264.498 113.333)" fill="#111111"/>
<line y1="-0.5" x2="116.891" y2="-0.5" transform="matrix(-0.803557 0.595227 0.595228 0.803557 426.265 83.7627)" stroke="#111111"/>
<path d="M388.499 73.3263C388.499 97.0665 407.744 116.312 431.484 116.312C455.224 116.312 474.47 97.0665 474.47 73.3263C474.47 49.5861 455.224 30.3408 431.484 30.3408C407.744 30.3408 388.499 49.5861 388.499 73.3263Z" fill="#014ADD" stroke="#111111"/>
<path d="M412.802 277.978H111.904" stroke="#111111"/>
<ellipse cx="514.759" cy="310.844" rx="34.8146" ry="34.8146" fill="#111111"/>
<path d="M489.047 350.632H534.941H580.243L609.255 466.342H554.713L555.173 384.049L551.231 467.51H472.318L468.815 384.049L468.837 466.342H417.775L444.467 350.632H489.047Z" fill="#111111"/>
<path d="M328.252 467.51L701.265 467.51" stroke="#111111"/>
<rect x="348.646" y="430.708" width="33.8146" height="73.6026" fill="#014ADD" stroke="#111111"/>
<rect x="644.57" y="430.708" width="36.3013" height="73.6026" fill="#014ADD" stroke="#111111"/>
<ellipse cx="263.596" cy="609.671" rx="34.8146" ry="34.8146" fill="#111111"/>
<path d="M27.3545 711.212L420.262 711.212" stroke="#111111"/>
<path fill-rule="evenodd" clip-rule="evenodd" d="M97.7383 660.59H164.706L160.334 600.203L268.306 562.421L166.921 442.643H101.15L97.7383 660.59ZM189.34 541.614L154.594 507.395V548.458L189.34 541.614Z" fill="#111111"/>
</svg>
