<svg width="1762" height="841" viewBox="0 0 1762 841" fill="none" xmlns="http://www.w3.org/2000/svg">
<path d="M609.732 685.526V584.985H522.751V205.628H385.031L52.6395 584.985V685.526H410.918V827.526H522.751V685.526H609.732ZM308.405 584.985C274.234 584.985 229.708 584.985 182.076 587.058L407.812 320.679L410.918 321.715V584.985H308.405Z" fill="white"/>
<path d="M903.633 297.876C1007.18 297.876 1063.1 385.978 1063.1 514.504C1063.1 644.066 1007.18 735.277 902.597 735.277C801.119 735.277 745.203 644.066 745.203 514.504C745.203 385.978 801.119 297.876 903.633 297.876ZM903.633 192.153C738.99 192.153 628.193 313.423 628.193 514.504C628.193 716.62 734.848 841 903.633 841C1073.45 841 1180.11 716.62 1180.11 514.504C1180.11 313.423 1070.35 192.153 903.633 192.153Z" fill="white"/>
<path d="M1754.43 685.526V584.985H1667.45V205.628H1529.73L1197.34 584.985V685.526H1555.62V827.526H1667.45V685.526H1754.43ZM1453.1 584.985C1418.93 584.985 1374.41 584.985 1326.78 587.058L1552.51 320.679L1555.62 321.715V584.985H1453.1Z" fill="white"/>
<path d="M0 0H1762V108.665H0V0Z" fill="white"/>
</svg>
