<svg width="600" height="846" viewBox="0 0 600 846" fill="none" xmlns="http://www.w3.org/2000/svg">
<path d="M600 0H0V845.181H600V0Z" fill="#FFF3D8"/>
<path d="M546.445 63.5349H53.5576V681.221H546.445V63.5349Z" fill="#1D7A50"/>
<path d="M500.833 265.652C500.601 261.067 498.309 257.572 494.378 255.821C488.555 253.226 482.198 251.285 475.489 250.047C469.365 248.915 462.769 248.346 455.891 248.346C452.213 248.346 448.451 248.507 444.583 248.824C445.695 248.451 446.813 248.057 447.931 247.656C459.02 243.669 469.913 238.529 479.435 232.791L479.491 232.755L479.547 232.72C481.692 231.3 484.814 229.085 487.247 226.23C489.926 223.086 491.34 219.683 491.431 216.103C491.509 213.164 490.813 210.077 489.462 207.412C487.915 204.367 485.651 202.081 482.908 200.809C476.46 197.813 468.507 197.525 461.496 197.264C457.656 197.124 454.281 197.229 450.49 197.954C449.443 198.158 448.451 198.34 447.453 198.502C441.51 199.044 436.208 201.287 431.075 203.453C428.41 204.578 425.85 205.9 423.164 206.983C423.136 206.997 423.107 207.004 423.072 207.018C428.107 202.764 432.72 198.017 437.256 193.341C439.527 190.999 441.869 188.587 444.211 186.294C446.679 183.918 449.499 181.119 451.77 177.989C454.358 174.417 455.884 170.915 456.411 167.301C457.67 164.192 458.352 161.429 458.493 158.862C458.669 155.655 458.078 151.478 455.638 149.144C452.509 146.148 446.566 144.995 442.41 145.178C435.477 144.875 427.706 149.052 426.511 149.713C421.441 152.505 416.849 156.077 412.489 159.861C409.085 162.737 405.619 165.346 402.271 167.87C400.134 169.481 397.982 171.105 395.802 172.821C395.83 172.765 395.865 172.715 395.893 172.659L395.942 172.568C395.942 172.568 395.985 172.476 395.985 172.469C403.15 157.35 415.035 146.303 419.331 129.517C419.774 127.78 420.681 123.385 419.922 118.807C419.563 116.641 418.874 114.771 417.869 113.245C416.708 111.48 415.161 110.193 413.269 109.419C408.966 107.668 406.04 106.311 401.336 107.429C397.489 108.344 393.826 109.919 390.429 111.93C382.026 116.902 375.275 124.356 369.628 132.225C367.174 135.649 364.903 139.228 362.814 142.815C364.017 138.701 365.114 134.559 366.035 130.614C368.095 121.768 369.228 114.272 369.403 108.336C369.635 100.404 367.793 95.8264 364.741 93.1049C361.633 90.3413 358.321 90.053 351.964 88.4638C346.282 87.0433 340.79 91.5579 336.148 97.6547C332.555 102.38 329.313 109.012 326.515 117.366C324.742 122.668 323.153 128.624 321.775 135.115C321.817 132.998 321.831 130.952 321.81 128.934C321.69 118.435 320.629 109.047 318.568 100.221V100.207L318.561 100.193C317.563 96.1147 315.214 92.4439 311.951 89.842C303.252 82.9154 291.298 85.8759 285.595 94.9755C283.007 99.1104 281.425 104.434 280.771 111.262C280.131 117.907 280.454 125.094 281.136 132.056C279.899 127.386 278.415 122.527 276.65 117.823C273.492 109.398 269.885 102.711 265.94 97.9571C260.905 91.8954 255.23 88.8224 249.056 88.8224C248.374 88.1825 244.597 89.3357 243.782 89.5608C234.028 92.2259 230.962 104.898 231.398 113.681C231.813 122.105 234.661 130.607 237.101 137.07C237.368 137.794 237.629 138.511 237.882 139.229C237.144 137.808 236.384 136.409 235.596 135.03C230.161 125.516 224.591 119.074 218.558 115.326C214.88 112.879 208.445 111.677 204.908 111.417C198.762 110.966 193.713 113.646 190.746 117.682C188.488 120.727 187.019 123.589 186.252 126.43C185.331 129.841 185.429 133.279 186.555 136.655C189.185 146.626 194.634 156.274 203.214 166.154C204.36 167.687 205.457 169.326 206.519 170.964C204.261 169.199 201.934 167.526 199.648 166.063C193.896 160.944 188.418 156.745 183.348 153.588C175.472 148.68 168.454 145.768 162.533 146.19C159.861 146.38 155.227 147.231 152.28 149.277C147.688 152.47 145.037 156.999 144.003 162.399C142.878 168.285 141.612 174.966 144.96 181.077L145.009 181.161L145.065 181.245C145.564 182.026 146.028 182.821 146.528 183.657C147.456 185.225 148.412 186.843 149.573 188.376L149.65 188.474L149.734 188.566C154.418 193.769 160.402 197.658 166.267 201.385C172.089 205.084 177.933 208.811 183.953 212.18L183.988 212.201L184.023 212.222C184.621 212.545 185.394 213.171 186.196 213.839C179.762 211.146 172.322 208.846 165.458 206.814C157.006 203.776 148.054 203.453 140.157 203.171C139.447 203.143 127.295 203.671 121.754 206.266C118.997 207.552 116.684 209.24 114.876 211.265C112.851 213.537 111.459 216.258 110.734 219.338C109.996 222.095 110.123 224.5 111.135 226.912C115.319 237.256 125.143 242.931 134.025 247.431C140.129 250.645 146.654 251.819 152.962 252.959C154.903 253.31 156.907 253.669 158.848 254.084C161.323 254.801 163.848 255.652 166.302 256.475C167.99 257.044 169.692 257.614 171.414 258.162C164.628 258.162 155.958 259.048 151.035 257.776L151.007 257.769L150.979 257.762C146.591 256.707 137.864 256.172 137.864 256.172C130.874 256.172 124.236 257.544 118.132 260.244C111.761 263.064 106.157 267.262 101.473 272.719L101.368 272.838L101.276 272.965C99.237 275.926 98.6322 279.674 99.5534 283.52C100.06 285.616 101.016 287.655 102.317 289.42C103.66 291.241 105.355 292.739 107.211 293.738L107.232 293.752L107.254 293.766C111.635 296.037 115.987 297.831 120.2 299.089C124.932 300.51 129.637 301.304 134.179 301.466C134.763 301.487 136.191 301.572 137.998 301.684C143.595 302.022 153.616 302.633 162.012 302.725C155.958 304.469 150.353 306.241 145.079 308.09C138.61 310.348 132.893 313.885 127.358 317.302C126.079 318.097 124.749 318.913 123.434 319.7C120.439 321.501 118.111 323.125 116.086 324.82C113.484 327.007 111.452 329.271 109.884 331.739C108.09 334.566 106.951 337.759 106.607 340.965C106.22 344.524 106.839 347.927 108.393 350.803C110.608 354.903 114.806 358.061 119.918 359.474C122.19 360.1 124.588 360.409 127.26 360.409C129.194 360.409 131.233 360.247 133.49 359.917C145.009 358.222 155.564 353.103 163.475 348.841C164.593 348.237 165.782 347.667 167.026 347.112C166.562 347.449 166.098 347.794 165.648 348.138C163.672 349.65 161.394 351.211 158.989 352.871C150.508 358.7 140.888 365.304 137.259 374.431L137.245 374.466L137.231 374.502C136.76 375.767 136.148 377.047 135.494 378.404C133.828 381.864 131.943 385.788 132.323 390.345C132.506 394.606 134.791 399.17 138.61 402.876C142.484 406.638 147.21 408.797 151.584 408.797C152.822 408.797 154.031 408.621 155.177 408.284C161.45 406.413 165.873 403.186 169.713 399.972C174.277 396.153 179.115 391.997 183.559 387.427C186.688 384.206 189.726 380.83 192.665 377.568C194.691 375.31 196.744 373.032 198.847 370.782C192.926 378.904 189.177 388.594 183.446 397.18C178.453 404.662 175.556 411.16 174.593 417.032C173.946 420.956 174.164 424.655 175.24 428.023C176.449 431.806 178.749 435.224 182.075 438.177C185.057 440.821 188.96 442.277 193.08 442.277C195.317 442.277 197.532 441.862 199.669 441.053C208.966 437.516 214.852 429 220.041 421.483C220.667 420.576 221.258 419.718 221.856 418.874C226.398 412.433 230.118 406.596 233.22 401.034C234.457 398.812 237.453 392.096 238.374 389.74C238.669 388.988 239.127 388.045 239.661 386.998C237.551 392.905 235.737 399.058 234.049 404.866C232.636 409.746 231.173 414.788 229.535 419.634C228.635 422.228 227.657 424.865 226.722 427.418C223.684 435.639 218.326 445.512 220.456 454.499C224.008 469.484 241.314 475.708 253.036 464.829C257.558 460.638 259.653 454.794 261.882 449.211C264.73 442.059 268.352 435.315 271.559 428.332C270.335 434.246 269.435 440.301 269.695 446.524C269.407 450.083 269.498 453.036 269.99 455.765C270.124 459.034 270.743 462.065 271.882 465.005L271.896 465.04L271.91 465.075C276.551 476.242 285.046 483.436 297.62 480.3C301.375 479.364 304.624 476.987 307.275 473.239C309.152 470.595 310.748 467.22 312.014 463.219C316.831 448.057 320.6 433.128 319.897 417.777C320.354 419.627 320.833 421.448 321.339 423.234C324.531 434.471 328.856 444.794 334.201 453.908C336.584 457.987 338.961 461.165 341.451 463.626C344.791 466.932 348.462 469.027 352.35 469.843C353.546 470.096 354.791 470.223 356.035 470.223C360.374 470.223 364.565 468.718 367.842 465.989C369.924 464.252 371.625 461.995 372.765 459.456C373.904 456.918 374.466 454.147 374.382 451.44C374.22 446.004 375.057 440.568 374.108 435.168C373.144 429.69 371.239 424.162 369.361 418.966C367.856 414.788 366.105 410.696 364.136 406.723C364.2 406.828 364.27 406.927 364.333 407.025C365.852 409.402 367.596 411.631 369.291 413.79C370.915 415.864 372.448 417.819 373.798 419.901C377.772 426.019 380.873 432.671 385.668 438.241C388.052 441.011 391.133 443.353 394.571 445.019C398.115 446.735 401.878 447.642 405.457 447.642C416.202 447.642 423.642 437.636 426.912 428.318C428.192 424.676 428.374 421.167 427.474 417.58C425.604 410.126 422.96 403.741 419.148 397.49C415.309 391.175 410.654 385.64 406.202 380.591L406.153 380.535L406.097 380.479C405.654 380.022 405.211 379.565 404.768 379.101C407.152 380.591 409.528 382.054 411.877 383.496C416.181 386.14 420.639 388.868 424.936 391.688C432.13 396.948 438.381 400.696 444.612 403.481C451.658 407.081 458.366 405.091 465.082 402.117C467.698 400.956 470.005 399.135 471.931 396.709C473.661 394.529 475.025 391.906 475.876 389.121L475.933 388.945L475.961 388.763C476.594 385.071 475.672 381.189 473.225 377.223C469.505 371.211 463.999 365.908 459.217 360.719C452.34 353.265 443.852 347.519 435.702 342.414C431.363 339.608 426.722 337.274 422.024 335.143C423.164 335.354 424.296 335.523 425.407 335.691C440.737 338.019 455.652 341.929 471.277 341.929C474.449 341.929 477.585 341.781 480.602 341.486C482.543 341.296 484.195 340.396 485.51 338.8C490.876 332.295 490.032 321.817 485.503 315.045C484.048 312.872 482.1 310.784 479.702 308.843C475.785 305.671 470.715 302.929 465.785 301.326C465.117 301.108 464.027 300.749 462.656 300.292C452.347 296.867 441.595 293.379 434.218 291.389C436.384 291.53 438.648 291.966 441.018 292.423C443.507 292.901 446.081 293.393 448.669 293.562C452.016 293.773 454.773 293.871 457.347 293.871C462.649 293.871 467.269 293.435 471.46 292.535H471.474H471.488C478.527 290.967 485.053 288.485 490.897 285.145C493.457 283.682 496.037 280.728 497.978 277.044C499.989 273.183 501.009 269.14 500.833 265.652ZM277.873 399.726C277.937 399.423 277.993 399.135 278.056 398.868C278 399.149 277.937 399.437 277.873 399.726Z" fill="#FF6B00"/>
<path d="M321.664 553.503C337.022 540.48 351.452 531.971 370.523 530.129C374.658 529.728 378.983 529.742 382.963 531.303C389.552 533.891 395.157 548.461 388.99 553.398C387.45 554.635 385.066 554.853 383.631 556.105C380.115 557.8 376.67 559.642 373.308 561.625C366.6 565.584 359.216 566.773 353.288 571.794C346.994 577.124 340.124 578.305 331.122 591.652C343.759 585.429 365.622 575.725 379.321 571.97C384.693 570.493 390.938 569.354 395.769 572.645C402.456 577.194 404.038 590.084 398.982 595.752C393.919 601.427 386.613 604.226 379.321 606.659C360.7 612.875 339.399 620.442 332.072 638.62C341.973 632.242 353.569 626.827 365.636 628.958C370.924 629.893 377.077 634.028 376.135 639.203C375.804 640.99 374.651 642.459 373.393 643.718C367.577 649.513 359.258 651.939 351.614 655.11C343.97 658.282 336.193 663.007 333.703 670.953C332.023 676.312 332.838 684.912 326.995 687.662C325.047 688.583 322.789 688.674 320.595 688.752C313.662 688.956 306.735 689.251 299.802 689.497C296.222 689.624 292.643 689.757 289.071 689.884C286.525 689.975 282.158 691.058 279.873 689.202C278.058 687.732 278.375 685.039 278.361 682.781C278.276 672.1 268.241 665.349 259.472 661.418C253.973 658.95 248.306 656.924 242.849 654.344C238.25 652.171 230.831 648.88 228.039 644.323C225.965 640.94 227.983 636.623 230.936 634.337C238.214 628.726 248.981 630.877 258.235 633.571C265.977 635.828 273.677 638.289 281.314 640.961C281.356 634.091 275.963 628.128 270.471 623.634C260.485 615.47 248.903 609.338 236.724 605.766C232.132 604.423 227.364 603.396 223.222 600.886C219.08 598.382 215.599 593.91 215.895 589.226C216.162 584.951 219.516 581.568 223.412 580.007C227.308 578.446 231.703 578.369 235.985 578.305C244.782 578.186 263.868 588.586 272.32 591.652C262.342 578.777 257.581 574.951 244.185 566.618C239.438 563.665 225.993 559.157 221.288 556.14C216.999 553.384 210.845 550.472 209.657 545.051C208.961 541.858 210.311 538.616 212.456 536.345C219.389 529.003 231.801 531.268 241.892 534.587C252.208 537.983 267.44 545.044 278.375 553.398C275.449 546.809 271.512 541.232 270.984 540.48C269.585 538.504 266.934 536.57 264.993 535.171C257.827 529.981 248.777 528.708 241.822 523.329C236.583 519.271 232.743 512.133 235.155 506.339C237.912 499.708 246.632 498.604 253.952 498.491C285.997 497.999 318.162 499.384 350.306 500.77C355.088 500.973 360.025 501.22 364.476 503.259C368.927 505.305 372.823 509.637 372.837 514.419C372.879 526.099 357.092 526.057 348.956 526.873C342.831 527.484 331.713 536.338 331.713 536.338C331.713 536.338 323.282 545.993 321.664 553.503Z" fill="#FEC40E"/>
<path d="M420.211 279.428C418.994 325.805 385.739 367.554 359.559 385.064C350.994 389.649 340.924 390.648 331.888 394.389C324.595 395.908 318.892 402.11 311.129 400.436C284.154 401.653 254.387 398.27 231.807 383.25C218.115 375.036 205.809 366.492 195.922 354.735C158.982 308.667 170.241 273.83 182.842 223.572C188.658 207.482 206.857 176.752 223.143 169.375C254.274 159.109 307.226 140.959 339.145 160.585C348.849 165.248 359.854 171.605 368.982 177.174C390.634 194.311 421.378 234.753 420.211 279.428Z" fill="#3D5ECA"/>
<path d="M355.944 227.924C335.537 189.424 296.712 181.534 269.027 196.667C252.79 206.8 231.307 214.493 225.646 236.989C204.423 282.072 208.825 311.438 225.646 329.721C245.322 351.113 281.474 368.116 313.962 359.678C364.572 346.542 405.569 290.503 355.944 227.924Z" fill="#FEC40E"/>
<path d="M334.966 253.775C338.714 252.298 342.511 251.067 346.26 249.563C346.878 249.316 348.545 248.747 349.424 250.308C352.567 250.16 350.901 251.032 352.342 252.291C354.579 255.448 344.86 257.326 341.414 258.95C337.399 260.385 333.433 261.89 329.425 263.282C324.186 265.61 318.778 267.565 313.483 269.717C308.033 272.072 294.081 278.415 288.533 280.595C269.849 288.633 259.983 293.576 240.961 301.009C238.289 301.734 235.019 304.111 232.783 303.309C230.694 302.936 226.447 300.109 230.378 298.478C238.626 295.37 246.39 291.298 254.645 288.141C257.268 287.051 259.589 285.869 262.268 285.286C264.673 283.71 267.866 282.585 270.763 281.298C273.295 280.04 276.923 278.507 278.414 277.881C280.622 276.953 288.238 273.697 289.194 273.162C290.073 272.663 291.029 272.466 291.993 272.157C295.903 270.919 299.152 268.711 302.808 267.108C306.803 265.357 310.846 263.81 314.777 261.918C316.085 261.285 317.28 260.786 318.687 260.455C320.002 260.132 331.098 255.301 334.966 253.775Z" fill="#FF6B00"/>
<path d="M298.182 293.646C296.058 290.362 295.052 286.558 293.906 282.831C290.299 277.036 288.182 269.892 285.629 263.317C280.172 249.105 274.512 235.062 269.111 220.815C268.605 217.292 265.806 214.598 265.405 211.033C265.152 209.127 266.79 207.158 268.302 208.424C271.551 210.59 272.543 215.414 274.462 219.106C276.298 223.67 278.562 227.861 279.786 232.593C285.805 244.857 290.812 258.612 295.467 271.523C299.004 279.786 302.274 288.21 306.297 296.248C309.757 302.71 311.74 310.031 315.579 316.191C317.801 320.537 319.897 324.988 322.196 329.292C323.385 331.711 324.981 336.767 323.652 338.405C321.106 342.667 319.911 343.033 317.893 336.085C315.368 329.594 311.852 323.568 308.765 317.379C308.259 316.311 298.744 294.539 298.182 293.646Z" fill="#FF6B00"/>
<path d="M257.299 256.144C262.404 258.746 268.248 258.943 273.213 262.044C290.28 266.791 306.805 274.393 323.394 280.272C325.82 281.369 332.76 284.519 335.559 285.25C347.029 288.232 353.85 291.987 362.556 295.362C364.918 295.841 364.525 298.499 363.287 299.315C362.654 299.842 362.401 300.44 361.191 299.75C358.35 298.45 351.29 296.797 350.981 296.938C347.922 297.43 344.532 295.102 341.354 294.385C339.568 294.167 329.083 289.596 326.994 289.652C308.879 285.096 301.053 279.336 283.1 273.675C268.283 267.867 253.101 263.022 238.362 257.129C236.604 256.426 235.725 252.769 236.519 252.024C237.307 251.419 238.122 250.849 239.381 250.898C242.271 251.102 253.22 254.063 257.299 256.144Z" fill="#FF6B00"/>
<path d="M327.662 215.456C332.95 213.213 330.285 219.106 329.659 220.379C328.056 224.113 326.439 227.917 324.308 231.581C313.457 251.826 301.932 272.353 290.132 292.57C286.806 298.337 283.465 304.096 279.837 309.722C275.435 316.051 271.644 323.849 266.469 328.926C264.113 331.212 259.092 331.866 261.771 326.901C269.753 312.971 278.381 299.413 286.081 285.538C294.991 269.076 304.822 253.134 313.957 236.771C316.481 232.847 324.835 218.593 327.662 215.456Z" fill="#FF6B00"/>
<path d="M484.659 270.539C484.28 264.505 473.956 260.525 469.625 264.695C458.76 278.731 483.105 289.286 484.659 270.539Z" fill="#FEC40E"/>
<path d="M460.279 213.481C458.345 217.77 458.352 221.441 463.141 221.933C479.244 228.958 479.547 206.702 466.214 210.921C464.09 212.032 461.805 211.329 460.279 213.481Z" fill="#FEC40E"/>
<path d="M427.412 163.932C429.711 174.171 444.204 173.784 443.304 162.983C442.474 159.213 440.386 158.299 437.334 158.257C432.967 156.879 424.036 157.786 427.412 163.932Z" fill="#FEC40E"/>
<path d="M405.675 133.096C409.986 133.167 409.023 120.994 407.236 119.764C404.283 114.968 400.711 114.356 396.611 117.935C394.318 121.585 392.504 126.585 395.106 129.559C397.398 132.182 403.882 133.012 405.675 133.096Z" fill="#FEC40E"/>
<path d="M349.945 98.5054C339.299 95.8824 341.809 116.339 351.056 115.622C361.991 115.382 360.142 99.4336 349.945 98.5054Z" fill="#FEC40E"/>
<path d="M256.152 112.921C257.643 108.955 256.152 103.73 251.658 101.051C250.744 100.503 249.422 99.6378 247.875 99.258C241.18 98.0204 238.192 102.584 239.753 109.539C240.829 114.356 245.006 118.104 249.338 116.768C251.588 115.558 254.991 115.355 256.152 112.921Z" fill="#FEC40E"/>
<path d="M296.739 106.93C302.168 108.808 312.154 104.989 306.401 99.4197C302.822 96.2271 302.815 94.0893 296.324 95.3903C289.116 96.6842 289.665 105.833 296.739 106.93Z" fill="#FEC40E"/>
<path d="M458.557 380.507C456.04 379.037 452.749 375.69 449.69 378.088C447.362 379.811 441.188 384.375 444.127 390.521C446.455 396.843 458.993 397.187 461.033 390.021C461.279 388.313 461.307 382.328 458.557 380.507Z" fill="#FEC40E"/>
<path d="M476.53 325.263C476.467 316.845 460.708 312.964 457.305 320.692C456.426 324.06 458.598 326.261 459.351 328.948C459.745 330.052 460.342 331.725 461.833 332.499C464.463 333.645 467.403 331.634 469.878 331.402C474.21 332.421 477.022 329.721 476.53 325.263Z" fill="#FEC40E"/>
<path d="M140.854 225.59C140.79 217.172 125.031 213.291 121.628 221.019C120.749 224.387 122.922 226.588 123.674 229.275C124.068 230.379 124.666 232.052 126.156 232.826C128.786 233.972 131.726 231.961 134.201 231.729C138.533 232.756 141.346 230.048 140.854 225.59Z" fill="#FEC40E"/>
<path d="M285.651 453.873C278.626 460.026 283.964 471.235 291.038 470.94C294.667 471.263 302.803 465.258 300.552 458.57C297.564 451.974 290.412 449.471 285.651 453.873Z" fill="#FEC40E"/>
<path d="M357.132 444.344C352.027 446.855 347.463 441.707 345.255 448.416C343.813 453.823 347.013 459.308 354.08 459.041C363.18 459.934 364.607 442.924 357.132 444.344Z" fill="#FEC40E"/>
<path d="M190.815 429.176C193.051 428.585 196.103 428.824 197.13 426.328C198.29 423.585 199.394 420.428 197.945 417.671C195.772 414.064 191.286 413.389 187.32 413.093C176.469 414.823 180.161 431.531 190.815 429.176Z" fill="#FEC40E"/>
<path d="M406.489 419.148C403.508 418.571 397.024 414.83 394.647 417.889C392.573 419.957 392.517 429.345 394.647 431.321C406.904 444.168 417.291 425.484 406.489 419.148Z" fill="#FEC40E"/>
<path d="M163.159 159.481C152.604 157.308 149.77 173.819 160.367 175.247C171.119 175.725 173.018 162.287 163.159 159.481Z" fill="#FEC40E"/>
<path d="M210.619 126.472C209.247 122.422 205.365 122.689 201.779 122.675C196.695 122.246 193.734 128.969 195.31 133.539C196.449 139.158 206.146 140.839 208.973 135.853C209.796 132.569 212.637 129.601 210.619 126.472Z" fill="#FEC40E"/>
<path d="M119.624 274.111C112.24 268.676 102.789 279.821 110.229 285.503C119.195 292.578 131.782 281.094 119.624 274.111Z" fill="#FEC40E"/>
<path d="M150.388 383.995C145.332 382.406 144.959 383.995 141.682 385.697C138.236 385.886 137.8 392.715 141.682 394.613C144.242 395.612 146.921 395.816 149.509 396.294C155.395 395.478 159.424 385.275 150.388 383.995Z" fill="#FEC40E"/>
<path d="M227.212 453.612C228.359 457.712 230.813 459.055 236.649 459.364C250.784 457.114 246.234 447.396 238.316 444.639C232.402 442.579 222.867 445.131 227.212 453.612Z" fill="#FEC40E"/>
<path d="M122.205 337.499C117.543 337.26 115.201 339.995 114.716 342.907C113.063 348.37 118.991 352.28 122.894 352.477C133.977 352.723 133.59 334.974 122.205 337.499Z" fill="#FEC40E"/>
<path d="M600 681.221H0V845.181H600V681.221Z" fill="#FFF3D8"/>
<path d="M228.142 802.468H229.851L232.375 809.901L234.878 802.468H236.566V811.258H235.434V806.076C235.434 805.893 235.434 805.597 235.448 805.183C235.455 804.768 235.462 804.325 235.462 803.846L232.959 811.258H231.777L229.253 803.846V804.114C229.253 804.332 229.26 804.655 229.267 805.098C229.281 805.534 229.288 805.858 229.288 806.069V811.251H228.149V802.468H228.142ZM239.055 809.549C239.055 809.859 239.168 810.105 239.4 810.288C239.625 810.464 239.899 810.555 240.209 810.555C240.589 810.555 240.954 810.471 241.313 810.295C241.91 810.007 242.213 809.528 242.213 808.867V808.002C242.079 808.087 241.91 808.157 241.707 808.213C241.503 808.27 241.299 808.312 241.095 808.333L240.441 808.417C240.054 808.467 239.759 808.551 239.562 808.663C239.224 808.839 239.055 809.142 239.055 809.549ZM241.664 807.377C241.91 807.341 242.079 807.243 242.164 807.067C242.213 806.976 242.234 806.835 242.234 806.652C242.234 806.287 242.1 806.019 241.84 805.858C241.58 805.689 241.207 805.604 240.722 805.604C240.16 805.604 239.759 805.752 239.527 806.062C239.393 806.23 239.309 806.476 239.266 806.807H238.261C238.282 806.019 238.535 805.471 239.027 805.161C239.52 804.852 240.096 804.697 240.743 804.697C241.496 804.697 242.107 804.838 242.579 805.126C243.043 805.415 243.275 805.858 243.275 806.469V810.161C243.275 810.274 243.296 810.365 243.338 810.429C243.387 810.499 243.486 810.534 243.633 810.534C243.683 810.534 243.739 810.534 243.795 810.527C243.858 810.52 243.922 810.506 243.985 810.499V811.293C243.816 811.343 243.69 811.371 243.605 811.385C243.521 811.399 243.401 811.406 243.247 811.406C242.874 811.406 242.607 811.272 242.438 811.012C242.347 810.872 242.29 810.675 242.255 810.421C242.037 810.71 241.721 810.956 241.313 811.167C240.905 811.378 240.448 811.483 239.956 811.483C239.365 811.483 238.873 811.308 238.5 810.942C238.127 810.576 237.937 810.126 237.937 809.585C237.937 808.994 238.12 808.53 238.493 808.199C238.866 807.876 239.351 807.672 239.949 807.595L241.664 807.377ZM245.736 808.129C245.736 808.818 245.884 809.388 246.172 809.852C246.46 810.316 246.931 810.548 247.571 810.548C248.071 810.548 248.479 810.337 248.795 809.908C249.118 809.479 249.28 808.86 249.28 808.059C249.28 807.25 249.111 806.652 248.781 806.266C248.45 805.879 248.043 805.682 247.557 805.682C247.016 805.682 246.573 805.893 246.235 806.308C245.898 806.709 245.736 807.32 245.736 808.129ZM247.353 804.733C247.846 804.733 248.253 804.838 248.584 805.042C248.774 805.162 248.992 805.372 249.238 805.668V802.433H250.272V811.251H249.301V810.358C249.048 810.752 248.753 811.04 248.408 811.216C248.064 811.392 247.67 811.476 247.227 811.476C246.517 811.476 245.898 811.181 245.37 810.576C244.85 809.971 244.59 809.177 244.59 808.178C244.59 807.243 244.829 806.441 245.3 805.752C245.785 805.077 246.467 804.733 247.353 804.733ZM254.54 804.704C254.997 804.704 255.433 804.81 255.862 805.028C256.291 805.239 256.615 805.513 256.84 805.858C257.058 806.181 257.198 806.554 257.269 806.99C257.332 807.285 257.367 807.756 257.367 808.403H252.67C252.691 809.05 252.845 809.578 253.134 809.971C253.422 810.365 253.865 810.555 254.47 810.555C255.032 810.555 255.482 810.372 255.813 810C256.003 809.789 256.137 809.535 256.221 809.254H257.276C257.248 809.486 257.156 809.753 256.994 810.042C256.84 810.33 256.664 810.562 256.467 810.745C256.143 811.061 255.736 811.279 255.25 811.392C254.99 811.455 254.695 811.49 254.371 811.49C253.57 811.49 252.895 811.202 252.346 810.625C251.791 810.042 251.516 809.233 251.516 808.185C251.516 807.159 251.798 806.322 252.353 805.682C252.909 805.028 253.633 804.704 254.54 804.704ZM256.256 807.538C256.214 807.074 256.108 806.702 255.954 806.42C255.658 805.9 255.166 805.64 254.477 805.64C253.985 805.64 253.57 805.823 253.232 806.181C252.895 806.54 252.719 806.99 252.698 807.538H256.256V807.538ZM262.592 804.852L263.822 809.901L265.074 804.852H266.284L267.542 809.873L268.851 804.852H269.926L268.063 811.258H266.945L265.637 806.301L264.378 811.258H263.26L261.411 804.852H262.592ZM270.953 804.88H272.05V811.258H270.953V804.88ZM270.953 802.468H272.05V803.692H270.953V802.468ZM273.892 803.059H274.983V804.845H276.002V805.724H274.983V809.908C274.983 810.133 275.06 810.281 275.208 810.358C275.292 810.4 275.432 810.421 275.622 810.421C275.672 810.421 275.728 810.421 275.791 810.421C275.854 810.414 275.918 810.415 276.002 810.4V811.251C275.876 811.286 275.749 811.315 275.615 811.329C275.482 811.343 275.341 811.35 275.186 811.35C274.687 811.35 274.342 811.223 274.167 810.97C273.991 810.71 273.9 810.379 273.9 809.964V805.724H273.035V804.845H273.9V803.059H273.892ZM277.092 802.44H278.168V805.717C278.421 805.394 278.653 805.169 278.857 805.035C279.202 804.81 279.638 804.697 280.158 804.697C281.086 804.697 281.719 805.021 282.05 805.675C282.233 806.033 282.317 806.526 282.317 807.152V811.258H281.213V807.222C281.213 806.751 281.15 806.406 281.03 806.188C280.833 805.837 280.468 805.661 279.933 805.661C279.483 805.661 279.082 805.815 278.717 806.125C278.358 806.434 278.175 807.011 278.175 807.869V811.265H277.099V802.44H277.092ZM287.352 802.468H288.428V811.258H287.352V802.468ZM292.591 810.562C293.308 810.562 293.793 810.295 294.061 809.753C294.328 809.212 294.461 808.607 294.461 807.946C294.461 807.348 294.363 806.863 294.173 806.491C293.871 805.9 293.343 805.604 292.605 805.604C291.944 805.604 291.466 805.858 291.17 806.357C290.875 806.856 290.72 807.468 290.72 808.178C290.72 808.86 290.868 809.43 291.17 809.887C291.466 810.337 291.937 810.562 292.591 810.562ZM292.633 804.662C293.463 804.662 294.159 804.936 294.729 805.485C295.298 806.033 295.587 806.842 295.587 807.911C295.587 808.945 295.333 809.796 294.834 810.471C294.335 811.146 293.554 811.483 292.492 811.483C291.613 811.483 290.91 811.188 290.397 810.59C289.876 809.993 289.616 809.191 289.616 808.185C289.616 807.109 289.891 806.251 290.432 805.612C290.973 804.979 291.712 804.662 292.633 804.662ZM297.394 804.852L299.103 810.07L300.889 804.852H302.07L299.651 811.258H298.505L296.142 804.852H297.394ZM305.656 804.704C306.114 804.704 306.55 804.81 306.979 805.028C307.408 805.239 307.731 805.513 307.956 805.858C308.174 806.181 308.315 806.554 308.385 806.99C308.448 807.285 308.483 807.756 308.483 808.403H303.786C303.807 809.05 303.962 809.578 304.25 809.971C304.538 810.365 304.981 810.555 305.586 810.555C306.149 810.555 306.599 810.372 306.929 810C307.119 809.789 307.253 809.535 307.337 809.254H308.392C308.364 809.486 308.272 809.753 308.111 810.042C307.956 810.33 307.78 810.562 307.583 810.745C307.26 811.061 306.852 811.279 306.367 811.392C306.107 811.455 305.811 811.49 305.488 811.49C304.686 811.49 304.011 811.202 303.463 810.625C302.907 810.042 302.633 809.233 302.633 808.185C302.633 807.159 302.914 806.322 303.47 805.682C304.025 805.028 304.756 804.704 305.656 804.704ZM307.372 807.538C307.33 807.074 307.225 806.702 307.07 806.42C306.775 805.9 306.282 805.64 305.593 805.64C305.101 805.64 304.686 805.823 304.349 806.181C304.011 806.54 303.835 806.99 303.814 807.538H307.372V807.538ZM313.49 803.875C313.504 803.432 313.582 803.101 313.722 802.897C313.975 802.531 314.461 802.349 315.178 802.349C315.248 802.349 315.319 802.349 315.389 802.356C315.459 802.363 315.544 802.363 315.635 802.377V803.361C315.523 803.354 315.445 803.347 315.389 803.347C315.34 803.34 315.298 803.34 315.248 803.34C314.925 803.34 314.728 803.425 314.665 803.6C314.601 803.769 314.566 804.198 314.566 804.894H315.628V805.745H314.552V811.272H313.49V805.745H312.597V804.894H313.49V803.875V803.875ZM319.172 810.562C319.889 810.562 320.375 810.295 320.635 809.753C320.902 809.212 321.036 808.607 321.036 807.946C321.036 807.348 320.937 806.863 320.747 806.491C320.445 805.9 319.925 805.604 319.179 805.604C318.518 805.604 318.04 805.858 317.745 806.357C317.449 806.856 317.295 807.468 317.295 808.178C317.295 808.86 317.442 809.43 317.745 809.887C318.047 810.337 318.525 810.562 319.172 810.562ZM319.214 804.662C320.037 804.662 320.74 804.936 321.31 805.485C321.88 806.033 322.168 806.842 322.168 807.911C322.168 808.945 321.915 809.796 321.415 810.471C320.916 811.146 320.136 811.483 319.074 811.483C318.195 811.483 317.492 811.188 316.978 810.59C316.458 809.993 316.198 809.191 316.198 808.185C316.198 807.109 316.472 806.251 317.013 805.612C317.562 804.979 318.293 804.662 319.214 804.662ZM323.483 804.852H324.503V805.956C324.587 805.738 324.791 805.478 325.121 805.176C325.445 804.866 325.825 804.711 326.253 804.711C326.275 804.711 326.31 804.711 326.359 804.718C326.408 804.725 326.486 804.733 326.605 804.74V805.879C326.542 805.865 326.479 805.858 326.422 805.858C326.373 805.851 326.31 805.851 326.246 805.851C325.705 805.851 325.29 806.026 324.995 806.378C324.706 806.723 324.559 807.123 324.559 807.581V811.265H323.483V804.852V804.852ZM332.371 802.468V807.897C332.371 808.537 332.491 809.064 332.73 809.486C333.082 810.126 333.686 810.443 334.523 810.443C335.536 810.443 336.218 810.098 336.584 809.409C336.781 809.036 336.879 808.53 336.879 807.897V802.468H338.089V807.405C338.089 808.488 337.941 809.317 337.653 809.901C337.118 810.963 336.106 811.49 334.629 811.49C333.145 811.49 332.139 810.963 331.605 809.901C331.317 809.317 331.169 808.488 331.169 807.405V802.468H332.371V802.468ZM339.769 802.468H340.803V807.574L343.567 804.852H344.945L342.491 807.25L345.078 811.258H343.7L341.703 808.031L340.803 808.853V811.258H339.769V802.468V802.468ZM345.95 804.852H346.97V805.956C347.054 805.738 347.258 805.478 347.589 805.176C347.912 804.866 348.292 804.711 348.721 804.711C348.742 804.711 348.777 804.711 348.82 804.718C348.869 804.725 348.946 804.733 349.066 804.74V805.879C349.002 805.865 348.946 805.858 348.89 805.858C348.841 805.851 348.777 805.851 348.714 805.851C348.173 805.851 347.758 806.026 347.462 806.378C347.174 806.723 347.026 807.123 347.026 807.581V811.265H345.95V804.852V804.852ZM350.824 809.549C350.824 809.859 350.936 810.105 351.168 810.288C351.393 810.464 351.668 810.555 351.977 810.555C352.357 810.555 352.722 810.471 353.081 810.295C353.679 810.007 353.981 809.528 353.981 808.867V808.002C353.847 808.087 353.679 808.157 353.475 808.213C353.271 808.27 353.067 808.312 352.863 808.333L352.209 808.417C351.822 808.467 351.527 808.551 351.33 808.663C350.986 808.839 350.824 809.142 350.824 809.549ZM353.433 807.377C353.679 807.341 353.848 807.243 353.932 807.067C353.981 806.976 354.002 806.835 354.002 806.652C354.002 806.287 353.869 806.019 353.608 805.858C353.348 805.689 352.976 805.604 352.49 805.604C351.928 805.604 351.527 805.752 351.295 806.062C351.161 806.23 351.077 806.476 351.035 806.807H350.029C350.05 806.019 350.303 805.471 350.796 805.161C351.288 804.852 351.864 804.697 352.511 804.697C353.264 804.697 353.876 804.838 354.347 805.126C354.811 805.415 355.043 805.858 355.043 806.469V810.161C355.043 810.274 355.064 810.365 355.106 810.429C355.155 810.499 355.254 810.534 355.402 810.534C355.451 810.534 355.507 810.534 355.563 810.527C355.627 810.52 355.69 810.506 355.753 810.499V811.293C355.584 811.343 355.458 811.371 355.374 811.385C355.289 811.399 355.17 811.406 355.015 811.406C354.642 811.406 354.375 811.272 354.206 811.012C354.115 810.872 354.058 810.675 354.023 810.421C353.805 810.71 353.489 810.956 353.081 811.167C352.673 811.378 352.216 811.483 351.724 811.483C351.133 811.483 350.641 811.308 350.268 810.942C349.896 810.576 349.706 810.126 349.706 809.585C349.706 808.994 349.888 808.53 350.261 808.199C350.634 807.876 351.119 807.672 351.717 807.595L353.433 807.377ZM356.815 804.88H357.912V811.258H356.815V804.88ZM356.815 802.468H357.912V803.692H356.815V802.468ZM359.544 804.852H360.563V805.759C360.866 805.386 361.189 805.112 361.527 804.951C361.864 804.789 362.244 804.704 362.659 804.704C363.566 804.704 364.185 805.021 364.501 805.654C364.677 805.998 364.761 806.498 364.761 807.145V811.251H363.664V807.215C363.664 806.821 363.608 806.512 363.488 806.266C363.299 805.865 362.947 805.668 362.448 805.668C362.195 805.668 361.984 805.696 361.822 805.745C361.527 805.83 361.266 806.005 361.041 806.273C360.858 806.484 360.746 806.702 360.69 806.934C360.64 807.159 360.612 807.482 360.612 807.897V811.251H359.536V804.852H359.544ZM369.03 804.704C369.487 804.704 369.923 804.81 370.352 805.028C370.781 805.239 371.104 805.513 371.329 805.858C371.547 806.181 371.688 806.554 371.758 806.99C371.821 807.285 371.857 807.756 371.857 808.403H367.159C367.18 809.05 367.335 809.578 367.616 809.971C367.905 810.365 368.348 810.555 368.952 810.555C369.515 810.555 369.965 810.372 370.296 810C370.486 809.789 370.626 809.535 370.703 809.254H371.765C371.737 809.486 371.646 809.753 371.484 810.042C371.329 810.33 371.154 810.562 370.957 810.745C370.633 811.061 370.225 811.279 369.74 811.392C369.48 811.455 369.185 811.49 368.861 811.49C368.059 811.49 367.384 811.202 366.836 810.625C366.28 810.042 366.006 809.233 366.006 808.185C366.006 807.159 366.287 806.322 366.843 805.682C367.398 805.028 368.13 804.704 369.03 804.704ZM370.753 807.538C370.71 807.074 370.605 806.702 370.443 806.42C370.148 805.9 369.656 805.64 368.966 805.64C368.474 805.64 368.059 805.823 367.722 806.181C367.384 806.54 367.208 806.99 367.187 807.538H370.753V807.538Z" fill="#3D5ECA"/>
<path d="M230.953 753.539C235.081 752.892 236.853 750.951 236.853 747.773C236.853 742.492 232.008 741.704 227.612 741.704H220.011C220.215 744.566 220.285 745.93 220.285 748.42V762.266C220.285 764.755 220.215 766.12 220.011 768.982H228.056C233.716 768.982 238.695 767.245 238.695 761.408C238.695 756.408 235.081 754.256 230.953 753.539ZM223.618 742.253H226.445C229.413 742.253 233.365 743.307 233.365 747.773C233.365 751.254 231.628 753.23 226.818 753.23H223.611V742.253H223.618ZM226.79 768.44H223.618V753.778H227.163C230.06 753.778 235.003 755.178 235.003 761.38C235.01 766.57 231.122 768.44 226.79 768.44ZM248.287 741.711C248.561 744.573 248.596 745.937 248.596 748.427V762.273C248.596 764.762 248.561 766.127 248.287 768.989H264.313L265.305 767.146C261.486 768.271 259.166 768.44 255.79 768.44H251.972V754.798H254.152C255.959 754.798 257.801 754.798 260.973 755.135V753.912C257.801 754.256 255.959 754.256 254.152 754.256H251.972V742.253H255.073C256.606 742.253 259.946 742.457 262.85 743.617L264.383 741.704H248.287V741.711ZM292.027 765.339L285.381 741.711H281.359C281.598 742.464 281.598 742.836 281.429 743.554L275.192 765.55C274.819 766.809 274.714 767.491 273.961 768.996H274.953C275.093 767.533 275.36 766.816 275.74 765.515L277.583 759.066H286.717L288.489 765.339C288.897 766.809 289.136 767.456 289.207 768.989H293.468C292.779 767.66 292.47 766.907 292.027 765.339ZM277.709 758.518L282.139 742.864L286.57 758.518H277.709ZM301.682 741.711C301.886 744.573 301.956 745.937 301.956 748.427V757.393C301.956 767.111 305.978 769.671 312.321 769.671C318.39 769.671 321.393 766.331 321.393 757.393V748.427C321.393 745.937 321.428 744.573 321.667 741.711H320.577C320.816 744.573 320.851 745.937 320.851 748.427V757.393C320.851 765.845 318.123 768.813 312.905 768.813C307.518 768.813 305.303 765.508 305.303 757.393V748.427C305.303 745.937 305.374 744.573 305.577 741.711H301.682ZM351.504 741.711H330.225L331.723 743.624C334.655 742.464 337.285 742.26 338.783 742.26H339.191V762.273C339.191 764.762 339.121 766.127 338.917 768.989H342.805C342.601 766.127 342.531 764.762 342.531 762.273V742.26H342.939C344.437 742.26 347.067 742.464 349.999 743.624L351.504 741.711ZM378.142 744.883C378.789 743.659 379.098 743.04 379.984 741.711H379.063C378.514 743.04 378.247 743.589 377.565 744.918L371.735 756.169L365.765 744.918C365.083 743.659 364.746 743.04 364.303 741.711H359.837C360.829 742.935 361.272 743.624 361.954 744.918L368.466 757.231V762.28C368.466 764.769 368.43 766.134 368.191 768.996H372.08C371.876 766.134 371.841 764.769 371.841 762.28V757.231L378.142 744.883Z" fill="#3D5ECA"/>
</svg>
