<svg xmlns:xlink="http://www.w3.org/1999/xlink" xmlns="http://www.w3.org/2000/svg" width="994" height="477" viewBox="0 0 994 477" fill="none">
<g clip-path="url(#clip0)">
<path d="M694.258 317.453H379.021V0.736816C439.415 0.736816 475.561 18.7346 488.929 68.4267C505.837 131.283 512.476 191.129 597.028 203.218C681.58 215.307 698.488 284.208 694.258 317.453Z" fill="white"/>
<path d="M671.001 340.737H355.764V24.0208C416.158 24.0208 452.304 42.0185 465.672 91.7106C482.58 154.567 489.219 214.413 573.771 226.502C658.323 238.591 675.231 307.492 671.001 340.737Z" fill="#FFBFE1"/>
<mask id="mask0" mask-type="alpha" maskUnits="userSpaceOnUse" x="355" y="24" width="317" height="317">
<path d="M671.001 340.737H355.764V24.0208C416.158 24.0208 452.304 42.0185 465.672 91.7106C482.58 154.567 489.219 214.413 573.771 226.502C658.323 238.591 675.231 307.492 671.001 340.737Z" fill="#FFBFE1"/>
</mask>
<g mask="url(#mask0)">
<path d="M439.682 -1.90183C400.751 9.84373 362.357 28.1945 327.374 51.7564C311.475 62.4727 293.87 79.9015 299.573 93.0743C306.471 108.962 332.822 112.808 350.482 116.06C359.222 117.677 367.994 119.196 376.909 120.338M376.909 120.338C391.081 122.154 405.612 123.021 420.944 121.831C440.036 120.347 460.481 115.775 479.093 105.633C502.512 92.8664 518.452 59.3727 481.605 69.0203C450.504 77.1651 419.267 91.0775 391.254 109.793C386.402 113.034 381.574 116.57 376.909 120.338ZM376.909 120.338C347.925 143.752 325.25 176.137 342.588 202.476C359.737 228.536 402.743 234.348 437.515 236.094C471.48 237.789 508.617 229.816 544.798 219.813C577.469 210.792 623.073 190.483 651.241 202.011C682.769 214.915 657.789 252.186 633.976 272.617C536.34 356.404 433.883 348.878 433.998 375.539C434.239 436.333 656.247 401.946 747.58 380.451C692.048 403.658 585.825 451.121 530.277 474.339C558.274 494.123 647.599 475.106 686.011 477.618C705.556 478.891 725.349 479.439 744.855 480.826C762.613 482.084 788.053 481.665 801.91 489.538C781.53 504.336 749.239 513.841 726.224 522.754C682.373 539.734 648.655 578.589 608.343 600.118M608.343 600.118C598.72 605.258 588.72 609.41 578.117 612.042C536.616 622.334 478.38 592.903 437.128 599.05C397.956 604.889 353.516 612.924 316.312 610.636C387.481 544.688 493.55 567.645 558.849 584.132C576.218 588.514 592.582 593.949 608.343 600.118ZM608.343 600.118C637.048 611.355 663.75 625.029 690.867 639.22C736.02 662.847 785.313 681.967 835.991 697.876" stroke="#FD3C2D" stroke-width="10" stroke-miterlimit="10" stroke-linecap="round" stroke-linejoin="round"/>
</g>
<path d="M166.98 256.897L109.875 314.002C112.16 318.355 111.473 323.858 107.814 327.516C103.315 332.016 96.0136 332.016 91.514 327.516C87.0144 323.017 87.0144 315.715 91.514 311.216C95.1723 307.558 100.675 306.871 105.028 309.155L162.134 252.05L53.2714 291.149L37.6733 345.144L73.8784 381.349L127.873 365.751L166.98 256.897Z" fill="#FDC800"/>
<path d="M78.1974 399.3L19.6343 340.737L0.785185 359.586L59.3483 418.149L78.1974 399.3Z" fill="#FD3C2D"/>
<path d="M870.176 87.4648H746.676V210.965H870.176V87.4648Z" fill="white"/>
<path d="M839.944 117.677H776.889V180.733H839.944V117.677Z" fill="#FDC800"/>
<path d="M931.917 149.205H808.417V272.705H931.917V149.205Z" fill="#8159FB"/>
<path d="M870.177 243.808C888.315 243.808 903.02 229.104 903.02 210.965C903.02 192.826 888.315 178.122 870.177 178.122C852.038 178.122 837.333 192.826 837.333 210.965C837.333 229.104 852.038 243.808 870.177 243.808Z" fill="black"/>
<path d="M993.676 210.965H870.176V334.465H993.676V210.965Z" fill="#FD3C2D"/>
<path d="M966.089 272.727L931.924 238.562L897.759 272.727L931.924 306.892L966.089 272.727Z" fill="#FFBFE1"/>
<circle cx="456.828" cy="203.652" r="10.2311" fill="white"/>
<circle cx="52.8595" cy="228.183" r="10.2311" fill="white"/>
<circle cx="247.637" cy="97.696" r="10.2311" fill="white"/>
<circle cx="264.782" cy="372.004" r="10.2311" fill="white"/>
<circle cx="440.362" cy="466.431" r="10.2311" fill="white"/>
<path d="M57.2216 230.883C146.271 225.375 177.033 79.553 243.822 99.3122C310.61 119.071 166.852 359.753 259.227 370.266C351.602 380.778 372.509 210.395 455.386 206.258C514.262 216.754 426.44 327.57 439.09 461.732" stroke="white" stroke-width="5" stroke-miterlimit="10" stroke-linecap="round" stroke-linejoin="round"/>
</g>
<defs>
<clipPath id="clip0">
<rect width="994" height="477" fill="white"/>
</clipPath>
</defs>
<script xmlns=""/></svg>