<svg width="758" height="1072" viewBox="0 0 758 1072" fill="none" xmlns="http://www.w3.org/2000/svg">
<g clip-path="url(#clip0_1885_102)">
<rect width="757.048" height="1071.22" fill="#FFF3D7"/>
<rect x="66.1689" y="80.5244" width="624.711" height="782.884" fill="#FF6B00"/>
<path d="M254.589 140.226C255.644 137.54 256.023 134.325 257.711 132.132C259.049 130.402 260.676 128.842 262.349 127.357C264.679 125.302 268.404 125.243 270.388 127.657C277.103 135.968 272.968 164.297 274.045 181.556C274.174 183.862 275.804 185.836 278.024 186.501C282.87 187.99 287.312 187.159 289.895 180.488C293.468 171.293 298.183 167.807 303.147 159.234C304.198 157.372 308.042 150.313 309.879 150.658C311.6 151.015 313.218 154.168 313.97 156.417C320.539 176.678 320.327 197.077 320.457 218.662C320.739 263.833 322.31 285.721 321.707 315.775C321.448 328.207 318.341 340.855 314.785 352.875C309.295 371.352 302.23 389.342 296.014 407.609C289.702 426.12 274.105 435.255 258.495 443.802C250.745 448.031 199.015 448.392 185.282 448.093C163.166 447.603 137.25 426.643 132.324 405.88C126.715 382.313 122.406 357.922 121.89 333.78C121.497 315.831 126.912 297.4 131.81 279.762C136.943 261.238 148.585 239.108 165.072 205.744C181.294 177.312 193.235 159.827 210.421 130.759C215.229 122.631 224.051 108.018 229.7 107.943C229.7 107.943 235.35 112.266 237.219 118.656C240.732 130.671 236.619 143.919 234.224 156.189C232.891 163.22 242.564 186.108 254.589 140.226Z" fill="#FFC300"/>
<path d="M99.4279 823.623C101.666 821.373 102.403 819.282 102.419 816.886C102.446 812.317 102.521 807.718 102.649 803.14C102.745 800.193 102.891 797.243 103.167 794.305C105.256 770.596 108.024 749.213 113.136 725.941C114.61 719.192 115.412 712.381 116.315 705.56C117.171 699.065 118.546 692.646 120.364 686.287C122.531 678.662 125.814 671.455 128.592 664.071C130.107 660.059 131.305 655.952 132.503 651.846C133.309 649.083 132.554 646.682 130.299 644.736C126.765 641.696 123.391 638.443 119.671 635.617C112.968 630.466 107.653 624.179 102.427 617.736C91.8844 604.708 82.6031 590.852 73.1755 577.083C66.4675 567.292 60.0454 557.253 54.8742 546.558C53.5836 543.909 52.2166 541.267 50.7775 538.68C46.2359 530.422 42.7379 521.775 40.2325 512.742C38.6308 506.911 36.452 501.231 34.8503 495.401C33.8584 491.787 33.1634 488.047 32.7763 484.305C31.3952 470.629 30.2158 456.91 28.9367 443.225C28.8203 441.927 28.6252 440.611 28.5088 439.313C28.1572 435.395 27.7824 431.503 27.4564 427.582C27.0139 422.364 26.5991 417.167 26.1821 411.946C26.0217 410.159 25.9654 408.386 26.6545 406.621C27.3269 404.956 27.7591 403.189 28.1658 401.424C28.4403 400.19 28.894 399.236 30.2842 398.988C31.9015 398.695 33.3866 398.932 34.3336 400.328C34.8946 401.142 35.163 402.13 35.7727 402.915C36.9666 404.486 38.0296 406.316 39.6149 407.384C44.9962 410.974 48.1612 416.196 51.1267 421.484C54.3975 427.313 58.3356 432.564 63.7354 436.646C84.1393 452.163 96.1944 482.066 107.724 504.737C110.251 509.719 112.606 514.791 114.962 519.863C116.992 524.173 118.999 528.511 120.855 532.887C122.453 536.669 123.851 540.518 125.226 544.394C128.248 552.887 131.446 561.339 134.095 569.964C136.662 578.251 138.804 586.674 140.768 595.114C141.768 599.394 141.99 603.867 142.613 608.23C142.773 609.45 142.47 610.934 144.483 611.617C145.789 610.142 146.236 608.251 146.791 606.423C153.143 585.62 160.051 566.038 165.795 544.877C168.319 535.517 171.054 526.211 173.683 516.866C175.204 511.496 176.566 506.066 178.245 500.731C182.266 487.918 188.061 476 191.283 463.148C192.022 460.218 191.498 456.957 191.221 453.871C191.026 451.691 191.302 449.618 191.81 447.548C192.053 446.538 192.839 445.851 193.921 445.605C196.864 444.922 199.929 446.449 200.842 449.181C201.193 450.236 201.327 451.434 201.298 452.547C201.078 459.257 200.807 465.972 200.537 472.686C200.478 474.321 200.164 475.978 200.335 477.592C200.905 483.664 200.059 489.689 199.805 495.735C199.243 509.288 197.018 513.747 193.16 528.153C192.352 531.163 191.571 534.196 190.998 537.259C187.503 555.552 183.609 573.469 179.356 591.553C177.54 599.288 172.148 607.023 172.066 615.068C172.064 619.907 170.569 624.435 169.182 629.003C167.556 634.358 165.852 639.695 164.226 645.05C164.109 645.455 164.284 645.983 164.361 646.84C165.044 646.433 165.67 646.253 166.017 645.827C174.127 636.039 183.164 627.131 193.065 618.985C205.644 608.624 218.57 598.7 231.784 589.121C249.576 576.251 268.513 564.426 287.197 552.97C295.813 547.68 304.398 542.318 313.136 537.238C319.263 533.677 325.509 530.302 332.062 527.492C336.736 525.493 341.22 523.091 345.679 520.691C354.181 516.127 362.655 511.54 371.04 506.813C378.986 502.348 387.267 498.47 394.85 493.395C395.818 492.741 396.774 491.939 397.843 491.547C398.912 491.155 400.158 491.018 401.299 491.138C403.166 491.341 404.024 493.461 402.869 494.898C402.244 495.67 401.457 496.333 400.662 496.923C398.327 498.663 396.49 500.802 395.068 503.275C393.002 506.867 391.098 510.544 388.842 514.029C383.609 522.103 378.213 530.091 372.843 538.078C368.856 544.015 364.735 549.89 359.647 555.012C354.35 560.376 348.853 565.51 343.387 570.715C339.508 574.421 335.486 577.966 331.69 581.738C326.312 587.06 320.473 591.829 314.494 596.464C310.653 599.45 307.074 602.783 303.114 605.582C291.982 613.468 280.68 621.173 269.489 628.966C259.12 636.191 248.371 642.907 237.2 648.921C229.604 652.985 221.982 657.051 214.137 660.643C207.058 663.895 199.757 666.673 192.424 669.38C183.354 672.761 174.181 675.855 165.072 679.091C164.1 679.425 163.161 679.831 162.247 680.234C157.335 682.452 157.335 682.452 152.314 682.013C151.888 682.99 151.309 683.98 151.019 685.043C148.858 693.309 146.883 701.633 144.642 709.857C141.781 720.335 139.653 730.968 137.708 741.634C136.248 749.69 135.206 757.831 134.035 765.96C133.592 769.036 133.357 772.143 132.967 775.239C132.031 782.556 130.938 789.838 130.107 797.171C129.697 800.911 129.755 804.707 129.552 808.453C129.394 811.553 129.21 814.656 128.998 817.736C128.711 821.983 128.346 826.213 128.059 830.46C127.67 835.852 127.306 841.242 126.968 846.629C126.879 848.217 126.996 849.811 127.018 851.488C127.489 851.298 127.744 851.275 127.786 851.172C128.764 848.048 129.715 844.901 130.665 841.755C131.653 838.457 132.507 835.097 133.655 831.859C135.458 826.76 137.256 821.612 139.456 816.65C142.278 810.323 145.773 804.332 150.184 798.826C152.054 796.486 153.65 793.948 155.492 791.586C158.614 787.47 162.069 783.647 165.059 779.421C169.688 772.908 174.54 766.597 180.661 761.258C190.286 752.89 199.738 744.315 209.364 735.971C220.279 726.524 231.078 716.94 241.739 707.244C244.825 704.425 248.134 701.807 251.445 699.214C255.958 695.699 260.588 692.346 265.099 688.806C267.882 686.63 270.351 684.088 273.192 681.982C279.549 677.264 286.025 672.733 292.497 668.153C301.02 662.106 309.573 656.105 318.098 650.082C330.049 641.603 342.297 633.568 355.13 626.319C365.272 620.57 375.14 614.352 385.193 608.464C388.682 606.423 392.41 604.755 396.019 602.901C397.37 602.212 398.75 601.569 400.039 600.763C405.751 597.164 411.171 593.172 416.101 588.583C420.51 584.484 425.281 580.699 429.661 576.553C433.923 572.542 438.013 568.324 441.914 563.999C443.246 562.522 445.062 562.162 446.835 563.311C449.018 564.745 449.913 566.713 449.422 569.251C449 571.412 447.829 573.245 446.436 574.9C443.486 578.374 441.343 582.245 439.501 586.335C436.119 593.872 432.359 601.196 427.393 607.961C415.771 623.788 408.208 642.63 396.159 658.557C380.605 679.168 367.313 701.844 351.061 721.803C337.579 738.193 325.601 755.316 312.632 772.082C306.737 779.712 299.533 786.332 293.419 793.802C289.95 798.063 286.563 802.391 283.231 806.763C263.667 832.213 234.507 845.789 206.512 862.477C199.978 866.371 193.351 870.076 186.169 872.745C185.547 872.973 184.937 873.324 184.347 873.624C176.748 877.367 169.269 881.321 161.539 884.755C154.28 887.998 146.638 890.412 138.867 892.245C135.875 892.957 132.824 893.305 129.75 892.816C127.041 892.392 124.379 892.483 121.649 892.975C116.162 893.936 114.407 892.686 112.955 887.385C112.835 886.902 112.666 886.449 112.454 885.801C111.173 884.978 109.76 884.117 108.098 883.057C107.023 877.08 105.784 870.995 104.899 864.853C104.5 862.124 103.64 859.979 101.561 857.993C94.7952 851.564 87.5448 845.747 79.636 840.606C62.2047 829.282 49.7242 812.751 32.6635 801.37C29.5206 799.258 26.9909 796.251 24.2837 793.556C19.3464 788.617 14.4346 783.676 9.59265 778.654C4.75067 773.633 -0.114582 768.638 -4.66623 763.418C-7.61324 760.053 -9.8632 756.157 -12.736 752.761C-15.549 749.459 -18.0419 746.004 -20.1512 742.243C-24.4939 734.486 -29.498 727.085 -32.6618 718.728C-32.895 718.132 -33.1581 717.489 -33.5631 716.982C-37.2666 712.056 -39.4499 706.327 -42.3943 700.987C-42.9473 699.975 -43.5557 698.919 -43.7565 697.826C-44.4436 693.888 -46.52 690.495 -47.8774 686.815C-51.0864 678.24 -54.8172 669.86 -57.2584 660.97C-60.728 648.345 -64.6772 635.813 -68.2465 623.222C-70.6139 614.868 -72.7542 606.469 -73.8377 597.827C-74.0336 596.215 -74.6117 594.637 -75.0093 593.068C-75.2887 591.958 -75.67 590.856 -75.7711 589.73C-75.9302 587.67 -75.52 585.659 -73.3695 584.725C-71.2422 583.818 -69.0284 582.731 -66.6828 584.545C-64.7224 586.072 -62.5037 587.33 -60.3782 588.695C-59.9675 588.979 -59.4382 589.153 -59.0995 589.493C-56.221 592.667 -52.6376 595.11 -49.6216 598.098C-44.6632 602.986 -40.2469 608.416 -35.7905 613.718C-33.1435 616.888 -30.88 620.363 -28.2817 623.562C-25.5684 626.898 -22.5204 629.957 -20.2625 633.655C-19.0611 635.596 -17.2026 637.133 -15.6854 638.873C-7.317 648.565 -0.0633867 658.999 6.60957 669.83C15.3767 684.093 27.6603 696.884 37.4324 710.539C39.3687 713.229 41.11 716.035 42.7515 718.875C47.1939 726.598 51.7083 734.266 55.8304 742.142C59.7988 749.735 63.1988 757.577 66.9933 765.235C69.6896 770.671 71.9172 776.322 75.2583 781.503C77.4045 784.816 78.8406 788.513 80.7431 791.972C84.4584 798.748 88.2735 805.491 92.0864 812.209C93.7943 815.216 95.5742 818.167 97.3796 821.116C97.822 822.039 98.5735 822.687 99.4279 823.623Z" fill="#1D7A4F"/>
<path d="M377.232 564.468C379.662 562.427 380.583 560.411 380.813 558.026C381.248 553.477 381.734 548.903 382.271 544.355C382.629 541.429 383.038 538.503 383.575 535.601C385.136 526.897 386.798 518.217 388.384 509.513C388.614 508.234 389.075 506.931 389.023 505.628C388.921 502.579 389.535 499.801 391.198 497.194C391.632 496.506 391.786 495.67 392.016 494.883C394.523 486.056 396.85 477.155 399.613 468.401C401.685 461.812 403.092 455.099 404.601 448.387C406.033 441.994 407.977 435.724 410.356 429.552C413.195 422.151 417.109 415.266 420.536 408.16C422.403 404.3 423.964 400.316 425.524 396.333C426.573 393.653 426.036 391.194 423.964 389.055C420.715 385.711 417.646 382.17 414.193 379.023C407.977 373.294 403.245 366.557 398.615 359.672C389.279 345.755 381.273 331.125 373.114 316.569C367.307 306.217 361.808 295.644 357.613 284.53C356.564 281.776 355.439 279.023 354.237 276.318C350.451 267.687 347.74 258.762 346.052 249.541C344.977 243.591 343.315 237.739 342.24 231.788C341.575 228.1 341.217 224.314 341.166 220.552C341.013 206.807 341.064 193.037 341.013 179.293C341.013 177.989 340.936 176.662 340.936 175.358C340.936 171.424 340.91 167.515 340.936 163.581C340.961 158.343 341.013 153.131 341.064 147.893C341.064 146.098 341.166 144.328 342.01 142.631C342.829 141.033 343.417 139.312 343.98 137.591C344.363 136.386 344.901 135.476 346.307 135.353C347.944 135.206 349.402 135.575 350.221 137.05C350.707 137.91 350.886 138.919 351.423 139.755C352.472 141.427 353.367 143.344 354.851 144.549C359.89 148.606 362.575 154.09 365.056 159.622C367.793 165.72 371.246 171.301 376.26 175.85C383.805 182.735 389.126 191.046 393.397 200.045C395.572 204.668 397.464 209.389 399.536 214.06C401.352 218.117 403.322 222.125 405.087 226.182C406.34 229.059 407.312 232.034 408.514 234.911C410.305 239.165 412.274 243.32 413.988 247.599C416.06 252.787 417.953 258.049 419.846 263.311C421.483 267.786 423.094 272.285 424.552 276.81C425.805 280.719 426.854 284.678 427.877 288.661C430.128 297.39 432.558 306.094 434.425 314.921C436.241 323.404 437.623 331.986 438.825 340.567C439.439 344.919 439.26 349.394 439.49 353.796C439.541 355.025 439.106 356.476 441.05 357.336C442.483 355.984 443.096 354.14 443.813 352.369C445.91 347.206 447.905 341.969 450.105 336.83C451.256 334.125 452.33 331.346 454.402 329.084C455.63 327.732 456.218 326.011 456.755 324.24C457.523 321.757 458.802 319.396 459.671 316.938C462.562 308.897 465.273 300.783 468.24 292.767C471.591 283.67 475.146 274.646 478.599 265.573C480.595 260.36 482.436 255.074 484.585 249.91C487.168 243.689 490.007 237.542 492.744 231.37C492.872 231.075 493.026 230.756 493.256 230.51C497.886 225.764 498.909 219.445 500.929 213.642C501.927 210.79 501.697 207.495 501.697 204.397C501.697 202.209 502.157 200.168 502.848 198.152C503.18 197.168 504.024 196.553 505.124 196.406C508.117 195.988 511.033 197.783 511.698 200.586C511.954 201.668 511.979 202.873 511.851 203.979C511.033 210.643 510.163 217.306 509.294 223.969C509.089 225.592 508.629 227.215 508.654 228.838C508.68 234.936 507.298 240.862 506.506 246.861C505.994 250.746 504.92 254.557 504.05 258.688C503.564 258.737 502.976 258.811 501.876 258.934C501.569 259.721 501.134 260.876 500.546 262.425C501.492 262.253 502.029 262.155 502.566 262.057C502.669 262.327 502.95 262.671 502.873 262.868C500.929 268.105 498.909 273.318 496.99 278.555C495.916 281.481 494.867 284.432 494.023 287.432C492.309 293.431 490.826 299.48 489.112 305.455C488.012 309.217 486.631 312.93 485.378 316.643C485.224 317.11 484.917 317.552 484.866 318.02C483.715 325.888 480.057 332.994 477.576 340.469C476.655 343.247 475.172 345.878 473.97 348.583C472.358 352.197 470.747 355.812 469.238 359.451C468.726 360.656 468.342 361.959 468.215 363.237C467.78 368.057 465.887 372.433 464.096 376.859C461.999 382.047 459.825 387.211 457.727 392.399C457.574 392.792 457.702 393.333 457.702 394.194C458.418 393.85 459.057 393.727 459.441 393.333C468.394 384.31 478.19 376.245 488.78 369.016C502.234 359.82 515.995 351.091 530.012 342.731C533.772 340.493 537.558 338.305 541.369 336.166C544.311 334.543 547.329 333.018 550.347 331.543C556.384 328.543 562.088 324.88 568.482 322.544C568.943 322.372 569.429 322.15 569.838 321.855C575.568 317.675 582.09 314.823 588.434 311.676C597.488 307.176 606.518 302.603 615.675 298.324C622.095 295.325 628.617 292.522 635.396 290.309C640.23 288.735 644.911 286.743 649.566 284.752C658.442 280.965 667.292 277.154 676.066 273.195C684.379 269.458 692.973 266.335 700.979 261.958C702.002 261.393 703.025 260.68 704.125 260.385C705.225 260.09 706.478 260.065 707.604 260.286C709.445 260.655 710.111 262.844 708.832 264.171C708.141 264.884 707.297 265.474 706.453 265.991C703.972 267.515 701.951 269.482 700.314 271.818C697.935 275.211 695.71 278.703 693.152 281.973C687.218 289.546 681.13 297.021 675.068 304.496C670.566 310.053 665.936 315.536 660.411 320.183C654.656 325.052 648.722 329.674 642.813 334.371C638.619 337.715 634.296 340.887 630.178 344.304C624.346 349.124 618.105 353.353 611.736 357.435C607.643 360.065 603.781 363.065 599.586 365.499C587.794 372.36 575.849 379.023 564.006 385.785C553.033 392.055 541.727 397.784 530.063 402.775C522.134 406.144 514.179 409.513 506.045 412.389C498.704 414.996 491.184 417.11 483.638 419.151C474.302 421.708 464.889 423.97 455.528 426.38C454.53 426.626 453.558 426.946 452.612 427.265C447.522 429.036 447.522 429.036 442.559 428.15C442.048 429.085 441.383 430.019 440.999 431.052C438.109 439.092 435.397 447.206 432.43 455.198C428.645 465.377 425.575 475.778 422.685 486.228C420.511 494.121 418.746 502.137 416.853 510.128C416.137 513.152 415.625 516.226 414.96 519.275C413.374 526.479 411.635 533.634 410.151 540.863C409.41 544.551 409.128 548.338 408.591 552.051C408.156 555.124 407.696 558.198 407.21 561.247C406.545 565.451 405.803 569.631 405.138 573.836C404.268 579.172 403.424 584.507 402.606 589.843C402.375 591.417 402.35 593.015 402.222 594.687C402.708 594.539 402.964 594.539 403.015 594.441C404.268 591.417 405.496 588.368 406.724 585.319C408.003 582.122 409.154 578.852 410.586 575.729C412.837 570.812 415.088 565.845 417.723 561.099C421.099 555.05 425.115 549.395 430 544.305C432.072 542.142 433.888 539.757 435.934 537.568C437.725 535.601 439.694 533.782 441.536 531.864C443.25 530.044 444.938 528.2 446.55 526.307C451.742 520.233 457.139 514.382 463.713 509.611C474.046 502.137 484.227 494.44 494.56 486.99C506.275 478.556 517.888 469.975 529.373 461.271C532.698 458.738 536.228 456.427 539.758 454.14C544.566 451.042 549.477 448.116 554.286 444.993C557.253 443.076 559.939 440.764 562.957 438.92C569.71 434.789 576.565 430.855 583.42 426.872C592.449 421.61 601.504 416.397 610.533 411.16C623.195 403.783 636.112 396.874 649.541 390.801C660.156 385.982 670.541 380.67 681.079 375.704C684.737 373.982 688.599 372.655 692.359 371.13C693.766 370.565 695.198 370.048 696.554 369.36C702.565 366.286 708.32 362.795 713.64 358.664C718.398 354.976 723.488 351.632 728.22 347.894C732.824 344.28 737.275 340.444 741.547 336.485C743.005 335.133 744.846 334.936 746.509 336.239C748.555 337.862 749.271 339.903 748.555 342.387C747.941 344.501 746.611 346.222 745.076 347.747C741.828 350.943 739.347 354.607 737.147 358.516C733.106 365.721 728.706 372.679 723.156 378.974C720.444 382.047 718.577 385.834 716.352 389.301C715.738 390.285 715.073 391.243 714.587 392.301C710.98 400.071 705.046 406.168 699.214 412.34C696.221 415.487 693.305 418.635 690.952 422.298C689.98 423.823 688.753 425.224 687.525 426.577C683.048 431.519 678.521 436.388 674.045 441.305C672.689 442.78 671.41 444.305 670.131 445.829C669.364 446.715 668.776 447.772 667.906 448.51C662.483 453.108 658.723 458.984 654.528 464.541C653.531 465.869 652.354 467.074 651.306 468.352C647.622 472.827 643.939 477.327 640.23 481.802C639.181 483.081 638.107 484.359 636.956 485.539C632.403 490.162 627.876 494.785 623.246 499.333C618.923 503.538 614.805 507.866 611.377 512.783C610.15 514.554 608.717 516.176 607.285 517.775C602.962 522.594 598.614 527.413 594.189 532.183C592.731 533.757 591.068 535.183 589.482 536.659C587.027 538.921 584.546 541.134 582.116 543.42C579.072 546.273 576.028 549.125 573.112 552.1C569.275 556.034 565.515 560.042 561.806 564.099C560.809 565.181 560.016 566.509 559.402 567.836C558.66 569.459 557.56 570.443 555.872 571.131C554.158 571.82 552.47 572.631 550.987 573.688C545.104 577.868 538.914 581.704 534.693 587.679C533.747 589.032 532.314 589.622 530.728 589.499C527.685 589.253 525.05 590.31 522.518 591.687C519.704 593.211 516.89 594.736 514.051 596.236C510.47 598.129 506.94 600.096 503.308 601.867C495.711 605.555 488.038 609.071 480.415 612.735C473.56 616.029 466.629 619.128 459.236 621.144C458.597 621.316 457.958 621.611 457.344 621.857C449.44 624.906 441.638 628.176 433.632 630.905C426.112 633.487 418.285 635.208 410.382 636.339C407.338 636.782 404.268 636.856 401.25 636.093C398.59 635.43 395.93 635.282 393.167 635.528C387.617 635.995 385.98 634.594 385.008 629.184C384.931 628.692 384.803 628.225 384.65 627.561C383.447 626.627 382.117 625.643 380.557 624.439C380.02 618.39 379.329 612.218 378.997 606.022C378.843 603.268 378.178 601.055 376.285 598.891C370.121 591.884 363.419 585.442 356.002 579.614C351.397 576 347.024 572.09 343.161 567.689C341.089 565.304 339.12 562.845 336.076 561.443C335.334 561.099 334.669 560.484 334.132 559.87C330.704 556.034 326.919 552.444 324.259 548.018C323.517 546.764 322.596 545.51 321.496 544.527C318.504 541.871 315.869 538.871 312.723 536.339C309.781 533.954 307.53 530.733 305.075 527.807C300.599 522.446 296.148 517.086 291.774 511.652C287.4 506.218 283.001 500.809 278.934 495.203C276.299 491.588 274.406 487.507 271.848 483.867C269.342 480.327 267.167 476.663 265.403 472.729C261.77 464.615 257.448 456.796 255.043 448.19C254.864 447.575 254.66 446.911 254.301 446.37C251.053 441.133 249.39 435.232 246.935 429.65C246.474 428.593 245.963 427.487 245.861 426.38C245.528 422.397 243.763 418.831 242.74 415.045C240.31 406.218 237.343 397.538 235.706 388.465C233.378 375.581 230.565 362.746 228.135 349.886C226.523 341.354 225.142 332.797 224.835 324.093C224.784 322.47 224.349 320.847 224.093 319.249C223.914 318.118 223.633 316.987 223.633 315.856C223.658 313.79 224.247 311.823 226.472 311.086C228.672 310.373 230.974 309.487 233.148 311.504C234.964 313.2 237.062 314.651 239.057 316.2C239.44 316.52 239.952 316.741 240.259 317.11C242.842 320.528 246.193 323.281 248.93 326.527C253.432 331.838 257.345 337.641 261.31 343.321C263.663 346.714 265.607 350.378 267.909 353.796C270.314 357.361 273.076 360.68 274.994 364.565C276.018 366.606 277.731 368.303 279.087 370.171C286.556 380.572 292.848 391.612 298.527 402.997C300.496 406.955 303.054 410.693 305.484 414.43C307.735 417.897 310.267 421.192 312.595 424.61C313.899 426.528 315.255 428.445 316.253 430.511C318.913 436.019 322.494 441.035 325.589 446.297C327.277 449.149 328.76 452.099 330.142 455.075C333.876 463.164 337.687 471.205 341.089 479.417C344.363 487.334 347.049 495.449 350.144 503.415C352.344 509.07 354.058 514.898 356.922 520.356C358.764 523.848 359.864 527.659 361.45 531.274C364.545 538.355 367.742 545.412 370.939 552.444C372.372 555.591 373.881 558.69 375.416 561.788C375.774 562.747 376.464 563.46 377.232 564.468Z" fill="#1D7A4F"/>
<path d="M547.749 249.548C539.769 258.813 527.195 263.076 513.703 262.77C472.694 261.87 455.603 242.708 449.313 226.93C441.316 206.838 442.844 185.949 447.997 165.741C456.052 134.085 465.624 102.796 474.653 71.3899C475.32 69.0748 481.229 55.9866 483.111 51.7103C484.478 48.6667 485.835 45.1471 488.263 43.1693C490.762 41.1346 494.311 41.5548 495.882 45.4595C497.353 49.0965 498.542 52.882 500.295 56.3704C501.114 57.9649 502.982 60.07 504.379 60.0576C505.903 60.0585 507.881 58.1771 508.841 56.61C512.167 51.1537 514.946 45.3433 518.401 39.9796C519.417 38.4034 523.03 36.5048 523.707 37.0308C526.174 38.9015 528.687 41.4697 529.729 44.29C531.283 48.5046 531.45 53.2077 532.485 57.6551C532.78 58.9031 534.275 60.9443 534.867 60.8132C536.243 60.5314 537.672 59.3993 538.641 58.2288C542.516 53.6265 542.106 48.6902 545.989 44.0639C548.918 40.5601 555.37 41.2786 556.68 45.6014C559.048 53.5377 561.385 61.4906 563.493 69.5036C565.601 77.5166 568.105 85.5216 569.216 93.6977C571.367 109.686 573.44 125.756 574.141 141.845C574.891 159.211 574.842 176.697 573.719 194.085C571.829 222.481 557.822 237.86 547.749 249.548Z" fill="#FFC300"/>
<path d="M625.169 205.969C618.817 206.013 615.576 201.251 618.073 195.484C620.175 190.722 623.68 187.445 628.762 186.047C632.967 184.868 637.479 187.751 637.479 192.032C637.479 199.503 633.537 205.357 625.169 205.969Z" fill="#3D5ECA"/>
<path d="M350.819 436.917C343.658 437.427 338.543 433.856 335.27 426.919C328.314 412.126 335.27 392.436 349.08 387.335C357.161 384.377 363.811 386.519 369.744 391.824C376.086 397.537 380.383 403.76 377.723 413.248C373.222 429.265 365.447 436.713 350.819 436.917Z" fill="#3D5ECA"/>
<path d="M155.411 181.237C155.411 193.614 148.575 202.11 136.374 204.942C135.638 205.047 135.007 205.257 134.271 205.362C121.65 207.564 110.922 203.683 107.03 195.292C102.297 185.013 106.609 176.307 112.604 168.335C118.599 160.363 131.536 157.216 140.897 160.783C150.994 164.664 155.411 170.852 155.411 181.237Z" fill="#3D5ECA"/>
<path d="M603.449 963.551C601.019 961.51 600.098 959.494 599.868 957.109C599.433 952.56 598.947 947.987 598.41 943.438C598.052 940.512 597.643 937.586 597.105 934.685C595.545 925.98 593.883 917.301 592.297 908.597C592.066 907.318 591.606 906.015 591.657 904.712C591.76 901.663 591.146 898.884 589.483 896.278C589.048 895.589 588.895 894.753 588.664 893.966C586.158 885.139 583.83 876.238 581.068 867.485C578.996 860.895 577.589 854.183 576.08 847.47C574.647 841.077 572.704 834.807 570.325 828.635C567.485 821.234 563.572 814.35 560.144 807.244C558.277 803.383 556.717 799.4 555.157 795.417C554.108 792.737 554.645 790.278 556.717 788.139C559.965 784.795 563.035 781.254 566.488 778.107C572.704 772.377 577.436 765.64 582.065 758.756C591.401 744.839 599.407 730.209 607.567 715.652C613.373 705.301 618.873 694.728 623.068 683.614C624.116 680.86 625.242 678.106 626.444 675.401C630.23 666.771 632.941 657.845 634.629 648.625C635.703 642.674 637.366 636.822 638.44 630.872C639.105 627.184 639.463 623.397 639.515 619.635C639.668 605.89 639.617 592.121 639.668 578.376C639.668 577.073 639.745 575.745 639.745 574.442C639.745 570.508 639.77 566.598 639.745 562.664C639.719 557.427 639.668 552.214 639.617 546.977C639.617 545.182 639.515 543.412 638.671 541.715C637.852 540.117 637.264 538.395 636.701 536.674C636.317 535.469 635.78 534.56 634.373 534.437C632.736 534.289 631.278 534.658 630.46 536.133C629.974 536.994 629.795 538.002 629.258 538.838C628.209 540.51 627.314 542.428 625.83 543.633C620.791 547.69 618.105 553.173 615.624 558.705C612.887 564.803 609.434 570.385 604.421 574.934C596.875 581.818 591.555 590.129 587.283 599.129C585.109 603.751 583.216 608.472 581.144 613.144C579.328 617.201 577.359 621.209 575.594 625.266C574.341 628.143 573.369 631.118 572.166 633.995C570.376 638.248 568.406 642.404 566.693 646.682C564.621 651.87 562.728 657.132 560.835 662.394C559.198 666.869 557.587 671.369 556.129 675.893C554.875 679.803 553.827 683.761 552.803 687.745C550.553 696.473 548.123 705.178 546.255 714.005C544.439 722.488 543.058 731.069 541.856 739.65C541.242 744.003 541.421 748.478 541.191 752.879C541.14 754.108 541.574 755.559 539.63 756.42C538.198 755.067 537.584 753.223 536.868 751.453C534.771 746.289 532.775 741.052 530.576 735.913C529.425 733.208 528.35 730.43 526.279 728.168C525.051 726.815 524.462 725.094 523.925 723.324C523.158 720.84 521.879 718.48 521.009 716.021C518.119 707.981 515.408 699.867 512.441 691.851C509.09 682.753 505.534 673.729 502.081 664.656C500.086 659.444 498.244 654.157 496.096 648.994C493.512 642.773 490.673 636.626 487.936 630.454C487.808 630.159 487.655 629.839 487.425 629.593C482.795 624.848 481.772 618.529 479.751 612.726C478.754 609.874 478.984 606.579 478.984 603.481C478.984 601.292 478.523 599.251 477.833 597.235C477.5 596.252 476.656 595.637 475.556 595.489C472.564 595.071 469.648 596.866 468.983 599.669C468.727 600.751 468.701 601.956 468.829 603.063C469.648 609.726 470.517 616.39 471.387 623.053C471.592 624.676 472.052 626.299 472.027 627.921C472.001 634.019 473.382 639.945 474.175 645.945C474.687 649.83 475.761 653.641 476.631 657.772C477.117 657.821 477.705 657.895 478.805 658.017C479.112 658.804 479.547 659.96 480.135 661.509C479.188 661.337 478.651 661.239 478.114 661.14C478.012 661.411 477.73 661.755 477.807 661.952C479.751 667.189 481.772 672.402 483.69 677.639C484.765 680.565 485.813 683.515 486.657 686.515C488.371 692.515 489.855 698.563 491.568 704.538C492.668 708.3 494.05 712.013 495.303 715.726C495.456 716.193 495.763 716.636 495.815 717.103C496.966 724.971 500.623 732.077 503.104 739.552C504.025 742.331 505.509 744.962 506.711 747.666C508.322 751.281 509.934 754.895 511.443 758.534C511.955 759.739 512.338 761.042 512.466 762.321C512.901 767.14 514.794 771.517 516.584 775.943C518.682 781.131 520.856 786.294 522.953 791.483C523.107 791.876 522.979 792.417 522.979 793.277C522.263 792.933 521.623 792.81 521.24 792.417C512.287 783.393 502.491 775.328 491.901 768.099C478.447 758.903 464.685 750.174 450.668 741.814C446.908 739.577 443.123 737.388 439.312 735.249C436.37 733.626 433.352 732.102 430.334 730.627C424.297 727.627 418.593 723.963 412.198 721.627C411.738 721.455 411.252 721.234 410.843 720.939C405.113 716.759 398.591 713.907 392.247 710.759C383.192 706.26 374.163 701.686 365.006 697.408C358.586 694.408 352.063 691.605 345.285 689.392C340.451 687.818 335.77 685.827 331.115 683.835C322.239 680.049 313.389 676.237 304.615 672.279C296.302 668.541 287.708 665.419 279.702 661.042C278.679 660.476 277.655 659.763 276.556 659.468C275.456 659.173 274.202 659.149 273.077 659.37C271.235 659.739 270.57 661.927 271.849 663.255C272.54 663.968 273.384 664.558 274.228 665.074C276.709 666.599 278.73 668.566 280.367 670.902C282.745 674.295 284.971 677.786 287.529 681.057C293.463 688.63 299.551 696.105 305.613 703.579C310.115 709.136 314.744 714.62 320.269 719.267C326.024 724.135 331.959 728.758 337.867 733.454C342.062 736.798 346.385 739.97 350.503 743.388C356.335 748.207 362.576 752.436 368.945 756.518C373.038 759.149 376.9 762.149 381.095 764.583C392.887 771.443 404.832 778.107 416.675 784.868C427.648 791.138 438.953 796.867 450.617 801.859C458.547 805.227 466.502 808.596 474.636 811.473C481.977 814.079 489.497 816.194 497.042 818.235C506.378 820.792 515.791 823.054 525.153 825.464C526.151 825.709 527.123 826.029 528.069 826.349C533.159 828.119 533.159 828.119 538.121 827.234C538.633 828.168 539.298 829.103 539.682 830.135C542.572 838.176 545.283 846.29 548.25 854.281C552.036 864.461 555.106 874.861 557.996 885.311C560.17 893.204 561.935 901.22 563.828 909.211C564.544 912.236 565.056 915.309 565.721 918.358C567.306 925.562 569.046 932.718 570.529 939.947C571.271 943.635 571.552 947.421 572.09 951.134C572.524 954.208 572.985 957.281 573.471 960.33C574.136 964.535 574.878 968.715 575.543 972.919C576.412 978.255 577.256 983.591 578.075 988.926C578.305 990.5 578.331 992.098 578.459 993.77C577.973 993.623 577.717 993.623 577.666 993.524C576.412 990.5 575.185 987.451 573.957 984.402C572.678 981.206 571.527 977.935 570.095 974.813C567.844 969.895 565.593 964.928 562.958 960.183C559.582 954.134 555.566 948.479 550.68 943.389C548.609 941.225 546.792 938.84 544.746 936.652C542.956 934.685 540.986 932.865 539.145 930.947C537.431 929.128 535.743 927.284 534.131 925.39C528.939 919.317 523.542 913.465 516.968 908.695C506.634 901.22 496.454 893.524 486.12 886.074C474.405 877.64 462.793 869.059 451.308 860.354C447.983 857.822 444.453 855.51 440.923 853.224C436.114 850.126 431.203 847.2 426.394 844.077C423.427 842.159 420.742 839.848 417.723 838.004C410.971 833.873 404.116 829.939 397.26 825.955C388.231 820.693 379.176 815.481 370.147 810.243C357.486 802.867 344.569 795.958 331.14 789.884C320.525 785.065 310.14 779.754 299.602 774.787C295.944 773.066 292.082 771.738 288.322 770.214C286.915 769.648 285.482 769.132 284.127 768.443C278.116 765.37 272.361 761.878 267.04 757.747C262.283 754.059 257.193 750.715 252.461 746.978C247.856 743.363 243.406 739.528 239.134 735.569C237.676 734.216 235.835 734.02 234.172 735.323C232.126 736.946 231.409 738.987 232.126 741.47C232.74 743.585 234.07 745.306 235.604 746.83C238.853 750.027 241.334 753.69 243.534 757.6C247.575 764.804 251.975 771.763 257.525 778.057C260.236 781.131 262.104 784.918 264.329 788.384C264.943 789.368 265.608 790.327 266.094 791.384C269.7 799.154 275.635 805.252 281.467 811.424C284.459 814.571 287.375 817.718 289.728 821.382C290.7 822.906 291.928 824.308 293.156 825.66C297.632 830.602 302.16 835.471 306.636 840.389C307.992 841.864 309.27 843.388 310.549 844.913C311.317 845.798 311.905 846.855 312.775 847.593C318.197 852.191 321.957 858.068 326.152 863.625C327.15 864.952 328.326 866.157 329.375 867.436C333.058 871.911 336.742 876.41 340.451 880.885C341.499 882.164 342.574 883.443 343.725 884.623C348.278 889.246 352.805 893.868 357.435 898.417C361.758 902.622 365.876 906.949 369.303 911.867C370.531 913.637 371.963 915.26 373.396 916.858C377.719 921.677 382.067 926.497 386.492 931.267C387.95 932.841 389.613 934.267 391.198 935.742C393.654 938.004 396.135 940.217 398.565 942.504C401.609 945.356 404.653 948.208 407.569 951.183C411.405 955.118 415.165 959.125 418.874 963.182C419.872 964.264 420.665 965.592 421.279 966.92C422.021 968.543 423.12 969.526 424.809 970.215C426.522 970.903 428.211 971.715 429.694 972.772C435.577 976.952 441.767 980.788 445.988 986.763C446.934 988.115 448.366 988.705 449.952 988.582C452.996 988.336 455.631 989.394 458.163 990.77C460.977 992.295 463.79 993.819 466.629 995.319C470.21 997.213 473.74 999.18 477.372 1000.95C484.969 1004.64 492.643 1008.15 500.265 1011.82C507.12 1015.11 514.052 1018.21 521.444 1020.23C522.084 1020.4 522.723 1020.69 523.337 1020.94C531.241 1023.99 539.042 1027.26 547.048 1029.99C554.568 1032.57 562.395 1034.29 570.299 1035.42C573.343 1035.87 576.412 1035.94 579.431 1035.18C582.091 1034.51 584.751 1034.37 587.513 1034.61C593.064 1035.08 594.701 1033.68 595.673 1028.27C595.75 1027.78 595.878 1027.31 596.031 1026.64C597.233 1025.71 598.563 1024.73 600.124 1023.52C600.661 1017.47 601.351 1011.3 601.684 1005.11C601.837 1002.35 602.502 1000.14 604.395 997.975C610.56 990.967 617.261 984.525 624.679 978.698C629.283 975.083 633.657 971.174 637.519 966.772C639.591 964.387 641.561 961.928 644.605 960.527C645.346 960.183 646.012 959.568 646.549 958.953C649.976 955.117 653.762 951.528 656.422 947.102C657.164 945.848 658.085 944.594 659.184 943.61C662.177 940.955 664.812 937.955 667.958 935.422C670.899 933.037 673.15 929.816 675.606 926.89C680.082 921.53 684.533 916.17 688.907 910.736C693.281 905.302 697.68 899.892 701.747 894.286C704.382 890.672 706.275 886.59 708.832 882.951C711.339 879.41 713.513 875.747 715.278 871.812C718.91 863.698 723.233 855.879 725.637 847.273C725.816 846.659 726.021 845.995 726.379 845.454C729.628 840.217 731.29 834.315 733.746 828.734C734.206 827.676 734.718 826.57 734.82 825.464C735.153 821.48 736.918 817.915 737.941 814.128C740.371 805.301 743.338 796.621 744.975 787.548C747.302 774.664 750.116 761.829 752.546 748.969C754.157 740.437 755.539 731.881 755.846 723.176C755.897 721.554 756.332 719.931 756.587 718.332C756.766 717.201 757.048 716.07 757.048 714.939C757.022 712.874 756.434 710.907 754.209 710.169C752.009 709.456 749.707 708.571 747.533 710.587C745.717 712.284 743.619 713.734 741.624 715.284C741.24 715.603 740.729 715.824 740.422 716.193C737.838 719.611 734.488 722.365 731.751 725.611C727.249 730.922 723.335 736.724 719.371 742.404C717.017 745.798 715.074 749.461 712.771 752.879C710.367 756.444 707.605 759.764 705.686 763.649C704.663 765.689 702.949 767.386 701.594 769.255C694.125 779.656 687.832 790.696 682.154 802.08C680.184 806.039 677.627 809.776 675.197 813.514C672.946 816.981 670.413 820.275 668.086 823.693C666.781 825.611 665.426 827.529 664.428 829.594C661.768 835.102 658.187 840.118 655.092 845.38C653.404 848.232 651.92 851.183 650.539 854.158C646.804 862.248 642.993 870.288 639.591 878.501C636.317 886.418 633.632 894.532 630.537 902.499C628.337 908.154 626.623 913.981 623.758 919.44C621.917 922.931 620.817 926.743 619.231 930.357C616.136 937.439 612.939 944.495 609.741 951.528C608.309 954.675 606.8 957.773 605.265 960.871C604.907 961.83 604.216 962.543 603.449 963.551Z" fill="#1D7A4F"/>
<path d="M533.631 639.571C528.62 651.115 517.564 659.148 504.209 662.97C463.627 674.618 440.973 661.007 429.969 647.422C415.968 630.118 411.086 609.12 409.975 587.683C408.218 554.107 408.063 520.428 407.34 486.801C407.288 484.322 409.097 469.652 409.639 464.873C410.052 461.464 410.311 457.59 412.093 454.904C413.927 452.14 417.543 451.469 420.282 454.827C422.839 457.952 425.164 461.309 427.954 464.202C429.245 465.519 431.725 467.017 433.094 466.578C434.592 466.113 435.961 463.66 436.426 461.826C438.028 455.446 438.984 448.886 440.74 442.558C441.257 440.699 444.228 437.729 445.054 438.039C448.051 439.123 451.305 440.88 453.191 443.333C456.007 447.001 457.608 451.572 459.985 455.627C460.657 456.764 462.749 458.313 463.291 458.003C464.557 457.306 465.616 455.756 466.21 454.31C468.613 448.602 466.701 443.876 469.104 438.142C470.912 433.803 477.473 432.537 480.082 436.386C484.835 443.462 489.562 450.565 494.083 457.797C498.603 465.028 503.511 472.131 507.102 479.828C514.102 494.885 521.051 510.046 526.657 525.645C532.701 542.485 537.997 559.686 542.207 577.12C549.027 605.607 539.96 625.004 533.631 639.571Z" fill="#FFC300"/>
<rect x="-28.125" y="863.408" width="777.016" height="190.777" fill="#FFF3D7"/>
<path d="M295.406 939.727C295.666 943.357 295.752 945.086 295.752 948.241V965.788C295.752 968.943 295.666 970.672 295.32 974.302H314.423L315.676 971.968C310.836 973.394 307.897 973.61 303.618 973.61H299.988V948.241C299.988 945.086 300.074 943.357 300.333 939.727H295.406ZM342.794 975.166C353.858 975.166 362.156 967.646 362.156 957.014C362.156 946.426 353.858 938.862 342.794 938.862C331.73 938.862 323.475 946.426 323.475 957.014C323.475 967.646 331.73 975.166 342.794 975.166ZM342.794 974.475C333.631 974.475 328.142 966.134 328.142 957.014C328.142 947.938 333.631 939.554 342.794 939.554C351.956 939.554 357.488 947.938 357.488 957.014C357.488 966.134 351.956 974.475 342.794 974.475ZM370.242 939.727C371.107 941.412 371.496 942.363 372.014 944.351L380.485 974.302H385.585C385.283 973.351 385.283 972.876 385.499 971.968L393.408 944.092C393.883 942.493 394.013 941.628 394.964 939.727H393.667C393.538 941.585 393.149 942.493 392.716 944.135L384.591 972.833L376.552 944.351C376.034 942.493 375.731 941.672 375.645 939.727H370.242ZM405.94 939.727C406.286 943.357 406.329 945.086 406.329 948.241V965.788C406.329 968.943 406.286 970.672 405.94 974.302H426.253L427.507 971.968C422.666 973.394 419.727 973.61 415.449 973.61H410.608V956.323H413.374C415.665 956.323 417.998 956.323 422.018 956.755V955.199C417.998 955.631 415.665 955.631 413.374 955.631H410.608V940.418H414.541C416.486 940.418 420.721 940.678 424.395 942.147L426.34 939.727H405.94Z" fill="#1B59B0"/>
<path d="M269.404 1016.85H271.565L274.764 1026.26L277.941 1016.85H280.079V1027.98H278.646V1021.41C278.646 1021.18 278.651 1020.81 278.661 1020.28C278.671 1019.75 278.676 1019.19 278.676 1018.59L275.5 1027.98H274.006L270.807 1018.59V1018.93C270.807 1019.2 270.812 1019.62 270.822 1020.18C270.837 1020.74 270.844 1021.15 270.844 1021.41V1027.98H269.404V1016.85ZM283.241 1025.82C283.241 1026.22 283.385 1026.53 283.673 1026.75C283.961 1026.98 284.302 1027.1 284.696 1027.1C285.177 1027.1 285.642 1026.98 286.091 1026.76C286.85 1026.39 287.229 1025.79 287.229 1024.95V1023.85C287.062 1023.96 286.847 1024.05 286.584 1024.12C286.321 1024.19 286.064 1024.24 285.811 1024.27L284.984 1024.37C284.489 1024.44 284.118 1024.54 283.87 1024.69C283.45 1024.92 283.241 1025.3 283.241 1025.82ZM286.546 1023.06C286.86 1023.02 287.069 1022.89 287.176 1022.67C287.236 1022.55 287.267 1022.37 287.267 1022.15C287.267 1021.68 287.1 1021.34 286.766 1021.14C286.438 1020.92 285.965 1020.82 285.348 1020.82C284.636 1020.82 284.13 1021.01 283.832 1021.39C283.665 1021.61 283.557 1021.92 283.506 1022.34H282.232C282.258 1021.34 282.581 1020.65 283.203 1020.26C283.83 1019.86 284.555 1019.67 285.379 1019.67C286.334 1019.67 287.11 1019.85 287.706 1020.21C288.298 1020.58 288.593 1021.14 288.593 1021.91V1026.59C288.593 1026.73 288.621 1026.84 288.677 1026.93C288.737 1027.02 288.861 1027.06 289.048 1027.06C289.109 1027.06 289.177 1027.06 289.253 1027.05C289.329 1027.04 289.41 1027.03 289.496 1027.01V1028.02C289.283 1028.08 289.122 1028.12 289.01 1028.13C288.899 1028.15 288.748 1028.16 288.556 1028.16C288.085 1028.16 287.744 1027.99 287.532 1027.66C287.421 1027.48 287.342 1027.23 287.297 1026.91C287.019 1027.27 286.62 1027.59 286.099 1027.85C285.578 1028.12 285.005 1028.26 284.378 1028.26C283.625 1028.26 283.008 1028.03 282.528 1027.57C282.053 1027.11 281.815 1026.54 281.815 1025.85C281.815 1025.1 282.05 1024.52 282.52 1024.1C282.99 1023.69 283.607 1023.43 284.37 1023.34L286.546 1023.06ZM291.702 1024.02C291.702 1024.89 291.886 1025.62 292.255 1026.2C292.624 1026.79 293.216 1027.08 294.03 1027.08C294.661 1027.08 295.179 1026.81 295.584 1026.27C295.993 1025.72 296.198 1024.94 296.198 1023.93C296.198 1022.9 295.988 1022.14 295.569 1021.65C295.149 1021.16 294.631 1020.91 294.014 1020.91C293.327 1020.91 292.768 1021.17 292.339 1021.7C291.914 1022.22 291.702 1023 291.702 1024.02ZM293.757 1019.72C294.378 1019.72 294.899 1019.85 295.318 1020.11C295.561 1020.26 295.837 1020.53 296.145 1020.91V1016.81H297.457V1027.98H296.228V1026.85C295.91 1027.35 295.533 1027.72 295.099 1027.94C294.664 1028.16 294.166 1028.27 293.605 1028.27C292.7 1028.27 291.917 1027.89 291.255 1027.13C290.592 1026.37 290.261 1025.36 290.261 1024.09C290.261 1022.91 290.562 1021.89 291.164 1021.02C291.77 1020.15 292.635 1019.72 293.757 1019.72ZM302.862 1019.68C303.439 1019.68 303.997 1019.82 304.538 1020.09C305.079 1020.36 305.491 1020.71 305.774 1021.14C306.047 1021.55 306.229 1022.02 306.32 1022.57C306.401 1022.94 306.441 1023.54 306.441 1024.36H300.489C300.515 1025.18 300.709 1025.85 301.073 1026.35C301.437 1026.84 302.001 1027.09 302.764 1027.09C303.476 1027.09 304.045 1026.85 304.47 1026.38C304.712 1026.11 304.884 1025.79 304.985 1025.44H306.327C306.292 1025.73 306.173 1026.07 305.971 1026.44C305.774 1026.8 305.551 1027.1 305.304 1027.33C304.889 1027.74 304.376 1028.01 303.765 1028.15C303.436 1028.23 303.065 1028.27 302.65 1028.27C301.639 1028.27 300.782 1027.9 300.08 1027.17C299.377 1026.43 299.026 1025.4 299.026 1024.08C299.026 1022.77 299.38 1021.72 300.087 1020.9C300.795 1020.09 301.72 1019.68 302.862 1019.68ZM305.038 1023.27C304.983 1022.68 304.854 1022.21 304.652 1021.86C304.278 1021.2 303.653 1020.87 302.779 1020.87C302.152 1020.87 301.627 1021.1 301.202 1021.55C300.777 1022 300.552 1022.58 300.527 1023.27H305.038ZM313.075 1019.86L314.637 1026.26L316.221 1019.86H317.753L319.345 1026.22L321.006 1019.86H322.37L320.012 1027.98H318.595L316.942 1021.7L315.342 1027.98H313.924L311.581 1019.86H313.075ZM323.667 1019.9H325.054V1027.98H323.667V1019.9ZM323.667 1016.85H325.054V1018.39H323.667V1016.85ZM327.397 1017.6H328.777V1019.86H330.073V1020.98H328.777V1026.28C328.777 1026.56 328.873 1026.75 329.065 1026.85C329.171 1026.9 329.348 1026.93 329.596 1026.93C329.662 1026.93 329.732 1026.93 329.808 1026.93C329.884 1026.92 329.972 1026.92 330.073 1026.91V1027.98C329.917 1028.03 329.752 1028.06 329.581 1028.08C329.414 1028.1 329.232 1028.11 329.035 1028.11C328.398 1028.11 327.966 1027.95 327.738 1027.63C327.511 1027.3 327.397 1026.87 327.397 1026.35V1020.98H326.298V1019.86H327.397V1017.6ZM331.446 1016.81H332.81V1020.96C333.134 1020.55 333.425 1020.26 333.682 1020.1C334.122 1019.81 334.671 1019.67 335.328 1019.67C336.505 1019.67 337.304 1020.08 337.723 1020.9C337.951 1021.35 338.065 1021.98 338.065 1022.77V1027.98H336.662V1022.87C336.662 1022.27 336.586 1021.83 336.435 1021.55C336.187 1021.11 335.722 1020.89 335.04 1020.89C334.473 1020.89 333.96 1021.08 333.5 1021.47C333.04 1021.86 332.81 1022.6 332.81 1023.68V1027.98H331.446V1016.81ZM344.449 1016.85H345.813V1027.98H344.449V1016.85ZM351.09 1027.1C351.995 1027.1 352.614 1026.76 352.948 1026.08C353.286 1025.39 353.456 1024.63 353.456 1023.79C353.456 1023.03 353.334 1022.42 353.092 1021.94C352.708 1021.19 352.046 1020.82 351.105 1020.82C350.271 1020.82 349.665 1021.14 349.286 1021.77C348.907 1022.41 348.717 1023.18 348.717 1024.08C348.717 1024.94 348.907 1025.66 349.286 1026.24C349.665 1026.82 350.266 1027.1 351.09 1027.1ZM351.143 1019.63C352.19 1019.63 353.074 1019.98 353.797 1020.67C354.52 1021.37 354.881 1022.4 354.881 1023.75C354.881 1025.06 354.563 1026.14 353.926 1027C353.289 1027.85 352.301 1028.28 350.961 1028.28C349.844 1028.28 348.957 1027.9 348.3 1027.15C347.643 1026.39 347.314 1025.38 347.314 1024.1C347.314 1022.74 347.661 1021.65 348.353 1020.84C349.046 1020.03 349.976 1019.63 351.143 1019.63ZM357.178 1019.86L359.347 1026.47L361.614 1019.86H363.107L360.044 1027.98H358.589L355.594 1019.86H357.178ZM367.656 1019.68C368.233 1019.68 368.791 1019.82 369.332 1020.09C369.873 1020.36 370.285 1020.71 370.568 1021.14C370.841 1021.55 371.023 1022.02 371.114 1022.57C371.195 1022.94 371.235 1023.54 371.235 1024.36H365.283C365.309 1025.18 365.503 1025.85 365.867 1026.35C366.231 1026.84 366.795 1027.09 367.558 1027.09C368.271 1027.09 368.839 1026.85 369.264 1026.38C369.506 1026.11 369.678 1025.79 369.779 1025.44H371.121C371.086 1025.73 370.967 1026.07 370.765 1026.44C370.568 1026.8 370.345 1027.1 370.098 1027.33C369.683 1027.74 369.17 1028.01 368.559 1028.15C368.23 1028.23 367.859 1028.27 367.444 1028.27C366.433 1028.27 365.576 1027.9 364.874 1027.17C364.171 1026.43 363.82 1025.4 363.82 1024.08C363.82 1022.77 364.174 1021.72 364.881 1020.9C365.589 1020.09 366.514 1019.68 367.656 1019.68ZM369.832 1023.27C369.777 1022.68 369.648 1022.21 369.446 1021.86C369.072 1021.2 368.447 1020.87 367.573 1020.87C366.946 1020.87 366.421 1021.1 365.996 1021.55C365.571 1022 365.347 1022.58 365.321 1023.27H369.832ZM377.581 1018.63C377.601 1018.06 377.7 1017.65 377.877 1017.38C378.195 1016.92 378.809 1016.69 379.719 1016.69C379.805 1016.69 379.893 1016.69 379.984 1016.69C380.075 1016.7 380.179 1016.71 380.295 1016.72V1017.96C380.154 1017.95 380.05 1017.94 379.984 1017.94C379.924 1017.94 379.866 1017.94 379.81 1017.94C379.396 1017.94 379.148 1018.05 379.067 1018.26C378.986 1018.48 378.946 1019.02 378.946 1019.9H380.295V1020.98H378.931V1027.98H377.581V1020.98H376.451V1019.9H377.581V1018.63ZM384.784 1027.1C385.688 1027.1 386.308 1026.76 386.641 1026.08C386.98 1025.39 387.149 1024.63 387.149 1023.79C387.149 1023.03 387.028 1022.42 386.785 1021.94C386.401 1021.19 385.739 1020.82 384.799 1020.82C383.965 1020.82 383.358 1021.14 382.979 1021.77C382.6 1022.41 382.411 1023.18 382.411 1024.08C382.411 1024.94 382.6 1025.66 382.979 1026.24C383.358 1026.82 383.96 1027.1 384.784 1027.1ZM384.837 1019.63C385.883 1019.63 386.768 1019.98 387.49 1020.67C388.213 1021.37 388.575 1022.4 388.575 1023.75C388.575 1025.06 388.256 1026.14 387.619 1027C386.982 1027.85 385.994 1028.28 384.655 1028.28C383.538 1028.28 382.651 1027.9 381.994 1027.15C381.337 1026.39 381.008 1025.38 381.008 1024.1C381.008 1022.74 381.354 1021.65 382.047 1020.84C382.739 1020.03 383.669 1019.63 384.837 1019.63ZM390.243 1019.86H391.539V1021.27C391.645 1020.99 391.906 1020.66 392.32 1020.27C392.735 1019.88 393.212 1019.68 393.753 1019.68C393.778 1019.68 393.821 1019.68 393.882 1019.69C393.943 1019.69 394.046 1019.7 394.193 1019.72V1021.16C394.112 1021.14 394.036 1021.13 393.965 1021.13C393.9 1021.12 393.826 1021.12 393.745 1021.12C393.058 1021.12 392.53 1021.34 392.161 1021.79C391.792 1022.23 391.607 1022.74 391.607 1023.31V1027.98H390.243V1019.86ZM401.517 1016.85V1023.73C401.517 1024.54 401.668 1025.21 401.972 1025.75C402.422 1026.56 403.18 1026.96 404.246 1026.96C405.525 1026.96 406.394 1026.52 406.854 1025.65C407.102 1025.17 407.226 1024.53 407.226 1023.73V1016.85H408.757V1023.1C408.757 1024.47 408.573 1025.52 408.204 1026.26C407.527 1027.61 406.248 1028.28 404.368 1028.28C402.487 1028.28 401.211 1027.61 400.539 1026.26C400.17 1025.52 399.985 1024.47 399.985 1023.1V1016.85H401.517ZM410.888 1016.85H412.2V1023.31L415.702 1019.86H417.446L414.338 1022.9L417.621 1027.98H415.877L413.344 1023.89L412.2 1024.94V1027.98H410.888V1016.85ZM418.72 1019.86H420.016V1021.27C420.123 1020.99 420.383 1020.66 420.797 1020.27C421.212 1019.88 421.689 1019.68 422.23 1019.68C422.256 1019.68 422.298 1019.68 422.359 1019.69C422.42 1019.69 422.523 1019.7 422.67 1019.72V1021.16C422.589 1021.14 422.513 1021.13 422.443 1021.13C422.377 1021.12 422.304 1021.12 422.223 1021.12C421.535 1021.12 421.007 1021.34 420.638 1021.79C420.269 1022.23 420.085 1022.74 420.085 1023.31V1027.98H418.72V1019.86ZM424.899 1025.82C424.899 1026.22 425.043 1026.53 425.331 1026.75C425.619 1026.98 425.96 1027.1 426.355 1027.1C426.835 1027.1 427.3 1026.98 427.75 1026.76C428.508 1026.39 428.887 1025.79 428.887 1024.95V1023.85C428.72 1023.96 428.505 1024.05 428.243 1024.12C427.98 1024.19 427.722 1024.24 427.469 1024.27L426.643 1024.37C426.148 1024.44 425.776 1024.54 425.528 1024.69C425.109 1024.92 424.899 1025.3 424.899 1025.82ZM428.205 1023.06C428.518 1023.02 428.728 1022.89 428.834 1022.67C428.895 1022.55 428.925 1022.37 428.925 1022.15C428.925 1021.68 428.758 1021.34 428.425 1021.14C428.096 1020.92 427.623 1020.82 427.007 1020.82C426.294 1020.82 425.789 1021.01 425.49 1021.39C425.324 1021.61 425.215 1021.92 425.164 1022.34H423.891C423.916 1021.34 424.239 1020.65 424.861 1020.26C425.488 1019.86 426.213 1019.67 427.037 1019.67C427.992 1019.67 428.768 1019.85 429.365 1020.21C429.956 1020.58 430.252 1021.14 430.252 1021.91V1026.59C430.252 1026.73 430.28 1026.84 430.335 1026.93C430.396 1027.02 430.52 1027.06 430.707 1027.06C430.767 1027.06 430.836 1027.06 430.911 1027.05C430.987 1027.04 431.068 1027.03 431.154 1027.01V1028.02C430.942 1028.08 430.78 1028.12 430.669 1028.13C430.558 1028.15 430.406 1028.16 430.214 1028.16C429.744 1028.16 429.403 1027.99 429.19 1027.66C429.079 1027.48 429.001 1027.23 428.955 1026.91C428.677 1027.27 428.278 1027.59 427.757 1027.85C427.237 1028.12 426.663 1028.26 426.036 1028.26C425.283 1028.26 424.667 1028.03 424.186 1027.57C423.711 1027.11 423.474 1026.54 423.474 1025.85C423.474 1025.1 423.709 1024.52 424.179 1024.1C424.649 1023.69 425.265 1023.43 426.029 1023.34L428.205 1023.06ZM432.496 1019.9H433.883V1027.98H432.496V1019.9ZM432.496 1016.85H433.883V1018.39H432.496V1016.85ZM435.953 1019.86H437.25V1021.02C437.634 1020.54 438.041 1020.2 438.47 1019.99C438.9 1019.78 439.378 1019.68 439.903 1019.68C441.056 1019.68 441.834 1020.08 442.239 1020.89C442.461 1021.33 442.572 1021.96 442.572 1022.77V1027.98H441.185V1022.87C441.185 1022.37 441.111 1021.97 440.965 1021.67C440.722 1021.16 440.283 1020.91 439.646 1020.91C439.322 1020.91 439.057 1020.94 438.85 1021.01C438.476 1021.12 438.147 1021.34 437.864 1021.68C437.636 1021.94 437.487 1022.22 437.417 1022.51C437.351 1022.79 437.318 1023.2 437.318 1023.73V1027.98H435.953V1019.86ZM447.978 1019.68C448.554 1019.68 449.113 1019.82 449.654 1020.09C450.194 1020.36 450.606 1020.71 450.889 1021.14C451.162 1021.55 451.344 1022.02 451.435 1022.57C451.516 1022.94 451.557 1023.54 451.557 1024.36H445.605C445.63 1025.18 445.825 1025.85 446.189 1026.35C446.553 1026.84 447.116 1027.09 447.879 1027.09C448.592 1027.09 449.161 1026.85 449.585 1026.38C449.828 1026.11 450 1025.79 450.101 1025.44H451.443C451.408 1025.73 451.289 1026.07 451.087 1026.44C450.889 1026.8 450.667 1027.1 450.419 1027.33C450.005 1027.74 449.492 1028.01 448.88 1028.15C448.552 1028.23 448.18 1028.27 447.766 1028.27C446.755 1028.27 445.898 1027.9 445.196 1027.17C444.493 1026.43 444.142 1025.4 444.142 1024.08C444.142 1022.77 444.495 1021.72 445.203 1020.9C445.911 1020.09 446.836 1019.68 447.978 1019.68ZM450.154 1023.27C450.098 1022.68 449.97 1022.21 449.767 1021.86C449.393 1021.2 448.769 1020.87 447.895 1020.87C447.268 1020.87 446.742 1021.1 446.318 1021.55C445.893 1022 445.668 1022.58 445.643 1023.27H450.154Z" fill="#1B59B0"/>
</g>
<defs>
<clipPath id="clip0_1885_102">
<rect width="757.048" height="1071.22" fill="white"/>
</clipPath>
</defs>
</svg>
