<svg width="758" height="1072" viewBox="0 0 758 1072" fill="none" xmlns="http://www.w3.org/2000/svg">
<g clip-path="url(#clip0_1885_169)">
<rect width="757.048" height="1071.22" fill="#FFF3D7"/>
<rect x="66.168" y="80.5244" width="624.711" height="782.884" fill="#3D5ECA"/>
<rect x="185.207" y="863.408" width="413.046" height="207.812" fill="#FFF3D7"/>
<path d="M259.999 963.973C262.938 972.314 267.952 975.166 274.045 975.166C279.318 975.166 283.726 972.357 283.726 966.566C283.726 961.25 279.88 958.57 272.533 953.168C267.174 949.235 264.667 947.679 264.667 944.308C264.667 941.456 266.871 939.554 270.588 939.554C276.12 939.554 278.367 943.919 279.189 948.155L282.646 946.858C279.664 941.499 275.904 938.862 270.804 938.862C265.791 938.862 262.16 941.326 262.16 945.821C262.16 950.099 264.753 952.087 270.934 956.669C277.417 961.596 281.263 964.146 281.263 967.949C281.263 972.314 278.281 974.475 274.305 974.475C268.6 974.475 264.321 969.461 263.457 962.287L259.999 963.973ZM295.824 939.727C296.083 943.357 296.17 945.086 296.17 948.241V959.608C296.17 971.925 301.269 975.166 309.308 975.166C317.001 975.166 320.804 970.931 320.804 959.608V948.241C320.804 945.086 320.848 943.357 321.15 939.727H319.767C320.07 943.357 320.113 945.086 320.113 948.241V959.608C320.113 970.326 316.655 974.086 310.043 974.086C303.214 974.086 300.405 969.894 300.405 959.608V948.241C300.405 945.086 300.491 943.357 300.751 939.727H295.824ZM359.507 948.241C359.507 945.086 359.593 943.357 359.853 939.727H358.556C358.859 943.357 358.902 945.086 358.902 948.241V972.616L338.632 939.727H333.748C334.008 943.357 334.094 945.086 334.094 948.241V965.788C334.094 968.943 334.008 970.672 333.748 974.302H335.045C334.786 970.672 334.699 968.943 334.699 965.788V941.412L354.969 974.302H359.853C359.593 970.672 359.507 968.943 359.507 965.788V948.241ZM371.59 963.973C374.529 972.314 379.543 975.166 385.637 975.166C390.909 975.166 395.318 972.357 395.318 966.566C395.318 961.25 391.471 958.57 384.124 953.168C378.765 949.235 376.258 947.679 376.258 944.308C376.258 941.456 378.462 939.554 382.179 939.554C387.711 939.554 389.958 943.919 390.78 948.155L394.237 946.858C391.255 941.499 387.495 938.862 382.395 938.862C377.382 938.862 373.751 941.326 373.751 945.821C373.751 950.099 376.344 952.087 382.525 956.669C389.008 961.596 392.854 964.146 392.854 967.949C392.854 972.314 389.872 974.475 385.896 974.475C380.191 974.475 375.912 969.461 375.048 962.287L371.59 963.973ZM432.102 948.241C432.102 945.086 432.145 943.357 432.448 939.727H427.521C427.78 943.357 427.867 945.086 427.867 948.241V956.669H412.048V948.241C412.048 945.086 412.135 943.357 412.394 939.727H407.467C407.727 943.357 407.813 945.086 407.813 948.241V965.788C407.813 968.943 407.727 970.672 407.467 974.302H412.394C412.135 970.672 412.048 968.943 412.048 965.788V957.36H427.867V965.788C427.867 968.943 427.78 970.672 427.521 974.302H432.448C432.145 970.672 432.102 968.943 432.102 965.788V948.241ZM445.466 939.727C445.725 943.357 445.812 945.086 445.812 948.241V965.788C445.812 968.943 445.725 970.672 445.466 974.302H450.393C450.134 970.672 450.047 968.943 450.047 965.788V948.241C450.047 945.086 450.134 943.357 450.393 939.727H445.466ZM489.176 948.241C489.176 945.086 489.262 943.357 489.522 939.727H488.225C488.527 943.357 488.571 945.086 488.571 948.241V972.616L468.301 939.727H463.417C463.677 943.357 463.763 945.086 463.763 948.241V965.788C463.763 968.943 463.677 970.672 463.417 974.302H464.714C464.455 970.672 464.368 968.943 464.368 965.788V941.412L484.638 974.302H489.522C489.262 970.672 489.176 968.943 489.176 965.788V948.241ZM502.556 939.727C502.902 943.357 502.945 945.086 502.945 948.241V965.788C502.945 968.943 502.902 970.672 502.556 974.302H522.869L524.122 971.968C519.282 973.394 516.343 973.61 512.064 973.61H507.223V956.323H509.989C512.28 956.323 514.614 956.323 518.633 956.755V955.199C514.614 955.631 512.28 955.631 509.989 955.631H507.223V940.418H511.156C513.101 940.418 517.337 940.678 521.01 942.147L522.955 939.727H502.556Z" fill="#1B59B0"/>
<path d="M323.105 729.33C323.262 723.701 315.402 704.349 316.12 698.395C316.75 693.11 316.329 687.695 316.12 682.344C315.751 673.114 316.191 663.741 314.467 654.694C307.209 616.681 263.914 602.315 232.338 584.433C223.74 579.562 217.325 571.562 211.187 564.418C209.223 562.131 208.43 558.928 207.442 556.051C205.661 550.845 200.747 527.323 196.517 522.097C178.595 499.953 141.577 498.107 133.631 468.315C133.234 466.812 132.822 465.314 132.394 463.822C130.182 456.042 126.032 449.284 119.406 443.853C116.631 441.579 113.529 440.171 109.635 440.431C109.589 443.032 109.907 445.456 109.451 447.739C107.539 457.2 105.974 466.771 103.182 476.022C99.9113 486.88 96.2625 497.737 91.4325 508.056C82.9153 526.263 78.1947 545.072 80.1102 564.844C81.2472 576.6 87.8143 586.507 89.7835 597.993C92.7747 615.478 87.9236 633.365 86.9918 650.837C86.6927 656.506 87.2008 662.625 89.2582 667.941C96.3124 686.107 119.709 688.112 127.294 704.815C132.08 715.334 137.671 726.265 145.128 735.475C156.399 749.395 184.799 761.592 203.811 761.24C206.177 761.201 208.524 760.786 210.894 760.78C217.67 760.751 224.011 763.98 229.324 767.87C239.237 775.126 248.427 783.238 258.21 790.642C270.596 800.02 285.41 804.1 300.951 806.045C305.361 806.595 341.359 807.285 339.284 826.825L341.987 801.106C320.748 776.874 322.24 760.339 323.105 729.33Z" fill="#329E6C"/>
<path d="M389.569 837.564C390.002 831.861 391.646 813.693 392.025 808.312C392.278 804.703 393.57 801.238 394.453 797.717C398.595 781.247 396.341 764.676 402.28 748.374C404.376 742.62 406.594 736.867 409.36 731.37C412.425 725.272 416.338 719.547 419.577 713.522C422.187 708.674 424.296 703.599 426.713 698.663C428.444 695.13 430.331 691.67 432.116 688.167C434.729 683.03 448.447 630.671 449.582 624.873C451.362 615.794 450.58 606.76 449.81 597.808C447.353 569.164 438.102 539.029 432.195 510.363C430.859 503.895 429.525 497.425 428.156 490.963C427.8 489.296 427.669 483.665 426.25 482.426C424.055 480.749 421.531 483.205 415.195 484.166C414.457 484.276 415.203 482.783 415.203 482.393C410.527 480.512 407.876 483.343 406.493 486.047C404.907 489.145 404.172 492.944 404.286 496.399C404.744 509.787 408.344 522.931 408.747 536.303C409.03 545.72 408.513 555.16 408.224 564.585C407.816 577.905 408.475 609.28 405.819 622.368C398.992 655.988 377.401 693.41 374.162 698.439C362.893 715.976 352.189 725.956 346.531 745.346C344.5 752.321 344.29 759.75 343.267 766.975C342.012 775.843 342.655 778.526 341.915 787.45C341.838 788.404 335.845 846.973 334.685 853.069C333.627 858.611 332.737 864.181 331.956 869.756C330.627 879.268 328.379 888.804 328.477 898.316C328.602 910.683 332.731 915.469 344.032 919.172C354.32 922.544 365.104 924.131 376.176 921.822C380.179 920.988 384.181 920.105 388.1 919.351C391.197 918.75 390.12 920.145 391.437 916.673C392.212 914.626 392.428 912.066 392.422 909.911C392.398 901.243 391.869 892.58 391.581 883.917L389.456 860.832C388.911 855.975 389.22 842.137 389.569 837.564Z" fill="#329E6C"/>
<path d="M667.512 639.081C670.053 628.484 673.916 618.301 679.956 609.088C681.143 607.28 681.667 605.001 682.79 602.217C681.258 602.636 680.671 602.803 680.077 602.963C664.58 607.048 648.961 610.403 633.594 615.17C624.692 617.933 616.923 621.55 607.816 619.393C598.289 617.141 588.898 614.324 579.322 612.279C571.56 610.616 563.492 611.679 556.197 615.241C539.022 623.624 528.702 638.198 515.247 651.675C508.235 658.703 500.127 661.781 491.278 663.091C480.589 664.675 471.556 669.535 463.897 678.107C455.564 687.433 450.42 698.431 446.882 710.387C444.463 718.564 445.043 732.734 440.505 739.863C434.711 748.959 424.756 751.541 418.447 760.254C414.853 765.225 412.253 770.542 410.439 776.391C407.057 787.314 394.339 796.342 387.673 805.729C377.781 811.572 387.673 840.642 387.673 840.642C387.673 826.638 394.868 817.498 396.911 815.339C412.575 798.776 425.1 815.103 446.107 819.475C461.064 822.587 474.286 819.839 488.76 824.275C501.175 828.081 517.199 838.517 561.77 831.878C568.37 830.894 573.423 824.448 579.174 820.593C585.472 816.371 591.765 811.679 595.513 804.797C616.375 766.508 605.412 748.315 609.752 742.109C612.776 737.786 615.858 733.504 620.746 731.776C639.031 725.313 650.948 712.419 657.536 692.949C663.531 675.308 663.227 656.954 667.512 639.081Z" fill="#329E6C"/>
<path d="M292.449 237.775C289.282 241.305 287.416 245.696 285.653 250.039C283.034 256.485 277.374 263.343 269.225 259.522C233.144 246.941 202.558 222.605 181.58 190.742C175.836 181.532 168.714 173.422 163.797 163.787C161.246 158.169 157.443 152.832 155.49 147.108C161.714 147.7 167.574 150.267 173.71 151.492C181.347 153.327 189.516 152.777 197.359 154.518C203.403 155.858 209.918 157.815 215.282 160.989C220.077 163.825 223.882 168.278 229.716 169.129C237.456 171.292 244.439 175.517 251.127 179.826C263.638 188.082 275.416 197.588 286.475 207.678C297.505 219.141 305.234 222.518 292.449 237.775Z" fill="#FFC300" stroke="#FFC300" stroke-width="22.2937"/>
<path d="M398.061 445.699C397.254 459.258 397.124 472.587 395.444 486.015C394.169 497.056 393.791 508.384 391.213 519.117C389.014 535.869 387.432 556.719 380.706 571.834C377.818 578.323 374.803 584.505 372.461 591.331C370.166 598.023 367.063 605.647 363.257 611.253C362.715 612.052 362.335 613 361.403 613.281C356.493 594.588 347.984 561.05 347.19 541.497C346.655 530.988 347.609 520.411 347.437 509.912C347.939 497.444 350.585 485.349 352.061 473.043C352.948 469.649 354.84 454.222 357.189 453.881C373.811 448.971 372.937 429.016 398.061 445.699Z" fill="#FFC300" stroke="#FFC300" stroke-width="22.2937"/>
<path d="M497.851 591.106C491.326 591.023 481.193 585.377 479.787 584.411C476.105 581.88 473.035 578.602 469.613 575.748C463.515 570.662 458.71 562.7 454.172 556.242C449.019 548.91 444.206 541.343 439.704 533.595C430.686 518.073 422.924 501.838 416.13 485.228C416.007 484.927 415.815 484.561 415.727 484.24C414.073 478.232 412.65 472.099 411.174 466.038C410.838 464.573 410.682 462.993 411.9 461.65C412.914 460.55 412.538 459.301 411.977 458.064C409.127 452.856 411.531 446.964 416.026 443.618C422.988 437.574 445.878 429.863 452.435 438.021C454.33 441.733 456.132 445.528 458.151 449.163C460.014 450.934 461.327 453.014 462.499 455.322C465.596 460.042 469.296 464.524 471.124 470.006C473.385 475.629 474.082 482.023 476.471 487.375C477.509 489.678 478.096 492.192 478.716 494.66C479.625 499.188 480.342 503.77 481.443 508.265C484.168 518.482 486.122 528.828 487.859 539.236C488.847 543.547 487.697 547.495 486.766 551.558C484.771 565.065 490.675 576.805 497.851 591.106Z" fill="#FFC300" stroke="#FFC300" stroke-width="22.2937"/>
<path d="M175.185 500.305C177.319 497.762 179.101 495.728 180.759 493.603C182.035 491.94 182.712 490 184.109 488.41C187.914 484.077 191.58 479.603 194.497 474.611C196.657 470.916 197.825 466.754 199.853 462.997C201.632 459.702 204.098 456.766 206.07 453.57C209.898 447.359 213.188 440.837 216.49 434.338C223.039 421.451 229.737 408.18 240.352 398.097C243.47 395.135 246.886 392.495 250.564 390.265C250.566 390.263 250.568 390.263 250.57 390.261C257.098 385.461 263.27 380.194 269.789 375.381C272.972 373.03 276.236 370.78 279.645 368.765C281.755 367.518 287.148 363.326 289.613 365.059C294.012 368.151 297.993 374.193 301.475 378.306C304.394 381.757 309.356 386.684 308.445 391.644C307.372 397.482 303.519 404.218 300.773 409.442C295.173 420.092 286.789 428.908 278.765 437.758C267.08 450.427 253.758 461.537 239.432 471.098C232.269 475.878 224.852 480.278 217.244 484.31C213.788 486.142 210.458 487.478 206.864 488.854C203.587 490.108 200.922 492.563 197.668 493.862C190.309 496.797 182.923 498.475 175.185 500.305Z" fill="#FFC300" stroke="#FFC300" stroke-width="22.2937"/>
<path d="M99.2354 281.882C114.237 265.342 131.781 264.773 152.007 262.803C159.058 262.116 166.165 262.156 173.192 261.163C180.214 260.171 187.086 259.812 194.127 260.975C201.98 262.272 209.593 265.247 217.641 266.333C228.835 267.842 240.173 268.828 251.249 271.088C260.7 273.563 279.459 270.929 286.488 280.039C288.614 284.905 291.149 289.964 289.108 295.412C287.023 303.767 285.549 312.79 280.506 319.858C279.418 321.368 277.749 322.059 275.813 321.652C266.864 320.664 257.824 323.55 248.769 323.03C228.997 321.893 208.852 322.975 189.03 319.943C179.03 318.415 169.12 315.955 159.743 311.946C150.616 308.043 142.674 301.944 133.526 298.044C124.649 294.26 115.42 291.468 106.581 287.581C103.805 286.405 101.422 284.487 99.2354 281.882Z" fill="#FFC300" stroke="#FFC300" stroke-width="22.2937"/>
<path d="M594.282 504.783C586.65 504.075 580.212 503.959 573.046 502.711C556.77 500.277 558.123 505.535 540.595 497.644C511.359 486.2 478.737 465.092 466.097 434.84C462.887 430.527 462.626 427.19 467.366 423.952C473.188 419.718 478.862 415.231 485.434 412.124C491.892 407.428 498.737 404.912 506.679 405.906C512.448 406.288 512.444 406.497 516.821 410.338C528.682 419.857 536.455 433.476 547.312 444.075C553.127 450.34 558.95 456.623 564.228 463.356C566.575 466.352 570.068 469.963 571.465 473.529C572.773 476.861 574.405 479.091 576.653 481.808C579.249 484.95 581.087 488.659 583.894 491.644C587.569 495.943 591.405 499.823 594.282 504.783Z" fill="#FFC300" stroke="#FFC300" stroke-width="22.2937"/>
<path d="M313.404 408.108C316.049 401.002 331.353 388.245 340.435 394.592C345.566 398.184 350.956 401.45 356.48 405.012C357.775 405.847 356.852 414.998 356.826 416.594C356.76 420.781 356.482 424.964 355.983 429.125C355.024 437.156 353.243 445.096 350.682 452.817C348.08 460.664 344.679 468.275 340.624 475.571C334.455 486.67 325.071 497.305 316.503 506.899C306.952 517.591 296.52 527.586 285.572 537.046C278.14 543.474 272.904 552.102 264.402 557.409C259.254 560.133 254.583 563.433 249.401 566.121C250.788 557.72 251.159 549.873 255.717 542.518C260.827 532.057 262.837 520.691 267.508 510.088C271.147 498.996 274.637 487.837 278.439 476.795C283.967 451.256 304.95 430.86 313.404 408.108Z" fill="#FFC300" stroke="#FFC300" stroke-width="22.2937"/>
<path d="M662.189 293.536C657.729 296.859 653.431 298.162 648.588 300.035C638.942 303.827 628.947 306.62 618.981 309.357C598.55 316.235 577.828 323.254 556.239 325.243C545.783 326.836 535.131 326.542 524.681 325.002C520.087 324.324 515.451 322.943 511.862 319.997C509.463 318.027 509.33 316.16 508.778 313.379C508.148 310.204 506.24 307.42 505.98 304.146C505.413 299.193 503.957 294.081 506.477 289.454C506.72 288.896 507.492 288.384 508.126 288.227C513.122 286.94 518.157 285.605 523.116 284.318C527.466 283.19 532.464 283.892 536.644 282.362C537.866 281.914 538.973 281.201 540.161 280.668C543.095 279.353 546.351 279.206 549.49 278.763C552.878 278.286 555.735 276.606 558.897 275.931C578.941 271.654 599.092 271.189 619.605 273.467C628.283 274.921 637.768 274.947 644.867 280.885C650.791 285.163 656.515 288.646 662.189 293.536Z" fill="#FFC300" stroke="#FFC300" stroke-width="22.2937"/>
<path d="M268.853 67.9304C272.082 69.3809 273.914 70.8588 274.757 71.8509C276.934 74.4052 276.842 73.9394 278.788 76.6607C283.858 83.7296 290.705 89.227 296.499 95.6577C302.059 101.83 306.981 108.789 312.089 115.35C322.721 129.004 332.949 143.194 339.954 159.107C340.304 159.903 340.673 160.699 340.983 161.511C344.144 169.785 349.851 177.307 349.324 186.538C351.934 195.69 337.559 202.014 331.009 205.437C326.3 207.898 322.125 209.079 317.198 206.472C308.968 202.115 303.128 195.42 297.301 188.324C295.337 185.932 293.607 183.363 291.686 180.941C285.977 173.119 284.151 163.328 280.231 154.606C269.043 136.929 268.864 127.584 269.172 107.201C268.904 102.413 267.063 97.7317 268.062 92.876C269.212 84.6042 268.545 76.2627 268.853 67.9304Z" fill="#FFC300" stroke="#FFC300" stroke-width="22.2937"/>
<path d="M652.261 406.744C640.326 411.314 628.268 410.847 617.001 411.314C611.025 411.563 605.034 411.692 599.054 411.811C586.867 412.055 574.661 411.932 562.523 410.689C557.306 409.418 552.066 408.314 546.766 407.392C537.613 405.503 529.04 401.379 520.467 397.754C511.779 393.894 504.254 388.039 496.397 382.78C493.531 380.378 494.966 372.357 496.684 369.372C498.837 364.129 500.486 358.707 504.568 354.53C506.773 352.095 508.869 349.572 511.033 347.096C513.144 344.336 515.331 345.156 518.115 344.072C520.363 342.979 522.475 343.449 524.711 344.182C527.885 345.217 531.02 346.243 534.506 346.245C540.515 347.061 546.301 350.07 551.782 352.676C580.15 367.128 592.809 367.169 620.668 382.78C623.43 384.322 643.671 397.754 652.261 406.744Z" fill="#FFC300" stroke="#FFC300" stroke-width="22.2937"/>
<path d="M96.4121 405.369C111.144 395.579 111.283 389.583 120.386 383.502C134.351 374.172 144.418 370.476 156.895 365.965C161.708 364.463 166.23 362.363 170.365 359.461C182.101 351.306 207.188 345.581 220.959 342.444C225.229 341.228 229.68 340.563 233.917 339.27C236.226 338.456 262.063 334.926 262.376 337.916C262.837 344.01 262.321 350.12 263.539 356.167C264.36 359.936 263.955 363.209 261.201 365.987C251.127 377.798 240.951 383.878 226.462 388.437C224.85 388.935 218.806 391.783 214.275 394.526C200.722 402.732 186.296 397.908 170.901 399.961C159.64 401.318 148.311 402.292 136.984 402.457C129.499 401.197 120.659 404.63 115.888 406.035C112.127 407.142 99.964 409.007 96.4121 405.369Z" fill="#FFC300" stroke="#FFC300" stroke-width="22.2937"/>
<path d="M479.53 81.2871C485.818 93.4927 484.371 105.957 481.675 118.673C479.989 126.626 479.382 134.668 477.255 142.585C475.976 147.345 474.126 151.965 473.073 156.779C472.025 161.576 472.684 166.62 471.004 171.293C465.152 187.572 456.681 202.846 451.222 219.234C449.865 223.311 446.643 226.515 441.617 225.571C439.981 225.265 438.487 224.5 436.905 223.994C432.434 222.563 426.911 224.329 422.026 223.054C416.899 221.718 411.965 219.073 408.64 215.082C406.95 213.051 405.103 210.174 404.69 207.575C404.254 204.857 405.59 202.054 406.012 199.295C406.987 192.935 406.826 186.458 408.901 180.275C410.757 174.746 411.81 169.005 414.873 163.893C418.872 153.238 425.792 144.092 432.086 134.613C439.764 122.401 449.127 111.328 459.374 100.99C465.951 93.9944 471.004 90.1508 479.53 81.2871Z" fill="#FFC300" stroke="#FFC300" stroke-width="22.2937"/>
<path d="M389.782 195.378C383.754 194.958 377.371 195.264 371.359 194.439C367.167 191.718 361.919 189.094 360.622 183.771C358.292 173.77 356.401 163.664 354.751 153.527C352.539 140.242 354.795 126.801 357.045 113.694C359.885 105.807 362.715 97.7483 365.339 89.7607C366.875 85.0811 367.75 80.1044 368.907 75.3221C370.316 69.4941 374.456 61.5229 377.357 56.2554C379.035 58.6427 383.652 63.405 384.101 64.2503C387.29 70.2666 388.148 78.4816 389.842 85.0591C391.881 92.977 393.836 100.921 395.499 108.928C398.732 124.485 400.749 140.193 400.082 156.102C399.801 162.789 400.366 169.504 399.37 176.152C399.167 177.747 399.588 179.566 399.088 181.112C398.616 182.566 397.414 183.789 396.816 185.241C396.009 187.2 395.514 189.12 394.173 190.803C392.857 192.455 391.06 193.673 389.782 195.378Z" fill="#FFC300" stroke="#FFC300" stroke-width="22.2937"/>
<path d="M489.361 254.853C491.4 243.93 500.284 240.343 508.394 235.222C513.661 233.175 519.028 231.584 523.389 227.841C528.382 223.553 534.592 220.607 539.369 216.227C546.018 210.129 561.689 201.166 571.497 202.514C574.305 202.899 579.102 200.972 581.993 200.266C585.485 199.413 588.905 198.28 592.392 197.433C596.696 196.388 601.2 195.863 605.6 195.44C607.519 195.255 620.362 195.343 624.108 197.778C615.607 204.172 606.444 215.163 597.705 221.346C587.992 228.681 579.032 237.072 569.269 244.344C554.143 254.602 537.809 263.776 520.126 268.753C514.031 270.112 508.781 273.605 502.648 274.839C494.623 276.032 488.368 260.169 489.361 254.853Z" fill="#FFC300" stroke="#FFC300" stroke-width="22.2937"/>
<path d="M564.885 126.774C561.126 140.395 555.801 152.105 549.335 164.277C544.727 172.717 538.3 180.791 532.825 188.659C528.352 195.086 523.792 201.486 518.553 207.319C514.029 212.353 507.841 219.363 501.181 221.446C495.168 223.327 478.536 229.996 474.612 221.596C472.052 217.261 470.105 217.098 470.637 211.296C470.793 207.607 472.942 205.362 474.935 202.44C477.117 199.242 478.606 195.629 480.818 192.448C483.205 189.011 485.737 185.683 487.987 182.146C490.074 179.053 491.679 175.402 494.394 173.036C498.216 169.708 500.405 165.294 503.676 161.669C512.54 153.504 521.245 144.983 530.364 137.151C534.796 133.346 540.695 132.803 545.994 130.889C552.425 128.565 557.941 127.009 564.885 126.774Z" fill="#FFC300" stroke="#FFC300" stroke-width="22.2937"/>
<path d="M537.434 275.912C544.216 291.055 540.041 307.354 542.963 323.235C543.248 357.258 539.899 393.22 519.134 421.755C510.89 430.968 483.114 457.4 470.516 458.657C440.475 470.38 405.416 477.649 373.783 468.193C354.971 463.532 332.616 453.052 316.678 442.691C299.1 430.675 288.074 415.331 273.612 399.485C254.437 381.901 254.93 355.048 252.483 331.071C255.039 319.143 254.977 307.108 253.848 294.945C253.928 273.398 262.119 229.546 277.569 214.483C307.974 190.834 313.118 173.288 359.234 173.288C372.611 171.987 385.019 177.35 397.768 180.661C410.633 182.567 422.987 186.328 435.571 189.543C493.187 201.79 481.973 203.903 525.372 243.557C528.06 245.885 529.802 248.694 530.422 252.079C531.198 260.247 537.39 268.488 537.434 275.912Z" fill="#FF6B00"/>
<path d="M483.298 412.392C482.963 412.713 482.62 413.02 482.287 413.34C482.172 413.25 482.071 413.16 481.955 413.082C482.221 412.701 482.498 412.321 482.764 411.954C482.948 412.091 483.117 412.242 483.298 412.392Z" fill="#FFC300" stroke="#FFC300" stroke-width="4.87088" stroke-linecap="round" stroke-linejoin="round"/>
<path d="M435.537 325.857C434.638 326.06 432.828 326.376 431.081 326.856C429.022 327.425 428.669 327.294 427.892 325.352C427.472 324.304 426.989 323.283 426.466 322.281C425.507 320.456 425.736 319.555 427.603 318.72C428.289 318.418 429.134 318.341 429.895 318.371C431.3 318.407 432.695 318.594 434.087 318.708C436.858 318.963 439.367 321.082 439.488 323.281C439.631 325.788 438.951 326.403 435.537 325.857Z" fill="#FFC300" stroke="#FFC300" stroke-width="4.87088" stroke-linecap="round" stroke-linejoin="round"/>
<path d="M389.388 374.272C390.324 372.2 391.059 370.295 393.264 369.613C394.335 369.279 398.378 369.931 399.128 370.748C399.911 371.584 399.802 372.822 398.929 373.826C398.264 374.596 397.696 375.439 396.999 376.183C395.924 377.328 394.819 378.36 392.97 377.895C391.379 377.491 389.714 377.35 388.084 377.045C387.396 376.917 386.69 376.762 386.057 376.484C385.045 376.025 384.509 374.866 384.929 374.148C385.444 373.249 386.242 373.084 387.192 373.474C387.838 373.716 388.492 373.935 389.388 374.272Z" fill="#FFC300" stroke="#FFC300" stroke-width="4.87088" stroke-linecap="round" stroke-linejoin="round"/>
<path d="M332.404 402.064C331.761 404.269 330.755 406.067 328.751 407.111C327.443 407.784 326.195 407.566 325.052 406.733C324.642 406.425 324.303 405.998 323.949 405.627C321.866 403.448 321.886 400.288 324.007 398.197C324.131 398.07 324.254 397.942 324.399 397.854C326.414 396.717 331.311 398.476 332.128 400.64C332.304 401.12 332.327 401.659 332.404 402.064Z" fill="#FFC300" stroke="#FFC300" stroke-width="4.87088" stroke-linecap="round" stroke-linejoin="round"/>
<path d="M333.472 360.856C334.711 361.753 336.116 362.491 337.139 363.595C338.315 364.865 337.335 367.454 335.588 368.102C333.326 368.945 331.307 368.05 329.452 366.941C328.47 366.354 328.214 364.445 328.744 363.336C329.336 362.137 330.024 361.013 331.674 361.174C332.193 361.221 332.721 361.197 333.244 361.208C333.321 361.086 333.396 360.964 333.472 360.856Z" fill="#FFC300" stroke="#FFC300" stroke-width="4.87088" stroke-linecap="round" stroke-linejoin="round"/>
<path d="M485.408 351.78C486.206 352.413 486.796 352.909 487.416 353.363C488.634 354.256 490.385 354.373 490.951 356.192C491.524 358.048 491.075 359.791 489.569 360.508C487.898 361.297 485.91 360.72 485.101 359.022C484.355 357.466 484.001 355.768 482.778 354.386C482.032 353.546 482.628 352.754 483.883 352.398C484.477 352.226 485.041 351.932 485.408 351.78Z" fill="#FFC300" stroke="#FFC300" stroke-width="4.87088" stroke-linecap="round" stroke-linejoin="round"/>
<path d="M288.725 335.097C289.821 334.589 290.658 334.213 291.479 333.797C292.479 333.285 293.307 333.173 293.815 334.458C293.965 334.85 294.302 335.181 294.605 335.485C296.26 337.212 295.986 339.157 293.807 340.262C293.039 340.648 292.133 340.811 291.263 340.886C288.086 341.163 287.243 340.069 288.208 337.071C288.414 336.418 288.556 335.721 288.725 335.097Z" fill="#FFC300" stroke="#FFC300" stroke-width="4.87088" stroke-linecap="round" stroke-linejoin="round"/>
<path d="M475.308 324.418C475.891 324.891 476.4 325.187 476.736 325.614C478.171 327.444 478.146 327.463 480.4 326.944C481.033 328.808 482.069 330.597 481.279 332.733C480.085 333.253 478.896 333.772 477.691 334.291C476.275 333.718 475.565 332.967 475.406 331.225C475.226 329.111 474.13 327.066 475.308 324.418Z" fill="#FFC300" stroke="#FFC300" stroke-width="4.87088" stroke-linecap="round" stroke-linejoin="round"/>
<path d="M309.505 269.419C309.84 267.111 311.508 265.915 313.838 266.326C315.577 266.633 316.98 268.791 316.725 270.775C316.551 272.15 314.091 273.741 312.461 273.521C310.352 273.235 309.198 271.622 309.505 269.419Z" fill="#FFC300" stroke="#FFC300" stroke-width="4.87088" stroke-linecap="round" stroke-linejoin="round"/>
<path d="M398.151 322.197C396.239 325.222 393.076 326.193 390.478 324.66C388.466 323.469 388.38 321.547 390.304 320.291C392.805 318.643 396.405 319.465 398.151 322.197Z" fill="#FFC300" stroke="#FFC300" stroke-width="4.87088" stroke-linecap="round" stroke-linejoin="round"/>
<path d="M353.065 343.748C355.053 343.79 356.928 344.4 358.609 345.571C359.832 346.416 359.933 347.182 359.231 349.022C358.789 350.18 358.041 351.118 356.719 350.834C355.106 350.485 353.53 349.865 352.546 348.396C351.58 346.963 351.722 345.824 353.065 343.748Z" fill="#FFC300" stroke="#FFC300" stroke-width="4.87088" stroke-linecap="round" stroke-linejoin="round"/>
<path d="M356.321 279.576C355.472 279.749 354.626 279.932 353.768 280.091C352.138 280.408 350.778 279.773 350.04 278.347C349.526 277.369 349.815 275.14 350.654 274.394C351.008 274.072 351.559 273.885 352.042 273.84C352.552 273.789 353.073 273.99 353.597 274.096C357.43 274.889 357.899 275.835 356.321 279.576Z" fill="#FFC300" stroke="#FFC300" stroke-width="4.87088" stroke-linecap="round" stroke-linejoin="round"/>
<path d="M328.687 304.932C328.941 301.885 328.938 301.908 331.216 301.573C331.899 301.473 332.568 301.194 333.185 300.87C334.47 300.196 335.534 300.435 336.482 301.47C337.368 302.436 337.726 304.027 337.186 304.849C336.446 305.99 335.345 306.475 334.018 306.213C332.25 305.842 330.511 305.379 328.687 304.932Z" fill="#FFC300" stroke="#FFC300" stroke-width="4.87088" stroke-linecap="round" stroke-linejoin="round"/>
<path d="M319.747 223.466C321.081 223.048 322.435 222.036 323.957 223.316C324.193 223.514 324.787 223.273 325.208 223.258C327.177 223.166 327.975 223.619 328.177 224.959C328.477 226.898 327.554 228.265 325.71 228.662C323.301 229.174 321.922 228.415 320.978 226.126C320.609 225.217 320.163 224.357 319.747 223.466Z" fill="#FFC300" stroke="#FFC300" stroke-width="4.87088" stroke-linecap="round" stroke-linejoin="round"/>
<path d="M463.867 392.122C464.101 390.745 464.596 389.902 465.934 389.891C466.363 389.889 466.814 389.818 467.241 389.746C469.154 389.381 470.154 389.756 470.683 391.058C471.237 392.422 470.743 394.587 469.688 395.425C468.659 396.241 467.041 396.382 466.037 395.685C464.742 394.758 463.294 393.894 463.867 392.122Z" fill="#FFC300" stroke="#FFC300" stroke-width="4.87088" stroke-linecap="round" stroke-linejoin="round"/>
<path d="M447.84 348.048C448.872 349.787 448.254 351.353 447.343 352.709C446.628 353.771 443.968 353.927 442.712 353.243C440.7 352.136 440.151 350.534 440.732 347.209C442.9 348.563 445.176 348.944 447.84 348.048Z" fill="#FFC300" stroke="#FFC300" stroke-width="4.87088" stroke-linecap="round" stroke-linejoin="round"/>
<path d="M453.183 289.815C453.387 289.985 453.475 290.034 453.514 290.109C453.812 290.65 454.095 291.191 454.297 291.564C453.778 292.939 453.31 294.189 452.733 295.736C452.261 295.864 451.523 296.194 450.766 296.235C449.275 296.321 447.99 295.502 447.66 294.3C447.244 292.786 447.501 291.317 448.49 290.099C448.76 289.779 449.432 289.665 449.921 289.661C451.069 289.648 452.199 289.766 453.183 289.815Z" fill="#FFC300" stroke="#FFC300" stroke-width="4.87088" stroke-linecap="round" stroke-linejoin="round"/>
<path d="M411.337 283.827C411.359 284.642 411.406 285.436 411.385 286.221C411.34 287.793 410.58 288.657 409.107 288.325C407.798 288.031 406.509 287.317 405.385 286.534C404.643 286.015 405.295 282.677 406.132 281.871C406.97 281.077 408.472 281.446 409.667 282.66C410.141 283.128 410.767 283.439 411.337 283.827Z" fill="#FFC300" stroke="#FFC300" stroke-width="4.87088" stroke-linecap="round" stroke-linejoin="round"/>
<path d="M386.216 218.896C389.386 217.186 391.877 217.379 394.107 219.614C395.201 220.704 395.214 222.128 394.508 223.823C390.965 223.441 388.256 221.847 386.216 218.896Z" fill="#FFC300" stroke="#FFC300" stroke-width="4.87088" stroke-linecap="round" stroke-linejoin="round"/>
<path d="M367.957 252.594C366.595 250.475 367.255 248.689 367.809 246.962C368.199 245.759 369.799 245.664 370.861 246.739C371.457 247.357 371.931 248.101 372.457 248.792C373.667 250.353 373.598 251.048 371.809 251.751C370.571 252.241 369.173 252.339 367.957 252.594Z" fill="#FFC300" stroke="#FFC300" stroke-width="4.87088" stroke-linecap="round" stroke-linejoin="round"/>
<path d="M431.522 251.323C430.619 254.295 433.686 254.122 434.409 255.94C433.394 256.556 432.399 256.85 431.247 256.635C430.383 256.483 429.514 256.389 428.649 256.251C427.294 256.031 426.112 254.965 426.099 253.995C426.084 252.775 426.828 251.945 428.426 251.61C429.261 251.436 430.145 251.436 431.522 251.323Z" fill="#FFC300" stroke="#FFC300" stroke-width="4.87088" stroke-linecap="round" stroke-linejoin="round"/>
<path d="M497.402 247.869C497.801 247.923 498.061 247.934 498.307 247.991C501.016 248.618 501.962 249.75 501.885 252.438C501.853 253.461 501.394 254.39 500.311 254.638C499.226 254.898 498.286 254.686 497.683 253.495C496.525 251.177 496.413 250.327 497.402 247.869Z" fill="#FFC300" stroke="#FFC300" stroke-width="4.87088" stroke-linecap="round" stroke-linejoin="round"/>
<path d="M421.304 406.948C420.371 409.08 419.856 409.189 418.34 407.935C417.287 407.064 416.066 406.386 414.532 405.367C414.193 404.605 414.445 403.527 415.605 402.898C416.802 402.246 417.859 402.926 418.676 403.763C419.586 404.711 420.364 405.781 421.304 406.948Z" fill="#FFC300" stroke="#FFC300" stroke-width="4.87088" stroke-linecap="round" stroke-linejoin="round"/>
<path d="M367.719 401.729C368.544 402.257 369.269 402.724 369.994 403.192C370.595 406.354 370.589 406.388 369.188 406.869C367.421 407.476 365.902 407.059 365.31 405.796C364.739 404.608 365.398 403.445 367.719 401.729Z" fill="#FFC300" stroke="#FFC300" stroke-width="4.87088" stroke-linecap="round" stroke-linejoin="round"/>
<path d="M488.236 284.236C490.492 284.768 492.043 285.049 493.532 285.511C494.643 285.852 495.174 287.07 494.805 288.035C494.398 289.091 493.435 289.247 492.605 288.932C491.309 288.449 490.02 287.831 488.937 287.006C488.484 286.647 488.551 285.616 488.236 284.236Z" fill="#FFC300" stroke="#FFC300" stroke-width="4.87088" stroke-linecap="round" stroke-linejoin="round"/>
<path d="M437.84 225.976C437.313 224.294 436.86 222.87 436.294 221.051C438.137 221.551 439.406 222.235 440.46 223.273C441.154 223.964 441.792 224.801 441.185 225.854C440.625 226.817 439.698 226.62 438.825 226.36C438.493 226.255 438.169 226.103 437.84 225.976Z" fill="#FFC300" stroke="#FFC300" stroke-width="4.87088" stroke-linecap="round" stroke-linejoin="round"/>
<rect x="308.666" y="863.408" width="166.255" height="71.894" fill="#FFF3D7"/>
<path d="M300.819 1016.85H302.979L306.179 1026.26L309.356 1016.85H311.494V1027.98H310.061V1021.41C310.061 1021.18 310.066 1020.81 310.076 1020.28C310.086 1019.75 310.091 1019.19 310.091 1018.59L306.914 1027.98H305.421L302.221 1018.59V1018.93C302.221 1019.2 302.226 1019.62 302.236 1020.18C302.252 1020.74 302.259 1021.15 302.259 1021.41V1027.98H300.819V1016.85ZM314.655 1025.82C314.655 1026.22 314.8 1026.53 315.088 1026.75C315.376 1026.98 315.717 1027.1 316.111 1027.1C316.591 1027.1 317.056 1026.98 317.506 1026.76C318.264 1026.39 318.643 1025.79 318.643 1024.95V1023.85C318.477 1023.96 318.262 1024.05 317.999 1024.12C317.736 1024.19 317.478 1024.24 317.226 1024.27L316.399 1024.37C315.904 1024.44 315.532 1024.54 315.285 1024.69C314.865 1024.92 314.655 1025.3 314.655 1025.82ZM317.961 1023.06C318.275 1023.02 318.484 1022.89 318.59 1022.67C318.651 1022.55 318.681 1022.37 318.681 1022.15C318.681 1021.68 318.515 1021.34 318.181 1021.14C317.852 1020.92 317.38 1020.82 316.763 1020.82C316.051 1020.82 315.545 1021.01 315.247 1021.39C315.08 1021.61 314.971 1021.92 314.921 1022.34H313.647C313.672 1021.34 313.996 1020.65 314.618 1020.26C315.244 1019.86 315.97 1019.67 316.794 1019.67C317.749 1019.67 318.525 1019.85 319.121 1020.21C319.713 1020.58 320.008 1021.14 320.008 1021.91V1026.59C320.008 1026.73 320.036 1026.84 320.092 1026.93C320.152 1027.02 320.276 1027.06 320.463 1027.06C320.524 1027.06 320.592 1027.06 320.668 1027.05C320.744 1027.04 320.825 1027.03 320.91 1027.01V1028.02C320.698 1028.08 320.536 1028.12 320.425 1028.13C320.314 1028.15 320.162 1028.16 319.97 1028.16C319.5 1028.16 319.159 1027.99 318.947 1027.66C318.836 1027.48 318.757 1027.23 318.712 1026.91C318.434 1027.27 318.034 1027.59 317.514 1027.85C316.993 1028.12 316.42 1028.26 315.793 1028.26C315.04 1028.26 314.423 1028.03 313.943 1027.57C313.468 1027.11 313.23 1026.54 313.23 1025.85C313.23 1025.1 313.465 1024.52 313.935 1024.1C314.405 1023.69 315.022 1023.43 315.785 1023.34L317.961 1023.06ZM323.117 1024.02C323.117 1024.89 323.301 1025.62 323.67 1026.2C324.039 1026.79 324.631 1027.08 325.444 1027.08C326.076 1027.08 326.594 1026.81 326.999 1026.27C327.408 1025.72 327.613 1024.94 327.613 1023.93C327.613 1022.9 327.403 1022.14 326.983 1021.65C326.564 1021.16 326.046 1020.91 325.429 1020.91C324.742 1020.91 324.183 1021.17 323.754 1021.7C323.329 1022.22 323.117 1023 323.117 1024.02ZM325.171 1019.72C325.793 1019.72 326.314 1019.85 326.733 1020.11C326.976 1020.26 327.251 1020.53 327.56 1020.91V1016.81H328.871V1027.98H327.643V1026.85C327.325 1027.35 326.948 1027.72 326.513 1027.94C326.079 1028.16 325.581 1028.27 325.02 1028.27C324.115 1028.27 323.332 1027.89 322.669 1027.13C322.007 1026.37 321.676 1025.36 321.676 1024.09C321.676 1022.91 321.977 1021.89 322.578 1021.02C323.185 1020.15 324.049 1019.72 325.171 1019.72ZM334.277 1019.68C334.853 1019.68 335.412 1019.82 335.953 1020.09C336.494 1020.36 336.906 1020.71 337.189 1021.14C337.462 1021.55 337.643 1022.02 337.734 1022.57C337.815 1022.94 337.856 1023.54 337.856 1024.36H331.904C331.929 1025.18 332.124 1025.85 332.488 1026.35C332.852 1026.84 333.415 1027.09 334.179 1027.09C334.891 1027.09 335.46 1026.85 335.885 1026.38C336.127 1026.11 336.299 1025.79 336.4 1025.44H337.742C337.707 1025.73 337.588 1026.07 337.386 1026.44C337.189 1026.8 336.966 1027.1 336.719 1027.33C336.304 1027.74 335.791 1028.01 335.179 1028.15C334.851 1028.23 334.479 1028.27 334.065 1028.27C333.054 1028.27 332.197 1027.9 331.495 1027.17C330.792 1026.43 330.441 1025.4 330.441 1024.08C330.441 1022.77 330.795 1021.72 331.502 1020.9C332.21 1020.09 333.135 1019.68 334.277 1019.68ZM336.453 1023.27C336.398 1022.68 336.269 1022.21 336.066 1021.86C335.692 1021.2 335.068 1020.87 334.194 1020.87C333.567 1020.87 333.041 1021.1 332.617 1021.55C332.192 1022 331.967 1022.58 331.942 1023.27H336.453ZM344.49 1019.86L346.052 1026.26L347.636 1019.86H349.168L350.76 1026.22L352.42 1019.86H353.785L351.427 1027.98H350.009L348.357 1021.7L346.757 1027.98H345.339L342.996 1019.86H344.49ZM355.082 1019.9H356.469V1027.98H355.082V1019.9ZM355.082 1016.85H356.469V1018.39H355.082V1016.85ZM358.812 1017.6H360.192V1019.86H361.488V1020.98H360.192V1026.28C360.192 1026.56 360.288 1026.75 360.48 1026.85C360.586 1026.9 360.763 1026.93 361.011 1026.93C361.076 1026.93 361.147 1026.93 361.223 1026.93C361.299 1026.92 361.387 1026.92 361.488 1026.91V1027.98C361.332 1028.03 361.167 1028.06 360.995 1028.08C360.829 1028.1 360.647 1028.11 360.45 1028.11C359.813 1028.11 359.381 1027.95 359.153 1027.63C358.926 1027.3 358.812 1026.87 358.812 1026.35V1020.98H357.713V1019.86H358.812V1017.6ZM362.861 1016.81H364.225V1020.96C364.549 1020.55 364.839 1020.26 365.097 1020.1C365.537 1019.81 366.085 1019.67 366.742 1019.67C367.92 1019.67 368.719 1020.08 369.138 1020.9C369.366 1021.35 369.479 1021.98 369.479 1022.77V1027.98H368.077V1022.87C368.077 1022.27 368.001 1021.83 367.849 1021.55C367.602 1021.11 367.137 1020.89 366.454 1020.89C365.888 1020.89 365.375 1021.08 364.915 1021.47C364.455 1021.86 364.225 1022.6 364.225 1023.68V1027.98H362.861V1016.81ZM375.863 1016.85H377.228V1027.98H375.863V1016.85ZM382.505 1027.1C383.41 1027.1 384.029 1026.76 384.363 1026.08C384.701 1025.39 384.871 1024.63 384.871 1023.79C384.871 1023.03 384.749 1022.42 384.507 1021.94C384.122 1021.19 383.46 1020.82 382.52 1020.82C381.686 1020.82 381.08 1021.14 380.701 1021.77C380.321 1022.41 380.132 1023.18 380.132 1024.08C380.132 1024.94 380.321 1025.66 380.701 1026.24C381.08 1026.82 381.681 1027.1 382.505 1027.1ZM382.558 1019.63C383.604 1019.63 384.489 1019.98 385.212 1020.67C385.935 1021.37 386.296 1022.4 386.296 1023.75C386.296 1025.06 385.977 1026.14 385.341 1027C384.704 1027.85 383.716 1028.28 382.376 1028.28C381.259 1028.28 380.372 1027.9 379.715 1027.15C379.058 1026.39 378.729 1025.38 378.729 1024.1C378.729 1022.74 379.076 1021.65 379.768 1020.84C380.46 1020.03 381.39 1019.63 382.558 1019.63ZM388.593 1019.86L390.762 1026.47L393.029 1019.86H394.522L391.459 1027.98H390.003L387.009 1019.86H388.593ZM399.071 1019.68C399.647 1019.68 400.206 1019.82 400.747 1020.09C401.288 1020.36 401.7 1020.71 401.983 1021.14C402.256 1021.55 402.438 1022.02 402.529 1022.57C402.609 1022.94 402.65 1023.54 402.65 1024.36H396.698C396.723 1025.18 396.918 1025.85 397.282 1026.35C397.646 1026.84 398.209 1027.09 398.973 1027.09C399.685 1027.09 400.254 1026.85 400.679 1026.38C400.921 1026.11 401.093 1025.79 401.194 1025.44H402.536C402.501 1025.73 402.382 1026.07 402.18 1026.44C401.983 1026.8 401.76 1027.1 401.513 1027.33C401.098 1027.74 400.585 1028.01 399.973 1028.15C399.645 1028.23 399.273 1028.27 398.859 1028.27C397.848 1028.27 396.991 1027.9 396.289 1027.17C395.586 1026.43 395.235 1025.4 395.235 1024.08C395.235 1022.77 395.589 1021.72 396.296 1020.9C397.004 1020.09 397.929 1019.68 399.071 1019.68ZM401.247 1023.27C401.192 1022.68 401.063 1022.21 400.861 1021.86C400.487 1021.2 399.862 1020.87 398.988 1020.87C398.361 1020.87 397.835 1021.1 397.411 1021.55C396.986 1022 396.761 1022.58 396.736 1023.27H401.247ZM408.996 1018.63C409.016 1018.06 409.115 1017.65 409.292 1017.38C409.61 1016.92 410.224 1016.69 411.134 1016.69C411.22 1016.69 411.308 1016.69 411.399 1016.69C411.49 1016.7 411.594 1016.71 411.71 1016.72V1017.96C411.569 1017.95 411.465 1017.94 411.399 1017.94C411.339 1017.94 411.28 1017.94 411.225 1017.94C410.81 1017.94 410.563 1018.05 410.482 1018.26C410.401 1018.48 410.361 1019.02 410.361 1019.9H411.71V1020.98H410.345V1027.98H408.996V1020.98H407.866V1019.9H408.996V1018.63ZM416.199 1027.1C417.103 1027.1 417.722 1026.76 418.056 1026.08C418.395 1025.39 418.564 1024.63 418.564 1023.79C418.564 1023.03 418.443 1022.42 418.2 1021.94C417.816 1021.19 417.154 1020.82 416.214 1020.82C415.38 1020.82 414.773 1021.14 414.394 1021.77C414.015 1022.41 413.825 1023.18 413.825 1024.08C413.825 1024.94 414.015 1025.66 414.394 1026.24C414.773 1026.82 415.375 1027.1 416.199 1027.1ZM416.252 1019.63C417.298 1019.63 418.182 1019.98 418.905 1020.67C419.628 1021.37 419.989 1022.4 419.989 1023.75C419.989 1025.06 419.671 1026.14 419.034 1027C418.397 1027.85 417.409 1028.28 416.07 1028.28C414.953 1028.28 414.066 1027.9 413.408 1027.15C412.751 1026.39 412.423 1025.38 412.423 1024.1C412.423 1022.74 412.769 1021.65 413.462 1020.84C414.154 1020.03 415.084 1019.63 416.252 1019.63ZM421.657 1019.86H422.954V1021.27C423.06 1020.99 423.32 1020.66 423.735 1020.27C424.149 1019.88 424.627 1019.68 425.168 1019.68C425.193 1019.68 425.236 1019.68 425.297 1019.69C425.357 1019.69 425.461 1019.7 425.608 1019.72V1021.16C425.527 1021.14 425.451 1021.13 425.38 1021.13C425.314 1021.12 425.241 1021.12 425.16 1021.12C424.473 1021.12 423.945 1021.34 423.576 1021.79C423.207 1022.23 423.022 1022.74 423.022 1023.31V1027.98H421.657V1019.86ZM432.932 1016.85V1023.73C432.932 1024.54 433.083 1025.21 433.386 1025.75C433.836 1026.56 434.595 1026.96 435.661 1026.96C436.94 1026.96 437.809 1026.52 438.269 1025.65C438.517 1025.17 438.641 1024.53 438.641 1023.73V1016.85H440.172V1023.1C440.172 1024.47 439.988 1025.52 439.619 1026.26C438.941 1027.61 437.663 1028.28 435.782 1028.28C433.902 1028.28 432.626 1027.61 431.954 1026.26C431.585 1025.52 431.4 1024.47 431.4 1023.1V1016.85H432.932ZM442.303 1016.85H443.614V1023.31L447.117 1019.86H448.861L445.752 1022.9L449.035 1027.98H447.292L444.759 1023.89L443.614 1024.94V1027.98H442.303V1016.85ZM450.135 1019.86H451.431V1021.27C451.537 1020.99 451.798 1020.66 452.212 1020.27C452.627 1019.88 453.104 1019.68 453.645 1019.68C453.67 1019.68 453.713 1019.68 453.774 1019.69C453.835 1019.69 453.938 1019.7 454.085 1019.72V1021.16C454.004 1021.14 453.928 1021.13 453.857 1021.13C453.792 1021.12 453.718 1021.12 453.637 1021.12C452.95 1021.12 452.422 1021.34 452.053 1021.79C451.684 1022.23 451.499 1022.74 451.499 1023.31V1027.98H450.135V1019.86ZM456.314 1025.82C456.314 1026.22 456.458 1026.53 456.746 1026.75C457.034 1026.98 457.375 1027.1 457.77 1027.1C458.25 1027.1 458.715 1026.98 459.165 1026.76C459.923 1026.39 460.302 1025.79 460.302 1024.95V1023.85C460.135 1023.96 459.92 1024.05 459.657 1024.12C459.395 1024.19 459.137 1024.24 458.884 1024.27L458.058 1024.37C457.562 1024.44 457.191 1024.54 456.943 1024.69C456.524 1024.92 456.314 1025.3 456.314 1025.82ZM459.62 1023.06C459.933 1023.02 460.143 1022.89 460.249 1022.67C460.309 1022.55 460.34 1022.37 460.34 1022.15C460.34 1021.68 460.173 1021.34 459.839 1021.14C459.511 1020.92 459.038 1020.82 458.422 1020.82C457.709 1020.82 457.203 1021.01 456.905 1021.39C456.738 1021.61 456.63 1021.92 456.579 1022.34H455.305C455.331 1021.34 455.654 1020.65 456.276 1020.26C456.903 1019.86 457.628 1019.67 458.452 1019.67C459.407 1019.67 460.183 1019.85 460.78 1020.21C461.371 1020.58 461.667 1021.14 461.667 1021.91V1026.59C461.667 1026.73 461.694 1026.84 461.75 1026.93C461.811 1027.02 461.934 1027.06 462.122 1027.06C462.182 1027.06 462.25 1027.06 462.326 1027.05C462.402 1027.04 462.483 1027.03 462.569 1027.01V1028.02C462.357 1028.08 462.195 1028.12 462.084 1028.13C461.972 1028.15 461.821 1028.16 461.629 1028.16C461.159 1028.16 460.817 1027.99 460.605 1027.66C460.494 1027.48 460.416 1027.23 460.37 1026.91C460.092 1027.27 459.693 1027.59 459.172 1027.85C458.652 1028.12 458.078 1028.26 457.451 1028.26C456.698 1028.26 456.081 1028.03 455.601 1027.57C455.126 1027.11 454.888 1026.54 454.888 1025.85C454.888 1025.1 455.124 1024.52 455.594 1024.1C456.064 1023.69 456.68 1023.43 457.444 1023.34L459.62 1023.06ZM463.911 1019.9H465.298V1027.98H463.911V1019.9ZM463.911 1016.85H465.298V1018.39H463.911V1016.85ZM467.368 1019.86H468.665V1021.02C469.049 1020.54 469.456 1020.2 469.885 1019.99C470.315 1019.78 470.793 1019.68 471.318 1019.68C472.471 1019.68 473.249 1020.08 473.653 1020.89C473.876 1021.33 473.987 1021.96 473.987 1022.77V1027.98H472.6V1022.87C472.6 1022.37 472.526 1021.97 472.38 1021.67C472.137 1021.16 471.697 1020.91 471.06 1020.91C470.737 1020.91 470.472 1020.94 470.264 1021.01C469.89 1021.12 469.562 1021.34 469.279 1021.68C469.051 1021.94 468.902 1022.22 468.831 1022.51C468.766 1022.79 468.733 1023.2 468.733 1023.73V1027.98H467.368V1019.86ZM479.393 1019.68C479.969 1019.68 480.528 1019.82 481.068 1020.09C481.609 1020.36 482.021 1020.71 482.304 1021.14C482.577 1021.55 482.759 1022.02 482.85 1022.57C482.931 1022.94 482.971 1023.54 482.971 1024.36H477.02C477.045 1025.18 477.24 1025.85 477.604 1026.35C477.967 1026.84 478.531 1027.09 479.294 1027.09C480.007 1027.09 480.576 1026.85 481 1026.38C481.243 1026.11 481.415 1025.79 481.516 1025.44H482.858C482.822 1025.73 482.704 1026.07 482.501 1026.44C482.304 1026.8 482.082 1027.1 481.834 1027.33C481.42 1027.74 480.907 1028.01 480.295 1028.15C479.967 1028.23 479.595 1028.27 479.181 1028.27C478.17 1028.27 477.313 1027.9 476.61 1027.17C475.908 1026.43 475.556 1025.4 475.556 1024.08C475.556 1022.77 475.91 1021.72 476.618 1020.9C477.326 1020.09 478.251 1019.68 479.393 1019.68ZM481.569 1023.27C481.513 1022.68 481.384 1022.21 481.182 1021.86C480.808 1021.2 480.184 1020.87 479.309 1020.87C478.683 1020.87 478.157 1021.1 477.732 1021.55C477.308 1022 477.083 1022.58 477.058 1023.27H481.569Z" fill="#1B59B0"/>
</g>
<defs>
<clipPath id="clip0_1885_169">
<rect width="757.048" height="1071.22" fill="white"/>
</clipPath>
</defs>
</svg>
