<svg width="1440" height="890" viewBox="0 0 1440 890" fill="none" xmlns="http://www.w3.org/2000/svg">
<rect width="1440" height="890" fill="#1A1A1A"/>
<path d="M100.093 755.352V747.271H92.0125V739.19H83.9316V158.889H92.0125V150.808H100.093V142.728H454.017V150.808H462.098V158.889H470.179V739.19H462.098V747.271H454.017V755.352H100.093Z" fill="#FE8AD0" stroke="#FE8AD0" stroke-width="3.2226"/>
<path d="M98.9879 747.513V739.432H90.9071V731.351H82.8262V150.81H90.9071V142.729H98.9879V134.648L445.938 134.648V142.729H454.018V150.81H462.099V731.351H454.018V739.432H445.938V747.513H98.9879Z" fill="#1A1A1A" stroke="#FE8AD0" stroke-width="3.2226"/>
<path d="M141.815 385.607C151.075 385.607 157.742 380.977 157.742 373.075C157.742 356.592 133.11 363.568 133.11 353.073C133.11 349.431 136.259 347.085 141.444 347.085C146.754 347.085 150.211 349.987 150.643 354.432H156.878C156.322 346.53 150.272 341.406 141.444 341.406C132.74 341.406 126.69 346.159 126.69 353.073C126.69 369.001 151.198 362.766 151.198 373.137C151.198 377.829 147.247 379.928 141.815 379.928C135.703 379.928 132.061 376.347 131.567 370.791H125.332C125.826 379.742 132.061 385.607 141.815 385.607ZM184.03 374.989C183.165 378.508 180.202 380.483 175.634 380.483C170.201 380.483 166.374 376.471 165.88 370.606H189.647C189.709 370.05 189.771 369.062 189.771 368.26C189.771 360.358 184.647 353.506 175.017 353.506C165.448 353.506 160.015 360.667 160.015 369.371C160.015 378.014 166.003 385.607 175.634 385.607C183.289 385.607 188.907 381.409 190.018 374.989H184.03ZM175.017 358.321C180.14 358.321 183.351 361.469 183.721 366.223H166.065C166.991 361.037 170.14 358.321 175.017 358.321ZM197.174 353.999H190.816V359.185H197.174V374.927C197.174 381.286 201.187 385.113 207.484 385.113H212.361V379.681H207.978C204.953 379.681 203.162 377.829 203.162 374.495V359.185H212.361V353.999H203.162V344.245H197.174V353.999ZM247.375 353.999L239.165 377.335L231.016 353.999H224.843L236.387 385.422L232.189 397.707H237.93L242.622 384.002L253.549 353.999H247.375ZM269.397 385.607C278.719 385.607 285.387 378.878 285.387 369.556C285.387 360.235 278.719 353.506 269.397 353.506C260.076 353.506 253.347 360.235 253.347 369.556C253.347 378.878 260.076 385.607 269.397 385.607ZM269.397 380.36C263.471 380.36 259.458 375.915 259.458 369.556C259.458 363.198 263.471 358.753 269.397 358.753C275.262 358.753 279.275 363.198 279.275 369.556C279.275 375.915 275.262 380.36 269.397 380.36ZM311.004 353.999V370.853C311.004 376.285 307.547 380.236 302.67 380.236C298.286 380.236 295.385 376.903 295.385 371.964V353.999H289.397V373.137C289.397 380.545 293.965 385.607 301.003 385.607C305.633 385.607 309.337 383.508 311.004 379.619V385.113H316.992V353.999H311.004ZM340.839 353.999H337.073C332.69 353.999 330.221 355.851 328.801 359.988V353.999H322.813V385.113H328.801V371.038C328.801 364.247 330.653 359.185 336.332 359.185H340.839V353.999ZM354.013 385.607C361.05 385.607 365.681 381.965 365.681 376.285C365.681 362.087 347.901 369.988 347.901 362.272C347.901 359.864 350.062 358.259 353.272 358.259C355.927 358.259 359.384 359.679 359.816 363.26H365.434C365.125 357.395 360.31 353.506 353.272 353.506C346.79 353.506 342.222 357.086 342.222 362.457C342.222 375.73 359.878 368.136 359.878 376.409C359.878 378.693 357.593 380.607 354.013 380.607C350 380.607 347.407 378.569 347.037 374.989H341.419C341.851 381.533 346.728 385.607 354.013 385.607ZM392.094 374.989C391.23 378.508 388.267 380.483 383.699 380.483C378.266 380.483 374.439 376.471 373.945 370.606H397.712C397.774 370.05 397.836 369.062 397.836 368.26C397.836 360.358 392.712 353.506 383.081 353.506C373.513 353.506 368.08 360.667 368.08 369.371C368.08 378.014 374.068 385.607 383.699 385.607C391.354 385.607 396.971 381.409 398.083 374.989H392.094ZM383.081 358.321C388.205 358.321 391.415 361.469 391.786 366.223H374.13C375.056 361.037 378.204 358.321 383.081 358.321ZM408.377 385.113V340.974H402.389V385.113H408.377ZM424.025 385.113V359.185H433.408V353.999H424.025V351.16C424.025 348.073 425.877 346.159 428.717 346.159H433.408V340.974H428.284C422.049 340.974 418.037 344.863 418.037 350.974V353.999H411.678V359.185H418.037V385.113H424.025ZM136.753 450.113V424.185H146.136V418.999H136.753V416.16C136.753 413.073 138.605 411.159 141.444 411.159H146.136V405.974H141.012C134.777 405.974 130.765 409.863 130.765 415.974V418.999H124.406V424.185H130.765V450.113H136.753ZM167.473 418.999H163.707C159.324 418.999 156.855 420.851 155.435 424.988V418.999H149.447V450.113H155.435V436.038C155.435 429.247 157.287 424.185 162.966 424.185H167.473V418.999ZM191.462 439.989C190.598 443.508 187.634 445.483 183.066 445.483C177.634 445.483 173.806 441.471 173.312 435.606H197.08C197.141 435.05 197.203 434.062 197.203 433.26C197.203 425.358 192.079 418.506 182.449 418.506C172.88 418.506 167.447 425.667 167.447 434.371C167.447 443.014 173.436 450.607 183.066 450.607C190.721 450.607 196.339 446.409 197.45 439.989H191.462ZM182.449 423.321C187.573 423.321 190.783 426.469 191.153 431.223H173.497C174.423 426.037 177.572 423.321 182.449 423.321ZM223.672 439.989C222.808 443.508 219.844 445.483 215.276 445.483C209.844 445.483 206.016 441.471 205.522 435.606H229.29C229.351 435.05 229.413 434.062 229.413 433.26C229.413 425.358 224.289 418.506 214.659 418.506C205.09 418.506 199.658 425.667 199.658 434.371C199.658 443.014 205.646 450.607 215.276 450.607C222.931 450.607 228.549 446.409 229.66 439.989H223.672ZM214.659 423.321C219.783 423.321 222.993 426.469 223.363 431.223H205.707C206.633 426.037 209.782 423.321 214.659 423.321ZM249.614 418.999H243.256V424.185H249.614V439.927C249.614 446.286 253.627 450.113 259.924 450.113H264.801V444.681H260.418C257.393 444.681 255.602 442.829 255.602 439.495V424.185H264.801V418.999H255.602V409.245H249.614V418.999ZM281.592 450.607C290.914 450.607 297.581 443.878 297.581 434.556C297.581 425.235 290.914 418.506 281.592 418.506C272.27 418.506 265.542 425.235 265.542 434.556C265.542 443.878 272.27 450.607 281.592 450.607ZM281.592 445.36C275.666 445.36 271.653 440.915 271.653 434.556C271.653 428.198 275.666 423.753 281.592 423.753C287.457 423.753 291.47 428.198 291.47 434.556C291.47 440.915 287.457 445.36 281.592 445.36ZM136.753 515.113V489.185H146.136V483.999H136.753V481.16C136.753 478.073 138.605 476.159 141.444 476.159H146.136V470.974H141.012C134.777 470.974 130.765 474.863 130.765 480.974V483.999H124.406V489.185H130.765V515.113H136.753ZM161.718 515.607C171.04 515.607 177.707 508.878 177.707 499.556C177.707 490.235 171.04 483.506 161.718 483.506C152.396 483.506 145.667 490.235 145.667 499.556C145.667 508.878 152.396 515.607 161.718 515.607ZM161.718 510.36C155.791 510.36 151.779 505.915 151.779 499.556C151.779 493.198 155.791 488.753 161.718 488.753C167.582 488.753 171.595 493.198 171.595 499.556C171.595 505.915 167.582 510.36 161.718 510.36ZM195.36 515.607C203.262 515.607 208.818 511.162 209.806 504.619H203.88C202.892 508.137 199.743 510.36 195.484 510.36C189.31 510.36 186.162 505.545 186.162 499.556C186.162 493.568 189.249 488.753 195.484 488.753C199.682 488.753 203.262 491.346 203.818 494.865H209.806C208.942 487.827 202.645 483.506 195.36 483.506C185.545 483.506 179.927 490.975 179.927 499.556C179.927 508.137 185.545 515.607 195.36 515.607ZM235.233 483.999V500.853C235.233 506.285 231.776 510.236 226.899 510.236C222.515 510.236 219.614 506.903 219.614 501.964V483.999H213.626V503.137C213.626 510.545 218.194 515.607 225.232 515.607C229.862 515.607 233.566 513.508 235.233 509.619V515.113H241.221V483.999H235.233ZM257.969 515.607C265.006 515.607 269.636 511.965 269.636 506.285C269.636 492.087 251.857 499.988 251.857 492.272C251.857 489.864 254.018 488.259 257.228 488.259C259.882 488.259 263.339 489.679 263.771 493.26H269.389C269.081 487.395 264.265 483.506 257.228 483.506C250.746 483.506 246.177 487.086 246.177 492.457C246.177 505.73 263.833 498.136 263.833 506.409C263.833 508.693 261.549 510.607 257.969 510.607C253.956 510.607 251.363 508.569 250.993 504.989H245.375C245.807 511.533 250.684 515.607 257.969 515.607ZM300.643 515.607C309.965 515.607 316.632 508.878 316.632 499.556C316.632 490.235 309.965 483.506 300.643 483.506C291.321 483.506 284.592 490.235 284.592 499.556C284.592 508.878 291.321 515.607 300.643 515.607ZM300.643 510.36C294.717 510.36 290.704 505.915 290.704 499.556C290.704 493.198 294.717 488.753 300.643 488.753C306.508 488.753 310.52 493.198 310.52 499.556C310.52 505.915 306.508 510.36 300.643 510.36ZM326.63 515.113V498.26C326.63 492.827 330.088 488.876 334.965 488.876C339.348 488.876 342.249 492.21 342.249 497.149V515.113H348.237V495.976C348.237 488.568 343.669 483.506 336.631 483.506C332.001 483.506 328.297 485.605 326.63 489.494V483.999H320.642V515.113H326.63ZM140.827 580.607C148.729 580.607 154.285 576.162 155.273 569.619H149.346C148.359 573.137 145.21 575.36 140.951 575.36C134.777 575.36 131.629 570.545 131.629 564.556C131.629 558.568 134.715 553.753 140.951 553.753C145.148 553.753 148.729 556.346 149.285 559.865H155.273C154.409 552.827 148.112 548.506 140.827 548.506C131.011 548.506 125.394 555.975 125.394 564.556C125.394 573.137 131.011 580.607 140.827 580.607ZM173.353 580.607C182.675 580.607 189.342 573.878 189.342 564.556C189.342 555.235 182.675 548.506 173.353 548.506C164.031 548.506 157.302 555.235 157.302 564.556C157.302 573.878 164.031 580.607 173.353 580.607ZM173.353 575.36C167.427 575.36 163.414 570.915 163.414 564.556C163.414 558.198 167.427 553.753 173.353 553.753C179.218 553.753 183.231 558.198 183.231 564.556C183.231 570.915 179.218 575.36 173.353 575.36ZM206.502 580.607C210.638 580.607 214.465 578.57 216.317 575.483V580.113H222.306V535.974H216.317V553.568C214.465 550.543 210.7 548.506 206.44 548.506C196.933 548.506 191.562 555.296 191.562 564.556C191.562 573.816 196.933 580.607 206.502 580.607ZM207.181 575.36C201.44 575.36 197.674 571.038 197.674 564.556C197.674 558.074 201.44 553.753 207.181 553.753C212.984 553.753 216.75 558.074 216.75 564.556C216.75 571.038 212.984 575.36 207.181 575.36ZM250.56 569.989C249.696 573.508 246.732 575.483 242.164 575.483C236.732 575.483 232.904 571.471 232.41 565.606H256.178C256.239 565.05 256.301 564.062 256.301 563.26C256.301 555.358 251.177 548.506 241.547 548.506C231.978 548.506 226.546 555.667 226.546 564.371C226.546 573.014 232.534 580.607 242.164 580.607C249.819 580.607 255.437 576.409 256.548 569.989H250.56ZM241.547 553.321C246.671 553.321 249.881 556.469 250.251 561.223H232.595C233.521 556.037 236.67 553.321 241.547 553.321ZM261.163 576.78C261.163 575.257 261.534 574.187 262.274 573.569C263.015 572.952 263.9 572.643 264.929 572.643C265.999 572.643 266.904 572.952 267.645 573.569C268.427 574.187 268.818 575.257 268.818 576.78C268.818 578.261 268.427 579.331 267.645 579.99C266.904 580.648 265.999 580.978 264.929 580.978C263.9 580.978 263.015 580.648 262.274 579.99C261.534 579.331 261.163 578.261 261.163 576.78Z" fill="white"/>
<path d="M344.396 283.539H333.167V272.311V261.082H344.396V249.841H355.624V238.612H366.853V227.384H355.624V216.155H344.396V204.926H333.167V193.673V182.444H344.396H355.624V193.673H366.853V204.902H378.082V216.13H389.31V227.359H400.539V238.588H389.31V249.817H378.082V261.045H366.853V272.274H355.624V283.503H344.396V283.539Z" fill="#B4F86A"/>
<path d="M180.4 182.44L191.629 182.44L191.629 193.669L191.629 204.898L180.4 204.898L180.4 216.138L169.172 216.138L169.172 227.367L157.943 227.367L157.943 238.596L169.172 238.596L169.172 249.825L180.4 249.825L180.4 261.053L191.629 261.053L191.629 272.306L191.629 283.535L180.4 283.535L169.172 283.535L169.172 272.306L157.943 272.306L157.943 261.078L146.714 261.078L146.714 249.849L135.485 249.849L135.485 238.62L124.257 238.62L124.257 227.392L135.485 227.392L135.485 216.163L146.714 216.163L146.714 204.934L157.943 204.934L157.943 193.706L169.172 193.706L169.171 182.477L180.4 182.477L180.4 182.44Z" fill="#B4F86A"/>
<path d="M312.948 182.444H290.483V204.91H312.948V182.444Z" fill="#B4F86A"/>
<path d="M301.706 193.678H279.241V216.143H301.706V193.678Z" fill="#B4F86A"/>
<path d="M290.483 204.909H268.017V227.375H290.483V204.909Z" fill="#B4F86A"/>
<path d="M279.253 216.143H256.787V238.608H279.253V216.143Z" fill="#B4F86A"/>
<path d="M268.008 227.376H245.543V249.842H268.008V227.376Z" fill="#B4F86A"/>
<path d="M256.779 238.607H234.314V261.073H256.779V238.607Z" fill="#B4F86A"/>
<path d="M245.546 249.841H223.08V272.306H245.546V249.841Z" fill="#B4F86A"/>
<path d="M234.314 261.074H211.848V283.54H234.314V261.074Z" fill="#B4F86A"/>
<path d="M124.257 699.841L136.824 686.002H124.636V680.742H144.426V685.815L131.859 699.648H144.805V704.908H124.257V699.841Z" fill="white"/>
<path d="M147.777 680.742H153.964V704.908H147.777V680.742Z" fill="white"/>
<path d="M185.44 680.742H191.628V704.908H185.44V680.742Z" fill="white"/>
<path fill-rule="evenodd" clip-rule="evenodd" d="M169.702 716.911C163.899 716.911 158.617 714.584 155.096 710.799L159.626 706.584C161.92 709.049 165.532 710.722 169.702 710.722C173.872 710.722 177.484 709.049 179.778 706.584L184.309 710.799C180.788 714.584 175.506 716.911 169.702 716.911Z" fill="white"/>
<path fill-rule="evenodd" clip-rule="evenodd" d="M176.479 680.768V683.325C175.629 682.118 172.957 680.305 169.363 680.305C162.544 680.305 157.361 685.844 157.361 692.684C157.361 699.524 162.884 705.064 169.702 705.064C176.521 705.064 182.043 699.524 182.043 692.684C182.043 688.809 182.043 684.643 182.044 680.768H176.479ZM169.702 686.304C173.211 686.304 176.062 689.164 176.062 692.684C176.062 696.204 173.211 699.064 169.702 699.064C166.193 699.064 163.342 696.204 163.342 692.684C163.342 689.164 166.193 686.304 169.702 686.304Z" fill="white"/>
<path d="M543.591 755.352V747.271H535.51V739.19H527.429V158.889H535.51V150.808H543.591V142.728H897.515V150.808H905.596V158.889H913.677V739.19H905.596V747.271H897.515V755.352H543.591Z" fill="#22D285" stroke="#22D285" stroke-width="3.2226"/>
<path d="M542.486 747.513V739.432H534.405V731.351H526.324V150.81H534.405V142.729H542.486V134.648L889.436 134.648V142.729H897.516V150.81H905.597V731.351H897.516V739.432H889.436V747.513H542.486Z" fill="#1A1A1A" stroke="#22D285" stroke-width="3.2226"/>
<path d="M567.754 699.842L580.321 686.003H568.133V680.743H587.924V685.816L575.357 699.649H588.302V704.909H567.754V699.842Z" fill="white"/>
<path d="M591.274 680.742H597.461V704.908H591.274V680.742Z" fill="white"/>
<path d="M628.938 680.742H635.125V704.908H628.938V680.742Z" fill="white"/>
<path fill-rule="evenodd" clip-rule="evenodd" d="M613.199 716.911C607.395 716.911 602.114 714.584 598.592 710.799L603.123 706.584C605.417 709.049 609.029 710.722 613.199 710.722C617.369 710.722 620.981 709.049 623.275 706.584L627.805 710.799C624.284 714.584 619.002 716.911 613.199 716.911Z" fill="white"/>
<path fill-rule="evenodd" clip-rule="evenodd" d="M619.975 680.768V683.325C619.126 682.118 616.454 680.305 612.859 680.305C606.041 680.305 600.858 685.844 600.858 692.684C600.858 699.524 606.38 705.064 613.199 705.064C620.017 705.064 625.54 699.524 625.54 692.684C625.54 688.809 625.54 684.643 625.54 680.768H619.975ZM613.199 686.304C616.708 686.304 619.559 689.164 619.559 692.684C619.559 696.204 616.708 699.064 613.199 699.064C609.69 699.064 606.839 696.204 606.839 692.684C606.839 689.164 609.69 686.304 613.199 686.304Z" fill="white"/>
<path d="M987.089 755.352V747.271H979.008V739.19H970.927V158.889H979.008V150.808H987.089V142.728H1341.01V150.808H1349.09V158.889H1357.17V739.19H1349.09V747.271H1341.01V755.352H987.089Z" fill="#0171EA" stroke="#0171EA" stroke-width="3.2226"/>
<path d="M985.982 747.513V739.432H977.901V731.351H969.82V150.81H977.901V142.729H985.982V134.648L1332.93 134.648V142.729H1341.01V150.81H1349.09V731.351H1341.01V739.432H1332.93V747.513H985.982Z" fill="#1A1A1A" stroke="#0171EA" stroke-width="3.2226"/>
<path d="M1011.25 699.841L1023.82 686.002H1011.63V680.742H1031.42V685.815L1018.85 699.648H1031.8V704.908H1011.25V699.841Z" fill="white"/>
<path d="M1034.77 680.742H1040.96V704.908H1034.77V680.742Z" fill="white"/>
<path d="M1072.43 680.742H1078.62V704.908H1072.43V680.742Z" fill="white"/>
<path fill-rule="evenodd" clip-rule="evenodd" d="M1056.69 716.911C1050.89 716.911 1045.61 714.584 1042.09 710.799L1046.62 706.584C1048.91 709.049 1052.52 710.722 1056.69 710.722C1060.86 710.722 1064.48 709.049 1066.77 706.584L1071.3 710.799C1067.78 714.584 1062.5 716.911 1056.69 716.911Z" fill="white"/>
<path fill-rule="evenodd" clip-rule="evenodd" d="M1063.47 680.768V683.325C1062.62 682.118 1059.95 680.305 1056.35 680.305C1049.54 680.305 1044.35 685.844 1044.35 692.684C1044.35 699.524 1049.88 705.064 1056.69 705.064C1063.51 705.064 1069.04 699.524 1069.04 692.684C1069.04 688.809 1069.04 684.643 1069.04 680.768H1063.47ZM1056.69 686.304C1060.2 686.304 1063.05 689.164 1063.05 692.684C1063.05 696.204 1060.2 699.064 1056.69 699.064C1053.19 699.064 1050.33 696.204 1050.33 692.684C1050.33 689.164 1053.19 686.304 1056.69 686.304Z" fill="white"/>
<g clip-path="url(#clip0_301_49)">
<path d="M858.521 323.497H818.407V283.54H738.179V323.497H698.066V283.54H617.793V323.497H577.68V403.411H617.793V443.368H657.907V483.325H698.021V523.282H738.135V483.325H778.248V443.368H818.362V403.411H858.476L858.521 323.497Z" fill="#FE8AD0"/>
</g>
<path d="M1040.2 208.236C1044.03 206.322 1046.56 203.112 1046.56 198.482C1046.56 190.765 1041.25 185.518 1032.55 185.518H1015.63V228.731H1022.05V211.693H1032.86C1036.56 211.693 1039.09 214.409 1039.4 218.237L1040.27 228.731H1046.5L1045.64 217.681C1045.39 213.483 1043.35 210.088 1040.2 208.236ZM1032.36 191.074C1037.98 191.074 1040.14 194.531 1040.14 198.482C1040.14 202.371 1037.98 206.013 1032.36 206.013H1022.05V191.074H1032.36ZM1074.09 218.607C1073.23 222.126 1070.27 224.101 1065.7 224.101C1060.27 224.101 1056.44 220.089 1055.94 214.224H1079.71C1079.77 213.668 1079.84 212.681 1079.84 211.878C1079.84 203.976 1074.71 197.124 1065.08 197.124C1055.51 197.124 1050.08 204.285 1050.08 212.989C1050.08 221.632 1056.07 229.225 1065.7 229.225C1073.35 229.225 1078.97 225.027 1080.08 218.607H1074.09ZM1065.08 201.939C1070.21 201.939 1073.42 205.087 1073.79 209.841H1056.13C1057.06 204.655 1060.2 201.939 1065.08 201.939ZM1097.23 229.225C1101.37 229.225 1105.19 227.188 1107.05 224.101V228.731H1113.03V184.592H1107.05V202.186C1105.19 199.161 1101.43 197.124 1097.17 197.124C1087.66 197.124 1082.29 203.914 1082.29 213.175C1082.29 222.435 1087.66 229.225 1097.23 229.225ZM1097.91 223.978C1092.17 223.978 1088.4 219.657 1088.4 213.175C1088.4 206.692 1092.17 202.371 1097.91 202.371C1103.71 202.371 1107.48 206.692 1107.48 213.175C1107.48 219.657 1103.71 223.978 1097.91 223.978ZM1139.65 197.618V214.471C1139.65 219.904 1136.19 223.854 1131.31 223.854C1126.93 223.854 1124.03 220.521 1124.03 215.582V197.618H1118.04V216.755C1118.04 224.163 1122.61 229.225 1129.64 229.225C1134.27 229.225 1137.98 227.126 1139.65 223.237V228.731H1145.63V197.618H1139.65ZM1165.1 229.225C1173 229.225 1178.56 224.78 1179.54 218.237H1173.62C1172.63 221.756 1169.48 223.978 1165.22 223.978C1159.05 223.978 1155.9 219.163 1155.9 213.175C1155.9 207.186 1158.99 202.371 1165.22 202.371C1169.42 202.371 1173 204.964 1173.56 208.483H1179.54C1178.68 201.445 1172.38 197.124 1165.1 197.124C1155.28 197.124 1149.66 204.594 1149.66 213.175C1149.66 221.756 1155.28 229.225 1165.1 229.225ZM1205.59 218.607C1204.72 222.126 1201.76 224.101 1197.19 224.101C1191.76 224.101 1187.93 220.089 1187.44 214.224H1211.21C1211.27 213.668 1211.33 212.681 1211.33 211.878C1211.33 203.976 1206.2 197.124 1196.57 197.124C1187.01 197.124 1181.57 204.285 1181.57 212.989C1181.57 221.632 1187.56 229.225 1197.19 229.225C1204.85 229.225 1210.46 225.027 1211.58 218.607H1205.59ZM1196.57 201.939C1201.7 201.939 1204.91 205.087 1205.28 209.841H1187.62C1188.55 204.655 1191.7 201.939 1196.57 201.939ZM1018.66 262.618H1012.3V267.803H1018.66V283.545C1018.66 289.904 1022.67 293.731 1028.97 293.731H1033.85V288.299H1029.46C1026.44 288.299 1024.65 286.447 1024.65 283.113V267.803H1033.85V262.618H1024.65V252.864H1018.66V262.618ZM1044.18 293.731V276.878C1044.18 271.446 1047.64 267.495 1052.51 267.495C1056.9 267.495 1059.8 270.828 1059.8 275.767V293.731H1065.79V274.594C1065.79 267.186 1061.22 262.124 1054.18 262.124C1049.55 262.124 1045.85 264.223 1044.18 268.112V249.592H1038.19V293.731H1044.18ZM1093.83 283.607C1092.96 287.126 1090 289.101 1085.43 289.101C1080 289.101 1076.17 285.089 1075.68 279.224H1099.44C1099.5 278.668 1099.57 277.681 1099.57 276.878C1099.57 268.976 1094.44 262.124 1084.81 262.124C1075.24 262.124 1069.81 269.285 1069.81 277.989C1069.81 286.632 1075.8 294.225 1085.43 294.225C1093.08 294.225 1098.7 290.027 1099.81 283.607H1093.83ZM1084.81 266.939C1089.94 266.939 1093.15 270.087 1093.52 274.841H1075.86C1076.79 269.655 1079.94 266.939 1084.81 266.939ZM1171.68 293.731V276.878C1171.68 271.446 1175.13 267.495 1180.01 267.495C1184.4 267.495 1187.3 270.828 1187.3 275.767V293.731H1193.28V274.594C1193.28 267.186 1188.72 262.124 1181.68 262.124C1177.05 262.124 1173.34 264.223 1171.68 268.112V262.618H1165.69V293.731H1171.68ZM1213.37 294.225C1222.69 294.225 1229.36 287.496 1229.36 278.175C1229.36 268.853 1222.69 262.124 1213.37 262.124C1204.04 262.124 1197.32 268.853 1197.32 278.175C1197.32 287.496 1204.04 294.225 1213.37 294.225ZM1213.37 288.978C1207.44 288.978 1203.43 284.533 1203.43 278.175C1203.43 271.816 1207.44 267.371 1213.37 267.371C1219.23 267.371 1223.24 271.816 1223.24 278.175C1223.24 284.533 1219.23 288.978 1213.37 288.978ZM1232.93 257.308H1239.72V249.53H1232.93V257.308ZM1239.35 293.731V262.618H1233.37V293.731H1239.35ZM1256 294.225C1263.04 294.225 1267.67 290.583 1267.67 284.904C1267.67 270.705 1249.89 278.607 1249.89 270.89C1249.89 268.482 1252.05 266.877 1255.26 266.877C1257.92 266.877 1261.38 268.297 1261.81 271.878H1267.43C1267.12 266.013 1262.3 262.124 1255.26 262.124C1248.78 262.124 1244.21 265.704 1244.21 271.075C1244.21 284.348 1261.87 276.755 1261.87 285.027C1261.87 287.311 1259.59 289.225 1256 289.225C1251.99 289.225 1249.4 287.188 1249.03 283.607H1243.41C1243.84 290.151 1248.72 294.225 1256 294.225ZM1294.09 283.607C1293.22 287.126 1290.26 289.101 1285.69 289.101C1280.26 289.101 1276.43 285.089 1275.94 279.224H1299.7C1299.77 278.668 1299.83 277.681 1299.83 276.878C1299.83 268.976 1294.7 262.124 1285.07 262.124C1275.5 262.124 1270.07 269.285 1270.07 277.989C1270.07 286.632 1276.06 294.225 1285.69 294.225C1293.35 294.225 1298.96 290.027 1300.07 283.607H1294.09ZM1285.07 266.939C1290.2 266.939 1293.41 270.087 1293.78 274.841H1276.12C1277.05 269.655 1280.2 266.939 1285.07 266.939ZM1312.1 287.249C1311.56 289.431 1310.78 291.818 1309.75 294.411C1308.76 297.044 1307.78 299.473 1306.79 301.695H1302.78C1303.35 299.349 1303.93 296.777 1304.5 293.978C1305.12 291.18 1305.57 288.71 1305.86 286.57H1311.67L1312.1 287.249ZM1074.15 358.731V332.803H1083.53V327.618H1074.15V324.778C1074.15 321.691 1076 319.777 1078.84 319.777H1083.53V314.592H1078.41C1072.17 314.592 1068.16 318.481 1068.16 324.593V327.618H1061.8V332.803H1068.16V358.731H1074.15ZM1099.12 359.225C1108.44 359.225 1115.1 352.496 1115.1 343.175C1115.1 333.853 1108.44 327.124 1099.12 327.124C1089.79 327.124 1083.06 333.853 1083.06 343.175C1083.06 352.496 1089.79 359.225 1099.12 359.225ZM1099.12 353.978C1093.19 353.978 1089.18 349.533 1089.18 343.175C1089.18 336.816 1093.19 332.371 1099.12 332.371C1104.98 332.371 1108.99 336.816 1108.99 343.175C1108.99 349.533 1104.98 353.978 1099.12 353.978ZM1132.76 359.225C1140.66 359.225 1146.22 354.78 1147.2 348.237H1141.28C1140.29 351.756 1137.14 353.978 1132.88 353.978C1126.71 353.978 1123.56 349.163 1123.56 343.175C1123.56 337.186 1126.65 332.371 1132.88 332.371C1137.08 332.371 1140.66 334.964 1141.22 338.483H1147.2C1146.34 331.445 1140.04 327.124 1132.76 327.124C1122.94 327.124 1117.32 334.594 1117.32 343.175C1117.32 351.756 1122.94 359.225 1132.76 359.225ZM1172.63 327.618V344.471C1172.63 349.904 1169.17 353.854 1164.3 353.854C1159.91 353.854 1157.01 350.521 1157.01 345.582V327.618H1151.02V346.755C1151.02 354.163 1155.59 359.225 1162.63 359.225C1167.26 359.225 1170.96 357.126 1172.63 353.237V358.731H1178.62V327.618H1172.63ZM1195.37 359.225C1202.4 359.225 1207.03 355.583 1207.03 349.904C1207.03 335.705 1189.25 343.607 1189.25 335.89C1189.25 333.482 1191.41 331.877 1194.63 331.877C1197.28 331.877 1200.74 333.297 1201.17 336.878H1206.79C1206.48 331.013 1201.66 327.124 1194.63 327.124C1188.14 327.124 1183.57 330.704 1183.57 336.075C1183.57 349.348 1201.23 341.755 1201.23 350.027C1201.23 352.311 1198.95 354.225 1195.37 354.225C1191.35 354.225 1188.76 352.188 1188.39 348.607H1182.77C1183.2 355.151 1188.08 359.225 1195.37 359.225ZM1238.04 359.225C1247.36 359.225 1254.03 352.496 1254.03 343.175C1254.03 333.853 1247.36 327.124 1238.04 327.124C1228.72 327.124 1221.99 333.853 1221.99 343.175C1221.99 352.496 1228.72 359.225 1238.04 359.225ZM1238.04 353.978C1232.11 353.978 1228.1 349.533 1228.1 343.175C1228.1 336.816 1232.11 332.371 1238.04 332.371C1243.91 332.371 1247.92 336.816 1247.92 343.175C1247.92 349.533 1243.91 353.978 1238.04 353.978ZM1264.03 358.731V341.878C1264.03 336.446 1267.48 332.495 1272.36 332.495C1276.75 332.495 1279.65 335.828 1279.65 340.767V358.731H1285.63V339.594C1285.63 332.186 1281.07 327.124 1274.03 327.124C1269.4 327.124 1265.69 329.223 1264.03 333.112V327.618H1258.04V358.731H1264.03ZM1028.72 424.225C1036.62 424.225 1042.18 419.78 1043.17 413.237H1037.24C1036.25 416.756 1033.1 418.978 1028.85 418.978C1022.67 418.978 1019.52 414.163 1019.52 408.175C1019.52 402.186 1022.61 397.371 1028.85 397.371C1033.04 397.371 1036.62 399.964 1037.18 403.483H1043.17C1042.3 396.445 1036.01 392.124 1028.72 392.124C1018.91 392.124 1013.29 399.594 1013.29 408.175C1013.29 416.756 1018.91 424.225 1028.72 424.225ZM1061.25 424.225C1070.57 424.225 1077.24 417.496 1077.24 408.175C1077.24 398.853 1070.57 392.124 1061.25 392.124C1051.93 392.124 1045.2 398.853 1045.2 408.175C1045.2 417.496 1051.93 424.225 1061.25 424.225ZM1061.25 418.978C1055.32 418.978 1051.31 414.533 1051.31 408.175C1051.31 401.816 1055.32 397.371 1061.25 397.371C1067.11 397.371 1071.13 401.816 1071.13 408.175C1071.13 414.533 1067.11 418.978 1061.25 418.978ZM1094.4 424.225C1098.53 424.225 1102.36 422.188 1104.21 419.101V423.731H1110.2V379.592H1104.21V397.186C1102.36 394.161 1098.59 392.124 1094.33 392.124C1084.83 392.124 1079.46 398.914 1079.46 408.175C1079.46 417.435 1084.83 424.225 1094.4 424.225ZM1095.08 418.978C1089.33 418.978 1085.57 414.657 1085.57 408.175C1085.57 401.692 1089.33 397.371 1095.08 397.371C1100.88 397.371 1104.64 401.692 1104.64 408.175C1104.64 414.657 1100.88 418.978 1095.08 418.978ZM1138.45 413.607C1137.59 417.126 1134.63 419.101 1130.06 419.101C1124.63 419.101 1120.8 415.089 1120.3 409.224H1144.07C1144.13 408.668 1144.2 407.681 1144.2 406.878C1144.2 398.976 1139.07 392.124 1129.44 392.124C1119.87 392.124 1114.44 399.285 1114.44 407.989C1114.44 416.632 1120.43 424.225 1130.06 424.225C1137.71 424.225 1143.33 420.027 1144.44 413.607H1138.45ZM1129.44 396.939C1134.57 396.939 1137.78 400.087 1138.15 404.841H1120.49C1121.42 399.655 1124.56 396.939 1129.44 396.939Z" fill="white"/>
<path d="M1264.54 228.716H1260.56V224.74V220.764H1264.54V216.784H1268.51V212.808H1272.49V208.832H1268.51V204.856H1264.54V200.88H1260.56V196.895V192.919H1264.54H1268.51V196.895H1272.49V200.871H1276.47V204.847H1280.44V208.823H1284.42V212.799H1280.44V216.775H1276.47V220.751H1272.49V224.727H1268.51V228.703H1264.54V228.716Z" fill="#0171EA"/>
<path d="M1245.82 192.919L1249.8 192.919L1249.8 196.895L1249.8 200.871L1245.82 200.871L1245.82 204.851L1241.84 204.851L1241.84 208.827L1237.87 208.827L1237.87 212.803L1241.84 212.803L1241.84 216.779L1245.82 216.779L1245.82 220.755L1249.8 220.755L1249.8 224.74L1249.8 228.716L1245.82 228.716L1241.84 228.716L1241.84 224.74L1237.87 224.74L1237.87 220.764L1233.89 220.764L1233.89 216.788L1229.92 216.788L1229.92 212.812L1225.94 212.812L1225.94 208.836L1229.92 208.836L1229.92 204.86L1233.89 204.86L1233.89 200.884L1237.87 200.884L1237.87 196.908L1241.84 196.908L1241.84 192.932L1245.82 192.932L1245.82 192.919Z" fill="#0171EA"/>
<path d="M1124.35 293.299V289.269H1120.32V285.238H1116.29V265.086H1120.32V261.055H1124.35V257.024H1144.5V261.055H1148.53V265.086H1152.56V285.238H1148.53V289.269H1144.5V293.299H1124.35ZM1140.47 281.208V269.116H1128.38V281.208H1140.47Z" fill="#22D285"/>
<path d="M1019.66 359.923H1015.89V363.697H1019.66V359.923Z" fill="#B4F86A"/>
<path d="M1027.02 319.451V322.721H1023.1V325.834V326.254V329.301H1019.66V332.668V332.834V336.238H1015.89V339.771H1026.84V342.987V343.038V346.534H1023.25V349.924V350.082V353.229H1019.66V356.378V356.776V359.923H1023.44V356.776H1026.84V353.469H1030.43V350.082H1033.92V346.534H1037.51V343.038H1041.19V339.771H1044.68V336.238H1034.01V332.834H1037.81V329.367H1041.25V326.254H1044.68V322.984H1048.6V319.451H1027.02Z" fill="#B4F86A"/>
<g clip-path="url(#clip1_301_49)">
<path d="M1160.03 392.347H1165.58V386.814H1176.69V392.347H1182.25V386.814H1193.36V392.347H1198.91V403.411H1193.36V408.943H1187.81V414.475H1182.25V420.007H1176.7V414.475H1171.14V408.943H1165.59V403.411H1160.04L1160.03 392.347Z" fill="#FE7A53"/>
</g>
<defs>
<clipPath id="clip0_301_49">
<rect width="280.841" height="239.742" fill="white" transform="translate(577.68 283.54)"/>
</clipPath>
<clipPath id="clip1_301_49">
<rect width="38.883" height="33.1928" fill="white" transform="matrix(-1 0 0 1 1198.91 386.814)"/>
</clipPath>
</defs>
</svg>
