<svg width="85" height="85" viewBox="0 0 85 85" fill="none" xmlns="http://www.w3.org/2000/svg">
<ellipse cx="50.2361" cy="15.9993" rx="8.03053" ry="8.03052" stroke="white"/>
<path d="M53.8817 35.9548V35.4548H53.6035L53.4568 35.6911L53.8817 35.9548ZM46.6329 47.6334L46.208 47.3697L45.9291 47.8191L46.3934 48.0723L46.6329 47.6334ZM59.9223 54.8822H60.4223V54.5853L60.1617 54.4432L59.9223 54.8822ZM59.9223 77.0312V77.5312H60.4223V77.0312H59.9223ZM43.7199 77.0312H43.2199V77.5312H43.7199V77.0312ZM43.7199 61.4949H44.2199V61.2512L44.028 61.101L43.7199 61.4949ZM38.6855 57.5572L38.9936 57.1634L38.6995 56.9334L38.3954 57.15L38.6855 57.5572ZM26.6401 49.1252L26.7761 49.6063L26.9691 49.5518L27.0709 49.3789L26.6401 49.1252ZM34.7529 35.3507L35.1837 35.6044L35.612 34.8773L34.7685 34.8509L34.7529 35.3507ZM68.1779 35.9548V36.4548H68.4937L68.6294 36.1695L68.1779 35.9548ZM76.0307 19.4436L76.4823 19.6584L76.7149 19.1692L76.2087 18.9764L76.0307 19.4436ZM63.3454 14.6111L63.5234 14.1438L63.0638 13.9688L62.8811 14.4254L63.3454 14.6111ZM58.9155 25.6856L58.9033 26.1855L59.2507 26.194L59.3798 25.8713L58.9155 25.6856ZM42.4044 25.2829L42.4166 24.7831L42.4145 24.783L42.4044 25.2829ZM22.4702 24.8802L22.4803 24.3803L22.2508 24.3757L22.0977 24.5466L22.4702 24.8802ZM10.3889 38.371L10.0164 38.0375L9.63683 38.4613L10.106 38.7833L10.3889 38.371ZM20.658 45.4185L20.3751 45.8307L20.7716 46.1028L21.059 45.7172L20.658 45.4185ZM28.3095 35.1493L28.3251 34.6496L28.0644 34.6414L27.9086 34.8506L28.3095 35.1493ZM28.3056 64.9511V65.4511H28.4655L28.5957 65.3584L28.3056 64.9511ZM7.96875 64.9511H7.46875V65.4511H7.96875V64.9511ZM7.96875 49.8495V49.3495H7.46875V49.8495H7.96875ZM24.0772 49.8495V50.3495H24.1465L24.2132 50.3306L24.0772 49.8495ZM53.4568 35.6911L46.208 47.3697L47.0577 47.897L54.3065 36.2184L53.4568 35.6911ZM46.3934 48.0723L59.6829 55.3211L60.1617 54.4432L46.8723 47.1944L46.3934 48.0723ZM59.4223 54.8822V77.0312H60.4223V54.8822H59.4223ZM59.9223 76.5312H43.7199V77.5312H59.9223V76.5312ZM44.2199 77.0312V61.4949H43.2199V77.0312H44.2199ZM44.028 61.101L38.9936 57.1634L38.3775 57.9511L43.4119 61.8887L44.028 61.101ZM27.0709 49.3789L35.1837 35.6044L34.3221 35.0969L26.2093 48.8714L27.0709 49.3789ZM53.8817 36.4548H68.1779V35.4548H53.8817V36.4548ZM68.6294 36.1695L76.4823 19.6584L75.5792 19.2289L67.7264 35.74L68.6294 36.1695ZM76.2087 18.9764L63.5234 14.1438L63.1674 15.0783L75.8527 19.9109L76.2087 18.9764ZM62.8811 14.4254L58.4513 25.4999L59.3798 25.8713L63.8096 14.7968L62.8811 14.4254ZM58.9277 25.1858L42.4166 24.7831L42.3922 25.7828L58.9033 26.1855L58.9277 25.1858ZM42.4145 24.783L22.4803 24.3803L22.4601 25.3801L42.3943 25.7828L42.4145 24.783ZM22.0977 24.5466L10.0164 38.0375L10.7614 38.7046L22.8427 25.2138L22.0977 24.5466ZM10.106 38.7833L20.3751 45.8307L20.9409 45.0062L10.6718 37.9588L10.106 38.7833ZM21.059 45.7172L28.7105 35.4481L27.9086 34.8506L20.2571 45.1197L21.059 45.7172ZM28.2939 35.6491L34.7373 35.8504L34.7685 34.8509L28.3251 34.6496L28.2939 35.6491ZM38.3954 57.15L28.0156 64.5439L28.5957 65.3584L38.9756 57.9645L38.3954 57.15ZM28.3056 64.4511H7.96875V65.4511H28.3056V64.4511ZM8.46875 64.9511V49.8495H7.46875V64.9511H8.46875ZM7.96875 50.3495H24.0772V49.3495H7.96875V50.3495ZM24.2132 50.3306L26.7761 49.6063L26.5041 48.644L23.9412 49.3683L24.2132 50.3306Z" fill="white"/>
</svg>
