<svg width="85" height="85" viewBox="0 0 85 85" fill="none" xmlns="http://www.w3.org/2000/svg">
<path d="M46.4455 18.4182V18.437L46.8118 22.8728C47.9921 22.0512 49.3417 21.4708 50.6939 21.1849C52.4866 20.806 54.2409 20.9526 55.6025 21.6864C57.4558 22.7163 59.194 25.2698 59.7839 28.5776C60.3808 31.9244 60.3917 35.9799 58.9164 39.9978C57.9268 42.6928 56.6126 44.8656 55.1713 46.4918L56.0616 48.7118C56.183 49.0144 56.3785 49.1126 56.5148 49.1229C56.6463 49.133 56.8361 49.0705 56.9793 48.8017L59.0192 44.9719C59.4127 44.2331 60.0371 43.7886 60.7285 43.6967C61.185 43.6359 61.6417 43.7332 62.0425 43.9665C62.2426 44.1142 62.6767 44.4659 62.8122 44.6908C63.14 43.9786 63.4438 43.2433 63.7212 42.4878C65.6081 37.349 65.7466 31.9669 64.9117 27.2854C64.6855 26.0171 64.359 24.7872 63.9308 23.6266L63.5584 22.6885C63.3004 22.1247 62.9386 21.4896 62.5746 20.8982C62.226 20.3319 61.8635 19.7868 61.5625 19.3527L60.9317 18.5433C59.1956 16.6952 56.7335 15.6755 54.231 15.5051C51.9741 15.3514 49.6575 15.7146 47.5506 16.6832C47.7127 16.1871 47.8118 15.6472 47.8118 15.1429C47.8118 12.0507 45.5354 9.5 42.3118 9.5C39.0764 9.5 36.9014 12.0631 36.9014 15.1429C36.9014 15.7191 37.0101 16.3452 37.1812 16.9095C35.1093 15.8971 32.8428 15.4355 30.5471 15.5643C28.1113 15.701 25.7266 16.7077 24.0402 18.5L23.3832 19.2679C22.8052 20.0089 21.9625 21.2618 21.367 22.6837L21.0032 23.6265C20.575 24.7871 20.2485 26.0171 20.0223 27.2854C19.1833 31.9896 19.6699 37.4212 21.5493 42.5395C21.7606 43.115 22.0105 43.7085 22.2566 44.2637C22.3944 44.1234 22.7616 43.8268 23.1285 43.7627C23.2266 43.7339 23.3269 43.7123 23.4288 43.6982C23.4684 43.6927 23.5081 43.6884 23.5476 43.6853C23.9249 43.6553 24.2983 43.7312 24.6383 43.9058C25.0578 44.1205 25.4204 44.4821 25.6813 44.9719L27.7048 48.7708C27.8491 49.0417 28.0402 49.103 28.1723 49.0918C28.3098 49.0801 28.5073 48.9786 28.6267 48.67L29.6734 45.966C28.4399 44.3976 27.1868 42.3172 26.3541 40.0494C24.8692 36.0057 24.5584 31.8949 25.15 28.5776C25.7469 25.2307 27.1923 22.7028 29.021 21.6865C30.383 20.9524 32.0881 20.8381 33.8318 21.2515C35.1412 21.562 36.4513 22.166 37.616 23L37.6979 21.847L38.0774 18.562V18.5389L38.6551 17.7447C39.7043 16.3951 42.6224 14.4764 45.9013 17.598L46.4455 18.4182Z" fill="white"/>
<path d="M39.1876 18.1079C40.8146 16.3318 43.6043 16.3547 45.2089 18.0893L45.648 19.0293L45.8293 22.3521L45.8954 23.5907L47.1219 49.0962L46.0141 46.8798L44.5918 44.0203C44.1071 43.046 43.2565 42.5 42.3502 42.5C41.444 42.5 40.5934 43.046 40.1087 44.0203L38.6509 46.951L37.5664 49.1202L38.5187 24.4622L38.5188 24.4598L38.7546 19.0293C38.7889 18.8297 38.9234 18.366 39.1876 18.1079Z" fill="white"/>
<path d="M71.356 48.8917L70.9325 47.1061L70.5992 45.8148C71.4463 44.5073 72.2786 42.9225 72.8824 41.2782C74.3695 37.2284 74.7195 33.3993 74.1289 30.0878C73.5437 26.8067 71.6042 24.2891 69.7291 23.2486C68.3432 22.4795 66.6755 22.4083 64.9117 23.1407C64.9117 23.1407 64.3062 22.0527 63.5 20.5C62.6938 18.9473 61.723 18.1365 61.723 18.1365C64.8584 16.8696 68.6932 16.3005 71.9647 18.1159C75.6424 20.1568 77.9599 23.6689 78.804 28.402C79.6435 33.1092 79.1126 38.5045 77.2343 43.6197C76.9988 44.2611 76.5859 45.0865 76.1752 45.8374L76.1336 45.8432C75.4035 45.9442 74.7362 46.3104 74.2588 46.8719L72.2221 49.268C72.0619 49.4541 71.8951 49.472 71.7641 49.4276C71.6182 49.3782 71.4336 49.2188 71.356 48.8917Z" fill="white"/>
<path d="M75.7013 46.7774C75.692 46.7608 75.6818 46.7441 75.6707 46.7274L73.5996 49.2005L72.9801 49.9203C72.5671 50.4001 71.979 50.5564 71.443 50.3747C70.9219 50.198 70.5273 49.7309 70.383 49.1225L69.7485 46.4469C69.5624 45.6624 69.0761 45.2776 68.635 45.2008C68.207 45.1264 67.6889 45.3175 67.3515 45.9793L65.8835 48.8589C65.5679 49.4779 64.9866 49.8068 64.3789 49.7304C63.7802 49.6552 63.2857 49.2034 63.0835 48.5422L62.2461 45.8045C62.1534 45.5017 62.0153 45.2663 61.8583 45.0923C61.5646 44.767 61.1959 44.6433 60.8604 44.6879C60.5287 44.732 60.1638 44.9502 59.9018 45.442L57.8619 49.2718C57.5569 49.8444 57.0162 50.164 56.4388 50.1201C55.8662 50.0764 55.3743 49.6845 55.1335 49.084L53.7739 45.694C53.4728 44.9431 52.9363 44.5993 52.4471 44.5597C51.9628 44.5205 51.4098 44.7696 51.0404 45.4518L48.8395 49.5172C48.5483 50.055 48.0437 50.371 47.4926 50.3577C46.9806 50.3455 46.4629 49.941 46.1822 49.4585L43.6964 44.4657C43.3567 43.7827 42.8257 43.5 42.3502 43.5C41.8748 43.5 41.3438 43.7827 41.0041 44.4657L38.5091 49.4815C38.2389 50.0248 37.753 50.3625 37.2067 50.3796C36.6588 50.3968 36.1544 50.0878 35.8595 49.5568L33.5714 45.436C33.1959 44.7598 32.6412 44.5194 32.157 44.5664C31.6669 44.6139 31.1321 44.9679 30.8386 45.7263L29.5593 49.031C29.3239 49.6392 28.8325 50.0393 28.2569 50.0882C27.6759 50.1375 27.1297 49.8182 26.8222 49.2409L24.7987 45.442C24.6246 45.1152 24.4051 44.9101 24.1829 44.7962C23.9902 44.698 23.7904 44.6658 23.6047 44.6841C23.5916 44.6854 23.5787 44.687 23.5658 44.6888C23.1436 44.7471 22.6742 45.0861 22.4544 45.8045L21.617 48.5422C21.4148 49.2034 20.9203 49.6552 20.3216 49.7304C19.7139 49.8068 19.1326 49.4779 18.817 48.8589L17.3428 45.9672C17.0058 45.3062 16.4883 45.1147 16.0607 45.1885C15.6199 45.2646 15.1339 45.648 14.9467 46.431L14.2882 49.186C14.1435 49.7916 13.7505 50.2568 13.2315 50.4339C12.6978 50.6159 12.1114 50.4626 11.6978 49.987L11.0128 49.1995L8.97096 46.7329C8.95046 46.7615 8.93251 46.7902 8.91725 46.8183C8.78482 47.0623 8.7612 47.393 8.93887 47.6888L13.6307 55.5H71.0063L75.686 47.6548C75.8644 47.3558 75.8379 47.0219 75.7013 46.7774Z" fill="white"/>
<path d="M7.73491 43.8431C5.86474 38.75 4.97675 33.1278 5.81954 28.402C6.66217 23.6771 8.87642 20.1602 12.5603 18.1159C15.8809 16.2733 19.8451 16.2523 23.1793 18L22.5 18.7761C21.7934 19.5379 20.8723 21.4146 20.5 22.2577L20.1413 23.1913C18.3336 22.4054 16.6219 22.4623 15.205 23.2486C13.3081 24.3012 11.4979 26.332 10.9172 29.5878C10.3306 32.8773 11.0425 37.2756 12.5397 41.3531C13.0119 42.6391 13.7008 44.1031 14.3582 45.2718L13.9074 46.4776L13.3156 48.9535C13.2379 49.2788 13.0541 49.4378 12.9087 49.4874C12.7779 49.532 12.6121 49.5145 12.4523 49.3307L10.125 46.7051C9.72186 46.2503 9.16846 45.9558 8.566 45.8754C8.26784 45.2165 7.9902 44.5383 7.73491 43.8431Z" fill="white"/>
<path d="M20.0189 65.9003L22.4258 68.3071L24.7035 66.0294L22.2966 63.6226L20.0189 65.9003Z" fill="white"/>
<path d="M31.8118 66C31.8118 65.7239 32.0356 65.5 32.3118 65.5C32.5879 65.5 32.8118 65.7239 32.8118 66C32.8118 66.2761 32.5879 66.5 32.3118 66.5C32.0356 66.5 31.8118 66.2761 31.8118 66Z" fill="white"/>
<path d="M51.8118 66C51.8118 65.7239 52.0356 65.5 52.3118 65.5C52.5879 65.5 52.8118 65.7239 52.8118 66C52.8118 66.2761 52.5879 66.5 52.3118 66.5C52.0356 66.5 51.8118 66.2761 51.8118 66Z" fill="white"/>
<path d="M42.327 68.3071L39.9201 65.9003L42.1978 63.6226L44.6047 66.0294L42.327 68.3071Z" fill="white"/>
<path d="M59.811 65.9003L62.2179 68.3071L64.4956 66.0294L62.0887 63.6226L59.811 65.9003Z" fill="white"/>
<path fill-rule="evenodd" clip-rule="evenodd" d="M70.8118 75.5V56.5H13.8118V75.5H70.8118ZM26.1177 66.0296L22.2966 62.2085L18.6047 65.9004L22.4258 69.7215L26.1177 66.0296ZM30.8118 66.0002C30.8118 65.1717 31.4833 64.5002 32.3118 64.5002C33.1402 64.5002 33.8118 65.1717 33.8118 66.0002C33.8118 66.8286 33.1402 67.5002 32.3118 67.5002C31.4833 67.5002 30.8118 66.8286 30.8118 66.0002ZM52.3118 64.5002C51.4833 64.5002 50.8118 65.1717 50.8118 66.0002C50.8118 66.8286 51.4833 67.5002 52.3118 67.5002C53.1402 67.5002 53.8118 66.8286 53.8118 66.0002C53.8118 65.1717 53.1402 64.5002 52.3118 64.5002ZM42.1978 62.2085L46.0189 66.0296L42.327 69.7215L38.5059 65.9004L42.1978 62.2085ZM58.3968 65.9004L62.0887 62.2085L65.9098 66.0296L62.2179 69.7215L58.3968 65.9004Z" fill="white"/>
</svg>
