<svg width="85" height="85" viewBox="0 0 85 85" fill="none" xmlns="http://www.w3.org/2000/svg">
<path fill-rule="evenodd" clip-rule="evenodd" d="M42.3118 10.5C39.6994 10.5 37.9014 12.542 37.9014 15.1429C37.9014 15.6125 37.9936 16.1516 38.1468 16.6476C38.29 17.1109 38.4745 17.4984 38.6551 17.7447C38.8346 17.8613 39.0121 17.9824 39.1876 18.1079C40.8146 16.3318 43.6043 16.3547 45.2089 18.0893C45.4353 17.9166 45.6663 17.7529 45.9013 17.598C46.1072 17.4208 46.3373 17.0687 46.5191 16.5996C46.7021 16.1277 46.8118 15.5998 46.8118 15.1429C46.8118 12.5544 44.9358 10.5 42.3118 10.5ZM46.9158 18.143C46.7669 18.2311 46.6197 18.3228 46.4742 18.4182C46.4742 18.4182 46.4742 18.4182 46.4742 18.4182C46.4646 18.4244 46.4551 18.4307 46.4455 18.437C46.1731 18.6167 45.9068 18.8094 45.6472 19.0153L45.8293 22.3521C47.2151 21.2926 48.8474 20.5531 50.4872 20.2066C52.4445 19.7928 54.4556 19.9311 56.0801 20.8078L56.0853 20.8106C58.2757 22.0261 60.1421 24.8901 60.7684 28.402C61.388 31.8765 61.406 36.1188 59.8551 40.3425C58.7534 43.3428 57.2524 45.7527 55.5844 47.5219L56.0616 48.7118C56.183 49.0144 56.3785 49.1126 56.5148 49.1229C56.6463 49.133 56.8361 49.0705 56.9793 48.8017L59.0192 44.9719C59.4127 44.2331 60.0371 43.7886 60.7285 43.6967C61.185 43.6359 61.6417 43.7332 62.0425 43.9665C62.3066 43.3744 62.5537 42.7661 62.7825 42.1432C64.5977 37.1995 64.7369 32.001 63.9272 27.4609C63.6857 26.1067 63.3261 24.8058 62.8496 23.5981L62.8457 23.588L62.8421 23.5777C62.6479 23.0152 62.2121 22.217 61.723 21.4224C61.246 20.6475 60.7408 19.9118 60.4184 19.4671C58.874 17.6801 56.5611 16.6661 54.1631 16.5028C51.6665 16.3328 49.1148 16.8419 46.9158 18.143ZM61.5625 19.3527C61.8635 19.7868 62.226 20.3319 62.5746 20.8982C62.9386 21.4896 63.3004 22.1247 63.5584 22.6885C65.8744 21.4006 68.2357 21.2762 70.2143 22.3742C72.3838 23.5781 74.482 26.3721 75.1134 29.9122C75.7393 33.422 75.3603 37.4311 73.8211 41.6229C73.0695 43.6699 71.9842 45.6198 70.9325 47.1061L71.356 48.8917C71.4336 49.2188 71.6182 49.3782 71.7641 49.4276C71.8951 49.472 72.0619 49.4541 72.2221 49.268L74.4858 46.6379C74.5318 46.5845 74.5852 46.5356 74.6458 46.4947C75.1881 45.5935 75.9586 44.1927 76.2956 43.2751C78.1196 38.3077 78.6246 33.092 77.8195 28.5776C77.019 24.089 74.8514 20.8615 71.4795 18.9903C68.2995 17.2257 64.7893 17.8709 61.5625 19.3527ZM73.5996 49.2005L72.9801 49.9203C72.5671 50.4001 71.979 50.5564 71.443 50.3747C70.9219 50.198 70.5273 49.7309 70.383 49.1225L69.7485 46.4469C69.5624 45.6624 69.0761 45.2776 68.635 45.2008C68.207 45.1264 67.6889 45.3175 67.3515 45.9793L65.8835 48.8589C65.5679 49.4779 64.9866 49.8068 64.3789 49.7304C63.7802 49.6552 63.2857 49.2034 63.0835 48.5422L62.2461 45.8045C62.1534 45.5017 62.0153 45.2663 61.8583 45.0923C61.5646 44.767 61.1959 44.6433 60.8604 44.6879C60.5287 44.732 60.1638 44.9502 59.9018 45.442L57.8619 49.2718C57.5569 49.8444 57.0162 50.164 56.4388 50.1201C55.8662 50.0764 55.3743 49.6845 55.1335 49.084L53.7739 45.694C53.4728 44.9431 52.9363 44.5993 52.4471 44.5597C51.9628 44.5205 51.4098 44.7696 51.0404 45.4518L48.8395 49.5172C48.5483 50.055 48.0437 50.371 47.4926 50.3577C46.9806 50.3455 46.52 50.0513 46.2393 49.5688C46.2377 49.5667 46.2363 49.5649 46.2351 49.5633C46.222 49.5461 46.2109 49.5296 46.2029 49.5172C46.1946 49.5045 46.1847 49.4885 46.175 49.4707C46.1703 49.4622 46.163 49.4485 46.1554 49.4319C46.1515 49.4235 46.146 49.4111 46.1403 49.3958C46.1368 49.3864 46.1309 49.3698 46.1251 49.3482L43.6964 44.4657C43.3567 43.7827 42.8257 43.5 42.3502 43.5C41.8748 43.5 41.3438 43.7827 41.0041 44.4657L38.5091 49.4815C38.2389 50.0248 37.753 50.3625 37.2067 50.3796C36.6588 50.3968 36.1544 50.0878 35.8595 49.5568L33.5714 45.436C33.1959 44.7598 32.6412 44.5194 32.157 44.5664C31.6669 44.6139 31.1321 44.9679 30.8386 45.7263L29.5593 49.031C29.3239 49.6392 28.8325 50.0393 28.2569 50.0882C27.6759 50.1375 27.1297 49.8182 26.8222 49.2409L24.7987 45.442C24.6246 45.1152 24.405 44.9101 24.1829 44.7962C23.9902 44.698 23.7904 44.6658 23.6047 44.6841C23.5916 44.6854 23.5787 44.687 23.5658 44.6888C23.1436 44.7471 22.6742 45.0861 22.4544 45.8045L21.617 48.5422C21.4148 49.2034 20.9203 49.6552 20.3216 49.7304C19.7139 49.8068 19.1326 49.4779 18.817 48.8589L17.3428 45.9672C17.0058 45.3062 16.4883 45.1147 16.0607 45.1885C15.6199 45.2646 15.1339 45.648 14.9467 46.431L14.2882 49.186C14.1435 49.7916 13.7505 50.2568 13.2315 50.4339C12.6978 50.6159 12.1114 50.4626 11.6978 49.987L11.0128 49.1995L14.7972 55.5H69.8419L73.5996 49.2005ZM69.8118 56.5H14.8118V74.5H69.8118V56.5ZM13.8118 55.8015V75.5H70.8118V55.8261L75.686 47.6548C75.8644 47.3558 75.8379 47.0219 75.7013 46.7774C75.692 46.7608 75.6818 46.7441 75.6707 46.7274C76.2066 45.8145 76.8996 44.5312 77.2343 43.6197C79.1126 38.5045 79.6435 33.1092 78.804 28.402C77.9599 23.6689 75.6424 20.1568 71.9647 18.1159C68.3007 16.0827 64.3312 16.9401 60.9317 18.5433C59.1956 16.6952 56.7335 15.6755 54.231 15.5051C51.9741 15.3514 49.6575 15.7146 47.5506 16.6832C47.7127 16.1871 47.8118 15.6472 47.8118 15.1429C47.8118 12.0507 45.5354 9.5 42.3118 9.5C39.0764 9.5 36.9014 12.0631 36.9014 15.1429C36.9014 15.7191 37.0101 16.3452 37.1812 16.9095C35.1093 15.8971 32.8428 15.4355 30.5471 15.5643C28.1113 15.701 25.7266 16.7077 24.0402 18.5C20.5446 16.2626 16.1718 16.1118 12.5603 18.1159C8.87642 20.1602 6.66217 23.6771 5.81953 28.402C4.97674 33.1278 5.86474 38.75 7.73491 43.8431C8.10242 44.844 8.51627 45.8095 8.97095 46.7329C8.95046 46.7615 8.93251 46.7902 8.91724 46.8183C8.78482 47.0623 8.7612 47.393 8.93887 47.6888L13.8118 55.8015ZM9.9894 46.5345C9.50268 45.5701 9.06167 44.5552 8.67362 43.4984C6.84155 38.509 6.00223 33.0734 6.804 28.5776C7.60595 24.0808 9.67968 20.8581 13.0455 18.9903C16.2915 17.189 20.2139 17.2977 23.3832 19.2679C22.8052 20.0089 21.9625 21.2618 21.367 22.6837C19.0538 21.4003 16.6959 21.2776 14.7198 22.3742C12.572 23.566 10.5686 25.8468 9.93276 29.4122C9.30289 32.944 10.0719 37.5336 11.601 41.6978C12.1918 43.3068 13.1048 45.1772 13.9074 46.4776L13.3156 48.9535C13.2379 49.2788 13.0541 49.4378 12.9087 49.4874C12.7779 49.532 12.6121 49.5145 12.4523 49.3307L10.135 46.6665C10.0926 46.6177 10.0439 46.5729 9.9894 46.5345ZM14.3582 45.2718C14.727 44.6883 15.2748 44.3094 15.8905 44.2031C16.802 44.0457 17.7227 44.5107 18.2337 45.513L19.7079 48.4047C19.8573 48.6977 20.0598 48.7555 20.1969 48.7382C20.343 48.7199 20.5543 48.5977 20.6608 48.2497L21.4982 45.512C21.6556 44.9974 21.9214 44.5737 22.2566 44.2637C22.0105 43.7085 21.7606 43.115 21.5493 42.5395C19.6699 37.4212 19.1833 31.9896 20.0223 27.2854C20.2485 26.0171 20.575 24.7871 21.0032 23.6265C18.8809 22.4057 16.8454 22.3382 15.205 23.2486C13.3081 24.3012 11.4979 26.332 10.9172 29.5878C10.3306 32.8773 11.0424 37.2756 12.5397 41.3531C13.0119 42.6391 13.7008 44.1031 14.3582 45.2718ZM23.4288 43.6982C23.3269 43.7123 23.2266 43.7339 23.1285 43.7627C22.9018 43.248 22.6776 42.711 22.488 42.1948C20.6652 37.2305 20.2011 31.9783 21.0068 27.4609C21.2483 26.1067 21.6079 24.8057 22.0843 23.598L22.0873 23.5906L22.09 23.583C22.752 21.7335 23.9785 20.0727 24.4972 19.4884L24.5024 19.4824C24.538 19.441 24.5737 19.4 24.6098 19.3593C26.1079 17.6655 28.316 16.6911 30.6032 16.5627C33.2147 16.4162 35.7875 17.0949 38.0415 18.5389C38.0413 18.5388 38.0416 18.539 38.0415 18.5389C38.0533 18.5465 38.0656 18.5544 38.0774 18.562C38.0773 18.562 38.0775 18.5621 38.0774 18.562C38.3064 18.7098 38.5324 18.8657 38.7546 19.0293L38.6043 22.4906C37.2403 21.4262 35.658 20.6568 34.0625 20.2785C32.1481 19.8246 30.177 19.9263 28.5435 20.8078L28.5383 20.8107C26.3235 22.0397 24.7849 24.9293 24.1656 28.402C23.5407 31.9061 23.8739 36.1962 25.4153 40.3941C26.3708 42.9961 27.8484 45.3537 29.2574 47.0408L28.6267 48.67C28.5073 48.9786 28.3098 49.0801 28.1723 49.0918C28.0402 49.103 27.849 49.0417 27.7048 48.7708L25.6813 44.9719C25.4204 44.4821 25.0578 44.1205 24.6383 43.9058C24.2983 43.7312 23.9249 43.6553 23.5476 43.6853C23.5081 43.6884 23.4684 43.6927 23.4288 43.6982ZM29.6734 45.966L29.906 45.3653C30.3142 44.3107 31.1378 43.6605 32.0605 43.571C32.9892 43.481 33.9016 43.9708 34.4456 44.9505L36.7338 49.0713C36.871 49.3185 37.049 49.3841 37.1754 49.3801C37.2886 49.3766 37.4426 49.3145 37.5664 49.1202L38.5187 24.4622L38.5188 24.4598L38.5498 23.7467C37.1791 22.5242 35.5049 21.6483 33.8318 21.2515C32.0881 20.8381 30.383 20.9524 29.021 21.6865C27.1923 22.7028 25.7469 25.2307 25.15 28.5776C24.5584 31.8949 24.8692 36.0057 26.3541 40.0494C27.1868 42.3172 28.4399 44.3976 29.6734 45.966ZM39.5178 24.5032L38.6509 46.951L40.1087 44.0203C40.5934 43.046 41.444 42.5 42.3502 42.5C43.2565 42.5 44.1071 43.046 44.5918 44.0203L46.0141 46.8798L44.8853 23.4053L44.8851 23.4021L44.6431 18.9661C43.4353 17.4251 41.0959 17.3744 39.8265 18.896L39.7578 18.9784L39.5179 24.5008L39.5178 24.5032ZM45.8954 23.5907L47.1219 49.0962C47.2468 49.2935 47.4026 49.3553 47.5166 49.358C47.6438 49.3611 47.8236 49.2933 47.9601 49.0411L50.161 44.9758C50.6942 43.9909 51.5992 43.4879 52.5277 43.563C53.4511 43.6376 54.282 44.2743 54.7021 45.3218L55.1713 46.4918C56.6126 44.8656 57.9268 42.6928 58.9164 39.9978C60.3917 35.9799 60.3808 31.9244 59.7839 28.5776C59.194 25.2698 57.4558 22.7163 55.6025 21.6864C54.2409 20.9526 52.4866 20.806 50.6939 21.1849C48.9763 21.548 47.2629 22.3863 45.8954 23.5907ZM70.5992 45.8148C70.2663 44.9325 69.5918 44.3523 68.8064 44.2157C67.8942 44.0569 66.9722 44.5216 66.4606 45.5251L64.9926 48.4047C64.8432 48.6977 64.6407 48.7555 64.5036 48.7382C64.3575 48.7199 64.1462 48.5977 64.0397 48.2497L63.2023 45.512C63.1082 45.2044 62.9759 44.9292 62.8122 44.6908C63.14 43.9786 63.4438 43.2433 63.7212 42.4878C65.6081 37.349 65.7466 31.9669 64.9117 27.2854C64.6855 26.0171 64.3589 24.7872 63.9308 23.6266C66.0531 22.4057 68.0886 22.3382 69.7291 23.2486C71.6042 24.2891 73.5437 26.8067 74.1289 30.0878C74.7195 33.3993 74.3695 37.2284 72.8824 41.2782C72.2786 42.9225 71.4463 44.5073 70.5992 45.8148ZM22.2966 62.2083L26.1177 66.0294L22.4258 69.7214L18.6047 65.9003L22.2966 62.2083ZM42.1978 62.2083L46.0189 66.0294L42.327 69.7214L38.5059 65.9003L42.1978 62.2083ZM62.0887 62.2083L65.9098 66.0294L62.2179 69.7214L58.3968 65.9003L62.0887 62.2083ZM20.0189 65.9003L22.4258 68.3071L24.7035 66.0294L22.2966 63.6226L20.0189 65.9003ZM39.9201 65.9003L42.327 68.3071L44.6047 66.0294L42.1978 63.6226L39.9201 65.9003ZM59.811 65.9003L62.2179 68.3071L64.4956 66.0294L62.0887 63.6226L59.811 65.9003ZM32.3118 65.5C32.0356 65.5 31.8118 65.7239 31.8118 66C31.8118 66.2761 32.0356 66.5 32.3118 66.5C32.5879 66.5 32.8118 66.2761 32.8118 66C32.8118 65.7239 32.5879 65.5 32.3118 65.5ZM30.8118 66C30.8118 65.1716 31.4833 64.5 32.3118 64.5C33.1402 64.5 33.8118 65.1716 33.8118 66C33.8118 66.8284 33.1402 67.5 32.3118 67.5C31.4833 67.5 30.8118 66.8284 30.8118 66ZM52.3118 65.5C52.0356 65.5 51.8118 65.7239 51.8118 66C51.8118 66.2761 52.0356 66.5 52.3118 66.5C52.5879 66.5 52.8118 66.2761 52.8118 66C52.8118 65.7239 52.5879 65.5 52.3118 65.5ZM50.8118 66C50.8118 65.1716 51.4833 64.5 52.3118 64.5C53.1402 64.5 53.8118 65.1716 53.8118 66C53.8118 66.8284 53.1402 67.5 52.3118 67.5C51.4833 67.5 50.8118 66.8284 50.8118 66Z" fill="white"/>
</svg>
