<svg width="85" height="85" viewBox="0 0 85 85" fill="none" xmlns="http://www.w3.org/2000/svg">
<rect x="15.5" y="8.5" width="55" height="68" stroke="white"/>
<rect x="19.5" y="12.5" width="47" height="41" stroke="white"/>
<path d="M55.6896 27.931C58.432 27.931 60.6552 25.7079 60.6552 22.9655C60.6552 20.2231 58.432 18 55.6896 18C52.9473 18 50.7241 20.2231 50.7241 22.9655C50.7241 25.7079 52.9473 27.931 55.6896 27.931Z" stroke="white" stroke-linejoin="round"/>
<path d="M66.5 48.5L58.0202 41.1724C57.2909 40.5423 56.2159 40.5219 55.4632 41.1239L51.6415 44.1809C50.8294 44.8305 49.655 44.7493 48.94 43.9941L36.3201 30.6655C35.4862 29.7849 34.0667 29.8431 33.3078 30.7891L19.5 48" stroke="white" stroke-miterlimit="10"/>
</svg>
