<svg width="85" height="85" viewBox="0 0 85 85" fill="none" xmlns="http://www.w3.org/2000/svg">
<g clip-path="url(#clip0_4036_5119)">
<path d="M15.5 8.5V76.5H70.5V8.5H15.5ZM66.5 53.5H19.5V12.5H66.5V53.5Z" fill="white" stroke="white"/>
<path d="M66.5 48.5001V53.5001H19.5V48.0001L33.3 30.8001C34.1 29.9001 35.5 29.8001 36.3 30.7001L48.9 44.0001C49.6 44.8001 50.8 44.8001 51.6 44.2001L55.4 41.1001C56.2 40.5001 57.2 40.5001 58 41.1001L66.5 48.4001V48.5001Z" fill="white" stroke="white"/>
<path d="M60.7 23C60.7 25.7 58.5 28 55.7 28C52.9 28 50.7 25.8 50.7 23C50.7 20.2 52.9 18 55.7 18C58.5 18 60.7 20.2 60.7 23Z" fill="white" stroke="white" stroke-linejoin="round"/>
</g>
<defs>
<clipPath id="clip0_4036_5119">
<rect width="56" height="69" fill="white" transform="translate(15 8)"/>
</clipPath>
</defs>
</svg>
