<svg width="85" height="85" viewBox="0 0 85 85" fill="none" xmlns="http://www.w3.org/2000/svg">
<path d="M47.5098 13.5629L47.5099 13.527L47.5097 13.4909L47.5097 13.4863C47.4882 11.0049 45.5025 9 43.0562 9C40.6144 9 38.6316 10.9973 38.6027 13.4723C38.6024 13.4789 38.6023 13.4855 38.6023 13.4921V40.6893H36.8215V29.8403V18.9912V18.9595C36.8215 16.4593 35.0223 14.4032 32.5626 14.4032C30.1029 14.4032 28.8052 16.4593 28.8052 18.9595L28.8046 49.227L21.754 42.0604C21.725 42.0301 21.6956 42.0002 21.6657 41.9707L21.5865 41.8902C21.5691 41.8724 21.5504 41.8566 21.5308 41.8427C20.7428 41.1255 19.7019 40.6893 18.5609 40.6893C16.1012 40.6893 14.1072 42.7161 14.1072 45.2163C14.1072 46.3737 14.5345 47.4296 15.2374 48.23C15.252 48.252 15.2689 48.2729 15.288 48.2924L29.5757 62.8152L42.2559 76H54.7953L67.1067 63.1598V40.7115L67.1069 40.705L67.1072 40.6905V25.715C67.1072 25.7089 67.107 25.7028 67.1068 25.6967C67.0787 23.2211 65.9215 20.8871 63.4793 20.8871C61.0346 20.8871 59.0868 22.9117 59.0626 25.3909L59.0626 40.6893H57.3094V18.472C57.3094 18.4654 57.3092 18.4589 57.3089 18.4525C57.2801 15.9775 55.2973 13.9801 52.8555 13.9801C50.4101 13.9801 49.148 16.0632 49.125 18.5433V40.6893H47.5098V13.5629Z" fill="white"/>
</svg>
