<svg width="85" height="85" viewBox="0 0 85 85" fill="none" xmlns="http://www.w3.org/2000/svg">
<path d="M47.0098 13.561V13.5629V40.6893V41.1893H47.5098H49.125H49.625V40.6893V18.5455C49.6362 17.3825 49.9383 16.3553 50.4816 15.632C51.0136 14.9239 51.7938 14.4801 52.8555 14.4801C55.0156 14.4801 56.7832 16.2492 56.809 18.4583L56.8091 18.4668L56.8094 18.4734V40.6893V41.1893H57.3094H59.0626H59.5626V40.6893L59.5626 25.3957C59.5626 25.395 59.5626 25.3942 59.5626 25.3934C59.5855 23.173 61.3259 21.3871 63.4793 21.3871C64.5136 21.3871 65.2659 21.8699 65.7829 22.6418C66.3121 23.4319 66.5935 24.5311 66.6068 25.7024L66.6069 25.7101L66.6072 25.7165V40.6864L66.6071 40.6904L66.6071 40.6907L66.6067 40.7011V40.7115V62.9588L54.582 75.5H42.4687L29.9361 62.4686L29.9362 62.4686L29.9322 62.4645L15.6498 47.9472L15.6355 47.9256L15.6131 47.9001C14.9878 47.1881 14.6072 46.2486 14.6072 45.2163C14.6072 42.9846 16.385 41.1893 18.5609 41.1893C19.5717 41.1893 20.4939 41.5751 21.1942 42.2125L21.2167 42.233L21.2352 42.2461L21.3093 42.3214L21.3093 42.3214L21.3142 42.3263C21.3407 42.3525 21.3669 42.3791 21.3927 42.4061L21.3927 42.4061L21.3976 42.4111L28.4481 49.5777L29.3045 50.4481L29.3046 49.227L29.3052 18.9595C29.3052 17.7891 29.6097 16.7656 30.1587 16.0475C30.6966 15.3439 31.4894 14.9032 32.5626 14.9032C34.7059 14.9032 36.3215 16.6933 36.3215 18.9595V18.9912V29.8403V40.6893V41.1893H36.8215H38.6023H39.1023V40.6893V13.4937L39.1026 13.4867L39.1027 13.4781C39.1284 11.2691 40.8961 9.5 43.0562 9.5C45.2203 9.5 46.9905 11.2758 47.0097 13.4907L47.0098 13.4928L47.0098 13.4946L47.0099 13.5251V13.529L47.0098 13.561Z" stroke="white"/>
</svg>
