<svg width="85" height="85" viewBox="0 0 85 85" fill="none" xmlns="http://www.w3.org/2000/svg">
<g clip-path="url(#clip0_4036_5135)">
<path d="M42.75 9C24.14 9 9 24.14 9 42.75C9 61.36 24.14 76.5 42.75 76.5C61.36 76.5 76.5 61.36 76.5 42.75C76.5 24.14 61.35 9 42.75 9ZM42.75 64.09C30.97 64.09 21.4 54.52 21.4 42.75C21.4 30.98 30.97 21.4 42.75 21.4C54.53 21.4 64.09 30.97 64.09 42.75C64.09 54.53 54.52 64.09 42.75 64.09Z" fill="white"/>
<path d="M42.7499 22.3999C31.5199 22.3999 22.3999 31.5299 22.3999 42.7499C22.3999 53.9699 31.5199 63.0899 42.7499 63.0899C53.9799 63.0899 63.0899 53.9699 63.0899 42.7499C63.0899 31.5299 53.9699 22.3999 42.7499 22.3999ZM42.7499 53.0099C37.0899 53.0099 32.4799 48.3999 32.4799 42.7499C32.4799 37.0999 37.0899 32.4799 42.7499 32.4799C48.4099 32.4799 53.0099 37.0899 53.0099 42.7499C53.0099 48.4099 48.3999 53.0099 42.7499 53.0099Z" fill="white"/>
<path d="M52.01 42.75C52.01 47.85 47.85 52.01 42.75 52.01C37.65 52.01 33.48 47.85 33.48 42.75C33.48 37.65 37.64 33.48 42.75 33.48C47.86 33.48 52.01 37.64 52.01 42.75Z" fill="white"/>
</g>
<defs>
<clipPath id="clip0_4036_5135">
<rect width="67.5" height="67.5" fill="white" transform="translate(9 9)"/>
</clipPath>
</defs>
</svg>
