<svg width="85" height="85" viewBox="0 0 85 85" fill="none" xmlns="http://www.w3.org/2000/svg">
<g clip-path="url(#clip0_4036_5098)">
<path d="M8.5 42.5C8.5 24.29 23.71 9.5 42.5 9.5C61.29 9.5 76.5 24.29 76.5 42.5C76.5 60.71 61.29 75.5 42.5 75.5C23.71 75.5 8.5 60.71 8.5 42.5ZM32.44 42.5C32.44 37.1 36.95 32.73 42.5 32.73C48.05 32.73 52.56 37.1 52.56 42.5C52.56 47.9 48.05 52.27 42.5 52.27C36.95 52.27 32.44 47.9 32.44 42.5ZM20.94 42.5C20.94 30.94 30.59 21.56 42.5 21.56C54.41 21.56 64.06 30.93 64.06 42.5C64.06 54.07 54.41 63.44 42.5 63.44C30.59 63.44 20.94 54.07 20.94 42.5Z" stroke="white"/>
</g>
<defs>
<clipPath id="clip0_4036_5098">
<rect width="69" height="67" fill="white" transform="translate(8 9)"/>
</clipPath>
</defs>
</svg>
