<svg width="82" height="99" viewBox="0 0 82 99" fill="none" xmlns="http://www.w3.org/2000/svg">
<path d="M59.5667 25.0878H55.8622V66.5118C55.8622 69.7845 55.2448 72.7034 53.9217 75.3274C52.5987 77.9514 50.7758 79.9857 48.3943 81.4599C46.0129 82.934 43.2492 83.6711 40.1327 83.6711C37.3102 83.6711 34.8405 82.9635 32.7236 81.5483C30.6068 80.1331 28.9603 78.2757 27.8431 75.8875C26.7258 73.4994 26.1672 70.8459 26.1672 67.8976V25.0878H1V73.4404C1 78.0103 2.14664 82.138 4.46931 85.8824C6.79199 89.6268 10.1143 92.5751 14.4068 94.7568L14.348 94.7274C18.67 96.9091 23.4917 98 29.3131 98C35.1345 98 40.3385 96.9091 44.925 94.6684C49.5116 92.4276 53.0985 89.3319 55.6858 85.3812L55.5 97.4103H81V25.0878H55.8916M81 1V15.8301H1V1H81Z" stroke="#111111" stroke-linejoin="bevel"/>
</svg>
