<svg width="186" height="42" viewBox="0 0 186 42" fill="none" xmlns="http://www.w3.org/2000/svg">
<path d="M34.2788 0V6.36898H0V0H34.2788ZM5.74464 40.2651C3.90534 39.3281 2.48178 38.0619 1.48655 36.4539C0.491317 34.8458 0 33.0731 0 31.1105V10.3448H10.7838V28.73C10.7838 29.9962 11.0231 31.1358 11.5019 32.1615C11.9806 33.1871 12.6861 33.9848 13.5931 34.5926C14.5002 35.2003 15.5584 35.5042 16.7678 35.5042C18.1032 35.5042 19.2874 35.1877 20.3078 34.5546C21.3282 33.9215 22.1093 33.0478 22.6762 31.9209C23.2431 30.794 23.5077 29.5404 23.5077 28.1349V10.3448H25.095V30.4774C25.095 32.6173 24.5407 34.5419 23.4321 36.2386C22.3234 37.9353 20.7865 39.2648 18.8212 40.2271C16.856 41.1894 14.6261 41.6579 12.1318 41.6579C9.63738 41.6579 7.57133 41.1894 5.71944 40.2525L5.74464 40.2651ZM23.5202 41.4047V10.3448H34.2788V41.4047H23.5202Z" fill="white"/>
<path d="M48.7791 10.3578V41.4176H38.0205V10.3578H48.7791ZM66.5547 11.4974C68.394 12.4344 69.8176 13.7006 70.8128 15.3086C71.808 16.9167 72.2994 18.6894 72.2994 20.652V41.4176H61.5156V23.0451C61.5156 21.7789 61.2762 20.6393 60.7849 19.6137C60.2936 18.5881 59.6007 17.7777 58.6937 17.1826C57.7866 16.5875 56.7284 16.2709 55.519 16.2709C54.1836 16.2709 52.9994 16.5875 51.979 17.2206C50.9586 17.8537 50.1775 18.7274 49.6106 19.8543C49.0437 20.9812 48.7791 22.2347 48.7791 23.6402V41.4303H47.1918V21.2978C47.1918 19.1579 47.7461 17.2333 48.8547 15.5366C49.9633 13.8398 51.5003 12.5103 53.4655 11.548C55.4308 10.5857 57.6606 10.1172 60.155 10.1172C62.6494 10.1172 64.7154 10.5857 66.5673 11.5227L66.5547 11.4974Z" fill="white"/>
<path d="M97.1927 12.3834C99.3217 13.7383 100.896 15.5869 101.942 17.9294C102.975 20.2719 103.504 22.9309 103.504 25.9065C103.504 28.882 102.975 31.5917 101.929 33.9721C100.884 36.3526 99.2965 38.2519 97.1801 39.6447C95.0636 41.0375 92.4559 41.7339 89.3568 41.7339C86.2577 41.7339 83.7256 41.0375 81.6343 39.6574C79.5431 38.2646 77.9809 36.3779 76.9479 33.9975C75.9149 31.617 75.3984 28.9327 75.3984 25.9571C75.3984 22.9815 75.9149 20.4112 76.9479 18.056C77.9809 15.7009 79.5431 13.8269 81.6343 12.4468C83.7256 11.0666 86.2955 10.3702 89.3568 10.3702C92.4181 10.3702 95.0636 11.054 97.1927 12.3961V12.3834ZM96.8148 33.7189C97.8226 32.9465 98.5785 31.9082 99.0824 30.5914C99.5863 29.2745 99.8382 27.7931 99.8382 26.147C99.8382 24.501 99.5863 22.9942 99.0824 21.6394C98.5785 20.2719 97.8226 19.1956 96.8148 18.3979C95.8069 17.6002 94.5849 17.195 93.1488 17.195C91.7126 17.195 90.3898 17.6002 89.3946 18.3979C88.3994 19.1956 87.6561 20.2719 87.1774 21.6267C86.6987 22.9689 86.4593 24.4883 86.4593 26.1723C86.4593 27.8564 86.6987 29.3379 87.1774 30.642C87.6561 31.9462 88.3994 32.9845 89.3946 33.7316C90.3898 34.4786 91.6496 34.8585 93.1614 34.8585C94.6731 34.8585 95.8195 34.4786 96.8273 33.7062L96.8148 33.7189ZM110.924 41.3921H100.128V2.92572e-05H110.924V41.3921Z" fill="white"/>
<path d="M116.077 17.8029C117.362 15.3845 119.289 13.4725 121.872 12.0671C124.454 10.6616 127.616 9.95252 131.383 9.95252C135.15 9.95252 138.287 10.6616 140.844 12.0671C143.401 13.4725 145.304 15.3845 146.551 17.8029C147.798 20.2214 148.428 22.9437 148.428 25.9953C148.415 26.6537 148.39 27.2741 148.365 27.8313H124.807C124.933 29.3887 125.235 30.7941 125.727 32.0477C126.218 33.2886 126.936 34.2889 127.843 35.0233C128.763 35.7703 129.896 36.1375 131.232 36.1375C132.265 36.1375 133.184 35.8843 133.978 35.3778C134.772 34.8713 135.439 34.2002 135.956 33.3645C136.472 32.5288 136.863 31.6045 137.115 30.5916H147.937C147.37 32.9593 146.374 34.9979 144.926 36.7073C143.477 38.4167 141.625 39.7209 139.332 40.6325C137.039 41.5442 134.394 42 131.37 42C127.616 42 124.442 41.2909 121.859 39.8855C119.276 38.48 117.349 36.568 116.064 34.1496C114.779 31.7311 114.149 29.0088 114.149 25.9953C114.149 22.9817 114.792 20.2341 116.064 17.8156L116.077 17.8029ZM127.969 16.2962C127.074 17.0559 126.394 18.0435 125.903 19.2717C125.424 20.5 125.109 21.8675 124.983 23.3616H137.581C137.443 21.8675 137.128 20.5 136.636 19.2717C136.145 18.0435 135.439 17.0432 134.545 16.2962C133.651 15.5365 132.542 15.1693 131.244 15.1693C129.947 15.1693 128.863 15.5491 127.982 16.2962H127.969Z" fill="white"/>
<path d="M180.414 11.3579C182.279 12.3456 183.715 13.7384 184.71 15.5617C185.705 17.3851 186.121 19.4869 185.97 21.8674H175.085C175.01 20.6772 174.682 19.6515 174.115 18.7779C173.548 17.9042 172.818 17.2331 171.936 16.7646C171.041 16.2961 170.071 16.0682 169.013 16.0682C167.778 16.0682 166.645 16.3721 165.624 16.9672C164.604 17.5623 163.785 18.3854 163.18 19.3983C162.576 20.4239 162.273 21.5508 162.273 22.7791V41.4048H151.489V10.5096H162.235V15.3465C162.941 14.2322 163.873 13.2572 165.007 12.4469C166.141 11.6365 167.476 11.0034 169 10.5603C170.525 10.1171 172.213 9.88915 174.065 9.88915C176.433 9.88915 178.562 10.383 180.427 11.3706L180.414 11.3579Z" fill="white"/>
</svg>
