<svg width="35" height="42" viewBox="0 0 35 42" fill="none" xmlns="http://www.w3.org/2000/svg">
<path d="M34.2788 0V6.36898H0V0H34.2788ZM5.74464 40.2651C3.90534 39.3281 2.48178 38.0619 1.48655 36.4539C0.491317 34.8458 0 33.0731 0 31.1105V10.3448H10.7838V28.73C10.7838 29.9962 11.0231 31.1358 11.5019 32.1615C11.9806 33.1871 12.6861 33.9848 13.5931 34.5926C14.5002 35.2003 15.5584 35.5042 16.7678 35.5042C18.1032 35.5042 19.2874 35.1877 20.3078 34.5546C21.3282 33.9215 22.1093 33.0478 22.6762 31.9209C23.2431 30.794 23.5077 29.5404 23.5077 28.1349V10.3448H25.095V30.4774C25.095 32.6173 24.5407 34.5419 23.4321 36.2386C22.3234 37.9353 20.7865 39.2648 18.8212 40.2271C16.856 41.1894 14.6261 41.6579 12.1318 41.6579C9.63738 41.6579 7.57133 41.1894 5.71944 40.2525L5.74464 40.2651ZM23.5202 41.4047V10.3448H34.2788V41.4047H23.5202Z" fill="white"/>
</svg>
