<svg width="90" height="19" viewBox="0 0 90 19" fill="none" xmlns="http://www.w3.org/2000/svg">
<path d="M11.0346 8.9796L9.22463 1.33295C8.99427 0.365297 7.84794 0.504327 7.54627 0.826877C5.64851 2.82891 0.415971 7.87848 0.415971 7.87848C0.0155772 8.27333 -0.121544 9.37445 0.10882 10.3421L1.9243 17.9832C2.15467 18.9508 3.21873 18.873 3.52588 18.5727C4.73803 17.377 10.7275 11.4488 10.7275 11.4488C11.1279 11.0539 11.265 9.94725 11.0346 8.9796Z" fill="white"/>
<path d="M24.5223 8.9796L22.7123 1.33295C22.4819 0.365297 21.3356 0.504327 21.0339 0.826877C19.1417 2.82891 13.9091 7.87292 13.9091 7.87292C13.5087 8.26777 13.3716 9.36888 13.602 10.3365L15.4175 17.9776C15.6478 18.9453 16.7119 18.8674 17.019 18.5671C18.2312 17.3715 24.2206 11.4432 24.2206 11.4432C24.621 11.0539 24.7527 9.94725 24.5223 8.9796Z" fill="white"/>
<path d="M17.7807 8.9796L15.9652 1.33295C15.7349 0.365297 14.5885 0.504327 14.2869 0.826877C12.3946 2.82891 7.16206 7.87292 7.16206 7.87292C6.76167 8.26777 6.62455 9.36888 6.85491 10.3365L8.6704 17.9776C8.90076 18.9453 9.96482 18.8674 10.272 18.5671C11.4841 17.3715 17.4736 11.4432 17.4736 11.4432C17.874 11.0539 18.0111 9.94725 17.7807 8.9796Z" fill="white"/>
<path d="M29.7573 1.49219V17.8647H33.101V6.89493L37.3599 17.8647H40.2108L44.4697 6.89493V17.8647H47.8134V1.49219H43.3023L38.9086 13.512L34.3681 1.49219H29.7573Z" fill="white"/>
<path d="M49.9072 1.49219V17.8647H61.1527V14.8495H53.4093V11.0599H59.4867V8.18549H53.4152V4.51327H60.9004V1.49219H49.9072Z" fill="white"/>
<path d="M61.9102 12.4855C61.9571 15.665 64.7142 18.0056 68.6914 18.0056C72.3637 18.0056 75.0504 15.8293 75.0738 12.8375C75.0973 9.54073 72.6159 8.696 69.8119 8.18565C67.1017 7.66942 65.8112 7.38785 65.8112 6.05623C65.8112 4.795 66.8847 4.16145 68.3805 4.16145C70.0876 4.16145 71.1611 5.11764 71.3019 6.50206H74.7395C74.6691 3.53377 72.0293 1.35742 68.3805 1.35742C64.8256 1.35742 62.2797 3.43991 62.2797 6.31434C62.2797 9.63459 64.7142 10.5262 67.4713 11.0366C70.2049 11.5763 71.5424 11.8579 71.5424 13.2364C71.5424 14.5211 70.3516 15.2251 68.7384 15.2251C66.7263 15.2251 65.4651 14.1281 65.3477 12.5383L61.9102 12.4855Z" fill="white"/>
<path d="M76.4814 1.49219V17.8647H79.9894V11.1068H86.4891V17.8647H89.9971V1.49219H86.4891V8.0623H79.9894V1.49219H76.4814Z" fill="white"/>
</svg>
