<svg width="76" height="22" viewBox="0 0 76 22" fill="none" xmlns="http://www.w3.org/2000/svg">
<g clip-path="url(#clip0_1764_1925)">
<path fill-rule="evenodd" clip-rule="evenodd" d="M4.72881 3.38355L7.46465 10.8418L10.3312 3.38355H14.4005L7.44208 20.6547H3.4173L5.47549 15.303L0.528809 3.38355H4.72881ZM47.7091 3.11909C51.3835 3.11909 54.0629 5.93834 54.0629 9.79709C54.0629 13.6558 51.3835 16.4757 47.7091 16.4757C46.3531 16.4757 45.2116 16.1207 44.3401 15.4362L44.2837 15.391L44.2352 15.3516V20.6508H40.314V3.38355H43.7812V4.6744L43.8012 4.65209C44.6554 3.68871 45.9476 3.15584 47.5445 3.12105L47.6288 3.11974L47.7091 3.11909ZM21.5427 3.11909C25.5888 3.11909 28.4567 5.88321 28.4567 9.79709C28.4567 13.6946 25.5795 16.4757 21.5427 16.4757C17.4835 16.4757 14.6016 13.6985 14.6016 9.79709C14.6016 5.87927 17.4735 3.11909 21.5427 3.11909ZM34.9896 0.541992V3.38355H38.2153V6.7324H34.9896V11.355C34.9896 12.3893 35.4974 12.9582 36.4226 12.993L36.4677 12.9937L36.5135 12.9943C37.1408 12.9943 37.616 12.8316 38.0414 12.4273L38.0812 12.3886L38.1868 12.2816H38.216V15.9757L38.0958 16.0328C37.45 16.3379 37.0525 16.4757 35.952 16.4757C32.8432 16.4757 31.1361 14.8023 31.0697 11.6772L31.0684 11.5821V11.4869L31.0677 6.7324H29.6487V3.38355H31.1746V0.541992H34.9896ZM62.6315 3.11909C66.6775 3.11909 69.5454 5.88321 69.5454 9.79709C69.5454 13.6946 66.6682 16.4757 62.6315 16.4757C58.5722 16.4757 55.6903 13.6985 55.6903 9.79709C55.6903 5.87927 58.5629 3.11909 62.6315 3.11909ZM72.7419 12.2265C73.9286 12.2265 74.8903 13.1781 74.8903 14.3508C74.8903 15.5242 73.9279 16.4757 72.7419 16.4757C71.5551 16.4757 70.5934 15.5242 70.5934 14.3508C70.5934 13.1774 71.5558 12.2265 72.7419 12.2265ZM47.1217 6.60049C45.3549 6.60049 44.1549 7.8933 44.1549 9.79709C44.1549 11.7015 45.3549 12.9943 47.1217 12.9943C48.9111 12.9943 50.1151 11.7055 50.1151 9.79709C50.1151 7.88937 48.9111 6.60049 47.1217 6.60049ZM21.5421 6.60049C19.77 6.60049 18.5494 7.89987 18.5494 9.79709C18.5494 11.695 19.77 12.9943 21.5427 12.9943C23.2923 12.9943 24.5096 11.691 24.5096 9.79709C24.5096 7.9038 23.2916 6.60049 21.5421 6.60049ZM62.6315 6.60049C60.8593 6.60049 59.6381 7.89987 59.6381 9.79709C59.6381 11.695 60.8593 12.9943 62.6315 12.9943C64.381 12.9943 65.5983 11.691 65.5983 9.79709C65.5983 7.9038 64.381 6.60049 62.6315 6.60049Z" fill="white"/>
</g>
<defs>
<clipPath id="clip0_1764_1925">
<rect width="75" height="21" fill="white" transform="translate(0.29541 0.180664)"/>
</clipPath>
</defs>
</svg>
