<svg width="95" height="26" viewBox="0 0 95 26" fill="none" xmlns="http://www.w3.org/2000/svg">
<path d="M7.1276 6.62573C5.58091 6.62573 3.87692 7.26491 3.03803 8.59654V0.180664H-0.00292969V19.3827H3.03803V17.7049C3.87692 19.0365 5.63334 19.7023 7.10139 19.7023C10.3259 19.7023 13.1309 17.1189 13.1309 13.1507C13.1309 9.15582 10.3521 6.62573 7.1276 6.62573ZM6.62951 16.826C4.76824 16.826 3.09046 15.3079 3.09046 13.1241C3.09046 10.9402 4.8731 9.50204 6.62951 9.50204C8.51701 9.50204 10.0899 11.0467 10.0899 13.1241C10.0899 15.2014 8.51701 16.826 6.62951 16.826Z" fill="white"/>
<path d="M25.3819 8.67668C24.5692 7.37169 22.9439 6.62598 21.2661 6.62598C17.8057 6.62598 15.2891 9.39576 15.2891 13.1509C15.2891 17.0127 17.9106 19.7025 21.1875 19.7025C22.9439 19.7025 24.5692 18.797 25.3819 17.4388V19.383H28.4229V6.94557H25.3819V8.67668ZM21.8166 16.8262C19.8243 16.8262 18.33 15.1484 18.33 13.1509C18.33 11.1535 19.8243 9.50229 21.7904 9.50229C23.5993 9.50229 25.3295 11.0203 25.3295 13.1509C25.3295 15.2283 23.7041 16.8262 21.8166 16.8262Z" fill="white"/>
<path d="M32.4169 25.1802L39.2431 0.21582H36.2021L29.376 25.1802H32.4169Z" fill="white"/>
<path d="M48.8785 8.67668C48.0658 7.37169 46.4405 6.62598 44.7627 6.62598C41.3023 6.62598 38.7856 9.39576 38.7856 13.1509C38.7856 17.0127 41.4072 19.7025 44.6841 19.7025C46.4405 19.7025 48.0658 18.797 48.8785 17.4388V19.383H51.9195V6.94557H48.8785V8.67668ZM45.3132 16.8262C43.3209 16.8262 41.8266 15.1484 41.8266 13.1509C41.8266 11.1535 43.3209 9.50229 45.287 9.50229C47.0959 9.50229 48.8261 11.0203 48.8261 13.1509C48.8261 15.2283 47.2007 16.8262 45.3132 16.8262Z" fill="white"/>
<path d="M62.1366 6.62598C60.8783 6.62598 58.9646 7.34505 58.3354 8.91637V6.94557H55.2944V19.383H58.3354V12.7781C58.3354 10.3812 60.0656 9.55555 61.455 9.55555C62.8182 9.55555 63.9979 10.6209 63.9979 12.6183V19.383H67.0388V12.4052C67.0388 8.78321 65.2824 6.62598 62.1366 6.62598Z" fill="white"/>
<path d="M76.0542 19.7025C78.1776 19.7025 79.9078 18.7438 81.0351 17.3056L78.8854 15.5745C78.2562 16.3468 77.2076 16.8262 76.1066 16.8262C73.9832 16.8262 72.4627 15.2283 72.4627 13.1509C72.4627 11.047 73.9832 9.50229 76.1066 9.50229C77.2076 9.50229 78.2562 9.98167 78.8854 10.754L81.0351 9.0229C79.9078 7.58475 78.1776 6.62598 76.0542 6.62598C72.5151 6.62598 69.3955 9.20933 69.3955 13.1509C69.3955 17.0926 72.5151 19.7025 76.0542 19.7025Z" fill="white"/>
<path d="M94.9969 13.0444C94.9969 9.15607 92.2443 6.62598 88.7577 6.62598C85.2448 6.62598 82.335 9.1827 82.335 13.1509C82.335 17.0393 85.1138 19.7025 88.7577 19.7025C90.986 19.7025 93.1618 18.6905 94.2891 16.8795L92.2443 15.3082C91.5365 16.3202 90.252 16.9061 88.9412 16.9061C87.1061 16.9061 85.7954 15.974 85.4546 14.2429H94.9445C94.9707 13.7901 94.9969 13.3906 94.9969 13.0444ZM85.4546 12.0856C85.8216 10.1947 87.1586 9.36913 88.7839 9.36913C90.4879 9.36913 91.7987 10.3812 91.9822 12.0856H85.4546Z" fill="white"/>
</svg>
