<svg width="49" height="28" viewBox="0 0 49 28" fill="none" xmlns="http://www.w3.org/2000/svg">
<g clip-path="url(#clip0_1764_1875)">
<path d="M9.91124 22.5517H6.40361C4.90608 22.5517 4.34702 21.1552 4.34702 19.23L4.34451 9.18848H0.29541V19.23C0.29541 23.5446 3.14976 26.7966 6.93503 26.7966H13.9666V9.18848H9.91124V22.5517Z" fill="white"/>
<path d="M20.9316 13.4334H24.4393C25.9368 13.4334 26.4959 14.8299 26.4959 16.7551L26.4971 26.7966H30.5462V16.7551C30.5462 12.4405 27.6919 9.18848 23.9066 9.18848H16.875V26.7966H20.9304V13.4334H20.9316Z" fill="white"/>
<path d="M33.4585 26.7969H37.578V7.77246L33.4585 9.56878V26.7969Z" fill="white"/>
<path d="M48.0782 23.3471L48.0493 23.3484C47.744 23.3905 47.4136 23.4102 47.0694 23.4102C46.1711 23.4102 45.5329 23.1512 45.1711 22.6409C44.7955 22.1097 44.6045 21.1892 44.6045 19.9044V12.8624H48.2931V9.18828H44.6045V4.70801L40.4863 6.50433V19.9373C40.4863 21.055 40.5806 22.0636 40.7665 22.9368C40.9549 23.8271 41.2866 24.5977 41.7514 25.2263C42.2188 25.8614 42.8595 26.3532 43.6548 26.6859C44.4387 27.0147 45.4249 27.1804 46.5832 27.1804C47.1209 27.1804 47.6335 27.1449 48.1084 27.0765L48.2943 27.0489V23.3471H48.0782Z" fill="white"/>
<path d="M33.4585 0.180664V6.2337L37.578 4.43739V0.180664H33.4585Z" fill="white"/>
</g>
<defs>
<clipPath id="clip0_1764_1875">
<rect width="48" height="27" fill="white" transform="translate(0.29541 0.180664)"/>
</clipPath>
</defs>
</svg>
