<svg width="164" height="24" viewBox="0 0 164 24" fill="none" xmlns="http://www.w3.org/2000/svg">
<g clip-path="url(#clip0_1943_434)">
<path fill-rule="evenodd" clip-rule="evenodd" d="M75.4744 4.11619C74.9039 4.11619 74.4312 3.92958 74.0563 3.55635C73.6977 3.18313 73.5184 2.7066 73.5184 2.13676C73.5184 1.56693 73.6977 1.1004 74.0563 0.743834C74.4312 0.370609 74.9039 0.183996 75.4744 0.183996C76.0449 0.183996 76.5111 0.370609 76.8697 0.743834C77.2446 1.1004 77.4336 1.56693 77.4336 2.13676C77.4336 2.7066 77.2446 3.1798 76.8697 3.55635C76.5111 3.92958 76.0449 4.11619 75.4744 4.11619ZM73.7401 19.9649V5.94899H77.2087V19.9649H73.7401ZM42.9396 3.55635C43.3145 3.92958 43.7872 4.11619 44.3577 4.11619C44.9282 4.11619 45.3944 3.92958 45.753 3.55635C46.1279 3.17646 46.3169 2.7066 46.3169 2.13676C46.3169 1.56693 46.1279 1.1004 45.753 0.743834C45.3944 0.367277 44.9282 0.180664 44.3577 0.180664C43.7872 0.180664 43.3145 0.367277 42.9396 0.740502C42.581 1.09707 42.4017 1.5636 42.4017 2.13343C42.4017 2.70327 42.581 3.1798 42.9396 3.55302V3.55635ZM42.6234 5.94899V19.9683H46.092V5.94899H42.6234ZM48.9641 5.94899V19.9683H52.4327V12.7337C52.4327 11.4541 52.7131 10.4544 53.2738 9.7379C53.8508 9.02144 54.6006 8.66487 55.5232 8.66487C56.4458 8.66487 57.1564 8.98478 57.6096 9.62459C58.0627 10.2644 58.2877 11.1875 58.2877 12.3938V19.9683H61.7563V12.7337C61.7563 11.4541 62.0367 10.4544 62.5974 9.7379C63.1744 9.02144 63.934 8.66487 64.8729 8.66487C65.8117 8.66487 66.4735 8.98478 66.9071 9.62459C67.3602 10.2644 67.5852 11.1875 67.5852 12.3938V19.9616H71.0538V12.0506C71.0538 9.94117 70.5844 8.34163 69.6455 7.24528C68.7066 6.15227 67.3602 5.60576 65.6064 5.60576C64.661 5.59909 63.7319 5.83236 62.8973 6.28556C62.1051 6.71877 61.4303 7.35192 60.9446 8.12503C60.0774 6.44885 58.6039 5.60909 56.5273 5.60909C55.5884 5.60909 54.7571 5.8157 54.0334 6.22891C53.3422 6.61213 52.7554 7.16531 52.3251 7.83845L52.0285 5.94566H48.9641V5.94899ZM80.084 0.300629V19.9683H83.5527V0.300629H80.084ZM92.1558 20.3048C90.8909 20.3048 89.7597 19.9849 88.7687 19.3451C87.7744 18.702 86.9887 17.8289 86.4117 16.7192C85.8347 15.6095 85.5445 14.3432 85.5445 12.9336C85.5445 11.524 85.8347 10.2644 86.4117 9.17472C86.9887 8.06505 87.7776 7.1953 88.7687 6.57548C89.763 5.93233 90.8909 5.61576 92.1558 5.61576C93.1664 5.61576 94.0531 5.81237 94.8127 6.20892C95.5723 6.60214 96.1852 7.16197 96.6546 7.87843V5.95566H100.123V19.9749H97.0328L96.6546 17.9655C96.221 18.5853 95.644 19.1352 94.9203 19.6017C94.2129 20.0749 93.2935 20.3082 92.1558 20.3082V20.3048ZM92.886 17.1424C94.0075 17.1424 94.9203 16.7525 95.6244 15.9828C96.3482 15.193 96.71 14.1833 96.71 12.957C96.71 11.7307 96.3482 10.7343 95.6244 9.96116C94.9203 9.16806 94.0075 8.77484 92.886 8.77484C91.7646 8.77484 90.8714 9.1614 90.1476 9.9345C89.4239 10.7076 89.0621 11.704 89.0621 12.9336C89.0621 14.1633 89.4239 15.1663 90.1476 15.9594C90.8714 16.7459 91.7842 17.1457 92.886 17.1457V17.1424ZM102.907 5.94899V19.9683H106.376V13.5801C106.376 12.5071 106.536 11.6673 106.862 11.0642C107.207 10.461 107.677 10.0378 108.273 9.79121C108.87 9.54462 109.548 9.42465 110.307 9.42465H111.282L110.307 5.94899C109.6 5.94899 108.854 6.07896 108.303 6.42885C107.471 6.95537 106.787 7.69515 106.324 8.5749L105.998 5.94899H102.907ZM116.224 19.9716L112.293 5.95232H115.735L118.066 16.0394L120.775 5.95232H124.625L127.334 16.0394L129.695 5.95232H133.137L129.18 19.9716H125.574L122.702 9.48464L119.827 19.9716H116.224ZM136.691 19.4051C137.74 20.0049 138.94 20.3082 140.296 20.3082C141.379 20.3082 142.347 20.1016 143.198 19.6883C144.035 19.2951 144.775 18.7153 145.366 17.9922C145.949 17.2824 146.386 16.4559 146.64 15.5629H143.116C142.878 16.0927 142.516 16.5226 142.031 16.8625C141.558 17.1824 140.971 17.3424 140.267 17.3424C139.328 17.3424 138.523 17.0324 137.854 16.4126C137.206 15.7895 136.844 14.9331 136.772 13.84H146.989C147.005 13.5934 147.015 13.3602 147.015 13.1336C147.035 12.9103 147.044 12.6904 147.044 12.4838C147.044 11.2041 146.754 10.0445 146.177 9.00811C145.636 7.96841 144.818 7.10532 143.817 6.51883C142.806 5.919 141.643 5.61576 140.322 5.61576C138.911 5.61576 137.685 5.93566 136.635 6.57548C135.605 7.19863 134.793 8.07171 134.197 9.20138C133.62 10.3311 133.33 11.6207 133.33 13.0736C133.33 14.5265 133.626 15.7661 134.223 16.8592C134.797 17.9289 135.651 18.8086 136.691 19.4051ZM138.073 9.31802C138.722 8.80816 139.471 8.55157 140.322 8.55157C141.173 8.55157 141.949 8.82816 142.546 9.37133C143.142 9.91784 143.465 10.6543 143.52 11.5774H136.824C137.007 10.561 137.421 9.80787 138.073 9.31802ZM156.687 20.3115C155.674 20.3115 154.79 20.1149 154.031 19.715C153.284 19.3318 152.648 18.7586 152.189 18.0455L151.807 19.9683H148.717V0.300629H152.185V7.95508C152.619 7.33526 153.19 6.78542 153.894 6.31889C154.617 5.84569 155.546 5.61242 156.684 5.61242C157.949 5.61242 159.077 5.93233 160.071 6.57215C161.069 7.21863 161.884 8.12503 162.428 9.19805C163.005 10.3111 163.296 11.574 163.296 12.9836C163.296 14.3932 163.005 15.6595 162.428 16.7692C161.881 17.8322 161.066 18.7286 160.071 19.3684C159.084 19.9949 157.952 20.3015 156.687 20.3015V20.3115ZM155.957 17.1491C157.059 17.1491 157.972 16.7625 158.696 15.9894C159.419 15.2196 159.781 14.2199 159.781 12.9936C159.781 11.7673 159.419 10.7609 158.696 9.96783C157.972 9.17806 157.062 8.78151 155.957 8.78151C154.852 8.78151 153.916 9.17473 153.193 9.96783C152.489 10.7409 152.137 11.7373 152.137 12.967C152.137 14.1966 152.489 15.1996 153.193 15.9894C153.913 16.7625 154.836 17.1491 155.957 17.1491ZM38.2158 12.2305C39.0113 12.4971 39.6437 12.9003 40.1132 13.4468C40.5826 13.9767 40.8173 14.7364 40.8206 15.7362C40.8467 16.5693 40.6185 17.389 40.1686 18.0821C39.7154 18.7786 39.0667 19.3251 38.2158 19.7183C37.365 20.1182 36.3642 20.3148 35.2069 20.3148C34.0496 20.3148 32.964 20.1149 32.061 19.7183C31.1579 19.3051 30.4342 18.7386 29.8931 18.0222C29.4562 17.4457 29.153 16.7759 29.0063 16.0627L32.1457 15.5595C32.2598 15.8228 32.6967 16.4893 33.1628 16.8358C33.1954 16.8692 33.2313 16.8958 33.2672 16.9291L33.2835 16.9425C33.7725 17.319 34.3951 17.5056 35.1547 17.5056C35.9143 17.5056 36.4652 17.3457 36.8075 17.0258C37.1694 16.7059 37.3487 16.3393 37.3487 15.9228C37.3487 15.3163 37.0944 14.9131 36.5891 14.7065C36.0805 14.4832 35.3764 14.2633 34.4734 14.0566C33.88 13.92 33.2932 13.7601 32.713 13.5768C32.1392 13.3968 31.5883 13.1602 31.0601 12.8703C30.5874 12.5837 30.1832 12.1972 29.867 11.7373C29.5605 11.2675 29.4073 10.6943 29.4073 10.0145C29.4073 8.77151 29.8768 7.72848 30.8156 6.87872C31.7741 6.0323 33.1107 5.60576 34.8287 5.60576C36.4196 5.60576 37.6845 5.99565 38.6233 6.76542C39.3634 7.35858 39.898 8.17835 40.1523 9.10141L37.2541 9.8512V9.83787C37.2541 9.83787 36.8695 9.07475 36.2501 8.73818C35.8849 8.51825 35.4025 8.40495 34.8026 8.40495C34.1506 8.40495 33.6453 8.53491 33.2835 8.79817C32.9412 9.06476 32.7684 9.39466 32.7684 9.78788C32.7684 10.2011 33.0324 10.531 33.554 10.7776C34.0756 11.0242 34.7733 11.2508 35.6404 11.4574C36.5793 11.684 37.44 11.9406 38.2158 12.2205V12.2305Z" fill="white"/>
<path d="M20.9683 6.44252C19.7686 4.52974 18.031 2.93353 16.0392 2.12044L15.4491 1.91716C14.7971 1.71055 14.1223 1.60392 13.4377 1.60059C11.2796 1.61058 9.53223 3.43672 9.53223 5.6894C9.53223 6.62913 9.83541 7.48888 10.344 8.17868L10.0995 7.85211C10.2168 8.02872 10.344 8.20534 10.4907 8.38529C11.1101 9.15173 11.9903 9.94817 13.1313 10.8512C15.9349 13.0706 17.7539 15.0367 17.9039 17.4793C17.9398 17.8092 17.9626 18.1458 17.9626 18.4857C17.9626 19.7253 17.6985 21.0383 17.2486 21.9614H17.2519C17.2519 21.9614 17.0596 22.3212 17.1802 22.4279C17.2421 22.4812 17.3758 22.5245 17.6105 22.3779C18.8656 21.5415 19.9479 20.4585 20.7923 19.1955C22.0343 17.3227 22.7157 15.1167 22.745 12.8507C22.7776 10.5847 22.1615 8.36196 20.9683 6.45251V6.44252Z" fill="white"/>
<path d="M12.4593 14.7806L10.7021 13.2977C7.02161 10.5518 5.10799 7.5927 6.15771 3.94376C6.25225 3.61052 6.36961 3.28728 6.50327 2.97404C6.50327 2.97404 6.76407 2.4142 6.19683 2.68745C2.75101 4.60023 0.517911 8.21918 0.312531 12.2247C0.178871 14.7406 0.853691 17.2332 2.23267 19.3193C2.79013 20.1191 3.47147 20.8189 4.24735 21.392C8.12675 24.3112 11.4552 22.775 11.4552 22.775C13.1406 22.0485 14.236 20.349 14.2262 18.4795C14.2327 17.0333 13.5807 15.6637 12.4593 14.7806Z" fill="white"/>
</g>
<defs>
<clipPath id="clip0_1943_434">
<rect width="163" height="23" fill="white" transform="translate(0.29541 0.180664)"/>
</clipPath>
</defs>
</svg>
