<svg width="93" height="32" viewBox="0 0 93 32" fill="none" xmlns="http://www.w3.org/2000/svg">
<path d="M38.458 10.7886V25.8749H40.9476V17.3542C40.9476 16.6733 41.0355 16.0508 41.2112 15.4866C41.4065 14.903 41.6896 14.3972 42.0606 13.9692C42.4316 13.5413 42.8905 13.2106 43.4373 12.9771C44.0035 12.7437 44.6674 12.6269 45.429 12.6269C46.3858 12.6269 47.1375 12.8993 47.6843 13.444C48.231 13.9887 48.5044 14.7279 48.5044 15.6617V25.8749H50.994V15.9535C50.994 15.1365 50.9062 14.3972 50.7304 13.7358C50.5742 13.0549 50.2911 12.4713 49.881 11.985C49.471 11.4986 48.934 11.1193 48.2701 10.8469C47.6062 10.5746 46.7763 10.4384 45.7804 10.4384C43.5349 10.4384 41.8947 11.3527 40.8598 13.1814H40.8012V10.7886H38.458Z" fill="white"/>
<path d="M56.1978 8.0748V5.04004H53.7081V8.0748H56.1978ZM53.7081 10.7886V25.8749H56.1978V10.7886H53.7081Z" fill="white"/>
<path d="M59.0295 5.04004V25.8749H61.5191V5.04004H59.0295Z" fill="white"/>
<path d="M76.7404 25.8749V10.7886H74.2508V19.3093C74.2508 19.9901 74.1531 20.6224 73.9579 21.206C73.7821 21.7701 73.5088 22.2662 73.1378 22.6942C72.7668 23.1222 72.2981 23.4529 71.7319 23.6863C71.1851 23.9198 70.531 24.0365 69.7694 24.0365C68.8126 24.0365 68.0609 23.7641 67.5141 23.2194C66.9674 22.6747 66.694 21.9355 66.694 21.0017V10.7886H64.2044V20.7099C64.2044 21.527 64.2825 22.2759 64.4387 22.9568C64.6145 23.6182 64.9073 24.1921 65.3174 24.6785C65.7275 25.1648 66.2644 25.5441 66.9283 25.8165C67.5922 26.0694 68.4221 26.1958 69.418 26.1958C70.531 26.1958 71.4975 25.9819 72.3176 25.5539C73.1378 25.1064 73.8114 24.4158 74.3386 23.4821H74.3972V25.8749H76.7404Z" fill="white"/>
<path d="M80.8311 21.1185H78.3415C78.3806 22.0522 78.5758 22.8498 78.9273 23.5112C79.2788 24.1532 79.7474 24.6785 80.3332 25.087C80.919 25.4761 81.5927 25.7581 82.3542 25.9332C83.1157 26.1083 83.9163 26.1958 84.756 26.1958C85.5175 26.1958 86.279 26.118 87.0406 25.9624C87.8216 25.8262 88.5148 25.5733 89.1201 25.2037C89.745 24.8341 90.2429 24.3477 90.6139 23.7447C91.0044 23.1416 91.1997 22.3829 91.1997 21.4686C91.1997 20.7488 91.0533 20.1458 90.7604 19.6594C90.487 19.1731 90.116 18.7743 89.6474 18.463C89.1982 18.1323 88.671 17.8697 88.0657 17.6752C87.4799 17.4806 86.8746 17.3153 86.2497 17.1791C85.6639 17.0429 85.0781 16.9165 84.4923 16.7997C83.9066 16.6636 83.3793 16.5079 82.9107 16.3329C82.4421 16.1383 82.0515 15.9049 81.7391 15.6325C81.4462 15.3407 81.2998 14.9808 81.2998 14.5529C81.2998 14.1638 81.3974 13.8525 81.5927 13.6191C81.7879 13.3662 82.0418 13.1716 82.3542 13.0355C82.6666 12.8798 83.0083 12.7729 83.3793 12.7145C83.7699 12.6561 84.1506 12.6269 84.5216 12.6269C84.9317 12.6269 85.332 12.6756 85.7225 12.7728C86.1326 12.8507 86.5036 12.9868 86.8355 13.1814C87.1675 13.3759 87.4409 13.6385 87.6556 13.9692C87.8704 14.2805 87.9974 14.6793 88.0364 15.1656H90.526C90.4675 14.2513 90.2722 13.4926 89.9403 12.8896C89.6083 12.2671 89.1592 11.7807 88.5929 11.4306C88.0462 11.0609 87.4116 10.808 86.6891 10.6719C85.9666 10.5162 85.1758 10.4384 84.3166 10.4384C83.6527 10.4384 82.9791 10.526 82.2956 10.701C81.6317 10.8567 81.0264 11.1096 80.4796 11.4597C79.9524 11.7904 79.5131 12.2281 79.1616 12.7728C78.8297 13.3176 78.6637 13.9692 78.6637 14.7279C78.6637 15.7006 78.9078 16.4593 79.3959 17.004C79.8841 17.5487 80.4894 17.9767 81.2119 18.2879C81.9539 18.5798 82.7545 18.8132 83.6137 18.9883C84.4728 19.1439 85.2637 19.3287 85.9861 19.5427C86.7281 19.7372 87.3432 19.9999 87.8314 20.3306C88.3195 20.6613 88.5636 21.1476 88.5636 21.7896C88.5636 22.2565 88.4465 22.6456 88.2122 22.9568C87.9778 23.2486 87.6752 23.4723 87.3042 23.628C86.9527 23.7836 86.5622 23.8906 86.1326 23.9489C85.703 24.0073 85.2929 24.0365 84.9024 24.0365C84.3947 24.0365 83.8968 23.9879 83.4086 23.8906C82.94 23.7933 82.5104 23.6377 82.1199 23.4237C81.7489 23.1903 81.4462 22.8887 81.2119 22.5191C80.9776 22.13 80.8507 21.6632 80.8311 21.1185Z" fill="white"/>
<path fill-rule="evenodd" clip-rule="evenodd" d="M18.0862 21.2893C18.0862 23.6128 19.9551 25.4964 22.2606 25.4964V27.9895C18.5889 27.9895 15.6125 24.9897 15.6125 21.2893H18.0862Z" fill="white"/>
<path fill-rule="evenodd" clip-rule="evenodd" d="M13.1387 21.2893C13.1387 23.6128 11.2698 25.4964 8.96433 25.4964L8.96433 27.9895C12.636 27.9895 15.6125 24.9897 15.6125 21.2893L13.1387 21.2893Z" fill="white"/>
<path fill-rule="evenodd" clip-rule="evenodd" d="M18.0862 12.7192C18.0862 17.4339 21.9441 21.2893 26.7442 21.2893V23.7824C20.6148 23.7824 15.6125 18.8477 15.6125 12.7192H18.0862Z" fill="white"/>
<path fill-rule="evenodd" clip-rule="evenodd" d="M13.1387 12.7191C13.1387 17.4522 9.33163 21.2891 4.63531 21.2891L4.63531 23.7822C10.6978 23.7822 15.6125 18.8292 15.6125 12.7192L13.1387 12.7191Z" fill="white"/>
<path fill-rule="evenodd" clip-rule="evenodd" d="M18.0862 3.37012C18.0862 10.6849 23.9699 16.6147 31.2279 16.6147V19.1078C22.6037 19.1078 15.6125 12.0618 15.6125 3.37012L18.0862 3.37012Z" fill="white"/>
<path fill-rule="evenodd" clip-rule="evenodd" d="M13.1387 3.37012C13.1387 10.6849 7.25502 16.6147 -0.00292969 16.6147L-0.00292917 19.1078C8.62122 19.1078 15.6125 12.0618 15.6125 3.37012L13.1387 3.37012Z" fill="white"/>
</svg>
