<svg width="93" height="29" viewBox="0 0 93 29" fill="none" xmlns="http://www.w3.org/2000/svg">
<path fill-rule="evenodd" clip-rule="evenodd" d="M9.32436 5.1486C9.3275 1.19098 14.0754 -0.804382 16.8815 1.97261C19.7112 4.77299 17.7395 9.61243 13.7679 9.61475L11.9773 9.6158L11.9754 12.0347L14.4541 12.0347L14.4541 14.7041L11.9733 14.7041L11.9706 18.0499C11.9661 23.7781 4.74677 26.2535 1.25863 21.7229C-1.78267 17.7727 1.0192 12.0347 5.98938 12.0347H9.3189L9.32082 9.61735L6.71903 9.61887L6.71749 6.94942L9.32294 6.9479L9.32436 5.1486ZM11.9795 6.94634L13.7664 6.9453C15.3622 6.94437 16.1545 4.99981 15.0174 3.87456C13.8899 2.75872 11.9821 3.56049 11.9809 5.15073L11.9795 6.94634ZM9.31679 14.7041H5.98938C3.22665 14.7041 1.6692 17.8937 3.35974 20.0894C5.29867 22.6078 9.31161 21.2318 9.31413 18.0477L9.31679 14.7041Z" fill="white"/>
<path d="M16.1625 23.8757V11.9592H19.1749V23.8757H16.1625Z" fill="white"/>
<path d="M21.1141 23.8757V11.9592H24.0788V13.5209H24.5091C24.7004 13.1044 25.059 12.712 25.585 12.3436C26.111 11.9592 26.9079 11.767 27.9759 11.767C28.9003 11.767 29.7052 11.9833 30.3906 12.4157C31.0919 12.8321 31.6339 13.4167 32.0164 14.1695C32.3989 14.9063 32.5902 15.7712 32.5902 16.7642V23.8757H29.5777V17.0045C29.5777 16.1076 29.3546 15.4349 28.9083 14.9864C28.4779 14.5379 27.8563 14.3137 27.0434 14.3137C26.119 14.3137 25.4017 14.626 24.8916 15.2507C24.3816 15.8593 24.1266 16.7162 24.1266 17.8213V23.8757H21.1141Z" fill="white"/>
<path d="M38.5724 24.212C37.7276 24.212 36.9705 24.0679 36.3011 23.7796C35.6316 23.4752 35.0977 23.0428 34.6992 22.4822C34.3167 21.9056 34.1254 21.2089 34.1254 20.392C34.1254 19.5752 34.3167 18.8945 34.6992 18.3499C35.0977 17.7893 35.6396 17.3729 36.325 17.1006C37.0263 16.8123 37.8233 16.6681 38.7159 16.6681H41.9674V15.9954C41.9674 15.4349 41.7921 14.9784 41.4414 14.626C41.0908 14.2576 40.5329 14.0734 39.7678 14.0734C39.0187 14.0734 38.4608 14.2496 38.0942 14.602C37.7276 14.9383 37.4885 15.3788 37.377 15.9234L34.6036 14.9864C34.7948 14.3778 35.0977 13.8252 35.5121 13.3287C35.9425 12.8161 36.5083 12.4077 37.2096 12.1034C37.9269 11.783 38.7956 11.6229 39.8157 11.6229C41.3777 11.6229 42.613 12.0153 43.5215 12.8001C44.43 13.5849 44.8843 14.7221 44.8843 16.2117V20.6563C44.8843 21.1368 45.1074 21.377 45.5537 21.377H46.5101V23.8757H44.5017C43.912 23.8757 43.4258 23.7315 43.0433 23.4432C42.6608 23.1549 42.4695 22.7705 42.4695 22.29V22.266H42.0152C41.9515 22.4582 41.808 22.7144 41.5849 23.0348C41.3617 23.3391 41.0111 23.6114 40.5329 23.8516C40.0547 24.0919 39.4012 24.212 38.5724 24.212ZM39.0984 21.7614C39.9432 21.7614 40.6285 21.5292 41.1545 21.0647C41.6965 20.5842 41.9674 19.9516 41.9674 19.1667V18.9265H38.931C38.3732 18.9265 37.9348 19.0466 37.6161 19.2869C37.2973 19.5271 37.1379 19.8635 37.1379 20.2959C37.1379 20.7284 37.3052 21.0807 37.64 21.353C37.9747 21.6253 38.4608 21.7614 39.0984 21.7614Z" fill="white"/>
<path d="M47.7563 23.8757V7.05812H50.7688V23.8757H47.7563Z" fill="white"/>
<path d="M58.7931 24.212C57.6136 24.212 56.5537 23.9718 55.6133 23.4912C54.6728 23.0107 53.9317 22.314 53.3898 21.4011C52.8478 20.4881 52.5769 19.391 52.5769 18.1096V17.7252C52.5769 16.4439 52.8478 15.3468 53.3898 14.4338C53.9317 13.5209 54.6728 12.8241 55.6133 12.3436C56.5537 11.8631 57.6136 11.6229 58.7931 11.6229C59.9726 11.6229 61.0325 11.8631 61.9729 12.3436C62.9133 12.8241 63.6545 13.5209 64.1964 14.4338C64.7384 15.3468 65.0093 16.4439 65.0093 17.7252V18.1096C65.0093 19.391 64.7384 20.4881 64.1964 21.4011C63.6545 22.314 62.9133 23.0107 61.9729 23.4912C61.0325 23.9718 59.9726 24.212 58.7931 24.212ZM58.7931 21.5212C59.7176 21.5212 60.4826 21.2249 61.0883 20.6323C61.694 20.0236 61.9969 19.1587 61.9969 18.0376V17.7973C61.9969 16.6761 61.694 15.8193 61.0883 15.2266C60.4986 14.618 59.7335 14.3137 58.7931 14.3137C57.8686 14.3137 57.1036 14.618 56.4979 15.2266C55.8922 15.8193 55.5894 16.6761 55.5894 17.7973V18.0376C55.5894 19.1587 55.8922 20.0236 56.4979 20.6323C57.1036 21.2249 57.8686 21.5212 58.7931 21.5212Z" fill="white"/>
<path d="M72.4761 24.212C71.2966 24.212 70.2367 23.9718 69.2963 23.4912C68.3559 23.0107 67.6147 22.314 67.0728 21.4011C66.5308 20.4881 66.2599 19.391 66.2599 18.1096V17.7252C66.2599 16.4439 66.5308 15.3468 67.0728 14.4338C67.6147 13.5209 68.3559 12.8241 69.2963 12.3436C70.2367 11.8631 71.2966 11.6229 72.4761 11.6229C73.6556 11.6229 74.7155 11.8631 75.6559 12.3436C76.5964 12.8241 77.3375 13.5209 77.8794 14.4338C78.4214 15.3468 78.6923 16.4439 78.6923 17.7252V18.1096C78.6923 19.391 78.4214 20.4881 77.8794 21.4011C77.3375 22.314 76.5964 23.0107 75.6559 23.4912C74.7155 23.9718 73.6556 24.212 72.4761 24.212ZM72.4761 21.5212C73.4006 21.5212 74.1656 21.2249 74.7713 20.6323C75.377 20.0236 75.6799 19.1587 75.6799 18.0376V17.7973C75.6799 16.6761 75.377 15.8193 74.7713 15.2266C74.1816 14.618 73.4165 14.3137 72.4761 14.3137C71.5516 14.3137 70.7866 14.618 70.1809 15.2266C69.5752 15.8193 69.2723 16.6761 69.2723 17.7973V18.0376C69.2723 19.1587 69.5752 20.0236 70.1809 20.6323C70.7866 21.2249 71.5516 21.5212 72.4761 21.5212Z" fill="white"/>
<path d="M80.5167 28.6807V11.9592H83.4813V13.4007H83.9117C84.1827 12.9362 84.605 12.5278 85.1788 12.1755C85.7527 11.8071 86.5735 11.6229 87.6414 11.6229C88.5978 11.6229 89.4824 11.8631 90.2953 12.3436C91.1082 12.8081 91.7617 13.4968 92.2558 14.4098C92.7499 15.3227 92.997 16.4279 92.997 17.7252V18.1096C92.997 19.407 92.7499 20.5121 92.2558 21.4251C91.7617 22.338 91.1082 23.0348 90.2953 23.5153C89.4824 23.9798 88.5978 24.212 87.6414 24.212C86.9242 24.212 86.3185 24.1239 85.8244 23.9477C85.3462 23.7876 84.9557 23.5793 84.6529 23.3231C84.366 23.0508 84.1348 22.7785 83.9595 22.5062H83.5292V28.6807H80.5167ZM86.7329 21.5692C87.6733 21.5692 88.4464 21.2729 89.052 20.6803C89.6737 20.0717 89.9845 19.1908 89.9845 18.0376V17.7973C89.9845 16.6441 89.6737 15.7712 89.052 15.1786C88.4304 14.57 87.6574 14.2656 86.7329 14.2656C85.8084 14.2656 85.0354 14.57 84.4138 15.1786C83.7922 15.7712 83.4813 16.6441 83.4813 17.7973V18.0376C83.4813 19.1908 83.7922 20.0717 84.4138 20.6803C85.0354 21.2729 85.8084 21.5692 86.7329 21.5692Z" fill="white"/>
</svg>
