<svg width="70" height="22" viewBox="0 0 70 22" fill="none" xmlns="http://www.w3.org/2000/svg">
<g clip-path="url(#clip0_1764_1922)">
<path d="M64.1768 10.3696H61.7386C60.1656 10.3696 59.3004 11.5362 59.3004 13.5584V20.7918H54.5813V10.3696H52.615C51.042 10.3696 50.1768 11.5362 50.1768 13.5584V20.7918H45.4577V6.48066H50.1768V8.65844C50.9634 6.94733 51.9858 6.48066 53.5589 6.48066H59.3004V8.65844C60.087 6.94733 61.1094 6.48066 62.6825 6.48066H64.2555L64.1768 10.3696ZM44.3566 14.7251H34.6038C34.8398 16.3584 35.8622 17.214 37.5139 17.214C38.7724 17.214 39.6375 16.6696 39.9521 15.814L44.1207 16.9807C43.0982 19.4696 40.5813 20.9473 37.5139 20.9473C32.4016 20.9473 30.042 16.9807 30.042 13.5584C30.042 10.214 32.087 6.24733 37.1993 6.24733C42.6263 6.24733 44.4353 10.2918 44.4353 13.3251C44.4353 14.0251 44.4353 14.414 44.3566 14.7251ZM39.8735 12.0029C39.7948 10.7584 38.851 9.66955 37.278 9.66955C35.7836 9.66955 34.9184 10.2918 34.6038 12.0029H39.8735ZM21.8622 20.7918H25.9521L31.1431 6.55844H26.424L23.9072 14.8807L21.3903 6.48066H16.6712L21.8622 20.7918ZM2.67123 20.7918H7.31168V10.3696H11.7948V20.7918H16.4353V6.48066H7.31168V5.62511C7.31168 4.69177 8.01954 4.06955 9.04202 4.06955H11.7948V0.180664H8.33415C4.95213 0.180664 2.67123 2.28066 2.67123 5.314V6.48066H-0.00292969V10.3696H2.67123V20.7918Z" fill="white"/>
<path d="M67.0869 21.1804C68.6599 21.1804 69.997 19.8581 69.997 18.3026C69.997 16.747 68.6599 15.4248 67.0869 15.4248C65.5138 15.4248 64.1768 16.747 64.1768 18.3026C64.1768 19.8581 65.5138 21.1804 67.0869 21.1804Z" fill="white"/>
</g>
<defs>
<clipPath id="clip0_1764_1922">
<rect width="70" height="21" fill="white" transform="translate(-0.00292969 0.180664)"/>
</clipPath>
</defs>
</svg>
