<svg width="1440" height="890" viewBox="0 0 1440 890" fill="none" xmlns="http://www.w3.org/2000/svg">
<rect width="1440" height="890" fill="black"/>
<rect x="106.8" y="80.6506" width="766.649" height="518.493" rx="30" fill="#EBFF09"/>
<rect x="555.904" y="375.761" width="633.596" height="420.032" rx="30" fill="#CF6AFF"/>
<rect x="90.3564" y="66.1646" width="759.249" height="506.719" rx="25" fill="white" stroke="black" stroke-width="10"/>
<rect x="543.182" y="364.975" width="625.744" height="408.595" rx="25" fill="white" stroke="black" stroke-width="10"/>
<rect x="1007.18" y="222.374" width="352.534" height="255.107" rx="30" fill="#115AFB"/>
<rect x="993.143" y="207.314" width="342.534" height="245.107" rx="25" fill="white" stroke="black" stroke-width="10"/>
<path d="M1114.18 320.133C1114.66 321.59 1114.96 323.071 1115.07 324.583C1115.24 326.096 1115.32 327.832 1115.32 329.793V353.656H1102.95V331.056C1102.95 328.704 1102.73 326.967 1102.3 325.847C1101.86 324.67 1101.1 323.749 1100.02 323.077C1098.99 322.405 1097.72 322.069 1096.2 322.069C1093.76 322.069 1091.7 322.909 1090.02 324.59C1088.34 326.214 1087.5 328.287 1087.5 330.807V353.662H1075.13V312.067H1087.5V324.919C1088.42 320.83 1090.21 317.525 1092.87 315.004C1095.52 312.484 1098.72 311.226 1102.46 311.226C1105.45 311.226 1107.92 312.042 1109.86 313.66C1111.88 315.291 1113.31 317.444 1114.18 320.133Z" fill="black"/>
<path d="M1142.07 354.503C1137.83 354.503 1133.99 353.606 1130.51 351.814C1127.1 349.965 1124.41 347.42 1122.46 344.171C1120.51 340.866 1119.53 337.113 1119.53 332.911C1119.53 328.654 1120.51 324.901 1122.46 321.652C1124.41 318.347 1127.1 315.801 1130.51 314.009C1133.99 312.16 1137.83 311.239 1142.07 311.239C1146.3 311.239 1150.12 312.16 1153.54 314.009C1157.01 315.801 1159.72 318.347 1161.67 321.652C1163.63 324.901 1164.6 328.654 1164.6 332.911C1164.6 337.113 1163.62 340.866 1161.67 344.171C1159.72 347.42 1157.01 349.965 1153.54 351.814C1150.12 353.606 1146.3 354.503 1142.07 354.503ZM1142.07 342.739C1144.83 342.739 1147.08 341.843 1148.82 340.05C1150.56 338.202 1151.42 335.793 1151.42 332.824C1151.42 329.855 1150.52 327.478 1148.74 325.685C1147 323.893 1144.78 322.996 1142.07 322.996C1139.3 322.996 1137.02 323.893 1135.23 325.685C1133.5 327.478 1132.63 329.855 1132.63 332.824C1132.63 335.793 1133.5 338.202 1135.23 340.05C1137.02 341.843 1139.3 342.739 1142.07 342.739Z" fill="black"/>
<path d="M1181.17 323.83V335.003C1181.17 337.187 1181.71 338.893 1182.79 340.125C1183.87 341.301 1185.59 341.886 1187.92 341.886H1194.02V353.65H1185.8C1182.66 353.65 1179.79 353.034 1177.18 351.801C1174.63 350.513 1172.6 348.696 1171.08 346.343C1169.57 343.934 1168.81 341.133 1168.81 337.94V297.702H1181.17V312.067H1194.03V323.83H1181.17Z" fill="black"/>
<path d="M1218.86 354.503C1214.74 354.503 1211 353.638 1207.63 351.901C1204.27 350.165 1201.61 347.675 1199.66 344.426C1197.76 341.121 1196.81 337.287 1196.81 332.918C1196.81 328.493 1197.79 324.659 1199.74 321.41C1201.7 318.105 1204.36 315.584 1207.72 313.847C1211.13 312.111 1214.93 311.246 1219.11 311.246C1223.61 311.246 1228.03 312.111 1232.37 313.847V325.947C1228.14 323.986 1224.04 323.009 1220.09 323.009C1217.1 323.009 1214.66 323.881 1212.77 325.611C1210.87 327.291 1209.92 329.7 1209.92 332.837C1209.92 335.974 1210.87 338.408 1212.77 340.144C1214.66 341.881 1217.1 342.746 1220.09 342.746C1224.53 342.746 1228.66 341.681 1232.45 339.553V351.652C1228.05 353.551 1223.52 354.503 1218.86 354.503Z" fill="black"/>
<path d="M1276.95 320.132C1277.44 321.589 1277.74 323.07 1277.85 324.583C1278.01 326.095 1278.09 327.832 1278.09 329.792V353.655H1265.73V331.056C1265.73 328.703 1265.51 326.966 1265.07 325.846C1264.64 324.67 1263.88 323.749 1262.79 323.076C1261.76 322.404 1260.49 322.068 1258.97 322.068C1256.53 322.068 1254.47 322.908 1252.79 324.589C1251.11 326.213 1250.27 328.286 1250.27 330.807V353.661H1237.9V293.836H1250.27V324.925C1251.19 320.836 1252.98 317.531 1255.64 315.01C1258.3 312.489 1261.5 311.232 1265.24 311.232C1268.22 311.232 1270.69 312.047 1272.64 313.666C1274.64 315.29 1276.08 317.444 1276.95 320.132Z" fill="black"/>
<path d="M1063.66 285.437C1063.84 284.248 1065.56 284.248 1065.74 285.437L1066.11 287.938C1066.95 293.507 1071.02 298.048 1076.46 299.498L1077.89 299.88C1078.93 300.156 1078.93 301.629 1077.89 301.906L1076.46 302.287C1071.02 303.738 1066.95 308.278 1066.11 313.848L1065.74 316.348C1065.56 317.537 1063.84 317.537 1063.66 316.348L1063.29 313.848C1062.44 308.278 1058.38 303.738 1052.94 302.287L1051.5 301.906C1050.47 301.629 1050.47 300.156 1051.5 299.88L1052.94 299.498C1058.38 298.048 1062.44 293.507 1063.29 287.938L1063.66 285.437Z" fill="black"/>
<path d="M144.378 117.814V128.821H164.469V182.019H176.349V128.821H196.266V117.814H144.378ZM240.529 136.595H229.173V141.312C225.679 137.469 220.7 134.936 214.148 134.936C200.609 134.936 191.262 145.418 191.262 159.307C191.262 173.022 200.696 183.33 214.236 183.33C221.224 183.33 226.028 180.796 229.348 176.953L230.134 165.509L235.463 182.019H247.43L240.529 161.666V136.595ZM203.054 159.307C203.054 150.921 208.732 145.243 216.332 145.243C223.583 145.243 229.61 150.747 229.61 159.307C229.61 167.693 223.583 173.022 216.332 173.022C208.732 173.022 203.054 167.519 203.054 159.307ZM252.605 117.814V182.019H263.961V167.781L268.678 163.238L282.742 182.019H296.631L276.627 155.551L296.195 136.595H280.995L267.368 149.96L263.961 164.636V117.814H252.605ZM318.701 134.936C305.248 134.936 295.639 145.243 295.639 159.482C295.639 173.371 304.637 183.33 319.225 183.33C327.785 183.33 335.21 180.185 339.666 173.633L331.629 166.296C329.27 171.537 325.514 173.895 319.574 173.895C313.285 173.895 308.742 170.751 307.694 162.801H340.015C340.277 161.054 340.277 159.831 340.277 158.434C340.277 144.545 331.891 134.936 318.701 134.936ZM307.781 154.765C308.917 147.515 313.023 144.37 318.351 144.37C324.641 144.37 328.222 148.563 328.222 154.765H307.781ZM386.523 134.936C372.284 134.936 361.714 144.981 361.714 159.133C361.714 173.284 372.284 183.33 386.523 183.33C400.761 183.33 411.331 173.284 411.331 159.133C411.331 144.981 400.761 134.936 386.523 134.936ZM373.507 159.133C373.507 150.659 379.01 145.331 386.523 145.331C393.948 145.331 399.538 150.659 399.538 159.133C399.538 167.606 393.948 172.934 386.523 172.934C379.098 172.934 373.507 167.606 373.507 159.133ZM412.619 136.595L427.12 182.019H440.048L448.521 153.542L457.344 182.019H470.185L484.511 136.595H472.718L463.371 168.654L453.85 136.945H443.367L433.846 168.567L424.586 136.595H412.619ZM488.587 136.595V182.019H499.943V157.997C499.943 150.048 503.786 145.418 510.425 145.418C516.715 145.418 519.423 148.912 519.423 157.036V182.019H530.779V155.376C530.779 142.099 524.926 134.936 514.094 134.936C508.503 134.936 505.009 136.77 502.476 139.478L499.943 149.786V136.595H488.587ZM559.555 134.936C546.102 134.936 536.493 145.243 536.493 159.482C536.493 173.371 545.491 183.33 560.079 183.33C568.64 183.33 576.065 180.185 580.52 173.633L572.483 166.296C570.125 171.537 566.368 173.895 560.428 173.895C554.139 173.895 549.596 170.751 548.548 162.801H580.869C581.131 161.054 581.131 159.831 581.131 158.434C581.131 144.545 572.745 134.936 559.555 134.936ZM548.636 154.765C549.771 147.515 553.877 144.37 559.205 144.37C565.495 144.37 569.076 148.563 569.076 154.765H548.636ZM587.846 136.595V182.019H599.202V160.093C599.202 151.183 603.482 146.379 609.946 146.379C612.13 146.379 613.702 146.641 615.799 147.252V136.159C614.227 135.547 613.004 135.46 611.257 135.46C606.627 135.46 603.307 137.906 601.735 139.653L599.202 151.533V136.595H587.846ZM637.838 134.936C627.53 134.936 618.708 141.138 618.708 149.698C618.708 167.955 646.836 160.618 646.836 169.528C646.836 172.76 643.254 174.42 639.061 174.42C633.383 174.42 628.666 171.974 628.229 165.335L617.485 169.964C619.144 178.612 627.53 183.33 639.061 183.33C649.98 183.33 658.89 178.787 658.89 168.829C658.89 150.572 630.326 157.473 630.326 149C630.326 145.855 633.121 143.758 637.838 143.758C643.691 143.758 647.36 146.641 647.709 151.97L658.366 147.951C656.619 140.002 649.019 134.936 637.838 134.936ZM690.697 134.936C685.106 134.936 681.699 136.77 679.166 139.565L676.633 149.611V117.814H665.277V182.019H676.633V157.997C676.633 150.048 680.476 145.418 687.028 145.418C693.405 145.418 696.113 148.912 696.113 157.036V182.019H707.469V155.376C707.469 142.099 701.616 134.936 690.697 134.936ZM715.706 136.595V182.019H727.062V136.595H715.706ZM715.532 129.17H727.325V117.814H715.532V129.17ZM761.988 183.33C775.527 183.33 784.962 173.022 784.962 159.307C784.962 145.418 775.527 134.936 762.075 134.936C755.436 134.936 750.457 137.469 746.963 141.487V136.595H735.607V200.8H746.963V168.13L750.282 180.098C753.165 182.019 756.834 183.33 761.988 183.33ZM746.613 159.307C746.613 150.747 752.553 145.243 759.804 145.243C767.491 145.243 773.169 150.921 773.169 159.307C773.169 167.519 767.491 173.022 759.804 173.022C752.553 173.022 746.613 167.693 746.613 159.307ZM170.322 221.936C156.083 221.936 145.514 231.981 145.514 246.133C145.514 260.284 156.083 270.33 170.322 270.33C184.561 270.33 195.131 260.284 195.131 246.133C195.131 231.981 184.561 221.936 170.322 221.936ZM157.306 246.133C157.306 237.659 162.81 232.331 170.322 232.331C177.747 232.331 183.338 237.659 183.338 246.133C183.338 254.606 177.747 259.934 170.322 259.934C162.897 259.934 157.306 254.606 157.306 246.133ZM220.786 203.155C211.701 203.155 205.761 209.793 205.761 218.966V223.595H197.55V233.204H205.761V269.019H217.117V233.204H229.958V223.595H217.117V219.315C217.117 215.035 219.301 213.026 223.057 213.026C224.892 213.026 226.901 213.2 228.648 213.55V204.028C226.202 203.329 223.494 203.155 220.786 203.155ZM248.332 223.595L266.939 268.408L259.252 287.8H271.568L297.163 223.595H284.672L273.141 254.519L261.173 223.595H248.332ZM322.434 221.936C308.195 221.936 297.625 231.981 297.625 246.133C297.625 260.284 308.195 270.33 322.434 270.33C336.672 270.33 347.242 260.284 347.242 246.133C347.242 231.981 336.672 221.936 322.434 221.936ZM309.418 246.133C309.418 237.659 314.921 232.331 322.434 232.331C329.859 232.331 335.449 237.659 335.449 246.133C335.449 254.606 329.859 259.934 322.434 259.934C315.009 259.934 309.418 254.606 309.418 246.133ZM394.124 223.595H382.768V246.569C382.768 255.043 379.187 260.546 372.461 260.546C366.87 260.546 364.162 257.401 364.162 251.024V223.595H352.806V252.422C352.806 263.603 359.27 270.33 369.665 270.33C376.741 270.33 380.41 267.36 382.768 263.865V254.431L387.311 269.019H399.278L394.124 253.383V223.595ZM404.621 223.595V269.019H415.977V247.093C415.977 238.183 420.258 233.379 426.722 233.379C428.906 233.379 430.478 233.641 432.574 234.252V223.159C431.002 222.547 429.779 222.46 428.032 222.46C423.402 222.46 420.083 224.906 418.51 226.653L415.977 238.533V223.595H404.621ZM501.308 204.814H489.952V228.312C486.457 224.469 481.478 221.936 474.927 221.936C461.387 221.936 452.04 232.418 452.04 246.307C452.04 260.022 461.474 270.33 475.014 270.33C482.002 270.33 486.807 267.796 490.126 263.953L490.912 252.509L496.241 269.019H508.208L501.308 248.753V204.814ZM463.833 246.307C463.833 237.921 469.511 232.243 477.111 232.243C484.361 232.243 490.388 237.747 490.388 246.307C490.388 254.693 484.361 260.022 477.111 260.022C469.511 260.022 463.833 254.519 463.833 246.307ZM512.947 223.595V269.019H524.303V223.595H512.947ZM512.772 216.17H524.565V204.814H512.772V216.17ZM566.915 223.595V227.876C563.508 224.207 558.791 221.936 552.676 221.936C539.136 221.936 530.314 231.894 530.314 245.084C530.314 258.013 539.136 267.884 552.676 267.884C557.393 267.884 561.761 266.137 563.77 264.652L566.915 252.859V266.923C566.915 274.697 561.848 279.589 553.637 279.589C546.736 279.589 542.019 276.27 540.01 270.242L530.401 276.357C533.895 284.656 541.932 289.111 553.463 289.111C568.749 289.111 578.271 280.812 578.271 267.709V223.595H566.915ZM542.107 245.084C542.107 237.397 547.26 232.243 554.86 232.243C562.023 232.243 567.352 237.048 567.352 245.084C567.352 252.509 562.023 257.576 554.86 257.576C547.26 257.576 542.107 252.597 542.107 245.084ZM586.87 223.595V269.019H598.226V223.595H586.87ZM586.695 216.17H598.488V204.814H586.695V216.17ZM611.4 214.86V223.595H603.189V233.204H611.4V255.043C611.4 265.787 616.991 270.155 627.386 270.155C628.871 270.155 633.413 269.718 634.985 269.107V259.236C633.326 259.585 630.53 259.934 628.958 259.934C624.59 259.934 622.756 258.624 622.756 253.47V233.204H635.51V223.595H622.756V206.299L611.4 214.86ZM688.333 223.595H676.977V228.312C673.483 224.469 668.504 221.936 661.952 221.936C648.413 221.936 639.066 232.418 639.066 246.307C639.066 260.022 648.5 270.33 662.04 270.33C669.028 270.33 673.833 267.796 677.152 263.953L677.938 252.509L683.267 269.019H695.234L688.333 248.666V223.595ZM650.859 246.307C650.859 237.921 656.537 232.243 664.136 232.243C671.387 232.243 677.414 237.747 677.414 246.307C677.414 254.693 671.387 260.022 664.136 260.022C656.537 260.022 650.859 254.519 650.859 246.307ZM700.409 204.814V269.019H711.765V204.814H700.409ZM194.781 310.595H183.425V315.312C179.931 311.469 174.952 308.936 168.4 308.936C154.86 308.936 145.514 319.418 145.514 333.307C145.514 347.022 154.948 357.33 168.488 357.33C175.476 357.33 180.28 354.796 183.6 350.953L184.386 339.509L189.715 356.019H201.682L194.781 335.666V310.595ZM157.306 333.307C157.306 324.921 162.984 319.243 170.584 319.243C177.834 319.243 183.862 324.747 183.862 333.307C183.862 341.693 177.834 347.022 170.584 347.022C162.984 347.022 157.306 341.519 157.306 333.307ZM223.716 308.936C213.409 308.936 204.586 315.138 204.586 323.698C204.586 341.955 232.714 334.618 232.714 343.528C232.714 346.76 229.132 348.42 224.939 348.42C219.261 348.42 214.544 345.974 214.107 339.335L203.363 343.964C205.023 352.612 213.409 357.33 224.939 357.33C235.859 357.33 244.769 352.787 244.769 342.829C244.769 324.572 216.204 331.473 216.204 323C216.204 319.855 218.999 317.758 223.716 317.758C229.569 317.758 233.238 320.641 233.587 325.97L244.244 321.951C242.497 314.002 234.898 308.936 223.716 308.936ZM268.014 308.936C257.707 308.936 248.884 315.138 248.884 323.698C248.884 341.955 277.012 334.618 277.012 343.528C277.012 346.76 273.43 348.42 269.237 348.42C263.559 348.42 258.842 345.974 258.405 339.335L247.661 343.964C249.321 352.612 257.707 357.33 269.237 357.33C280.156 357.33 289.067 352.787 289.067 342.829C289.067 324.572 260.502 331.473 260.502 323C260.502 319.855 263.297 317.758 268.014 317.758C273.867 317.758 277.536 320.641 277.885 325.97L288.542 321.951C286.795 314.002 279.196 308.936 268.014 308.936ZM315.544 308.936C302.092 308.936 292.483 319.243 292.483 333.482C292.483 347.371 301.48 357.33 316.068 357.33C324.629 357.33 332.054 354.185 336.509 347.633L328.473 340.296C326.114 345.537 322.358 347.895 316.418 347.895C310.128 347.895 305.586 344.751 304.538 336.801H336.859C337.121 335.054 337.121 333.831 337.121 332.434C337.121 318.545 328.735 308.936 315.544 308.936ZM304.625 328.765C305.761 321.515 309.866 318.37 315.195 318.37C321.484 318.37 325.066 322.563 325.066 328.765H304.625ZM348.465 301.86V310.595H340.254V320.204H348.465V342.043C348.465 352.787 354.056 357.155 364.451 357.155C365.936 357.155 370.478 356.718 372.051 356.107V346.236C370.391 346.585 367.596 346.934 366.023 346.934C361.655 346.934 359.821 345.624 359.821 340.47V320.204H372.575V310.595H359.821V293.299L348.465 301.86ZM396.301 308.936C385.994 308.936 377.171 315.138 377.171 323.698C377.171 341.955 405.299 334.618 405.299 343.528C405.299 346.76 401.717 348.42 397.524 348.42C391.846 348.42 387.129 345.974 386.693 339.335L375.948 343.964C377.608 352.612 385.994 357.33 397.524 357.33C408.444 357.33 417.354 352.787 417.354 342.829C417.354 324.572 388.789 331.473 388.789 323C388.789 319.855 391.584 317.758 396.301 317.758C402.154 317.758 405.823 320.641 406.172 325.97L416.83 321.951C415.083 314.002 407.483 308.936 396.301 308.936Z" fill="black"/>
<path d="M611.379 597.753C615.549 597.753 618.219 595.413 618.219 591.813C618.219 588.963 616.809 587.103 614.109 586.173L610.869 585.033C608.289 584.163 607.149 583.053 607.149 581.283C607.149 579.393 608.589 578.133 610.929 578.133C613.599 578.133 615.099 579.633 615.099 582.213H617.829C617.829 578.313 615.159 575.793 611.019 575.793C607.119 575.793 604.419 578.073 604.419 581.433C604.419 584.223 605.829 586.053 608.649 586.953L612.129 588.183C614.559 589.023 615.489 590.043 615.489 591.903C615.489 594.093 613.989 595.353 611.349 595.353C608.349 595.353 606.519 593.523 606.519 590.583H603.789C603.789 595.083 606.609 597.753 611.379 597.753ZM627.895 597.633C632.365 597.633 635.095 594.393 635.095 590.373C635.095 586.323 632.365 583.083 627.895 583.083C623.395 583.083 620.695 586.323 620.695 590.373C620.695 594.393 623.395 597.633 627.895 597.633ZM627.895 595.293C624.985 595.293 623.275 593.133 623.275 590.373C623.275 587.583 624.985 585.423 627.895 585.423C630.805 585.423 632.485 587.583 632.485 590.373C632.485 593.133 630.805 595.293 627.895 595.293ZM644.382 597.633C648.102 597.633 650.502 595.623 650.832 592.593H648.222C647.862 594.333 646.542 595.293 644.352 595.293C641.712 595.293 640.092 593.433 640.092 590.373C640.092 587.283 641.712 585.453 644.352 585.453C646.542 585.453 647.862 586.413 648.222 588.243H650.832C650.502 585.153 648.102 583.113 644.382 583.113C640.122 583.113 637.512 586.083 637.512 590.373C637.512 594.663 640.122 597.633 644.382 597.633ZM655.468 581.073C656.698 581.073 657.568 580.143 657.568 578.973C657.568 577.803 656.698 576.843 655.468 576.843C654.208 576.843 653.338 577.803 653.338 578.973C653.338 580.143 654.208 581.073 655.468 581.073ZM656.758 597.273V583.443H654.178V597.273H656.758ZM666.998 597.633C669.068 597.633 671.048 596.553 671.918 594.843V597.273H674.498V583.443H671.918V585.903C671.048 584.193 669.248 583.083 667.058 583.083C662.768 583.083 660.158 586.293 660.158 590.373C660.158 594.453 662.588 597.633 666.998 597.633ZM667.358 595.293C664.508 595.293 662.738 593.193 662.738 590.373C662.738 587.523 664.508 585.423 667.358 585.423C670.388 585.423 672.038 587.703 672.038 590.373C672.038 593.043 670.388 595.293 667.358 595.293ZM681.603 597.273V576.273H678.993V597.273H681.603ZM696.46 597.273V581.853L702.64 597.273H704.74L710.89 581.943V597.273H713.5V576.273H710.89L703.69 593.403L696.49 576.273H693.85V597.273H696.46ZM730.403 589.593C730.403 585.783 727.763 583.083 723.863 583.083C719.753 583.083 717.053 585.963 717.053 590.343C717.053 594.813 719.723 597.633 723.983 597.633C727.223 597.633 729.773 595.863 730.253 593.313H727.643C727.073 594.633 725.813 595.353 723.983 595.353C721.343 595.353 719.693 593.793 719.633 591.123H730.343C730.403 590.493 730.403 590.103 730.403 589.593ZM719.633 589.113C719.753 586.773 721.313 585.183 723.833 585.183C726.353 585.183 727.853 586.683 727.853 589.113H719.633ZM744.369 585.903C743.499 584.193 741.699 583.083 739.509 583.083C735.219 583.083 732.609 586.293 732.609 590.373C732.609 594.453 735.039 597.633 739.449 597.633C741.519 597.633 743.499 596.553 744.369 594.843V597.273H746.949V576.273H744.369V585.903ZM739.809 595.293C736.959 595.293 735.189 593.193 735.189 590.373C735.189 587.523 736.959 585.423 739.809 585.423C742.839 585.423 744.489 587.703 744.489 590.373C744.489 593.043 742.839 595.293 739.809 595.293ZM752.734 581.073C753.964 581.073 754.834 580.143 754.834 578.973C754.834 577.803 753.964 576.843 752.734 576.843C751.474 576.843 750.604 577.803 750.604 578.973C750.604 580.143 751.474 581.073 752.734 581.073ZM754.024 597.273V583.443H751.444V597.273H754.024ZM764.264 597.633C766.334 597.633 768.314 596.553 769.184 594.843V597.273H771.764V583.443H769.184V585.903C768.314 584.193 766.514 583.083 764.324 583.083C760.034 583.083 757.424 586.293 757.424 590.373C757.424 594.453 759.854 597.633 764.264 597.633ZM764.624 595.293C761.774 595.293 760.004 593.193 760.004 590.373C760.004 587.523 761.774 585.423 764.624 585.423C767.654 585.423 769.304 587.703 769.304 590.373C769.304 593.043 767.654 595.293 764.624 595.293ZM789.576 597.633C791.646 597.633 793.626 596.553 794.496 594.843V597.273H797.076V583.443H794.496V585.903C793.626 584.193 791.826 583.083 789.636 583.083C785.346 583.083 782.736 586.293 782.736 590.373C782.736 594.453 785.166 597.633 789.576 597.633ZM789.936 595.293C787.086 595.293 785.316 593.193 785.316 590.373C785.316 587.523 787.086 585.423 789.936 585.423C792.966 585.423 794.616 587.703 794.616 590.373C794.616 593.043 792.966 595.293 789.936 595.293ZM807.331 597.633C811.051 597.633 813.451 595.623 813.781 592.593H811.171C810.811 594.333 809.491 595.293 807.301 595.293C804.661 595.293 803.041 593.433 803.041 590.373C803.041 587.283 804.661 585.453 807.301 585.453C809.491 585.453 810.811 586.413 811.171 588.243H813.781C813.451 585.153 811.051 583.113 807.331 583.113C803.071 583.113 800.461 586.083 800.461 590.373C800.461 594.663 803.071 597.633 807.331 597.633ZM823.063 597.633C826.783 597.633 829.183 595.623 829.513 592.593H826.903C826.543 594.333 825.223 595.293 823.033 595.293C820.393 595.293 818.773 593.433 818.773 590.373C818.773 587.283 820.393 585.453 823.033 585.453C825.223 585.453 826.543 586.413 826.903 588.243H829.513C829.183 585.153 826.783 583.113 823.063 583.113C818.803 583.113 816.193 586.083 816.193 590.373C816.193 594.663 818.803 597.633 823.063 597.633ZM839.126 597.633C843.596 597.633 846.326 594.393 846.326 590.373C846.326 586.323 843.596 583.083 839.126 583.083C834.626 583.083 831.926 586.323 831.926 590.373C831.926 594.393 834.626 597.633 839.126 597.633ZM839.126 595.293C836.216 595.293 834.506 593.133 834.506 590.373C834.506 587.583 836.216 585.423 839.126 585.423C842.036 585.423 843.716 587.583 843.716 590.373C843.716 593.133 842.036 595.293 839.126 595.293ZM854.776 597.633C857.056 597.633 858.676 596.463 859.426 594.753V597.273H862.036V583.443H859.426V591.003C859.426 593.223 858.346 595.383 855.496 595.383C853.036 595.383 852.136 593.793 852.136 591.363V583.443H849.526V591.963C849.526 595.773 851.686 597.633 854.776 597.633ZM869.132 597.273V589.953C869.132 587.163 870.452 585.333 873.032 585.333C875.492 585.333 876.512 586.803 876.512 589.893V597.273H879.092V588.753C879.092 585.063 877.352 583.083 873.962 583.083C871.562 583.083 869.882 584.223 869.132 585.993V583.443H866.522V597.273H869.132ZM888.865 595.113C887.545 595.113 886.645 594.753 886.645 592.113V585.633H890.125V583.443H886.645V579.063H884.035V583.443H881.545V585.633H884.035V592.683C884.035 597.153 886.645 597.453 888.265 597.453C889.165 597.453 890.095 597.363 890.605 597.243V594.933C890.215 595.023 889.375 595.113 888.865 595.113ZM898.212 597.633C901.482 597.633 903.552 596.103 903.552 593.463C903.552 591.543 902.382 590.193 900.342 589.623L897.492 588.843C895.992 588.423 895.482 587.793 895.482 586.923C895.482 585.783 896.532 585.093 897.972 585.093C899.772 585.093 900.822 585.933 900.822 587.253H903.372C903.372 584.673 901.362 583.083 898.062 583.083C895.062 583.083 892.902 584.703 892.902 587.043C892.902 588.963 893.982 590.283 896.022 590.853L898.842 591.573C900.492 591.993 900.912 592.623 900.912 593.553C900.912 594.783 899.892 595.533 898.362 595.533C896.322 595.533 895.062 594.483 895.062 593.133H892.482C892.482 595.683 894.822 597.633 898.212 597.633ZM907.296 600.843C909.756 600.843 911.106 599.103 911.106 596.673C911.106 594.303 909.636 593.223 908.376 593.223C907.116 593.223 906.216 594.123 906.216 595.383C906.216 596.643 907.116 597.423 908.226 597.423C908.676 597.423 909.156 597.303 909.456 596.973C909.456 597.483 909.366 598.053 909.066 598.563C908.796 599.193 908.196 599.583 907.386 599.583C906.846 599.583 906.636 599.583 906.276 599.523V600.783C906.546 600.843 906.966 600.843 907.296 600.843ZM617.229 625.593C617.229 621.783 614.589 619.083 610.689 619.083C606.579 619.083 603.879 621.963 603.879 626.343C603.879 630.813 606.549 633.633 610.809 633.633C614.049 633.633 616.599 631.863 617.079 629.313H614.469C613.899 630.633 612.639 631.353 610.809 631.353C608.169 631.353 606.519 629.793 606.459 627.123H617.169C617.229 626.493 617.229 626.103 617.229 625.593ZM606.459 625.113C606.579 622.773 608.139 621.183 610.659 621.183C613.179 621.183 614.679 622.683 614.679 625.113H606.459ZM630.383 633.753C636.053 633.753 639.653 630.603 640.433 626.373H637.433C636.653 629.343 634.283 631.293 630.413 631.293C625.313 631.293 622.373 627.723 622.373 622.773C622.373 617.823 625.313 614.253 630.413 614.253C634.283 614.253 636.653 616.203 637.433 619.173H640.433C639.653 614.943 636.053 611.793 630.383 611.793C623.573 611.793 619.523 616.533 619.523 622.773C619.523 629.013 623.573 633.753 630.383 633.753ZM650.161 633.633C654.631 633.633 657.361 630.393 657.361 626.373C657.361 622.323 654.631 619.083 650.161 619.083C645.661 619.083 642.961 622.323 642.961 626.373C642.961 630.393 645.661 633.633 650.161 633.633ZM650.161 631.293C647.251 631.293 645.541 629.133 645.541 626.373C645.541 623.583 647.251 621.423 650.161 621.423C653.071 621.423 654.751 623.583 654.751 626.373C654.751 629.133 653.071 631.293 650.161 631.293ZM663.321 633.273V626.073C663.321 622.833 664.611 621.333 666.741 621.333C668.421 621.333 669.711 622.233 669.711 625.233V633.273H672.321V626.073C672.321 622.713 673.671 621.333 675.711 621.333C677.571 621.333 678.711 622.413 678.711 625.023V633.273H681.321V624.513C681.321 621.483 680.061 619.083 676.341 619.083C674.181 619.083 672.471 620.403 671.871 622.053C671.361 620.223 669.891 619.083 667.461 619.083C665.241 619.083 663.831 620.463 663.321 621.963V619.443H660.711V633.273H663.321ZM688.282 633.273V626.073C688.282 622.833 689.572 621.333 691.702 621.333C693.382 621.333 694.672 622.233 694.672 625.233V633.273H697.282V626.073C697.282 622.713 698.632 621.333 700.672 621.333C702.532 621.333 703.672 622.413 703.672 625.023V633.273H706.282V624.513C706.282 621.483 705.022 619.083 701.302 619.083C699.142 619.083 697.432 620.403 696.832 622.053C696.322 620.223 694.852 619.083 692.422 619.083C690.202 619.083 688.792 620.463 688.282 621.963V619.443H685.672V633.273H688.282ZM722.873 625.593C722.873 621.783 720.233 619.083 716.333 619.083C712.223 619.083 709.523 621.963 709.523 626.343C709.523 630.813 712.193 633.633 716.453 633.633C719.693 633.633 722.243 631.863 722.723 629.313H720.113C719.543 630.633 718.283 631.353 716.453 631.353C713.813 631.353 712.163 629.793 712.103 627.123H722.813C722.873 626.493 722.873 626.103 722.873 625.593ZM712.103 625.113C712.223 622.773 713.783 621.183 716.303 621.183C718.823 621.183 720.323 622.683 720.323 625.113H712.103ZM728.888 633.273V627.243C728.888 624.153 730.178 621.663 732.908 621.663C733.388 621.663 733.748 621.663 734.198 621.753V619.353C733.868 619.263 733.418 619.233 732.938 619.233C731.198 619.233 729.428 620.253 728.888 622.593V619.443H726.278V633.273H728.888ZM742.438 633.633C746.158 633.633 748.558 631.623 748.888 628.593H746.278C745.918 630.333 744.598 631.293 742.408 631.293C739.768 631.293 738.148 629.433 738.148 626.373C738.148 623.283 739.768 621.453 742.408 621.453C744.598 621.453 745.918 622.413 746.278 624.243H748.888C748.558 621.153 746.158 619.113 742.438 619.113C738.178 619.113 735.568 622.083 735.568 626.373C735.568 630.663 738.178 633.633 742.438 633.633ZM764.651 625.593C764.651 621.783 762.011 619.083 758.111 619.083C754.001 619.083 751.301 621.963 751.301 626.343C751.301 630.813 753.971 633.633 758.231 633.633C761.471 633.633 764.021 631.863 764.501 629.313H761.891C761.321 630.633 760.061 631.353 758.231 631.353C755.591 631.353 753.941 629.793 753.881 627.123H764.591C764.651 626.493 764.651 626.103 764.651 625.593ZM753.881 625.113C754.001 622.773 755.561 621.183 758.081 621.183C760.601 621.183 762.101 622.683 762.101 625.113H753.881ZM780.263 633.633C783.533 633.633 785.603 632.103 785.603 629.463C785.603 627.543 784.433 626.193 782.393 625.623L779.543 624.843C778.043 624.423 777.533 623.793 777.533 622.923C777.533 621.783 778.583 621.093 780.023 621.093C781.823 621.093 782.873 621.933 782.873 623.253H785.423C785.423 620.673 783.413 619.083 780.113 619.083C777.113 619.083 774.953 620.703 774.953 623.043C774.953 624.963 776.033 626.283 778.073 626.853L780.893 627.573C782.543 627.993 782.963 628.623 782.963 629.553C782.963 630.783 781.943 631.533 780.413 631.533C778.373 631.533 777.113 630.483 777.113 629.133H774.533C774.533 631.683 776.873 633.633 780.263 633.633ZM794.441 631.113C793.121 631.113 792.221 630.753 792.221 628.113V621.633H795.701V619.443H792.221V615.063H789.611V619.443H787.121V621.633H789.611V628.683C789.611 633.153 792.221 633.453 793.841 633.453C794.741 633.453 795.671 633.363 796.181 633.243V630.933C795.791 631.023 794.951 631.113 794.441 631.113ZM805.258 633.633C809.728 633.633 812.458 630.393 812.458 626.373C812.458 622.323 809.728 619.083 805.258 619.083C800.758 619.083 798.058 622.323 798.058 626.373C798.058 630.393 800.758 633.633 805.258 633.633ZM805.258 631.293C802.348 631.293 800.638 629.133 800.638 626.373C800.638 623.583 802.348 621.423 805.258 621.423C808.168 621.423 809.848 623.583 809.848 626.373C809.848 629.133 808.168 631.293 805.258 631.293ZM818.419 633.273V627.243C818.419 624.153 819.709 621.663 822.439 621.663C822.919 621.663 823.279 621.663 823.729 621.753V619.353C823.399 619.263 822.949 619.233 822.469 619.233C820.729 619.233 818.959 620.253 818.419 622.593V619.443H815.809V633.273H818.419ZM838.449 625.593C838.449 621.783 835.809 619.083 831.909 619.083C827.799 619.083 825.099 621.963 825.099 626.343C825.099 630.813 827.769 633.633 832.029 633.633C835.269 633.633 837.819 631.863 838.299 629.313H835.689C835.119 630.633 833.859 631.353 832.029 631.353C829.389 631.353 827.739 629.793 827.679 627.123H838.389C838.449 626.493 838.449 626.103 838.449 625.593ZM827.679 625.113C827.799 622.773 829.359 621.183 831.879 621.183C834.399 621.183 835.899 622.683 835.899 625.113H827.679ZM846.474 633.633C849.744 633.633 851.814 632.103 851.814 629.463C851.814 627.543 850.644 626.193 848.604 625.623L845.754 624.843C844.254 624.423 843.744 623.793 843.744 622.923C843.744 621.783 844.794 621.093 846.234 621.093C848.034 621.093 849.084 621.933 849.084 623.253H851.634C851.634 620.673 849.624 619.083 846.324 619.083C843.324 619.083 841.164 620.703 841.164 623.043C841.164 624.963 842.244 626.283 844.284 626.853L847.104 627.573C848.754 627.993 849.174 628.623 849.174 629.553C849.174 630.783 848.154 631.533 846.624 631.533C844.584 631.533 843.324 630.483 843.324 629.133H840.744C840.744 631.683 843.084 633.633 846.474 633.633ZM855.557 636.843C858.017 636.843 859.367 635.103 859.367 632.673C859.367 630.303 857.897 629.223 856.637 629.223C855.377 629.223 854.477 630.123 854.477 631.383C854.477 632.643 855.377 633.423 856.487 633.423C856.937 633.423 857.417 633.303 857.717 632.973C857.717 633.483 857.627 634.053 857.327 634.563C857.057 635.193 856.457 635.583 855.647 635.583C855.107 635.583 854.897 635.583 854.537 635.523V636.783C854.807 636.843 855.227 636.843 855.557 636.843ZM877.932 633.273C884.892 633.273 888.612 628.203 888.612 622.773C888.612 617.343 884.892 612.273 877.932 612.273H871.242V633.273H877.932ZM873.972 614.733H877.722C883.212 614.733 885.792 618.693 885.792 622.773C885.792 626.853 883.212 630.813 877.722 630.813H873.972V614.733ZM893.124 617.073C894.354 617.073 895.224 616.143 895.224 614.973C895.224 613.803 894.354 612.843 893.124 612.843C891.864 612.843 890.994 613.803 890.994 614.973C890.994 616.143 891.864 617.073 893.124 617.073ZM894.414 633.273V619.443H891.834V633.273H894.414ZM909.574 621.903C908.704 620.133 906.844 619.083 904.714 619.083C900.604 619.083 897.814 622.263 897.814 626.373C897.814 630.453 900.424 633.633 904.654 633.633C906.664 633.633 908.704 632.583 909.574 630.843V633.093C909.574 636.393 907.954 637.833 904.954 637.833C902.314 637.833 900.934 636.633 900.754 635.013H898.024C898.084 636.513 898.834 637.803 900.064 638.673C901.324 639.573 903.094 640.023 904.984 640.023C906.964 640.023 908.584 639.603 909.754 638.733C911.314 637.533 912.154 635.553 912.154 632.913V619.443H909.574V621.903ZM905.014 631.293C902.284 631.293 900.394 629.193 900.394 626.373C900.394 623.523 902.254 621.423 905.014 621.423C907.924 621.423 909.694 623.643 909.694 626.373C909.694 629.073 907.924 631.293 905.014 631.293ZM917.939 617.073C919.169 617.073 920.039 616.143 920.039 614.973C920.039 613.803 919.169 612.843 917.939 612.843C916.679 612.843 915.809 613.803 915.809 614.973C915.809 616.143 916.679 617.073 917.939 617.073ZM919.229 633.273V619.443H916.649V633.273H919.229ZM929.529 631.113C928.209 631.113 927.309 630.753 927.309 628.113V621.633H930.789V619.443H927.309V615.063H924.699V619.443H922.209V621.633H924.699V628.683C924.699 633.153 927.309 633.453 928.929 633.453C929.829 633.453 930.759 633.363 931.269 633.243V630.933C930.879 631.023 930.039 631.113 929.529 631.113ZM939.986 633.633C942.056 633.633 944.036 632.553 944.906 630.843V633.273H947.486V619.443H944.906V621.903C944.036 620.193 942.236 619.083 940.046 619.083C935.756 619.083 933.146 622.293 933.146 626.373C933.146 630.453 935.576 633.633 939.986 633.633ZM940.346 631.293C937.496 631.293 935.726 629.193 935.726 626.373C935.726 623.523 937.496 621.423 940.346 621.423C943.376 621.423 945.026 623.703 945.026 626.373C945.026 629.043 943.376 631.293 940.346 631.293ZM954.591 633.273V612.273H951.981V633.273H954.591ZM972.418 633.633C974.488 633.633 976.468 632.553 977.338 630.843V633.273H979.918V619.443H977.338V621.903C976.468 620.193 974.668 619.083 972.478 619.083C968.188 619.083 965.578 622.293 965.578 626.373C965.578 630.453 968.008 633.633 972.418 633.633ZM972.778 631.293C969.928 631.293 968.158 629.193 968.158 626.373C968.158 623.523 969.928 621.423 972.778 621.423C975.808 621.423 977.458 623.703 977.458 626.373C977.458 629.043 975.808 631.293 972.778 631.293ZM987.023 633.273V627.243C987.023 624.153 988.313 621.663 991.043 621.663C991.523 621.663 991.883 621.663 992.333 621.753V619.353C992.003 619.263 991.553 619.233 991.073 619.233C989.333 619.233 987.563 620.253 987.023 622.593V619.443H984.413V633.273H987.023ZM1001.57 631.113C1000.25 631.113 999.35 630.753 999.35 628.113V621.633H1002.83V619.443H999.35V615.063H996.74V619.443H994.25V621.633H996.74V628.683C996.74 633.153 999.35 633.453 1000.97 633.453C1001.87 633.453 1002.8 633.363 1003.31 633.243V630.933C1002.92 631.023 1002.08 631.113 1001.57 631.113ZM1020.15 633.633C1024.62 633.633 1027.35 630.393 1027.35 626.373C1027.35 622.323 1024.62 619.083 1020.15 619.083C1015.65 619.083 1012.95 622.323 1012.95 626.373C1012.95 630.393 1015.65 633.633 1020.15 633.633ZM1020.15 631.293C1017.24 631.293 1015.53 629.133 1015.53 626.373C1015.53 623.583 1017.24 621.423 1020.15 621.423C1023.06 621.423 1024.74 623.583 1024.74 626.373C1024.74 629.133 1023.06 631.293 1020.15 631.293ZM1033.31 633.273V627.243C1033.31 624.153 1034.6 621.663 1037.33 621.663C1037.81 621.663 1038.17 621.663 1038.62 621.753V619.353C1038.29 619.263 1037.84 619.233 1037.36 619.233C1035.62 619.233 1033.85 620.253 1033.31 622.593V619.443H1030.7V633.273H1033.31ZM616.689 659.073V661.533H621.789C621.039 665.223 618.609 667.293 614.649 667.293C609.669 667.293 606.699 663.573 606.729 658.893C606.699 654.123 609.399 650.253 614.769 650.253C618.039 650.253 620.229 651.963 620.829 654.273H623.829C623.289 650.583 619.689 647.793 614.769 647.793C607.659 647.793 603.879 652.923 603.879 658.893C603.849 664.983 607.929 669.753 614.649 669.753C620.289 669.753 623.739 666.483 624.639 661.533H626.949V659.073H616.689ZM635.563 669.633C637.633 669.633 639.613 668.553 640.483 666.843V669.273H643.063V655.443H640.483V657.903C639.613 656.193 637.813 655.083 635.623 655.083C631.333 655.083 628.723 658.293 628.723 662.373C628.723 666.453 631.153 669.633 635.563 669.633ZM635.923 667.293C633.073 667.293 631.303 665.193 631.303 662.373C631.303 659.523 633.073 657.423 635.923 657.423C638.953 657.423 640.603 659.703 640.603 662.373C640.603 665.043 638.953 667.293 635.923 667.293ZM650.167 669.273V662.073C650.167 658.833 651.457 657.333 653.587 657.333C655.267 657.333 656.557 658.233 656.557 661.233V669.273H659.167V662.073C659.167 658.713 660.517 657.333 662.557 657.333C664.417 657.333 665.557 658.413 665.557 661.023V669.273H668.167V660.513C668.167 657.483 666.907 655.083 663.187 655.083C661.027 655.083 659.317 656.403 658.717 658.053C658.207 656.223 656.737 655.083 654.307 655.083C652.087 655.083 650.677 656.463 650.167 657.963V655.443H647.557V669.273H650.167ZM673.808 653.073C675.038 653.073 675.908 652.143 675.908 650.973C675.908 649.803 675.038 648.843 673.808 648.843C672.548 648.843 671.678 649.803 671.678 650.973C671.678 652.143 672.548 653.073 673.808 653.073ZM675.098 669.273V655.443H672.518V669.273H675.098ZM682.218 669.273V661.953C682.218 659.163 683.538 657.333 686.118 657.333C688.578 657.333 689.598 658.803 689.598 661.893V669.273H692.178V660.753C692.178 657.063 690.438 655.083 687.048 655.083C684.648 655.083 682.968 656.223 682.218 657.993V655.443H679.608V669.273H682.218ZM707.192 657.903C706.322 656.133 704.462 655.083 702.332 655.083C698.222 655.083 695.432 658.263 695.432 662.373C695.432 666.453 698.042 669.633 702.272 669.633C704.282 669.633 706.322 668.583 707.192 666.843V669.093C707.192 672.393 705.572 673.833 702.572 673.833C699.932 673.833 698.552 672.633 698.372 671.013H695.642C695.702 672.513 696.452 673.803 697.682 674.673C698.942 675.573 700.712 676.023 702.602 676.023C704.582 676.023 706.202 675.603 707.372 674.733C708.932 673.533 709.772 671.553 709.772 668.913V655.443H707.192V657.903ZM702.632 667.293C699.902 667.293 698.012 665.193 698.012 662.373C698.012 659.523 699.872 657.423 702.632 657.423C705.542 657.423 707.312 659.643 707.312 662.373C707.312 665.073 705.542 667.293 702.632 667.293ZM727.584 669.633C729.654 669.633 731.634 668.553 732.504 666.843V669.273H735.084V655.443H732.504V657.903C731.634 656.193 729.834 655.083 727.644 655.083C723.354 655.083 720.744 658.293 720.744 662.373C720.744 666.453 723.174 669.633 727.584 669.633ZM727.944 667.293C725.094 667.293 723.324 665.193 723.324 662.373C723.324 659.523 725.094 657.423 727.944 657.423C730.974 657.423 732.624 659.703 732.624 662.373C732.624 665.043 730.974 667.293 727.944 667.293ZM744.199 669.633C747.469 669.633 749.539 668.103 749.539 665.463C749.539 663.543 748.369 662.193 746.329 661.623L743.479 660.843C741.979 660.423 741.469 659.793 741.469 658.923C741.469 657.783 742.519 657.093 743.959 657.093C745.759 657.093 746.809 657.933 746.809 659.253H749.359C749.359 656.673 747.349 655.083 744.049 655.083C741.049 655.083 738.889 656.703 738.889 659.043C738.889 660.963 739.969 662.283 742.009 662.853L744.829 663.573C746.479 663.993 746.899 664.623 746.899 665.553C746.899 666.783 745.879 667.533 744.349 667.533C742.309 667.533 741.049 666.483 741.049 665.133H738.469C738.469 667.683 740.809 669.633 744.199 669.633ZM757.675 669.633C760.945 669.633 763.015 668.103 763.015 665.463C763.015 663.543 761.845 662.193 759.805 661.623L756.955 660.843C755.455 660.423 754.945 659.793 754.945 658.923C754.945 657.783 755.995 657.093 757.435 657.093C759.235 657.093 760.285 657.933 760.285 659.253H762.835C762.835 656.673 760.825 655.083 757.525 655.083C754.525 655.083 752.365 656.703 752.365 659.043C752.365 660.963 753.445 662.283 755.485 662.853L758.305 663.573C759.955 663.993 760.375 664.623 760.375 665.553C760.375 666.783 759.355 667.533 757.825 667.533C755.785 667.533 754.525 666.483 754.525 665.133H751.945C751.945 667.683 754.285 669.633 757.675 669.633ZM778.772 661.593C778.772 657.783 776.132 655.083 772.232 655.083C768.122 655.083 765.422 657.963 765.422 662.343C765.422 666.813 768.092 669.633 772.352 669.633C775.592 669.633 778.142 667.863 778.622 665.313H776.012C775.442 666.633 774.182 667.353 772.352 667.353C769.712 667.353 768.062 665.793 768.002 663.123H778.712C778.772 662.493 778.772 662.103 778.772 661.593ZM768.002 661.113C768.122 658.773 769.682 657.183 772.202 657.183C774.722 657.183 776.222 658.683 776.222 661.113H768.002ZM787.849 667.113C786.529 667.113 785.629 666.753 785.629 664.113V657.633H789.109V655.443H785.629V651.063H783.019V655.443H780.529V657.633H783.019V664.683C783.019 669.153 785.629 669.453 787.249 669.453C788.149 669.453 789.079 669.363 789.589 669.243V666.933C789.199 667.023 788.359 667.113 787.849 667.113ZM797.197 669.633C800.467 669.633 802.537 668.103 802.537 665.463C802.537 663.543 801.367 662.193 799.327 661.623L796.477 660.843C794.977 660.423 794.467 659.793 794.467 658.923C794.467 657.783 795.517 657.093 796.957 657.093C798.757 657.093 799.807 657.933 799.807 659.253H802.357C802.357 656.673 800.347 655.083 797.047 655.083C794.047 655.083 791.887 656.703 791.887 659.043C791.887 660.963 792.967 662.283 795.007 662.853L797.827 663.573C799.477 663.993 799.897 664.623 799.897 665.553C799.897 666.783 798.877 667.533 797.347 667.533C795.307 667.533 794.047 666.483 794.047 665.133H791.467C791.467 667.683 793.807 669.633 797.197 669.633ZM812.591 662.403V660.063H840.191V662.403H812.591ZM856.509 669.273L860.139 658.653L863.769 669.273H865.989L871.089 655.443H868.239L864.909 665.553L861.549 655.443H858.759L855.369 665.553L852.069 655.443H849.219L854.319 669.273H856.509ZM881.053 655.083C878.653 655.083 876.973 656.223 876.223 657.993V648.273H873.613V669.273H876.223V661.953C876.223 659.163 877.543 657.333 880.123 657.333C882.613 657.333 883.603 658.803 883.603 661.893V669.273H886.213V660.753C886.213 657.063 884.473 655.083 881.053 655.083ZM896.305 669.633C898.375 669.633 900.355 668.553 901.225 666.843V669.273H903.805V655.443H901.225V657.903C900.355 656.193 898.555 655.083 896.365 655.083C892.075 655.083 889.465 658.293 889.465 662.373C889.465 666.453 891.895 669.633 896.305 669.633ZM896.665 667.293C893.815 667.293 892.045 665.193 892.045 662.373C892.045 659.523 893.815 657.423 896.665 657.423C899.695 657.423 901.345 659.703 901.345 662.373C901.345 665.043 899.695 667.293 896.665 667.293ZM914.089 667.113C912.769 667.113 911.869 666.753 911.869 664.113V657.633H915.349V655.443H911.869V651.063H909.259V655.443H906.769V657.633H909.259V664.683C909.259 669.153 911.869 669.453 913.489 669.453C914.389 669.453 915.319 669.363 915.829 669.243V666.933C915.439 667.023 914.599 667.113 914.089 667.113ZM931.057 661.593C931.057 657.783 928.417 655.083 924.517 655.083C920.407 655.083 917.707 657.963 917.707 662.343C917.707 666.813 920.377 669.633 924.637 669.633C927.877 669.633 930.427 667.863 930.907 665.313H928.297C927.727 666.633 926.467 667.353 924.637 667.353C921.997 667.353 920.347 665.793 920.287 663.123H930.997C931.057 662.493 931.057 662.103 931.057 661.593ZM920.287 661.113C920.407 658.773 921.967 657.183 924.487 657.183C927.007 657.183 928.507 658.683 928.507 661.113H920.287ZM939.965 669.273L946.055 655.443H943.265L938.885 665.793L934.535 655.443H931.745L937.835 669.273H939.965ZM960.061 661.593C960.061 657.783 957.421 655.083 953.521 655.083C949.411 655.083 946.711 657.963 946.711 662.343C946.711 666.813 949.381 669.633 953.641 669.633C956.881 669.633 959.431 667.863 959.911 665.313H957.301C956.731 666.633 955.471 667.353 953.641 667.353C951.001 667.353 949.351 665.793 949.291 663.123H960.001C960.061 662.493 960.061 662.103 960.061 661.593ZM949.291 661.113C949.411 658.773 950.971 657.183 953.491 657.183C956.011 657.183 957.511 658.683 957.511 661.113H949.291ZM966.075 669.273V663.243C966.075 660.153 967.365 657.663 970.095 657.663C970.575 657.663 970.935 657.663 971.385 657.753V655.353C971.055 655.263 970.605 655.233 970.125 655.233C968.385 655.233 966.615 656.253 966.075 658.593V655.443H963.465V669.273H966.075ZM983.154 653.073C984.384 653.073 985.254 652.143 985.254 650.973C985.254 649.803 984.384 648.843 983.154 648.843C981.894 648.843 981.024 649.803 981.024 650.973C981.024 652.143 981.894 653.073 983.154 653.073ZM984.444 669.273V655.443H981.864V669.273H984.444ZM993.574 669.633C996.844 669.633 998.914 668.103 998.914 665.463C998.914 663.543 997.744 662.193 995.704 661.623L992.854 660.843C991.354 660.423 990.844 659.793 990.844 658.923C990.844 657.783 991.894 657.093 993.334 657.093C995.134 657.093 996.184 657.933 996.184 659.253H998.734C998.734 656.673 996.724 655.083 993.424 655.083C990.424 655.083 988.264 656.703 988.264 659.043C988.264 660.963 989.344 662.283 991.384 662.853L994.204 663.573C995.854 663.993 996.274 664.623 996.274 665.553C996.274 666.783 995.254 667.533 993.724 667.533C991.684 667.533 990.424 666.483 990.424 665.133H987.844C987.844 667.683 990.184 669.633 993.574 669.633ZM611.049 705.273L617.139 691.443H614.349L609.969 701.793L605.619 691.443H602.829L608.919 705.273H611.049ZM624.898 705.633C626.968 705.633 628.948 704.553 629.818 702.843V705.273H632.398V691.443H629.818V693.903C628.948 692.193 627.148 691.083 624.958 691.083C620.668 691.083 618.058 694.293 618.058 698.373C618.058 702.453 620.488 705.633 624.898 705.633ZM625.258 703.293C622.408 703.293 620.638 701.193 620.638 698.373C620.638 695.523 622.408 693.423 625.258 693.423C628.288 693.423 629.938 695.703 629.938 698.373C629.938 701.043 628.288 703.293 625.258 703.293ZM639.503 705.273V684.273H636.893V705.273H639.503ZM649.112 705.633C651.392 705.633 653.012 704.463 653.762 702.753V705.273H656.372V691.443H653.762V699.003C653.762 701.223 652.682 703.383 649.832 703.383C647.372 703.383 646.472 701.793 646.472 699.363V691.443H643.862V699.963C643.862 703.773 646.022 705.633 649.112 705.633ZM666.588 705.633C668.658 705.633 670.638 704.553 671.508 702.843V705.273H674.088V691.443H671.508V693.903C670.638 692.193 668.838 691.083 666.648 691.083C662.358 691.083 659.748 694.293 659.748 698.373C659.748 702.453 662.178 705.633 666.588 705.633ZM666.948 703.293C664.098 703.293 662.328 701.193 662.328 698.373C662.328 695.523 664.098 693.423 666.948 693.423C669.978 693.423 671.628 695.703 671.628 698.373C671.628 701.043 669.978 703.293 666.948 703.293ZM686.263 691.083C684.043 691.083 682.063 692.163 681.163 693.903V684.273H678.583V705.273H681.163V702.843C682.063 704.553 683.983 705.633 686.113 705.633C690.103 705.633 692.953 702.603 692.953 698.373C692.953 694.053 690.223 691.083 686.263 691.083ZM685.753 703.293C682.993 703.293 681.043 701.253 681.043 698.373C681.043 695.463 682.993 693.423 685.753 693.423C688.423 693.423 690.343 695.493 690.343 698.373C690.343 701.253 688.423 703.293 685.753 703.293ZM698.917 705.273V684.273H696.307V705.273H698.917ZM715.666 697.593C715.666 693.783 713.026 691.083 709.126 691.083C705.016 691.083 702.316 693.963 702.316 698.343C702.316 702.813 704.986 705.633 709.246 705.633C712.486 705.633 715.036 703.863 715.516 701.313H712.906C712.336 702.633 711.076 703.353 709.246 703.353C706.606 703.353 704.956 701.793 704.896 699.123H715.606C715.666 698.493 715.666 698.103 715.666 697.593ZM704.896 697.113C705.016 694.773 706.576 693.183 709.096 693.183C711.616 693.183 713.116 694.683 713.116 697.113H704.896ZM732.449 703.113C731.129 703.113 730.229 702.753 730.229 700.113V693.633H733.709V691.443H730.229V687.063H727.619V691.443H725.129V693.633H727.619V700.683C727.619 705.153 730.229 705.453 731.849 705.453C732.749 705.453 733.679 705.363 734.189 705.243V702.933C733.799 703.023 732.959 703.113 732.449 703.113ZM743.266 705.633C747.736 705.633 750.466 702.393 750.466 698.373C750.466 694.323 747.736 691.083 743.266 691.083C738.766 691.083 736.066 694.323 736.066 698.373C736.066 702.393 738.766 705.633 743.266 705.633ZM743.266 703.293C740.356 703.293 738.646 701.133 738.646 698.373C738.646 695.583 740.356 693.423 743.266 693.423C746.176 693.423 747.856 695.583 747.856 698.373C747.856 701.133 746.176 703.293 743.266 703.293ZM771.305 698.553C771.305 701.043 770.045 703.293 767.375 703.293C764.645 703.293 763.835 701.613 763.835 699.153V691.443H761.255V699.693C761.255 703.203 762.905 705.603 766.505 705.603C768.845 705.603 770.495 704.463 771.305 702.783V705.363C771.305 708.513 769.805 709.833 767.465 709.833C764.885 709.833 763.985 708.693 763.865 707.013H761.255C761.285 708.543 761.825 709.743 762.815 710.583C763.895 711.513 765.515 712.023 767.495 712.023C769.385 712.023 770.915 711.483 772.025 710.523C773.225 709.413 773.885 707.733 773.885 705.543V691.443H771.305V698.553ZM784.516 705.633C788.986 705.633 791.716 702.393 791.716 698.373C791.716 694.323 788.986 691.083 784.516 691.083C780.016 691.083 777.316 694.323 777.316 698.373C777.316 702.393 780.016 705.633 784.516 705.633ZM784.516 703.293C781.606 703.293 779.896 701.133 779.896 698.373C779.896 695.583 781.606 693.423 784.516 693.423C787.426 693.423 789.106 695.583 789.106 698.373C789.106 701.133 787.426 703.293 784.516 703.293ZM800.167 705.633C802.447 705.633 804.067 704.463 804.817 702.753V705.273H807.427V691.443H804.817V699.003C804.817 701.223 803.737 703.383 800.887 703.383C798.427 703.383 797.527 701.793 797.527 699.363V691.443H794.917V699.963C794.917 703.773 797.077 705.633 800.167 705.633ZM812.843 708.843C815.303 708.843 816.653 707.103 816.653 704.673C816.653 702.303 815.183 701.223 813.923 701.223C812.663 701.223 811.763 702.123 811.763 703.383C811.763 704.643 812.663 705.423 813.773 705.423C814.223 705.423 814.703 705.303 815.003 704.973C815.003 705.483 814.913 706.053 814.613 706.563C814.343 707.193 813.743 707.583 812.933 707.583C812.393 707.583 812.183 707.583 811.823 707.523V708.783C812.093 708.843 812.513 708.843 812.843 708.843ZM833.657 705.273L837.287 694.653L840.917 705.273H843.137L848.237 691.443H845.387L842.057 701.553L838.697 691.443H835.907L832.517 701.553L829.217 691.443H826.367L831.467 705.273H833.657ZM862.326 697.593C862.326 693.783 859.686 691.083 855.786 691.083C851.676 691.083 848.976 693.963 848.976 698.343C848.976 702.813 851.646 705.633 855.906 705.633C859.146 705.633 861.696 703.863 862.176 701.313H859.566C858.996 702.633 857.736 703.353 855.906 703.353C853.266 703.353 851.616 701.793 851.556 699.123H862.266C862.326 698.493 862.326 698.103 862.326 697.593ZM851.556 697.113C851.676 694.773 853.236 693.183 855.756 693.183C858.276 693.183 859.776 694.683 859.776 697.113H851.556ZM878.599 705.273L882.229 694.653L885.859 705.273H888.079L893.179 691.443H890.329L886.999 701.553L883.639 691.443H880.849L877.459 701.553L874.159 691.443H871.309L876.409 705.273H878.599ZM896.962 689.073C898.192 689.073 899.062 688.143 899.062 686.973C899.062 685.803 898.192 684.843 896.962 684.843C895.702 684.843 894.832 685.803 894.832 686.973C894.832 688.143 895.702 689.073 896.962 689.073ZM898.252 705.273V691.443H895.672V705.273H898.252ZM905.372 705.273V684.273H902.762V705.273H905.372ZM912.491 705.273V684.273H909.881V705.273H912.491ZM930.348 705.633C934.068 705.633 936.468 703.623 936.798 700.593H934.188C933.828 702.333 932.508 703.293 930.318 703.293C927.678 703.293 926.058 701.433 926.058 698.373C926.058 695.283 927.678 693.453 930.318 693.453C932.508 693.453 933.828 694.413 934.188 696.243H936.798C936.468 693.153 934.068 691.113 930.348 691.113C926.088 691.113 923.478 694.083 923.478 698.373C923.478 702.663 926.088 705.633 930.348 705.633ZM946.411 705.633C950.881 705.633 953.611 702.393 953.611 698.373C953.611 694.323 950.881 691.083 946.411 691.083C941.911 691.083 939.211 694.323 939.211 698.373C939.211 702.393 941.911 705.633 946.411 705.633ZM946.411 703.293C943.501 703.293 941.791 701.133 941.791 698.373C941.791 695.583 943.501 693.423 946.411 693.423C949.321 693.423 951.001 695.583 951.001 698.373C951.001 701.133 949.321 703.293 946.411 703.293ZM962.465 705.273L968.555 691.443H965.765L961.385 701.793L957.035 691.443H954.245L960.335 705.273H962.465ZM982.561 697.593C982.561 693.783 979.921 691.083 976.021 691.083C971.911 691.083 969.211 693.963 969.211 698.343C969.211 702.813 971.881 705.633 976.141 705.633C979.381 705.633 981.931 703.863 982.411 701.313H979.801C979.231 702.633 977.971 703.353 976.141 703.353C973.501 703.353 971.851 701.793 971.791 699.123H982.501C982.561 698.493 982.561 698.103 982.561 697.593ZM971.791 697.113C971.911 694.773 973.471 693.183 975.991 693.183C978.511 693.183 980.011 694.683 980.011 697.113H971.791ZM988.575 705.273V699.243C988.575 696.153 989.865 693.663 992.595 693.663C993.075 693.663 993.435 693.663 993.885 693.753V691.353C993.555 691.263 993.105 691.233 992.625 691.233C990.885 691.233 989.115 692.253 988.575 694.593V691.443H985.965V705.273H988.575ZM996.764 705.483C997.994 705.483 998.984 704.493 998.984 703.293C998.984 702.093 997.994 701.103 996.764 701.103C995.564 701.103 994.604 702.093 994.604 703.293C994.604 704.493 995.564 705.483 996.764 705.483Z" fill="black"/>
<path d="M623.119 472.304C623.119 472.304 635.236 455.546 650.189 455.546C665.142 455.546 677.259 472.304 677.259 472.304C677.259 472.304 665.142 489.062 650.189 489.062C635.236 489.062 623.119 472.304 623.119 472.304Z" stroke="black" stroke-width="4.93144"/>
<path d="M650.188 463.281C645.205 463.281 641.165 467.321 641.165 472.304C641.165 477.288 645.205 481.327 650.188 481.327C655.172 481.327 659.211 477.288 659.211 472.304C659.211 467.321 655.172 463.281 650.188 463.281Z" fill="black"/>
<path d="M650.188 511.027C647.682 511.027 645.65 513.059 645.65 515.565C645.65 518.071 647.682 520.102 650.188 520.102C652.694 520.102 654.725 518.071 654.725 515.565C654.725 513.059 652.694 511.027 650.188 511.027Z" fill="#FF643B"/>
<path d="M628.686 505.188C626.18 505.188 624.149 507.219 624.149 509.725C624.149 512.231 626.18 514.263 628.686 514.263C631.192 514.263 633.224 512.231 633.224 509.725C633.224 507.219 631.192 505.188 628.686 505.188Z" fill="#FF643B"/>
<path d="M612.974 489.384C610.468 489.384 608.436 491.416 608.436 493.922C608.436 496.428 610.468 498.459 612.974 498.459C615.479 498.459 617.511 496.428 617.511 493.922C617.511 491.416 615.479 489.384 612.974 489.384Z" fill="#FF643B"/>
<path d="M607.276 467.844C604.77 467.844 602.739 469.875 602.739 472.381C602.739 474.887 604.77 476.919 607.276 476.919C609.782 476.919 611.814 474.887 611.814 472.381C611.814 469.875 609.782 467.844 607.276 467.844Z" fill="#FF643B"/>
<path d="M613.102 446.343C610.596 446.343 608.565 448.374 608.565 450.88C608.565 453.386 610.596 455.418 613.102 455.418C615.608 455.418 617.64 453.386 617.64 450.88C617.64 448.374 615.608 446.343 613.102 446.343Z" fill="#FF643B"/>
<path d="M628.907 430.629C626.401 430.629 624.369 432.661 624.369 435.167C624.369 437.673 626.401 439.704 628.907 439.704C631.413 439.704 633.444 437.673 633.444 435.167C633.444 432.661 631.413 430.629 628.907 430.629Z" fill="#FF643B"/>
<path d="M650.447 424.931C647.941 424.931 645.909 426.963 645.909 429.469C645.909 431.975 647.941 434.006 650.447 434.006C652.953 434.006 654.984 431.975 654.984 429.469C654.984 426.963 652.953 424.931 650.447 424.931Z" fill="#FF643B"/>
<path d="M671.947 430.758C669.441 430.758 667.41 432.789 667.41 435.295C667.41 437.801 669.441 439.833 671.947 439.833C674.453 439.833 676.485 437.801 676.485 435.295C676.485 432.789 674.453 430.758 671.947 430.758Z" fill="#FF643B"/>
<path d="M687.661 446.562C685.155 446.562 683.124 448.593 683.124 451.099C683.124 453.605 685.155 455.637 687.661 455.637C690.167 455.637 692.199 453.605 692.199 451.099C692.199 448.593 690.167 446.562 687.661 446.562Z" fill="#FF643B"/>
<path d="M693.372 468.102C690.866 468.102 688.834 470.133 688.834 472.639C688.834 475.145 690.866 477.177 693.372 477.177C695.878 477.177 697.909 475.145 697.909 472.639C697.909 470.133 695.878 468.102 693.372 468.102Z" fill="#FF643B"/>
<path d="M687.533 489.603C685.027 489.603 682.995 491.635 682.995 494.141C682.995 496.647 685.027 498.678 687.533 498.678C690.039 498.678 692.07 496.647 692.07 494.141C692.07 491.635 690.039 489.603 687.533 489.603Z" fill="#FF643B"/>
<path d="M671.728 505.317C669.222 505.317 667.191 507.348 667.191 509.854C667.191 512.36 669.222 514.392 671.728 514.392C674.234 514.392 676.266 512.36 676.266 509.854C676.266 507.348 674.234 505.317 671.728 505.317Z" fill="#FF643B"/>
<path d="M156.789 503.947C155.919 502.177 154.059 501.127 151.929 501.127C147.819 501.127 145.029 504.307 145.029 508.417C145.029 512.497 147.639 515.677 151.869 515.677C153.879 515.677 155.919 514.627 156.789 512.887V515.137C156.789 518.437 155.169 519.877 152.169 519.877C149.529 519.877 148.149 518.677 147.969 517.057H145.239C145.299 518.557 146.049 519.847 147.279 520.717C148.539 521.617 150.309 522.067 152.199 522.067C154.179 522.067 155.799 521.647 156.969 520.777C158.529 519.577 159.369 517.597 159.369 514.957V501.487H156.789V503.947ZM152.229 513.337C149.499 513.337 147.609 511.237 147.609 508.417C147.609 505.567 149.469 503.467 152.229 503.467C155.139 503.467 156.909 505.687 156.909 508.417C156.909 511.117 155.139 513.337 152.229 513.337ZM176.103 507.637C176.103 503.827 173.463 501.127 169.563 501.127C165.453 501.127 162.753 504.007 162.753 508.387C162.753 512.857 165.423 515.677 169.683 515.677C172.923 515.677 175.473 513.907 175.953 511.357H173.343C172.773 512.677 171.513 513.397 169.683 513.397C167.043 513.397 165.393 511.837 165.333 509.167H176.043C176.103 508.537 176.103 508.147 176.103 507.637ZM165.333 507.157C165.453 504.817 167.013 503.227 169.533 503.227C172.053 503.227 173.553 504.727 173.553 507.157H165.333ZM185.181 513.157C183.861 513.157 182.961 512.797 182.961 510.157V503.677H186.441V501.487H182.961V497.107H180.351V501.487H177.861V503.677H180.351V510.727C180.351 515.197 182.961 515.497 184.581 515.497C185.481 515.497 186.411 515.407 186.921 515.287V512.977C186.531 513.067 185.691 513.157 185.181 513.157ZM198.574 508.627V506.287H189.424V508.627H198.574ZM204.999 515.317V507.997C204.999 505.207 206.319 503.377 208.899 503.377C211.359 503.377 212.379 504.847 212.379 507.937V515.317H214.959V506.797C214.959 503.107 213.219 501.127 209.829 501.127C207.429 501.127 205.749 502.267 204.999 504.037V501.487H202.389V515.317H204.999ZM225.412 515.677C229.882 515.677 232.612 512.437 232.612 508.417C232.612 504.367 229.882 501.127 225.412 501.127C220.912 501.127 218.212 504.367 218.212 508.417C218.212 512.437 220.912 515.677 225.412 515.677ZM225.412 513.337C222.502 513.337 220.792 511.177 220.792 508.417C220.792 505.627 222.502 503.467 225.412 503.467C228.322 503.467 230.002 505.627 230.002 508.417C230.002 511.177 228.322 513.337 225.412 513.337ZM241.636 513.157C240.316 513.157 239.416 512.797 239.416 510.157V503.677H242.896V501.487H239.416V497.107H236.806V501.487H234.316V503.677H236.806V510.727C236.806 515.197 239.416 515.497 241.036 515.497C241.936 515.497 242.866 515.407 243.376 515.287V512.977C242.986 513.067 242.146 513.157 241.636 513.157ZM252.123 515.677C255.843 515.677 258.243 513.667 258.573 510.637H255.963C255.603 512.377 254.283 513.337 252.093 513.337C249.453 513.337 247.833 511.477 247.833 508.417C247.833 505.327 249.453 503.497 252.093 503.497C254.283 503.497 255.603 504.457 255.963 506.287H258.573C258.243 503.197 255.843 501.157 252.123 501.157C247.863 501.157 245.253 504.127 245.253 508.417C245.253 512.707 247.863 515.677 252.123 515.677ZM269.39 501.127C266.99 501.127 265.31 502.267 264.56 504.037V494.317H261.95V515.317H264.56V507.997C264.56 505.207 265.88 503.377 268.46 503.377C270.95 503.377 271.94 504.847 271.94 507.937V515.317H274.55V506.797C274.55 503.107 272.81 501.127 269.39 501.127ZM280.922 515.527C282.152 515.527 283.142 514.537 283.142 513.337C283.142 512.137 282.152 511.147 280.922 511.147C279.722 511.147 278.762 512.137 278.762 513.337C278.762 514.537 279.722 515.527 280.922 515.527ZM292.699 515.677C296.419 515.677 298.819 513.667 299.149 510.637H296.539C296.179 512.377 294.859 513.337 292.669 513.337C290.029 513.337 288.409 511.477 288.409 508.417C288.409 505.327 290.029 503.497 292.669 503.497C294.859 503.497 296.179 504.457 296.539 506.287H299.149C298.819 503.197 296.419 501.157 292.699 501.157C288.439 501.157 285.829 504.127 285.829 508.417C285.829 512.707 288.439 515.677 292.699 515.677ZM308.762 515.677C313.232 515.677 315.962 512.437 315.962 508.417C315.962 504.367 313.232 501.127 308.762 501.127C304.262 501.127 301.562 504.367 301.562 508.417C301.562 512.437 304.262 515.677 308.762 515.677ZM308.762 513.337C305.852 513.337 304.142 511.177 304.142 508.417C304.142 505.627 305.852 503.467 308.762 503.467C311.672 503.467 313.352 505.627 313.352 508.417C313.352 511.177 311.672 513.337 308.762 513.337ZM321.923 515.317V508.117C321.923 504.877 323.213 503.377 325.343 503.377C327.023 503.377 328.313 504.277 328.313 507.277V515.317H330.923V508.117C330.923 504.757 332.273 503.377 334.313 503.377C336.173 503.377 337.313 504.457 337.313 507.067V515.317H339.923V506.557C339.923 503.527 338.663 501.127 334.943 501.127C332.783 501.127 331.073 502.447 330.473 504.097C329.963 502.267 328.493 501.127 326.063 501.127C323.843 501.127 322.433 502.507 321.923 504.007V501.487H319.313V515.317H321.923Z" fill="black"/>
</svg>
