<svg xmlns:xlink="http://www.w3.org/1999/xlink" xmlns="http://www.w3.org/2000/svg" width="1920" height="3018" viewBox="0 0 1920 3018" fill="none">
<g clip-path="url(#clip0)">
<rect x="757" y="1873" width="422" height="373" fill="#FFBFE1"/>
<rect x="791" width="1129" height="772" fill="#FFBFE1"/>
<path d="M1550 679.351C1550 521.917 1422.62 394.281 1265.5 394.281C1108.38 394.281 981 521.917 981 679.351C981 712.253 986.592 743.853 996.822 773.281H1534.18C1544.43 743.853 1550 712.253 1550 679.351Z" fill="#FDC800"/>
<rect x="-1" y="2246" width="758" height="772" fill="#8159FB"/>
<rect x="-1" y="772.281" width="1180" height="737.735" fill="#FD3C2D"/>
<rect x="1159" y="772" width="761" height="1474" fill="white"/>
<rect x="757" y="2246" width="1163" height="772" fill="#FDC800"/>
<path d="M1378.03 3017.99H1197V2824.82L1378.03 3017.99Z" fill="#3821C3"/>
<path d="M1378.03 2825.15H1197V2631.99L1378.03 2825.15Z" fill="#FD3C2D"/>
<path d="M1557.93 3017.99H1378.03V2824.82L1557.93 3017.99Z" fill="#FD3C2D"/>
<path d="M1557.93 2825.15H1378.03V2631.99L1557.93 2825.15Z" fill="#8159FB"/>
<path d="M1738.97 3017.99H1557.93V2824.82L1738.97 3017.99Z" fill="white"/>
<path d="M1738.97 2825.15H1557.93V2631.99L1738.97 2825.15Z" fill="#3821C3"/>
<path d="M1920 3017.99H1738.97V2824.82L1920 3017.99Z" fill="#FD3C2D"/>
<path d="M1920 2825.15H1738.97V2631.99L1920 2825.15Z" fill="#8159FB"/>
<path d="M837.68 119.988H878.792C887.216 119.988 891.176 119.34 894.416 117.324C897.872 115.236 900.032 110.628 900.032 105.516C900.032 102.492 899.312 99.8998 897.8 97.6678C896.504 95.7958 895.28 94.9318 891.968 93.4198C895.712 90.9718 897.08 88.5958 897.08 84.4198C897.08 79.5238 894.488 75.3478 890.384 73.6918C887.144 72.3958 883.4 71.9638 875.624 71.9638H837.68V119.988ZM856.04 108.324V101.556H871.448C877.208 101.628 877.496 101.628 878.432 101.988C879.728 102.492 880.376 103.5 880.376 104.868C880.376 106.092 879.8 107.172 878.864 107.676C877.856 108.252 877.784 108.252 871.448 108.324H856.04ZM856.04 89.8198V83.5558H869.432C875.984 83.5558 877.496 84.1318 877.496 86.6518C877.496 88.1638 876.632 89.2438 875.192 89.5318C874.04 89.7478 873.176 89.8198 869.36 89.8198H856.04ZM909.52 119.988H927.88V102.78H938.32C946.096 102.78 946.816 103.644 947.176 113.652C947.392 117.468 947.464 118.044 947.752 119.988H966.976C965.896 118.188 965.824 117.612 965.68 113.94C965.248 101.628 964.456 100.188 957.256 98.0998C960.784 97.3078 962.44 96.5878 963.952 94.9318C965.68 92.9878 966.688 89.6758 966.688 85.7878C966.688 81.0358 965.104 77.2198 962.152 74.9158C959.2 72.5398 956.032 71.9638 945.088 71.9638H909.52V119.988ZM927.88 92.6278V83.1958H940.192C945.448 83.1958 947.104 84.3478 947.104 87.8038C947.104 89.6038 946.384 91.0438 945.232 91.8358C944.368 92.4118 943.072 92.6278 940.048 92.6278H927.88ZM972.449 119.988H991.673L993.473 115.596H1013.06L1015.07 119.988H1035.16L1015.94 71.9638H991.673L972.449 119.988ZM996.785 103.356L1003.26 85.7158L1009.46 103.356H996.785ZM1041.53 119.988H1059.89V102.78C1059.89 97.3078 1059.38 94.2838 1057.73 89.5318H1058.3C1060.61 95.0038 1062.12 97.5958 1065 101.196L1080.84 119.988H1101V71.9638H1082.64V87.2998C1082.64 92.7718 1083.5 97.9558 1085.09 102.06H1084.51C1081.27 95.3638 1080.91 94.7878 1077.31 90.1798L1062.26 71.9638H1041.53V119.988ZM1112.59 119.988H1144.71C1158.67 119.988 1163.21 118.836 1167.96 114.3C1171.92 110.412 1173.94 104.436 1173.94 96.5878C1173.94 88.3078 1171.63 81.9718 1167.03 77.7958C1162.2 73.3318 1156.8 71.9638 1144.42 71.9638H1112.59V119.988ZM1130.95 107.748V84.2038H1139.59C1146.65 84.2038 1148.23 84.4918 1150.32 86.0038C1152.91 87.8038 1154.28 91.4038 1154.28 96.0838C1154.28 100.908 1152.84 104.436 1150.25 106.092C1148.23 107.388 1145.86 107.748 1139.81 107.748H1130.95ZM835.088 173.588C835.736 179.564 837.824 182.66 843.008 185.468C847.832 188.132 855.608 189.5 865.904 189.5C887.432 189.5 897.728 184.028 897.728 172.58C897.728 166.604 894.704 162.284 888.872 160.052C884.768 158.54 882.32 158.036 873.824 157.172C858.992 155.66 857.408 155.228 857.408 152.852C857.408 150.908 859.784 149.684 863.6 149.684C868.352 149.684 871.088 151.052 872.24 154.076H896.216C894.704 148.46 892.904 145.724 888.944 143.204C884.048 140.036 876.488 138.452 866.264 138.452C846.104 138.452 835.52 144.14 835.52 155.012C835.52 160.916 838.76 165.164 844.736 167.036C848.552 168.332 854.456 169.484 859.856 169.988C871.016 171.068 871.952 171.212 873.464 171.644C874.976 172.076 875.696 172.796 875.696 174.164C875.696 176.18 873.464 177.26 869.144 177.26C864.608 177.26 862.232 176.252 860.576 173.588H835.088ZM921.176 187.988H939.536V152.204H958.04V139.964H902.888V152.204H921.176V187.988ZM965.609 187.988H983.969V170.78H994.409C1002.19 170.78 1002.91 171.644 1003.27 181.652C1003.48 185.468 1003.55 186.044 1003.84 187.988H1023.07C1021.99 186.188 1021.91 185.612 1021.77 181.94C1021.34 169.628 1020.55 168.188 1013.35 166.1C1016.87 165.308 1018.53 164.588 1020.04 162.932C1021.77 160.988 1022.78 157.676 1022.78 153.788C1022.78 149.036 1021.19 145.22 1018.24 142.916C1015.29 140.54 1012.12 139.964 1001.18 139.964H965.609V187.988ZM983.969 160.628V151.196H996.281C1001.54 151.196 1003.19 152.348 1003.19 155.804C1003.19 157.604 1002.47 159.044 1001.32 159.836C1000.46 160.412 999.161 160.628 996.137 160.628H983.969ZM1028.54 187.988H1047.76L1049.56 183.596H1069.15L1071.16 187.988H1091.25L1072.03 139.964H1047.76L1028.54 187.988ZM1052.87 171.356L1059.35 153.716L1065.55 171.356H1052.87ZM1107.52 187.988H1125.88V152.204H1144.38V139.964H1089.23V152.204H1107.52V187.988ZM1151.95 187.988H1208.54V175.748H1170.31V169.772H1200.12V157.532H1170.31V152.204H1206.31V139.964H1151.95V187.988ZM1281.24 161.276H1253.73V171.716H1261.87C1260.5 175.532 1257.05 177.332 1250.85 177.332C1241.42 177.332 1236.24 172.436 1236.24 163.652C1236.24 155.516 1240.99 150.692 1248.91 150.692C1254.38 150.692 1257.84 152.708 1259.42 156.956H1281.24C1280.37 151.484 1278.21 148.1 1273.39 144.644C1267.92 140.684 1259.06 138.452 1248.69 138.452C1238.83 138.452 1230.69 140.54 1225.08 144.572C1219.32 148.676 1216.01 155.876 1216.01 164.156C1216.01 180.428 1227.38 189.5 1247.76 189.5C1253.88 189.5 1259.13 188.708 1263.6 187.196C1266.55 186.188 1268.42 185.036 1270.87 182.66L1273.32 187.844H1281.24V161.276ZM1305.58 187.988H1324.01V175.892L1346.62 139.964H1325.45L1315.15 157.748L1304.93 139.964H1283.4L1305.58 175.892V187.988ZM1431.39 161.132C1427.93 164.012 1427 164.732 1426.28 165.308C1424.91 166.316 1424.05 166.964 1420.73 169.196L1414.76 162.644C1424.55 159.692 1428.37 156.308 1428.37 150.476C1428.37 142.772 1420.81 138.452 1407.41 138.452C1394.38 138.452 1387.83 142.268 1387.83 149.9C1387.83 152.852 1388.48 154.58 1390.64 157.388C1379.12 159.548 1373.72 164.372 1373.72 172.652C1373.72 177.332 1375.88 181.796 1379.33 184.244C1383.51 187.124 1389.85 188.924 1396.04 188.924C1402.3 188.924 1408.13 187.556 1414.54 184.676L1417.42 187.988H1437.87L1427.65 176.756C1431.68 174.02 1434.99 171.644 1437.87 169.196L1431.39 161.132ZM1406.91 176.612C1404.03 177.908 1402.01 178.412 1399.93 178.412C1395.1 178.412 1391.36 175.388 1391.36 171.5C1391.36 168.404 1393.01 166.748 1397.26 165.74L1406.91 176.612ZM1408.13 155.372C1406.55 153.5 1405.83 152.132 1405.83 150.908C1405.83 149.18 1407.49 147.884 1409.79 147.884C1412.17 147.884 1413.75 149.18 1413.75 151.124C1413.75 153.356 1412.31 154.508 1408.13 155.372ZM846.32 255.988V236.476H865.256C874.616 236.476 880.448 231.004 880.448 222.22C880.448 213.22 874.76 207.964 864.968 207.964H838.904V255.988H846.32ZM846.32 230.212V214.228H863.096C866.768 214.228 868.64 214.66 870.296 215.956C872.024 217.252 873.032 219.484 873.032 222.22C873.032 224.884 872.024 227.188 870.296 228.484C868.64 229.78 866.768 230.212 863.096 230.212H846.32ZM916.181 206.74C900.053 206.74 889.253 216.82 889.253 231.94C889.253 247.132 900.053 257.212 916.253 257.212C924.461 257.212 931.373 254.692 936.125 250.084C940.661 245.692 943.325 239.068 943.325 232.3C943.325 216.748 932.741 206.74 916.181 206.74ZM916.253 213.004C928.205 213.004 935.909 220.492 935.909 232.228C935.909 243.388 927.989 250.948 916.253 250.948C904.445 250.948 896.669 243.388 896.669 231.94C896.669 220.564 904.445 213.004 916.253 213.004ZM995.406 221.932C994.83 216.172 993.39 213.22 989.862 210.556C986.478 208.036 981.294 206.74 974.742 206.74C962.07 206.74 954.366 212.14 954.366 221.14C954.366 225.748 956.814 229.852 960.63 231.652C963.006 232.732 966.894 233.74 971.502 234.604L980.646 236.116C986.766 237.196 989.358 239.14 989.358 242.668C989.358 247.78 984.174 250.948 975.966 250.948C970.35 250.948 966.174 249.724 963.51 247.204C961.494 245.404 960.774 243.388 960.702 239.788H952.998C953.214 245.188 954.078 247.924 956.454 250.804C959.982 255.052 966.462 257.212 975.678 257.212C981.726 257.212 985.974 256.276 989.79 254.044C994.326 251.452 997.062 246.916 997.062 241.948C997.062 238.132 995.406 234.748 992.598 232.732C990.222 231.004 987.414 230.068 982.23 229.132L972.366 227.404C967.902 226.612 966.462 226.18 964.806 225.244C962.862 224.236 961.782 222.508 961.782 220.564C961.782 216.028 966.894 213.004 974.67 213.004C979.134 213.004 982.518 213.94 984.966 215.884C986.91 217.396 987.702 218.98 987.918 221.932H995.406ZM1016.14 255.988V207.964H1008.72V255.988H1016.14ZM1051.08 255.988V214.66H1069.59V207.964H1025.31V214.66H1043.67V255.988H1051.08ZM1086.2 255.988V207.964H1078.78V255.988H1086.2ZM1125.12 206.74C1108.99 206.74 1098.19 216.82 1098.19 231.94C1098.19 247.132 1108.99 257.212 1125.19 257.212C1133.4 257.212 1140.31 254.692 1145.07 250.084C1149.6 245.692 1152.27 239.068 1152.27 232.3C1152.27 216.748 1141.68 206.74 1125.12 206.74ZM1125.19 213.004C1137.15 213.004 1144.85 220.492 1144.85 232.228C1144.85 243.388 1136.93 250.948 1125.19 250.948C1113.39 250.948 1105.61 243.388 1105.61 231.94C1105.61 220.564 1113.39 213.004 1125.19 213.004ZM1212.55 255.988V207.964H1205.14V246.7L1173.53 207.964H1164.24V255.988H1171.66V216.892L1203.63 255.988H1212.55ZM1233.94 255.988V207.964H1226.52V255.988H1233.94ZM1296.19 255.988V207.964H1288.77V246.7L1257.16 207.964H1247.88V255.988H1255.29V216.892L1287.26 255.988H1296.19ZM1359.53 255.988V229.78H1337.14V236.476H1352.91C1352.26 240.292 1351.4 242.38 1349.6 244.684C1346.36 248.716 1341.32 250.948 1335.2 250.948C1323.68 250.948 1316.12 243.388 1316.12 231.724C1316.12 220.492 1323.68 213.004 1335.12 213.004C1339.59 213.004 1343.55 214.228 1346.64 216.604C1348.95 218.404 1350.03 219.988 1351.18 223.228H1359.03C1357.8 218.692 1356.36 216.1 1353.56 213.292C1349.16 209.044 1342.76 206.74 1335.27 206.74C1319.43 206.74 1308.7 216.964 1308.7 232.156C1308.7 247.132 1319 257.212 1334.19 257.212C1342.11 257.212 1347.44 254.98 1352.91 249.436L1353.92 255.988H1359.53Z" fill="black"/>
<rect y="1510" width="757" height="738" fill="black"/>
<path d="M85.4143 2003.17H108.364V1958.44H131.494V1943.14H62.5543V1958.44H85.4143V2003.17ZM162.208 2003.17H185.248V1988.05L213.508 1943.14H187.048L174.178 1965.37L161.398 1943.14H134.488L162.208 1988.05V2003.17ZM218.149 2003.17H241.099V1983.01H263.149C274.399 1983.01 278.089 1982.38 282.229 1979.95C287.449 1976.89 290.239 1971.04 290.239 1963.12C290.239 1956.1 287.899 1950.52 283.579 1947.28C279.259 1944.13 274.489 1943.14 262.969 1943.14H218.149V2003.17ZM241.099 1968.52V1956.55H255.589C263.329 1956.55 265.669 1957.9 265.669 1962.31C265.669 1964.74 264.679 1966.63 263.059 1967.62C261.889 1968.34 260.179 1968.52 255.499 1968.52H241.099ZM336.821 1941.25C322.151 1941.25 312.521 1943.77 305.231 1949.71C299.201 1954.57 295.961 1962.58 295.961 1972.66C295.961 1984 298.931 1991.56 305.231 1996.69C312.611 2002.63 322.061 2005.15 337.091 2005.15C364.721 2005.15 377.681 1994.89 377.681 1973.2C377.681 1962.49 374.621 1954.66 368.411 1949.71C361.031 1943.77 351.671 1941.25 336.821 1941.25ZM336.821 1956.55C347.081 1956.55 352.391 1962.22 352.391 1973.2C352.391 1984.09 347.081 1989.85 336.911 1989.85C326.471 1989.85 321.251 1984.18 321.251 1972.93C321.251 1962.31 326.741 1956.55 336.821 1956.55ZM146.524 2054.78H112.144V2067.83H122.314C120.604 2072.6 116.284 2074.85 108.544 2074.85C96.7543 2074.85 90.2743 2068.73 90.2743 2057.75C90.2743 2047.58 96.2143 2041.55 106.114 2041.55C112.954 2041.55 117.274 2044.07 119.254 2049.38H146.524C145.444 2042.54 142.744 2038.31 136.714 2033.99C129.874 2029.04 118.804 2026.25 105.844 2026.25C93.5143 2026.25 83.3443 2028.86 76.3243 2033.9C69.1243 2039.03 64.9843 2048.03 64.9843 2058.38C64.9843 2078.72 79.2043 2090.06 104.674 2090.06C112.324 2090.06 118.894 2089.07 124.474 2087.18C128.164 2085.92 130.504 2084.48 133.564 2081.51L136.624 2087.99H146.524V2054.78ZM157.065 2088.17H180.015V2066.66H193.065C202.785 2066.66 203.685 2067.74 204.135 2080.25C204.405 2085.02 204.495 2085.74 204.855 2088.17H228.885C227.535 2085.92 227.445 2085.2 227.265 2080.61C226.725 2065.22 225.735 2063.42 216.735 2060.81C221.145 2059.82 223.215 2058.92 225.105 2056.85C227.265 2054.42 228.525 2050.28 228.525 2045.42C228.525 2039.48 226.545 2034.71 222.855 2031.83C219.165 2028.86 215.205 2028.14 201.525 2028.14H157.065V2088.17ZM180.015 2053.97V2042.18H195.405C201.975 2042.18 204.045 2043.62 204.045 2047.94C204.045 2050.19 203.145 2051.99 201.705 2052.98C200.625 2053.7 199.005 2053.97 195.225 2053.97H180.015ZM233.026 2088.17H257.056L259.306 2082.68H283.786L286.306 2088.17H311.416L287.386 2028.14H257.056L233.026 2088.17ZM263.446 2067.38L271.546 2045.33L279.286 2067.38H263.446ZM316.674 2088.17H339.624V2068.01H361.674C372.924 2068.01 376.614 2067.38 380.754 2064.95C385.974 2061.89 388.764 2056.04 388.764 2048.12C388.764 2041.1 386.424 2035.52 382.104 2032.28C377.784 2029.13 373.014 2028.14 361.494 2028.14H316.674V2088.17ZM339.624 2053.52V2041.55H354.114C361.854 2041.55 364.194 2042.9 364.194 2047.31C364.194 2049.74 363.204 2051.63 361.584 2052.62C360.414 2053.34 358.704 2053.52 354.024 2053.52H339.624ZM396.567 2088.17H419.517V2064.59H446.337V2088.17H469.287V2028.14H446.337V2049.29H419.517V2028.14H396.567V2088.17ZM502.521 2088.17H525.561V2073.05L553.821 2028.14H527.361L514.491 2050.37L501.711 2028.14H474.801L502.521 2073.05V2088.17ZM119.164 2130.6C118.444 2123.4 116.644 2119.71 112.234 2116.38C108.004 2113.23 101.524 2111.61 93.3343 2111.61C77.4943 2111.61 67.8643 2118.36 67.8643 2129.61C67.8643 2135.37 70.9243 2140.5 75.6943 2142.75C78.6643 2144.1 83.5243 2145.36 89.2843 2146.44L100.714 2148.33C108.364 2149.68 111.604 2152.11 111.604 2156.52C111.604 2162.91 105.124 2166.87 94.8643 2166.87C87.8443 2166.87 82.6243 2165.34 79.2943 2162.19C76.7743 2159.94 75.8743 2157.42 75.7843 2152.92H66.1543C66.4243 2159.67 67.5043 2163.09 70.4743 2166.69C74.8843 2172 82.9843 2174.7 94.5043 2174.7C102.064 2174.7 107.374 2173.53 112.144 2170.74C117.814 2167.5 121.234 2161.83 121.234 2155.62C121.234 2150.85 119.164 2146.62 115.654 2144.1C112.684 2141.94 109.174 2140.77 102.694 2139.6L90.3643 2137.44C84.7843 2136.45 82.9843 2135.91 80.9143 2134.74C78.4843 2133.48 77.1343 2131.32 77.1343 2128.89C77.1343 2123.22 83.5243 2119.44 93.2443 2119.44C98.8243 2119.44 103.054 2120.61 106.114 2123.04C108.544 2124.93 109.534 2126.91 109.804 2130.6H119.164ZM159.171 2173.17V2148.24L185.631 2113.14H174.291L154.761 2140.32L135.411 2113.14H123.441L149.901 2148.24V2173.17H159.171ZM241.244 2130.6C240.524 2123.4 238.724 2119.71 234.314 2116.38C230.084 2113.23 223.604 2111.61 215.414 2111.61C199.574 2111.61 189.944 2118.36 189.944 2129.61C189.944 2135.37 193.004 2140.5 197.774 2142.75C200.744 2144.1 205.604 2145.36 211.364 2146.44L222.794 2148.33C230.444 2149.68 233.684 2152.11 233.684 2156.52C233.684 2162.91 227.204 2166.87 216.944 2166.87C209.924 2166.87 204.704 2165.34 201.374 2162.19C198.854 2159.94 197.954 2157.42 197.864 2152.92H188.234C188.504 2159.67 189.584 2163.09 192.554 2166.69C196.964 2172 205.064 2174.7 216.584 2174.7C224.144 2174.7 229.454 2173.53 234.224 2170.74C239.894 2167.5 243.314 2161.83 243.314 2155.62C243.314 2150.85 241.244 2146.62 237.734 2144.1C234.764 2141.94 231.254 2140.77 224.774 2139.6L212.444 2137.44C206.864 2136.45 205.064 2135.91 202.994 2134.74C200.564 2133.48 199.214 2131.32 199.214 2128.89C199.214 2123.22 205.604 2119.44 215.324 2119.44C220.904 2119.44 225.134 2120.61 228.194 2123.04C230.624 2124.93 231.614 2126.91 231.884 2130.6H241.244ZM280.745 2173.17V2121.51H303.875V2113.14H248.525V2121.51H271.475V2173.17H280.745ZM362.617 2173.17V2164.8H321.937V2146.71H359.467V2138.34H321.937V2121.51H361.807V2113.14H312.667V2173.17H362.617ZM449.064 2173.17V2113.14H436.194L411.804 2163.9L387.774 2113.14H374.454V2173.17H383.724V2123.85L407.304 2173.17H415.584L439.794 2123.85V2173.17H449.064Z" fill="white"/>
<path d="M1272.49 1018.4C1270.96 1021.73 1270.06 1023.17 1268.62 1024.43C1266.46 1026.32 1262.5 1027.4 1258.09 1027.4C1247.65 1027.4 1241.62 1021.1 1241.62 1010.12C1241.62 999.683 1247.29 994.193 1258.09 994.193C1266.64 994.193 1270.6 996.803 1272.49 1003.73H1298.86C1297.96 996.623 1296.07 992.393 1292.38 988.793C1285.27 982.133 1274.29 978.893 1258 978.893C1243.87 978.893 1234.33 981.323 1226.77 986.903C1220.02 991.853 1216.33 1000.13 1216.33 1010.48C1216.33 1020.92 1219.93 1029.2 1227.04 1034.78C1234.15 1040.45 1242.79 1042.7 1257.46 1042.7C1272.4 1042.7 1280.86 1040.9 1288.42 1036.13C1295.17 1031.9 1297.96 1027.13 1298.86 1018.4H1272.49ZM1345.61 978.893C1330.94 978.893 1321.31 981.413 1314.02 987.353C1307.99 992.213 1304.75 1000.22 1304.75 1010.3C1304.75 1021.64 1307.72 1029.2 1314.02 1034.33C1321.4 1040.27 1330.85 1042.79 1345.88 1042.79C1373.51 1042.79 1386.47 1032.53 1386.47 1010.84C1386.47 1000.13 1383.41 992.303 1377.2 987.353C1369.82 981.413 1360.46 978.893 1345.61 978.893ZM1345.61 994.193C1355.87 994.193 1361.18 999.863 1361.18 1010.84C1361.18 1021.73 1355.87 1027.49 1345.7 1027.49C1335.26 1027.49 1330.04 1021.82 1330.04 1010.57C1330.04 999.953 1335.53 994.193 1345.61 994.193ZM1395.77 1040.81H1461.65V1025.51H1418.72V980.783H1395.77V1040.81ZM1507.15 978.893C1492.48 978.893 1482.85 981.413 1475.56 987.353C1469.53 992.213 1466.29 1000.22 1466.29 1010.3C1466.29 1021.64 1469.26 1029.2 1475.56 1034.33C1482.94 1040.27 1492.39 1042.79 1507.42 1042.79C1535.05 1042.79 1548.01 1032.53 1548.01 1010.84C1548.01 1000.13 1544.95 992.303 1538.74 987.353C1531.36 981.413 1522 978.893 1507.15 978.893ZM1507.15 994.193C1517.41 994.193 1522.72 999.863 1522.72 1010.84C1522.72 1021.73 1517.41 1027.49 1507.24 1027.49C1496.8 1027.49 1491.58 1021.82 1491.58 1010.57C1491.58 999.953 1497.07 994.193 1507.15 994.193ZM1557.32 1040.81H1580.27V1019.3H1593.32C1603.04 1019.3 1603.94 1020.38 1604.39 1032.89C1604.66 1037.66 1604.75 1038.38 1605.11 1040.81H1629.14C1627.79 1038.56 1627.7 1037.84 1627.52 1033.25C1626.98 1017.86 1625.99 1016.06 1616.99 1013.45C1621.4 1012.46 1623.47 1011.56 1625.36 1009.49C1627.52 1007.06 1628.78 1002.92 1628.78 998.063C1628.78 992.123 1626.8 987.353 1623.11 984.473C1619.42 981.503 1615.46 980.783 1601.78 980.783H1557.32V1040.81ZM1580.27 1006.61V994.823H1595.66C1602.23 994.823 1604.3 996.263 1604.3 1000.58C1604.3 1002.83 1603.4 1004.63 1601.96 1005.62C1600.88 1006.34 1599.26 1006.61 1595.48 1006.61H1580.27ZM1218.85 1125.81H1241.8V1105.65H1263.85C1275.1 1105.65 1278.79 1105.02 1282.93 1102.59C1288.15 1099.53 1290.94 1093.68 1290.94 1085.76C1290.94 1078.74 1288.6 1073.16 1284.28 1069.92C1279.96 1066.77 1275.19 1065.78 1263.67 1065.78H1218.85V1125.81ZM1241.8 1091.16V1079.19H1256.29C1264.03 1079.19 1266.37 1080.54 1266.37 1084.95C1266.37 1087.38 1265.38 1089.27 1263.76 1090.26C1262.59 1090.98 1260.88 1091.16 1256.2 1091.16H1241.8ZM1288.4 1125.81H1312.43L1314.68 1120.32H1339.16L1341.68 1125.81H1366.79L1342.76 1065.78H1312.43L1288.4 1125.81ZM1318.82 1105.02L1326.92 1082.97L1334.66 1105.02H1318.82ZM1372.04 1125.81H1437.92V1110.51H1394.99V1065.78H1372.04V1125.81ZM1445.34 1125.81H1516.08V1110.51H1468.29V1103.04H1505.55V1087.74H1468.29V1081.08H1513.29V1065.78H1445.34V1125.81ZM1542.97 1125.81H1565.92V1081.08H1589.05V1065.78H1520.11V1081.08H1542.97V1125.81ZM1616.1 1125.81H1639.05V1081.08H1662.18V1065.78H1593.24V1081.08H1616.1V1125.81ZM1668.94 1125.81H1739.68V1110.51H1691.89V1103.04H1729.15V1087.74H1691.89V1081.08H1736.89V1065.78H1668.94V1125.81ZM1270.51 1168.24C1269.79 1161.04 1267.99 1157.35 1263.58 1154.02C1259.35 1150.87 1252.87 1149.25 1244.68 1149.25C1228.84 1149.25 1219.21 1156 1219.21 1167.25C1219.21 1173.01 1222.27 1178.14 1227.04 1180.39C1230.01 1181.74 1234.87 1183 1240.63 1184.08L1252.06 1185.97C1259.71 1187.32 1262.95 1189.75 1262.95 1194.16C1262.95 1200.55 1256.47 1204.51 1246.21 1204.51C1239.19 1204.51 1233.97 1202.98 1230.64 1199.83C1228.12 1197.58 1227.22 1195.06 1227.13 1190.56H1217.5C1217.77 1197.31 1218.85 1200.73 1221.82 1204.33C1226.23 1209.64 1234.33 1212.34 1245.85 1212.34C1253.41 1212.34 1258.72 1211.17 1263.49 1208.38C1269.16 1205.14 1272.58 1199.47 1272.58 1193.26C1272.58 1188.49 1270.51 1184.26 1267 1181.74C1264.03 1179.58 1260.52 1178.41 1254.04 1177.24L1241.71 1175.08C1236.13 1174.09 1234.33 1173.55 1232.26 1172.38C1229.83 1171.12 1228.48 1168.96 1228.48 1166.53C1228.48 1160.86 1234.87 1157.08 1244.59 1157.08C1250.17 1157.08 1254.4 1158.25 1257.46 1160.68C1259.89 1162.57 1260.88 1164.55 1261.15 1168.24H1270.51ZM1310.52 1210.81V1185.88L1336.98 1150.78H1325.64L1306.11 1177.96L1286.76 1150.78H1274.79L1301.25 1185.88V1210.81H1310.52ZM1392.59 1168.24C1391.87 1161.04 1390.07 1157.35 1385.66 1154.02C1381.43 1150.87 1374.95 1149.25 1366.76 1149.25C1350.92 1149.25 1341.29 1156 1341.29 1167.25C1341.29 1173.01 1344.35 1178.14 1349.12 1180.39C1352.09 1181.74 1356.95 1183 1362.71 1184.08L1374.14 1185.97C1381.79 1187.32 1385.03 1189.75 1385.03 1194.16C1385.03 1200.55 1378.55 1204.51 1368.29 1204.51C1361.27 1204.51 1356.05 1202.98 1352.72 1199.83C1350.2 1197.58 1349.3 1195.06 1349.21 1190.56H1339.58C1339.85 1197.31 1340.93 1200.73 1343.9 1204.33C1348.31 1209.64 1356.41 1212.34 1367.93 1212.34C1375.49 1212.34 1380.8 1211.17 1385.57 1208.38C1391.24 1205.14 1394.66 1199.47 1394.66 1193.26C1394.66 1188.49 1392.59 1184.26 1389.08 1181.74C1386.11 1179.58 1382.6 1178.41 1376.12 1177.24L1363.79 1175.08C1358.21 1174.09 1356.41 1173.55 1354.34 1172.38C1351.91 1171.12 1350.56 1168.96 1350.56 1166.53C1350.56 1160.86 1356.95 1157.08 1366.67 1157.08C1372.25 1157.08 1376.48 1158.25 1379.54 1160.68C1381.97 1162.57 1382.96 1164.55 1383.23 1168.24H1392.59ZM1432.09 1210.81V1159.15H1455.22V1150.78H1399.87V1159.15H1422.82V1210.81H1432.09ZM1513.96 1210.81V1202.44H1473.28V1184.35H1510.81V1175.98H1473.28V1159.15H1513.15V1150.78H1464.01V1210.81H1513.96ZM1600.41 1210.81V1150.78H1587.54L1563.15 1201.54L1539.12 1150.78H1525.8V1210.81H1535.07V1161.49L1558.65 1210.81H1566.93L1591.14 1161.49V1210.81H1600.41Z" fill="black"/>
<path d="M986.789 2197.19L961.635 2122.85H893.409L866.877 2197.19H892.72V2203.73H840V2197.19H856.195L944.062 1960.73H972.317L1059.15 2197.19H1075V2203.73H962.324V2197.19H986.789ZM928.9 2025.1L896.51 2115.28H958.878L928.9 2025.1Z" fill="#FD3C2D"/>
<path d="M1272.49 2374.58C1270.96 2377.91 1270.06 2379.35 1268.62 2380.61C1266.46 2382.5 1262.5 2383.58 1258.09 2383.58C1247.65 2383.58 1241.62 2377.28 1241.62 2366.3C1241.62 2355.86 1247.29 2350.37 1258.09 2350.37C1266.64 2350.37 1270.6 2352.98 1272.49 2359.91H1298.86C1297.96 2352.8 1296.07 2348.57 1292.38 2344.97C1285.27 2338.31 1274.29 2335.07 1258 2335.07C1243.87 2335.07 1234.33 2337.5 1226.77 2343.08C1220.02 2348.03 1216.33 2356.31 1216.33 2366.66C1216.33 2377.1 1219.93 2385.38 1227.04 2390.96C1234.15 2396.63 1242.79 2398.88 1257.46 2398.88C1272.4 2398.88 1280.86 2397.08 1288.42 2392.31C1295.17 2388.08 1297.96 2383.31 1298.86 2374.58H1272.49ZM1345.61 2335.07C1330.94 2335.07 1321.31 2337.59 1314.02 2343.53C1307.99 2348.39 1304.75 2356.4 1304.75 2366.48C1304.75 2377.82 1307.72 2385.38 1314.02 2390.51C1321.4 2396.45 1330.85 2398.97 1345.88 2398.97C1373.51 2398.97 1386.47 2388.71 1386.47 2367.02C1386.47 2356.31 1383.41 2348.48 1377.2 2343.53C1369.82 2337.59 1360.46 2335.07 1345.61 2335.07ZM1345.61 2350.37C1355.87 2350.37 1361.18 2356.04 1361.18 2367.02C1361.18 2377.91 1355.87 2383.67 1345.7 2383.67C1335.26 2383.67 1330.04 2378 1330.04 2366.75C1330.04 2356.13 1335.53 2350.37 1345.61 2350.37ZM1395.77 2396.99H1418.72V2352.89H1419.08C1419.62 2357.48 1420.16 2359.73 1421.78 2365.13L1433.48 2396.99H1452.38L1463.9 2365.13C1465.25 2360.9 1465.97 2357.84 1466.51 2352.89H1466.87V2396.99H1489.82V2336.96H1452.38L1446.44 2353.97C1444.55 2360 1443.92 2363.33 1443.47 2368.73H1442.66C1442.48 2364.32 1441.49 2359.1 1439.69 2353.97L1433.48 2336.96H1395.77V2396.99ZM1501.59 2396.99H1524.54V2376.83H1546.59C1557.84 2376.83 1561.53 2376.2 1565.67 2373.77C1570.89 2370.71 1573.68 2364.86 1573.68 2356.94C1573.68 2349.92 1571.34 2344.34 1567.02 2341.1C1562.7 2337.95 1557.93 2336.96 1546.41 2336.96H1501.59V2396.99ZM1524.54 2362.34V2350.37H1539.03C1546.77 2350.37 1549.11 2351.72 1549.11 2356.13C1549.11 2358.56 1548.12 2360.45 1546.5 2361.44C1545.33 2362.16 1543.62 2362.34 1538.94 2362.34H1524.54ZM1581.49 2396.99H1647.37V2381.69H1604.44V2336.96H1581.49V2396.99ZM1654.79 2396.99H1725.53V2381.69H1677.74V2374.22H1715V2358.92H1677.74V2352.26H1722.74V2336.96H1654.79V2396.99ZM1752.41 2396.99H1775.36V2352.26H1798.49V2336.96H1729.55V2352.26H1752.41V2396.99ZM1805.26 2396.99H1876V2381.69H1828.21V2374.22H1865.47V2358.92H1828.21V2352.26H1873.21V2336.96H1805.26V2396.99ZM1212.37 2481.99H1236.4L1238.65 2476.5H1263.13L1265.65 2481.99H1290.76L1266.73 2421.96H1236.4L1212.37 2481.99ZM1242.79 2461.2L1250.89 2439.15L1258.63 2461.2H1242.79ZM1292.34 2463.99C1293.15 2471.46 1295.76 2475.33 1302.24 2478.84C1308.27 2482.17 1317.99 2483.88 1330.86 2483.88C1357.77 2483.88 1370.64 2477.04 1370.64 2462.73C1370.64 2455.26 1366.86 2449.86 1359.57 2447.07C1354.44 2445.18 1351.38 2444.55 1340.76 2443.47C1322.22 2441.58 1320.24 2441.04 1320.24 2438.07C1320.24 2435.64 1323.21 2434.11 1327.98 2434.11C1333.92 2434.11 1337.34 2435.82 1338.78 2439.6H1368.75C1366.86 2432.58 1364.61 2429.16 1359.66 2426.01C1353.54 2422.05 1344.09 2420.07 1331.31 2420.07C1306.11 2420.07 1292.88 2427.18 1292.88 2440.77C1292.88 2448.15 1296.93 2453.46 1304.4 2455.8C1309.17 2457.42 1316.55 2458.86 1323.3 2459.49C1337.25 2460.84 1338.42 2461.02 1340.31 2461.56C1342.2 2462.1 1343.1 2463 1343.1 2464.71C1343.1 2467.23 1340.31 2468.58 1334.91 2468.58C1329.24 2468.58 1326.27 2467.32 1324.2 2463.99H1292.34ZM1376.45 2463.99C1377.26 2471.46 1379.87 2475.33 1386.35 2478.84C1392.38 2482.17 1402.1 2483.88 1414.97 2483.88C1441.88 2483.88 1454.75 2477.04 1454.75 2462.73C1454.75 2455.26 1450.97 2449.86 1443.68 2447.07C1438.55 2445.18 1435.49 2444.55 1424.87 2443.47C1406.33 2441.58 1404.35 2441.04 1404.35 2438.07C1404.35 2435.64 1407.32 2434.11 1412.09 2434.11C1418.03 2434.11 1421.45 2435.82 1422.89 2439.6H1452.86C1450.97 2432.58 1448.72 2429.16 1443.77 2426.01C1437.65 2422.05 1428.2 2420.07 1415.42 2420.07C1390.22 2420.07 1376.99 2427.18 1376.99 2440.77C1376.99 2448.15 1381.04 2453.46 1388.51 2455.8C1393.28 2457.42 1400.66 2458.86 1407.41 2459.49C1421.36 2460.84 1422.53 2461.02 1424.42 2461.56C1426.31 2462.1 1427.21 2463 1427.21 2464.71C1427.21 2467.23 1424.42 2468.58 1419.02 2468.58C1413.35 2468.58 1410.38 2467.32 1408.31 2463.99H1376.45ZM1463.27 2481.99H1534.01V2466.69H1486.22V2459.22H1523.48V2443.92H1486.22V2437.26H1531.22V2421.96H1463.27V2481.99ZM1560.9 2481.99H1583.85V2437.26H1606.98V2421.96H1538.04V2437.26H1560.9V2481.99ZM1611.56 2463.99C1612.37 2471.46 1614.98 2475.33 1621.46 2478.84C1627.49 2482.17 1637.21 2483.88 1650.08 2483.88C1676.99 2483.88 1689.86 2477.04 1689.86 2462.73C1689.86 2455.26 1686.08 2449.86 1678.79 2447.07C1673.66 2445.18 1670.6 2444.55 1659.98 2443.47C1641.44 2441.58 1639.46 2441.04 1639.46 2438.07C1639.46 2435.64 1642.43 2434.11 1647.2 2434.11C1653.14 2434.11 1656.56 2435.82 1658 2439.6H1687.97C1686.08 2432.58 1683.83 2429.16 1678.88 2426.01C1672.76 2422.05 1663.31 2420.07 1650.53 2420.07C1625.33 2420.07 1612.1 2427.18 1612.1 2440.77C1612.1 2448.15 1616.15 2453.46 1623.62 2455.8C1628.39 2457.42 1635.77 2458.86 1642.52 2459.49C1656.47 2460.84 1657.64 2461.02 1659.53 2461.56C1661.42 2462.1 1662.32 2463 1662.32 2464.71C1662.32 2467.23 1659.53 2468.58 1654.13 2468.58C1648.46 2468.58 1645.49 2467.32 1643.42 2463.99H1611.56ZM1267.18 2566.99V2558.62H1229.65V2506.96H1220.38V2566.99H1267.18ZM1285.99 2566.99V2506.96H1276.72V2566.99H1285.99ZM1300.71 2566.99H1331.04C1339.41 2566.99 1342.83 2566.54 1346.7 2564.74C1352.37 2562.31 1355.88 2556.28 1355.88 2549.35C1355.88 2542.51 1352.64 2537.74 1345.89 2534.95C1350.93 2532.16 1353.36 2528.29 1353.36 2522.62C1353.36 2516.5 1350.57 2511.37 1345.98 2509.21C1342.29 2507.5 1338.87 2506.96 1330.59 2506.96H1300.71V2566.99ZM1309.98 2531.89V2514.79H1332.84C1340.85 2514.79 1344.54 2517.49 1344.54 2523.34C1344.54 2529.19 1340.85 2531.89 1332.84 2531.89H1309.98ZM1309.98 2559.16V2539.72H1334.19C1338.78 2539.72 1341.12 2540.26 1343.19 2541.79C1345.35 2543.41 1346.61 2546.11 1346.61 2549.44C1346.61 2552.77 1345.35 2555.47 1343.19 2557.09C1341.12 2558.62 1338.78 2559.16 1334.19 2559.16H1309.98ZM1377.48 2541.7H1399.71C1408.08 2541.88 1410.78 2544.94 1411.41 2555.02C1411.95 2562.58 1411.95 2563.3 1412.94 2566.99H1424.37V2565.01C1421.76 2565.19 1421.13 2563.93 1420.77 2557.18C1420.23 2543.5 1419.15 2540.89 1412.94 2537.83C1419.06 2534.14 1421.4 2530.36 1421.4 2523.79C1421.4 2512.63 1414.56 2506.96 1401.33 2506.96H1368.21V2566.99H1377.48V2541.7ZM1377.48 2533.87V2514.79H1400.52C1404.21 2514.79 1406.46 2515.24 1408.26 2516.23C1410.69 2517.67 1412.13 2520.64 1412.13 2524.33C1412.13 2528.02 1410.69 2530.99 1408.26 2532.43C1406.46 2533.42 1404.21 2533.87 1400.52 2533.87H1377.48ZM1478.94 2549.71L1486.77 2566.99H1497.93L1469.85 2506.96H1459.41L1431.51 2566.99H1442.04L1449.87 2549.71H1478.94ZM1475.43 2541.88H1453.29L1464.27 2517.31L1475.43 2541.88ZM1515.12 2541.7H1537.35C1545.72 2541.88 1548.42 2544.94 1549.05 2555.02C1549.59 2562.58 1549.59 2563.3 1550.58 2566.99H1562.01V2565.01C1559.4 2565.19 1558.77 2563.93 1558.41 2557.18C1557.87 2543.5 1556.79 2540.89 1550.58 2537.83C1556.7 2534.14 1559.04 2530.36 1559.04 2523.79C1559.04 2512.63 1552.2 2506.96 1538.97 2506.96H1505.85V2566.99H1515.12V2541.7ZM1515.12 2533.87V2514.79H1538.16C1541.85 2514.79 1544.1 2515.24 1545.9 2516.23C1548.33 2517.67 1549.77 2520.64 1549.77 2524.33C1549.77 2528.02 1548.33 2530.99 1545.9 2532.43C1544.1 2533.42 1541.85 2533.87 1538.16 2533.87H1515.12ZM1599.5 2566.99V2542.06L1625.96 2506.96H1614.62L1595.09 2534.14L1575.74 2506.96H1563.77L1590.23 2542.06V2566.99H1599.5Z" fill="black"/>
<path d="M1707.52 665.222C1661.82 609.804 1647.33 517.766 1646.54 412.283H1563.99C1563.19 517.766 1548.71 609.804 1503 665.222H1707.52Z" fill="white"/>
<path d="M1672.98 362.988H1537.55V393.925H1672.98V362.988Z" fill="white"/>
<path d="M1652.61 256.988V305.379H1626.73V256.988H1583.8V305.379H1557.91V256.988H1514.98V286.352V350.358H1695.55V286.352V256.988H1652.61Z" fill="white"/>
<path d="M1807.8 323.988V436.207H1695.6V548.425H1583.4V660.644H1471.19V772.876H1920V323.988H1807.8Z" fill="#3821C3"/>
<path d="M1403.46 591.021C1403.46 558.333 1413.8 528.081 1431.36 503.295H1314.41C1331.97 528.081 1342.31 558.333 1342.31 591.021C1342.31 643.712 1315.5 690.136 1274.78 717.421H1470.99C1430.28 690.149 1403.46 643.724 1403.46 591.021Z" fill="black"/>
<path d="M1372.89 482.227C1399.62 482.227 1421.29 460.556 1421.29 433.823C1421.29 407.09 1399.62 385.419 1372.89 385.419C1346.16 385.419 1324.5 407.09 1324.5 433.823C1324.5 460.556 1346.16 482.227 1372.89 482.227Z" fill="#FD3C2D"/>
<path d="M1471 717.421H1274.8V772.281H1471V717.421Z" fill="#FD3C2D"/>
<rect x="-1" y="1" width="792" height="772" fill="#3821C3"/>
<path d="M50.176 138.188C51.472 150.14 55.648 156.332 66.016 161.948C75.664 167.276 91.216 170.012 111.808 170.012C154.864 170.012 175.456 159.068 175.456 136.172C175.456 124.22 169.408 115.58 157.744 111.116C149.536 108.092 144.64 107.084 127.648 105.356C97.984 102.332 94.816 101.468 94.816 96.7158C94.816 92.8278 99.568 90.3798 107.2 90.3798C116.704 90.3798 122.176 93.1158 124.48 99.1638H172.432C169.408 87.9318 165.808 82.4598 157.888 77.4198C148.096 71.0838 132.976 67.9158 112.528 67.9158C72.208 67.9158 51.04 79.2918 51.04 101.036C51.04 112.844 57.52 121.34 69.472 125.084C77.104 127.676 88.912 129.98 99.712 130.988C122.032 133.148 123.904 133.436 126.928 134.3C129.952 135.164 131.392 136.604 131.392 139.34C131.392 143.372 126.928 145.532 118.288 145.532C109.216 145.532 104.464 143.516 101.152 138.188H50.176ZM250.438 67.9158C226.966 67.9158 211.558 71.9478 199.894 81.4518C190.246 89.2278 185.062 102.044 185.062 118.172C185.062 136.316 189.814 148.412 199.894 156.62C211.702 166.124 226.822 170.156 250.87 170.156C295.078 170.156 315.814 153.74 315.814 119.036C315.814 101.9 310.918 89.3718 300.982 81.4518C289.174 71.9478 274.198 67.9158 250.438 67.9158ZM250.438 92.3958C266.854 92.3958 275.35 101.468 275.35 119.036C275.35 136.46 266.854 145.676 250.582 145.676C233.878 145.676 225.526 136.604 225.526 118.604C225.526 101.612 234.31 92.3958 250.438 92.3958ZM78.544 303.988H119.584L129.376 273.604C132.544 262.516 133.984 255.604 134.416 248.26H135.712C136.288 257.044 138.304 266.548 140.752 273.604L150.976 303.988H193.024L225.28 207.94H186.4L175.168 242.068C172.576 249.556 170.992 259.492 170.992 267.844H169.84C169.264 258.052 167.968 251.716 164.944 242.068L153.136 207.94H117.424L105.76 242.068C102.88 250.42 101.584 258.196 101.584 267.844H100.432C99.856 256.036 98.992 250.708 96.112 242.068L83.872 207.94H44.992L78.544 303.988ZM234.798 303.988H271.518V266.26H314.43V303.988H351.15V207.94H314.43V241.78H271.518V207.94H234.798V303.988ZM360.554 303.988H399.003L402.603 295.204H441.771L445.803 303.988H485.979L447.531 207.94H399.003L360.554 303.988ZM409.227 270.724L422.187 235.444L434.571 270.724H409.227ZM514.188 303.988H550.908V232.42H587.916V207.94H477.612V232.42H514.188V303.988ZM55.36 440.988H119.584C147.52 440.988 156.592 438.684 166.096 429.612C174.016 421.836 178.048 409.884 178.048 394.188C178.048 377.628 173.44 364.956 164.224 356.604C154.576 347.676 143.776 344.94 119.008 344.94H55.36V440.988ZM92.08 416.508V369.42H109.36C123.472 369.42 126.64 369.996 130.816 373.02C136 376.62 138.736 383.82 138.736 393.18C138.736 402.828 135.856 409.884 130.672 413.196C126.64 415.788 121.888 416.508 109.792 416.508H92.08ZM254.235 341.916C230.763 341.916 215.355 345.948 203.691 355.452C194.043 363.228 188.859 376.044 188.859 392.172C188.859 410.316 193.611 422.412 203.691 430.62C215.499 440.124 230.619 444.156 254.667 444.156C298.875 444.156 319.611 427.74 319.611 393.036C319.611 375.9 314.715 363.372 304.779 355.452C292.971 345.948 277.995 341.916 254.235 341.916ZM254.235 366.396C270.651 366.396 279.147 375.468 279.147 393.036C279.147 410.46 270.651 419.676 254.379 419.676C237.675 419.676 229.323 410.604 229.323 392.604C229.323 375.612 238.107 366.396 254.235 366.396ZM88.48 577.988H125.344V553.796L170.56 481.94H128.224L107.632 517.508L87.184 481.94H44.128L88.48 553.796V577.988ZM233.845 478.916C210.373 478.916 194.965 482.948 183.301 492.452C173.653 500.228 168.469 513.044 168.469 529.172C168.469 547.316 173.221 559.412 183.301 567.62C195.109 577.124 210.229 581.156 234.277 581.156C278.485 581.156 299.221 564.74 299.221 530.036C299.221 512.9 294.325 500.372 284.389 492.452C272.581 482.948 257.605 478.916 233.845 478.916ZM233.845 503.396C250.261 503.396 258.757 512.468 258.757 530.036C258.757 547.46 250.261 556.676 233.989 556.676C217.285 556.676 208.933 547.604 208.933 529.604C208.933 512.612 217.717 503.396 233.845 503.396ZM313.246 481.94V537.524C313.246 552.356 315.982 561.14 322.75 567.908C331.534 576.836 347.086 581.012 370.99 581.012C393.31 581.012 408.574 577.268 417.502 569.348C425.422 562.58 428.59 553.364 428.59 537.524V481.94H391.87V531.188C391.87 549.332 385.966 556.532 370.99 556.532C355.87 556.532 349.966 549.332 349.966 531.188V481.94H313.246ZM181.792 661.564H126.784V682.444H143.056C140.32 690.076 133.408 693.676 121.024 693.676C102.16 693.676 91.792 683.884 91.792 666.316C91.792 650.044 101.296 640.396 117.136 640.396C128.08 640.396 134.992 644.428 138.16 652.924H181.792C180.064 641.98 175.744 635.212 166.096 628.3C155.152 620.38 137.44 615.916 116.704 615.916C96.976 615.916 80.704 620.092 69.472 628.156C57.952 636.364 51.328 650.764 51.328 667.324C51.328 699.868 74.08 718.012 114.832 718.012C127.072 718.012 137.584 716.428 146.512 713.404C152.416 711.388 156.16 709.084 161.056 704.332L165.952 714.7H181.792V661.564ZM198.657 714.988H311.841V690.508H235.377V678.556H294.993V654.076H235.377V643.42H307.377V618.94H198.657V714.988ZM354.86 714.988H391.58V643.42H428.588V618.94H318.284V643.42H354.86V714.988ZM471.087 714.988H503.919V684.604H471.087V714.988ZM503.919 678.412C505.791 674.524 507.087 673.516 512.271 671.932C523.647 668.764 526.959 667.612 531.855 665.164C538.623 661.564 542.655 654.508 542.655 646.3C542.655 627.148 522.639 615.916 487.935 615.916C468.495 615.916 452.799 619.804 443.871 626.86C436.527 632.62 433.503 639.1 432.927 650.044H471.087C472.095 639.82 477.135 635.788 488.943 635.788C497.871 635.788 503.055 638.812 503.055 643.996C503.055 648.604 500.463 651.052 490.959 654.94C476.271 660.7 472.239 665.308 471.087 678.412H503.919Z" fill="white"/>
<rect x="1029.82" y="1914.19" width="104.612" height="9" fill="white"/>
<rect x="1029.82" y="1936.17" width="104.612" height="9" fill="white"/>
<rect x="1029.82" y="1958.15" width="104.612" height="8" fill="white"/>
<rect x="1029.82" y="1979.14" width="104.612" height="8" fill="white"/>
<rect x="77.6421" y="2431.28" width="501" height="319" fill="#FDC800"/>
<rect x="119.642" y="2472.28" width="501" height="320" fill="white"/>
<mask id="mask0" mask-type="alpha" maskUnits="userSpaceOnUse" x="120" y="2472" width="501" height="320">
<rect x="121.5" y="2473.5" width="498" height="317" fill="#8159FB" stroke="#3821C3" stroke-width="3"/>
</mask>
<g mask="url(#mask0)">
<path d="M71.698 2545.22C108.346 2565.1 274.336 2574.59 367.537 2475.9C415.788 2424.82 449.595 2372.93 447.608 2315.76C447.465 2312.27 447.039 2308.65 444.343 2306C434.625 2296.57 411.957 2307.9 400.175 2318.44C356.526 2357.52 321.584 2418.75 308.777 2465.53C281.887 2563.69 306.031 2616.9 398.267 2592.99C470.109 2574.4 548.856 2440.91 569.517 2440.21C610.072 2438.82 577.04 2528.23 553.226 2561C529.412 2593.78 500.902 2625.94 489.527 2660.79C487.151 2668.07 487.508 2677.68 497.253 2678.87" stroke="#3821C3" stroke-width="10" stroke-miterlimit="10"/>
<path d="M289.642 2813.15C252.585 2781.44 248.154 2769.41 201.783 2740.69C153.598 2710.85 92.5749 2729.5 80.6421 2734.47" stroke="#3821C3" stroke-width="10" stroke-miterlimit="10"/>
</g>
<rect x="161.642" y="2514.28" width="501" height="319" fill="black"/>
<path d="M226.322 2632.28H267.434C275.858 2632.28 279.818 2631.63 283.058 2629.62C286.514 2627.53 288.674 2622.92 288.674 2617.81C288.674 2614.78 287.954 2612.19 286.442 2609.96C285.146 2608.09 283.922 2607.22 280.61 2605.71C284.354 2603.26 285.722 2600.89 285.722 2596.71C285.722 2591.82 283.13 2587.64 279.026 2585.98C275.786 2584.69 272.042 2584.26 264.266 2584.26H226.322V2632.28ZM244.682 2620.62V2613.85H260.09C265.85 2613.92 266.138 2613.92 267.074 2614.28C268.37 2614.78 269.018 2615.79 269.018 2617.16C269.018 2618.38 268.442 2619.46 267.506 2619.97C266.498 2620.54 266.426 2620.54 260.09 2620.62H244.682ZM244.682 2602.11V2595.85H258.074C264.626 2595.85 266.138 2596.42 266.138 2598.94C266.138 2600.46 265.274 2601.54 263.834 2601.82C262.682 2602.04 261.818 2602.11 258.002 2602.11H244.682ZM296.002 2632.28H314.362V2615.07H324.802C332.578 2615.07 333.298 2615.94 333.658 2625.94C333.874 2629.76 333.946 2630.34 334.234 2632.28H353.458C352.378 2630.48 352.306 2629.9 352.162 2626.23C351.73 2613.92 350.938 2612.48 343.738 2610.39C347.266 2609.6 348.922 2608.88 350.434 2607.22C352.162 2605.28 353.17 2601.97 353.17 2598.08C353.17 2593.33 351.586 2589.51 348.634 2587.21C345.682 2584.83 342.514 2584.26 331.57 2584.26H296.002V2632.28ZM314.362 2604.92V2595.49H326.674C331.93 2595.49 333.586 2596.64 333.586 2600.1C333.586 2601.9 332.866 2603.34 331.714 2604.13C330.85 2604.7 329.554 2604.92 326.53 2604.92H314.362ZM356.771 2632.28H375.995L377.795 2627.89H397.379L399.395 2632.28H419.483L400.259 2584.26H375.995L356.771 2632.28ZM381.107 2615.65L387.587 2598.01L393.779 2615.65H381.107ZM423.689 2632.28H442.049V2615.07C442.049 2609.6 441.545 2606.58 439.889 2601.82H440.465C442.769 2607.3 444.281 2609.89 447.161 2613.49L463.001 2632.28H483.161V2584.26H464.801V2599.59C464.801 2605.06 465.665 2610.25 467.249 2614.35H466.673C463.433 2607.66 463.073 2607.08 459.473 2602.47L444.425 2584.26H423.689V2632.28ZM492.596 2632.28H524.708C538.676 2632.28 543.212 2631.13 547.964 2626.59C551.924 2622.7 553.94 2616.73 553.94 2608.88C553.94 2600.6 551.636 2594.26 547.028 2590.09C542.204 2585.62 536.804 2584.26 524.42 2584.26H492.596V2632.28ZM510.956 2620.04V2596.5H519.596C526.652 2596.5 528.236 2596.78 530.324 2598.3C532.916 2600.1 534.284 2603.7 534.284 2608.38C534.284 2613.2 532.844 2616.73 530.252 2618.38C528.236 2619.68 525.86 2620.04 519.812 2620.04H510.956ZM289.538 2673.57H262.034V2684.01H270.17C268.802 2687.82 265.346 2689.62 259.154 2689.62C249.722 2689.62 244.538 2684.73 244.538 2675.94C244.538 2667.81 249.29 2662.98 257.21 2662.98C262.682 2662.98 266.138 2665 267.722 2669.25H289.538C288.674 2663.78 286.514 2660.39 281.69 2656.94C276.218 2652.98 267.362 2650.74 256.994 2650.74C247.13 2650.74 238.994 2652.83 233.378 2656.86C227.618 2660.97 224.306 2668.17 224.306 2676.45C224.306 2692.72 235.682 2701.79 256.058 2701.79C262.178 2701.79 267.434 2701 271.898 2699.49C274.85 2698.48 276.722 2697.33 279.17 2694.95L281.618 2700.14H289.538V2673.57ZM297.539 2652.26V2680.05C297.539 2687.46 298.907 2691.86 302.291 2695.24C306.683 2699.7 314.459 2701.79 326.411 2701.79C337.571 2701.79 345.203 2699.92 349.667 2695.96C353.627 2692.58 355.211 2687.97 355.211 2680.05V2652.26H336.851V2676.88C336.851 2685.95 333.899 2689.55 326.411 2689.55C318.851 2689.55 315.899 2685.95 315.899 2676.88V2652.26H297.539ZM364.208 2700.28H382.568V2652.26H364.208V2700.28ZM392.119 2700.28H424.231C438.199 2700.28 442.735 2699.13 447.487 2694.59C451.447 2690.7 453.463 2684.73 453.463 2676.88C453.463 2668.6 451.159 2662.26 446.551 2658.09C441.727 2653.62 436.327 2652.26 423.943 2652.26H392.119V2700.28ZM410.479 2688.04V2664.5H419.119C426.175 2664.5 427.759 2664.78 429.847 2666.3C432.439 2668.1 433.807 2671.7 433.807 2676.38C433.807 2681.2 432.367 2684.73 429.775 2686.38C427.759 2687.68 425.383 2688.04 419.335 2688.04H410.479ZM461.306 2700.28H517.898V2688.04H479.666V2682.06H509.474V2669.82H479.666V2664.5H515.666V2652.26H461.306V2700.28ZM522.087 2689.05H549.879V2674.43H522.087V2689.05ZM226.322 2768.28H279.026V2756.04H244.682V2720.26H226.322V2768.28ZM285.107 2768.28H303.467V2720.26H285.107V2768.28ZM313.017 2768.28H331.377V2751.07C331.377 2745.6 330.873 2742.58 329.217 2737.82H329.793C332.097 2743.3 333.609 2745.89 336.489 2749.49L352.329 2768.28H372.489V2720.26H354.129V2735.59C354.129 2741.06 354.993 2746.25 356.577 2750.35H356.001C352.761 2743.66 352.401 2743.08 348.801 2738.47L333.753 2720.26H313.017V2768.28ZM381.924 2768.28H438.516V2756.04H400.284V2750.06H430.092V2737.82H400.284V2732.5H436.284V2720.26H381.924V2768.28ZM443.316 2753.88C443.964 2759.86 446.052 2762.95 451.236 2765.76C456.06 2768.42 463.836 2769.79 474.132 2769.79C495.66 2769.79 505.956 2764.32 505.956 2752.87C505.956 2746.9 502.932 2742.58 497.1 2740.34C492.996 2738.83 490.548 2738.33 482.052 2737.46C467.22 2735.95 465.636 2735.52 465.636 2733.14C465.636 2731.2 468.012 2729.98 471.828 2729.98C476.58 2729.98 479.316 2731.34 480.468 2734.37H504.444C502.932 2728.75 501.132 2726.02 497.172 2723.5C492.276 2720.33 484.716 2718.74 474.492 2718.74C454.332 2718.74 443.748 2724.43 443.748 2735.3C443.748 2741.21 446.988 2745.46 452.964 2747.33C456.78 2748.62 462.684 2749.78 468.084 2750.28C479.244 2751.36 480.18 2751.5 481.692 2751.94C483.204 2752.37 483.924 2753.09 483.924 2754.46C483.924 2756.47 481.692 2757.55 477.372 2757.55C472.836 2757.55 470.46 2756.54 468.804 2753.88H443.316Z" fill="white"/>
<path d="M845.42 1234.78V1237.31H852.205V1312.75H845.42V1315.28H906.37L908.555 1288.37H906.14C899.355 1302.4 893.03 1312.75 878.77 1312.75H874.63V1237.31H886.82V1234.78H845.42ZM949.806 1292.63C949.806 1307.58 949.461 1314.36 942.906 1314.36C935.891 1314.36 935.661 1305.74 935.661 1292.4V1283.43C935.661 1270.43 936.006 1261.46 943.021 1261.46C949.461 1261.46 949.806 1270.43 949.806 1282.85V1292.63ZM913.581 1288.14C913.581 1306.08 923.356 1316.43 942.676 1316.43C963.146 1316.43 971.886 1305.97 971.886 1287.11C971.886 1268.48 962.686 1259.39 943.366 1259.39C924.851 1259.39 913.581 1269.28 913.581 1288.14ZM1021.22 1254.56C1021.45 1258.47 1024.44 1260.54 1027.89 1260.54C1031.68 1260.54 1035.13 1258.24 1035.13 1252.95C1035.13 1247.43 1031.22 1244.44 1025.82 1244.44C1021.1 1244.44 1014.55 1247.2 1014.55 1256.63C1014.55 1258.36 1014.78 1260.2 1015.24 1262.27C1011.44 1260.2 1008.11 1259.39 1002.47 1259.39C985.107 1259.39 977.632 1267.79 977.632 1278.6C977.632 1288.14 982.002 1293.55 990.972 1296.08C982.002 1301.48 977.862 1304.7 977.862 1311.26C977.862 1316.32 981.542 1321.95 995.227 1321.95H1006.38C1018.46 1321.95 1020.99 1324.14 1020.99 1329.66C1020.99 1336.9 1014.55 1341.85 1002.36 1341.85C990.052 1341.85 987.637 1336.79 987.637 1331.96C987.637 1330.12 987.867 1328.16 988.557 1325.63L981.657 1322.53C977.632 1323.68 972.802 1325.98 972.802 1331.73C972.802 1339.2 981.197 1344.03 1001.21 1344.03C1024.44 1344.03 1033.64 1334.83 1033.64 1322.07C1033.64 1306.43 1020.53 1303.32 1007.53 1303.32H995.802C989.707 1303.32 988.442 1302.75 988.442 1301.71C988.442 1300.68 989.477 1299.41 993.502 1296.88C995.917 1297.34 999.482 1297.8 1002.82 1297.8C1016.85 1297.8 1026.28 1291.25 1026.28 1278.14C1026.28 1270.55 1022.02 1266.52 1017.54 1263.53C1016.96 1260.77 1016.73 1258.47 1016.73 1256.63C1016.73 1249.5 1020.18 1249.04 1021.68 1249.04C1024.09 1249.04 1024.78 1250.77 1024.44 1252.61L1021.22 1254.56ZM996.837 1276.07C996.837 1263.53 999.137 1261.46 1002.36 1261.46C1005.46 1261.46 1007.3 1263.19 1007.3 1276.07V1281.7C1007.3 1293.66 1005.35 1295.5 1002.24 1295.5C998.792 1295.5 996.837 1293.09 996.837 1282.28V1276.07ZM1068.85 1292.63C1068.85 1307.58 1068.5 1314.36 1061.95 1314.36C1054.93 1314.36 1054.7 1305.74 1054.7 1292.4V1283.43C1054.7 1270.43 1055.05 1261.46 1062.06 1261.46C1068.5 1261.46 1068.85 1270.43 1068.85 1282.85V1292.63ZM1032.62 1288.14C1032.62 1306.08 1042.4 1316.43 1061.72 1316.43C1082.19 1316.43 1090.93 1305.97 1090.93 1287.11C1090.93 1268.48 1081.73 1259.39 1062.41 1259.39C1043.89 1259.39 1032.62 1269.28 1032.62 1288.14Z" fill="white"/>
<path d="M1027.18 1099.45L975.73 1195.64H1078.62L1027.18 1099.45Z" fill="white"/>
<path d="M941.16 973.143H847.989V1066.36H941.16V973.143Z" fill="#FFBFE1"/>
<path d="M899.434 1199.02C927.847 1199.02 950.88 1175.97 950.88 1147.55C950.88 1119.12 927.847 1096.08 899.434 1096.08C871.022 1096.08 847.989 1119.12 847.989 1147.55C847.989 1175.97 871.022 1199.02 899.434 1199.02Z" fill="#3821C3"/>
<path d="M1027.18 1071.22C1055.59 1071.22 1078.62 1048.18 1078.62 1019.75C1078.62 991.326 1055.59 968.281 1027.18 968.281C998.763 968.281 975.73 991.326 975.73 1019.75C975.73 1048.18 998.763 1071.22 1027.18 1071.22Z" fill="#FDC800"/>
<path d="M579.571 1033.35H-58.5918V1248.22H579.571V1033.35Z" fill="#3821C3"/>
<mask id="mask1" mask-type="alpha" maskUnits="userSpaceOnUse" x="-17" y="1033" width="639" height="216">
<path d="M621.162 1033.35H-17V1248.22H621.162V1033.35Z" fill="#8159FB"/>
</mask>
<g mask="url(#mask1)">
<path d="M-8.33789 1054.68C-22.319 1093.39 -29.8547 1135.41 -30.3998 1177.59C-30.6403 1196.76 -25.7662 1221.15 -9.95726 1223.94C9.12243 1227.29 29.4848 1207.79 43.7545 1195.11C62.0646 1178.86 79.8937 1162.06 94.0351 1140.4C104.842 1123.85 113.66 1104.42 116.161 1083.35C119.304 1056.82 98.5244 1024.67 83.9341 1060.48C71.6205 1090.7 64.5498 1124.31 63.9726 1157.99C63.2511 1200.07 77.4726 1249.89 118.566 1250.7C153.583 1251.39 186.387 1219.3 210.181 1191.68C233.413 1164.69 249.735 1129.6 263.572 1094.14C276.078 1062.13 286.403 1013.07 315.023 996.434C347.058 977.82 365.56 1019.55 369.248 1050.76C384.383 1178.71 312.073 1258.75 336.78 1273.8C393.105 1308.14 502.95 1105.91 541.35 1018.53C527.369 1077.42 503.465 1191.8 489.483 1250.7C525.623 1238.9 565.031 1154.59 591.855 1124.4C605.499 1109.04 618.631 1093.07 632.355 1077.8C644.845 1063.9 660.686 1042.73 676.8 1035.8C677.473 1060.98 665.656 1092.95 659.211 1116.95C643.995 1173.61 669.713 1236.53 647.234 1289.56C630.271 1329.56 565.929 1360.77 545.294 1398.21C525.701 1433.76 504.778 1474.9 478.932 1504.21C463.396 1408.18 552.269 1333.93 609.155 1289.56C651.836 1256.26 697.162 1234.3 744.268 1212.22C794.901 1188.49 844.012 1158.78 891.037 1126.12" stroke="black" stroke-width="10" stroke-miterlimit="10" stroke-linecap="round" stroke-linejoin="round"/>
</g>
<path d="M580.2 1247.92L765.966 1140.78L580.2 1033.64V1033.35C580.034 1033.35 579.902 1033.38 579.736 1033.38L579.57 1033.28V1033.38C565.056 1033.74 553.392 1045.59 553.392 1060.19C553.392 1074.78 565.056 1086.6 579.57 1087V1087.06C565.056 1087.43 553.392 1099.28 553.392 1113.87C553.392 1128.47 565.056 1140.28 579.57 1140.68V1140.75C565.056 1141.11 553.392 1152.96 553.392 1167.56C553.392 1182.15 565.056 1193.97 579.57 1194.37V1194.43C565.056 1194.8 553.392 1206.64 553.392 1221.24C553.392 1235.84 565.056 1247.65 579.57 1248.05V1248.28L579.935 1248.08C580.034 1248.08 580.134 1248.08 580.2 1248.08V1247.92Z" fill="#FDC800"/>
<path d="M708.076 1107.39L650.153 1140.78L708.076 1174.18L766 1140.78L708.076 1107.39Z" fill="#3821C3"/>
<path d="M1408.92 1573.91C1408.92 1650.18 1470.96 1712.01 1547.5 1712.01C1624.04 1712.01 1686.08 1650.18 1686.08 1573.91L1408.92 1573.91Z" fill="#3821C3"/>
<rect x="1394.73" y="1753.64" width="305.541" height="138.108" fill="#FD3C2D"/>
<path d="M1408.92 1391.34C1408.92 1469.18 1470.96 1532.29 1547.5 1532.29C1624.04 1532.29 1686.08 1469.18 1686.08 1391.34L1408.92 1391.34Z" fill="#8159FB"/>
<ellipse cx="1547.5" cy="1391.81" rx="46.8243" ry="46.8243" transform="rotate(-90 1547.5 1391.81)" fill="#FDC800"/>
<ellipse cx="1547.5" cy="2041.68" rx="108.311" ry="108.311" transform="rotate(-90 1547.5 2041.68)" fill="#FDC800"/>
<rect x="846" y="2823.96" width="236.12" height="12.5184" fill="white"/>
<rect x="846" y="2854.54" width="236.12" height="12.5184" fill="white"/>
<rect x="846" y="2885.12" width="236.12" height="11.1274" fill="white"/>
<rect x="846" y="2914.3" width="236.12" height="11.1274" fill="white"/>
<path d="M846 2553.99L1082 2789.99H846" fill="#FD3C2D"/>
<mask id="mask2" mask-type="alpha" maskUnits="userSpaceOnUse" x="846" y="2553" width="237" height="237">
<path d="M846 2553.72L1082.12 2789.84H846" fill="#FD3C2D"/>
</mask>
<g mask="url(#mask2)">
<path d="M921.74 2592.78C897.2 2607.16 873.529 2625.83 852.496 2647.38C842.938 2657.18 832.79 2671.72 837.551 2679.5C843.306 2688.87 860.84 2686.97 872.643 2686.14C878.486 2685.74 884.342 2685.26 890.261 2684.51M890.261 2684.51C899.671 2683.32 909.242 2681.44 919.176 2678.05C931.544 2673.84 944.557 2667.35 955.934 2657.47C970.25 2645.04 978.051 2620.12 954.71 2632.75C935.009 2643.42 915.671 2657.93 898.816 2675.09C895.897 2678.06 893.017 2681.22 890.261 2684.51ZM890.261 2684.51C873.14 2704.95 860.848 2730.27 874.249 2744.82C887.504 2759.21 916.084 2755.79 938.96 2751.07C961.305 2746.45 984.967 2734.88 1007.84 2722.13C1028.5 2710.62 1056.74 2689.43 1076.06 2692.31C1097.69 2695.55 1084.27 2724.5 1070.3 2742.08C1013.01 2814.19 945.417 2826.52 947.58 2844.2" stroke="#3821C3" stroke-width="10" stroke-miterlimit="10" stroke-linecap="round" stroke-linejoin="round"/>
</g>
<path d="M935 2532.99L935 2711.99L1134 2711.99C1134 2633.01 1087.25 2675.8 1071.41 2663.77C1055.56 2651.75 1070.87 2624.93 1049.66 2607.66C1032.08 2593.36 1008.97 2614.64 997.036 2599.26C978.741 2575.67 996.13 2532.99 935 2532.99Z" fill="#3821C3"/>
<mask id="mask3" mask-type="alpha" maskUnits="userSpaceOnUse" x="1471" y="324" width="449" height="450">
<path d="M1807.61 324.281V436.5H1695.41V548.718H1583.21V660.937H1471V773.169H1919.81V324.281H1807.61Z" fill="#3821C3"/>
</mask>
<g mask="url(#mask3)">
<path d="M1921 386.281C1890.15 421.657 1796.09 560.928 1754 421.528" stroke="white" stroke-width="10" stroke-miterlimit="10" stroke-linecap="round" stroke-linejoin="round"/>
<path d="M1720 432C1691.52 493.776 1596.58 671.298 1489 787" stroke="white" stroke-width="10" stroke-miterlimit="10" stroke-linecap="round" stroke-linejoin="round"/>
<path d="M1622 791.281C1667.9 700.982 1764.5 579.039 1764.5 579.039C1729.1 674.569 1735.61 689.834 1764.5 694.679C1810.44 702.354 1957.65 553.699 1930.74 518.84C1903.83 483.981 1780.31 618.615 1794.58 767.527" stroke="white" stroke-width="10" stroke-miterlimit="10" stroke-linecap="round" stroke-linejoin="round"/>
<path d="M1970.22 626.281C1978.34 657.427 1921.42 746.452 1863 784.281" stroke="white" stroke-width="10" stroke-miterlimit="10" stroke-linecap="round" stroke-linejoin="round"/>
</g>
<rect x="778" y="1509" width="381" height="364" fill="#3821C3"/>
<path d="M756.582 1510V1873.57H1159C1159 1713.16 1064.47 1800.07 1032.43 1775.64C1000.39 1751.21 1031.34 1696.74 988.441 1661.66C952.903 1632.62 906.165 1675.85 882.032 1644.61C845.035 1596.68 880.199 1510 756.582 1510Z" fill="#FDC800"/>
<path d="M857.009 1636.05C862.575 1634.68 867.802 1632.14 872.655 1628.42C873.674 1630.66 874.726 1632.85 875.914 1635.01C870.517 1639.03 864.68 1641.79 858.469 1643.31C854.498 1644.28 850.425 1644.77 846.353 1644.77C815.671 1644.77 782.683 1618.93 756.617 1594.5V1584.64C784.957 1611.67 824.699 1644.02 857.009 1636.05Z" fill="black" stroke="black" stroke-width="2"/>
<path d="M1064.31 1778.73C1081.65 1809.59 1101.2 1842.14 1122.31 1873.37H1113.89C1093.16 1842.32 1073.91 1810.19 1056.88 1779.73C1059.29 1779.47 1061.76 1779.14 1064.31 1778.73Z" fill="black" stroke="black" stroke-width="2"/>
<path d="M876.354 1807.21C842.585 1785.58 799.108 1737.14 780.781 1703.59C769.615 1683.12 767.104 1668.3 773.281 1659.51C775.996 1655.64 782.444 1650.02 795.205 1655.56C823.171 1667.7 867.055 1727.68 882.497 1802.89C892.407 1808.85 900.994 1811.9 907.069 1810.82C914.909 1809.37 919.016 1807.1 921.222 1802.93C926.788 1792.43 921.9 1767.08 904.456 1715.4C903.879 1713.68 904.524 1711.75 905.983 1710.85C907.442 1709.96 909.275 1710.33 910.293 1711.79C910.972 1712.75 973.318 1799.32 1011.98 1873.45H1004.14C976.577 1821.4 937.988 1763.87 918.031 1735.06C930.555 1775.34 932.931 1795.56 927.059 1806.69C922.919 1814.55 915.18 1816.93 908.155 1818.2C901.808 1819.35 893.527 1816.93 884.16 1811.94C887.554 1831.71 888.878 1852.41 887.452 1873.45H880.63C882.327 1850.55 880.529 1828.25 876.354 1807.21ZM792.762 1662.49C789.979 1661.3 787.535 1660.66 785.431 1660.66C782.546 1660.66 780.306 1661.78 778.711 1664.05C774.502 1670.01 777.353 1682.71 786.653 1699.76C804.776 1732.97 843.738 1775.9 874.284 1797.42C857.654 1726.98 815.874 1672.5 792.762 1662.49Z" fill="black" stroke="black" stroke-width="2"/>
<path d="M811.598 1873.37H801.722C784.277 1855.09 768.054 1832.34 756.617 1810.97V1795.82C768.156 1820.95 788.689 1851.15 811.598 1873.37Z" fill="black" stroke="black" stroke-width="2"/>
</g>
<defs>
<clipPath id="clip0">
<rect width="1920" height="3018" fill="white"/>
</clipPath>
</defs>
<script xmlns=""/></svg>