<svg width="32" height="33" viewBox="0 0 32 33" fill="none" xmlns="http://www.w3.org/2000/svg">
<g clip-path="url(#clip0_1505_12)">
<path d="M29.9941 0.585022V5.47742H2.99414V0.585022H29.9941ZM7.51895 31.5151C6.07022 30.7954 4.94894 29.8227 4.16503 28.5875C3.38113 27.3522 2.99414 25.9905 2.99414 24.4829V8.53152H11.4881V22.6543C11.4881 23.627 11.6766 24.5023 12.0537 25.2902C12.4307 26.078 12.9864 26.6908 13.7009 27.1577C14.4153 27.6245 15.2488 27.858 16.2014 27.858C17.2532 27.858 18.186 27.6148 18.9897 27.1285C19.7935 26.6422 20.4087 25.971 20.8552 25.1054C21.3017 24.2397 21.5101 23.2768 21.5101 22.1972V8.53152H22.7604V23.9966C22.7604 25.6403 22.3238 27.1188 21.4506 28.4221C20.5774 29.7255 19.3668 30.7467 17.8188 31.4859C16.2709 32.2251 14.5145 32.585 12.5498 32.585C10.5851 32.585 8.95776 32.2252 7.4991 31.5054L7.51895 31.5151ZM21.5201 32.3905V8.53152H29.9941V32.3905H21.5201Z" fill="#111111"/>
</g>
<defs>
<clipPath id="clip0_1505_12">
<rect width="32" height="32" fill="white" transform="translate(0 0.5)"/>
</clipPath>
</defs>
</svg>
