<svg width="1440" height="900" viewBox="0 0 1440 900" fill="none" xmlns="http://www.w3.org/2000/svg">
<rect width="1440" height="900" fill="#1B1B1B"/>
<path opacity="0.6" d="M1017.67 689.809L823.239 577.55C819.51 575.392 813.465 575.392 809.768 577.55L664.268 662.105C660.571 664.263 660.587 667.754 664.315 669.896L858.749 782.155C862.478 784.313 868.492 784.313 872.205 782.155L1017.7 697.6C1021.42 695.442 1021.4 691.951 1017.67 689.809Z" stroke="url(#paint0_linear_34_6289)" stroke-width="1.28291"/>
<path d="M882.451 714.051C882.451 712.644 881.513 711.238 879.638 710.162L526.24 682.458C524.393 683.534 523.482 684.954 523.482 686.361C523.482 687.533 523.482 691.863 523.482 693.063C523.496 694.469 524.434 695.876 526.296 696.951L623.515 753.077L720.735 809.202C722.597 810.278 725.038 810.816 727.465 810.816C729.892 810.816 732.333 810.278 734.181 809.202L806.937 766.922L879.693 724.642C881.555 723.566 882.479 722.146 882.465 720.739C882.451 719.567 882.465 715.237 882.451 714.051Z" fill="url(#paint1_linear_34_6289)"/>
<path d="M879.651 710.165L782.431 654.04L685.211 597.914C683.35 596.825 680.909 596.287 678.468 596.287C676.027 596.287 673.6 596.825 671.738 597.901L598.996 640.181L526.239 682.461C524.392 683.537 523.481 684.957 523.481 686.364C523.495 687.77 524.419 689.177 526.295 690.253L623.514 746.378L720.734 802.504C722.596 803.579 725.037 804.117 727.464 804.117C729.891 804.117 732.332 803.579 734.18 802.504L806.936 760.223L879.692 717.943C881.554 716.867 882.478 715.447 882.464 714.04C882.45 712.648 881.513 711.241 879.651 710.165Z" fill="url(#paint2_linear_34_6289)"/>
<path d="M1096.75 583.085C1096.75 581.679 1095.82 580.272 1093.94 579.196L740.542 551.492C738.694 552.568 737.784 553.988 737.784 555.395C737.784 556.567 737.784 560.897 737.784 562.097C737.798 563.503 738.736 564.91 740.597 565.986L837.817 622.111L935.037 678.237C936.899 679.312 939.34 679.85 941.767 679.85C944.194 679.85 946.634 679.312 948.482 678.237L1021.24 635.956L1093.99 593.676C1095.86 592.6 1096.78 591.18 1096.77 589.773C1096.75 588.601 1096.77 584.271 1096.75 583.085Z" fill="url(#paint3_linear_34_6289)"/>
<path d="M1093.95 579.201L996.734 523.075L899.514 466.949C897.652 465.86 895.211 465.322 892.771 465.322C890.33 465.322 887.903 465.86 886.041 466.936L813.299 509.216L740.542 551.496C738.694 552.572 737.784 553.992 737.784 555.399C737.798 556.805 738.722 558.212 740.597 559.288L837.817 615.413L935.037 671.539C936.899 672.614 939.34 673.152 941.767 673.152C944.194 673.152 946.634 672.614 948.482 671.539L1021.24 629.258L1093.99 586.978C1095.86 585.902 1096.78 584.482 1096.77 583.076C1096.75 581.683 1095.82 580.276 1093.95 579.201Z" fill="url(#paint4_linear_34_6289)"/>
<path d="M917.264 579.737C917.264 578.33 916.326 576.923 914.451 575.848L561.053 548.144C559.205 549.219 558.295 550.64 558.295 552.046C558.295 553.218 558.295 557.548 558.295 558.748C558.309 560.155 559.246 561.561 561.108 562.637L658.328 618.762L755.548 674.888C757.409 675.964 759.85 676.501 762.277 676.501C764.704 676.501 767.145 675.964 768.993 674.888L841.749 632.608L914.506 590.327C916.367 589.252 917.291 587.831 917.278 586.425C917.264 585.253 917.278 580.923 917.264 579.737Z" fill="url(#paint5_linear_34_6289)"/>
<path d="M914.464 575.852L817.245 519.726L720.025 463.601C718.163 462.511 715.722 461.974 713.281 461.974C710.84 461.974 708.413 462.511 706.552 463.587L633.809 505.867L561.053 548.148C559.205 549.223 558.295 550.644 558.295 552.05C558.309 553.457 559.233 554.863 561.108 555.939L658.328 612.065L755.548 668.19C757.409 669.266 759.85 669.803 762.277 669.803C764.704 669.803 767.145 669.266 768.993 668.19L841.749 625.91L914.506 583.629C916.367 582.554 917.291 581.133 917.278 579.727C917.264 578.334 916.326 576.928 914.464 575.852Z" fill="url(#paint6_linear_34_6289)"/>
<path d="M908.045 615.333C904.913 614.004 901.282 614.275 898.694 615.762C895.534 617.592 895.663 620.352 899.723 622.697C903.784 625.042 908.574 625.127 911.748 623.297C914.436 621.753 914.651 619.608 912.534 617.921L910.661 618.994C911.962 620.109 911.548 621.381 910.004 622.282C907.902 623.498 904.656 623.44 901.553 621.653C898.465 619.88 898.351 617.993 900.467 616.777C902.025 615.877 904.241 615.648 906.186 616.42L908.045 615.333ZM922.729 616.978C925.317 615.491 925.031 613.374 922.086 611.673C919.126 609.957 915.466 609.8 912.878 611.287C910.29 612.774 910.576 614.89 913.535 616.606C916.495 618.307 920.155 618.465 922.729 616.978ZM921.185 616.077C919.498 617.049 917.181 616.62 915.351 615.562C913.521 614.504 912.763 613.16 914.45 612.188C916.123 611.215 918.468 611.659 920.284 612.717C922.114 613.76 922.858 615.104 921.185 616.077ZM928.806 613.246L930.593 612.216L924.774 608.856C923.53 608.141 923.558 607.083 924.817 606.354C925.188 606.14 925.674 605.939 925.86 605.882L924.087 604.853C923.887 604.939 923.515 605.139 923.287 605.267C922.214 605.882 921.928 606.783 922.615 607.569L922.515 607.627L920.999 606.754L919.269 607.755L928.806 613.246ZM938.829 611.587L940.616 610.558L935.569 607.641L935.683 607.584C936.612 607.755 938.328 607.984 940.001 607.012C942.217 605.725 941.989 603.737 938.9 601.95C935.812 600.163 932.366 600.063 930.15 601.335C928.448 602.322 928.92 603.294 929.192 603.823L929.049 603.909L927.505 603.023L925.76 604.023L938.829 611.587ZM932.237 605.768C930.25 604.624 929.764 603.38 931.322 602.479C932.938 601.55 935.168 601.893 937.056 602.994C938.972 604.095 939.586 605.425 937.999 606.34C936.469 607.212 934.239 606.926 932.237 605.768ZM949.681 601.421C952.269 599.934 951.983 597.818 949.038 596.117C946.078 594.401 942.418 594.244 939.83 595.731C937.242 597.218 937.528 599.334 940.487 601.049C943.433 602.751 947.093 602.908 949.681 601.421ZM948.122 600.52C946.435 601.493 944.119 601.064 942.289 600.006C940.459 598.948 939.701 597.604 941.388 596.631C943.061 595.659 945.406 596.102 947.222 597.16C949.066 598.204 949.81 599.548 948.122 600.52ZM955.743 597.689L957.531 596.66L951.711 593.3C950.467 592.585 950.496 591.527 951.754 590.798C952.126 590.583 952.612 590.383 952.798 590.326L951.025 589.296C950.825 589.382 950.453 589.582 950.224 589.711C949.152 590.326 948.866 591.227 949.552 592.013L949.452 592.07L947.937 591.198L946.207 592.199L955.743 597.689ZM964.994 592.599C966.51 591.727 966.567 590.769 966.195 590.169L966.267 590.126L967.568 590.883L969.312 589.883L962.993 586.237C960.219 584.635 957.574 585.536 956.115 586.365C954.457 587.323 953.627 588.61 954.757 589.954L956.83 589.211C956.415 588.667 956.43 587.909 957.631 587.209C958.789 586.537 960.004 586.565 961.077 587.195L961.12 587.223C961.792 587.609 961.12 587.995 959.661 589.053C958.131 590.183 956.83 591.47 958.989 592.728C960.862 593.786 963.25 593.6 964.994 592.599ZM963.893 591.513C962.878 592.099 961.691 592.242 960.762 591.713C959.776 591.141 960.262 590.44 961.148 589.768C961.649 589.382 962.864 588.496 962.85 588.195L964.079 588.91C965.209 589.568 965.38 590.655 963.893 591.513ZM966.438 580.517L964.565 581.604L962.278 580.289L960.49 581.318L962.778 582.633L961.434 583.406L962.921 584.263L964.265 583.491L969.884 586.737C971.614 587.738 973.716 587.495 975.089 586.651C975.646 586.322 975.918 586.036 976.047 585.865L974.188 585.164C974.088 585.25 973.931 585.407 973.645 585.579C973.058 585.908 972.344 586.094 971.271 585.479L966.038 582.448L967.911 581.361L966.438 580.517ZM981.98 582.776C983.982 581.618 984.368 580.217 983.224 579.087L981.223 579.874C981.795 580.574 981.48 581.289 980.465 581.876C978.935 582.762 976.876 582.762 975.003 581.718L981.523 577.958L980.865 577.572C977.419 575.584 974.102 575.956 972.015 577.143C969.455 578.616 969.799 580.76 972.73 582.448C975.675 584.178 979.278 584.335 981.98 582.776ZM973.616 580.918C972.329 580.103 972.1 578.873 973.559 578.044C974.946 577.243 976.919 577.343 978.377 578.172L973.616 580.918ZM937.213 639.626C939.544 638.282 940.244 636.595 937.785 635.179L928.048 629.56L926.304 630.575L927.848 631.462L927.719 631.533C926.818 631.376 925.103 631.118 923.401 632.105C921.185 633.378 921.371 635.379 924.402 637.124C927.447 638.882 930.722 638.854 932.895 637.595C934.582 636.623 934.239 635.68 933.953 635.136L934.067 635.065L935.94 636.151C937.442 637.009 937.099 637.953 935.74 638.739C934.253 639.597 932.895 639.483 932.037 639.354L931.165 640.612C932.809 641.027 935.025 640.898 937.213 639.626ZM931.751 636.495C930.164 637.41 928.062 637.152 926.189 636.08C924.359 635.022 923.744 633.735 925.36 632.806C926.918 631.905 929.077 632.191 931.008 633.306C932.966 634.436 933.295 635.608 931.751 636.495ZM944.033 631.562C946.621 630.075 946.335 627.959 943.39 626.257C940.43 624.541 936.77 624.384 934.182 625.871C931.594 627.358 931.88 629.474 934.84 631.19C937.799 632.891 941.445 633.049 944.033 631.562ZM942.475 630.661C940.788 631.633 938.471 631.204 936.641 630.146C934.811 629.088 934.053 627.744 935.74 626.772C937.413 625.8 939.758 626.243 941.574 627.301C943.418 628.359 944.162 629.689 942.475 630.661ZM948.094 618.007L946.178 619.108L951.197 624.67L951.097 624.727L941.445 621.839L939.529 622.94L952.383 626.514L954.299 625.413L948.094 618.007ZM963.107 620.552C965.109 619.394 965.495 617.993 964.351 616.863L962.349 617.65C962.921 618.35 962.606 619.065 961.591 619.651C960.061 620.538 958.002 620.538 956.129 619.494L962.649 615.734L961.992 615.348C958.546 613.36 955.229 613.732 953.141 614.933C950.582 616.406 950.925 618.55 953.856 620.238C956.816 621.953 960.405 622.111 963.107 620.552ZM954.743 618.693C953.456 617.878 953.227 616.649 954.685 615.819C956.072 615.019 958.045 615.119 959.504 615.948L954.743 618.693ZM968.826 617.02L970.613 615.991L964.794 612.631C963.55 611.916 963.579 610.858 964.837 610.129C965.209 609.914 965.695 609.714 965.881 609.657L964.108 608.627C963.908 608.713 963.536 608.913 963.307 609.042C962.235 609.657 961.949 610.558 962.635 611.344L962.535 611.401L961.019 610.529L959.289 611.53L968.826 617.02ZM971.4 609.014C969.884 608.141 969.913 607.112 971.142 606.397C972.358 605.696 973.916 605.754 975.289 606.554L981.123 609.929L982.91 608.899L976.847 605.396C974.488 604.038 972.015 604.038 970.142 605.124C968.769 605.925 968.526 606.826 969.112 607.655L968.998 607.727L967.454 606.826L965.738 607.812L975.26 613.317L977.048 612.288L971.4 609.014ZM988.2 606.082C989.716 605.21 989.773 604.252 989.401 603.637L989.473 603.594L990.774 604.352L992.518 603.351L986.198 599.705C983.425 598.104 980.779 599.005 979.321 599.834C977.662 600.792 976.833 602.079 977.963 603.423L980.036 602.679C979.621 602.136 979.636 601.378 980.837 600.678C981.995 600.02 983.21 600.034 984.282 600.663L984.325 600.692C984.997 601.078 984.325 601.464 982.867 602.522C981.337 603.652 980.036 604.939 982.195 606.197C984.068 607.283 986.456 607.098 988.2 606.082ZM987.099 605.01C986.084 605.596 984.897 605.739 983.968 605.21C982.981 604.638 983.468 603.938 984.354 603.266C984.854 602.88 986.07 601.993 986.055 601.693L987.285 602.408C988.415 603.051 988.586 604.152 987.099 605.01ZM991.017 597.689C989.501 596.817 989.53 595.788 990.76 595.073C991.975 594.372 993.533 594.429 994.906 595.23L1000.74 598.604L1002.53 597.575L996.465 594.072C994.105 592.714 991.632 592.714 989.759 593.8C988.386 594.601 988.143 595.502 988.729 596.331L988.615 596.403L987.071 595.502L985.355 596.488L994.877 601.993L996.665 600.964L991.017 597.689ZM1008.98 594.072C1011.13 592.828 1011.19 591.227 1009.53 590.054L1007.8 591.055C1008.6 591.784 1008.45 592.571 1007.42 593.171C1005.9 594.043 1003.63 593.843 1001.55 592.656C999.51 591.484 999.224 590.169 1000.71 589.311C1001.84 588.653 1003.28 588.682 1004.37 589.096L1006.1 588.095C1003.99 587.094 1001.2 587.223 999.124 588.438C996.536 589.925 996.893 592.056 999.796 593.743C1002.67 595.359 1006.32 595.602 1008.98 594.072ZM1018.6 588.51C1020.6 587.352 1020.99 585.951 1019.84 584.821L1017.84 585.607C1018.41 586.308 1018.1 587.023 1017.08 587.609C1015.55 588.496 1013.49 588.496 1011.62 587.452L1018.14 583.691L1017.48 583.305C1014.04 581.318 1010.72 581.69 1008.63 582.891C1006.07 584.364 1006.42 586.508 1009.35 588.195C1012.31 589.911 1015.9 590.068 1018.6 588.51ZM1010.23 586.666C1008.95 585.851 1008.72 584.621 1010.18 583.792C1011.56 582.991 1013.54 583.091 1014.99 583.92L1010.23 586.666Z" fill="white"/>
<path d="M700.299 767.76L702.144 766.702L696.61 763.499L701.801 760.497L700.156 759.553L694.966 762.556L691.091 760.325L696.825 757.008L695.181 756.05L687.603 760.425L700.299 767.76ZM709.993 762.155L711.781 761.126L702.258 755.621L700.471 756.65L709.993 762.155ZM699.899 755.292C700.514 754.935 700.528 754.348 699.928 754.005C699.327 753.662 698.312 753.662 697.697 754.02C697.082 754.377 697.068 754.963 697.683 755.306C698.283 755.65 699.284 755.65 699.899 755.292ZM710.308 755.449C708.792 754.577 708.821 753.548 710.051 752.833C711.266 752.132 712.824 752.189 714.197 752.99L720.031 756.365L721.818 755.335L715.756 751.832C713.396 750.474 710.923 750.474 709.05 751.56C707.677 752.361 707.434 753.262 708.02 754.091L707.906 754.163L706.362 753.262L704.646 754.248L714.169 759.753L715.956 758.724L710.308 755.449ZM727.108 752.533C728.624 751.66 728.681 750.702 728.309 750.102L728.381 750.059L729.682 750.817L731.426 749.816L725.107 746.17C722.333 744.569 719.688 745.469 718.229 746.299C716.571 747.257 715.741 748.543 716.871 749.887L718.944 749.144C718.529 748.601 718.544 747.843 719.745 747.142C720.903 746.47 722.118 746.499 723.191 747.114L723.233 747.142C723.906 747.528 723.234 747.914 721.775 748.972C720.245 750.102 718.944 751.389 721.103 752.647C722.976 753.719 725.364 753.533 727.108 752.533ZM726.007 751.446C724.992 752.032 723.805 752.175 722.876 751.646C721.889 751.074 722.376 750.374 723.262 749.702C723.763 749.316 724.978 748.429 724.964 748.129L726.193 748.844C727.323 749.487 727.494 750.588 726.007 751.446ZM729.925 744.125C728.409 743.253 728.438 742.224 729.668 741.509C730.883 740.808 732.442 740.865 733.814 741.666L739.648 745.04L741.435 744.011L735.373 740.508C733.013 739.15 730.54 739.15 728.667 740.236C727.294 741.037 727.051 741.938 727.637 742.767L727.523 742.838L725.979 741.938L724.263 742.924L733.786 748.429L735.573 747.4L729.925 744.125ZM747.883 740.508C750.057 739.264 750.1 737.663 748.441 736.476L746.697 737.477C747.497 738.206 747.34 738.992 746.311 739.593C744.795 740.465 742.522 740.265 740.449 739.078C738.404 737.906 738.118 736.59 739.605 735.732C740.734 735.075 742.179 735.103 743.251 735.518L744.995 734.517C742.879 733.516 740.091 733.645 738.018 734.86C735.43 736.347 735.787 738.478 738.69 740.165C741.578 741.795 745.224 742.038 747.883 740.508ZM753.374 737.119L755.161 736.09L745.639 730.585L743.851 731.614L753.374 737.119ZM743.28 730.256C743.894 729.899 743.909 729.312 743.308 728.969C742.708 728.612 741.692 728.626 741.078 728.984C740.463 729.341 740.448 729.927 741.063 730.27C741.678 730.614 742.65 730.614 743.28 730.256ZM760.423 733.287C761.939 732.415 761.996 731.457 761.624 730.857L761.696 730.814L762.997 731.572L764.741 730.571L758.421 726.925C755.647 725.323 753.002 726.224 751.544 727.053C749.885 728.011 749.056 729.298 750.186 730.642L752.259 729.899C751.844 729.355 751.858 728.598 753.059 727.897C754.218 727.239 755.433 727.253 756.505 727.868L756.548 727.897C757.22 728.283 756.548 728.669 755.09 729.727C753.56 730.857 752.259 732.143 754.418 733.402C756.305 734.474 758.693 734.288 760.423 733.287ZM759.322 732.201C758.307 732.787 757.12 732.93 756.191 732.401C755.204 731.829 755.69 731.128 756.577 730.456C757.077 730.07 758.293 729.184 758.278 728.883L759.508 729.598C760.652 730.256 760.809 731.343 759.322 732.201ZM756.205 720.819L754.418 721.849L767.114 729.184L768.902 728.154L756.205 720.819ZM726.308 779.871C727.823 778.998 727.88 778.041 727.509 777.44L727.58 777.397L728.881 778.155L730.626 777.154L724.306 773.508C721.532 771.907 718.887 772.807 717.428 773.637C715.77 774.595 714.941 775.881 716.07 777.226L718.143 776.482C717.729 775.939 717.743 775.181 718.944 774.48C720.102 773.823 721.318 773.837 722.39 774.452L722.433 774.48C723.105 774.866 722.433 775.252 720.974 776.31C719.445 777.44 718.143 778.727 720.302 779.985C722.19 781.057 724.563 780.872 726.308 779.871ZM725.207 778.784C724.191 779.37 723.005 779.513 722.075 778.984C721.089 778.412 721.575 777.712 722.461 777.04C722.962 776.654 724.177 775.767 724.163 775.467L725.393 776.182C726.536 776.825 726.694 777.926 725.207 778.784ZM734.858 770.134C736.488 771.063 736.088 772.178 735.087 772.75C733.986 773.394 732.384 773.351 731.097 772.607L725.264 769.233L723.477 770.262L729.539 773.765C731.898 775.124 734.372 775.124 736.13 774.109C737.503 773.308 737.689 772.336 737.088 771.506L737.188 771.449L738.833 772.407L740.591 771.392L731.069 765.887L729.282 766.917L734.858 770.134ZM737.746 762.027L735.873 763.113L733.585 761.798L731.798 762.827L734.086 764.143L732.742 764.915L734.229 765.773L735.573 765.001L741.192 768.246C742.922 769.247 745.024 769.004 746.396 768.16C746.954 767.832 747.226 767.546 747.354 767.374L745.496 766.673C745.396 766.759 745.238 766.917 744.952 767.088C744.38 767.417 743.651 767.603 742.579 766.988L737.346 763.957L739.219 762.87L737.746 762.027ZM753.202 764.314C755.79 762.827 755.504 760.711 752.559 759.01C749.599 757.294 745.939 757.137 743.351 758.624C740.763 760.111 741.049 762.227 744.009 763.943C746.968 765.658 750.614 765.816 753.202 764.314ZM751.644 763.413C749.957 764.386 747.64 763.957 745.81 762.899C743.98 761.841 743.222 760.497 744.91 759.524C746.582 758.552 748.927 758.995 750.743 760.053C752.588 761.112 753.331 762.456 751.644 763.413ZM759.279 760.597L761.066 759.567L755.19 756.179C753.903 755.435 753.874 754.42 754.89 753.834C755.876 753.262 757.249 753.262 758.278 753.862L764.612 757.523L766.385 756.493L760.309 752.99C759.165 752.332 759.007 751.46 760.166 750.788C761.109 750.245 762.425 750.116 763.726 750.86L769.946 754.449L771.733 753.419L765.342 749.73C763.168 748.472 760.909 748.529 759.251 749.473C757.935 750.231 757.606 751.189 758.178 752.032L758.078 752.089C756.634 751.718 755.161 751.832 753.946 752.547C752.731 753.248 752.459 754.134 753.131 754.949L753.017 755.02L751.472 754.12L749.757 755.106L759.279 760.597ZM776.995 750.602C778.51 749.73 778.567 748.772 778.196 748.172L778.267 748.129L779.568 748.887L781.313 747.886L774.993 744.24C772.219 742.638 769.574 743.539 768.115 744.368C766.457 745.326 765.627 746.613 766.757 747.957L768.83 747.214C768.416 746.67 768.43 745.913 769.631 745.212C770.789 744.554 772.004 744.569 773.077 745.183L773.12 745.212C773.792 745.598 773.12 745.984 771.661 747.042C770.131 748.172 768.83 749.459 770.989 750.717C772.877 751.789 775.264 751.603 776.995 750.602ZM775.894 749.516C774.878 750.102 773.692 750.245 772.762 749.716C771.776 749.144 772.262 748.443 773.148 747.771C773.649 747.385 774.864 746.499 774.85 746.199L776.079 746.913C777.223 747.571 777.381 748.658 775.894 749.516ZM778.439 738.52L776.566 739.607L774.278 738.292L772.491 739.321L774.778 740.637L773.434 741.409L774.921 742.267L776.265 741.494L781.884 744.74C783.615 745.741 785.716 745.498 787.089 744.654C787.647 744.325 787.918 744.04 788.047 743.868L786.188 743.167C786.088 743.253 785.931 743.41 785.645 743.582C785.073 743.911 784.344 744.097 783.271 743.482L778.038 740.451L779.911 739.364L778.439 738.52ZM789.949 742.881L791.736 741.852L782.213 736.347L780.426 737.377L789.949 742.881ZM779.84 736.018C780.455 735.661 780.469 735.075 779.868 734.731C779.268 734.374 778.253 734.388 777.638 734.746C777.023 735.103 777.009 735.689 777.624 736.033C778.224 736.39 779.225 736.376 779.84 736.018ZM798.184 738.349C800.772 736.862 800.486 734.746 797.541 733.044C794.581 731.328 790.921 731.171 788.333 732.658C785.745 734.145 786.031 736.261 788.991 737.977C791.936 739.679 795.596 739.85 798.184 738.349ZM796.626 737.448C794.939 738.42 792.622 737.991 790.792 736.933C788.962 735.875 788.204 734.531 789.891 733.559C791.564 732.587 793.909 733.03 795.725 734.088C797.555 735.146 798.299 736.49 796.626 737.448ZM800.372 730.328C798.856 729.455 798.885 728.426 800.115 727.711C801.33 727.01 802.889 727.068 804.261 727.868L810.095 731.243L811.882 730.213L805.82 726.71C803.46 725.352 800.987 725.352 799.114 726.438C797.741 727.239 797.498 728.14 798.084 728.969L797.97 729.041L796.426 728.14L794.71 729.127L804.233 734.631L806.02 733.602L800.372 730.328Z" fill="white"/>
<path d="M1004.63 475.283L810.198 363.024C806.469 360.866 800.424 360.866 796.727 363.024L651.227 447.579C647.53 449.737 647.546 453.227 651.274 455.37L845.708 567.628C849.437 569.786 855.451 569.786 859.164 567.628L1004.66 483.073C1008.38 480.915 1008.36 477.425 1004.63 475.283Z" stroke="url(#paint7_linear_34_6289)" stroke-width="1.28291"/>
<path d="M735.799 632.728L743.576 628.243L741.922 627.28L736 630.701L732.09 628.444L737.538 625.296L735.885 624.347L730.437 627.495L726.541 625.253L732.392 621.874L730.738 620.911L723.033 625.353L735.799 632.728ZM737.667 620.595L735.698 621.731L743.317 622.866L745.243 627.28L747.213 626.144L745.703 622.881L751.353 623.743L753.308 622.608L745.617 621.515L743.705 617.087L741.75 618.223L743.432 621.558L737.667 620.595ZM758.727 623.643L760.524 622.608L755.45 619.675L755.55 619.618C756.485 619.79 758.21 620.02 759.892 619.043C762.12 617.749 761.89 615.751 758.785 613.954C755.68 612.157 752.215 612.056 749.987 613.336C748.276 614.327 748.751 615.305 749.024 615.837L748.88 615.923L747.328 615.032L745.574 616.038L758.727 623.643ZM752.1 617.792C750.102 616.642 749.613 615.391 751.18 614.486C752.805 613.551 755.047 613.896 756.945 615.003C758.871 616.11 759.489 617.447 757.893 618.367C756.355 619.244 754.113 618.956 752.1 617.792ZM769.724 613.364C771.737 612.2 772.125 610.791 770.975 609.655L768.963 610.446C769.538 611.15 769.221 611.869 768.201 612.459C766.662 613.35 764.592 613.35 762.709 612.3L769.264 608.52L768.603 608.132C765.139 606.133 761.804 606.507 759.705 607.7C757.132 609.181 757.477 611.337 760.424 613.034C763.399 614.773 767.007 614.931 769.724 613.364ZM761.315 611.51C760.021 610.69 759.791 609.454 761.257 608.62C762.652 607.815 764.636 607.916 766.102 608.75L761.315 611.51ZM771.579 605.501C770.055 604.624 770.084 603.589 771.32 602.87C772.542 602.166 774.109 602.223 775.489 603.028L781.354 606.421L783.151 605.386L777.056 601.864C774.684 600.498 772.197 600.498 770.314 601.591C768.934 602.396 768.689 603.302 769.279 604.135L769.164 604.207L767.611 603.301L765.886 604.293L775.46 609.828L777.257 608.793L771.579 605.501ZM785.235 595.826C783.367 595.179 781.282 595.266 779.284 596.416C777.2 597.623 776.869 599.133 778.565 600.11C779.931 600.901 781.627 600.958 783.74 600.196L785.652 599.506C786.745 599.118 787.564 599.104 788.168 599.463C788.916 599.895 788.729 600.671 787.55 601.346C786.472 601.965 785.307 602.094 784.143 601.663L782.677 602.827C784.675 603.632 786.989 603.402 789.045 602.209C791.273 600.93 791.589 599.32 789.85 598.328C788.499 597.551 786.831 597.537 784.732 598.285L782.921 598.931C781.656 599.377 780.865 599.42 780.218 599.046C779.471 598.63 779.715 597.882 780.736 597.293C781.857 596.646 783.007 596.718 783.855 596.976L785.235 595.826ZM798.791 596.588C800.804 595.424 801.192 594.015 800.042 592.879L798.03 593.67C798.605 594.374 798.288 595.093 797.268 595.683C795.729 596.574 793.659 596.574 791.776 595.524L798.331 591.744L797.67 591.356C794.206 589.357 790.871 589.731 788.772 590.924C786.199 592.405 786.544 594.561 789.491 596.258C792.466 597.997 796.074 598.155 798.791 596.588ZM790.382 594.719C789.088 593.9 788.858 592.664 790.324 591.83C791.719 591.025 793.703 591.126 795.169 591.959L790.382 594.719ZM759.058 646.327L760.855 645.292L754.947 641.885C753.653 641.137 753.624 640.117 754.645 639.527C755.637 638.952 757.017 638.952 758.052 639.556L764.42 643.236L766.202 642.201L760.093 638.679C758.943 638.018 758.785 637.141 759.949 636.465C760.898 635.919 762.22 635.79 763.529 636.537L769.782 640.146L771.579 639.111L765.153 635.402C762.968 634.137 760.697 634.194 759.029 635.143C757.707 635.905 757.376 636.868 757.951 637.716L757.85 637.774C756.398 637.4 754.918 637.515 753.682 638.234C752.46 638.938 752.186 639.829 752.862 640.649L752.747 640.721L751.195 639.815L749.47 640.807L759.058 646.327ZM776.883 636.279C778.407 635.402 778.465 634.439 778.091 633.835L778.163 633.792L779.471 634.554L781.225 633.547L774.871 629.882C772.082 628.272 769.423 629.177 767.956 630.011C766.289 630.974 765.455 632.268 766.591 633.619L768.675 632.872C768.258 632.325 768.272 631.563 769.48 630.859C770.644 630.198 771.866 630.212 772.944 630.83L772.988 630.859C773.663 631.247 772.988 631.635 771.521 632.699C769.983 633.835 768.675 635.129 770.846 636.394C772.729 637.486 775.13 637.299 776.883 636.279ZM775.776 635.2C774.756 635.79 773.563 635.934 772.628 635.402C771.636 634.827 772.125 634.122 773.016 633.447C773.519 633.059 774.741 632.167 774.727 631.865L775.963 632.584C777.099 633.231 777.271 634.338 775.776 635.2ZM779.715 627.84C778.191 626.963 778.22 625.928 779.457 625.21C780.678 624.505 782.245 624.563 783.625 625.368L789.491 628.76L791.287 627.725L785.192 624.203C782.82 622.838 780.333 622.838 778.45 623.93C777.07 624.735 776.826 625.641 777.415 626.475L777.3 626.546L775.748 625.641L774.023 626.633L783.597 632.167L785.394 631.132L779.715 627.84ZM796.592 624.908C798.116 624.031 798.173 623.068 797.8 622.464L797.871 622.421L799.18 623.183L800.933 622.176L794.579 618.511C791.791 616.901 789.131 617.806 787.665 618.64C785.997 619.603 785.164 620.897 786.299 622.248L788.384 621.501C787.967 620.954 787.981 620.193 789.189 619.488C790.353 618.827 791.575 618.841 792.653 619.474L792.696 619.503C793.372 619.891 792.696 620.279 791.23 621.343C789.692 622.478 788.384 623.772 790.554 625.037C792.452 626.101 794.838 625.914 796.592 624.908ZM795.485 623.815C794.464 624.405 793.271 624.548 792.337 624.016C791.345 623.441 791.834 622.737 792.725 622.061C793.228 621.673 794.45 620.782 794.436 620.48L795.672 621.199C796.822 621.846 796.98 622.953 795.485 623.815ZM810.982 620.739C813.325 619.388 814.029 617.691 811.557 616.268L801.767 610.619L800.013 611.639L801.566 612.531L801.436 612.602C800.531 612.444 798.806 612.186 797.095 613.177C794.867 614.457 795.054 616.469 798.101 618.223C801.163 619.991 804.455 619.963 806.64 618.698C808.337 617.72 807.992 616.771 807.704 616.225L807.819 616.153L809.702 617.246C811.212 618.108 810.867 619.057 809.501 619.848C808.006 620.71 806.64 620.595 805.778 620.466L804.901 621.731C806.54 622.133 808.768 622.004 810.982 620.739ZM805.476 617.576C803.88 618.496 801.767 618.238 799.884 617.159C798.044 616.096 797.426 614.802 799.05 613.867C800.617 612.962 802.788 613.249 804.728 614.371C806.698 615.506 807.028 616.685 805.476 617.576ZM817.911 612.574C819.923 611.409 820.311 610 819.161 608.865L817.149 609.655C817.724 610.36 817.408 611.079 816.387 611.668C814.849 612.559 812.779 612.559 810.895 611.51L817.451 607.729L816.789 607.341C813.325 605.343 809.99 605.717 807.891 606.91C805.318 608.39 805.663 610.547 808.61 612.243C811.585 613.982 815.194 614.141 817.911 612.574ZM809.501 610.719C808.207 609.9 807.977 608.664 809.444 607.83C810.838 607.025 812.822 607.125 814.288 607.959L809.501 610.719ZM823.661 609.037L825.458 608.002L819.549 604.595C818.256 603.848 818.227 602.827 819.248 602.238C820.239 601.663 821.62 601.663 822.655 602.266L829.023 605.947L830.805 604.912L824.696 601.39C823.546 600.728 823.388 599.851 824.552 599.176C825.501 598.63 826.823 598.5 828.132 599.248L834.385 602.856L836.182 601.821L829.756 598.112C827.571 596.847 825.3 596.904 823.632 597.853C822.31 598.615 821.965 599.578 822.554 600.426L822.453 600.484C821.001 600.11 819.521 600.225 818.284 600.944C817.063 601.648 816.789 602.54 817.465 603.359L817.35 603.431L815.797 602.525L814.072 603.517L823.661 609.037ZM842.766 598.227C844.778 597.063 845.166 595.654 844.016 594.518L842.004 595.309C842.579 596.013 842.263 596.732 841.242 597.321C839.704 598.213 837.634 598.213 835.75 597.163L842.306 593.383L841.644 592.994C838.18 590.996 834.845 591.37 832.746 592.563C830.173 594.044 830.518 596.2 833.465 597.896C836.426 599.636 840.034 599.794 842.766 598.227ZM834.356 596.373C833.062 595.553 832.832 594.317 834.299 593.483C835.693 592.678 837.677 592.779 839.143 593.613L834.356 596.373ZM844.62 590.364C843.096 589.487 843.125 588.452 844.361 587.733C845.583 587.029 847.15 587.086 848.53 587.891L854.395 591.284L856.192 590.249L850.097 586.727C847.725 585.361 845.238 585.361 843.355 586.454C841.975 587.259 841.731 588.164 842.32 588.998L842.205 589.07L840.652 588.164L838.927 589.156L848.501 594.691L850.298 593.656L844.62 590.364ZM853.332 580.847L851.448 581.94L849.148 580.617L847.351 581.652L849.651 582.975L848.3 583.751L849.795 584.614L851.147 583.837L856.796 587.1C858.535 588.107 860.649 587.862 862.029 587.014C862.589 586.684 862.862 586.396 862.992 586.224L861.123 585.519C861.022 585.605 860.864 585.764 860.577 585.936C859.987 586.267 859.269 586.454 858.19 585.835L852.929 582.788L854.812 581.695L853.332 580.847Z" fill="white"/>
<path d="M481.093 459.118L761.51 297.217C771.052 291.706 786.819 291.884 796.729 297.605L964.299 394.349C974.208 400.07 974.513 409.182 964.981 414.683L684.564 576.595C675.022 582.106 659.255 581.927 649.345 576.206L481.765 479.452C471.855 473.731 471.551 464.629 481.093 459.118Z" fill="url(#paint8_linear_34_6289)"/>
<g filter="url(#filter0_b_34_6289)">
<path d="M469.843 418.245L750.26 256.344C759.802 250.833 775.569 251.011 785.479 256.732L953.049 353.476C962.958 359.197 963.263 368.309 953.731 373.81L673.314 535.722C663.772 541.233 648.005 541.054 638.095 535.333L470.515 438.579C460.605 432.858 460.301 423.756 469.843 418.245Z" fill="white" fill-opacity="0.3"/>
<path d="M672.993 535.166L673.314 535.722L672.993 535.166C668.347 537.85 662.141 539.168 655.85 539.098C649.56 539.028 643.255 537.571 638.416 534.778L470.836 438.023L470.515 438.579L470.835 438.023C465.99 435.226 463.638 431.689 463.526 428.312C463.414 424.949 465.518 421.484 470.164 418.801L750.581 256.899L750.26 256.344L750.581 256.899C755.227 254.216 761.433 252.897 767.724 252.967C774.014 253.037 780.319 254.494 785.158 257.288L952.728 354.032C957.573 356.829 959.926 360.369 960.039 363.747C960.152 367.112 958.051 370.576 953.41 373.254L953.731 373.81L953.41 373.254L672.993 535.166Z" stroke="url(#paint9_linear_34_6289)" stroke-width="1.28291"/>
</g>
<path fill-rule="evenodd" clip-rule="evenodd" d="M750.465 317.962L736.157 302.836L741.458 299.771L755.777 314.897L750.465 317.962Z" fill="white"/>
<path fill-rule="evenodd" clip-rule="evenodd" d="M727.845 307.648L731.656 315.364C732.695 317.369 733.115 318.429 734.196 319.447L734.123 319.489C732.412 318.397 729.955 317.264 728.675 316.55L720.014 312.162L711.081 317.316L711.532 317.684C713.821 316.361 716.382 316.266 719.185 317.453L737.01 325.735L742.5 322.565L733.388 304.446L727.845 307.648Z" fill="white"/>
<path fill-rule="evenodd" clip-rule="evenodd" d="M789.352 295.513L786.192 293.854L779.568 297.675L781.237 300.205L775.474 303.533L765.69 285.824L772.755 281.74L794.747 292.395L789.352 295.513ZM776.797 288.973C775.243 288.144 773.165 286.999 772.031 286.233L771.947 286.275C772.629 287.041 774.256 289.582 775.138 290.799L777.605 294.505L782.255 291.818L776.797 288.973Z" fill="white"/>
<path fill-rule="evenodd" clip-rule="evenodd" d="M767.861 308.588C764.114 310.75 760.397 311.475 757.532 311.873L756.073 308.115C758.581 307.727 760.901 307.622 763.778 305.953C764.701 305.418 765.342 304.756 764.943 303.948C764.365 302.762 762.738 302.877 759.463 303.371L757.752 303.57C752.514 304.095 749.123 303.665 746.971 300.757C745.596 298.888 746.289 296.474 750.32 294.143C753.102 292.537 756.944 291.75 759.673 291.582L760.292 295.298C757.574 295.445 755.726 295.781 754.319 296.6C753.196 297.251 752.797 297.996 753.102 298.51C753.679 299.487 755.18 299.508 757.836 299.172L759.862 298.93C766.024 298.174 769.457 299.14 770.905 301.051C773.393 304.336 771.157 306.688 767.861 308.588Z" fill="white"/>
<path fill-rule="evenodd" clip-rule="evenodd" d="M778.81 281.383L778.579 281.52L777.13 280.68L777.655 280.375C777.991 280.176 778.285 280.155 778.589 280.323C778.852 280.47 778.799 280.627 778.621 280.764L779.65 280.9L779.387 281.047L778.411 280.9L778.19 281.026L778.81 281.383ZM778.253 280.753C778.421 280.648 778.558 280.554 778.348 280.438C778.18 280.344 777.98 280.417 777.854 280.501L777.582 280.659L778.001 280.9L778.253 280.753ZM779.629 281.562C778.904 281.982 777.823 281.961 777.078 281.53C776.29 281.079 776.343 280.449 777.015 280.061C777.676 279.683 778.768 279.651 779.555 280.103C780.332 280.543 780.29 281.173 779.629 281.562ZM777.246 280.176C776.7 280.491 776.721 280.995 777.351 281.362C777.938 281.698 778.799 281.772 779.398 281.425C779.933 281.11 779.922 280.617 779.282 280.239C778.642 279.882 777.781 279.872 777.246 280.176Z" fill="white"/>
<path d="M646.711 502.049L690.285 476.887C692.5 475.606 696.154 475.648 698.463 476.981C700.762 478.314 700.835 480.424 698.62 481.705L655.046 506.867C652.831 508.148 649.178 508.106 646.868 506.773C644.569 505.44 644.496 503.33 646.711 502.049Z" fill="url(#paint10_linear_34_6289)"/>
<path d="M712.918 463.828L756.493 438.666C758.708 437.385 762.361 437.427 764.67 438.76C766.969 440.093 767.042 442.203 764.828 443.484L721.253 468.646C719.038 469.927 715.385 469.885 713.075 468.552C710.776 467.219 710.703 465.109 712.918 463.828Z" fill="url(#paint11_linear_34_6289)"/>
<path d="M779.115 425.607L822.689 400.445C824.904 399.164 828.557 399.206 830.867 400.539C833.166 401.872 833.239 403.982 831.024 405.263L787.449 430.425C785.234 431.706 781.581 431.664 779.272 430.331C776.973 428.998 776.9 426.888 779.115 425.607Z" fill="url(#paint12_linear_34_6289)"/>
<path d="M845.322 387.386L888.896 362.224C891.111 360.943 894.764 360.985 897.074 362.318C899.373 363.651 899.446 365.761 897.231 367.042L853.656 392.204C851.442 393.485 847.788 393.443 845.479 392.11C843.18 390.777 843.107 388.667 845.322 387.386Z" fill="url(#paint13_linear_34_6289)"/>
<path d="M765.676 371.9C765.676 370.493 764.738 369.086 762.863 368.011L409.465 340.307C407.617 341.382 406.707 342.803 406.707 344.209C406.707 345.381 406.707 349.711 406.707 350.911C406.721 352.318 407.659 353.724 409.52 354.8L506.74 410.925L603.96 467.051C605.822 468.127 608.262 468.664 610.689 468.664C613.117 468.664 615.557 468.127 617.405 467.051L690.162 424.771L762.918 382.49C764.779 381.415 765.703 379.994 765.69 378.588C765.676 377.416 765.69 373.086 765.676 371.9Z" fill="url(#paint14_linear_34_6289)"/>
<path d="M762.876 368.015L665.657 311.889L568.437 255.764C566.575 254.675 564.134 254.137 561.693 254.137C559.253 254.137 556.826 254.675 554.964 255.75L482.221 298.03L409.465 340.311C407.617 341.386 406.707 342.807 406.707 344.213C406.721 345.62 407.645 347.027 409.52 348.102L506.74 404.228L603.96 460.353C605.822 461.429 608.262 461.967 610.689 461.967C613.117 461.967 615.557 461.429 617.405 460.353L690.162 418.073L762.918 375.793C764.78 374.717 765.703 373.297 765.69 371.89C765.676 370.497 764.738 369.091 762.876 368.015Z" fill="url(#paint15_linear_34_6289)"/>
<path d="M586.055 413.107L587.765 412.114C585.752 411.011 582.663 411.149 580.264 412.542C577.892 413.907 577.492 415.769 579.602 416.982C581.312 417.961 583.477 417.865 585.904 417.079L587.696 416.5C589.31 415.976 590.703 415.658 591.792 416.293C592.992 416.982 592.675 418.072 591.158 418.94C589.793 419.726 588.014 420.03 586.579 419.313L584.801 420.347C587.131 421.56 590.151 421.395 592.799 419.878C595.571 418.278 595.653 416.486 593.571 415.286C591.365 414.017 588.62 414.61 586.731 415.258L585.269 415.741C584.097 416.127 582.429 416.582 581.257 415.907C580.222 415.3 580.36 414.334 581.808 413.493C583.187 412.693 584.801 412.528 586.055 413.107ZM602.948 413.99C604.879 412.873 605.251 411.521 604.148 410.432L602.217 411.19C602.769 411.866 602.466 412.556 601.487 413.121C600.011 413.976 598.025 413.976 596.219 412.969L602.507 409.342L601.873 408.97C598.549 407.053 595.35 407.412 593.337 408.57C590.868 409.991 591.199 412.059 594.026 413.686C596.881 415.341 600.342 415.507 602.948 413.99ZM594.881 412.211C593.64 411.425 593.419 410.239 594.826 409.439C596.164 408.667 598.067 408.763 599.473 409.563L594.881 412.211ZM612.367 408.556C614.449 407.357 614.504 405.812 612.905 404.681L611.236 405.647C612.008 406.35 611.857 407.109 610.864 407.688C609.402 408.529 607.209 408.336 605.21 407.191C603.238 406.06 602.962 404.792 604.396 403.964C605.486 403.33 606.878 403.358 607.926 403.758L609.595 402.792C607.554 401.827 604.865 401.951 602.866 403.123C600.37 404.557 600.714 406.612 603.514 408.239C606.285 409.798 609.802 410.032 612.367 408.556ZM619.455 399.855C621.027 400.751 620.641 401.827 619.676 402.379C618.614 402.999 617.069 402.958 615.828 402.241L610.202 398.986L608.478 399.979L614.325 403.358C616.6 404.668 618.986 404.668 620.682 403.689C622.006 402.916 622.185 401.979 621.62 401.179L621.717 401.124L623.302 402.048L624.999 401.068L615.814 395.759L614.091 396.752L619.455 399.855ZM627.301 399.717L629.025 398.724L623.413 395.483C622.213 394.794 622.241 393.774 623.454 393.07C623.813 392.863 624.281 392.67 624.461 392.615L622.751 391.622C622.558 391.705 622.199 391.898 621.979 392.022C620.944 392.615 620.668 393.484 621.33 394.242L621.234 394.298L619.772 393.456L618.104 394.422L627.301 399.717ZM633.521 396.132L635.245 395.139L626.06 389.83L624.337 390.822L633.521 396.132ZM623.785 389.512C624.378 389.168 624.392 388.602 623.813 388.271C623.233 387.94 622.254 387.94 621.661 388.285C621.068 388.63 621.055 389.195 621.648 389.526C622.213 389.857 623.178 389.857 623.785 389.512ZM632.487 386.12L630.68 387.168L628.474 385.899L626.75 386.892L628.956 388.161L627.66 388.906L629.094 389.733L630.39 388.988L635.81 392.119C637.479 393.084 639.506 392.85 640.83 392.036C641.367 391.719 641.629 391.443 641.753 391.278L639.961 390.602C639.864 390.685 639.713 390.836 639.437 391.002C638.885 391.319 638.182 391.498 637.148 390.905L632.1 387.982L633.907 386.934L632.487 386.12ZM648.111 391.677C649.531 390.85 649.655 389.899 648.717 388.768L641.974 380.659L640.099 381.721L644.994 387.127L644.898 387.182L635.534 384.355L633.686 385.417L646.221 388.919L646.621 389.388C647.407 390.34 646.883 390.753 645.67 391.153L646.718 392.243C647.049 392.188 647.6 391.981 648.111 391.677ZM600.452 427.008L598.729 428L610.974 435.075L612.698 434.082L600.452 427.008ZM617.786 431.379C619.248 430.538 619.303 429.614 618.945 429.035L619.014 428.993L620.269 429.724L621.951 428.759L615.856 425.242C613.18 423.698 610.629 424.567 609.223 425.367C607.623 426.29 606.823 427.532 607.913 428.828L609.912 428.111C609.512 427.587 609.526 426.856 610.684 426.18C611.801 425.532 612.974 425.56 614.008 426.166L614.049 426.194C614.697 426.566 614.049 426.939 612.643 427.959C611.167 429.048 609.912 430.29 611.995 431.503C613.815 432.524 616.104 432.344 617.786 431.379ZM616.725 430.331C615.745 430.896 614.601 431.034 613.704 430.524C612.753 429.972 613.222 429.297 614.077 428.649C614.559 428.276 615.732 427.421 615.718 427.132L616.904 427.821C618.007 428.455 618.159 429.504 616.725 430.331ZM628.46 428.966C629.88 428.138 630.004 427.187 629.067 426.056L622.323 417.947L620.448 419.009L625.343 424.415L625.247 424.47L615.883 421.643L614.035 422.705L626.571 426.208L626.971 426.677C627.757 427.628 627.233 428.042 626.019 428.442L627.067 429.531C627.384 429.462 627.936 429.255 628.46 428.966ZM636.803 420.375C638.733 419.258 639.106 417.906 638.003 416.817L636.072 417.575C636.624 418.251 636.32 418.94 635.341 419.506C633.866 420.361 631.88 420.361 630.073 419.354L636.362 415.727L635.727 415.355C632.404 413.438 629.205 413.797 627.191 414.955C624.723 416.375 625.054 418.444 627.881 420.071C630.721 421.74 634.197 421.891 636.803 420.375ZM628.736 418.596C627.495 417.81 627.274 416.624 628.68 415.824C630.018 415.052 631.921 415.148 633.328 415.948L628.736 418.596ZM642.319 416.982L644.043 415.989L638.43 412.749C637.23 412.059 637.258 411.039 638.471 410.335C638.83 410.129 639.299 409.935 639.478 409.88L637.768 408.887C637.575 408.97 637.217 409.163 636.996 409.287C635.962 409.88 635.686 410.749 636.348 411.508L636.251 411.563L634.789 410.721L633.121 411.687L642.319 416.982Z" fill="white"/>
<path opacity="0.5" d="M700.166 244.024L505.732 131.765C502.003 129.607 495.958 129.607 492.261 131.765L346.761 216.32C343.064 218.478 343.08 221.969 346.809 224.111L541.243 336.37C544.971 338.528 550.985 338.528 554.698 336.37L700.198 251.814C703.911 249.657 703.895 246.166 700.166 244.024Z" stroke="url(#paint16_linear_34_6289)" stroke-width="1.28291"/>
<path d="M896.468 206.763C896.468 205.356 895.53 203.95 893.655 202.874L540.257 175.17C538.409 176.246 537.499 177.666 537.499 179.073C537.499 180.245 537.499 184.575 537.499 185.774C537.513 187.181 538.451 188.588 540.312 189.663L637.532 245.789L734.752 301.914C736.614 302.99 739.054 303.528 741.481 303.528C743.908 303.528 746.349 302.99 748.197 301.914L820.954 259.634L893.71 217.354C895.571 216.278 896.495 214.858 896.482 213.451C896.468 212.279 896.482 207.949 896.468 206.763Z" fill="url(#paint17_linear_34_6289)"/>
<path d="M893.668 202.878L796.449 146.753L699.229 90.6272C697.367 89.5378 694.926 89 692.485 89C690.045 89 687.618 89.5378 685.756 90.6134L613.013 132.894L540.257 175.174C538.409 176.25 537.499 177.67 537.499 179.077C537.513 180.483 538.437 181.89 540.312 182.965L637.532 239.091L734.752 295.216C736.614 296.292 739.054 296.83 741.481 296.83C743.909 296.83 746.349 296.292 748.197 295.216L820.954 252.936L893.71 210.656C895.572 209.58 896.495 208.16 896.482 206.753C896.468 205.36 895.53 203.954 893.668 202.878Z" fill="url(#paint18_linear_34_6289)"/>
<path d="M713.569 248.909L715.279 247.916C713.266 246.813 710.177 246.951 707.778 248.343C705.42 249.709 705.006 251.57 707.116 252.784C708.826 253.763 710.991 253.666 713.418 252.88L715.211 252.301C716.824 251.777 718.217 251.46 719.306 252.094C720.506 252.784 720.189 253.873 718.672 254.756C717.307 255.542 715.528 255.845 714.094 255.128L712.315 256.162C714.645 257.376 717.665 257.21 720.313 255.693C723.085 254.094 723.167 252.301 721.085 251.101C718.879 249.833 716.134 250.426 714.245 251.074L712.783 251.556C711.611 251.942 709.943 252.398 708.771 251.722C707.736 251.115 707.874 250.15 709.322 249.309C710.701 248.495 712.315 248.33 713.569 248.909ZM729.249 250.522C730.711 249.681 730.766 248.757 730.407 248.178L730.476 248.136L731.731 248.867L733.413 247.902L727.318 244.386C724.643 242.841 722.092 243.71 720.685 244.51C719.086 245.434 718.286 246.675 719.375 247.971L721.375 247.254C720.975 246.73 720.989 245.999 722.147 245.323C723.264 244.689 724.436 244.703 725.47 245.309L725.512 245.337C726.16 245.709 725.512 246.082 724.105 247.102C722.63 248.192 721.375 249.433 723.457 250.646C725.263 251.667 727.566 251.487 729.249 250.522ZM728.173 249.474C727.194 250.039 726.049 250.177 725.153 249.667C724.202 249.116 724.671 248.44 725.525 247.792C726.008 247.419 727.18 246.564 727.166 246.275L728.352 246.964C729.456 247.599 729.607 248.647 728.173 249.474ZM738.474 245.185C739.936 244.344 739.991 243.42 739.633 242.841L739.702 242.8L740.957 243.531L742.639 242.565L736.544 239.049C733.868 237.504 731.317 238.373 729.911 239.173C728.311 240.097 727.511 241.338 728.601 242.634L730.6 241.917C730.2 241.393 730.214 240.662 731.372 239.987C732.489 239.352 733.662 239.366 734.696 239.959L734.737 239.987C735.385 240.359 734.737 240.731 733.331 241.752C731.855 242.841 730.6 244.082 732.682 245.296C734.489 246.344 736.792 246.164 738.474 245.185ZM737.413 244.151C736.433 244.717 735.289 244.854 734.392 244.344C733.441 243.793 733.91 243.117 734.765 242.469C735.247 242.096 736.42 241.241 736.406 240.952L737.592 241.641C738.681 242.262 738.833 243.324 737.413 244.151ZM742.46 232.223L744.17 231.23C742.156 230.127 739.067 230.265 736.668 231.657C734.31 233.023 733.896 234.884 736.006 236.098C737.716 237.077 739.881 236.98 742.308 236.194L744.101 235.615C745.714 235.091 747.107 234.774 748.196 235.408C749.396 236.098 749.079 237.187 747.576 238.056C746.211 238.842 744.432 239.145 742.997 238.428L741.219 239.463C743.549 240.676 746.569 240.511 749.217 238.994C751.989 237.394 752.071 235.601 749.989 234.402C747.783 233.133 745.038 233.726 743.149 234.374L741.687 234.857C740.515 235.243 738.847 235.698 737.675 235.008C736.64 234.402 736.778 233.436 738.226 232.595C739.578 231.823 741.191 231.644 742.46 232.223ZM738.488 270.876L740.212 269.883L734.544 266.615C733.303 265.898 733.275 264.919 734.255 264.354C735.206 263.802 736.53 263.802 737.523 264.381L743.632 267.911L745.342 266.918L739.481 263.54C738.378 262.906 738.226 262.064 739.343 261.416C740.253 260.892 741.522 260.768 742.763 261.485L748.762 264.947L750.485 263.954L744.321 260.396C742.225 259.182 740.046 259.237 738.447 260.148C737.178 260.878 736.847 261.802 737.413 262.616L737.316 262.671C735.923 262.313 734.503 262.423 733.317 263.112C732.145 263.788 731.883 264.643 732.531 265.429L732.421 265.498L730.931 264.629L729.276 265.581L738.488 270.876ZM755.588 261.237C757.05 260.396 757.105 259.472 756.746 258.879L756.815 258.838L758.07 259.568L759.752 258.603L753.657 255.087C750.982 253.542 748.431 254.411 747.024 255.211C745.425 256.135 744.625 257.376 745.714 258.672L747.714 257.955C747.314 257.431 747.328 256.7 748.486 256.024C749.603 255.39 750.775 255.404 751.809 256.011L751.851 256.038C752.499 256.41 751.851 256.783 750.444 257.803C748.969 258.893 747.714 260.134 749.796 261.347C751.616 262.382 753.905 262.202 755.588 261.237ZM754.526 260.189C753.547 260.754 752.402 260.892 751.506 260.382C750.554 259.83 751.023 259.155 751.878 258.507C752.361 258.134 753.533 257.279 753.519 256.99L754.705 257.679C755.808 258.314 755.96 259.362 754.526 260.189ZM758.304 253.128C756.843 252.287 756.87 251.294 758.056 250.605C759.228 249.929 760.731 249.984 762.055 250.757L767.682 254.011L769.405 253.018L763.558 249.64C761.283 248.33 758.897 248.33 757.091 249.378C755.767 250.15 755.533 251.019 756.098 251.818L755.988 251.887L754.498 251.019L752.844 251.97L762.028 257.279L763.751 256.286L758.304 253.128ZM774.508 250.315C775.969 249.474 776.025 248.55 775.666 247.957L775.735 247.916L776.99 248.647L778.672 247.681L772.577 244.165C769.902 242.62 767.351 243.489 765.944 244.289C764.344 245.213 763.545 246.454 764.634 247.75L766.634 247.033C766.234 246.509 766.248 245.778 767.406 245.103C768.523 244.455 769.695 244.482 770.729 245.075L770.771 245.103C771.419 245.475 770.771 245.847 769.364 246.868C767.888 247.957 766.634 249.198 768.716 250.412C770.522 251.474 772.825 251.281 774.508 250.315ZM773.446 249.267C772.467 249.833 771.322 249.971 770.426 249.46C769.474 248.909 769.943 248.233 770.798 247.585C771.281 247.213 772.453 246.358 772.439 246.068L773.625 246.757C774.715 247.392 774.88 248.44 773.446 249.267ZM788.298 246.316C790.546 245.02 791.221 243.393 788.849 242.027L779.458 236.608L777.776 237.587L779.265 238.442L779.141 238.511C778.272 238.359 776.618 238.111 774.977 239.063C772.839 240.29 773.018 242.221 775.942 243.903C778.879 245.599 782.037 245.572 784.133 244.358C785.76 243.42 785.429 242.51 785.154 241.986L785.264 241.917L787.07 242.965C788.518 243.793 788.187 244.703 786.877 245.461C785.443 246.289 784.133 246.178 783.306 246.054L782.465 247.268C784.05 247.668 786.188 247.53 788.298 246.316ZM783.016 243.296C781.485 244.179 779.458 243.944 777.652 242.896C775.887 241.876 775.294 240.635 776.852 239.738C778.355 238.87 780.437 239.145 782.299 240.221C784.188 241.31 784.506 242.441 783.016 243.296ZM794.945 238.497C796.875 237.38 797.248 236.029 796.144 234.939L794.214 235.698C794.765 236.374 794.462 237.063 793.483 237.628C792.007 238.483 790.022 238.483 788.215 237.477L794.503 233.85L793.869 233.478C790.546 231.561 787.346 231.919 785.333 233.078C782.865 234.498 783.195 236.567 786.022 238.194C788.877 239.849 792.338 240 794.945 238.497ZM786.891 236.704C785.65 235.918 785.429 234.733 786.836 233.933C788.174 233.16 790.077 233.257 791.483 234.057L786.891 236.704ZM800.474 235.091L802.198 234.098L796.53 230.83C795.289 230.113 795.262 229.134 796.241 228.568C797.192 228.017 798.516 228.017 799.509 228.596L805.618 232.126L807.328 231.133L801.467 227.755C800.364 227.12 800.212 226.279 801.329 225.631C802.24 225.107 803.508 224.983 804.749 225.7L810.748 229.161L812.472 228.168L806.308 224.611C804.212 223.397 802.033 223.452 800.433 224.362C799.164 225.093 798.847 226.017 799.399 226.831L799.302 226.886C797.909 226.527 796.489 226.638 795.303 227.327C794.131 228.003 793.869 228.858 794.517 229.644L794.407 229.713L792.917 228.844L791.263 229.796L800.474 235.091ZM818.788 224.735C820.718 223.618 821.091 222.266 819.987 221.177L818.057 221.935C818.608 222.611 818.305 223.301 817.326 223.866C815.85 224.721 813.865 224.721 812.058 223.714L818.346 220.087L817.712 219.715C814.389 217.798 811.189 218.157 809.176 219.301C806.707 220.722 807.038 222.79 809.865 224.418C812.706 226.086 816.181 226.238 818.788 224.735ZM810.72 222.942C809.479 222.156 809.259 220.97 810.665 220.17C812.003 219.398 813.906 219.495 815.312 220.294L810.72 222.942ZM820.566 217.192C819.105 216.35 819.132 215.357 820.318 214.668C821.49 213.992 822.994 214.047 824.317 214.82L829.944 218.074L831.667 217.081L825.821 213.703C823.545 212.393 821.159 212.393 819.353 213.441C818.029 214.213 817.795 215.082 818.36 215.882L818.25 215.95L816.76 215.082L815.106 216.033L824.29 221.342L826.014 220.349L820.566 217.192ZM828.923 208.049L827.117 209.097L824.91 207.828L823.187 208.821L825.393 210.09L824.097 210.834L825.531 211.662L826.827 210.917L832.247 214.047C833.915 215.013 835.942 214.778 837.266 213.965C837.804 213.648 838.066 213.372 838.19 213.206L836.397 212.531C836.301 212.613 836.149 212.765 835.873 212.93C835.308 213.248 834.619 213.427 833.584 212.834L828.537 209.91L830.344 208.862L828.923 208.049Z" fill="white"/>
<path d="M574.499 707.563L564.085 713.633C561.787 714.972 557.771 714.804 555.119 713.259L523.275 694.702C520.621 693.156 520.334 690.816 522.632 689.477L533.046 683.407C535.344 682.068 539.359 682.236 542.011 683.781L573.853 702.338C576.508 703.884 576.797 706.224 574.499 707.563Z" fill="url(#paint19_linear_34_6289)"/>
<path d="M604.163 690.274L593.749 696.344C591.451 697.683 587.436 697.515 584.783 695.97L541.465 670.724C538.811 669.178 538.524 666.838 540.822 665.5L551.236 659.429C553.534 658.09 557.549 658.258 560.201 659.804L603.52 685.05C606.174 686.595 606.463 688.935 604.163 690.274Z" fill="url(#paint20_linear_34_6289)"/>
<path d="M633.831 672.983L623.416 679.054C621.119 680.392 617.103 680.225 614.451 678.679L554.887 643.965C552.233 642.42 551.946 640.08 554.244 638.741L564.658 632.67C566.956 631.332 570.971 631.499 573.623 633.045L633.185 667.757C635.842 669.304 636.131 671.645 633.831 672.983Z" fill="url(#paint21_linear_34_6289)"/>
<path d="M415.979 193.459C422.64 189.637 429.849 187.425 437.501 186.339C445.161 185.26 453.278 185.328 461.655 186.133C478.409 187.745 496.108 192.342 512.747 196.453C523.848 199.189 534.483 201.712 544.179 202.958C549.718 203.673 554.967 203.962 559.834 203.62C565.388 203.224 570.469 201.955 574.65 199.546C578.289 197.457 580.86 195.389 582.6 193.338C584.339 191.293 585.239 189.264 585.56 187.273C586.2 183.291 584.591 179.492 583.05 175.76C582.02 173.268 580.997 170.806 580.608 168.343C580.09 165.053 580.654 161.778 583.706 158.289C585.46 156.306 588.047 154.239 591.793 152.088C596.141 149.596 601.268 148.327 607.188 147.833C613.101 147.339 619.776 147.65 626.925 148.349C641.252 149.748 657.434 152.704 673.531 153.555C684.265 154.125 694.999 153.745 705.085 151.268C710.845 149.854 716.376 147.757 721.533 144.793L745.161 158.472L549.703 270.881L415.979 193.459Z" fill="url(#paint22_linear_34_6289)"/>
<path d="M721.533 144.788C716.376 147.759 710.845 149.857 705.085 151.27C694.999 153.748 684.258 154.128 673.531 153.558C657.434 152.707 641.252 149.743 626.925 148.352C619.769 147.653 613.101 147.341 607.188 147.835C601.268 148.329 596.141 149.598 591.793 152.091C588.054 154.242 585.46 156.309 583.706 158.292C580.654 161.773 580.097 165.056 580.608 168.346C580.997 170.816 582.02 173.278 583.05 175.763C584.591 179.494 586.2 183.294 585.56 187.276C585.239 189.267 584.339 191.296 582.6 193.34C580.868 195.385 578.289 197.452 574.65 199.549C570.469 201.958 565.388 203.235 559.834 203.622C554.967 203.972 549.718 203.675 544.179 202.961C534.483 201.715 523.848 199.192 512.747 196.456C496.101 192.345 478.409 187.747 461.655 186.136C453.278 185.331 445.161 185.27 437.501 186.341C429.849 187.428 422.632 189.632 415.979 193.462" stroke="url(#paint23_linear_34_6289)" stroke-width="6.41453" stroke-miterlimit="10" stroke-linecap="round" stroke-linejoin="round"/>
<defs>
<filter id="filter0_b_34_6289" x="457.748" y="247.192" width="508.068" height="297.682" filterUnits="userSpaceOnUse" color-interpolation-filters="sRGB">
<feFlood flood-opacity="0" result="BackgroundImageFix"/>
<feGaussianBlur in="BackgroundImage" stdDeviation="2.56581"/>
<feComposite in2="SourceAlpha" operator="in" result="effect1_backgroundBlur_34_6289"/>
<feBlend mode="normal" in="SourceGraphic" in2="effect1_backgroundBlur_34_6289" result="shape"/>
</filter>
<linearGradient id="paint0_linear_34_6289" x1="826.445" y1="783.773" x2="992.65" y2="640.253" gradientUnits="userSpaceOnUse">
<stop stop-color="white"/>
<stop offset="1" stop-color="white" stop-opacity="0"/>
</linearGradient>
<linearGradient id="paint1_linear_34_6289" x1="642.916" y1="741.471" x2="865.556" y2="663.389" gradientUnits="userSpaceOnUse">
<stop/>
<stop offset="1" stop-color="#BCBDC0"/>
</linearGradient>
<linearGradient id="paint2_linear_34_6289" x1="769.719" y1="825.097" x2="651.72" y2="604.317" gradientUnits="userSpaceOnUse">
<stop stop-color="#3C3C3C"/>
<stop offset="1" stop-color="#111111"/>
</linearGradient>
<linearGradient id="paint3_linear_34_6289" x1="857.217" y1="610.505" x2="1079.86" y2="532.423" gradientUnits="userSpaceOnUse">
<stop/>
<stop offset="1" stop-color="#BCBCBC"/>
</linearGradient>
<linearGradient id="paint4_linear_34_6289" x1="984.022" y1="694.132" x2="866.023" y2="473.352" gradientUnits="userSpaceOnUse">
<stop stop-color="#3C3C3C"/>
<stop offset="1" stop-color="#111111"/>
</linearGradient>
<linearGradient id="paint5_linear_34_6289" x1="677.728" y1="607.157" x2="900.368" y2="529.075" gradientUnits="userSpaceOnUse">
<stop/>
<stop offset="1" stop-color="#F3F3F3"/>
</linearGradient>
<linearGradient id="paint6_linear_34_6289" x1="804.533" y1="690.784" x2="686.533" y2="470.003" gradientUnits="userSpaceOnUse">
<stop stop-color="#5571FF"/>
<stop offset="0.0001" stop-color="#505053"/>
<stop offset="1" stop-color="#111111"/>
</linearGradient>
<linearGradient id="paint7_linear_34_6289" x1="813.404" y1="569.247" x2="979.609" y2="425.727" gradientUnits="userSpaceOnUse">
<stop stop-color="white"/>
<stop offset="1" stop-color="white" stop-opacity="0"/>
</linearGradient>
<linearGradient id="paint8_linear_34_6289" x1="723.032" y1="168.013" x2="683.218" y2="580.615" gradientUnits="userSpaceOnUse">
<stop stop-color="#2D2D2D"/>
<stop offset="1" stop-color="#19F08B"/>
</linearGradient>
<linearGradient id="paint9_linear_34_6289" x1="647.464" y1="506.741" x2="892.219" y2="287.685" gradientUnits="userSpaceOnUse">
<stop stop-color="white" stop-opacity="0.74"/>
<stop offset="1" stop-color="white" stop-opacity="0"/>
</linearGradient>
<linearGradient id="paint10_linear_34_6289" x1="645.096" y1="544.647" x2="898.846" y2="338.391" gradientUnits="userSpaceOnUse">
<stop stop-color="white"/>
<stop offset="1" stop-color="white" stop-opacity="0"/>
</linearGradient>
<linearGradient id="paint11_linear_34_6289" x1="645.096" y1="544.647" x2="898.846" y2="338.391" gradientUnits="userSpaceOnUse">
<stop stop-color="white"/>
<stop offset="1" stop-color="white" stop-opacity="0"/>
</linearGradient>
<linearGradient id="paint12_linear_34_6289" x1="645.096" y1="544.647" x2="898.846" y2="338.391" gradientUnits="userSpaceOnUse">
<stop stop-color="white"/>
<stop offset="1" stop-color="white" stop-opacity="0"/>
</linearGradient>
<linearGradient id="paint13_linear_34_6289" x1="645.096" y1="544.647" x2="898.846" y2="338.391" gradientUnits="userSpaceOnUse">
<stop stop-color="white"/>
<stop offset="1" stop-color="white" stop-opacity="0"/>
</linearGradient>
<linearGradient id="paint14_linear_34_6289" x1="447.054" y1="340.307" x2="704.867" y2="414.621" gradientUnits="userSpaceOnUse">
<stop stop-color="#111111"/>
<stop offset="1" stop-color="#B6B6B6"/>
</linearGradient>
<linearGradient id="paint15_linear_34_6289" x1="652.945" y1="482.947" x2="534.946" y2="262.166" gradientUnits="userSpaceOnUse">
<stop stop-color="#716B6B"/>
<stop offset="1" stop-color="#111111"/>
</linearGradient>
<linearGradient id="paint16_linear_34_6289" x1="645.179" y1="337.988" x2="483.09" y2="148.686" gradientUnits="userSpaceOnUse">
<stop stop-color="white"/>
<stop offset="1" stop-color="white" stop-opacity="0"/>
</linearGradient>
<linearGradient id="paint17_linear_34_6289" x1="577.846" y1="175.17" x2="835.659" y2="249.484" gradientUnits="userSpaceOnUse">
<stop stop-color="#111111"/>
<stop offset="1" stop-color="#3C3C3C"/>
</linearGradient>
<linearGradient id="paint18_linear_34_6289" x1="783.737" y1="317.81" x2="665.738" y2="97.0297" gradientUnits="userSpaceOnUse">
<stop offset="0.0001" stop-color="#636363"/>
<stop offset="1" stop-color="#111111"/>
</linearGradient>
<linearGradient id="paint19_linear_34_6289" x1="578.232" y1="641.625" x2="559.278" y2="714.537" gradientUnits="userSpaceOnUse">
<stop stop-color="#19F08B"/>
<stop offset="1" stop-color="#5571FF"/>
</linearGradient>
<linearGradient id="paint20_linear_34_6289" x1="578.232" y1="641.625" x2="559.278" y2="714.537" gradientUnits="userSpaceOnUse">
<stop stop-color="#19F08B"/>
<stop offset="1" stop-color="#5571FF"/>
</linearGradient>
<linearGradient id="paint21_linear_34_6289" x1="578.232" y1="641.625" x2="559.278" y2="714.537" gradientUnits="userSpaceOnUse">
<stop stop-color="#19F08B"/>
<stop offset="1" stop-color="#5571FF"/>
</linearGradient>
<linearGradient id="paint22_linear_34_6289" x1="620.04" y1="171.228" x2="631.759" y2="222.291" gradientUnits="userSpaceOnUse">
<stop stop-color="#19F08B" stop-opacity="0.31"/>
<stop offset="1" stop-color="#242424" stop-opacity="0"/>
</linearGradient>
<linearGradient id="paint23_linear_34_6289" x1="568.756" y1="144.788" x2="568.756" y2="203.769" gradientUnits="userSpaceOnUse">
<stop stop-color="#19F08B"/>
<stop offset="1" stop-color="#5571FF"/>
</linearGradient>
</defs>
</svg>
