<svg width="1440" height="890" viewBox="0 0 1440 890" fill="none" xmlns="http://www.w3.org/2000/svg">
<rect width="1440" height="890" fill="#EBFF09"/>
<rect x="90.6055" y="86.3086" width="1188.15" height="673.858" rx="25" fill="black" stroke="black" stroke-width="10"/>
<rect x="70" y="65" width="1188.15" height="673.858" rx="25" fill="#97FFD3" stroke="black" stroke-width="10"/>
<path d="M135.687 125.577V217.735H152.739V185.511L161.516 176.609L193.74 217.735H214.804L173.177 164.823L212.046 125.577H189.602L157.128 158.428L152.739 180.12V125.577H135.687ZM244.974 150.153C225.665 150.153 211.873 164.948 211.873 185.386C211.873 205.322 224.787 219.616 245.726 219.616C258.014 219.616 268.672 215.102 275.066 205.698L263.531 195.166C260.145 202.689 254.754 206.074 246.228 206.074C237.2 206.074 230.68 201.56 229.176 190.15H275.568C275.944 187.643 275.944 185.887 275.944 183.881C275.944 163.945 263.907 150.153 244.974 150.153ZM229.301 178.615C230.931 168.208 236.824 163.694 244.472 163.694C253.5 163.694 258.641 169.713 258.641 178.615H229.301ZM315.047 150.153C295.738 150.153 281.946 164.948 281.946 185.386C281.946 205.322 294.86 219.616 315.799 219.616C328.087 219.616 338.745 215.102 345.139 205.698L333.604 195.166C330.219 202.689 324.827 206.074 316.301 206.074C307.273 206.074 300.753 201.56 299.249 190.15H345.641C346.017 187.643 346.017 185.887 346.017 183.881C346.017 163.945 333.98 150.153 315.047 150.153ZM299.374 178.615C301.004 168.208 306.897 163.694 314.546 163.694C323.573 163.694 328.714 169.713 328.714 178.615H299.374ZM393.521 219.616C412.956 219.616 426.497 204.82 426.497 185.135C426.497 165.199 412.956 150.153 393.646 150.153C384.117 150.153 376.97 153.789 371.955 159.557V152.535H355.655V244.692H371.955V197.799L376.719 214.976C380.857 217.735 386.123 219.616 393.521 219.616ZM371.453 185.135C371.453 172.847 379.979 164.948 390.386 164.948C401.42 164.948 409.57 173.098 409.57 185.135C409.57 196.921 401.42 204.82 390.386 204.82C379.979 204.82 371.453 197.172 371.453 185.135ZM491.396 150.153C470.958 150.153 456.289 164.447 456.289 184.884C456.289 205.447 470.457 219.616 491.396 219.616C505.941 219.616 517.351 211.591 521.739 201.184L507.696 193.034C505.815 199.554 499.17 204.695 491.396 204.695C480.613 204.695 473.215 197.423 473.215 184.884C473.215 172.346 480.738 165.073 491.396 165.073C499.421 165.073 506.191 169.713 507.696 177.11L522.115 168.71C517.852 158.177 505.815 150.153 491.396 150.153ZM530.488 152.535V217.735H546.787V186.263C546.787 173.474 552.931 166.578 562.21 166.578C565.344 166.578 567.601 166.954 570.61 167.832V151.908C568.354 151.03 566.598 150.905 564.091 150.905C557.445 150.905 552.681 154.416 550.424 156.924L546.787 173.976V152.535H530.488ZM605.659 150.153C586.35 150.153 572.558 164.948 572.558 185.386C572.558 205.322 585.472 219.616 606.412 219.616C618.699 219.616 629.357 215.102 635.752 205.698L624.216 195.166C620.831 202.689 615.439 206.074 606.913 206.074C597.885 206.074 591.366 201.56 589.861 190.15H636.253C636.629 187.643 636.629 185.887 636.629 183.881C636.629 163.945 624.592 150.153 605.659 150.153ZM589.986 178.615C591.616 168.208 597.509 163.694 605.158 163.694C614.185 163.694 619.326 169.713 619.326 178.615H589.986ZM713.348 152.535H697.048V159.306C692.032 153.789 684.885 150.153 675.482 150.153C656.047 150.153 642.631 165.199 642.631 185.135C642.631 204.82 656.172 219.616 675.607 219.616C685.638 219.616 692.534 215.979 697.299 210.463L698.427 194.037L706.075 217.735H723.253L713.348 188.52V152.535ZM659.558 185.135C659.558 173.098 667.708 164.948 678.616 164.948C689.023 164.948 697.675 172.847 697.675 185.135C697.675 197.172 689.023 204.82 678.616 204.82C667.708 204.82 659.558 196.921 659.558 185.135ZM736.699 139.997V152.535H724.913V166.327H736.699V197.673C736.699 213.096 744.724 219.365 759.645 219.365C761.776 219.365 768.296 218.738 770.553 217.86V203.692C768.171 204.193 764.159 204.695 761.902 204.695C755.633 204.695 752.999 202.814 752.999 195.416V166.327H771.306V152.535H752.999V127.709L736.699 139.997ZM780.536 152.535V217.735H796.836V152.535H780.536ZM780.285 141.877H797.212V125.577H780.285V141.877ZM809.1 152.535V217.735H825.4V183.254C825.4 171.844 830.917 165.199 840.446 165.199C849.474 165.199 853.361 170.214 853.361 181.875V217.735H869.661V179.493C869.661 160.434 861.26 150.153 845.712 150.153C837.688 150.153 832.672 152.786 829.036 156.673L825.4 171.468V152.535H809.1ZM930.399 152.535V158.679C925.509 153.413 918.739 150.153 909.962 150.153C890.527 150.153 877.863 164.447 877.863 183.38C877.863 201.936 890.527 216.105 909.962 216.105C916.733 216.105 923.002 213.597 925.886 211.466L930.399 194.539V214.726C930.399 225.885 923.127 232.906 911.341 232.906C901.436 232.906 894.665 228.142 891.781 219.49L877.989 228.267C883.004 240.179 894.54 246.573 911.09 246.573C933.033 246.573 946.699 234.662 946.699 215.854V152.535H930.399ZM894.79 183.38C894.79 172.346 902.188 164.948 913.096 164.948C923.378 164.948 931.026 171.844 931.026 183.38C931.026 194.037 923.378 201.31 913.096 201.31C902.188 201.31 894.79 194.163 894.79 183.38ZM957.537 198.551V217.735H976.721V198.551H957.537ZM126.91 250.577L151.36 342.735H171.672L189.226 277.535L206.654 342.735H226.841L251.417 250.577H233.236L216.058 318.912L198.003 251.831H180.324L162.394 318.912L144.965 250.577H126.91ZM283.912 275.153C264.603 275.153 250.81 289.948 250.81 310.386C250.81 330.322 263.725 344.616 284.664 344.616C296.952 344.616 307.609 340.102 314.004 330.698L302.469 320.166C299.083 327.689 293.692 331.074 285.166 331.074C276.138 331.074 269.618 326.56 268.113 315.15H314.505C314.882 312.643 314.882 310.887 314.882 308.881C314.882 288.945 302.845 275.153 283.912 275.153ZM268.239 303.615C269.869 293.208 275.762 288.694 283.41 288.694C292.438 288.694 297.579 294.713 297.579 303.615H268.239ZM398.188 277.535V283.679C393.298 278.413 386.527 275.153 377.75 275.153C358.315 275.153 345.652 289.447 345.652 308.38C345.652 326.936 358.315 341.105 377.75 341.105C384.521 341.105 390.79 338.597 393.674 336.466L398.188 319.539V339.726C398.188 350.885 390.915 357.906 379.129 357.906C369.224 357.906 362.453 353.142 359.569 344.49L345.777 353.267C350.792 365.179 362.328 371.573 378.878 371.573C400.821 371.573 414.488 359.662 414.488 340.854V277.535H398.188ZM362.579 308.38C362.579 297.346 369.976 289.948 380.885 289.948C391.166 289.948 398.815 296.844 398.815 308.38C398.815 319.037 391.166 326.31 380.885 326.31C369.976 326.31 362.579 319.163 362.579 308.38ZM458.803 275.153C438.365 275.153 423.194 289.572 423.194 309.884C423.194 330.196 438.365 344.616 458.803 344.616C479.241 344.616 494.412 330.196 494.412 309.884C494.412 289.572 479.241 275.153 458.803 275.153ZM440.121 309.884C440.121 297.722 448.02 290.073 458.803 290.073C469.461 290.073 477.485 297.722 477.485 309.884C477.485 322.046 469.461 329.695 458.803 329.695C448.145 329.695 440.121 322.046 440.121 309.884ZM509.671 264.997V277.535H497.885V291.327H509.671V322.673C509.671 338.096 517.695 344.365 532.616 344.365C534.748 344.365 541.268 343.738 543.525 342.86V328.692C541.142 329.193 537.13 329.695 534.873 329.695C528.604 329.695 525.971 327.814 525.971 320.416V291.327H544.277V277.535H525.971V252.709L509.671 264.997ZM571.756 277.535L598.462 341.857L587.429 369.692H605.108L641.845 277.535H623.915L607.365 321.921L590.187 277.535H571.756ZM678.118 275.153C657.68 275.153 642.509 289.572 642.509 309.884C642.509 330.196 657.68 344.616 678.118 344.616C698.555 344.616 713.727 330.196 713.727 309.884C713.727 289.572 698.555 275.153 678.118 275.153ZM659.435 309.884C659.435 297.722 667.335 290.073 678.118 290.073C688.775 290.073 696.8 297.722 696.8 309.884C696.8 322.046 688.775 329.695 678.118 329.695C667.46 329.695 659.435 322.046 659.435 309.884ZM781.02 277.535H764.72V310.511C764.72 322.673 759.579 330.573 749.925 330.573C741.9 330.573 738.013 326.059 738.013 316.906V277.535H721.713V318.912C721.713 334.961 730.992 344.616 745.912 344.616C756.068 344.616 761.335 340.353 764.72 335.337V321.796L771.24 342.735H788.418L781.02 320.291V277.535ZM165.152 400.153C144.715 400.153 130.045 414.447 130.045 434.884C130.045 455.447 144.213 469.616 165.152 469.616C179.697 469.616 191.107 461.591 195.495 451.184L181.452 443.034C179.571 449.554 172.926 454.695 165.152 454.695C154.369 454.695 146.972 447.423 146.972 434.884C146.972 422.346 154.495 415.073 165.152 415.073C173.177 415.073 179.948 419.713 181.452 427.11L195.871 418.71C191.608 408.177 179.571 400.153 165.152 400.153ZM236.217 400.153C215.779 400.153 200.608 414.572 200.608 434.884C200.608 455.196 215.779 469.616 236.217 469.616C256.654 469.616 271.826 455.196 271.826 434.884C271.826 414.572 256.654 400.153 236.217 400.153ZM217.534 434.884C217.534 422.722 225.434 415.073 236.217 415.073C246.874 415.073 254.899 422.722 254.899 434.884C254.899 447.046 246.874 454.695 236.217 454.695C225.559 454.695 217.534 447.046 217.534 434.884ZM272.45 402.535L299.157 467.735H316.334L342.54 402.535H325.111L307.808 448.676L290.38 402.535H272.45ZM376.304 400.153C356.995 400.153 343.203 414.948 343.203 435.386C343.203 455.322 356.117 469.616 377.056 469.616C389.344 469.616 400.002 465.102 406.396 455.698L394.861 445.166C391.476 452.689 386.084 456.074 377.558 456.074C368.53 456.074 362.01 451.56 360.506 440.15H406.898C407.274 437.643 407.274 435.887 407.274 433.881C407.274 413.945 395.237 400.153 376.304 400.153ZM360.631 428.615C362.261 418.208 368.154 413.694 375.803 413.694C384.83 413.694 389.971 419.713 389.971 428.615H360.631ZM416.912 402.535V467.735H433.212V436.263C433.212 423.474 439.356 416.578 448.634 416.578C451.769 416.578 454.026 416.954 457.035 417.832V401.908C454.778 401.03 453.023 400.905 450.515 400.905C443.87 400.905 439.105 404.416 436.848 406.924L433.212 423.976V402.535H416.912ZM492.084 400.153C472.775 400.153 458.982 414.948 458.982 435.386C458.982 455.322 471.897 469.616 492.836 469.616C505.124 469.616 515.781 465.102 522.176 455.698L510.641 445.166C507.255 452.689 501.864 456.074 493.338 456.074C484.31 456.074 477.79 451.56 476.285 440.15H522.677C523.054 437.643 523.054 435.887 523.054 433.881C523.054 413.945 511.017 400.153 492.084 400.153ZM476.411 428.615C478.041 418.208 483.934 413.694 491.582 413.694C500.61 413.694 505.751 419.713 505.751 428.615H476.411ZM599.772 375.577H583.472V409.306C578.457 403.789 571.31 400.153 561.906 400.153C542.472 400.153 529.055 415.199 529.055 435.135C529.055 454.82 542.597 469.616 562.031 469.616C572.062 469.616 578.958 465.979 583.723 460.463L584.851 444.037L592.5 467.735H609.677L599.772 438.646V375.577ZM545.982 435.135C545.982 423.098 554.132 414.948 565.041 414.948C575.448 414.948 584.099 422.847 584.099 435.135C584.099 447.172 575.448 454.82 565.041 454.82C554.132 454.82 545.982 446.921 545.982 435.135ZM614.974 448.551V467.735H634.158V448.551H614.974Z" fill="black"/>
<path d="M134.836 536.457V518.037H141.106V515.457H125.836V518.037H132.106V536.457H134.836ZM151.021 522.267C148.621 522.267 146.941 523.407 146.191 525.177V515.457H143.581V536.457H146.191V529.137C146.191 526.347 147.511 524.517 150.091 524.517C152.581 524.517 153.571 525.987 153.571 529.077V536.457H156.181V527.937C156.181 524.247 154.441 522.267 151.021 522.267ZM172.783 528.777C172.783 524.967 170.143 522.267 166.243 522.267C162.133 522.267 159.433 525.147 159.433 529.527C159.433 533.997 162.103 536.817 166.363 536.817C169.603 536.817 172.153 535.047 172.633 532.497H170.023C169.453 533.817 168.193 534.537 166.363 534.537C163.723 534.537 162.073 532.977 162.013 530.307H172.723C172.783 529.677 172.783 529.287 172.783 528.777ZM162.013 528.297C162.133 525.957 163.693 524.367 166.213 524.367C168.733 524.367 170.233 525.867 170.233 528.297H162.013ZM190.165 517.617C190.705 517.617 191.155 517.707 191.605 517.827V515.607C191.155 515.427 190.405 515.277 189.505 515.277C188.005 515.277 185.095 515.907 185.095 520.227V522.627H182.155V524.817H185.095V536.457H187.705V524.817H191.605V522.627H187.705V520.167C187.705 517.827 189.115 517.617 190.165 517.617ZM195.583 520.257C196.813 520.257 197.683 519.327 197.683 518.157C197.683 516.987 196.813 516.027 195.583 516.027C194.323 516.027 193.453 516.987 193.453 518.157C193.453 519.327 194.323 520.257 195.583 520.257ZM196.873 536.457V522.627H194.293V536.457H196.873ZM203.993 536.457V530.427C203.993 527.337 205.283 524.847 208.013 524.847C208.493 524.847 208.853 524.847 209.303 524.937V522.537C208.973 522.447 208.523 522.417 208.043 522.417C206.303 522.417 204.533 523.437 203.993 525.777V522.627H201.383V536.457H203.993ZM216.403 536.817C219.673 536.817 221.743 535.287 221.743 532.647C221.743 530.727 220.573 529.377 218.533 528.807L215.683 528.027C214.183 527.607 213.673 526.977 213.673 526.107C213.673 524.967 214.723 524.277 216.163 524.277C217.963 524.277 219.013 525.117 219.013 526.437H221.563C221.563 523.857 219.553 522.267 216.253 522.267C213.253 522.267 211.093 523.887 211.093 526.227C211.093 528.147 212.173 529.467 214.213 530.037L217.033 530.757C218.683 531.177 219.103 531.807 219.103 532.737C219.103 533.967 218.083 534.717 216.553 534.717C214.513 534.717 213.253 533.667 213.253 532.317H210.673C210.673 534.867 213.013 536.817 216.403 536.817ZM230.581 534.297C229.261 534.297 228.361 533.937 228.361 531.297V524.817H231.841V522.627H228.361V518.247H225.751V522.627H223.261V524.817H225.751V531.867C225.751 536.337 228.361 536.637 229.981 536.637C230.881 536.637 231.811 536.547 232.321 536.427V534.117C231.931 534.207 231.091 534.297 230.581 534.297ZM244.362 520.257C245.592 520.257 246.462 519.327 246.462 518.157C246.462 516.987 245.592 516.027 244.362 516.027C243.102 516.027 242.232 516.987 242.232 518.157C242.232 519.327 243.102 520.257 244.362 520.257ZM245.652 536.457V522.627H243.072V536.457H245.652ZM252.772 536.457V529.137C252.772 526.347 254.092 524.517 256.672 524.517C259.132 524.517 260.152 525.987 260.152 529.077V536.457H262.732V527.937C262.732 524.247 260.992 522.267 257.602 522.267C255.202 522.267 253.522 523.407 252.772 525.177V522.627H250.162V536.457H252.772ZM271.716 536.817C274.986 536.817 277.056 535.287 277.056 532.647C277.056 530.727 275.886 529.377 273.846 528.807L270.996 528.027C269.496 527.607 268.986 526.977 268.986 526.107C268.986 524.967 270.036 524.277 271.476 524.277C273.276 524.277 274.326 525.117 274.326 526.437H276.876C276.876 523.857 274.866 522.267 271.566 522.267C268.566 522.267 266.406 523.887 266.406 526.227C266.406 528.147 267.486 529.467 269.526 530.037L272.346 530.757C273.996 531.177 274.416 531.807 274.416 532.737C274.416 533.967 273.396 534.717 271.866 534.717C269.826 534.717 268.566 533.667 268.566 532.317H265.986C265.986 534.867 268.326 536.817 271.716 536.817ZM285.672 536.817C287.952 536.817 289.572 535.647 290.322 533.937V536.457H292.932V522.627H290.322V530.187C290.322 532.407 289.242 534.567 286.392 534.567C283.932 534.567 283.032 532.977 283.032 530.547V522.627H280.422V531.147C280.422 534.957 282.582 536.817 285.672 536.817ZM300.028 536.457V530.427C300.028 527.337 301.318 524.847 304.048 524.847C304.528 524.847 304.888 524.847 305.338 524.937V522.537C305.008 522.447 304.558 522.417 304.078 522.417C302.338 522.417 300.568 523.437 300.028 525.777V522.627H297.418V536.457H300.028ZM313.373 536.817C315.443 536.817 317.423 535.737 318.293 534.027V536.457H320.873V522.627H318.293V525.087C317.423 523.377 315.623 522.267 313.433 522.267C309.143 522.267 306.533 525.477 306.533 529.557C306.533 533.637 308.963 536.817 313.373 536.817ZM313.733 534.477C310.883 534.477 309.113 532.377 309.113 529.557C309.113 526.707 310.883 524.607 313.733 524.607C316.763 524.607 318.413 526.887 318.413 529.557C318.413 532.227 316.763 534.477 313.733 534.477ZM327.977 536.457V529.137C327.977 526.347 329.297 524.517 331.877 524.517C334.337 524.517 335.357 525.987 335.357 529.077V536.457H337.937V527.937C337.937 524.247 336.197 522.267 332.807 522.267C330.407 522.267 328.727 523.407 327.977 525.177V522.627H325.367V536.457H327.977ZM348.061 536.817C351.781 536.817 354.181 534.807 354.511 531.777H351.901C351.541 533.517 350.221 534.477 348.031 534.477C345.391 534.477 343.771 532.617 343.771 529.557C343.771 526.467 345.391 524.637 348.031 524.637C350.221 524.637 351.541 525.597 351.901 527.427H354.511C354.181 524.337 351.781 522.297 348.061 522.297C343.801 522.297 341.191 525.267 341.191 529.557C341.191 533.847 343.801 536.817 348.061 536.817ZM370.273 528.777C370.273 524.967 367.633 522.267 363.733 522.267C359.623 522.267 356.923 525.147 356.923 529.527C356.923 533.997 359.593 536.817 363.853 536.817C367.093 536.817 369.643 535.047 370.123 532.497H367.513C366.943 533.817 365.683 534.537 363.853 534.537C361.213 534.537 359.563 532.977 359.503 530.307H370.213C370.273 529.677 370.273 529.287 370.273 528.777ZM359.503 528.297C359.623 525.957 361.183 524.367 363.703 524.367C366.223 524.367 367.723 525.867 367.723 528.297H359.503ZM387.656 517.617C388.196 517.617 388.646 517.707 389.096 517.827V515.607C388.646 515.427 387.896 515.277 386.996 515.277C385.496 515.277 382.586 515.907 382.586 520.227V522.627H379.646V524.817H382.586V536.457H385.196V524.817H389.096V522.627H385.196V520.167C385.196 517.827 386.606 517.617 387.656 517.617ZM397.58 536.817C402.05 536.817 404.78 533.577 404.78 529.557C404.78 525.507 402.05 522.267 397.58 522.267C393.08 522.267 390.38 525.507 390.38 529.557C390.38 533.577 393.08 536.817 397.58 536.817ZM397.58 534.477C394.67 534.477 392.96 532.317 392.96 529.557C392.96 526.767 394.67 524.607 397.58 524.607C400.49 524.607 402.17 526.767 402.17 529.557C402.17 532.317 400.49 534.477 397.58 534.477ZM410.741 536.457V530.427C410.741 527.337 412.031 524.847 414.761 524.847C415.241 524.847 415.601 524.847 416.051 524.937V522.537C415.721 522.447 415.271 522.417 414.791 522.417C413.051 522.417 411.281 523.437 410.741 525.777V522.627H408.131V536.457H410.741ZM437.179 525.087C436.309 523.377 434.509 522.267 432.319 522.267C428.029 522.267 425.419 525.477 425.419 529.557C425.419 533.637 427.849 536.817 432.259 536.817C434.329 536.817 436.309 535.737 437.179 534.027V536.457H439.759V515.457H437.179V525.087ZM432.619 534.477C429.769 534.477 427.999 532.377 427.999 529.557C427.999 526.707 429.769 524.607 432.619 524.607C435.649 524.607 437.299 526.887 437.299 529.557C437.299 532.227 435.649 534.477 432.619 534.477ZM445.544 520.257C446.774 520.257 447.644 519.327 447.644 518.157C447.644 516.987 446.774 516.027 445.544 516.027C444.284 516.027 443.414 516.987 443.414 518.157C443.414 519.327 444.284 520.257 445.544 520.257ZM446.834 536.457V522.627H444.254V536.457H446.834ZM461.994 525.087C461.124 523.317 459.264 522.267 457.134 522.267C453.024 522.267 450.234 525.447 450.234 529.557C450.234 533.637 452.844 536.817 457.074 536.817C459.084 536.817 461.124 535.767 461.994 534.027V536.277C461.994 539.577 460.374 541.017 457.374 541.017C454.734 541.017 453.354 539.817 453.174 538.197H450.444C450.504 539.697 451.254 540.987 452.484 541.857C453.744 542.757 455.514 543.207 457.404 543.207C459.384 543.207 461.004 542.787 462.174 541.917C463.734 540.717 464.574 538.737 464.574 536.097V522.627H461.994V525.087ZM457.434 534.477C454.704 534.477 452.814 532.377 452.814 529.557C452.814 526.707 454.674 524.607 457.434 524.607C460.344 524.607 462.114 526.827 462.114 529.557C462.114 532.257 460.344 534.477 457.434 534.477ZM470.358 520.257C471.588 520.257 472.458 519.327 472.458 518.157C472.458 516.987 471.588 516.027 470.358 516.027C469.098 516.027 468.228 516.987 468.228 518.157C468.228 519.327 469.098 520.257 470.358 520.257ZM471.648 536.457V522.627H469.068V536.457H471.648ZM481.948 534.297C480.628 534.297 479.728 533.937 479.728 531.297V524.817H483.208V522.627H479.728V518.247H477.118V522.627H474.628V524.817H477.118V531.867C477.118 536.337 479.728 536.637 481.348 536.637C482.248 536.637 483.178 536.547 483.688 536.427V534.117C483.298 534.207 482.458 534.297 481.948 534.297ZM492.406 536.817C494.476 536.817 496.456 535.737 497.326 534.027V536.457H499.906V522.627H497.326V525.087C496.456 523.377 494.656 522.267 492.466 522.267C488.176 522.267 485.566 525.477 485.566 529.557C485.566 533.637 487.996 536.817 492.406 536.817ZM492.766 534.477C489.916 534.477 488.146 532.377 488.146 529.557C488.146 526.707 489.916 524.607 492.766 524.607C495.796 524.607 497.446 526.887 497.446 529.557C497.446 532.227 495.796 534.477 492.766 534.477ZM507.01 536.457V515.457H504.4V536.457H507.01ZM524.837 536.817C526.907 536.817 528.887 535.737 529.757 534.027V536.457H532.337V522.627H529.757V525.087C528.887 523.377 527.087 522.267 524.897 522.267C520.607 522.267 517.997 525.477 517.997 529.557C517.997 533.637 520.427 536.817 524.837 536.817ZM525.197 534.477C522.347 534.477 520.577 532.377 520.577 529.557C520.577 526.707 522.347 524.607 525.197 524.607C528.227 524.607 529.877 526.887 529.877 529.557C529.877 532.227 528.227 534.477 525.197 534.477ZM541.452 536.817C544.722 536.817 546.792 535.287 546.792 532.647C546.792 530.727 545.622 529.377 543.582 528.807L540.732 528.027C539.232 527.607 538.722 526.977 538.722 526.107C538.722 524.967 539.772 524.277 541.212 524.277C543.012 524.277 544.062 525.117 544.062 526.437H546.612C546.612 523.857 544.602 522.267 541.302 522.267C538.302 522.267 536.142 523.887 536.142 526.227C536.142 528.147 537.222 529.467 539.262 530.037L542.082 530.757C543.732 531.177 544.152 531.807 544.152 532.737C544.152 533.967 543.132 534.717 541.602 534.717C539.562 534.717 538.302 533.667 538.302 532.317H535.722C535.722 534.867 538.062 536.817 541.452 536.817ZM554.929 536.817C558.199 536.817 560.269 535.287 560.269 532.647C560.269 530.727 559.099 529.377 557.059 528.807L554.209 528.027C552.709 527.607 552.199 526.977 552.199 526.107C552.199 524.967 553.249 524.277 554.689 524.277C556.489 524.277 557.539 525.117 557.539 526.437H560.089C560.089 523.857 558.079 522.267 554.779 522.267C551.779 522.267 549.619 523.887 549.619 526.227C549.619 528.147 550.699 529.467 552.739 530.037L555.559 530.757C557.209 531.177 557.629 531.807 557.629 532.737C557.629 533.967 556.609 534.717 555.079 534.717C553.039 534.717 551.779 533.667 551.779 532.317H549.199C549.199 534.867 551.539 536.817 554.929 536.817ZM576.025 528.777C576.025 524.967 573.385 522.267 569.485 522.267C565.375 522.267 562.675 525.147 562.675 529.527C562.675 533.997 565.345 536.817 569.605 536.817C572.845 536.817 575.395 535.047 575.875 532.497H573.265C572.695 533.817 571.435 534.537 569.605 534.537C566.965 534.537 565.315 532.977 565.255 530.307H575.965C576.025 529.677 576.025 529.287 576.025 528.777ZM565.255 528.297C565.375 525.957 566.935 524.367 569.455 524.367C571.975 524.367 573.475 525.867 573.475 528.297H565.255ZM585.103 534.297C583.783 534.297 582.883 533.937 582.883 531.297V524.817H586.363V522.627H582.883V518.247H580.273V522.627H577.783V524.817H580.273V531.867C580.273 536.337 582.883 536.637 584.503 536.637C585.403 536.637 586.333 536.547 586.843 536.427V534.117C586.453 534.207 585.613 534.297 585.103 534.297ZM594.45 536.817C597.72 536.817 599.79 535.287 599.79 532.647C599.79 530.727 598.62 529.377 596.58 528.807L593.73 528.027C592.23 527.607 591.72 526.977 591.72 526.107C591.72 524.967 592.77 524.277 594.21 524.277C596.01 524.277 597.06 525.117 597.06 526.437H599.61C599.61 523.857 597.6 522.267 594.3 522.267C591.3 522.267 589.14 523.887 589.14 526.227C589.14 528.147 590.22 529.467 592.26 530.037L595.08 530.757C596.73 531.177 597.15 531.807 597.15 532.737C597.15 533.967 596.13 534.717 594.6 534.717C592.56 534.717 591.3 533.667 591.3 532.317H588.72C588.72 534.867 591.06 536.817 594.45 536.817ZM604.614 536.667C605.844 536.667 606.834 535.677 606.834 534.477C606.834 533.277 605.844 532.287 604.614 532.287C603.414 532.287 602.454 533.277 602.454 534.477C602.454 535.677 603.414 536.667 604.614 536.667Z" fill="black"/>
<rect x="1027.78" y="580.808" width="342.534" height="245.107" rx="25" fill="black" stroke="black" stroke-width="10"/>
<rect x="1008.75" y="560.748" width="342.534" height="245.107" rx="25" fill="white" stroke="black" stroke-width="10"/>
<path d="M138.556 668.087C137.686 666.317 135.826 665.267 133.696 665.267C129.586 665.267 126.796 668.447 126.796 672.557C126.796 676.637 129.406 679.817 133.636 679.817C135.646 679.817 137.686 678.767 138.556 677.027V679.277C138.556 682.577 136.936 684.017 133.936 684.017C131.296 684.017 129.916 682.817 129.736 681.197H127.006C127.066 682.697 127.816 683.987 129.046 684.857C130.306 685.757 132.076 686.207 133.966 686.207C135.946 686.207 137.566 685.787 138.736 684.917C140.296 683.717 141.136 681.737 141.136 679.097V665.627H138.556V668.087ZM133.996 677.477C131.266 677.477 129.376 675.377 129.376 672.557C129.376 669.707 131.236 667.607 133.996 667.607C136.906 667.607 138.676 669.827 138.676 672.557C138.676 675.257 136.906 677.477 133.996 677.477ZM157.871 671.777C157.871 667.967 155.231 665.267 151.331 665.267C147.221 665.267 144.521 668.147 144.521 672.527C144.521 676.997 147.191 679.817 151.451 679.817C154.691 679.817 157.241 678.047 157.721 675.497H155.111C154.541 676.817 153.281 677.537 151.451 677.537C148.811 677.537 147.161 675.977 147.101 673.307H157.811C157.871 672.677 157.871 672.287 157.871 671.777ZM147.101 671.297C147.221 668.957 148.781 667.367 151.301 667.367C153.821 667.367 155.321 668.867 155.321 671.297H147.101ZM166.948 677.297C165.628 677.297 164.728 676.937 164.728 674.297V667.817H168.208V665.627H164.728V661.247H162.118V665.627H159.628V667.817H162.118V674.867C162.118 679.337 164.728 679.637 166.348 679.637C167.248 679.637 168.178 679.547 168.688 679.427V677.117C168.298 677.207 167.458 677.297 166.948 677.297ZM180.342 672.767V670.427H171.192V672.767H180.342ZM186.766 679.457V672.137C186.766 669.347 188.086 667.517 190.666 667.517C193.126 667.517 194.146 668.987 194.146 672.077V679.457H196.726V670.937C196.726 667.247 194.986 665.267 191.596 665.267C189.196 665.267 187.516 666.407 186.766 668.177V665.627H184.156V679.457H186.766ZM207.18 679.817C211.65 679.817 214.38 676.577 214.38 672.557C214.38 668.507 211.65 665.267 207.18 665.267C202.68 665.267 199.98 668.507 199.98 672.557C199.98 676.577 202.68 679.817 207.18 679.817ZM207.18 677.477C204.27 677.477 202.56 675.317 202.56 672.557C202.56 669.767 204.27 667.607 207.18 667.607C210.09 667.607 211.77 669.767 211.77 672.557C211.77 675.317 210.09 677.477 207.18 677.477ZM223.403 677.297C222.083 677.297 221.183 676.937 221.183 674.297V667.817H224.663V665.627H221.183V661.247H218.573V665.627H216.083V667.817H218.573V674.867C218.573 679.337 221.183 679.637 222.803 679.637C223.703 679.637 224.633 679.547 225.143 679.427V677.117C224.753 677.207 223.913 677.297 223.403 677.297ZM233.891 679.817C237.611 679.817 240.011 677.807 240.341 674.777H237.731C237.371 676.517 236.051 677.477 233.861 677.477C231.221 677.477 229.601 675.617 229.601 672.557C229.601 669.467 231.221 667.637 233.861 667.637C236.051 667.637 237.371 668.597 237.731 670.427H240.341C240.011 667.337 237.611 665.297 233.891 665.297C229.631 665.297 227.021 668.267 227.021 672.557C227.021 676.847 229.631 679.817 233.891 679.817ZM251.158 665.267C248.758 665.267 247.078 666.407 246.328 668.177V658.457H243.718V679.457H246.328V672.137C246.328 669.347 247.648 667.517 250.228 667.517C252.718 667.517 253.708 668.987 253.708 672.077V679.457H256.318V670.937C256.318 667.247 254.578 665.267 251.158 665.267ZM262.69 679.667C263.92 679.667 264.91 678.677 264.91 677.477C264.91 676.277 263.92 675.287 262.69 675.287C261.49 675.287 260.53 676.277 260.53 677.477C260.53 678.677 261.49 679.667 262.69 679.667ZM274.467 679.817C278.187 679.817 280.587 677.807 280.917 674.777H278.307C277.947 676.517 276.627 677.477 274.437 677.477C271.797 677.477 270.177 675.617 270.177 672.557C270.177 669.467 271.797 667.637 274.437 667.637C276.627 667.637 277.947 668.597 278.307 670.427H280.917C280.587 667.337 278.187 665.297 274.467 665.297C270.207 665.297 267.597 668.267 267.597 672.557C267.597 676.847 270.207 679.817 274.467 679.817ZM290.529 679.817C294.999 679.817 297.729 676.577 297.729 672.557C297.729 668.507 294.999 665.267 290.529 665.267C286.029 665.267 283.329 668.507 283.329 672.557C283.329 676.577 286.029 679.817 290.529 679.817ZM290.529 677.477C287.619 677.477 285.909 675.317 285.909 672.557C285.909 669.767 287.619 667.607 290.529 667.607C293.439 667.607 295.119 669.767 295.119 672.557C295.119 675.317 293.439 677.477 290.529 677.477ZM303.69 679.457V672.257C303.69 669.017 304.98 667.517 307.11 667.517C308.79 667.517 310.08 668.417 310.08 671.417V679.457H312.69V672.257C312.69 668.897 314.04 667.517 316.08 667.517C317.94 667.517 319.08 668.597 319.08 671.207V679.457H321.69V670.697C321.69 667.667 320.43 665.267 316.71 665.267C314.55 665.267 312.84 666.587 312.24 668.237C311.73 666.407 310.26 665.267 307.83 665.267C305.61 665.267 304.2 666.647 303.69 668.147V665.627H301.08V679.457H303.69Z" fill="black"/>
<path d="M1134.23 679.856C1134.67 681.184 1134.94 682.534 1135.05 683.912C1135.19 685.291 1135.27 686.874 1135.27 688.661V710.411H1124V689.812C1124 687.668 1123.8 686.085 1123.4 685.064C1123 683.992 1122.31 683.152 1121.32 682.54C1120.38 681.927 1119.23 681.621 1117.84 681.621C1115.62 681.621 1113.74 682.386 1112.21 683.918C1110.68 685.399 1109.91 687.288 1109.91 689.585V710.416H1098.64V672.504H1109.91V684.219C1110.75 680.492 1112.38 677.479 1114.81 675.182C1117.23 672.884 1120.14 671.738 1123.55 671.738C1126.27 671.738 1128.52 672.481 1130.3 673.956C1132.13 675.443 1133.44 677.406 1134.23 679.856Z" fill="black"/>
<path d="M1159.65 711.182C1155.79 711.182 1152.29 710.365 1149.12 708.731C1146.01 707.047 1143.56 704.726 1141.78 701.765C1140 698.753 1139.11 695.332 1139.11 691.503C1139.11 687.622 1140 684.202 1141.78 681.24C1143.56 678.228 1146.01 675.908 1149.12 674.274C1152.29 672.589 1155.79 671.75 1159.65 671.75C1163.51 671.75 1166.99 672.589 1170.1 674.274C1173.27 675.908 1175.74 678.228 1177.52 681.24C1179.3 684.202 1180.18 687.622 1180.18 691.503C1180.18 695.332 1179.29 698.753 1177.52 701.765C1175.74 704.726 1173.27 707.047 1170.1 708.731C1166.99 710.365 1163.51 711.182 1159.65 711.182ZM1159.65 700.46C1162.17 700.46 1164.22 699.643 1165.8 698.01C1167.39 696.325 1168.18 694.129 1168.18 691.423C1168.18 688.717 1167.36 686.55 1165.73 684.916C1164.15 683.283 1162.12 682.466 1159.65 682.466C1157.13 682.466 1155.05 683.283 1153.42 684.916C1151.84 686.55 1151.05 688.717 1151.05 691.423C1151.05 694.129 1151.84 696.325 1153.42 698.01C1155.05 699.643 1157.13 700.46 1159.65 700.46Z" fill="black"/>
<path d="M1195.29 683.226V693.409C1195.29 695.4 1195.78 696.955 1196.77 698.078C1197.75 699.15 1199.31 699.683 1201.44 699.683H1207V710.405H1199.51C1196.65 710.405 1194.03 709.844 1191.66 708.72C1189.33 707.546 1187.48 705.889 1186.1 703.745C1184.71 701.55 1184.02 698.997 1184.02 696.087V659.411H1195.29V672.504H1207.01V683.226H1195.29Z" fill="black"/>
<path d="M1229.64 711.183C1225.89 711.183 1222.48 710.394 1219.41 708.811C1216.34 707.229 1213.92 704.96 1212.14 701.998C1210.41 698.986 1209.55 695.491 1209.55 691.509C1209.55 687.476 1210.44 683.981 1212.22 681.02C1214 678.007 1216.42 675.71 1219.49 674.127C1222.6 672.544 1226.06 671.756 1229.87 671.756C1233.97 671.756 1238 672.544 1241.96 674.127V685.155C1238.1 683.368 1234.37 682.478 1230.76 682.478C1228.04 682.478 1225.82 683.272 1224.09 684.849C1222.36 686.381 1221.49 688.576 1221.49 691.435C1221.49 694.294 1222.36 696.513 1224.09 698.095C1225.82 699.678 1228.04 700.467 1230.76 700.467C1234.81 700.467 1238.57 699.497 1242.03 697.556V708.585C1238.02 710.315 1233.89 711.183 1229.64 711.183Z" fill="black"/>
<path d="M1282.59 679.856C1283.03 681.183 1283.31 682.533 1283.41 683.912C1283.56 685.291 1283.63 686.873 1283.63 688.66V710.41H1272.36V689.812C1272.36 687.667 1272.16 686.085 1271.76 685.064C1271.36 683.991 1270.67 683.152 1269.69 682.539C1268.74 681.926 1267.59 681.62 1266.2 681.62C1263.98 681.62 1262.1 682.386 1260.57 683.918C1259.04 685.398 1258.27 687.287 1258.27 689.585V710.416H1247V655.888H1258.27V684.224C1259.11 680.497 1260.75 677.485 1263.17 675.187C1265.59 672.889 1268.51 671.744 1271.92 671.744C1274.63 671.744 1276.88 672.487 1278.66 673.962C1280.49 675.442 1281.8 677.405 1282.59 679.856Z" fill="black"/>
<path d="M1088.19 648.233C1088.35 647.149 1089.91 647.149 1090.08 648.233L1090.42 650.512C1091.19 655.588 1094.89 659.727 1099.85 661.049L1101.16 661.396C1102.1 661.648 1102.1 662.991 1101.16 663.243L1099.85 663.591C1094.89 664.912 1091.19 669.051 1090.42 674.128L1090.08 676.406C1089.91 677.49 1088.35 677.49 1088.19 676.406L1087.84 674.128C1087.08 669.051 1083.37 664.912 1078.41 663.591L1077.11 663.243C1076.16 662.991 1076.16 661.648 1077.11 661.396L1078.41 661.049C1083.37 659.727 1087.08 655.588 1087.84 650.512L1088.19 648.233Z" fill="black"/>
</svg>
