<svg width="1440" height="890" viewBox="0 0 1440 890" fill="none" xmlns="http://www.w3.org/2000/svg">
<rect width="1440" height="890" fill="#EBFF09"/>
<path d="M194.073 168.513C194.073 154.785 205.202 143.656 218.93 143.656H1161.97C1175.69 143.656 1186.82 154.785 1186.82 168.513V685.423C1186.82 699.152 1175.69 710.281 1161.97 710.281H218.93C205.202 710.281 194.073 699.152 194.073 685.423V168.513Z" fill="black"/>
<path fill-rule="evenodd" clip-rule="evenodd" d="M1161.97 151.941H218.93C209.778 151.941 202.359 159.361 202.359 168.513V685.423C202.359 694.576 209.778 701.995 218.93 701.995H1161.97C1171.12 701.995 1178.54 694.576 1178.54 685.423V168.513C1178.54 159.361 1171.12 151.941 1161.97 151.941ZM218.93 143.656C205.202 143.656 194.073 154.785 194.073 168.513V685.423C194.073 699.152 205.202 710.281 218.93 710.281H1161.97C1175.69 710.281 1186.82 699.152 1186.82 685.423V168.513C1186.82 154.785 1175.69 143.656 1161.97 143.656H218.93Z" fill="black"/>
<path d="M177 150.857C177 137.129 188.129 126 201.857 126H1144.89C1158.62 126 1169.75 137.129 1169.75 150.857V667.768C1169.75 681.496 1158.62 692.625 1144.89 692.625H201.857C188.129 692.625 177 681.496 177 667.768V150.857Z" fill="#97FFD3"/>
<path fill-rule="evenodd" clip-rule="evenodd" d="M1144.89 134.286H201.857C192.705 134.286 185.286 141.705 185.286 150.857V667.768C185.286 676.92 192.705 684.339 201.857 684.339H1144.89C1154.04 684.339 1161.46 676.92 1161.46 667.768V150.857C1161.46 141.705 1154.04 134.286 1144.89 134.286ZM201.857 126C188.129 126 177 137.129 177 150.857V667.768C177 681.496 188.129 692.625 201.857 692.625H1144.89C1158.62 692.625 1169.75 681.496 1169.75 667.768V150.857C1169.75 137.129 1158.62 126 1144.89 126H201.857Z" fill="black"/>
<path d="M235.569 180.335V256.694H249.698V229.995L256.97 222.619L283.67 256.694H301.124L266.632 212.853L298.838 180.335H280.242L253.334 207.555L249.698 225.527V180.335H235.569Z" fill="black"/>
<path d="M326.121 200.698C310.122 200.698 298.694 212.957 298.694 229.891C298.694 246.409 309.395 258.253 326.744 258.253C336.926 258.253 345.756 254.513 351.055 246.721L341.497 237.994C338.692 244.228 334.225 247.033 327.16 247.033C319.68 247.033 314.278 243.293 313.031 233.839H351.47C351.782 231.761 351.782 230.306 351.782 228.644C351.782 212.126 341.808 200.698 326.121 200.698ZM313.135 224.281C314.486 215.658 319.368 211.918 325.706 211.918C333.186 211.918 337.445 216.905 337.445 224.281H313.135Z" fill="black"/>
<path d="M384.182 200.698C368.183 200.698 356.755 212.957 356.755 229.891C356.755 246.409 367.455 258.253 384.805 258.253C394.986 258.253 403.817 254.513 409.115 246.721L399.557 237.994C396.752 244.228 392.285 247.033 385.221 247.033C377.741 247.033 372.338 243.293 371.092 233.839H409.531C409.842 231.761 409.842 230.306 409.842 228.644C409.842 212.126 399.869 200.698 384.182 200.698ZM371.195 224.281C372.546 215.658 377.429 211.918 383.766 211.918C391.246 211.918 395.506 216.905 395.506 224.281H371.195Z" fill="black"/>
<path d="M449.203 258.253C465.306 258.253 476.526 245.994 476.526 229.683C476.526 213.165 465.306 200.698 449.307 200.698C441.411 200.698 435.489 203.711 431.334 208.49V202.672H417.828V279.031H431.334V240.176L435.282 254.409C438.71 256.694 443.073 258.253 449.203 258.253ZM430.918 229.683C430.918 219.502 437.983 212.957 446.606 212.957C455.748 212.957 462.501 219.71 462.501 229.683C462.501 239.449 455.748 245.994 446.606 245.994C437.983 245.994 430.918 239.656 430.918 229.683Z" fill="black"/>
<path d="M530.299 200.698C513.365 200.698 501.21 212.541 501.21 229.475C501.21 246.513 512.95 258.253 530.299 258.253C542.35 258.253 551.804 251.604 555.441 242.981L543.805 236.228C542.247 241.63 536.74 245.89 530.299 245.89C521.365 245.89 515.235 239.864 515.235 229.475C515.235 219.086 521.469 213.061 530.299 213.061C536.948 213.061 542.558 216.905 543.805 223.034L555.752 216.073C552.22 207.347 542.247 200.698 530.299 200.698Z" fill="black"/>
<path d="M562.689 202.672V256.694H576.195V230.618C576.195 220.021 581.286 214.307 588.973 214.307C591.571 214.307 593.441 214.619 595.934 215.346V202.152C594.064 201.425 592.609 201.321 590.532 201.321C585.026 201.321 581.078 204.23 579.208 206.308L576.195 220.437V202.672H562.689Z" fill="black"/>
<path d="M624.974 200.698C608.975 200.698 597.548 212.957 597.548 229.891C597.548 246.409 608.248 258.253 625.598 258.253C635.779 258.253 644.61 254.513 649.908 246.721L640.35 237.994C637.545 244.228 633.078 247.033 626.013 247.033C618.533 247.033 613.131 243.293 611.884 233.839H650.323C650.635 231.761 650.635 230.306 650.635 228.644C650.635 212.126 640.662 200.698 624.974 200.698ZM611.988 224.281C613.339 215.658 618.222 211.918 624.559 211.918C632.039 211.918 636.298 216.905 636.298 224.281H611.988Z" fill="black"/>
<path d="M714.202 202.672H700.696V208.282C696.541 203.711 690.619 200.698 682.827 200.698C666.724 200.698 655.608 213.165 655.608 229.683C655.608 245.994 666.828 258.253 682.931 258.253C691.242 258.253 696.956 255.24 700.904 250.669L701.839 237.059L708.176 256.694H722.409L714.202 232.488V202.672ZM669.633 229.683C669.633 219.71 676.386 212.957 685.424 212.957C694.047 212.957 701.216 219.502 701.216 229.683C701.216 239.656 694.047 245.994 685.424 245.994C676.386 245.994 669.633 239.449 669.633 229.683Z" fill="black"/>
<path d="M733.55 192.283V202.672H723.785V214.1H733.55V240.072C733.55 252.85 740.199 258.045 752.562 258.045C754.328 258.045 759.731 257.525 761.601 256.798V245.059C759.627 245.474 756.302 245.89 754.432 245.89C749.238 245.89 747.056 244.331 747.056 238.202V214.1H762.224V202.672H747.056V182.102L733.55 192.283Z" fill="black"/>
<path d="M769.872 202.672V256.694H783.378V202.672H769.872ZM769.664 193.841H783.689V180.335H769.664V193.841Z" fill="black"/>
<path d="M793.539 202.672V256.694H807.045V228.125C807.045 218.671 811.616 213.165 819.512 213.165C826.992 213.165 830.212 217.32 830.212 226.982V256.694H843.718V225.008C843.718 209.217 836.757 200.698 823.875 200.698C817.226 200.698 813.071 202.88 810.058 206.1L807.045 218.359V202.672H793.539Z" fill="black"/>
<path d="M894.045 202.672V207.762C889.993 203.399 884.383 200.698 877.11 200.698C861.008 200.698 850.515 212.541 850.515 228.229C850.515 243.604 861.008 255.344 877.11 255.344C882.721 255.344 887.915 253.266 890.304 251.5L894.045 237.475V254.201C894.045 263.447 888.019 269.265 878.253 269.265C870.046 269.265 864.436 265.317 862.046 258.149L850.619 265.421C854.774 275.291 864.332 280.589 878.045 280.589C896.226 280.589 907.55 270.719 907.55 255.136V202.672H894.045ZM864.54 228.229C864.54 219.086 870.669 212.957 879.708 212.957C888.227 212.957 894.564 218.671 894.564 228.229C894.564 237.059 888.227 243.085 879.708 243.085C870.669 243.085 864.54 237.163 864.54 228.229Z" fill="black"/>
<path d="M916.53 240.799V256.694H932.425V240.799H916.53Z" fill="black"/>
<path d="M228.297 283.907L248.555 360.266H265.385L279.93 306.243L294.371 360.266H311.097L331.459 283.907H316.395L302.162 340.527L287.202 284.946H272.554L257.698 340.527L243.257 283.907H228.297Z" fill="black"/>
<path d="M358.384 304.269C342.385 304.269 330.957 316.528 330.957 333.462C330.957 349.981 341.658 361.824 359.007 361.824C369.188 361.824 378.019 358.084 383.317 350.292L373.759 341.566C370.954 347.799 366.487 350.604 359.423 350.604C351.943 350.604 346.54 346.864 345.294 337.41H383.733C384.045 335.332 384.045 333.878 384.045 332.215C384.045 315.697 374.071 304.269 358.384 304.269ZM345.398 327.852C346.748 319.229 351.631 315.489 357.968 315.489C365.448 315.489 369.708 320.476 369.708 327.852H345.398Z" fill="black"/>
<path d="M453.069 306.243V311.334C449.018 306.97 443.408 304.269 436.135 304.269C420.033 304.269 409.54 316.113 409.54 331.8C409.54 347.176 420.033 358.915 436.135 358.915C441.745 358.915 446.94 356.837 449.329 355.071L453.069 341.046V357.772C453.069 367.019 447.044 372.836 437.278 372.836C429.071 372.836 423.461 368.889 421.071 361.72L409.644 368.992C413.799 378.862 423.357 384.16 437.07 384.16C455.251 384.16 466.575 374.291 466.575 358.707V306.243H453.069ZM423.565 331.8C423.565 322.658 429.694 316.528 438.733 316.528C447.252 316.528 453.589 322.242 453.589 331.8C453.589 340.631 447.252 346.656 438.733 346.656C429.694 346.656 423.565 340.734 423.565 331.8Z" fill="black"/>
<path d="M503.294 304.269C486.36 304.269 473.789 316.216 473.789 333.047C473.789 349.877 486.36 361.824 503.294 361.824C520.228 361.824 532.798 349.877 532.798 333.047C532.798 316.216 520.228 304.269 503.294 304.269ZM487.814 333.047C487.814 322.969 494.359 316.632 503.294 316.632C512.124 316.632 518.773 322.969 518.773 333.047C518.773 343.124 512.124 349.461 503.294 349.461C494.463 349.461 487.814 343.124 487.814 333.047Z" fill="black"/>
<path d="M545.441 295.854V306.243H535.676V317.671H545.441V343.643C545.441 356.422 552.09 361.616 564.453 361.616C566.219 361.616 571.621 361.097 573.491 360.37V348.63C571.517 349.046 568.193 349.461 566.323 349.461C561.129 349.461 558.947 347.903 558.947 341.773V317.671H574.115V306.243H558.947V285.673L545.441 295.854Z" fill="black"/>
<path d="M596.883 306.243L619.011 359.538L609.869 382.602H624.517L654.957 306.243H640.101L626.387 343.02L612.155 306.243H596.883Z" fill="black"/>
<path d="M685.011 304.269C668.077 304.269 655.507 316.216 655.507 333.047C655.507 349.877 668.077 361.824 685.011 361.824C701.945 361.824 714.516 349.877 714.516 333.047C714.516 316.216 701.945 304.269 685.011 304.269ZM669.532 333.047C669.532 322.969 676.077 316.632 685.011 316.632C693.842 316.632 700.491 322.969 700.491 333.047C700.491 343.124 693.842 349.461 685.011 349.461C676.181 349.461 669.532 343.124 669.532 333.047Z" fill="black"/>
<path d="M770.273 306.243H756.767V333.566C756.767 343.643 752.508 350.188 744.508 350.188C737.859 350.188 734.639 346.448 734.639 338.864V306.243H721.133V340.527C721.133 353.825 728.821 361.824 741.184 361.824C749.599 361.824 753.962 358.292 756.767 354.136V342.916L762.17 360.266H776.402L770.273 341.669V306.243Z" fill="black"/>
<path d="M259.983 407.84C243.049 407.84 230.894 419.684 230.894 436.618C230.894 453.656 242.634 465.395 259.983 465.395C272.034 465.395 281.488 458.746 285.125 450.124L273.489 443.371C271.931 448.773 266.424 453.032 259.983 453.032C251.049 453.032 244.919 447.007 244.919 436.618C244.919 426.229 251.153 420.203 259.983 420.203C266.632 420.203 272.242 424.047 273.489 430.177L285.436 423.216C281.904 414.489 271.931 407.84 259.983 407.84Z" fill="black"/>
<path d="M318.865 407.84C301.931 407.84 289.36 419.788 289.36 436.618C289.36 453.448 301.931 465.395 318.865 465.395C335.799 465.395 348.37 453.448 348.37 436.618C348.37 419.788 335.799 407.84 318.865 407.84ZM303.386 436.618C303.386 426.541 309.931 420.203 318.865 420.203C327.696 420.203 334.345 426.541 334.345 436.618C334.345 446.695 327.696 453.032 318.865 453.032C310.034 453.032 303.386 446.695 303.386 436.618Z" fill="black"/>
<path d="M348.887 409.814L371.015 463.837H385.248L406.961 409.814H392.52L378.184 448.046L363.743 409.814H348.887Z" fill="black"/>
<path d="M434.937 407.84C418.938 407.84 407.511 420.099 407.511 437.033C407.511 453.552 418.211 465.395 435.561 465.395C445.742 465.395 454.573 461.655 459.871 453.864L450.313 445.137C447.508 451.37 443.041 454.175 435.976 454.175C428.496 454.175 423.094 450.435 421.847 440.981H460.287C460.598 438.903 460.598 437.449 460.598 435.787C460.598 419.268 450.625 407.84 434.937 407.84ZM421.951 431.423C423.302 422.801 428.185 419.061 434.522 419.061C442.002 419.061 446.261 424.047 446.261 431.423H421.951Z" fill="black"/>
<path d="M468.584 409.814V463.837H482.09V437.761C482.09 427.164 487.18 421.45 494.868 421.45C497.465 421.45 499.335 421.762 501.829 422.489V409.295C499.959 408.568 498.504 408.464 496.426 408.464C490.92 408.464 486.972 411.373 485.102 413.45L482.09 427.579V409.814H468.584Z" fill="black"/>
<path d="M530.869 407.84C514.87 407.84 503.442 420.099 503.442 437.033C503.442 453.552 514.143 465.395 531.492 465.395C541.674 465.395 550.504 461.655 555.803 453.864L546.245 445.137C543.44 451.37 538.972 454.175 531.908 454.175C524.428 454.175 519.026 450.435 517.779 440.981H556.218C556.53 438.903 556.53 437.449 556.53 435.787C556.53 419.268 546.556 407.84 530.869 407.84ZM517.883 431.423C519.233 422.801 524.116 419.061 530.453 419.061C537.934 419.061 542.193 424.047 542.193 431.423H517.883Z" fill="black"/>
<path d="M620.096 387.478H606.591V415.424C602.435 410.853 596.513 407.84 588.722 407.84C572.619 407.84 561.503 420.307 561.503 436.826C561.503 453.136 572.723 465.395 588.826 465.395C597.137 465.395 602.851 462.383 606.799 457.811L607.734 444.202L614.071 463.837H628.304L620.096 439.735V387.478ZM575.528 436.826C575.528 426.852 582.281 420.099 591.319 420.099C599.942 420.099 607.11 426.644 607.11 436.826C607.11 446.799 599.942 453.136 591.319 453.136C582.281 453.136 575.528 446.591 575.528 436.826Z" fill="black"/>
<path d="M632.692 447.942V463.837H648.587V447.942H632.692Z" fill="black"/>
<path d="M234.864 520.779V505.516H240.059V503.379H227.407V505.516H232.602V520.779H234.864Z" fill="black"/>
<path d="M248.274 509.021C246.286 509.021 244.894 509.966 244.272 511.432V503.379H242.11V520.779H244.272V514.713C244.272 512.402 245.366 510.885 247.504 510.885C249.567 510.885 250.387 512.103 250.387 514.664V520.779H252.55V513.719C252.55 510.662 251.108 509.021 248.274 509.021Z" fill="black"/>
<path d="M266.306 514.415C266.306 511.258 264.118 509.021 260.887 509.021C257.481 509.021 255.244 511.407 255.244 515.037C255.244 518.74 257.457 521.077 260.986 521.077C263.671 521.077 265.784 519.61 266.181 517.497H264.019C263.547 518.591 262.503 519.188 260.986 519.188C258.799 519.188 257.432 517.895 257.382 515.683H266.256C266.306 515.161 266.306 514.838 266.306 514.415ZM257.382 514.017C257.481 512.079 258.774 510.761 260.862 510.761C262.95 510.761 264.193 512.004 264.193 514.017H257.382Z" fill="black"/>
<path d="M280.708 505.168C281.156 505.168 281.528 505.243 281.901 505.342V503.503C281.528 503.354 280.907 503.229 280.161 503.229C278.919 503.229 276.507 503.751 276.507 507.331V509.319H274.071V511.134H276.507V520.779H278.67V511.134H281.901V509.319H278.67V507.281C278.67 505.342 279.838 505.168 280.708 505.168Z" fill="black"/>
<path d="M285.197 507.356C286.216 507.356 286.937 506.585 286.937 505.616C286.937 504.646 286.216 503.851 285.197 503.851C284.153 503.851 283.432 504.646 283.432 505.616C283.432 506.585 284.153 507.356 285.197 507.356ZM286.266 520.779V509.319H284.128V520.779H286.266Z" fill="black"/>
<path d="M292.165 520.779V515.782C292.165 513.222 293.234 511.159 295.496 511.159C295.894 511.159 296.192 511.159 296.565 511.233V509.245C296.291 509.17 295.919 509.145 295.521 509.145C294.079 509.145 292.613 509.991 292.165 511.929V509.319H290.003V520.779H292.165Z" fill="black"/>
<path d="M302.448 521.077C305.158 521.077 306.873 519.809 306.873 517.622C306.873 516.031 305.903 514.912 304.213 514.44L301.852 513.794C300.609 513.446 300.186 512.924 300.186 512.203C300.186 511.258 301.056 510.687 302.249 510.687C303.741 510.687 304.611 511.383 304.611 512.476H306.724C306.724 510.339 305.058 509.021 302.324 509.021C299.838 509.021 298.048 510.363 298.048 512.302C298.048 513.893 298.943 514.987 300.634 515.459L302.97 516.056C304.337 516.404 304.685 516.926 304.685 517.696C304.685 518.715 303.84 519.337 302.572 519.337C300.882 519.337 299.838 518.467 299.838 517.348H297.7C297.7 519.461 299.639 521.077 302.448 521.077Z" fill="black"/>
<path d="M314.195 518.989C313.102 518.989 312.356 518.691 312.356 516.503V511.134H315.239V509.319H312.356V505.69H310.193V509.319H308.13V511.134H310.193V516.975C310.193 520.679 312.356 520.928 313.698 520.928C314.444 520.928 315.215 520.853 315.637 520.754V518.84C315.314 518.914 314.618 518.989 314.195 518.989Z" fill="black"/>
<path d="M325.614 507.356C326.633 507.356 327.354 506.585 327.354 505.616C327.354 504.646 326.633 503.851 325.614 503.851C324.57 503.851 323.849 504.646 323.849 505.616C323.849 506.585 324.57 507.356 325.614 507.356ZM326.683 520.779V509.319H324.545V520.779H326.683Z" fill="black"/>
<path d="M332.582 520.779V514.713C332.582 512.402 333.676 510.885 335.814 510.885C337.852 510.885 338.697 512.103 338.697 514.664V520.779H340.835V513.719C340.835 510.662 339.393 509.021 336.584 509.021C334.596 509.021 333.204 509.966 332.582 511.432V509.319H330.42V520.779H332.582Z" fill="black"/>
<path d="M348.278 521.077C350.988 521.077 352.703 519.809 352.703 517.622C352.703 516.031 351.734 514.912 350.043 514.44L347.682 513.794C346.439 513.446 346.016 512.924 346.016 512.203C346.016 511.258 346.886 510.687 348.08 510.687C349.571 510.687 350.441 511.383 350.441 512.476H352.554C352.554 510.339 350.888 509.021 348.154 509.021C345.668 509.021 343.879 510.363 343.879 512.302C343.879 513.893 344.774 514.987 346.464 515.459L348.8 516.056C350.168 516.404 350.516 516.926 350.516 517.696C350.516 518.715 349.67 519.337 348.403 519.337C346.712 519.337 345.668 518.467 345.668 517.348H343.531C343.531 519.461 345.47 521.077 348.278 521.077Z" fill="black"/>
<path d="M359.842 521.077C361.732 521.077 363.074 520.107 363.695 518.691V520.779H365.858V509.319H363.695V515.583C363.695 517.423 362.8 519.213 360.439 519.213C358.401 519.213 357.655 517.895 357.655 515.882V509.319H355.492V516.379C355.492 519.536 357.282 521.077 359.842 521.077Z" fill="black"/>
<path d="M371.737 520.779V515.782C371.737 513.222 372.806 511.159 375.068 511.159C375.466 511.159 375.764 511.159 376.137 511.233V509.245C375.863 509.17 375.491 509.145 375.093 509.145C373.651 509.145 372.185 509.991 371.737 511.929V509.319H369.575V520.779H371.737Z" fill="black"/>
<path d="M382.794 521.077C384.509 521.077 386.15 520.182 386.871 518.765V520.779H389.008V509.319H386.871V511.358C386.15 509.941 384.658 509.021 382.844 509.021C379.289 509.021 377.127 511.681 377.127 515.061C377.127 518.442 379.14 521.077 382.794 521.077ZM383.092 519.138C380.731 519.138 379.264 517.398 379.264 515.061C379.264 512.7 380.731 510.96 383.092 510.96C385.603 510.96 386.97 512.849 386.97 515.061C386.97 517.274 385.603 519.138 383.092 519.138Z" fill="black"/>
<path d="M394.895 520.779V514.713C394.895 512.402 395.989 510.885 398.126 510.885C400.165 510.885 401.01 512.103 401.01 514.664V520.779H403.148V513.719C403.148 510.662 401.706 509.021 398.897 509.021C396.908 509.021 395.516 509.966 394.895 511.432V509.319H392.732V520.779H394.895Z" fill="black"/>
<path d="M411.536 521.077C414.618 521.077 416.607 519.411 416.88 516.901H414.717C414.419 518.343 413.325 519.138 411.511 519.138C409.323 519.138 407.981 517.597 407.981 515.061C407.981 512.501 409.323 510.985 411.511 510.985C413.325 510.985 414.419 511.78 414.717 513.297H416.88C416.607 510.736 414.618 509.046 411.536 509.046C408.006 509.046 405.843 511.507 405.843 515.061C405.843 518.616 408.006 521.077 411.536 521.077Z" fill="black"/>
<path d="M429.94 514.415C429.94 511.258 427.753 509.021 424.521 509.021C421.116 509.021 418.879 511.407 418.879 515.037C418.879 518.74 421.091 521.077 424.621 521.077C427.305 521.077 429.418 519.61 429.816 517.497H427.653C427.181 518.591 426.137 519.188 424.621 519.188C422.433 519.188 421.066 517.895 421.017 515.683H429.891C429.94 515.161 429.94 514.838 429.94 514.415ZM421.017 514.017C421.116 512.079 422.409 510.761 424.497 510.761C426.585 510.761 427.827 512.004 427.827 514.017H421.017Z" fill="black"/>
<path d="M444.343 505.168C444.79 505.168 445.163 505.243 445.536 505.342V503.503C445.163 503.354 444.542 503.229 443.796 503.229C442.553 503.229 440.142 503.751 440.142 507.331V509.319H437.706V511.134H440.142V520.779H442.305V511.134H445.536V509.319H442.305V507.281C442.305 505.342 443.473 505.168 444.343 505.168Z" fill="black"/>
<path d="M452.566 521.077C456.27 521.077 458.532 518.392 458.532 515.061C458.532 511.706 456.27 509.021 452.566 509.021C448.837 509.021 446.6 511.706 446.6 515.061C446.6 518.392 448.837 521.077 452.566 521.077ZM452.566 519.138C450.155 519.138 448.738 517.348 448.738 515.061C448.738 512.75 450.155 510.96 452.566 510.96C454.977 510.96 456.369 512.75 456.369 515.061C456.369 517.348 454.977 519.138 452.566 519.138Z" fill="black"/>
<path d="M463.471 520.779V515.782C463.471 513.222 464.539 511.159 466.801 511.159C467.199 511.159 467.497 511.159 467.87 511.233V509.245C467.597 509.17 467.224 509.145 466.826 509.145C465.385 509.145 463.918 509.991 463.471 511.929V509.319H461.308V520.779H463.471Z" fill="black"/>
<path d="M485.377 511.358C484.656 509.941 483.164 509.021 481.35 509.021C477.795 509.021 475.633 511.681 475.633 515.061C475.633 518.442 477.646 521.077 481.3 521.077C483.015 521.077 484.656 520.182 485.377 518.765V520.779H487.514V503.379H485.377V511.358ZM481.598 519.138C479.237 519.138 477.77 517.398 477.77 515.061C477.77 512.7 479.237 510.96 481.598 510.96C484.109 510.96 485.476 512.849 485.476 515.061C485.476 517.274 484.109 519.138 481.598 519.138Z" fill="black"/>
<path d="M492.307 507.356C493.326 507.356 494.047 506.585 494.047 505.616C494.047 504.646 493.326 503.851 492.307 503.851C491.263 503.851 490.542 504.646 490.542 505.616C490.542 506.585 491.263 507.356 492.307 507.356ZM493.376 520.779V509.319H491.238V520.779H493.376Z" fill="black"/>
<path d="M505.937 511.358C505.216 509.891 503.675 509.021 501.91 509.021C498.505 509.021 496.193 511.656 496.193 515.061C496.193 518.442 498.356 521.077 501.861 521.077C503.526 521.077 505.216 520.207 505.937 518.765V520.629C505.937 523.364 504.595 524.557 502.109 524.557C499.922 524.557 498.778 523.563 498.629 522.22H496.367C496.417 523.463 497.038 524.532 498.057 525.253C499.101 525.999 500.568 526.371 502.134 526.371C503.775 526.371 505.117 526.023 506.086 525.303C507.379 524.308 508.075 522.668 508.075 520.48V509.319H505.937V511.358ZM502.159 519.138C499.897 519.138 498.331 517.398 498.331 515.061C498.331 512.7 499.872 510.96 502.159 510.96C504.57 510.96 506.037 512.799 506.037 515.061C506.037 517.299 504.57 519.138 502.159 519.138Z" fill="black"/>
<path d="M512.868 507.356C513.887 507.356 514.608 506.585 514.608 505.616C514.608 504.646 513.887 503.851 512.868 503.851C511.824 503.851 511.103 504.646 511.103 505.616C511.103 506.585 511.824 507.356 512.868 507.356ZM513.937 520.779V509.319H511.799V520.779H513.937Z" fill="black"/>
<path d="M522.471 518.989C521.377 518.989 520.631 518.691 520.631 516.503V511.134H523.515V509.319H520.631V505.69H518.469V509.319H516.406V511.134H518.469V516.975C518.469 520.679 520.631 520.928 521.974 520.928C522.719 520.928 523.49 520.853 523.913 520.754V518.84C523.589 518.914 522.893 518.989 522.471 518.989Z" fill="black"/>
<path d="M531.136 521.077C532.851 521.077 534.491 520.182 535.212 518.765V520.779H537.35V509.319H535.212V511.358C534.491 509.941 533 509.021 531.185 509.021C527.631 509.021 525.468 511.681 525.468 515.061C525.468 518.442 527.482 521.077 531.136 521.077ZM531.434 519.138C529.073 519.138 527.606 517.398 527.606 515.061C527.606 512.7 529.073 510.96 531.434 510.96C533.945 510.96 535.312 512.849 535.312 515.061C535.312 517.274 533.945 519.138 531.434 519.138Z" fill="black"/>
<path d="M543.237 520.779V503.379H541.074V520.779H543.237Z" fill="black"/>
<path d="M558.008 521.077C559.723 521.077 561.363 520.182 562.084 518.765V520.779H564.222V509.319H562.084V511.358C561.363 509.941 559.872 509.021 558.057 509.021C554.503 509.021 552.34 511.681 552.34 515.061C552.34 518.442 554.354 521.077 558.008 521.077ZM558.306 519.138C555.944 519.138 554.478 517.398 554.478 515.061C554.478 512.7 555.944 510.96 558.306 510.96C560.816 510.96 562.184 512.849 562.184 515.061C562.184 517.274 560.816 519.138 558.306 519.138Z" fill="black"/>
<path d="M571.774 521.077C574.483 521.077 576.199 519.809 576.199 517.622C576.199 516.031 575.229 514.912 573.539 514.44L571.177 513.794C569.935 513.446 569.512 512.924 569.512 512.203C569.512 511.258 570.382 510.687 571.575 510.687C573.067 510.687 573.937 511.383 573.937 512.476H576.049C576.049 510.339 574.384 509.021 571.65 509.021C569.164 509.021 567.374 510.363 567.374 512.302C567.374 513.893 568.269 514.987 569.959 515.459L572.296 516.056C573.663 516.404 574.011 516.926 574.011 517.696C574.011 518.715 573.166 519.337 571.898 519.337C570.208 519.337 569.164 518.467 569.164 517.348H567.026C567.026 519.461 568.965 521.077 571.774 521.077Z" fill="black"/>
<path d="M582.94 521.077C585.65 521.077 587.365 519.809 587.365 517.622C587.365 516.031 586.395 514.912 584.705 514.44L582.344 513.794C581.101 513.446 580.678 512.924 580.678 512.203C580.678 511.258 581.548 510.687 582.741 510.687C584.233 510.687 585.103 511.383 585.103 512.476H587.216C587.216 510.339 585.55 509.021 582.816 509.021C580.33 509.021 578.541 510.363 578.541 512.302C578.541 513.893 579.435 514.987 581.126 515.459L583.462 516.056C584.829 516.404 585.177 516.926 585.177 517.696C585.177 518.715 584.332 519.337 583.065 519.337C581.374 519.337 580.33 518.467 580.33 517.348H578.193C578.193 519.461 580.131 521.077 582.94 521.077Z" fill="black"/>
<path d="M600.42 514.415C600.42 511.258 598.233 509.021 595.001 509.021C591.596 509.021 589.359 511.407 589.359 515.037C589.359 518.74 591.571 521.077 595.101 521.077C597.785 521.077 599.898 519.61 600.296 517.497H598.133C597.661 518.591 596.617 519.188 595.101 519.188C592.913 519.188 591.546 517.895 591.497 515.683H600.371C600.42 515.161 600.42 514.838 600.42 514.415ZM591.497 514.017C591.596 512.079 592.889 510.761 594.977 510.761C597.065 510.761 598.307 512.004 598.307 514.017H591.497Z" fill="black"/>
<path d="M607.941 518.989C606.848 518.989 606.102 518.691 606.102 516.503V511.134H608.985V509.319H606.102V505.69H603.939V509.319H601.876V511.134H603.939V516.975C603.939 520.679 606.102 520.928 607.444 520.928C608.19 520.928 608.961 520.853 609.383 520.754V518.84C609.06 518.914 608.364 518.989 607.941 518.989Z" fill="black"/>
<path d="M615.687 521.077C618.396 521.077 620.111 519.809 620.111 517.622C620.111 516.031 619.142 514.912 617.451 514.44L615.09 513.794C613.847 513.446 613.425 512.924 613.425 512.203C613.425 511.258 614.295 510.687 615.488 510.687C616.979 510.687 617.849 511.383 617.849 512.476H619.962C619.962 510.339 618.297 509.021 615.562 509.021C613.077 509.021 611.287 510.363 611.287 512.302C611.287 513.893 612.182 514.987 613.872 515.459L616.209 516.056C617.576 516.404 617.924 516.926 617.924 517.696C617.924 518.715 617.079 519.337 615.811 519.337C614.121 519.337 613.077 518.467 613.077 517.348H610.939C610.939 519.461 612.878 521.077 615.687 521.077Z" fill="black"/>
<path d="M624.108 520.953C625.127 520.953 625.947 520.132 625.947 519.138C625.947 518.144 625.127 517.323 624.108 517.323C623.113 517.323 622.318 518.144 622.318 519.138C622.318 520.132 623.113 520.953 624.108 520.953Z" fill="black"/>
<path d="M970.588 578.24C970.588 564.512 981.717 553.383 995.445 553.383H1237.83C1251.56 553.383 1262.69 564.512 1262.69 578.24V739.9C1262.69 753.628 1251.56 764.757 1237.83 764.757H995.445C981.717 764.757 970.588 753.628 970.588 739.9V578.24Z" fill="black"/>
<path fill-rule="evenodd" clip-rule="evenodd" d="M1237.83 561.669H995.445C986.293 561.669 978.874 569.088 978.874 578.24V739.9C978.874 749.052 986.293 756.471 995.445 756.471H1237.83C1246.98 756.471 1254.4 749.052 1254.4 739.9V578.24C1254.4 569.088 1246.98 561.669 1237.83 561.669ZM995.445 553.383C981.717 553.383 970.588 564.512 970.588 578.24V739.9C970.588 753.628 981.717 764.757 995.445 764.757H1237.83C1251.56 764.757 1262.69 753.628 1262.69 739.9V578.24C1262.69 564.512 1251.56 553.383 1237.83 553.383H995.445Z" fill="black"/>
<path d="M954.817 561.619C954.817 547.891 965.946 536.762 979.675 536.762H1222.06C1235.79 536.762 1246.92 547.891 1246.92 561.619V723.279C1246.92 737.007 1235.79 748.136 1222.06 748.136H979.674C965.946 748.136 954.817 737.007 954.817 723.279V561.619Z" fill="white"/>
<path fill-rule="evenodd" clip-rule="evenodd" d="M1222.06 545.047H979.675C970.522 545.047 963.103 552.467 963.103 561.619V723.279C963.103 732.431 970.522 739.85 979.674 739.85H1222.06C1231.21 739.85 1238.63 732.431 1238.63 723.279V561.619C1238.63 552.467 1231.21 545.047 1222.06 545.047ZM979.675 536.762C965.946 536.762 954.817 547.891 954.817 561.619V723.279C954.817 737.007 965.946 748.136 979.674 748.136H1222.06C1235.79 748.136 1246.92 737.007 1246.92 723.279V561.619C1246.92 547.891 1235.79 536.762 1222.06 536.762H979.675Z" fill="black"/>
<path d="M237.947 629.843C237.226 628.377 235.685 627.507 233.92 627.507C230.515 627.507 228.203 630.142 228.203 633.547C228.203 636.928 230.366 639.563 233.871 639.563C235.536 639.563 237.226 638.693 237.947 637.251V639.115C237.947 641.849 236.605 643.043 234.119 643.043C231.932 643.043 230.788 642.048 230.639 640.706H228.377C228.427 641.949 229.048 643.018 230.067 643.739C231.111 644.484 232.578 644.857 234.144 644.857C235.785 644.857 237.127 644.509 238.096 643.788C239.389 642.794 240.085 641.153 240.085 638.966V627.805H237.947V629.843ZM234.169 637.624C231.907 637.624 230.341 635.884 230.341 633.547C230.341 631.186 231.882 629.446 234.169 629.446C236.58 629.446 238.047 631.285 238.047 633.547C238.047 635.784 236.58 637.624 234.169 637.624Z" fill="black"/>
<path d="M253.951 632.901C253.951 629.744 251.763 627.507 248.532 627.507C245.126 627.507 242.889 629.893 242.889 633.522C242.889 637.226 245.101 639.563 248.631 639.563C251.316 639.563 253.429 638.096 253.826 635.983H251.664C251.191 637.077 250.147 637.673 248.631 637.673C246.444 637.673 245.077 636.381 245.027 634.169H253.901C253.951 633.647 253.951 633.323 253.951 632.901ZM245.027 632.503C245.126 630.564 246.419 629.247 248.507 629.247C250.595 629.247 251.838 630.49 251.838 632.503H245.027Z" fill="black"/>
<path d="M261.472 637.475C260.378 637.475 259.632 637.176 259.632 634.989V629.62H262.516V627.805H259.632V624.176H257.47V627.805H255.407V629.62H257.47V635.461C257.47 639.165 259.632 639.413 260.975 639.413C261.72 639.413 262.491 639.339 262.914 639.239V637.325C262.59 637.4 261.894 637.475 261.472 637.475Z" fill="black"/>
<path d="M272.569 633.721V631.782H264.988V633.721H272.569Z" fill="black"/>
<path d="M277.893 639.264V633.199C277.893 630.887 278.986 629.371 281.124 629.371C283.162 629.371 284.007 630.589 284.007 633.149V639.264H286.145V632.205C286.145 629.147 284.703 627.507 281.894 627.507C279.906 627.507 278.514 628.451 277.893 629.918V627.805H275.73V639.264H277.893Z" fill="black"/>
<path d="M294.807 639.563C298.51 639.563 300.772 636.878 300.772 633.547C300.772 630.191 298.51 627.507 294.807 627.507C291.078 627.507 288.841 630.191 288.841 633.547C288.841 636.878 291.078 639.563 294.807 639.563ZM294.807 637.624C292.395 637.624 290.979 635.834 290.979 633.547C290.979 631.235 292.395 629.446 294.807 629.446C297.218 629.446 298.61 631.235 298.61 633.547C298.61 635.834 297.218 637.624 294.807 637.624Z" fill="black"/>
<path d="M308.249 637.475C307.155 637.475 306.409 637.176 306.409 634.989V629.62H309.293V627.805H306.409V624.176H304.247V627.805H302.184V629.62H304.247V635.461C304.247 639.165 306.409 639.413 307.752 639.413C308.497 639.413 309.268 639.339 309.691 639.239V637.325C309.367 637.4 308.671 637.475 308.249 637.475Z" fill="black"/>
<path d="M316.939 639.563C320.021 639.563 322.009 637.897 322.283 635.387H320.12C319.822 636.828 318.728 637.624 316.914 637.624C314.726 637.624 313.384 636.083 313.384 633.547C313.384 630.987 314.726 629.471 316.914 629.471C318.728 629.471 319.822 630.266 320.12 631.782H322.283C322.009 629.222 320.021 627.532 316.939 627.532C313.409 627.532 311.246 629.993 311.246 633.547C311.246 637.102 313.409 639.563 316.939 639.563Z" fill="black"/>
<path d="M331.245 627.507C329.257 627.507 327.865 628.451 327.243 629.918V621.864H325.081V639.264H327.243V633.199C327.243 630.887 328.337 629.371 330.475 629.371C332.538 629.371 333.358 630.589 333.358 633.149V639.264H335.521V632.205C335.521 629.147 334.079 627.507 331.245 627.507Z" fill="black"/>
<path d="M340.8 639.438C341.82 639.438 342.64 638.618 342.64 637.624C342.64 636.629 341.82 635.809 340.8 635.809C339.806 635.809 339.011 636.629 339.011 637.624C339.011 638.618 339.806 639.438 340.8 639.438Z" fill="black"/>
<path d="M350.559 639.563C353.641 639.563 355.63 637.897 355.903 635.387H353.741C353.442 636.828 352.348 637.624 350.534 637.624C348.346 637.624 347.004 636.083 347.004 633.547C347.004 630.987 348.346 629.471 350.534 629.471C352.348 629.471 353.442 630.266 353.741 631.782H355.903C355.63 629.222 353.641 627.532 350.559 627.532C347.029 627.532 344.867 629.993 344.867 633.547C344.867 637.102 347.029 639.563 350.559 639.563Z" fill="black"/>
<path d="M363.868 639.563C367.571 639.563 369.833 636.878 369.833 633.547C369.833 630.191 367.571 627.507 363.868 627.507C360.139 627.507 357.902 630.191 357.902 633.547C357.902 636.878 360.139 639.563 363.868 639.563ZM363.868 637.624C361.456 637.624 360.04 635.834 360.04 633.547C360.04 631.235 361.456 629.446 363.868 629.446C366.279 629.446 367.671 631.235 367.671 633.547C367.671 635.834 366.279 637.624 363.868 637.624Z" fill="black"/>
<path d="M374.772 639.264V633.299C374.772 630.614 375.841 629.371 377.606 629.371C378.998 629.371 380.067 630.117 380.067 632.603V639.264H382.229V633.299C382.229 630.515 383.348 629.371 385.038 629.371C386.579 629.371 387.524 630.266 387.524 632.429V639.264H389.686V632.006C389.686 629.495 388.642 627.507 385.56 627.507C383.77 627.507 382.354 628.601 381.856 629.968C381.434 628.451 380.216 627.507 378.202 627.507C376.363 627.507 375.195 628.65 374.772 629.893V627.805H372.61V639.264H374.772Z" fill="black"/>
<path d="M1062.93 639.594C1063.3 640.694 1063.53 641.813 1063.61 642.955C1063.73 644.097 1063.79 645.409 1063.79 646.89V664.911H1054.45V647.844C1054.45 646.067 1054.29 644.756 1053.96 643.909C1053.63 643.021 1053.06 642.325 1052.24 641.818C1051.46 641.31 1050.5 641.056 1049.35 641.056C1047.51 641.056 1045.95 641.691 1044.69 642.96C1043.42 644.187 1042.78 645.752 1042.78 647.656V664.916H1033.44V633.503H1042.78V643.209C1043.48 640.121 1044.83 637.625 1046.84 635.721C1048.85 633.818 1051.26 632.868 1054.09 632.868C1056.34 632.868 1058.2 633.484 1059.68 634.706C1061.19 635.938 1062.27 637.564 1062.93 639.594Z" fill="black"/>
<path d="M1083.99 665.55C1080.8 665.55 1077.89 664.873 1075.27 663.52C1072.69 662.123 1070.66 660.201 1069.19 657.747C1067.71 655.251 1066.97 652.417 1066.97 649.244C1066.97 646.029 1067.71 643.195 1069.19 640.741C1070.66 638.245 1072.69 636.323 1075.27 634.969C1077.89 633.573 1080.8 632.877 1083.99 632.877C1087.19 632.877 1090.08 633.573 1092.66 634.969C1095.28 636.323 1097.32 638.245 1098.8 640.741C1100.28 643.195 1101.01 646.029 1101.01 649.244C1101.01 652.417 1100.27 655.251 1098.8 657.747C1097.32 660.201 1095.28 662.123 1092.66 663.52C1090.08 664.873 1087.19 665.55 1083.99 665.55ZM1083.99 656.666C1086.08 656.666 1087.78 655.989 1089.09 654.636C1090.41 653.24 1091.06 651.421 1091.06 649.179C1091.06 646.936 1090.38 645.141 1089.03 643.787C1087.72 642.433 1086.04 641.757 1083.99 641.757C1081.91 641.757 1080.19 642.433 1078.83 643.787C1077.52 645.141 1076.87 646.936 1076.87 649.179C1076.87 651.421 1077.52 653.24 1078.83 654.636C1080.19 655.989 1081.91 656.666 1083.99 656.666Z" fill="black"/>
<path d="M1113.52 642.387V650.824C1113.52 652.474 1113.93 653.762 1114.75 654.692C1115.57 655.581 1116.86 656.023 1118.62 656.023H1123.23V664.906H1117.03C1114.65 664.906 1112.48 664.441 1110.52 663.51C1108.59 662.537 1107.06 661.165 1105.91 659.388C1104.76 657.569 1104.19 655.454 1104.19 653.043V622.654H1113.53V633.503H1123.23V642.387H1113.52Z" fill="black"/>
<path d="M1141.99 665.551C1138.88 665.551 1136.05 664.897 1133.51 663.586C1130.97 662.275 1128.96 660.394 1127.49 657.941C1126.05 655.445 1125.34 652.549 1125.34 649.25C1125.34 645.908 1126.08 643.012 1127.55 640.559C1129.03 638.063 1131.03 636.159 1133.57 634.848C1136.15 633.536 1139.02 632.883 1142.17 632.883C1145.57 632.883 1148.91 633.536 1152.19 634.848V643.985C1149 642.505 1145.9 641.767 1142.91 641.767C1140.66 641.767 1138.82 642.425 1137.39 643.731C1135.95 645.001 1135.24 646.82 1135.24 649.189C1135.24 651.558 1135.95 653.395 1137.39 654.707C1138.82 656.018 1140.66 656.672 1142.91 656.672C1146.27 656.672 1149.39 655.868 1152.25 654.26V663.398C1148.93 664.832 1145.51 665.551 1141.99 665.551Z" fill="black"/>
<path d="M1185.86 639.594C1186.23 640.694 1186.45 641.812 1186.54 642.954C1186.66 644.097 1186.72 645.408 1186.72 646.889V664.91H1177.38V647.843C1177.38 646.066 1177.22 644.755 1176.89 643.909C1176.56 643.02 1175.99 642.325 1175.17 641.817C1174.39 641.309 1173.43 641.056 1172.28 641.056C1170.44 641.056 1168.88 641.69 1167.61 642.959C1166.34 644.186 1165.71 645.751 1165.71 647.655V664.915H1156.37V619.734H1165.71V643.213C1166.41 640.125 1167.76 637.629 1169.77 635.725C1171.77 633.822 1174.19 632.872 1177.01 632.872C1179.27 632.872 1181.13 633.488 1182.6 634.71C1184.12 635.937 1185.2 637.563 1185.86 639.594Z" fill="black"/>
<path d="M1024.78 613.392C1024.92 612.494 1026.21 612.494 1026.35 613.392L1026.63 615.28C1027.27 619.487 1030.34 622.916 1034.45 624.011L1035.53 624.299C1036.31 624.508 1036.31 625.62 1035.53 625.829L1034.45 626.117C1030.34 627.213 1027.27 630.642 1026.63 634.848L1026.35 636.736C1026.21 637.634 1024.92 637.634 1024.78 636.736L1024.5 634.848C1023.86 630.642 1020.79 627.213 1016.68 626.117L1015.6 625.829C1014.82 625.62 1014.82 624.508 1015.6 624.299L1016.68 624.011C1020.79 622.916 1023.86 619.487 1024.5 615.28L1024.78 613.392Z" fill="black"/>
</svg>
