<svg width="110" height="169" viewBox="0 0 110 169" fill="none" xmlns="http://www.w3.org/2000/svg">
<path d="M80.9497 163.897V164.397H81.4497H108.835H109.335V163.897V45.7734V45.2734H108.835H81.4497H80.9497V45.7734V115.642C80.9497 123.954 78.3242 130.535 73.593 135.041C68.8587 139.549 61.9578 142.034 53.304 142.034C44.1727 142.034 38.1173 138.942 34.3302 134.15C30.527 129.339 28.9546 122.742 28.9546 115.642V45.7734V45.2734H28.4546H1.06955H0.569548V45.7734V122.931C0.569548 135.683 3.30673 146.871 9.71235 154.879C16.1338 162.907 26.1809 167.664 40.6257 167.664C50.728 167.664 59.661 165.065 66.7441 159.225C73.2253 153.881 78.1134 145.861 80.9497 134.75V163.897ZM1 0.5H0.5V1V28.1495V28.6495H1H109H109.5V28.1495V1V0.5H109H1Z" stroke="#111111"/>
</svg>
