<svg width="61" height="95" viewBox="0 0 61 95" fill="none" xmlns="http://www.w3.org/2000/svg">
<path fill-rule="evenodd" clip-rule="evenodd" d="M44 93V80.8646C42.3876 84.7925 40.1818 87.8518 37.4772 90.1083C33.4018 93.5085 28.2969 95 22.6474 95C14.5754 95 8.85521 92.266 5.18462 87.5646C1.54794 82.9067 0.037994 76.463 0.037994 69.2431V25H16.9983V65.1638C16.9983 69.0514 17.8412 72.5064 19.7798 74.9702C21.6852 77.392 24.7631 79 29.5735 79C34.168 79 37.7523 77.7016 40.1819 75.3914C42.6045 73.0879 44 69.6639 44 65.1638V25H61V93H44ZM44 77.9195C40.4211 89.2961 32.5305 94 22.6474 94C6.99443 94 1.03799 83.4502 1.03799 69.2431V26H15.9983V65.1638C15.9983 73.1817 19.4614 80 29.5735 80C39.1315 80 45 74.5883 45 65.1638V26H60V92H45V74.0257C44.7182 75.402 44.3839 76.6991 44 77.9195ZM0 0H61V17H0V0ZM1 1V16H60V1H1Z" fill="#111111"/>
</svg>
