<svg width="82" height="99" viewBox="0 0 82 99" fill="none" xmlns="http://www.w3.org/2000/svg">
<path d="M55.3623 66.5117V24.5879H81.5V97.9102H54.9922L55.1602 86.999C52.6152 90.3939 49.2737 93.0999 45.1445 95.1172C40.4792 97.3964 35.1981 98.5 29.3135 98.5C23.452 98.5 18.569 97.4042 14.1826 95.2021V95.2041L14.124 95.1748L14.123 95.1738V95.1719C9.78616 92.9563 6.40956 89.9591 4.04395 86.1455C1.67025 82.3187 0.500001 78.0991 0.5 73.4404V24.5879H26.667V67.8975C26.667 70.7809 27.213 73.3611 28.2959 75.6758C29.3729 77.9779 30.9578 79.7662 33.002 81.1328C35.0277 82.487 37.3983 83.1709 40.1328 83.1709C43.1674 83.1709 45.8376 82.4546 48.1309 81.0352C50.4288 79.6127 52.1912 77.6498 53.4756 75.1025C54.7578 72.5594 55.3623 69.7196 55.3623 66.5117ZM81.5 0.5V16.3301H0.5V0.5H81.5ZM1.5 15.3301H80.5V1.5H1.5V15.3301ZM56.3623 66.5117C56.3623 69.8491 55.732 72.8478 54.3682 75.5527C53.0065 78.2533 51.1222 80.3589 48.6572 81.8848C46.1877 83.4134 43.3309 84.1709 40.1328 84.1709C37.2225 84.1709 34.6532 83.4399 32.4453 81.9639C30.256 80.5002 28.548 78.5734 27.3906 76.0996C26.239 73.638 25.667 70.9107 25.667 67.8975V25.5879H1.5V73.4404C1.5 77.9213 2.62309 81.9574 4.89453 85.6191C7.15979 89.2708 10.4019 92.156 14.6113 94.2998C18.8439 96.4286 23.5756 97.5 29.3135 97.5C35.0713 97.5 40.1976 96.4208 44.7051 94.2188C49.2175 92.0142 52.7336 88.9768 55.2676 85.1074L56.2119 83.6641L56.0078 96.9102H80.5V25.5879H56.3623V66.5117Z" fill="#111111"/>
</svg>
