<svg xmlns:xlink="http://www.w3.org/1999/xlink" xmlns="http://www.w3.org/2000/svg" width="180" height="52" viewBox="0 0 180 52" fill="none">
<path d="M25.4164 50.9775H34.0681V14.0115H25.4164V35.8765C25.4164 41.1462 22.0518 44.2922 16.5243 44.2922C10.6764 44.2922 8.67369 40.3596 8.67369 35.8765V14.0115H0.0219723V38.1574C0.0219723 46.1012 3.46664 52 12.5189 52C18.8475 52 23.654 48.7753 25.3362 40.8316H25.4164V50.9775Z" fill="white"/>
<path d="M48.3443 29.1125C48.3443 23.8429 51.7088 20.6969 57.2363 20.6969C63.0842 20.6969 65.0869 24.6294 65.0869 29.1125V50.9775H73.7386V26.9103C73.7386 18.8879 70.294 13.0677 61.2417 13.0677C54.9132 13.0677 50.1066 16.2924 48.4244 24.1575H48.3443V14.0115H39.6926V50.9775H48.3443V29.1125Z" fill="white"/>
<path d="M95.545 44.2922C88.8159 44.2922 85.7718 40.045 85.7718 32.6518C85.7718 25.0227 88.9761 20.6182 95.545 20.6182C101.713 20.6182 105.559 25.18 105.559 32.2586V32.8878C105.559 40.2023 101.713 44.2922 95.545 44.2922ZM105.559 50.9775H114.21V2.76443H105.559V24.6294H105.478C103.796 17.0003 99.5505 12.9891 92.0203 13.0677C82.5675 12.9891 77.2002 20.3823 77.2002 32.6518C77.2002 44.6068 82.247 52 92.0203 52C99.3101 52 103.716 47.9888 105.398 40.5169H105.559V50.9775Z" fill="white"/>
<path d="M136.944 20.225C142.872 20.225 145.916 23.2137 146.397 28.9552H126.69C127.652 22.9778 131.257 20.225 136.944 20.225ZM137.185 51.9214C147.118 51.9214 152.245 47.045 154.168 39.9664L146.637 37.8428C145.516 41.6181 143.273 44.5282 137.265 44.5282C131.096 44.5282 127.411 41.4608 126.61 35.2473H154.248C154.408 33.281 154.408 31.7867 154.408 30.2923C154.408 20.1463 148.64 13.0677 137.185 13.0677C125.489 13.0677 117.959 20.4609 117.959 32.9664C117.959 45.1574 125.649 51.9214 137.185 51.9214Z" fill="white"/>
<path d="M166.942 50.9775V32.2586C166.942 25.8092 169.586 23.5283 176.315 23.5283H180V14.0115H177.837C172.149 14.0115 168.785 16.5284 167.103 26.1238H166.942V14.0115H158.291V50.9775H166.942Z" fill="white"/>
<path d="M0 0H34.1203V8.49626H0V0Z" fill="white"/>
</svg>