<svg width="304" height="238" viewBox="0 0 304 238" fill="none" xmlns="http://www.w3.org/2000/svg">
<path d="M151.258 92.4854C153.55 63.792 173.217 46.8627 204.303 46.8627C239.337 46.8627 251.335 70.8749 251.335 98.2488V231.756H303.166V84.802C303.166 35.8172 282.529 0.279297 228.299 0.279297C190.386 0.279297 157.979 28.5236 151.513 67.9935C149.967 77.4328 151.258 92.4854 151.258 92.4854Z" fill="black"/>
<path d="M151.907 145.313C149.615 174.006 129.949 190.936 98.8622 190.936C63.8285 190.936 51.8307 166.924 51.8307 139.55V6.04212H0V153.477C0 201.981 20.6362 237.999 74.8665 237.999C112.78 237.999 146.052 209.533 151.653 169.805C152.135 166.385 152.397 161.608 152.397 160.993C152.404 152.043 151.907 145.313 151.907 145.313Z" fill="black"/>
</svg>
