<svg width="1600" height="900" viewBox="0 0 1600 900" fill="none" xmlns="http://www.w3.org/2000/svg">
<rect width="1600" height="900" fill="black"/>
<path d="M158.632 211L173.378 258.956L22.746 305.274L8 257.318L158.632 211ZM184.332 294.58L199.078 342.535L48.4461 388.853L33.7002 340.898L184.332 294.58ZM117.879 315.013L33.7002 340.898L89.1131 284.866L173.378 258.956L117.879 315.013Z" fill="#02903B"/>
<path d="M1231.16 431.993L1158.85 398.605L1299.38 273.336L1371.69 306.725L1231.16 431.993ZM1254.67 359.268L1193.46 399.092L1177.37 217L1249.68 250.389L1254.67 359.268Z" fill="#FDC800"/>
<path d="M1005.66 265.891L938.226 319.28L744.281 297.315L811.712 243.925L1005.66 265.891ZM896.925 351.981L829.424 405.427L852.452 211.669L919.953 158.223L896.925 351.981Z" fill="#FF4B00"/>
<path d="M537.879 376.613H451.871L406 239H492.008L537.879 376.613ZM687.587 376.613H601.669L647.54 239H733.458L687.587 376.613ZM644.046 376.613H586.975L541.373 239H598.443L644.046 376.613ZM552.572 376.613H495.054L541.015 239H598.533L552.572 376.613Z" fill="#FFBFE1"/>
<path d="M1102.47 392.376L1032.4 442.252L997.921 297.877L1067.99 248.001L1102.47 392.376ZM1073.2 413.21L1003.13 463.086L878 383.238L947.997 333.414L1073.2 413.21Z" fill="#8159FB"/>
<path d="M747.21 500.927C734.236 495.729 723.991 489.18 716.476 481.279C708.96 473.378 704.29 464.879 702.465 455.783C700.662 446.632 701.56 437.566 705.158 428.584L738.244 346L818.499 378.153L790.744 447.43C788.767 452.364 787.534 456.889 787.044 461.004C786.553 465.118 787.156 468.834 788.851 472.151C790.568 475.413 793.672 477.943 798.163 479.743C802.654 481.542 806.658 481.988 810.174 481.08C813.691 480.173 816.753 478.15 819.361 475.013C821.969 471.875 824.306 467.729 826.372 462.572L854.427 392.547L860.997 395.179L827.411 479.01C823.568 488.602 817.658 495.885 809.681 500.861C801.726 505.781 792.347 508.233 781.544 508.216C770.797 508.221 759.352 505.791 747.21 500.927ZM803.249 520.289L854.427 392.547L934.349 424.566L883.171 552.309L803.249 520.289Z" fill="#02903B"/>
<path d="M498.442 526.042C492.667 520.245 489.173 513.946 487.961 507.144C486.833 500.342 487.352 493.923 489.517 487.888C491.724 481.81 494.774 476.832 498.667 472.954L543.856 427.932L526.847 410.859L552.488 385.312L569.498 402.385L579.399 392.521L662.571 430.939L630.139 463.251L653.345 486.544L627.704 512.091L604.497 488.798L564.005 529.141C562.905 530.237 562.121 531.439 561.654 532.747C561.229 534.014 561.185 535.323 561.52 536.675C561.855 538.027 562.634 539.317 563.857 540.544L580.993 557.744L555.416 583.227L498.442 526.042Z" fill="#FDC800"/>
<path d="M379.786 460.538C364.495 464.181 345.89 466.003 323.97 466.003C302.169 466.003 284.012 464.181 269.498 460.538C255.164 457.074 244.114 451.788 236.349 444.68C228.704 437.692 224.254 428.912 223 418.34H298.616C299.153 421.386 300.467 423.925 302.558 425.956C304.708 428.046 307.694 429.479 311.517 430.256C315.16 431.152 320.207 431.6 326.658 431.6C332.093 431.6 336.483 431.301 339.828 430.704C343.411 430.166 346.099 429.36 347.891 428.285C348.787 427.688 349.474 427.001 349.952 426.224C350.489 425.448 350.758 424.671 350.758 423.895C350.758 422.581 350.191 421.297 349.056 420.042C347.981 418.848 346.219 417.952 343.77 417.355C341.202 416.638 337.887 416.1 333.825 415.742L295.301 412.158C280.07 410.605 267.318 408.097 257.045 404.633C246.593 400.87 238.708 396.092 233.393 390.298C228.017 384.206 225.329 377.158 225.329 369.154C225.329 359.239 229.122 350.907 236.708 344.158C244.114 337.588 255.163 332.571 269.857 329.107C284.55 325.702 302.349 324 323.253 324C346.428 324 365.152 326.031 379.427 330.092C393.583 334.154 403.976 339.559 410.605 346.308C416.937 353.177 420.46 361.061 421.177 369.961H350.041C349.563 366.676 348.369 364.197 346.458 362.524C344.725 360.613 341.918 359.239 338.036 358.403C334.154 357.567 329.226 357.149 323.253 357.149C318.176 357.149 313.906 357.388 310.442 357.866C307.216 358.403 304.738 359.21 303.006 360.285C301.512 361.539 300.766 362.913 300.766 364.406C300.766 366.138 301.393 367.542 302.647 368.617C304.021 369.632 306.44 370.558 309.904 371.394C313.428 372.051 318.385 372.678 324.776 373.276L355.954 376.232C372.618 377.606 386.356 380.234 397.167 384.116C407.679 387.879 415.354 392.627 420.192 398.361C425.03 403.976 427.449 410.725 427.449 418.609C427.449 428.882 423.387 437.513 415.264 444.501C407.022 451.668 395.196 457.014 379.786 460.538Z" fill="#FF4B00"/>
<path d="M302.995 630.068L288.079 493.266L372.155 484.099L375.972 519.101C375.143 511.501 378.722 502.999 386.709 493.597C394.69 484.135 405.123 478.702 418.007 477.297C421.095 476.96 424.179 476.864 427.259 477.009C430.398 477.148 433.408 477.48 436.29 478.007L443.359 542.846C439.629 541.15 435.275 540.062 430.296 539.584C425.311 539.046 420.71 539.007 416.494 539.466C409.607 540.217 403.59 542.616 398.443 546.662C393.29 550.648 389.418 555.636 386.827 561.627C384.289 567.551 383.43 574.284 384.253 581.825L388.496 620.746L302.995 630.068Z" fill="#FFBFE1"/>
<path d="M202.307 563.88L75.0734 431.676L136.98 372.097L264.213 504.301L202.307 563.88ZM94.6707 480.334C92.0455 482.86 90.4091 485.596 89.7613 488.54C89.072 491.442 89.2911 494.339 90.4184 497.233C91.5458 500.127 93.3726 502.887 95.8991 505.512C98.4255 508.137 101.155 510.112 104.086 511.435C107.019 512.674 109.989 513.09 112.996 512.683C116.005 512.191 118.822 510.682 121.447 508.156C124.029 505.671 125.602 502.955 126.165 500.009C126.728 497.063 126.426 494.121 125.257 491.184C124.09 488.163 122.264 485.361 119.779 482.779C117.294 480.197 114.605 478.308 111.714 477.112C108.823 475.831 105.916 475.438 102.992 475.931C100.027 476.381 97.2528 477.849 94.6707 480.334ZM133.572 566.492C122.555 577.095 111.17 583.783 99.4154 586.557C87.6613 589.331 76.289 588.712 65.2986 584.699C54.3511 580.646 44.3008 573.863 35.1476 564.353C26.0358 554.885 19.6848 544.625 16.0948 533.574C12.5064 522.437 12.344 511.071 15.6076 499.475C18.8711 487.879 26.0115 476.779 37.0285 466.177C48.0025 455.615 59.3872 448.969 71.1827 446.238C82.9799 443.423 94.3944 444.043 105.426 448.098C116.46 452.069 126.532 458.788 135.644 468.256C144.756 477.724 151.085 488.004 154.632 499.097C158.179 510.19 158.3 521.556 154.993 533.193C151.686 544.831 144.546 555.93 133.572 566.492Z" fill="#8159FB"/>
<path d="M1367.97 325.457L1433.99 270.467L1551.43 411.446L1485.41 466.437L1367.97 325.457ZM1480.2 295.288C1477.45 297.581 1475.69 300.177 1474.91 303.075C1474.1 305.928 1474.15 308.88 1475.06 311.931C1475.98 314.898 1477.58 317.759 1479.88 320.512C1482.17 323.266 1484.73 325.408 1487.56 326.938C1490.4 328.384 1493.31 328.988 1496.3 328.752C1499.29 328.515 1502.16 327.25 1504.92 324.957C1507.72 322.625 1509.5 320.01 1510.27 317.111C1511.06 314.129 1510.97 311.131 1510.01 308.118C1509.07 305.021 1507.43 302.072 1505.09 299.273C1502.76 296.473 1500.22 294.355 1497.47 292.916C1494.71 291.478 1491.86 290.942 1488.9 291.309C1485.9 291.629 1483 292.956 1480.2 295.288ZM1561.57 343.413C1549.87 353.161 1538.05 359.04 1526.12 361.049C1514.19 363.058 1502.91 361.69 1492.27 356.947C1481.63 352.203 1472.11 344.784 1463.7 334.687C1455.29 324.591 1449.69 313.861 1446.91 302.496C1444.14 291.048 1444.77 279.634 1448.82 268.256C1452.88 256.793 1460.76 246.188 1472.46 236.439C1484.21 226.653 1496.02 220.775 1507.91 218.804C1519.79 216.833 1531.05 218.262 1541.68 223.089C1552.31 227.833 1561.84 235.253 1570.25 245.349C1578.7 255.491 1584.31 266.244 1587.09 277.609C1589.92 288.935 1589.31 300.287 1585.26 311.666C1581.21 323.044 1573.32 333.627 1561.57 343.413Z" fill="#014ADD"/>
<path d="M1137.1 505.487C1139.58 507.033 1142.3 507.528 1145.25 506.971C1148.23 506.364 1151.1 504.915 1153.86 502.624C1156.71 500.314 1159.2 497.435 1161.35 493.987C1163.43 490.64 1164.86 487.206 1165.65 483.684C1166.46 480.112 1166.47 476.879 1165.67 473.988C1164.95 471.077 1163.34 468.848 1160.86 467.302C1158.37 465.755 1155.69 465.317 1152.81 465.988C1149.96 466.607 1147.19 468.078 1144.47 470.401C1141.84 472.704 1139.46 475.58 1137.31 479.028C1135.13 482.527 1133.56 486.016 1132.59 489.493C1131.71 492.952 1131.59 496.08 1132.24 498.877C1132.94 501.705 1134.56 503.909 1137.1 505.487ZM1187.56 426.091C1206.53 437.894 1220.54 450.308 1229.6 463.332C1238.71 476.389 1243.33 489.254 1243.46 501.929C1243.59 514.604 1240.03 526.773 1232.77 538.436C1225.48 550.15 1216.11 558.772 1204.65 564.302C1193.22 569.782 1179.63 571.318 1163.89 568.911C1148.21 566.535 1130.88 559.446 1111.92 547.644C1092.54 535.589 1078.25 523.001 1069.04 509.882C1059.88 496.794 1055.23 483.913 1055.1 471.238C1055 458.513 1058.6 446.293 1065.89 434.579C1073.11 422.966 1082.52 414.468 1094.1 409.083C1105.71 403.647 1119.44 402.165 1135.28 404.635C1151.12 407.105 1168.54 414.257 1187.56 426.091Z" fill="#02903B"/>
<path d="M1058.27 542.393C1071.75 546.086 1082.67 551.431 1091.03 558.428C1099.4 565.426 1104.99 573.368 1107.82 582.256C1110.67 591.086 1110.81 600.167 1108.26 609.499L1084.75 695.303L1001.37 672.461L1021.08 600.483C1022.49 595.356 1023.2 590.721 1023.22 586.577C1023.24 582.433 1022.21 578.839 1020.14 575.793C1018.08 572.689 1014.71 570.498 1010.05 569.22C1005.38 567.942 1001.35 567.953 997.963 569.254C994.572 570.554 991.759 572.911 989.524 576.324C987.288 579.737 985.437 584.122 983.969 589.48L964.039 662.236L957.213 660.366L981.072 573.266C983.802 563.3 988.84 555.422 996.186 549.631C1003.55 543.783 1012.57 540.246 1023.24 539.022C1033.98 537.814 1045.65 538.937 1058.27 542.393ZM1000.4 529.512L964.039 662.236L881 639.488L917.358 506.765L1000.4 529.512Z" fill="#FDC800"/>
<path d="M1452.2 452.563C1463.13 461.273 1471.05 470.493 1475.98 480.222C1480.9 489.951 1482.91 499.457 1482.01 508.74C1481.14 517.976 1477.69 526.378 1471.66 533.945L1416.22 603.521L1348.6 549.641L1395.11 491.276C1398.43 487.118 1400.91 483.14 1402.56 479.34C1404.21 475.541 1404.69 471.832 1403.98 468.214C1403.31 464.549 1401.09 461.21 1397.3 458.195C1393.52 455.179 1389.81 453.601 1386.18 453.458C1382.55 453.316 1379.04 454.372 1375.64 456.627C1372.24 458.881 1368.81 462.181 1365.35 466.525L1318.33 525.52L1312.8 521.109L1369.08 450.483C1375.52 442.402 1383.26 437.149 1392.29 434.726C1401.36 432.255 1411.04 432.563 1421.34 435.65C1431.68 438.774 1441.97 444.411 1452.2 452.563ZM1404.1 417.899L1318.33 525.52L1251 471.863L1336.76 364.242L1404.1 417.899ZM1550.08 530.563C1561.01 539.274 1568.94 548.493 1573.86 558.222C1578.79 567.951 1580.8 577.457 1579.89 586.74C1579.02 595.976 1575.57 604.378 1569.54 611.945L1514.1 681.521L1446.48 627.641L1492.99 569.276C1496.31 565.119 1498.79 561.14 1500.44 557.341C1502.1 553.541 1502.57 549.832 1501.86 546.214C1501.19 542.55 1498.97 539.21 1495.18 536.195C1491.4 533.18 1487.69 531.601 1484.07 531.459C1480.44 531.316 1476.92 532.373 1473.52 534.627C1470.12 536.882 1466.69 540.181 1463.23 544.525L1416.22 603.521L1410.68 599.11L1466.96 528.483C1473.4 520.402 1481.14 515.15 1490.17 512.726C1499.24 510.255 1508.93 510.563 1519.22 513.65C1529.56 516.774 1539.85 522.412 1550.08 530.563Z" fill="#FF4B00"/>
<path d="M1577.01 694V877.484H1491V694H1577.01Z" fill="#FFBFE1"/>
<path d="M1243.61 669.964L1276.99 595.965L1360.98 566.641L1327.52 640.67L1410.43 695.23L1326.35 724.584L1243.61 669.964ZM1128 599.489L1209.12 571.169L1269.6 744.399L1188.48 772.719L1128 599.489Z" fill="#8159FB"/>
<path d="M1469.26 768.759L1429.42 692.638L1397.43 709.381L1437.27 785.503L1469.26 768.759ZM1388.78 713.91L1428.62 790.031L1285.98 864.692C1281.12 867.24 1275.48 868.64 1269.07 868.893C1262.61 869.173 1256.32 867.714 1250.2 864.514C1244.05 861.396 1239.07 856.212 1235.28 848.962L1202 785.382L1251.13 759.664L1258.24 773.238C1259.04 774.772 1260.04 775.903 1261.23 776.629C1262.42 777.355 1263.7 777.691 1265.09 777.639C1266.43 777.614 1267.78 777.242 1269.16 776.521L1388.78 713.91Z" fill="#02903B"/>
<path d="M1144.13 725.371L1219.25 840.782L1147.09 887.747L1071.97 772.337L1144.13 725.371ZM1119.16 687.001L1138.81 717.186L1066.65 764.152L1047 733.967L1119.16 687.001Z" fill="#FDC800"/>
<path d="M790.375 535.715C804.256 534.088 816.385 534.951 826.761 538.305C837.137 541.66 845.301 546.927 851.255 554.107C857.201 561.228 860.737 569.593 861.863 579.203L872.22 667.563L786.352 677.628L777.664 603.505C777.045 598.226 775.969 593.661 774.435 589.812C772.902 585.962 770.602 583.015 767.535 580.969C764.462 578.863 760.523 578.092 755.718 578.655C750.913 579.219 747.182 580.738 744.526 583.215C741.869 585.691 740.144 588.93 739.35 592.932C738.556 596.934 738.483 601.693 739.13 607.21L747.911 682.134L740.882 682.958L730.369 593.263C729.166 583 730.885 573.808 735.526 565.687C740.159 557.507 747.197 550.849 756.638 545.713C766.138 540.57 777.384 537.237 790.375 535.715ZM726.551 499.897L747.911 682.134L662.399 692.157L641.039 509.92L726.551 499.897Z" fill="#FF4B00"/>
<path d="M964.78 776.472C965.727 779.804 967.302 782.399 969.506 784.256C971.71 786.114 974.289 787.213 977.242 787.554C980.269 787.936 983.448 787.653 986.781 786.706C990.171 785.743 993.052 784.304 995.426 782.387C997.874 780.512 999.576 778.197 1000.53 775.442C1001.54 772.67 1001.58 769.618 1000.63 766.286C999.684 762.953 998.051 760.375 995.732 758.55C993.487 756.766 990.793 755.7 987.652 755.351C984.584 755.043 981.355 755.37 977.965 756.333C974.633 757.28 971.8 758.675 969.468 760.517C967.151 762.417 965.536 764.708 964.621 767.389C963.78 770.112 963.833 773.139 964.78 776.472ZM964.07 881.826C948.098 886.364 933.132 887.232 919.173 884.43C905.156 881.644 892.561 874.139 881.388 861.915C870.232 849.748 861.406 832.231 854.909 809.364C850.061 792.3 847.757 777.09 847.999 763.734C848.256 750.435 851.494 738.339 857.713 727.445C863.931 716.55 873.647 706.711 886.861 697.928L909.657 778.162C905.036 779.599 901.481 781.293 898.992 783.241C896.462 785.264 894.875 787.547 894.232 790.089C893.604 792.689 893.764 795.655 894.711 798.987C895.886 803.124 897.863 806.039 900.642 807.734C903.421 809.428 906.475 810.236 909.807 810.159C913.08 810.098 916.555 809.546 920.232 808.501L941.261 802.526C934.079 798.668 927.848 793.236 922.567 786.23C917.285 779.224 913.192 770.607 910.286 760.381C906.303 746.362 905.764 733.755 908.668 722.561C911.573 711.366 917.182 702.042 925.496 694.588C933.867 687.118 944.114 681.661 956.237 678.217C968.302 674.789 979.83 674.06 990.821 676.028C1001.87 677.981 1011.57 682.955 1019.93 690.95C1028.34 698.929 1034.54 709.928 1038.52 723.946C1041.43 734.173 1042.47 743.626 1041.64 752.305C1040.84 761.041 1038.43 768.959 1034.42 776.058L1050.54 771.479L1073.09 850.852L964.07 881.826Z" fill="#FFBFE1"/>
<path d="M707.1 788.323H683V752.218H707.1V736.629C707.1 731.134 708.474 725.489 711.221 719.696C713.969 713.842 718.15 708.945 723.764 705.003C729.438 701.001 736.367 699 744.55 699H827.064V735.106H800.992C799.26 735.106 797.797 735.464 796.602 736.181C795.408 736.897 794.512 737.883 793.915 739.137C793.317 740.332 793.019 741.705 793.019 743.258V752.218H827.064V788.323H793.019V882.395H707.1V788.323Z" fill="#8159FB"/>
<path d="M429.608 640.333C428.393 643.641 428.592 646.737 430.206 649.62C431.784 652.426 434.185 654.899 437.408 657.037C440.596 659.099 444.17 660.888 448.13 662.406L458.013 635.495C453.844 634.027 449.915 633.029 446.228 632.502C442.484 631.954 439.102 632.24 436.083 633.358C433.063 634.476 430.905 636.801 429.608 640.333ZM431.691 747.708C419.076 743.075 409.037 735.411 401.575 724.717C394.078 713.947 390.019 700.398 389.397 684.072C388.72 667.725 392.17 649.235 399.747 628.603C407.325 607.971 416.631 591.727 427.666 579.873C438.644 567.997 450.408 560.483 462.956 557.328C475.524 554.118 488.144 554.84 500.815 559.493C502.476 560.167 504.138 560.841 505.799 561.515L492.58 597.509L465.616 670.928C470.494 672.719 474.919 673.836 478.893 674.277C482.867 674.719 486.359 674.22 489.369 672.78C492.4 671.284 494.626 668.602 496.046 664.734C497.097 661.874 497.225 659.185 496.432 656.667C495.603 654.072 494.159 651.855 492.098 650.017C490.037 648.178 487.745 646.796 485.222 645.869L514.534 566.059C524.962 573.006 532.608 581.987 537.472 592.999C542.279 603.991 544.288 616.627 543.497 630.907C542.706 645.188 539.222 660.738 533.045 677.558C525.468 698.191 516.159 714.528 505.118 726.572C494.022 738.594 482.158 746.295 469.528 749.674C456.862 752.976 444.25 752.32 431.691 747.708Z" fill="#014ADD"/>
<path d="M679.692 837.216L597.954 863.688L541.42 689.131L623.158 662.658L679.692 837.216ZM564.298 823.452C567.708 822.348 570.32 820.623 572.134 818.278C573.93 815.875 574.955 813.126 575.208 810.031C575.499 806.86 575.093 803.57 573.989 800.161C572.885 796.751 571.285 793.848 569.19 791.45C567.133 788.977 564.673 787.294 561.81 786.4C558.947 785.507 555.81 785.613 552.401 786.717C548.935 787.839 546.284 789.639 544.45 792.117C542.654 794.519 541.619 797.334 541.346 800.562C541.112 803.714 541.556 807.023 542.678 810.49C543.801 813.956 545.372 816.868 547.392 819.228C549.412 821.587 551.872 823.176 554.774 823.994C557.657 824.755 560.832 824.575 564.298 823.452ZM506.687 748.502C521.177 743.81 534.332 742.751 546.153 745.326C557.974 747.902 567.938 753.37 576.045 761.731C584.152 770.092 590.23 780.523 594.279 793.024C598.328 805.525 599.509 817.605 597.823 829.263C596.175 840.847 591.336 851.203 583.306 860.333C575.315 869.388 564.074 876.262 549.584 880.955C535.038 885.666 521.883 886.725 510.118 884.131C498.354 881.537 488.419 876.06 480.311 867.699C472.243 859.262 466.184 848.793 462.135 836.293C458.068 823.735 456.83 811.674 458.421 800.109C460.069 788.525 464.888 778.206 472.88 769.151C480.872 760.097 492.141 753.214 506.687 748.502Z" fill="#02903B"/>
<path d="M119.697 702.427C112.085 690.706 108.463 678.386 108.834 665.469C109.172 652.501 113.909 639.454 123.046 626.327C132.233 613.167 145.943 600.666 164.176 588.824C180.856 577.991 196.656 570.792 211.575 567.227C226.545 563.63 240.07 563.784 252.15 567.689C264.248 571.512 274.413 578.94 282.647 589.973L212.245 635.697C210.353 633.223 208.126 631.001 205.565 629.032C203.022 626.98 200.238 625.654 197.214 625.055C194.239 624.423 191.375 625.001 188.62 626.791C185.214 629.003 183.226 631.754 182.656 635.044C182.136 638.301 182.592 641.744 184.023 645.373C185.421 648.952 187.438 652.77 190.073 656.827C192.676 660.834 195.327 664.204 198.028 666.937C200.729 669.67 203.673 671.461 206.86 672.311C210.097 673.129 213.419 672.431 216.825 670.219C219.881 668.235 221.634 665.671 222.086 662.529C222.588 659.354 222.353 656.196 221.38 653.053C220.375 649.86 219.077 646.821 217.488 643.936L288.041 598.114C294.52 609.076 297.486 620.717 296.941 633.036C296.445 645.322 291.697 657.914 282.696 670.811C273.694 683.708 260.002 696.126 241.619 708.065C223.386 719.907 206.39 727.349 190.632 730.39C174.923 733.399 161.093 732.446 149.141 727.531C137.157 722.566 127.342 714.198 119.697 702.427Z" fill="#FDC800"/>
<path d="M381.567 697.111L291.637 857.045L216.746 814.934L306.676 655L381.567 697.111ZM332.583 824.257C335.759 826.043 338.835 826.848 341.812 826.672C344.818 826.443 347.545 825.373 349.991 823.459C352.437 821.546 354.554 819.001 356.339 815.825C358.125 812.649 359.188 809.479 359.529 806.313C359.952 803.124 359.494 800.16 358.157 797.421C356.9 794.659 354.684 792.385 351.509 790.599C348.385 788.843 345.331 788.119 342.348 788.429C339.364 788.738 336.594 789.887 334.037 791.876C331.561 793.841 329.445 796.386 327.689 799.51C325.932 802.633 324.858 805.763 324.464 808.9C324.153 812.014 324.639 814.926 325.925 817.636C327.24 820.294 329.459 822.501 332.583 824.257ZM403.876 762.177C417.203 769.672 426.889 778.647 432.933 789.103C438.976 799.559 441.634 810.613 440.907 822.264C440.233 833.944 436.66 845.537 430.191 857.043C423.75 868.497 415.715 877.546 406.086 884.192C396.538 890.814 385.741 894.234 373.696 894.45C361.652 894.667 348.965 891.028 335.637 883.534C322.362 876.069 312.676 867.094 306.58 856.609C300.566 846.1 297.87 834.991 298.493 823.282C299.197 811.549 302.77 799.956 309.21 788.502C315.65 777.049 323.671 768.025 333.271 761.432C342.871 754.839 353.72 751.449 365.817 751.261C377.913 751.074 390.6 754.713 403.876 762.177Z" fill="#FF4B00"/>
<path d="M137.756 848.616C135.452 854.617 132.654 859.747 129.361 864.007C126.056 868.208 122.102 871.816 117.5 874.832C112.944 877.776 107.401 880.538 100.871 883.117C89.0445 887.761 77.8097 890.628 67.1666 891.715C56.5819 892.79 47.0423 891.499 38.5476 887.842C30.0403 884.127 23.4486 877.551 18.7725 868.114C14.5914 858.143 13.2266 849.18 14.6783 841.225C16.13 833.27 20.4272 826.317 27.57 820.366C34.7128 814.415 44.743 809.519 57.6607 805.676C69.3653 802.158 81.5911 799.352 94.3381 797.257C107.131 795.092 117.562 793.592 125.632 792.757L123.865 784.615C122.94 780.354 121.499 777.091 119.54 774.827C117.64 772.55 115.438 771.134 112.934 770.577C110.475 769.949 107.845 769.94 105.043 770.548C100.536 771.465 97.3545 773.561 95.4984 776.836C93.6423 780.112 93.1751 784.858 94.0966 791.076L10.8333 809.147C8.14856 793.961 13.3285 780.796 26.3729 769.653C39.4174 758.51 61.7576 749.505 93.3936 742.639C122.286 736.368 144.294 734.281 159.418 736.377C174.528 738.415 184.457 742.341 189.202 748.157C193.936 753.913 197.102 760.897 198.7 769.106L199.498 772.784L217.74 856.835L143.057 873.044L137.756 848.616ZM119.496 838.828C120.963 838.265 122.302 837.394 123.512 836.214C124.769 834.964 125.881 833.469 126.848 831.731C127.625 830.524 128.173 829.244 128.49 827.891C128.854 826.468 129 825.03 128.929 823.579C128.917 822.115 128.746 820.624 128.417 819.106L127.087 812.977C123.839 813.499 120.47 814.169 116.98 814.988C113.491 815.806 110.763 816.612 108.796 817.406C105.641 818.64 103.058 820.118 101.048 821.838C99.0961 823.545 97.8457 825.527 97.2968 827.786C96.7479 830.044 97.1112 832.563 98.3867 835.342C99.3224 837.4 100.87 838.898 103.029 839.835C105.246 840.759 107.771 841.128 110.603 840.941C113.494 840.742 116.458 840.037 119.496 838.828Z" fill="#FFBFE1"/>
<circle cx="55" cy="691.5" r="48.5" fill="#02903B"/>
<circle cx="55" cy="691.5" r="25.5972" stroke="#014ADD" stroke-width="45.8056" stroke-dasharray="15.6 15.6"/>
<circle cx="601.5" cy="614.5" r="48.5" fill="#FFBFE1"/>
<circle cx="601.5" cy="614.5" r="25.5972" stroke="#FF4B00" stroke-width="45.8056" stroke-dasharray="15.6 15.6"/>
<circle cx="1436.5" cy="843.5" r="48.5" transform="rotate(-18.3718 1436.5 843.5)" fill="#FFBFE1"/>
<circle cx="1436.5" cy="843.5" r="25.5972" transform="rotate(-18.3718 1436.5 843.5)" stroke="#FF4B00" stroke-width="45.8056" stroke-dasharray="15.6 15.6"/>
<circle cx="1133.31" cy="300.314" r="48.5" transform="rotate(-18.3718 1133.31 300.314)" fill="#02903B"/>
<circle cx="1133.31" cy="300.314" r="25.5972" transform="rotate(-18.3718 1133.31 300.314)" stroke="#014ADD" stroke-width="45.8056" stroke-dasharray="15.6 15.6"/>
<circle cx="233.314" cy="282.314" r="48.5" transform="rotate(-18.3718 233.314 282.314)" fill="#FFBFE1"/>
<circle cx="233.314" cy="282.314" r="25.5972" transform="rotate(-18.3718 233.314 282.314)" stroke="#FF4B00" stroke-width="45.8056" stroke-dasharray="15.6 15.6"/>
</svg>
