<svg width="108" height="32" viewBox="0 0 108 32" fill="none" xmlns="http://www.w3.org/2000/svg">
<path d="M15.9586 31.1306H21.1042V8.73775H15.9586V21.9829C15.9586 25.1751 13.9576 27.0808 10.6701 27.0808C7.19206 27.0808 6.00095 24.6986 6.00095 21.9829V8.73775H0.855353V23.3646C0.855353 28.1767 2.90406 31.75 8.28788 31.75C12.0518 31.75 14.9105 29.7966 15.911 24.9845H15.9586V31.1306Z" fill="white"/>
<path d="M29.595 17.8855C29.595 14.6933 31.596 12.7875 34.8835 12.7875C38.3616 12.7875 39.5527 15.1697 39.5527 17.8855V31.1306H44.6983V16.5514C44.6983 11.6917 42.6496 8.16602 37.2657 8.16602C33.5018 8.16602 30.6432 10.1194 29.6426 14.8839H29.595V8.73775H24.4494V31.1306H29.595V17.8855Z" fill="white"/>
<path d="M57.6676 27.0808C53.6655 27.0808 51.855 24.5081 51.855 20.0295C51.855 15.408 53.7607 12.7399 57.6676 12.7399C61.3362 12.7399 63.6231 15.5033 63.6231 19.7913V20.1724C63.6231 24.6033 61.3362 27.0808 57.6676 27.0808ZM63.6231 31.1306H68.7687V1.9246H63.6231V15.1697H63.5755C62.575 10.5482 60.0498 8.11838 55.5712 8.16602C49.9492 8.11838 46.757 12.5969 46.757 20.0295C46.757 27.2714 49.7586 31.75 55.5712 31.75C59.9069 31.75 62.5273 29.3201 63.5278 24.7939H63.6231V31.1306Z" fill="white"/>
<path d="M82.2897 12.5017C85.8154 12.5017 87.6259 14.3121 87.9117 17.7902H76.1912C76.7629 14.1692 78.9069 12.5017 82.2897 12.5017ZM82.4326 31.7024C88.3405 31.7024 91.3898 28.7484 92.5332 24.4604L88.0547 23.174C87.3876 25.4609 86.0536 27.2238 82.4803 27.2238C78.8116 27.2238 76.62 25.3656 76.1436 21.6017H92.5809C92.6762 20.4106 92.6762 19.5054 92.6762 18.6001C92.6762 12.454 89.2458 8.16602 82.4326 8.16602C75.4765 8.16602 70.998 12.6446 70.998 20.2201C70.998 27.6049 75.5718 31.7024 82.4326 31.7024Z" fill="white"/>
<path d="M100.131 31.1306V19.7913C100.131 15.8844 101.703 14.5027 105.705 14.5027H107.897V8.73775H106.611C103.228 8.73775 101.227 10.2624 100.226 16.075H100.131V8.73775H94.9854V31.1306H100.131Z" fill="white"/>
<path d="M0.842285 0.25H21.1353V5.39677H0.842285V0.25Z" fill="white"/>
</svg>
