<svg width="86" height="133" viewBox="0 0 86 133" fill="none" xmlns="http://www.w3.org/2000/svg">
<path d="M63.072 128.57V129.07H63.572H84.8715H85.3715V128.57V36.0635V35.5635H84.8715H63.572H63.072V36.0635V90.7802C63.072 97.2668 61.0375 102.391 57.3834 105.894C53.7266 109.401 48.3898 111.34 41.6809 111.34C34.6076 111.34 29.9329 108.93 27.0117 105.208C24.0741 101.466 22.8536 96.3274 22.8536 90.7802V36.0635V35.5635H22.3536H1.05409H0.554093V36.0635V96.488C0.554093 106.487 2.68526 115.276 7.68846 121.574C12.7078 127.892 20.5576 131.629 31.82 131.629C39.6973 131.629 46.6727 129.587 52.2062 124.994C57.1057 120.926 60.8335 114.893 63.072 106.606V128.57ZM1 0.5H0.5V1V22.2617V22.7617H1H85H85.5V22.2617V1V0.5H85H1Z" stroke="#111111"/>
</svg>
