<svg width="144" height="145" viewBox="0 0 144 145" fill="none" xmlns="http://www.w3.org/2000/svg">
<path d="M109.982 26.5765V40.6421H33.9824V26.5765H109.982ZM46.7189 115.5C42.641 113.431 39.4848 110.635 37.2783 107.083C35.0717 103.532 33.9824 99.6172 33.9824 95.2829V49.4227H57.8913V90.0257C57.8913 92.8221 58.422 95.3388 59.4833 97.6038C60.5447 99.8689 62.1088 101.631 64.1199 102.973C66.1309 104.315 68.4771 104.986 71.1585 104.986C74.1191 104.986 76.7446 104.287 79.007 102.889C81.2694 101.491 83.0012 99.5613 84.2581 97.0725C85.5149 94.5838 86.1015 91.8154 86.1015 88.7114V49.4227H89.6208V93.8847C89.6208 98.6105 88.3918 102.861 85.9339 106.608C83.476 110.355 80.0684 113.291 75.7112 115.417C71.354 117.542 66.4102 118.576 60.8799 118.576C55.3496 118.576 50.7689 117.542 46.6631 115.473L46.7189 115.5ZM86.1294 118.017V49.4227H109.982V118.017H86.1294Z" fill="#111111"/>
</svg>
