<svg width="350" height="100" viewBox="0 0 350 100" fill="none" xmlns="http://www.w3.org/2000/svg">
<path fill-rule="evenodd" clip-rule="evenodd" d="M205.962 96.4248V87.6593C199.567 94.9082 192.836 97.9421 183.75 97.9421C164.736 97.9421 150.096 82.6017 150.096 62.5413C150.096 42.3124 164.903 26.635 183.582 26.635C191.995 26.635 199.735 29.8378 204.615 35.0638V0H220.769V96.4248H205.962ZM185.937 41.6383C174.832 41.6383 166.25 50.5725 166.25 62.0357C166.25 74.0044 175 83.2763 186.274 83.2763C197.211 83.2763 205.793 74.1732 205.793 62.5413C205.962 50.7413 197.211 41.6383 185.937 41.6383ZM121.826 63.5528V96.4248H137.981V60.3494C137.981 48.3805 136.803 42.4806 133.101 37.2546C128.726 30.8489 121.322 27.4773 112.067 27.4773C104.495 27.4773 99.1106 29.8375 93.2215 35.5689V29.163H78.2453V96.593H94.3993V64.9007C94.3993 55.798 95.072 51.9209 97.0913 48.7178C99.784 44.672 103.99 42.4806 109.038 42.4806C116.947 42.4806 121.826 45.5149 121.826 63.5528ZM0 64.7325C0 87.6587 12.6204 99.2906 30.1199 99.2906C47.7884 99.2906 60.4088 87.6587 60.5767 64.9013V29.1633H43.9184V64.9013C43.9184 78.8932 38.5339 83.2756 30.2884 83.2756C21.875 83.2756 16.6589 78.8932 16.6589 64.9013V29.1633H0V64.7325ZM252.908 69.9583H304.903C305.408 67.5983 305.408 66.2498 305.408 63.721C305.408 42.8176 290.769 27.4773 270.744 27.4773C251.058 27.4773 235.408 43.1548 235.408 62.8783C235.408 82.4329 251.225 97.7733 271.754 97.7733C285.384 97.7733 299.182 90.1875 303.726 76.3644H286.225C282.018 81.2532 278.148 83.1069 271.418 83.1069C261.826 83.1069 254.927 78.0499 252.908 69.9583ZM252.403 55.798C254.927 47.2006 261.49 42.4806 271.081 42.4806C281.009 42.4806 287.571 47.2006 289.59 55.798H252.403ZM335.697 59.0011V96.4248H319.543V29.1633H334.351V35.7377C338.557 29.5005 341.923 27.6461 348.822 27.6461H350V43.1551C340.409 43.3236 335.697 48.5496 335.697 59.0011ZM0 0V15.846H60.0719V0H0Z" fill="white"/>
</svg>
