<svg width="740" height="745" viewBox="0 0 740 745" fill="none" xmlns="http://www.w3.org/2000/svg">
<rect x="0.0410156" y="0.0214844" width="739.959" height="744.373" rx="8.01535" fill="#FF4B00"/>
<rect x="299.718" y="40.6006" width="140.674" height="37.3095" rx="18.5355" fill="#FDC800"/>
<rect x="299.718" y="40.6006" width="140.674" height="37.3095" rx="18.5355" stroke="#FDC800" stroke-width="1.00192"/>
<path d="M324.303 64.3725C324.058 64.8848 323.787 65.3032 323.491 65.6277C323.201 65.9522 322.874 66.2084 322.509 66.3962C322.151 66.5841 321.727 66.7321 321.237 66.8403C320.417 67.0167 319.615 66.9968 318.829 66.7805C318.043 66.5699 317.372 66.1998 316.814 65.6704C316.262 65.141 315.909 64.512 315.755 63.7833C315.595 63.0603 315.652 62.3487 315.926 61.6485C316.199 60.9426 316.643 60.3363 317.258 59.8297C317.873 59.3173 318.59 58.9729 319.41 58.7965C319.996 58.6541 320.764 58.5631 321.715 58.5232C322.666 58.4834 323.528 58.4976 324.303 58.5659V58.139C324.303 57.5412 324.226 57.0146 324.072 56.5592C323.918 56.1038 323.628 55.7309 323.201 55.4406C322.78 55.1503 322.193 55.0051 321.442 55.0051C320.525 54.9994 319.851 55.21 319.418 55.637C318.986 56.064 318.724 56.6275 318.633 57.3277H316.455C316.609 56.1209 317.064 55.1844 317.821 54.5184C318.584 53.8466 319.791 53.5108 321.442 53.5108C323.013 53.5108 324.169 53.7413 324.909 54.2024C325.649 54.6579 326.099 55.1987 326.258 55.8249C326.423 56.4511 326.503 57.2452 326.497 58.2073V58.5574V66.7549H324.303V64.3725ZM321.843 64.9019C322.122 64.8507 322.395 64.7368 322.663 64.5603C322.931 64.3782 323.184 64.1476 323.423 63.8687C323.605 63.658 323.75 63.4246 323.858 63.1685C323.972 62.9123 324.052 62.6447 324.098 62.3658C324.149 62.0812 324.174 61.788 324.174 61.4863V60.2566C323.599 60.2168 322.985 60.2026 322.33 60.2139C321.681 60.2253 321.16 60.2709 320.767 60.3506C320.153 60.4644 319.64 60.6409 319.23 60.88C318.82 61.1191 318.524 61.4436 318.342 61.8535C318.16 62.2576 318.123 62.7586 318.231 63.3563C318.339 63.789 318.567 64.1419 318.914 64.4152C319.262 64.6827 319.689 64.8592 320.195 64.9446C320.708 65.0243 321.257 65.0101 321.843 64.9019ZM330.538 49.2668V66.7549H328.352V49.2668H330.538ZM337.293 66.7549C336.701 66.7549 336.154 66.6097 335.653 66.3194C335.152 66.0234 334.754 65.6249 334.458 65.1239C334.167 64.623 334.022 64.0765 334.022 63.4844V55.3723H331.845V53.6389H334.022V50.9832L336.208 50.1293V53.6389H338.949V55.3723H336.208V63.7662C336.208 63.9598 336.257 64.1391 336.353 64.3042C336.45 64.4693 336.581 64.603 336.746 64.7055C336.911 64.8023 337.093 64.8507 337.293 64.8507H338.684V66.7549H337.293ZM345.625 55.099C344.941 55.099 344.349 55.2869 343.848 55.6626C343.353 56.0383 342.96 56.5421 342.67 57.174C342.385 57.8059 342.2 58.5118 342.115 59.2917H349.194C349.103 58.5175 348.906 57.8145 348.605 57.1826C348.309 56.545 347.907 56.0383 347.401 55.6626C346.9 55.2869 346.308 55.099 345.625 55.099ZM339.903 60.2396C339.903 58.9587 340.117 57.8088 340.544 56.7898C340.976 55.7651 341.625 54.9567 342.491 54.3647C343.362 53.7669 344.426 53.4681 345.684 53.4681C346.942 53.4681 347.998 53.7669 348.852 54.3647C349.712 54.9567 350.35 55.7622 350.765 56.7812C351.186 57.8002 351.397 58.953 351.397 60.2396C351.397 60.5925 351.386 60.9085 351.363 61.1874H349.194H342.115C342.2 61.9616 342.385 62.6647 342.67 63.2966C342.96 63.9228 343.353 64.4237 343.848 64.7994C344.349 65.1752 344.941 65.363 345.625 65.363C346.16 65.363 346.641 65.2378 347.068 64.9873C347.5 64.7368 347.868 64.4009 348.169 63.9797C348.477 63.5527 348.719 63.0688 348.895 62.528H351.149C350.933 63.4218 350.589 64.2045 350.116 64.8763C349.649 65.5423 349.043 66.0632 348.297 66.4389C347.552 66.8147 346.681 67.0025 345.684 67.0025C344.426 67.0025 343.362 66.7065 342.491 66.1145C341.625 65.5167 340.976 64.7084 340.544 63.6894C340.117 62.6647 339.903 61.5147 339.903 60.2396ZM352.938 66.7549V53.6389H355.056V55.7224C355.295 55.0222 355.751 54.4785 356.422 54.0914C357.094 53.7043 357.823 53.5051 358.608 53.4937C358.756 53.4937 358.913 53.4965 359.078 53.5022C359.249 53.5079 359.391 53.5136 359.505 53.5193V55.748C359.368 55.6854 359.195 55.6455 358.984 55.6285C358.773 55.6114 358.534 55.6085 358.267 55.6199C357.629 55.6484 357.074 55.7736 356.602 55.9956C356.135 56.212 355.759 56.5791 355.474 57.0972C355.195 57.6152 355.056 58.2756 355.056 59.0783V66.7549H352.938ZM367.132 53.6389C367.964 53.6389 368.715 53.8239 369.387 54.1939C370.064 54.5639 370.594 55.0677 370.975 55.7053C371.356 56.3372 371.547 57.0317 371.547 57.7888V66.7549H369.412V58.5574C369.412 58.0052 369.276 57.4985 369.002 57.0374C368.729 56.5706 368.359 56.2006 367.892 55.9273C367.426 55.6541 366.916 55.5175 366.364 55.5175C365.726 55.5175 365.14 55.674 364.605 55.9871C364.07 56.3002 363.643 56.7272 363.324 57.268C363.011 57.8031 362.854 58.3894 362.854 59.027V66.7549H362.18V58.3183C362.18 57.4644 362.393 56.6816 362.82 55.97C363.253 55.2527 363.845 54.6863 364.596 54.2708C365.353 53.8495 366.199 53.6389 367.132 53.6389ZM362.854 53.6389V66.7549H360.711V53.6389H362.854ZM381.717 64.3725C381.472 64.8848 381.202 65.3032 380.906 65.6277C380.616 65.9522 380.288 66.2084 379.924 66.3962C379.565 66.5841 379.141 66.7321 378.652 66.8403C377.832 67.0167 377.029 66.9968 376.244 66.7805C375.458 66.5699 374.786 66.1998 374.228 65.6704C373.676 65.141 373.323 64.512 373.17 63.7833C373.01 63.0603 373.067 62.3487 373.34 61.6485C373.614 60.9426 374.058 60.3363 374.672 59.8297C375.287 59.3173 376.004 58.9729 376.824 58.7965C377.411 58.6541 378.179 58.5631 379.13 58.5232C380.08 58.4834 380.943 58.4976 381.717 58.5659V58.139C381.717 57.5412 381.64 57.0146 381.487 56.5592C381.333 56.1038 381.043 55.7309 380.616 55.4406C380.194 55.1503 379.608 55.0051 378.857 55.0051C377.94 54.9994 377.265 55.21 376.833 55.637C376.4 56.064 376.138 56.6275 376.047 57.3277H373.87C374.023 56.1209 374.479 55.1844 375.236 54.5184C375.999 53.8466 377.206 53.5108 378.857 53.5108C380.428 53.5108 381.583 53.7413 382.323 54.2024C383.063 54.6579 383.513 55.1987 383.673 55.8249C383.838 56.4511 383.917 57.2452 383.912 58.2073V58.5574V66.7549H381.717V64.3725ZM379.258 64.9019C379.537 64.8507 379.81 64.7368 380.078 64.5603C380.345 64.3782 380.599 64.1476 380.838 63.8687C381.02 63.658 381.165 63.4246 381.273 63.1685C381.387 62.9123 381.467 62.6447 381.512 62.3658C381.563 62.0812 381.589 61.788 381.589 61.4863V60.2566C381.014 60.2168 380.399 60.2026 379.745 60.2139C379.096 60.2253 378.575 60.2709 378.182 60.3506C377.567 60.4644 377.055 60.6409 376.645 60.88C376.235 61.1191 375.939 61.4436 375.757 61.8535C375.575 62.2576 375.538 62.7586 375.646 63.3563C375.754 63.789 375.982 64.1419 376.329 64.4152C376.676 64.6827 377.103 64.8592 377.61 64.9446C378.122 65.0243 378.672 65.0101 379.258 64.9019ZM390.668 66.7549C390.076 66.7549 389.53 66.6097 389.029 66.3194C388.528 66.0234 388.129 65.6249 387.833 65.1239C387.543 64.623 387.398 64.0765 387.398 63.4844V55.3723H385.22V53.6389H387.398V50.9832L389.584 50.1293V53.6389H392.325V55.3723H389.584V63.7662C389.584 63.9598 389.632 64.1391 389.729 64.3042C389.826 64.4693 389.957 64.603 390.122 64.7055C390.287 64.8023 390.469 64.8507 390.668 64.8507H392.06V66.7549H390.668ZM399 55.099C398.317 55.099 397.725 55.2869 397.224 55.6626C396.729 56.0383 396.336 56.5421 396.046 57.174C395.761 57.8059 395.576 58.5118 395.491 59.2917H402.57C402.478 58.5175 402.282 57.8145 401.98 57.1826C401.684 56.545 401.283 56.0383 400.776 55.6626C400.275 55.2869 399.683 55.099 399 55.099ZM393.279 60.2396C393.279 58.9587 393.493 57.8088 393.919 56.7898C394.352 55.7651 395.001 54.9567 395.866 54.3647C396.737 53.7669 397.802 53.4681 399.06 53.4681C400.318 53.4681 401.374 53.7669 402.228 54.3647C403.088 54.9567 403.725 55.7622 404.141 56.7812C404.562 57.8002 404.773 58.953 404.773 60.2396C404.773 60.5925 404.761 60.9085 404.738 61.1874H402.57H395.491C395.576 61.9616 395.761 62.6647 396.046 63.2966C396.336 63.9228 396.729 64.4237 397.224 64.7994C397.725 65.1752 398.317 65.363 399 65.363C399.535 65.363 400.016 65.2378 400.443 64.9873C400.876 64.7368 401.243 64.4009 401.545 63.9797C401.852 63.5527 402.094 63.0688 402.271 62.528H404.525C404.309 63.4218 403.964 64.2045 403.492 64.8763C403.025 65.5423 402.419 66.0632 401.673 66.4389C400.927 66.8147 400.056 67.0025 399.06 67.0025C397.802 67.0025 396.737 66.7065 395.866 66.1145C395.001 65.5167 394.352 64.7084 393.919 63.6894C393.493 62.6647 393.279 61.5147 393.279 60.2396ZM421.403 64.3725C421.158 64.8848 420.887 65.3032 420.591 65.6277C420.301 65.9522 419.974 66.2084 419.609 66.3962C419.251 66.5841 418.827 66.7321 418.337 66.8403C417.517 67.0167 416.715 66.9968 415.929 66.7805C415.143 66.5699 414.472 66.1998 413.914 65.6704C413.362 65.141 413.009 64.512 412.855 63.7833C412.695 63.0603 412.752 62.3487 413.026 61.6485C413.299 60.9426 413.743 60.3363 414.358 59.8297C414.973 59.3173 415.69 58.9729 416.51 58.7965C417.096 58.6541 417.864 58.5631 418.815 58.5232C419.766 58.4834 420.628 58.4976 421.403 58.5659V58.139C421.403 57.5412 421.326 57.0146 421.172 56.5592C421.018 56.1038 420.728 55.7309 420.301 55.4406C419.88 55.1503 419.293 55.0051 418.542 55.0051C417.625 54.9994 416.951 55.21 416.518 55.637C416.086 56.064 415.824 56.6275 415.733 57.3277H413.555C413.709 56.1209 414.164 55.1844 414.921 54.5184C415.684 53.8466 416.891 53.5108 418.542 53.5108C420.113 53.5108 421.269 53.7413 422.009 54.2024C422.749 54.6579 423.199 55.1987 423.358 55.8249C423.523 56.4511 423.603 57.2452 423.597 58.2073V58.5574V66.7549H421.403V64.3725ZM418.943 64.9019C419.222 64.8507 419.495 64.7368 419.763 64.5603C420.031 64.3782 420.284 64.1476 420.523 63.8687C420.705 63.658 420.85 63.4246 420.958 63.1685C421.072 62.9123 421.152 62.6447 421.198 62.3658C421.249 62.0812 421.274 61.788 421.274 61.4863V60.2566C420.699 60.2168 420.085 60.2026 419.43 60.2139C418.781 60.2253 418.26 60.2709 417.867 60.3506C417.253 60.4644 416.74 60.6409 416.33 60.88C415.92 61.1191 415.624 61.4436 415.442 61.8535C415.26 62.2576 415.223 62.7586 415.331 63.3563C415.439 63.789 415.667 64.1419 416.014 64.4152C416.362 64.6827 416.789 64.8592 417.295 64.9446C417.808 65.0243 418.357 65.0101 418.943 64.9019Z" fill="#FF4B00"/>
<path d="M577.283 473.288C593.194 483.589 605.215 497.443 612.993 514.849C620.772 532.61 624.661 552.502 624.661 574.88C624.661 597.259 620.772 617.507 612.993 635.623C605.215 653.384 593.194 667.592 577.283 678.249C561.373 688.906 541.927 693.879 518.592 693.879C495.257 693.879 476.518 688.55 460.608 678.249C445.051 667.948 433.383 653.739 425.605 635.623C417.827 617.507 413.938 597.614 413.938 575.236C413.938 552.857 417.827 533.32 425.605 515.914C433.383 498.509 445.051 483.945 460.608 473.643C476.165 462.987 495.611 458.014 518.592 458.014C541.574 458.014 561.373 462.987 577.283 473.288ZM574.455 633.492C581.88 627.808 587.537 619.993 591.426 610.047C595.315 600.101 597.083 589.089 597.083 576.657C597.083 564.224 595.315 552.857 591.426 542.911C587.537 532.61 581.88 524.795 574.455 518.756C567.03 512.717 557.838 509.876 546.877 509.876C535.917 509.876 526.37 512.717 518.946 518.756C511.521 524.795 505.864 532.965 502.328 542.911C498.793 553.212 497.025 564.224 497.025 577.012C497.025 589.8 498.793 600.811 502.328 610.758C505.864 620.704 511.521 628.163 518.946 633.847C526.37 639.53 535.917 642.372 547.231 642.372C558.545 642.372 567.03 639.53 574.809 633.847L574.455 633.492ZM680.17 691.392H599.204V459.079H680.17V691.392Z" fill="#FDC800"/>
<path d="M195.402 671.712C189.444 677.346 183.136 681.923 175.776 685.092C168.417 688.261 160.006 691.078 150.543 692.838C133.371 696.007 117.249 696.007 102.18 692.838C86.7594 689.669 73.7924 683.684 62.9281 674.529C52.0639 665.374 45.0546 653.403 41.55 638.967C38.7463 624.178 39.4473 610.799 44.7042 598.123C49.6106 585.799 58.0217 575.236 69.9373 567.138C81.853 559.04 96.5723 553.406 114.095 550.941C128.464 548.829 144.936 547.772 163.51 547.772C182.085 547.772 198.206 548.477 211.874 549.885V539.674C211.874 530.52 210.472 522.421 208.019 515.731C205.565 509.041 201.009 504.112 195.052 500.239C189.094 496.366 181.384 494.605 171.571 494.605C158.954 494.605 149.492 497.774 143.184 504.112C136.875 510.45 133.371 519.604 131.969 531.224H52.4143C54.5171 507.985 64.3299 490.38 82.5539 477.704C100.778 465.029 129.165 459.043 168.066 459.043C204.164 459.043 231.149 463.268 248.322 471.719C265.494 480.169 276.358 489.676 280.214 500.943C284.069 512.21 286.171 525.59 285.821 541.083V691.43H211.874V649.53C206.967 658.684 201.36 665.726 195.753 671.712H195.402ZM186.641 641.431C190.496 638.967 194 635.798 197.505 631.925C199.958 629.108 202.061 625.939 203.813 622.066C205.565 618.545 206.617 614.672 207.318 610.799C208.019 606.926 208.369 602.7 208.369 598.475V581.222C199.958 580.87 191.197 580.518 182.085 580.87C172.973 580.87 165.613 581.574 160.006 582.631C151.244 584.039 144.235 586.504 138.277 590.025C132.319 593.546 128.114 598.123 125.661 603.757C123.207 609.39 122.506 616.432 124.259 624.531C125.661 630.516 128.815 635.446 133.721 639.319C138.628 643.192 144.936 645.657 151.945 646.713C158.954 647.769 167.015 647.769 175.075 646.009C178.93 645.305 182.786 643.896 186.641 641.079V641.431Z" fill="#FDC800"/>
<line x1="39.9297" y1="690.96" x2="700.109" y2="690.96" stroke="#FDC800" stroke-width="1.00192"/>
<line x1="39.9297" y1="391.384" x2="700.109" y2="391.384" stroke="#FDC800" stroke-width="1.00192" stroke-dasharray="11.02 11.02"/>
<line x1="39.9297" y1="458.515" x2="700.109" y2="458.515" stroke="#FDC800" stroke-width="1.00192"/>
<path d="M302.209 574.312H388.126M345.168 531.153L388.126 574.312M388.126 574.312L345.168 617.472" stroke="#FDC800" stroke-width="12.023"/>
</svg>
