<svg width="740" height="745" viewBox="0 0 740 745" fill="none" xmlns="http://www.w3.org/2000/svg">
<rect width="740" height="744.414" rx="8.01579" fill="#FDC800"/>
<rect x="301.69" y="40.583" width="135.857" height="37.3116" rx="18.5365" fill="#FF4B00"/>
<rect x="301.69" y="40.583" width="135.857" height="37.3116" rx="18.5365" stroke="#FF4B00" stroke-width="1.00197"/>
<path d="M326.367 64.3567C326.123 64.8691 325.852 65.2875 325.556 65.612C325.266 65.9365 324.939 66.1927 324.574 66.3806C324.216 66.5685 323.791 66.7165 323.302 66.8247C322.482 67.0011 321.679 66.9812 320.894 66.7649C320.108 66.5542 319.436 66.1842 318.878 65.6547C318.326 65.1253 317.973 64.4962 317.819 63.7675C317.66 63.0445 317.717 62.3328 317.99 61.6326C318.263 60.9267 318.707 60.3204 319.322 59.8137C319.937 59.3013 320.655 58.9569 321.474 58.7804C322.061 58.6381 322.829 58.547 323.78 58.5071C324.731 58.4673 325.593 58.4815 326.367 58.5498V58.1228C326.367 57.5251 326.291 56.9985 326.137 56.543C325.983 56.0876 325.693 55.7147 325.266 55.4244C324.845 55.134 324.258 54.9888 323.507 54.9888C322.59 54.9831 321.916 55.1938 321.483 55.6208C321.05 56.0477 320.788 56.6113 320.697 57.3116H318.52C318.673 56.1047 319.129 55.1682 319.886 54.5021C320.649 53.8303 321.856 53.4944 323.507 53.4944C325.078 53.4944 326.234 53.725 326.974 54.1861C327.714 54.6416 328.164 55.1824 328.323 55.8086C328.488 56.4349 328.568 57.229 328.562 58.1912V58.5413V66.7393H326.367V64.3567ZM323.908 64.8862C324.187 64.8349 324.46 64.7211 324.728 64.5446C324.995 64.3624 325.249 64.1318 325.488 63.8529C325.67 63.6422 325.815 63.4088 325.923 63.1526C326.037 62.8965 326.117 62.6289 326.163 62.3499C326.214 62.0653 326.239 61.7721 326.239 61.4704V60.2407C325.664 60.2008 325.05 60.1866 324.395 60.198C323.746 60.2093 323.225 60.2549 322.832 60.3346C322.217 60.4485 321.705 60.6249 321.295 60.864C320.885 61.1032 320.589 61.4277 320.407 61.8376C320.225 62.2418 320.188 62.7427 320.296 63.3405C320.404 63.7732 320.632 64.1262 320.979 64.3994C321.326 64.667 321.753 64.8435 322.26 64.9289C322.772 65.0086 323.322 64.9943 323.908 64.8862ZM332.603 49.2503V66.7393H330.417V49.2503H332.603ZM339.358 66.7393C338.766 66.7393 338.22 66.5941 337.719 66.3037C337.218 66.0077 336.819 65.6092 336.523 65.1082C336.233 64.6072 336.088 64.0607 336.088 63.4686V55.356H333.91V53.6225H336.088V50.9667L338.274 50.1127V53.6225H341.015V55.356H338.274V63.7504C338.274 63.944 338.322 64.1233 338.419 64.2884C338.516 64.4535 338.647 64.5873 338.812 64.6898C338.977 64.7865 339.159 64.8349 339.358 64.8349H340.75V66.7393H339.358ZM347.691 55.0828C347.008 55.0828 346.415 55.2706 345.915 55.6464C345.419 56.0221 345.026 56.526 344.736 57.1579C344.451 57.7898 344.266 58.4957 344.181 59.2757H351.26C351.169 58.5014 350.973 57.7983 350.671 57.1664C350.375 56.5288 349.974 56.0221 349.467 55.6464C348.966 55.2706 348.374 55.0828 347.691 55.0828ZM341.969 60.2236C341.969 58.9426 342.183 57.7927 342.61 56.7736C343.042 55.7489 343.691 54.9404 344.557 54.3484C345.428 53.7506 346.492 53.4517 347.751 53.4517C349.009 53.4517 350.065 53.7506 350.919 54.3484C351.778 54.9404 352.416 55.746 352.832 56.7651C353.253 57.7841 353.463 58.937 353.463 60.2236C353.463 60.5765 353.452 60.8925 353.429 61.1715H351.26H344.181C344.266 61.9457 344.451 62.6488 344.736 63.2807C345.026 63.907 345.419 64.408 345.915 64.7837C346.415 65.1594 347.008 65.3473 347.691 65.3473C348.226 65.3473 348.707 65.2221 349.134 64.9716C349.567 64.7211 349.934 64.3852 350.236 63.9639C350.543 63.5369 350.785 63.053 350.961 62.5122H353.216C352.999 63.406 352.655 64.1888 352.183 64.8606C351.716 65.5266 351.109 66.0476 350.364 66.4233C349.618 66.799 348.747 66.9869 347.751 66.9869C346.492 66.9869 345.428 66.6909 344.557 66.0988C343.691 65.501 343.042 64.6926 342.61 63.6736C342.183 62.6488 341.969 61.4988 341.969 60.2236ZM355.005 66.7393V53.6225H357.123V55.7062C357.362 55.0059 357.817 54.4622 358.489 54.0751C359.161 53.688 359.889 53.4887 360.675 53.4773C360.823 53.4773 360.98 53.4802 361.145 53.4859C361.316 53.4916 361.458 53.4973 361.572 53.503V55.7318C361.435 55.6692 361.262 55.6293 361.051 55.6122C360.84 55.5951 360.601 55.5923 360.334 55.6037C359.696 55.6321 359.141 55.7574 358.668 55.9794C358.202 56.1958 357.826 56.563 357.541 57.081C357.262 57.5991 357.123 58.2595 357.123 59.0622V66.7393H355.005ZM369.2 53.6225C370.031 53.6225 370.782 53.8075 371.454 54.1776C372.132 54.5476 372.661 55.0515 373.043 55.6891C373.424 56.321 373.615 57.0156 373.615 57.7727V66.7393H371.48V58.5413C371.48 57.9891 371.343 57.4824 371.07 57.0212C370.797 56.5544 370.427 56.1844 369.96 55.9111C369.493 55.6378 368.983 55.5012 368.431 55.5012C367.794 55.5012 367.207 55.6578 366.672 55.9709C366.137 56.284 365.71 56.711 365.391 57.2518C365.078 57.787 364.921 58.3733 364.921 59.011V66.7393H364.247V58.3022C364.247 57.4482 364.46 56.6654 364.887 55.9538C365.32 55.2365 365.912 54.67 366.663 54.2544C367.421 53.8331 368.266 53.6225 369.2 53.6225ZM364.921 53.6225V66.7393H362.778V53.6225H364.921ZM383.785 64.3567C383.54 64.8691 383.27 65.2875 382.974 65.612C382.684 65.9365 382.356 66.1927 381.992 66.3806C381.633 66.5685 381.209 66.7165 380.72 66.8247C379.9 67.0011 379.097 66.9812 378.311 66.7649C377.526 66.5542 376.854 66.1842 376.296 65.6547C375.744 65.1253 375.391 64.4962 375.237 63.7675C375.078 63.0445 375.135 62.3328 375.408 61.6326C375.681 60.9267 376.125 60.3204 376.74 59.8137C377.355 59.3013 378.072 58.9569 378.892 58.7804C379.479 58.6381 380.247 58.547 381.198 58.5071C382.149 58.4673 383.011 58.4815 383.785 58.5498V58.1228C383.785 57.5251 383.708 56.9985 383.555 56.543C383.401 56.0876 383.111 55.7147 382.684 55.4244C382.262 55.134 381.676 54.9888 380.925 54.9888C380.008 54.9831 379.333 55.1938 378.901 55.6208C378.468 56.0477 378.206 56.6113 378.115 57.3116H375.937C376.091 56.1047 376.547 55.1682 377.304 54.5021C378.067 53.8303 379.274 53.4944 380.925 53.4944C382.496 53.4944 383.652 53.725 384.392 54.1861C385.132 54.6416 385.581 55.1824 385.741 55.8086C385.906 56.4349 385.986 57.229 385.98 58.1912V58.5413V66.7393H383.785V64.3567ZM381.326 64.8862C381.605 64.8349 381.878 64.7211 382.146 64.5446C382.413 64.3624 382.667 64.1318 382.906 63.8529C383.088 63.6422 383.233 63.4088 383.341 63.1526C383.455 62.8965 383.535 62.6289 383.58 62.3499C383.632 62.0653 383.657 61.7721 383.657 61.4704V60.2407C383.082 60.2008 382.467 60.1866 381.813 60.198C381.164 60.2093 380.643 60.2549 380.25 60.3346C379.635 60.4485 379.123 60.6249 378.713 60.864C378.303 61.1032 378.007 61.4277 377.825 61.8376C377.643 62.2418 377.605 62.7427 377.714 63.3405C377.822 63.7732 378.05 64.1262 378.397 64.3994C378.744 64.667 379.171 64.8435 379.678 64.9289C380.19 65.0086 380.74 64.9943 381.326 64.8862ZM392.737 66.7393C392.145 66.7393 391.598 66.5941 391.097 66.3037C390.596 66.0077 390.198 65.6092 389.902 65.1082C389.611 64.6072 389.466 64.0607 389.466 63.4686V55.356H387.289V53.6225H389.466V50.9667L391.652 50.1127V53.6225H394.394V55.356H391.652V63.7504C391.652 63.944 391.701 64.1233 391.798 64.2884C391.894 64.4535 392.025 64.5873 392.19 64.6898C392.355 64.7865 392.538 64.8349 392.737 64.8349H394.129V66.7393H392.737ZM401.069 55.0828C400.386 55.0828 399.794 55.2706 399.293 55.6464C398.798 56.0221 398.405 56.526 398.115 57.1579C397.83 57.7898 397.645 58.4957 397.56 59.2757H404.639C404.548 58.5014 404.351 57.7983 404.05 57.1664C403.754 56.5288 403.352 56.0221 402.846 55.6464C402.345 55.2706 401.753 55.0828 401.069 55.0828ZM395.348 60.2236C395.348 58.9426 395.561 57.7927 395.988 56.7736C396.421 55.7489 397.07 54.9404 397.935 54.3484C398.806 53.7506 399.871 53.4517 401.129 53.4517C402.387 53.4517 403.443 53.7506 404.297 54.3484C405.157 54.9404 405.795 55.746 406.21 56.7651C406.631 57.7841 406.842 58.937 406.842 60.2236C406.842 60.5765 406.831 60.8925 406.808 61.1715H404.639H397.56C397.645 61.9457 397.83 62.6488 398.115 63.2807C398.405 63.907 398.798 64.408 399.293 64.7837C399.794 65.1594 400.386 65.3473 401.069 65.3473C401.604 65.3473 402.086 65.2221 402.513 64.9716C402.945 64.7211 403.312 64.3852 403.614 63.9639C403.922 63.5369 404.164 63.053 404.34 62.5122H406.594C406.378 63.406 406.034 64.1888 405.561 64.8606C405.094 65.5266 404.488 66.0476 403.742 66.4233C402.996 66.799 402.125 66.9869 401.129 66.9869C399.871 66.9869 398.806 66.6909 397.935 66.0988C397.07 65.501 396.421 64.6926 395.988 63.6736C395.561 62.6488 395.348 61.4988 395.348 60.2236ZM415.147 66.7393V53.6225H417.265V55.7062C417.504 55.0059 417.959 54.4622 418.631 54.0751C419.303 53.688 420.031 53.4887 420.817 53.4773C420.965 53.4773 421.122 53.4802 421.287 53.4859C421.458 53.4916 421.6 53.4973 421.714 53.503V55.7318C421.577 55.6692 421.403 55.6293 421.193 55.6122C420.982 55.5951 420.743 55.5923 420.475 55.6037C419.838 55.6321 419.283 55.7574 418.81 55.9794C418.343 56.1958 417.968 56.563 417.683 57.081C417.404 57.5991 417.265 58.2595 417.265 59.0622V66.7393H415.147Z" fill="#FDC800"/>
<path d="M637.053 465.115C651.313 472.637 662.008 483.024 669.495 496.993C676.982 510.603 680.19 526.721 679.121 544.63H596.768C596.055 535.676 593.559 527.796 589.638 521.349C585.36 514.902 580.012 509.529 573.238 506.305C566.465 503.082 558.978 500.933 551.135 500.933C541.866 500.933 533.31 503.082 525.466 507.738C517.623 512.394 511.563 518.483 506.928 526.005C502.294 533.527 500.155 542.123 500.155 551.436V691.84H418.871V458.668H500.155V495.202C505.502 486.606 512.632 479.442 521.188 473.353C529.745 467.264 539.727 462.608 551.491 459.026C562.9 455.803 575.734 454.012 589.638 454.012C607.463 454.012 623.506 457.593 637.766 465.115H637.053Z" fill="#FF4B00"/>
<path d="M59.8438 691.357V458.502H139.106V504.718C141.582 492.275 149.367 480.899 162.813 470.945C175.906 460.991 191.121 456.014 208.106 456.014C211.644 456.014 215.537 456.014 219.429 456.369C223.321 456.725 226.86 457.08 229.69 457.791V525.337C225.798 523.204 221.198 521.782 215.537 521.071C209.875 520.36 204.567 519.649 198.906 520.004C187.583 520.004 177.321 522.848 168.829 527.47C159.983 532.092 153.259 539.202 147.952 548.445C142.998 557.688 140.167 569.419 140.167 582.929V691.002H59.8438V691.357Z" fill="#FF4B00"/>
<line x1="39.8965" y1="690.978" x2="700.112" y2="690.978" stroke="#FF4B00" stroke-width="1.00197"/>
<line x1="39.8965" y1="391.386" x2="700.112" y2="391.386" stroke="#FF4B00" stroke-width="1.00197" stroke-dasharray="11.02 11.02"/>
<line x1="39.8965" y1="458.519" x2="700.112" y2="458.519" stroke="#FF4B00" stroke-width="1.00197"/>
<path d="M278.248 574.324H364.17M321.209 531.162L364.17 574.324M364.17 574.324L321.209 617.486" stroke="#FF4B00" stroke-width="12.0237"/>
</svg>
