<svg width="991" height="305" viewBox="0 0 991 305" fill="none" xmlns="http://www.w3.org/2000/svg">
<path d="M189.837 43.7386C187.826 43.7386 186.207 44.4545 184.979 45.8864C183.786 47.2841 182.934 49.0568 182.423 51.2045C181.945 53.3182 181.69 55.5852 181.656 58.0057H198.019C197.985 55.483 197.746 53.1818 197.303 51.1023C196.86 48.9886 196.042 47.233 194.849 45.8352C193.656 44.4375 191.985 43.7386 189.837 43.7386ZM132.718 65.983C132.718 58.3125 134.849 51.4261 139.11 45.3239C143.406 39.1875 149.866 34.3466 158.491 30.8011C167.116 27.2216 177.701 25.4318 190.246 25.4318C202.792 25.4318 213.326 27.2216 221.849 30.8011C230.371 34.3466 236.712 39.1705 240.871 45.2727C245.065 51.375 247.161 58.2784 247.161 65.983C247.127 67.0057 247.093 68.0284 247.059 69.0511H225.173H180.531C180.531 72.017 180.803 74.608 181.349 76.8239C181.894 79.0398 182.849 80.8125 184.212 82.142C185.61 83.4716 187.485 84.1364 189.837 84.1364C191.576 84.1364 193.042 83.6761 194.235 82.7557C195.462 81.8011 196.366 80.5909 196.945 79.125C197.525 77.6591 197.815 76.1591 197.815 74.625H246.343C244.673 81.5795 241.366 87.4432 236.423 92.2159C231.479 96.9545 225.104 100.517 217.298 102.903C209.491 105.29 200.474 106.483 190.246 106.483C177.701 106.483 167.116 104.71 158.491 101.165C149.866 97.5852 143.406 92.7443 139.11 86.642C134.849 80.5057 132.718 73.6193 132.718 65.983ZM706.583 26.4545V105H696.765V26.4545H706.583ZM706.583 0.272724V13.3636H696.765V0.272724H706.583ZM203.849 191.455V270H194.031V191.455H203.849ZM203.849 165.273V178.364H194.031V165.273H203.849ZM738.531 189.818C746.508 189.818 753.326 191.114 758.985 193.705C764.644 196.295 768.923 199.824 771.82 204.29C774.718 208.722 776.167 213.699 776.167 219.222V270H726.82V227.403C726.82 224.369 726.513 221.71 725.9 219.426C725.286 217.142 724.178 215.318 722.576 213.955C720.974 212.557 718.792 211.858 716.031 211.858C713.269 211.858 711.053 212.472 709.383 213.699C707.712 214.926 706.519 216.648 705.803 218.864C705.087 221.08 704.729 223.773 704.729 226.943V270H700.69V218.455C700.69 212.557 702.275 207.46 705.445 203.165C708.616 198.835 713.048 195.528 718.741 193.244C724.468 190.96 731.065 189.818 738.531 189.818ZM704.729 191.455V270H655.587V191.455H704.729Z" fill="#FFBFE1"/>
<path d="M367.792 105H325.349L250.843 26.4545H293.235L367.792 105ZM293.082 105H250.587L325.093 26.4545H367.587L293.082 105ZM753.923 105H746.968L777.241 26.4545H784.144L753.923 105ZM752.133 105H745.178L714.906 26.4545H721.809L752.133 105ZM249.961 261.153C255.04 261.153 259.251 259.858 262.592 257.267C265.933 254.676 268.387 251.148 269.955 246.682C271.558 242.216 272.359 237.102 272.359 231.341C272.359 225.545 271.558 220.347 269.955 215.744C268.387 211.108 265.915 207.426 262.54 204.699C259.2 201.972 255.006 200.608 249.961 200.608C245.12 200.608 241.012 201.989 237.637 204.75C234.262 207.477 231.722 211.176 230.018 215.847C228.347 220.483 227.512 225.648 227.512 231.341C227.512 237 228.347 242.08 230.018 246.58C231.722 251.08 234.262 254.642 237.637 257.267C241.012 259.858 245.12 261.153 249.961 261.153ZM286.472 265.347C286.472 272.369 285.296 278.54 282.944 283.858C280.592 289.176 276.756 293.369 271.438 296.438C266.154 299.54 259.268 301.091 250.779 301.091C244.677 301.091 239.308 300.153 234.671 298.278C230.035 296.438 226.183 293.659 223.114 289.943C220.046 286.227 217.83 281.608 216.467 276.085H230.018C230.597 278.778 231.688 281.199 233.29 283.347C234.893 285.528 237.143 287.267 240.04 288.562C242.972 289.858 246.552 290.506 250.779 290.506C256.745 290.506 261.381 289.33 264.688 286.977C267.995 284.659 270.228 281.676 271.387 278.028C272.58 274.381 273.177 270.153 273.177 265.347V257.062C270.075 261.494 266.342 264.955 261.978 267.443C257.648 269.932 252.518 271.176 246.586 271.176C239.12 271.176 232.83 269.386 227.717 265.807C222.637 262.227 218.836 257.369 216.313 251.233C213.825 245.097 212.58 238.176 212.58 230.472C212.58 222.835 213.825 216.017 216.313 210.017C218.836 204.017 222.637 199.295 227.717 195.852C232.796 192.375 239.086 190.636 246.586 190.636C252.62 190.636 257.802 191.778 262.131 194.062C266.495 196.312 270.177 199.602 273.177 203.932V191.455H286.472V265.347ZM833.862 243.665C836.452 243.665 838.634 243.051 840.407 241.824C842.18 240.562 843.475 238.858 844.293 236.71C845.146 234.528 845.572 232.074 845.572 229.347C845.572 226.585 845.146 224.097 844.293 221.881C843.475 219.631 842.18 217.858 840.407 216.562C838.634 215.233 836.452 214.568 833.862 214.568C831.305 214.568 829.157 215.233 827.418 216.562C825.68 217.892 824.367 219.682 823.481 221.932C822.629 224.182 822.202 226.67 822.202 229.398C822.202 232.125 822.629 234.562 823.481 236.71C824.367 238.858 825.68 240.562 827.418 241.824C829.157 243.051 831.305 243.665 833.862 243.665ZM887.35 257.983C887.35 266.983 885.629 274.909 882.185 281.761C878.742 288.614 873.117 294.034 865.31 298.023C857.504 302.045 847.327 304.057 834.782 304.057C825.441 304.057 817.396 302.983 810.646 300.835C803.896 298.688 798.202 295.193 793.566 290.352C788.964 285.511 785.418 279.085 782.93 271.074H823.737C823.907 273.835 824.435 276.102 825.322 277.875C826.208 279.682 827.469 281.011 829.106 281.864C830.742 282.716 832.771 283.142 835.191 283.142C838.327 283.142 840.765 282.392 842.504 280.892C844.276 279.426 845.469 277.602 846.083 275.42C846.697 273.239 847.004 270.801 847.004 268.108V256.449C843.799 259.994 839.896 262.739 835.293 264.682C830.691 266.625 825.373 267.597 819.339 267.597C811.191 267.597 804.322 265.909 798.731 262.534C793.174 259.159 789.015 254.557 786.254 248.727C783.526 242.898 782.163 236.335 782.163 229.04C782.163 221.778 783.526 215.25 786.254 209.455C789.015 203.659 793.174 199.074 798.731 195.699C804.322 192.324 811.191 190.636 819.339 190.636C825.407 190.636 830.725 191.591 835.293 193.5C839.896 195.375 843.799 198.068 847.004 201.58V191.455H887.35V257.983Z" fill="#FF4B00"/>
<path d="M404.763 105C400.536 105 396.854 103.977 393.718 101.932C390.616 99.8523 388.229 97.2273 386.559 94.0568C384.923 90.8523 384.104 87.5966 384.104 84.2898V45.5284H370.656V29.0114H384.104V15.3068L418.775 2.36932V29.0114H437.849V45.5284H418.775V82.7045C418.775 83.6932 418.996 84.5966 419.44 85.4148C419.883 86.233 420.496 86.8807 421.281 87.358C422.099 87.8352 423.036 88.0739 424.093 88.0739H436.979V105H404.763ZM823.737 28.3466C817.771 28.3466 812.572 30.1193 808.14 33.6648C803.742 37.1761 800.452 41.983 798.271 48.0852C796.089 54.1875 795.237 60.9545 795.714 68.3864H851.862C851.862 60.7159 850.771 53.8636 848.589 47.8295C846.407 41.7614 843.185 37.0057 838.924 33.5625C834.697 30.0852 829.634 28.3466 823.737 28.3466ZM792.032 65.9318C792.032 58.2614 793.208 51.375 795.56 45.2727C797.913 39.1364 801.441 34.2955 806.146 30.75C810.884 27.2045 816.697 25.4318 823.583 25.4318C830.469 25.4318 836.248 27.2045 840.918 30.75C845.623 34.2955 849.117 39.1193 851.401 45.2216C853.685 51.3239 854.827 58.2273 854.827 65.9318C854.827 68.0114 854.759 69.9205 854.623 71.6591H842.759H795.714C796.157 78.5455 797.657 84.375 800.214 89.1477C802.805 93.8864 806.112 97.4318 810.134 99.7841C814.157 102.102 818.538 103.261 823.276 103.261C828.356 103.261 832.617 102.29 836.06 100.347C839.538 98.3693 842.265 95.9318 844.242 93.0341C846.254 90.1364 847.907 86.9148 849.202 83.3693H852.526C851.129 88.0398 849.134 92.1136 846.543 95.5909C843.952 99.0341 840.731 101.71 836.879 103.619C833.026 105.528 828.594 106.483 823.583 106.483C816.731 106.483 810.935 104.71 806.197 101.165C801.458 97.5852 797.913 92.7273 795.56 86.5909C793.208 80.4545 792.032 73.5682 792.032 65.9318ZM344.474 191.148C350.065 191.148 355.042 192.29 359.406 194.574C363.769 196.858 367.144 199.977 369.531 203.932C371.951 207.852 373.161 212.165 373.161 216.869V270H353.065V222.188C353.065 218.949 352.349 216 350.917 213.341C349.485 210.648 347.491 208.517 344.934 206.949C342.377 205.347 339.496 204.545 336.292 204.545C332.712 204.545 329.474 205.415 326.576 207.153C323.678 208.892 321.394 211.278 319.724 214.312C318.053 217.312 317.218 220.67 317.218 224.386V270H313.178V219.273C313.178 213.989 314.525 209.216 317.218 204.955C319.911 200.659 323.627 197.284 328.366 194.83C333.138 192.375 338.508 191.148 344.474 191.148ZM317.218 165.273V270H297.121V165.273H317.218ZM942.079 205.312C939.249 205.312 936.863 206.199 934.92 207.972C933.011 209.71 931.562 211.977 930.573 214.773C929.585 217.568 928.988 220.619 928.783 223.926H955.528C955.289 220.551 954.675 217.483 953.687 214.722C952.732 211.926 951.283 209.659 949.34 207.92C947.431 206.182 945.011 205.312 942.079 205.312ZM894.113 230.983C894.113 223.312 895.903 216.426 899.482 210.324C903.096 204.187 908.533 199.347 915.795 195.801C923.056 192.222 931.954 190.432 942.488 190.432C953.022 190.432 961.869 192.222 969.028 195.801C976.187 199.347 981.522 204.17 985.033 210.273C988.545 216.375 990.3 223.278 990.3 230.983C990.3 232.449 990.249 233.812 990.147 235.074H971.84H928.119C928.323 238.722 928.92 241.96 929.908 244.79C930.931 247.619 932.448 249.886 934.46 251.591C936.505 253.295 939.045 254.148 942.079 254.148C944.397 254.148 946.425 253.568 948.164 252.409C949.937 251.25 951.369 249.733 952.46 247.858C953.55 245.949 954.3 243.886 954.71 241.67H989.227C987.692 247.977 984.88 253.364 980.789 257.83C976.698 262.261 971.414 265.653 964.937 268.006C958.494 270.324 951.011 271.483 942.488 271.483C931.954 271.483 923.056 269.71 915.795 266.165C908.533 262.585 903.096 257.744 899.482 251.642C895.903 245.506 894.113 238.619 894.113 230.983Z" fill="#FDC800"/>
<path d="M486.288 38.625C483.015 38.625 480.237 39.5795 477.952 41.4886C475.702 43.3977 473.964 45.9205 472.737 49.0568C471.509 52.1591 470.725 55.6023 470.384 59.3864H502.396C502.055 55.6023 501.254 52.1591 499.992 49.0568C498.731 45.9205 496.958 43.3977 494.674 41.4886C492.39 39.5795 489.594 38.625 486.288 38.625ZM442.873 65.983C442.873 58.3125 444.492 51.4261 447.731 45.3239C451.004 39.1875 455.913 34.3466 462.458 30.8011C469.038 27.2216 477.1 25.4318 486.646 25.4318C496.191 25.4318 504.202 27.2216 510.68 30.8011C517.191 34.3466 522.032 39.1705 525.202 45.2727C528.373 51.375 529.958 58.2784 529.958 65.983C529.924 67.6534 529.873 69.2045 529.805 70.6364H513.237H469.924C470.231 74.5909 471.015 78.1534 472.276 81.3239C473.538 84.4602 475.327 86.9659 477.646 88.8409C479.998 90.7159 482.879 91.6534 486.288 91.6534C488.913 91.6534 491.231 91.0227 493.242 89.7614C495.288 88.4659 496.958 86.7614 498.254 84.6477C499.583 82.5341 500.572 80.1989 501.219 77.642H528.731C527.299 83.642 524.742 88.8068 521.06 93.1364C517.413 97.4318 512.674 100.739 506.844 103.057C501.049 105.341 494.316 106.483 486.646 106.483C477.1 106.483 469.038 104.71 462.458 101.165C455.913 97.5852 451.004 92.7443 447.731 86.642C444.492 80.5057 442.873 73.6193 442.873 65.983ZM30.2663 270H26.8402L0.658381 191.455H4.08452L30.2663 270ZM85.7493 270H82.3232L108.505 191.455H111.931L85.7493 270ZM83.4482 270H80.022L54.6584 191.455H58.0845L83.4482 270ZM32.5675 270H29.1413L54.505 191.455H57.9311L32.5675 270ZM413.648 270C409.66 270 406.114 269.028 403.012 267.085C399.91 265.108 397.523 262.551 395.853 259.415C394.183 256.278 393.347 253.023 393.347 249.648V207.665H380.001V193.142H393.347V178.722L420.808 168.392V193.142H439.472V207.665H420.808V249.136C420.808 250.193 421.046 251.165 421.523 252.051C422.001 252.903 422.665 253.602 423.518 254.148C424.404 254.659 425.41 254.915 426.535 254.915H438.398V270H413.648Z" fill="#02903B"/>
<path d="M585.505 26.1477C591.096 26.1477 596.073 27.2898 600.437 29.5739C604.8 31.858 608.175 34.9773 610.562 38.9318C612.982 42.8523 614.192 47.1648 614.192 51.8693V105H594.096V57.1875C594.096 53.9489 593.38 51 591.948 48.3409C590.516 45.6477 588.522 43.517 585.965 41.9489C583.408 40.3466 580.528 39.5455 577.323 39.5455C573.744 39.5455 570.505 40.4148 567.607 42.1534C564.71 43.892 562.425 46.2784 560.755 49.3125C559.085 52.3125 558.249 55.6705 558.249 59.3864V105H554.21V54.2727C554.21 48.9886 555.556 44.2159 558.249 39.9545C560.942 35.6591 564.658 32.2841 569.397 29.8295C574.17 27.375 579.539 26.1477 585.505 26.1477ZM558.249 26.4545V105H538.153V26.4545H558.249ZM474.808 270V191.455H508.864V208.483C509.444 204.187 512.069 200.131 516.739 196.312C521.41 192.46 526.898 190.517 533.205 190.483C534.637 190.483 536.069 190.585 537.501 190.79C538.967 190.96 540.33 191.182 541.592 191.455V219.17C540.058 218.284 538.2 217.653 536.018 217.278C533.836 216.869 531.688 216.682 529.575 216.716C525.688 216.784 522.228 217.67 519.194 219.375C516.16 221.045 513.756 223.483 511.984 226.688C510.211 229.858 509.325 233.693 509.325 238.193V270H474.808Z" fill="#014ADD"/>
<path d="M673.344 103.926C668.504 105.733 662.844 106.636 656.367 106.636C649.447 106.636 643.6 105.682 638.827 103.773C634.089 101.966 630.288 99.0852 627.424 95.1307C624.731 91.2102 623.197 86.233 622.822 80.1989H636.731C637.072 83.8807 637.992 86.8807 639.492 89.1989C641.026 91.483 643.123 93.0852 645.782 94.0057C648.646 95.0284 652.208 95.5398 656.469 95.5398C660.629 95.5398 663.987 95.1136 666.543 94.2614C669.134 93.375 671.06 92.0795 672.322 90.375C672.969 89.5909 673.447 88.6875 673.754 87.6648C674.06 86.642 674.214 85.517 674.214 84.2898C674.214 82.0739 673.685 80.1989 672.629 78.6648C671.572 77.1989 669.799 75.9545 667.31 74.9318C664.754 73.875 661.344 72.9716 657.083 72.2216L649.413 70.8409C644.231 69.9545 639.816 68.5568 636.168 66.6477C632.555 64.7045 629.776 62.1818 627.833 59.0795C625.924 56.0114 624.969 52.2784 624.969 47.8807C624.969 43.2443 626.112 39.3068 628.396 36.0682C630.782 32.6932 634.157 30.1023 638.521 28.2954C642.748 26.4545 647.981 25.5341 654.219 25.5341C661.447 25.5341 667.379 26.5568 672.015 28.6023C676.788 30.6818 680.35 33.6136 682.702 37.3977C685.089 41.1477 686.384 45.8011 686.589 51.358H672.987C672.782 47.608 671.93 44.6932 670.43 42.6136C668.93 40.3977 666.867 38.9148 664.242 38.1648C661.515 37.2784 658.174 36.8352 654.219 36.8352C650.947 36.8352 648.134 37.2443 645.782 38.0625C643.464 38.8807 641.725 40.0739 640.566 41.642C639.339 43.3466 638.725 45.2898 638.725 47.4716C638.725 49.7557 639.322 51.6136 640.515 53.0455C641.708 54.6136 643.344 55.8068 645.424 56.625C647.674 57.5795 650.418 58.3125 653.657 58.8239L661.276 60.2557C667.31 61.2784 672.288 62.7443 676.208 64.6534C680.094 66.4602 683.06 68.8977 685.106 71.9659C687.151 74.9659 688.174 78.7159 688.174 83.2159C688.174 88.1591 686.913 92.3864 684.39 95.8977C681.867 99.4091 678.185 102.085 673.344 103.926ZM152.533 195.648C147.181 195.648 142.528 197.199 138.573 200.301C134.653 203.403 131.67 207.614 129.624 212.932C127.613 218.25 126.675 224.165 126.812 230.676H178.408C178.204 224.028 177.079 218.062 175.033 212.778C172.988 207.46 170.039 203.284 166.187 200.25C162.369 197.182 157.817 195.648 152.533 195.648ZM119.96 230.932C119.96 223.261 121.17 216.375 123.59 210.273C126.011 204.136 129.658 199.295 134.533 195.75C139.442 192.205 145.442 190.432 152.533 190.432C159.624 190.432 165.59 192.205 170.431 195.75C175.272 199.295 178.869 204.119 181.221 210.222C183.573 216.324 184.749 223.227 184.749 230.932C184.749 233.045 184.681 234.955 184.545 236.659H172.323H126.812C127.289 242.795 128.67 248.08 130.954 252.511C133.238 256.943 136.221 260.318 139.903 262.636C143.585 264.92 147.692 266.062 152.227 266.062C156.658 266.062 160.46 265.159 163.63 263.352C166.8 261.545 169.357 259.261 171.3 256.5C173.244 253.705 174.812 250.585 176.005 247.142H182.755C181.391 252.051 179.363 256.33 176.67 259.977C174.011 263.591 170.653 266.42 166.596 268.466C162.539 270.477 157.852 271.483 152.533 271.483C145.442 271.483 139.442 269.71 134.533 266.165C129.658 262.585 126.011 257.727 123.59 251.591C121.17 245.455 119.96 238.568 119.96 230.932ZM610.894 255.733C608.985 258.801 606.906 261.324 604.656 263.301C602.44 265.244 599.951 266.778 597.19 267.903C594.428 268.994 591.173 269.864 587.423 270.511C580.707 271.636 574.451 271.79 568.656 270.972C562.894 270.188 557.968 268.244 553.877 265.142C549.786 262.04 547.059 257.727 545.695 252.205C544.604 246.477 544.928 241.5 546.667 237.273C548.406 233.011 551.525 229.602 556.025 227.045C560.525 224.455 566.337 222.818 573.462 222.136C579.735 221.523 586.383 221.335 593.406 221.574C600.462 221.812 606.292 222.187 610.894 222.699V218.352C610.894 215.659 610.485 213.443 609.667 211.705C608.849 209.932 607.656 208.619 606.087 207.767C604.519 206.915 602.644 206.489 600.462 206.489C597.258 206.455 594.82 207.341 593.15 209.148C591.479 210.955 590.491 213.699 590.184 217.381H548.712C549.156 208.892 553.281 202.398 561.087 197.898C568.894 193.398 581.184 191.148 597.957 191.148C613.332 191.148 624.735 192.614 632.167 195.545C639.599 198.477 644.184 201.835 645.923 205.619C647.695 209.403 648.531 213.784 648.428 218.761V220.909V270H610.894V255.733ZM600.769 250.21C601.792 250.04 602.798 249.648 603.786 249.034C604.775 248.386 605.712 247.551 606.599 246.528C607.281 245.812 607.826 245.011 608.235 244.125C608.678 243.239 608.985 242.301 609.156 241.312C609.36 240.324 609.462 239.284 609.462 238.193V233.847C607.246 233.744 604.928 233.71 602.508 233.744C600.121 233.778 598.212 233.932 596.781 234.205C594.496 234.58 592.587 235.193 591.053 236.045C589.519 236.898 588.411 238.057 587.729 239.523C587.048 240.955 586.928 242.71 587.371 244.79C587.712 246.324 588.531 247.568 589.826 248.523C591.121 249.443 592.724 250.057 594.633 250.364C596.542 250.636 598.587 250.585 600.769 250.21Z" fill="#8159FB"/>
</svg>
