<svg width="1014" height="299" viewBox="0 0 1014 299" fill="none" xmlns="http://www.w3.org/2000/svg">
<path d="M965.046 200.04C962.216 200.04 959.83 200.926 957.887 202.699C955.978 204.438 954.529 206.705 953.54 209.5C952.552 212.296 951.955 215.347 951.751 218.653H978.495C978.256 215.278 977.643 212.21 976.654 209.449C975.699 206.653 974.25 204.386 972.307 202.648C970.398 200.909 967.978 200.04 965.046 200.04ZM917.08 225.71C917.08 218.04 918.87 211.153 922.449 205.051C926.063 198.915 931.501 194.074 938.762 190.528C946.023 186.949 954.921 185.159 965.455 185.159C975.989 185.159 984.836 186.949 991.995 190.528C999.154 194.074 1004.49 198.898 1008 205C1011.51 211.102 1013.27 218.006 1013.27 225.71C1013.27 227.176 1013.22 228.54 1013.11 229.801H994.807H951.086C951.29 233.449 951.887 236.688 952.876 239.517C953.898 242.347 955.415 244.614 957.427 246.318C959.472 248.023 962.012 248.875 965.046 248.875C967.364 248.875 969.393 248.296 971.131 247.136C972.904 245.977 974.336 244.46 975.427 242.585C976.518 240.676 977.268 238.614 977.677 236.398H1012.19C1010.66 242.705 1007.85 248.091 1003.76 252.557C999.665 256.989 994.381 260.381 987.904 262.733C981.461 265.051 973.978 266.21 965.455 266.21C954.921 266.21 946.023 264.438 938.762 260.892C931.501 257.313 926.063 252.472 922.449 246.369C918.87 240.233 917.08 233.347 917.08 225.71Z" fill="#FDC800"/>
<path d="M855.218 238.393C857.809 238.393 859.991 237.779 861.764 236.552C863.537 235.29 864.832 233.586 865.65 231.438C866.502 229.256 866.929 226.802 866.929 224.074C866.929 221.313 866.502 218.824 865.65 216.609C864.832 214.359 863.537 212.586 861.764 211.29C859.991 209.961 857.809 209.296 855.218 209.296C852.662 209.296 850.514 209.961 848.775 211.29C847.037 212.62 845.724 214.41 844.838 216.66C843.985 218.91 843.559 221.398 843.559 224.126C843.559 226.853 843.985 229.29 844.838 231.438C845.724 233.586 847.037 235.29 848.775 236.552C850.514 237.779 852.662 238.393 855.218 238.393ZM908.707 252.711C908.707 261.711 906.985 269.637 903.542 276.489C900.099 283.342 894.474 288.762 886.667 292.751C878.86 296.773 868.684 298.785 856.139 298.785C846.798 298.785 838.753 297.711 832.003 295.563C825.253 293.415 819.559 289.921 814.923 285.08C810.321 280.239 806.775 273.813 804.287 265.802H845.093C845.264 268.563 845.792 270.83 846.679 272.603C847.565 274.41 848.826 275.739 850.463 276.592C852.099 277.444 854.128 277.87 856.548 277.87C859.684 277.87 862.122 277.12 863.86 275.62C865.633 274.154 866.826 272.33 867.44 270.148C868.054 267.967 868.36 265.529 868.36 262.836V251.177C865.156 254.722 861.252 257.467 856.65 259.41C852.048 261.353 846.73 262.324 840.696 262.324C832.548 262.324 825.679 260.637 820.088 257.262C814.531 253.887 810.372 249.285 807.61 243.455C804.883 237.626 803.52 231.063 803.52 223.768C803.52 216.506 804.883 209.978 807.61 204.182C810.372 198.387 814.531 193.802 820.088 190.427C825.679 187.052 832.548 185.364 840.696 185.364C846.764 185.364 852.082 186.319 856.65 188.228C861.252 190.103 865.156 192.796 868.36 196.307V186.182H908.707V252.711Z" fill="#FF4B00"/>
<path d="M758.699 184.546C766.676 184.546 773.495 185.841 779.154 188.432C784.813 191.023 789.091 194.552 791.989 199.017C794.887 203.449 796.335 208.427 796.335 213.949V264.728H746.989V222.131C746.989 219.097 746.682 216.438 746.068 214.154C745.455 211.87 744.347 210.046 742.745 208.682C741.142 207.285 738.96 206.586 736.199 206.586C733.438 206.586 731.222 207.199 729.551 208.427C727.881 209.654 726.688 211.375 725.972 213.591C725.256 215.807 724.898 218.5 724.898 221.671V264.728H720.858V213.182C720.858 207.285 722.443 202.188 725.614 197.892C728.784 193.563 733.216 190.256 738.909 187.972C744.637 185.688 751.233 184.546 758.699 184.546ZM724.898 186.182V264.728H675.756V186.182H724.898Z" fill="#FFBFE1"/>
<path d="M629.72 250.46C627.811 253.528 625.732 256.051 623.482 258.028C621.266 259.972 618.777 261.506 616.016 262.631C613.254 263.722 609.999 264.591 606.249 265.239C599.533 266.364 593.277 266.517 587.482 265.699C581.72 264.915 576.794 262.972 572.703 259.869C568.612 256.767 565.885 252.455 564.522 246.932C563.431 241.205 563.754 236.227 565.493 232C567.232 227.739 570.351 224.33 574.851 221.773C579.351 219.182 585.164 217.545 592.289 216.864C598.561 216.25 605.209 216.063 612.232 216.301C619.289 216.54 625.118 216.915 629.72 217.426V213.08C629.72 210.386 629.311 208.17 628.493 206.432C627.675 204.659 626.482 203.347 624.914 202.494C623.345 201.642 621.47 201.216 619.289 201.216C616.084 201.182 613.647 202.068 611.976 203.875C610.306 205.682 609.317 208.426 609.01 212.108H567.539C567.982 203.619 572.107 197.125 579.914 192.625C587.72 188.125 600.01 185.875 616.783 185.875C632.158 185.875 643.561 187.341 650.993 190.273C658.425 193.205 663.01 196.562 664.749 200.347C666.522 204.131 667.357 208.511 667.254 213.489V215.636V264.727H629.72V250.46ZM619.595 244.938C620.618 244.767 621.624 244.375 622.612 243.761C623.601 243.114 624.539 242.278 625.425 241.256C626.107 240.54 626.652 239.739 627.061 238.852C627.504 237.966 627.811 237.028 627.982 236.04C628.186 235.051 628.289 234.011 628.289 232.92V228.574C626.073 228.472 623.754 228.438 621.334 228.472C618.948 228.506 617.039 228.659 615.607 228.932C613.323 229.307 611.414 229.92 609.879 230.773C608.345 231.625 607.237 232.784 606.556 234.25C605.874 235.682 605.754 237.437 606.198 239.517C606.539 241.051 607.357 242.295 608.652 243.25C609.948 244.17 611.55 244.784 613.459 245.091C615.368 245.364 617.414 245.313 619.595 244.938Z" fill="#8159FB"/>
<path d="M492.01 264.728V186.183H526.067V203.211C526.646 198.915 529.271 194.859 533.942 191.04C538.612 187.188 544.101 185.245 550.408 185.211C551.839 185.211 553.271 185.313 554.703 185.518C556.169 185.688 557.533 185.91 558.794 186.183V213.898C557.26 213.012 555.402 212.381 553.22 212.006C551.038 211.597 548.89 211.41 546.777 211.444C542.89 211.512 539.43 212.398 536.396 214.103C533.362 215.773 530.959 218.211 529.186 221.415C527.413 224.586 526.527 228.421 526.527 232.921V264.728H492.01Z" fill="#014ADD"/>
<path d="M429.085 264.727C425.097 264.727 421.551 263.756 418.449 261.812C415.347 259.835 412.96 257.278 411.29 254.142C409.619 251.005 408.784 247.75 408.784 244.375V200.653H395.438V186.182H408.784V173.449L436.244 163.119V186.182H453.58V200.653H436.244V243.863C436.244 244.92 436.483 245.892 436.96 246.778C437.438 247.631 438.102 248.329 438.955 248.875C439.841 249.386 440.847 249.642 441.972 249.642H452.506V264.727H429.085Z" fill="#02903B"/>
<path d="M357.444 185.875C363.035 185.875 368.012 187.017 372.376 189.301C376.74 191.585 380.115 194.705 382.501 198.659C384.921 202.58 386.132 206.892 386.132 211.597V264.727H366.035V216.915C366.035 213.676 365.319 210.727 363.887 208.068C362.455 205.375 360.461 203.244 357.904 201.676C355.347 200.074 352.467 199.273 349.262 199.273C345.683 199.273 342.444 200.142 339.546 201.881C336.649 203.619 334.365 206.006 332.694 209.04C331.024 212.04 330.188 215.398 330.188 219.114V264.727H326.149V214C326.149 208.716 327.495 203.943 330.188 199.682C332.882 195.386 336.597 192.011 341.336 189.557C346.109 187.102 351.478 185.875 357.444 185.875ZM330.188 160V264.727H310.092V160H330.188Z" fill="#FDC800"/>
<path d="M260.043 255.881C265.122 255.881 269.333 254.586 272.673 251.995C276.014 249.404 278.469 245.876 280.037 241.41C281.639 236.944 282.441 231.83 282.441 226.069C282.441 220.273 281.639 215.074 280.037 210.472C278.469 205.836 275.997 202.154 272.622 199.427C269.281 196.699 265.088 195.336 260.043 195.336C255.202 195.336 251.094 196.717 247.719 199.478C244.344 202.205 241.804 205.904 240.1 210.574C238.429 215.211 237.594 220.376 237.594 226.069C237.594 231.728 238.429 236.807 240.1 241.307C241.804 245.807 244.344 249.37 247.719 251.995C251.094 254.586 255.202 255.881 260.043 255.881ZM296.554 260.074C296.554 267.097 295.378 273.268 293.026 278.586C290.673 283.904 286.838 288.097 281.52 291.165C276.236 294.268 269.35 295.819 260.861 295.819C254.759 295.819 249.389 294.881 244.753 293.006C240.117 291.165 236.264 288.387 233.196 284.671C230.128 280.955 227.912 276.336 226.548 270.813H240.1C240.679 273.506 241.77 275.927 243.372 278.074C244.975 280.256 247.225 281.995 250.122 283.29C253.054 284.586 256.634 285.234 260.861 285.234C266.827 285.234 271.463 284.057 274.77 281.705C278.077 279.387 280.31 276.404 281.469 272.756C282.662 269.109 283.259 264.881 283.259 260.074V251.79C280.156 256.222 276.423 259.682 272.06 262.171C267.73 264.66 262.6 265.904 256.668 265.904C249.202 265.904 242.912 264.114 237.798 260.535C232.719 256.955 228.918 252.097 226.395 245.961C223.906 239.824 222.662 232.904 222.662 225.199C222.662 217.563 223.906 210.745 226.395 204.745C228.918 198.745 232.719 194.023 237.798 190.58C242.878 187.103 249.168 185.364 256.668 185.364C262.702 185.364 267.884 186.506 272.213 188.79C276.577 191.04 280.259 194.33 283.259 198.66V186.182H296.554V260.074Z" fill="#FF4B00"/>
<path d="M210.76 186.182V264.727H200.941V186.182H210.76ZM210.76 160V173.091H200.941V160H210.76Z" fill="#FFBFE1"/>
<path d="M155.749 190.375C150.431 190.375 145.795 191.926 141.84 195.028C137.92 198.131 134.937 202.341 132.891 207.659C130.88 212.977 129.942 218.892 130.079 225.403H181.624C181.454 218.756 180.346 212.79 178.3 207.506C176.255 202.188 173.306 198.011 169.454 194.977C165.636 191.909 161.067 190.375 155.749 190.375ZM123.227 225.659C123.227 217.989 124.437 211.102 126.857 205C129.278 198.864 132.925 194.023 137.8 190.477C142.675 186.932 148.675 185.159 155.8 185.159C162.891 185.159 168.857 186.932 173.698 190.477C178.539 194.023 182.136 198.847 184.488 204.949C186.84 211.051 188.016 217.955 188.016 225.659C188.016 227.773 187.948 229.682 187.812 231.386H175.59H130.079C130.556 237.523 131.937 242.807 134.221 247.239C136.505 251.671 139.488 255.046 143.17 257.364C146.852 259.648 150.942 260.79 155.442 260.79C159.908 260.79 163.727 259.886 166.897 258.08C170.067 256.273 172.607 253.989 174.516 251.227C176.46 248.432 178.045 245.313 179.272 241.869H185.971C184.607 246.779 182.596 251.057 179.937 254.705C177.278 258.318 173.92 261.148 169.863 263.193C165.806 265.205 161.119 266.21 155.8 266.21C148.71 266.21 142.71 264.438 137.8 260.892C132.925 257.313 129.278 252.455 126.857 246.318C124.437 240.182 123.227 233.296 123.227 225.659Z" fill="#8159FB"/>
<path d="M29.608 264.727H26.1818L0 186.182H3.42614L29.608 264.727ZM85.0909 264.727H81.6648L107.847 186.182H111.273L85.0909 264.727ZM82.7898 264.727H79.3636L54 186.182H57.4261L82.7898 264.727ZM31.9091 264.727H28.483L53.8466 186.182H57.2727L31.9091 264.727Z" fill="#02903B"/>
<path d="M843.541 28.0739C837.575 28.0739 832.376 29.8467 827.944 33.3921C823.546 36.9035 820.256 41.7103 818.075 47.8126C815.893 53.9149 815.04 60.6819 815.518 68.1137H871.666C871.666 60.4433 870.575 53.591 868.393 47.5569C866.211 41.4887 862.989 36.733 858.728 33.2899C854.501 29.8126 849.438 28.0739 843.541 28.0739ZM811.836 65.6592C811.836 57.9887 813.012 51.1024 815.364 45.0001C817.717 38.8637 821.245 34.0228 825.95 30.4774C830.688 26.9319 836.501 25.1592 843.387 25.1592C850.273 25.1592 856.052 26.9319 860.722 30.4774C865.427 34.0228 868.921 38.8467 871.205 44.9489C873.489 51.0512 874.631 57.9546 874.631 65.6592C874.631 67.7387 874.563 69.6478 874.427 71.3864H862.563H815.518C815.961 78.2728 817.461 84.1024 820.018 88.8751C822.609 93.6137 825.916 97.1592 829.938 99.5114C833.961 101.83 838.342 102.989 843.08 102.989C848.16 102.989 852.421 102.017 855.864 100.074C859.342 98.0967 862.069 95.6592 864.046 92.7614C866.058 89.8637 867.711 86.6421 869.006 83.0967H872.33C870.933 87.7671 868.938 91.841 866.347 95.3183C863.756 98.7615 860.535 101.438 856.683 103.347C852.83 105.256 848.398 106.21 843.387 106.21C836.535 106.21 830.739 104.438 826.001 100.892C821.262 97.3126 817.717 92.4546 815.364 86.3183C813.012 80.1819 811.836 73.2955 811.836 65.6592Z" fill="#FDC800"/>
<path d="M769.724 104.727H762.769L793.093 26.1816H799.996L769.724 104.727ZM767.985 104.727H760.979L730.758 26.1816H737.661L767.985 104.727Z" fill="#FF4B00"/>
<path d="M718.908 26.1818V104.727H709.09V26.1818H718.908ZM718.908 0V13.0909H709.09V0H718.908Z" fill="#FFBFE1"/>
<path d="M682.511 103.654C677.67 105.461 672.011 106.364 665.534 106.364C658.613 106.364 652.767 105.409 647.994 103.5C643.255 101.694 639.454 98.8129 636.591 94.8583C633.897 90.9379 632.363 85.9606 631.988 79.9265H645.897C646.238 83.6083 647.159 86.6083 648.659 88.9265C650.193 91.2106 652.289 92.8129 654.948 93.7333C657.812 94.756 661.375 95.2674 665.636 95.2674C669.795 95.2674 673.153 94.8413 675.71 93.989C678.301 93.1026 680.227 91.8072 681.488 90.1026C682.136 89.3185 682.613 88.4151 682.92 87.3924C683.227 86.3697 683.38 85.2447 683.38 84.0174C683.38 81.8015 682.852 79.9265 681.795 78.3924C680.738 76.9265 678.966 75.6822 676.477 74.6594C673.92 73.6026 670.511 72.6992 666.25 71.9492L658.579 70.5685C653.397 69.6822 648.983 68.2844 645.335 66.3754C641.721 64.4322 638.943 61.9094 637 58.8072C635.091 55.739 634.136 52.006 634.136 47.6083C634.136 42.9719 635.278 39.0344 637.562 35.7958C639.948 32.4208 643.323 29.8299 647.687 28.0231C651.914 26.1822 657.147 25.2617 663.386 25.2617C670.613 25.2617 676.545 26.2844 681.181 28.3299C685.954 30.4094 689.517 33.3413 691.869 37.1254C694.255 40.8754 695.551 45.5288 695.755 51.0856H682.153C681.948 47.3356 681.096 44.4208 679.596 42.3413C678.096 40.1254 676.034 38.6424 673.409 37.8924C670.681 37.006 667.341 36.5629 663.386 36.5629C660.113 36.5629 657.301 36.9719 654.948 37.7901C652.63 38.6083 650.892 39.8015 649.733 41.3697C648.505 43.0742 647.892 45.0174 647.892 47.1992C647.892 49.4833 648.488 51.3413 649.681 52.7731C650.875 54.3413 652.511 55.5344 654.591 56.3526C656.841 57.3072 659.585 58.0401 662.823 58.5515L670.443 59.9833C676.477 61.006 681.454 62.472 685.375 64.381C689.261 66.1879 692.227 68.6254 694.272 71.6935C696.318 74.6935 697.341 78.4435 697.341 82.9435C697.341 87.8867 696.079 92.114 693.556 95.6254C691.034 99.1367 687.352 101.813 682.511 103.654Z" fill="#8159FB"/>
<path d="M591.796 25.875C597.387 25.875 602.364 27.017 606.727 29.3011C611.091 31.5852 614.466 34.7045 616.852 38.6591C619.273 42.5795 620.483 46.892 620.483 51.5966V104.727H600.387V56.9148C600.387 53.6761 599.671 50.7273 598.239 48.0682C596.807 45.375 594.813 43.2443 592.256 41.6761C589.699 40.0739 586.818 39.2727 583.614 39.2727C580.034 39.2727 576.796 40.142 573.898 41.8807C571 43.6193 568.716 46.0057 567.046 49.0398C565.375 52.0398 564.54 55.3977 564.54 59.1136V104.727H560.5V54C560.5 48.7159 561.847 43.9432 564.54 39.6818C567.233 35.3864 570.949 32.0114 575.688 29.5568C580.46 27.1023 585.83 25.875 591.796 25.875ZM564.54 26.1818V104.727H544.443V26.1818H564.54Z" fill="#014ADD"/>
<path d="M490.124 38.3524C486.851 38.3524 484.073 39.3069 481.789 41.216C479.539 43.1251 477.8 45.6478 476.573 48.7842C475.345 51.8864 474.561 55.3296 474.22 59.1137H506.232C505.891 55.3296 505.09 51.8864 503.828 48.7842C502.567 45.6478 500.794 43.1251 498.51 41.216C496.226 39.3069 493.431 38.3524 490.124 38.3524ZM446.709 65.7103C446.709 58.0399 448.328 51.1535 451.567 45.0512C454.84 38.9149 459.749 34.074 466.294 30.5285C472.874 26.949 480.936 25.1592 490.482 25.1592C500.027 25.1592 508.039 26.949 514.516 30.5285C521.027 34.074 525.868 38.8978 529.039 45.0001C532.209 51.1024 533.794 58.0058 533.794 65.7103C533.76 67.3808 533.709 68.9319 533.641 70.3637H517.073H473.76C474.067 74.3183 474.851 77.8808 476.112 81.0512C477.374 84.1876 479.164 86.6933 481.482 88.5683C483.834 90.4433 486.715 91.3808 490.124 91.3808C492.749 91.3808 495.067 90.7501 497.078 89.4887C499.124 88.1933 500.794 86.4887 502.09 84.3751C503.419 82.2615 504.408 79.9262 505.056 77.3694H532.567C531.135 83.3694 528.578 88.5342 524.896 92.8637C521.249 97.1592 516.51 100.466 510.681 102.784C504.885 105.068 498.152 106.21 490.482 106.21C480.936 106.21 472.874 104.438 466.294 100.892C459.749 97.3126 454.84 92.4717 451.567 86.3694C448.328 80.233 446.709 73.3467 446.709 65.7103Z" fill="#02903B"/>
<path d="M407.692 104.727C403.465 104.727 399.783 103.705 396.646 101.659C393.544 99.5796 391.158 96.9546 389.487 93.7842C387.851 90.5796 387.033 87.324 387.033 84.0171V42.7501H373.584V26.1819H387.033V15.0342L421.703 2.09668V26.1819H439.55V42.7501H421.703V82.4319C421.703 83.4205 421.925 84.324 422.368 85.1421C422.811 85.9603 423.425 86.608 424.209 87.0853C425.027 87.5626 425.965 87.8012 427.021 87.8012H438.681V104.727H407.692Z" fill="#FDC800"/>
<path d="M368.968 104.727H326.525L252.019 26.1816H294.411L368.968 104.727ZM294.258 104.727H251.764L326.269 26.1816H368.764L294.258 104.727Z" fill="#FF4B00"/>
<path d="M189.684 43.466C187.672 43.466 186.053 44.1819 184.826 45.6137C183.633 47.0114 182.78 48.7842 182.269 50.9319C181.792 53.0455 181.536 55.3126 181.502 57.733H197.866C197.832 55.2103 197.593 52.9092 197.15 50.8296C196.707 48.716 195.888 46.9603 194.695 45.5626C193.502 44.1649 191.832 43.466 189.684 43.466ZM132.564 65.7103C132.564 58.0399 134.695 51.1535 138.956 45.0512C143.252 38.9149 149.712 34.074 158.337 30.5285C166.962 26.949 177.547 25.1592 190.093 25.1592C202.638 25.1592 213.172 26.949 221.695 30.5285C230.218 34.074 236.559 38.8978 240.718 45.0001C244.911 51.1024 247.008 58.0058 247.008 65.7103C246.974 66.733 246.939 67.7558 246.905 68.7785H225.019H180.377C180.377 71.7444 180.65 74.3353 181.195 76.5512C181.741 78.7671 182.695 80.5399 184.059 81.8694C185.457 83.1989 187.332 83.8637 189.684 83.8637C191.422 83.8637 192.888 83.4035 194.082 82.483C195.309 81.5285 196.212 80.3183 196.792 78.8524C197.371 77.3865 197.661 75.8865 197.661 74.3524H246.189C244.519 81.3069 241.212 87.1705 236.269 91.9433C231.326 96.6819 224.951 100.244 217.144 102.631C209.337 105.017 200.32 106.21 190.093 106.21C177.547 106.21 166.962 104.438 158.337 100.892C149.712 97.3126 143.252 92.4717 138.956 86.3694C134.695 80.233 132.564 73.3467 132.564 65.7103Z" fill="#FFBFE1"/>
</svg>
