<svg width="740" height="1047" viewBox="0 0 740 1047" fill="none" xmlns="http://www.w3.org/2000/svg">
<g clip-path="url(#clip0_10225_7921)">
<rect width="739.863" height="1047" transform="translate(0.136719)" fill="#F5F5F5"/>
<rect x="-5.45703" y="-9.94922" width="751.055" height="533.448" fill="black"/>
<path d="M25.0059 524.51C25.0059 714.524 179.495 868.561 370.068 868.561V180.459C179.495 180.459 25.0059 334.496 25.0059 524.51Z" fill="#02903B"/>
<path d="M715.131 523.498C715.131 714.071 560.641 868.56 370.068 868.56V178.436C560.641 178.436 715.131 332.925 715.131 523.498Z" fill="#014ADD"/>
<path d="M101.436 524.51C101.436 714.524 221.706 868.561 370.067 868.561V180.459C221.706 180.459 101.436 334.496 101.436 524.51Z" fill="#014ADD"/>
<path d="M644.25 523.498C644.25 714.071 521.493 868.56 370.065 868.56V178.436C521.493 178.436 644.25 332.925 644.25 523.498Z" fill="#02903B"/>
<path d="M187.984 524.51C187.984 714.524 269.507 868.561 370.069 868.561V180.459C269.507 180.459 187.984 334.496 187.984 524.51Z" fill="#02903B"/>
<path d="M552.234 523.498C552.234 714.071 470.675 868.56 370.066 868.56V178.436C470.675 178.436 552.234 332.925 552.234 523.498Z" fill="#014ADD"/>
<path d="M280.15 524.51C280.15 714.524 320.408 868.561 370.069 868.561V180.459C320.408 180.459 280.15 334.496 280.15 524.51Z" fill="#014ADD"/>
<path d="M460.219 523.498C460.219 714.071 419.857 868.56 370.067 868.56V178.436C419.857 178.436 460.219 332.925 460.219 523.498Z" fill="#02903B"/>
<path d="M25.0059 524.51C25.0059 714.524 179.495 868.561 370.068 868.561V524.51H25.0059Z" fill="#014ADD"/>
<path d="M715.131 523.498C715.131 714.071 560.641 868.56 370.068 868.56V523.498H715.131Z" fill="#02903B"/>
<path d="M101.436 524.51C101.436 714.524 221.706 868.561 370.067 868.561V524.51H101.436Z" fill="#02903B"/>
<path d="M644.25 523.498C644.25 714.071 521.493 868.56 370.065 868.56V523.498H644.25Z" fill="#014ADD"/>
<path d="M187.984 524.51C187.984 714.524 269.507 868.561 370.069 868.561V524.51H187.984Z" fill="#014ADD"/>
<path d="M552.234 523.498C552.234 714.071 470.675 868.56 370.066 868.56V523.498H552.234Z" fill="#02903B"/>
<path d="M280.15 524.51C280.15 714.524 320.408 868.561 370.069 868.561V524.51H280.15Z" fill="#02903B"/>
<path d="M460.219 523.498C460.219 714.071 419.857 868.56 370.067 868.56V523.498H460.219Z" fill="#014ADD"/>
<path d="M130.782 937.54V1002.65H126.713V937.54H130.782ZM164.896 937.54V940.942H127.603V937.54H164.896ZM164.26 968.22V971.622H127.221V968.22H164.26ZM192.946 1000.74C197.015 1000.74 200.502 999.77 203.406 997.82C206.331 995.87 208.535 993.22 210.019 989.871C211.524 986.501 212.276 982.729 212.276 978.553C212.276 974.399 211.524 970.637 210.019 967.266C208.535 963.896 206.331 961.236 203.406 959.286C200.502 957.315 197.015 956.33 192.946 956.33C188.77 956.33 185.273 957.305 182.454 959.255C179.635 961.205 177.537 963.854 176.159 967.203C174.781 970.531 174.093 974.314 174.093 978.553C174.093 982.517 174.845 986.194 176.35 989.585C177.876 992.955 180.07 995.658 182.931 997.693C185.792 999.727 189.131 1000.74 192.946 1000.74ZM192.946 953.309C198.139 953.309 202.516 954.411 206.076 956.616C209.637 958.799 212.297 961.798 214.057 965.613C215.816 969.407 216.695 973.721 216.695 978.553C216.695 983.237 215.816 987.487 214.057 991.302C212.297 995.117 209.627 998.148 206.045 1000.4C202.484 1002.64 198.118 1003.77 192.946 1003.77C187.923 1003.77 183.662 1002.64 180.165 1000.4C176.668 998.148 174.05 995.117 172.312 991.302C170.574 987.487 169.705 983.237 169.705 978.553C169.705 973.721 170.574 969.407 172.312 965.613C174.05 961.798 176.657 958.799 180.133 956.616C183.63 954.411 187.901 953.309 192.946 953.309ZM243.672 953.818C246.788 953.818 249.628 954.517 252.193 955.916C254.778 957.315 256.813 959.233 258.297 961.671C259.781 964.087 260.522 966.758 260.522 969.683V1002.65H256.516V970.891C256.516 968.496 255.891 966.281 254.641 964.246C253.39 962.19 251.705 960.548 249.586 959.318C247.487 958.089 245.209 957.474 242.75 957.474C239.995 957.474 237.44 958.099 235.088 959.35C232.735 960.601 230.859 962.286 229.46 964.405C228.083 966.503 227.394 968.782 227.394 971.241V1002.65H225.2V971.654C225.2 968.475 226.016 965.528 227.648 962.815C229.28 960.081 231.506 957.898 234.325 956.266C237.165 954.634 240.281 953.818 243.672 953.818ZM227.394 953.754V1002.65H223.356V953.754H227.394ZM285.726 1002.65C283.522 1002.65 281.53 1002.12 279.749 1001.06C277.969 1000 276.559 998.562 275.521 996.739C274.503 994.916 273.995 992.892 273.995 990.666V957.093H266.523V953.818H273.995V943.708L278.064 941.673V953.818H290.114V957.093H278.064V990.857C278.064 992.341 278.414 993.708 279.113 994.958C279.834 996.209 280.777 997.195 281.943 997.915C283.13 998.636 284.391 998.996 285.726 998.996H289.732V1002.65H285.726ZM337.033 1000.74C341.102 1000.74 344.589 999.77 347.493 997.82C350.418 995.87 352.622 993.22 354.106 989.871C355.611 986.501 356.363 982.729 356.363 978.553C356.363 974.399 355.611 970.637 354.106 967.266C352.622 963.896 350.418 961.236 347.493 959.286C344.589 957.315 341.102 956.33 337.033 956.33C332.857 956.33 329.36 957.305 326.541 959.255C323.722 961.205 321.624 963.854 320.246 967.203C318.868 970.531 318.179 974.314 318.179 978.553C318.179 982.517 318.932 986.194 320.437 989.585C321.963 992.955 324.156 995.658 327.018 997.693C329.879 999.727 333.218 1000.74 337.033 1000.74ZM337.033 953.309C342.226 953.309 346.603 954.411 350.163 956.616C353.724 958.799 356.384 961.798 358.143 965.613C359.903 969.407 360.782 973.721 360.782 978.553C360.782 983.237 359.903 987.487 358.143 991.302C356.384 995.117 353.714 998.148 350.132 1000.4C346.571 1002.64 342.204 1003.77 337.033 1003.77C332.009 1003.77 327.749 1002.64 324.252 1000.4C320.755 998.148 318.137 995.117 316.399 991.302C314.661 987.487 313.792 983.237 313.792 978.553C313.792 973.721 314.661 969.407 316.399 965.613C318.137 961.798 320.744 958.799 324.22 956.616C327.717 954.411 331.988 953.309 337.033 953.309ZM387.759 953.818C390.875 953.818 393.715 954.517 396.279 955.916C398.865 957.315 400.9 959.233 402.384 961.671C403.867 964.087 404.609 966.758 404.609 969.683V1002.65H400.603V970.891C400.603 968.496 399.978 966.281 398.727 964.246C397.477 962.19 395.792 960.548 393.672 959.318C391.574 958.089 389.295 957.474 386.837 957.474C384.081 957.474 381.527 958.099 379.175 959.35C376.822 960.601 374.946 962.286 373.547 964.405C372.17 966.503 371.481 968.782 371.481 971.241V1002.65H369.287V971.654C369.287 968.475 370.103 965.528 371.735 962.815C373.367 960.081 375.593 957.898 378.412 956.266C381.252 954.634 384.368 953.818 387.759 953.818ZM371.481 953.754V1002.65H367.443V953.754H371.481ZM450.503 956.425C447.175 956.425 444.282 957.389 441.823 959.318C439.386 961.247 437.531 963.865 436.259 967.171C435.009 970.478 434.426 974.155 434.511 978.203H466.59C466.463 974.07 465.763 970.361 464.492 967.076C463.22 963.769 461.387 961.173 458.992 959.286C456.618 957.379 453.788 956.425 450.503 956.425ZM430.25 978.362C430.25 973.593 431.003 969.312 432.508 965.518C434.013 961.703 436.281 958.693 439.312 956.489C442.364 954.284 446.094 953.182 450.503 953.182C454.911 953.182 458.621 954.284 461.63 956.489C464.64 958.693 466.876 961.692 468.339 965.486C469.801 969.28 470.532 973.572 470.532 978.362C470.532 979.676 470.49 980.863 470.405 981.923H462.807H434.511C434.807 985.738 435.666 989.024 437.086 991.779C438.506 994.534 440.361 996.633 442.65 998.074C444.939 999.494 447.493 1000.2 450.312 1000.2C453.067 1000.2 455.431 999.643 457.402 998.519C459.373 997.396 460.963 995.976 462.171 994.259C463.379 992.521 464.354 990.582 465.096 988.441H469.293C468.445 991.493 467.184 994.153 465.509 996.421C463.856 998.668 461.768 1000.43 459.246 1001.7C456.724 1002.95 453.809 1003.57 450.503 1003.57C446.094 1003.57 442.364 1002.47 439.312 1000.27C436.281 998.042 434.013 995.022 432.508 991.207C431.003 987.392 430.25 983.11 430.25 978.362ZM509.686 992.924C508.796 994.662 507.789 996.177 506.665 997.47C505.563 998.742 504.26 999.833 502.755 1000.74C501.271 1001.63 499.554 1002.35 497.604 1002.87C494.15 1003.57 490.917 1003.53 487.907 1002.75C484.898 1001.98 482.386 1000.63 480.372 998.678C478.38 996.707 477.087 994.344 476.494 991.588C475.837 988.43 476.017 985.558 477.034 982.972C478.052 980.386 479.737 978.235 482.089 976.518C484.463 974.78 487.293 973.572 490.578 972.894C492.867 972.385 495.866 972.078 499.576 971.972C503.306 971.845 506.676 971.908 509.686 972.163V970.764C509.686 967.712 509.431 965.221 508.923 963.292C508.435 961.364 507.227 959.732 505.298 958.396C503.37 957.04 500.413 956.361 496.428 956.361C491.892 956.34 488.649 957.432 486.699 959.636C484.771 961.84 483.668 964.479 483.393 967.553H479.069C479.62 963.059 481.22 959.573 483.87 957.093C486.519 954.592 490.737 953.341 496.523 953.341C501.992 953.341 505.987 954.199 508.509 955.916C511.032 957.612 512.537 959.594 513.024 961.862C513.533 964.108 513.777 967.097 513.755 970.827V972.131V1002.65H509.686V992.924ZM498.272 999.219C500.095 998.689 501.6 997.989 502.787 997.12C503.995 996.23 505.15 995.117 506.252 993.782C507.185 992.616 507.874 991.578 508.319 990.666C508.764 989.755 509.071 988.738 509.241 987.614C509.431 986.491 509.527 985.018 509.527 983.195V975.374C506.687 975.183 503.73 975.109 500.657 975.151C497.583 975.172 495.125 975.363 493.281 975.723C490.462 976.275 488.013 977.165 485.936 978.394C483.88 979.602 482.365 981.256 481.39 983.354C480.436 985.431 480.277 987.953 480.913 990.921C481.422 993.125 482.524 994.958 484.219 996.421C485.915 997.862 487.992 998.827 490.451 999.314C492.931 999.802 495.538 999.77 498.272 999.219ZM521.584 1002.68V953.85H525.559V962.307C526.364 959.382 528.102 957.114 530.773 955.503C533.464 953.871 536.686 953.161 540.438 953.373C540.798 953.394 541.105 953.415 541.36 953.436C541.635 953.436 541.932 953.447 542.25 953.468V957.601C541.911 957.495 541.582 957.432 541.264 957.411C540.946 957.389 540.533 957.379 540.024 957.379C536.866 957.252 534.249 957.707 532.172 958.746C530.094 959.784 528.473 961.364 527.307 963.483C526.141 965.581 525.559 968.379 525.559 971.877V1002.68H521.584ZM565.682 1002.65C563.477 1002.65 561.485 1002.12 559.704 1001.06C557.924 1000 556.515 998.562 555.476 996.739C554.459 994.916 553.95 992.892 553.95 990.666V957.093H546.478V953.818H553.95V943.708L558.019 941.673V953.818H570.069V957.093H558.019V990.857C558.019 992.341 558.369 993.708 559.069 994.958C559.789 996.209 560.732 997.195 561.898 997.915C563.085 998.636 564.346 998.996 565.682 998.996H569.688V1002.65H565.682ZM596.807 953.818C599.923 953.818 602.763 954.517 605.328 955.916C607.914 957.315 609.948 959.233 611.432 961.671C612.916 964.087 613.658 966.758 613.658 969.683V1002.65H609.652V970.891C609.652 968.496 609.026 966.281 607.776 964.246C606.525 962.19 604.84 960.548 602.721 959.318C600.622 958.089 598.344 957.474 595.885 957.474C593.13 957.474 590.576 958.099 588.223 959.35C585.87 960.601 583.994 962.286 582.596 964.405C581.218 966.503 580.529 968.782 580.529 971.241V1002.65H578.335V971.654C578.335 968.475 579.151 965.528 580.783 962.815C582.415 960.081 584.641 957.898 587.46 956.266C590.3 954.634 593.416 953.818 596.807 953.818ZM580.529 937.54V1002.65H576.491V937.54H580.529Z" fill="black"/>
<path d="M162.238 39.7566V104.869H158.168V39.7566H162.238ZM183.952 39.7566V43.2539H136.485V39.7566H183.952ZM210.842 56.0348C213.957 56.0348 216.797 56.7342 219.362 58.1331C221.948 59.532 223.983 61.4502 225.466 63.8877C226.95 66.304 227.692 68.9746 227.692 71.8996V104.869H223.686V73.1077C223.686 70.7126 223.061 68.4977 221.81 66.4629C220.56 64.407 218.875 62.7643 216.755 61.535C214.657 60.3056 212.378 59.691 209.919 59.691C207.164 59.691 204.61 60.3162 202.257 61.5668C199.905 62.8173 198.029 64.5024 196.63 66.6219C195.252 68.7203 194.563 70.9988 194.563 73.4574V104.869H192.37V73.8708C192.37 70.6914 193.186 67.7453 194.818 65.0322C196.45 62.298 198.675 60.1149 201.494 58.4828C204.334 56.8508 207.45 56.0348 210.842 56.0348ZM194.563 39.7566V104.869H190.526V39.7566H194.563ZM254.613 58.6418C251.285 58.6418 248.392 59.6062 245.933 61.535C243.496 63.4638 241.641 66.0814 240.369 69.3879C239.119 72.6944 238.536 76.3718 238.621 80.4202H270.7C270.573 76.287 269.874 72.5778 268.602 69.2925C267.33 65.986 265.497 63.3896 263.102 61.5032C260.728 59.5956 257.898 58.6418 254.613 58.6418ZM234.361 80.5791C234.361 75.8101 235.113 71.5287 236.618 67.7347C238.123 63.9195 240.391 60.9097 243.422 58.7054C246.474 56.5011 250.204 55.3989 254.613 55.3989C259.021 55.3989 262.731 56.5011 265.74 58.7054C268.75 60.9097 270.986 63.9089 272.449 67.7029C273.911 71.4969 274.643 75.7889 274.643 80.5791C274.643 81.8932 274.6 83.0802 274.515 84.14H266.917H238.621C238.918 87.9551 239.776 91.2404 241.196 93.9959C242.616 96.7513 244.471 98.8496 246.76 100.291C249.049 101.711 251.603 102.421 254.422 102.421C257.177 102.421 259.541 101.859 261.512 100.736C263.483 99.6127 265.073 98.1926 266.281 96.4757C267.489 94.7377 268.464 92.7983 269.206 90.6576H273.403C272.555 93.7097 271.294 96.3698 269.619 98.6377C267.966 100.884 265.878 102.644 263.356 103.915C260.834 105.166 257.919 105.791 254.613 105.791C250.204 105.791 246.474 104.689 243.422 102.485C240.391 100.259 238.123 97.2388 236.618 93.4236C235.113 89.6084 234.361 85.3269 234.361 80.5791ZM320.782 102.707C324.619 102.707 327.83 101.753 330.416 99.8458C333.023 97.9382 334.952 95.3524 336.202 92.0883C337.474 88.803 338.11 85.0832 338.11 80.9289C338.11 76.7745 337.474 73.0123 336.202 69.6423C334.93 66.251 332.991 63.5592 330.384 61.5668C327.798 59.5744 324.598 58.5782 320.782 58.5782C317.01 58.5782 313.82 59.585 311.213 61.5986C308.627 63.5909 306.687 66.2828 305.395 69.6741C304.123 73.0441 303.487 76.8063 303.487 80.9606C303.487 85.0938 304.123 88.803 305.395 92.0883C306.687 95.3736 308.627 97.97 311.213 99.8776C313.82 101.764 317.01 102.707 320.782 102.707ZM342.465 103.947C342.465 107.699 341.575 111.111 339.795 114.185C338.014 117.258 335.513 119.695 332.292 121.497C329.091 123.299 325.435 124.199 321.323 124.199C318.313 124.199 315.473 123.68 312.802 122.642C310.132 121.603 307.8 120.087 305.808 118.095C303.815 116.103 302.353 113.718 301.42 110.942H305.744C306.465 112.786 307.578 114.439 309.083 115.901C310.609 117.364 312.431 118.508 314.551 119.335C316.671 120.183 318.928 120.607 321.323 120.607C324.651 120.607 327.607 119.844 330.193 118.318C332.779 116.813 334.771 114.799 336.17 112.277C337.569 109.776 338.269 106.999 338.269 103.947V94.1866C336.594 97.8322 334.231 100.694 331.179 102.771C328.148 104.827 324.449 105.855 320.083 105.855C315.441 105.855 311.541 104.753 308.383 102.548C305.225 100.323 302.862 97.3024 301.293 93.4872C299.746 89.672 298.972 85.3693 298.972 80.5791C298.972 75.8313 299.746 71.5604 301.293 67.7665C302.862 63.9725 305.225 60.9839 308.383 58.8008C311.541 56.5964 315.441 55.4943 320.083 55.4943C324.492 55.4943 328.211 56.5011 331.242 58.5146C334.273 60.507 336.615 63.2942 338.269 66.8762V56.003H342.465V103.947ZM349.388 104.901V56.0666H353.363V64.5235C354.168 61.5986 355.906 59.3307 358.577 57.7198C361.268 56.0877 364.49 55.3777 368.242 55.5897C368.602 55.6109 368.909 55.632 369.164 55.6532C369.439 55.6532 369.736 55.6638 370.054 55.685V59.8182C369.715 59.7122 369.386 59.6486 369.068 59.6274C368.75 59.6062 368.337 59.5956 367.828 59.5956C364.67 59.4684 362.053 59.9241 359.976 60.9627C357.898 62.0013 356.277 63.5804 355.111 65.6999C353.945 67.7983 353.363 70.5961 353.363 74.0933V104.901H349.388ZM393.716 58.6418C390.388 58.6418 387.495 59.6062 385.037 61.535C382.599 63.4638 380.744 66.0814 379.473 69.3879C378.222 72.6944 377.639 76.3718 377.724 80.4202H409.803C409.676 76.287 408.977 72.5778 407.705 69.2925C406.433 65.986 404.6 63.3896 402.205 61.5032C399.831 59.5956 397.001 58.6418 393.716 58.6418ZM373.464 80.5791C373.464 75.8101 374.216 71.5287 375.721 67.7347C377.226 63.9195 379.494 60.9097 382.525 58.7054C385.577 56.5011 389.307 55.3989 393.716 55.3989C398.125 55.3989 401.834 56.5011 404.844 58.7054C407.853 60.9097 410.09 63.9089 411.552 67.7029C413.015 71.4969 413.746 75.7889 413.746 80.5791C413.746 81.8932 413.703 83.0802 413.619 84.14H406.02H377.724C378.021 87.9551 378.879 91.2404 380.299 93.9959C381.719 96.7513 383.574 98.8496 385.863 100.291C388.152 101.711 390.706 102.421 393.525 102.421C396.281 102.421 398.644 101.859 400.615 100.736C402.586 99.6127 404.176 98.1926 405.384 96.4757C406.592 94.7377 407.567 92.7983 408.309 90.6576H412.506C411.658 93.7097 410.397 96.3698 408.722 98.6377C407.069 100.884 404.981 102.644 402.459 103.915C399.937 105.166 397.023 105.791 393.716 105.791C389.307 105.791 385.577 104.689 382.525 102.485C379.494 100.259 377.226 97.2388 375.721 93.4236C374.216 89.6084 373.464 85.3269 373.464 80.5791ZM452.899 95.1404C452.009 96.8784 451.002 98.3939 449.879 99.6868C448.777 100.959 447.473 102.05 445.968 102.962C444.485 103.852 442.768 104.562 440.818 105.092C437.363 105.791 434.131 105.749 431.121 104.965C428.111 104.201 425.599 102.845 423.586 100.895C421.593 98.9238 420.3 96.5605 419.707 93.8051C419.05 90.647 419.23 87.775 420.247 85.1891C421.265 82.6033 422.95 80.452 425.303 78.7351C427.677 76.9971 430.506 75.7889 433.791 75.1107C436.081 74.602 439.08 74.2947 442.789 74.1887C446.519 74.0615 449.889 74.1251 452.899 74.3794V72.9805C452.899 69.9284 452.645 67.4379 452.136 65.5091C451.649 63.5804 450.44 61.9483 448.512 60.613C446.583 59.2565 443.626 58.5782 439.641 58.5782C435.106 58.557 431.863 59.6486 429.913 61.8529C427.984 64.0572 426.882 66.6961 426.606 69.7694H422.282C422.833 65.276 424.434 61.7893 427.083 59.3095C429.732 56.8084 433.95 55.5579 439.737 55.5579C445.205 55.5579 449.201 56.4163 451.723 58.1331C454.245 59.8288 455.75 61.8105 456.237 64.0784C456.746 66.3252 456.99 69.3137 456.969 73.0441V74.3477V104.869H452.899V95.1404ZM441.485 101.435C443.308 100.906 444.813 100.206 446 99.3371C447.208 98.4469 448.363 97.3341 449.465 95.9988C450.398 94.8331 451.087 93.7945 451.532 92.8831C451.977 91.9717 452.284 90.9543 452.454 89.8309C452.645 88.7076 452.74 87.2345 452.74 85.4117V77.5906C449.9 77.3998 446.943 77.3256 443.87 77.368C440.797 77.3892 438.338 77.58 436.494 77.9403C433.675 78.4914 431.227 79.3816 429.15 80.6109C427.094 81.8191 425.578 83.4723 424.603 85.5707C423.649 87.6478 423.49 90.1701 424.126 93.1374C424.635 95.3418 425.737 97.1752 427.433 98.6377C429.128 100.079 431.206 101.043 433.664 101.531C436.144 102.018 438.751 101.987 441.485 101.435ZM482.316 104.869C480.111 104.869 478.119 104.339 476.339 103.279C474.558 102.22 473.149 100.778 472.11 98.9556C471.093 97.1328 470.584 95.1086 470.584 92.8831V59.3095H463.113V56.0348H470.584V45.9245L474.654 43.8898V56.0348H486.703V59.3095H474.654V93.0739C474.654 94.5575 475.003 95.9246 475.703 97.1752C476.423 98.4257 477.367 99.4113 478.532 100.132C479.719 100.853 480.981 101.213 482.316 101.213H486.322V104.869H482.316ZM511.486 58.6418C508.158 58.6418 505.265 59.6062 502.807 61.535C500.369 63.4638 498.514 66.0814 497.243 69.3879C495.992 72.6944 495.409 76.3718 495.494 80.4202H527.573C527.446 76.287 526.747 72.5778 525.475 69.2925C524.203 65.986 522.37 63.3896 519.975 61.5032C517.601 59.5956 514.771 58.6418 511.486 58.6418ZM491.234 80.5791C491.234 75.8101 491.986 71.5287 493.491 67.7347C494.996 63.9195 497.264 60.9097 500.295 58.7054C503.347 56.5011 507.077 55.3989 511.486 55.3989C515.895 55.3989 519.604 56.5011 522.614 58.7054C525.623 60.9097 527.86 63.9089 529.322 67.7029C530.785 71.4969 531.516 75.7889 531.516 80.5791C531.516 81.8932 531.473 83.0802 531.389 84.14H523.79H495.494C495.791 87.9551 496.649 91.2404 498.069 93.9959C499.489 96.7513 501.344 98.8496 503.633 100.291C505.922 101.711 508.476 102.421 511.295 102.421C514.051 102.421 516.414 101.859 518.385 100.736C520.356 99.6127 521.946 98.1926 523.154 96.4757C524.362 94.7377 525.337 92.7983 526.079 90.6576H530.276C529.428 93.7097 528.167 96.3698 526.492 98.6377C524.839 100.884 522.751 102.644 520.229 103.915C517.707 105.166 514.793 105.791 511.486 105.791C507.077 105.791 503.347 104.689 500.295 102.485C497.264 100.259 494.996 97.2388 493.491 93.4236C491.986 89.6084 491.234 85.3269 491.234 80.5791ZM566.345 104.36C563.569 105.335 560.326 105.823 556.617 105.823C552.399 105.823 548.848 105.176 545.966 103.884C543.104 102.612 540.9 100.8 539.353 98.4469C537.869 96.0306 537.032 93.2116 536.841 89.9899H541.165C541.377 92.6182 542.055 94.8437 543.2 96.6665C544.366 98.4681 546.051 99.867 548.255 100.863C550.544 101.796 553.342 102.262 556.648 102.262C559.616 102.262 562.18 101.912 564.342 101.213C566.483 100.535 568.126 99.4431 569.27 97.9382C569.864 97.1964 570.298 96.3698 570.574 95.4583C570.871 94.5257 571.019 93.4872 571.019 92.3426C571.019 90.5198 570.627 88.9831 569.843 87.7326C569.016 86.4609 567.712 85.4223 565.932 84.6169C564.173 83.7902 561.809 83.1226 558.842 82.6139L553.437 81.7555C550.004 81.162 547.227 80.3354 545.107 79.2756C542.945 78.237 541.239 76.8063 539.989 74.9835C538.844 73.2031 538.272 71.0094 538.272 68.4023C538.272 65.6893 538.95 63.3896 540.307 61.5032C541.727 59.5532 543.719 58.0801 546.284 57.0839C548.891 56.0454 551.996 55.5261 555.599 55.5261C559.838 55.5261 563.314 56.1195 566.027 57.3065C568.74 58.5358 570.743 60.1997 572.036 62.298C573.308 64.3116 574.06 66.8233 574.294 69.833H570.033C569.864 67.5015 569.249 65.5409 568.189 63.9513C567.13 62.3404 565.593 61.1535 563.579 60.3904C561.502 59.5638 558.831 59.1505 555.567 59.1505C552.876 59.1505 550.544 59.5002 548.573 60.1997C546.623 60.8991 545.139 61.9271 544.122 63.2836C543.083 64.6825 542.564 66.357 542.564 68.3069C542.564 70.2357 543.03 71.836 543.963 73.1077C544.874 74.3794 546.22 75.3968 548.001 76.1599C549.929 76.9653 552.24 77.58 554.932 78.0039L560.305 78.9259C563.759 79.4982 566.578 80.3248 568.762 81.4057C570.945 82.4655 572.598 83.8856 573.721 85.666C574.845 87.4677 575.406 89.5872 575.406 92.0247C575.406 95.098 574.612 97.6733 573.022 99.7504C571.432 101.806 569.207 103.343 566.345 104.36ZM599.299 104.869C597.095 104.869 595.102 104.339 593.322 103.279C591.541 102.22 590.132 100.778 589.093 98.9556C588.076 97.1328 587.567 95.1086 587.567 92.8831V59.3095H580.096V56.0348H587.567V45.9245L591.637 43.8898V56.0348H603.686V59.3095H591.637V93.0739C591.637 94.5575 591.987 95.9246 592.686 97.1752C593.407 98.4257 594.35 99.4113 595.516 100.132C596.703 100.853 597.964 101.213 599.299 101.213H603.305V104.869H599.299Z" fill="#F5F5F5"/>
</g>
<defs>
<clipPath id="clip0_10225_7921">
<rect width="739.863" height="1047" fill="white" transform="translate(0.136719)"/>
</clipPath>
</defs>
</svg>
