<svg width="740" height="745" viewBox="0 0 740 745" fill="none" xmlns="http://www.w3.org/2000/svg">
<rect y="0.0078125" width="740.004" height="744.418" rx="8.01584" fill="#FFBFE1"/>
<rect x="38.3037" y="39.1533" width="663.395" height="666.506" rx="7.51485" stroke="#014ADD" stroke-width="1.00198"/>
<path d="M68.6751 672.894H72.0609C72.7934 672.894 73.4586 673.078 74.0566 673.445C74.6545 673.813 75.1269 674.344 75.4737 675.037C75.8235 675.731 75.9984 676.547 75.9984 677.486C75.9984 678.425 75.8235 679.241 75.4737 679.935C75.1269 680.628 74.6545 681.159 74.0566 681.527C73.4586 681.894 72.7934 682.078 72.0609 682.078H68.6751V672.894ZM71.7963 681.316C72.4003 681.316 72.9459 681.181 73.4332 680.912C73.9205 680.643 74.3092 680.223 74.5992 679.652C74.8892 679.078 75.0342 678.356 75.0342 677.486C75.0342 676.619 74.8892 675.898 74.5992 675.324C74.3122 674.747 73.925 674.324 73.4377 674.055C72.9504 673.783 72.4047 673.647 71.8008 673.647H69.5361V681.316H71.7963ZM79.6802 675.755C79.2676 675.755 78.9089 675.873 78.6039 676.109C78.3019 676.342 78.0688 676.659 77.9043 677.06C77.7399 677.461 77.6502 677.906 77.6352 678.396H81.7521C81.7222 677.9 81.622 677.453 81.4516 677.055C81.2842 676.655 81.0495 676.338 80.7475 676.105C80.4486 675.871 80.0928 675.755 79.6802 675.755ZM76.7518 678.656C76.7518 677.984 76.8609 677.38 77.0792 676.845C77.3004 676.306 77.6308 675.882 78.0702 675.571C78.5127 675.257 79.0554 675.1 79.6981 675.1C80.3409 675.1 80.8806 675.257 81.3171 675.571C81.7536 675.882 82.0779 676.305 82.2902 676.84C82.5055 677.375 82.6131 677.981 82.6131 678.656C82.6131 678.839 82.6071 679.005 82.5952 679.154H81.4875H77.6352C77.6771 679.627 77.7862 680.042 77.9626 680.401C78.139 680.76 78.3722 681.039 78.6622 681.24C78.9552 681.44 79.29 681.54 79.6668 681.54C80.0046 681.54 80.2991 681.468 80.5502 681.325C80.8013 681.178 81.0091 680.988 81.1736 680.755C81.338 680.522 81.471 680.259 81.5727 679.966H82.4561C82.3395 680.414 82.1617 680.807 81.9225 681.145C81.6833 681.48 81.3769 681.742 81.0031 681.93C80.6294 682.115 80.1944 682.208 79.6981 682.208C79.0583 682.208 78.5172 682.053 78.0747 681.742C77.6323 681.428 77.3004 681.003 77.0792 680.468C76.8609 679.93 76.7518 679.326 76.7518 678.656ZM87.6044 681.993C87.1948 682.142 86.7165 682.217 86.1694 682.217C85.5684 682.217 85.0617 682.129 84.6491 681.953C84.2425 681.785 83.9211 681.531 83.6849 681.19C83.4607 680.849 83.3351 680.434 83.3082 679.943H84.2231C84.25 680.29 84.3367 680.577 84.4832 680.805C84.6327 681.035 84.8434 681.204 85.1155 681.311C85.4055 681.425 85.7598 681.482 86.1783 681.482C86.57 681.482 86.8989 681.438 87.1649 681.352C87.428 681.262 87.6283 681.127 87.7659 680.948C87.8346 680.861 87.8855 680.763 87.9183 680.652C87.9542 680.541 87.9722 680.419 87.9722 680.284C87.9722 680.06 87.9198 679.87 87.8152 679.715C87.7106 679.562 87.5416 679.435 87.3084 679.334C87.0723 679.226 86.7553 679.139 86.3577 679.073L85.6402 678.952C85.1738 678.869 84.7851 678.749 84.4742 678.594C84.1633 678.432 83.9211 678.22 83.7477 677.957C83.5833 677.697 83.501 677.378 83.501 677.002C83.501 676.607 83.5982 676.272 83.7925 675.997C83.9988 675.713 84.2873 675.496 84.6581 675.347C85.0288 675.191 85.4787 675.114 86.0079 675.114C86.6238 675.114 87.1276 675.2 87.5192 675.374C87.9198 675.55 88.2173 675.797 88.4116 676.114C88.609 676.419 88.7196 676.798 88.7435 677.253H87.8466C87.8257 676.927 87.7449 676.661 87.6044 676.454C87.4639 676.245 87.2651 676.097 87.008 676.011C86.7419 675.912 86.407 675.863 86.0034 675.863C85.6686 675.863 85.3801 675.906 85.1379 675.993C84.8987 676.079 84.7194 676.203 84.5998 676.365C84.4712 676.538 84.4069 676.741 84.4069 676.975C84.4069 677.214 84.4652 677.41 84.5818 677.562C84.7014 677.721 84.8688 677.843 85.0841 677.93C85.3203 678.029 85.6043 678.105 85.9362 678.159L86.6492 678.284C87.1545 678.371 87.57 678.495 87.8959 678.656C88.2218 678.809 88.4699 679.015 88.6404 679.275C88.8078 679.532 88.8915 679.846 88.8915 680.217C88.8915 680.651 88.7794 681.018 88.5552 681.32C88.3339 681.616 88.017 681.84 87.6044 681.993ZM89.59 678.656C89.59 677.984 89.7096 677.38 89.9487 676.845C90.1879 676.306 90.5497 675.882 91.034 675.571C91.5213 675.257 92.1178 675.1 92.8233 675.1C93.4362 675.1 93.9624 675.211 94.4019 675.432C94.8414 675.65 95.1897 675.961 95.4468 676.365C95.7039 676.768 95.8743 677.248 95.958 677.804H95.0118C94.9341 677.374 94.801 677.006 94.6127 676.701C94.4243 676.393 94.1762 676.157 93.8682 675.993C93.5633 675.825 93.203 675.741 92.7875 675.741C92.2942 675.741 91.8786 675.87 91.5407 676.127C91.2029 676.381 90.9503 676.728 90.7829 677.168C90.6184 677.607 90.5362 678.103 90.5362 678.656C90.5362 679.21 90.6184 679.707 90.7829 680.15C90.9503 680.589 91.2029 680.938 91.5407 681.195C91.8786 681.452 92.2942 681.58 92.7875 681.58C93.1941 681.58 93.5498 681.501 93.8548 681.343C94.1597 681.181 94.4064 680.953 94.5947 680.657C94.7861 680.358 94.9221 679.999 95.0028 679.58H95.9536C95.8639 680.124 95.689 680.594 95.4289 680.988C95.1688 681.38 94.8205 681.683 94.384 681.899C93.9475 682.111 93.4273 682.217 92.8233 682.217C92.1178 682.217 91.5213 682.062 91.034 681.751C90.5497 681.437 90.1879 681.011 89.9487 680.473C89.7096 679.935 89.59 679.329 89.59 678.656ZM99.5603 675.755C99.1477 675.755 98.7889 675.873 98.484 676.109C98.182 676.342 97.9488 676.659 97.7844 677.06C97.6199 677.461 97.5303 677.906 97.5153 678.396H101.632C101.602 677.9 101.502 677.453 101.332 677.055C101.164 676.655 100.93 676.338 100.628 676.105C100.329 675.871 99.9728 675.755 99.5603 675.755ZM96.6318 678.656C96.6318 677.984 96.741 677.38 96.9592 676.845C97.1805 676.306 97.5108 675.882 97.9503 675.571C98.3928 675.257 98.9354 675.1 99.5782 675.1C100.221 675.1 100.761 675.257 101.197 675.571C101.634 675.882 101.958 676.305 102.17 676.84C102.386 677.375 102.493 677.981 102.493 678.656C102.493 678.839 102.487 679.005 102.475 679.154H101.368H97.5153C97.5572 679.627 97.6663 680.042 97.8427 680.401C98.0191 680.76 98.2523 681.039 98.5423 681.24C98.8353 681.44 99.1701 681.54 99.5468 681.54C99.8846 681.54 100.179 681.468 100.43 681.325C100.681 681.178 100.889 680.988 101.054 680.755C101.218 680.522 101.351 680.259 101.453 679.966H102.336C102.22 680.414 102.042 680.807 101.803 681.145C101.563 681.48 101.257 681.742 100.883 681.93C100.509 682.115 100.074 682.208 99.5782 682.208C98.9384 682.208 98.3973 682.053 97.9548 681.742C97.5123 681.428 97.1805 681.003 96.9592 680.468C96.741 679.93 96.6318 679.326 96.6318 678.656ZM106.489 675.19C106.928 675.19 107.328 675.288 107.686 675.486C108.045 675.68 108.326 675.946 108.529 676.284C108.736 676.622 108.839 676.994 108.839 677.401V682.078H107.996V677.683C107.996 677.372 107.915 677.084 107.754 676.818C107.595 676.549 107.38 676.336 107.108 676.181C106.836 676.022 106.541 675.943 106.224 675.943C105.863 675.943 105.528 676.028 105.22 676.199C104.912 676.369 104.667 676.599 104.484 676.889C104.305 677.179 104.215 677.493 104.215 677.831V682.078H103.883V677.679C103.883 677.23 103.997 676.816 104.224 676.437C104.454 676.054 104.768 675.75 105.166 675.526C105.564 675.302 106.005 675.19 106.489 675.19ZM104.215 675.185V682.078H103.368V675.185H104.215ZM86.4553 697.074H85.5987V687.894H86.4553V697.074ZM83.4327 696.486C83.8991 696.486 84.2952 696.362 84.6211 696.114C84.9469 695.863 85.1906 695.526 85.3521 695.105C85.5165 694.683 85.5987 694.217 85.5987 693.706C85.5987 693.18 85.5165 692.7 85.3521 692.266C85.1906 691.833 84.9469 691.489 84.6211 691.235C84.2982 690.978 83.902 690.849 83.4327 690.849C82.9513 690.849 82.5492 690.976 82.2263 691.23C81.9064 691.484 81.6687 691.828 81.5133 692.262C81.3578 692.692 81.2801 693.175 81.2801 693.71C81.2801 694.242 81.3563 694.716 81.5088 695.132C81.6642 695.547 81.9034 695.878 82.2263 696.123C82.5492 696.365 82.9513 696.486 83.4327 696.486ZM83.195 690.19C83.8378 690.19 84.3759 690.339 84.8094 690.638C85.2429 690.937 85.5643 691.347 85.7736 691.867C85.9859 692.384 86.092 692.975 86.092 693.638C86.092 694.305 85.9859 694.903 85.7736 695.432C85.5643 695.958 85.2429 696.376 84.8094 696.683C84.3759 696.991 83.8378 697.145 83.195 697.145C82.5671 697.145 82.0365 696.991 81.603 696.683C81.1724 696.376 80.8496 695.957 80.6343 695.428C80.422 694.899 80.3159 694.304 80.3159 693.643C80.3159 692.997 80.422 692.414 80.6343 691.894C80.8496 691.371 81.1724 690.957 81.603 690.652C82.0365 690.344 82.5671 690.19 83.195 690.19ZM90.3479 690.755C89.9353 690.755 89.5765 690.873 89.2716 691.109C88.9696 691.342 88.7364 691.659 88.572 692.06C88.4075 692.461 88.3178 692.906 88.3029 693.396H92.4197C92.3898 692.9 92.2897 692.453 92.1193 692.055C91.9518 691.655 91.7171 691.338 91.4152 691.105C91.1162 690.871 90.7604 690.755 90.3479 690.755ZM87.4194 693.656C87.4194 692.984 87.5286 692.38 87.7468 691.845C87.968 691.306 88.2984 690.882 88.7379 690.571C89.1804 690.257 89.723 690.1 90.3658 690.1C91.0086 690.1 91.5482 690.257 91.9847 690.571C92.4212 690.882 92.7456 691.305 92.9579 691.84C93.1731 692.375 93.2808 692.981 93.2808 693.656C93.2808 693.839 93.2748 694.005 93.2628 694.154H92.1551H88.3029C88.3448 694.627 88.4539 695.042 88.6303 695.401C88.8067 695.76 89.0399 696.039 89.3299 696.24C89.6229 696.44 89.9577 696.54 90.3344 696.54C90.6722 696.54 90.9667 696.468 91.2179 696.325C91.469 696.178 91.6768 695.988 91.8412 695.755C92.0056 695.522 92.1387 695.259 92.2403 694.966H93.1238C93.0072 695.414 92.8293 695.807 92.5901 696.145C92.351 696.48 92.0445 696.742 91.6708 696.93C91.2971 697.115 90.8621 697.208 90.3658 697.208C89.726 697.208 89.1849 697.053 88.7424 696.742C88.2999 696.428 87.968 696.003 87.7468 695.468C87.5286 694.93 87.4194 694.326 87.4194 693.656ZM94.1328 697.078V690.19H94.9714V691.338C95.088 690.946 95.3287 690.643 95.6935 690.428C96.0612 690.212 96.4812 690.111 96.9536 690.123C97.0164 690.123 97.0792 690.124 97.142 690.127C97.2048 690.127 97.2616 690.13 97.3124 690.136V691.011C97.2526 690.987 97.1838 690.972 97.1061 690.966C97.0284 690.96 96.9372 690.958 96.8325 690.961C96.4439 690.958 96.1135 691.022 95.8414 691.154C95.5724 691.286 95.3601 691.493 95.2046 691.777C95.0492 692.061 94.9714 692.432 94.9714 692.89V697.078H94.1328Z" fill="#014ADD"/>
<path d="M63.5818 559.789C63.8868 559.789 64.1693 559.714 64.4294 559.565C64.6895 559.413 64.8958 559.206 65.0483 558.946C65.2007 558.686 65.277 558.402 65.277 558.094C65.277 557.789 65.2007 557.507 65.0483 557.246C64.8958 556.986 64.6895 556.78 64.4294 556.628C64.1693 556.475 63.8868 556.399 63.5818 556.399H60.8866V559.789H63.5818ZM63.824 555.632C64.2515 555.632 64.6447 555.738 65.0034 555.95C65.3622 556.16 65.6462 556.444 65.8555 556.802C66.0648 557.161 66.1694 557.553 66.1694 557.977C66.1694 558.402 66.0648 558.794 65.8555 559.152C65.6462 559.511 65.3622 559.795 65.0034 560.004C64.6447 560.214 64.2515 560.318 63.824 560.318H60.1556V555.632H63.824ZM63.8643 564.05C64.1872 564.05 64.4877 563.97 64.7657 563.812C65.0438 563.65 65.265 563.435 65.4295 563.166C65.5939 562.894 65.6761 562.598 65.6761 562.278C65.6761 561.958 65.5939 561.664 65.4295 561.395C65.265 561.123 65.0438 560.907 64.7657 560.749C64.4877 560.587 64.1872 560.507 63.8643 560.507H60.9404V564.05H63.8643ZM64.1962 560.031C64.6327 560.031 65.0333 560.139 65.3981 560.354C65.7628 560.57 66.0513 560.86 66.2636 561.224C66.4788 561.589 66.5865 561.988 66.5865 562.422C66.5865 562.855 66.4788 563.256 66.2636 563.624C66.0513 563.991 65.7628 564.283 65.3981 564.498C65.0333 564.71 64.6327 564.816 64.1962 564.816H60.1556V560.031H64.1962ZM61.0211 555.632V564.816H60.1556V555.632H61.0211ZM71.9825 563.502C71.854 563.763 71.712 563.981 71.5565 564.157C71.401 564.331 71.2231 564.474 71.0228 564.588C70.8255 564.698 70.5923 564.787 70.3232 564.852C69.8658 564.951 69.4278 564.945 69.0093 564.834C68.5907 564.724 68.2379 564.529 67.9509 564.251C67.6639 563.973 67.48 563.641 67.3993 563.256C67.3096 562.843 67.3365 562.453 67.48 562.085C67.6235 561.718 67.8582 561.407 68.1841 561.153C68.513 560.898 68.9016 560.723 69.3501 560.628C69.667 560.556 70.0811 560.511 70.5923 560.493C71.1035 560.472 71.567 560.48 71.9825 560.516V560.305C71.9825 559.934 71.9451 559.62 71.8704 559.363C71.7957 559.106 71.6342 558.892 71.3861 558.722C71.1379 558.551 70.7747 558.466 70.2963 558.466C69.7343 558.463 69.3277 558.596 69.0765 558.865C68.8284 559.131 68.6819 559.465 68.637 559.865H67.7625C67.8403 559.232 68.072 558.74 68.4577 558.39C68.8463 558.037 69.4607 557.861 70.3008 557.861C71.1021 557.861 71.688 557.982 72.0588 558.224C72.4295 558.463 72.6537 558.744 72.7314 559.067C72.8122 559.39 72.851 559.81 72.848 560.327V560.511V564.816H71.9825V563.502ZM70.5295 564.085C70.7328 564.035 70.9122 563.955 71.0677 563.848C71.2231 563.74 71.3696 563.603 71.5072 563.435C71.6208 563.298 71.7075 563.163 71.7673 563.032C71.83 562.9 71.8734 562.758 71.8973 562.606C71.9242 562.45 71.9377 562.268 71.9377 562.058V561.188C71.5879 561.164 71.2187 561.156 70.83 561.161C70.4413 561.164 70.1304 561.19 69.8972 561.238C69.5354 561.303 69.2275 561.411 68.9734 561.561C68.7222 561.71 68.5384 561.912 68.4218 562.166C68.3082 562.42 68.2872 562.73 68.359 563.094C68.4218 563.363 68.5593 563.585 68.7716 563.758C68.9838 563.931 69.2425 564.047 69.5474 564.103C69.8553 564.16 70.1827 564.154 70.5295 564.085ZM78.0243 564.731C77.6148 564.881 77.1364 564.955 76.5893 564.955C75.9884 564.955 75.4816 564.867 75.069 564.691C74.6624 564.523 74.341 564.269 74.1048 563.928C73.8806 563.588 73.755 563.172 73.7281 562.682H74.643C74.6699 563.029 74.7566 563.316 74.9031 563.543C75.0526 563.773 75.2634 563.942 75.5354 564.05C75.8254 564.163 76.1797 564.22 76.5983 564.22C76.9899 564.22 77.3188 564.177 77.5849 564.09C77.848 564 78.0483 563.866 78.1858 563.686C78.2546 563.6 78.3054 563.501 78.3383 563.39C78.3741 563.28 78.3921 563.157 78.3921 563.023C78.3921 562.798 78.3398 562.609 78.2351 562.453C78.1305 562.301 77.9616 562.174 77.7284 562.072C77.4922 561.964 77.1753 561.878 76.7776 561.812L76.0601 561.691C75.5937 561.607 75.2051 561.487 74.8941 561.332C74.5832 561.17 74.341 560.958 74.1676 560.695C74.0032 560.435 73.921 560.117 73.921 559.74C73.921 559.345 74.0181 559.01 74.2125 558.735C74.4188 558.451 74.7073 558.235 75.078 558.085C75.4487 557.93 75.8987 557.852 76.4278 557.852C77.0437 557.852 77.5475 557.939 77.9391 558.112C78.3398 558.288 78.6372 558.535 78.8316 558.852C79.0289 559.157 79.1395 559.537 79.1634 559.991H78.2665C78.2456 559.665 78.1649 559.399 78.0243 559.193C77.8838 558.983 77.685 558.835 77.4279 558.749C77.1618 558.65 76.827 558.601 76.4234 558.601C76.0885 558.601 75.8 558.644 75.5578 558.731C75.3187 558.818 75.1393 558.942 75.0197 559.103C74.8911 559.276 74.8269 559.48 74.8269 559.713C74.8269 559.952 74.8852 560.148 75.0018 560.3C75.1213 560.459 75.2888 560.581 75.504 560.668C75.7402 560.767 76.0242 560.843 76.3561 560.897L77.0691 561.022C77.5744 561.109 77.99 561.233 78.3158 561.395C78.6417 561.547 78.8899 561.753 79.0603 562.014C79.2277 562.271 79.3114 562.585 79.3114 562.955C79.3114 563.389 79.1993 563.757 78.9751 564.059C78.7538 564.354 78.4369 564.579 78.0243 564.731ZM82.9383 558.493C82.5257 558.493 82.167 558.611 81.862 558.847C81.56 559.081 81.3269 559.398 81.1624 559.798C80.998 560.199 80.9083 560.644 80.8933 561.135H85.0102C84.9803 560.638 84.8801 560.191 84.7097 559.794C84.5423 559.393 84.3076 559.076 84.0056 558.843C83.7067 558.61 83.3509 558.493 82.9383 558.493ZM80.0099 561.395C80.0099 560.722 80.119 560.118 80.3373 559.583C80.5585 559.045 80.8889 558.62 81.3283 558.309C81.7708 557.995 82.3135 557.838 82.9562 557.838C83.599 557.838 84.1387 557.995 84.5752 558.309C85.0117 558.62 85.336 559.043 85.5483 559.578C85.7636 560.114 85.8712 560.719 85.8712 561.395C85.8712 561.577 85.8652 561.743 85.8533 561.892H84.7456H80.8933C80.9352 562.365 81.0443 562.78 81.2207 563.139C81.3971 563.498 81.6303 563.777 81.9203 563.978C82.2133 564.178 82.5481 564.278 82.9249 564.278C83.2627 564.278 83.5572 564.207 83.8083 564.063C84.0594 563.917 84.2672 563.727 84.4317 563.493C84.5961 563.26 84.7291 562.997 84.8308 562.704H85.7142C85.5976 563.153 85.4198 563.546 85.1806 563.884C84.9414 564.218 84.635 564.48 84.2612 564.668C83.8875 564.854 83.4525 564.946 82.9562 564.946C82.3164 564.946 81.7753 564.791 81.3328 564.48C80.8904 564.166 80.5585 563.742 80.3373 563.206C80.119 562.668 80.0099 562.064 80.0099 561.395ZM87.6067 555.632V564.816H86.7457V555.632H87.6067ZM89.4286 557.928V564.816H88.5675V557.928H89.4286ZM89.4286 555.632V556.78H88.5675V555.632H89.4286ZM93.5174 557.928C93.9569 557.928 94.356 558.027 94.7148 558.224C95.0735 558.418 95.3546 558.685 95.5579 559.022C95.7642 559.36 95.8673 559.732 95.8673 560.139V564.816H95.0242V560.422C95.0242 560.111 94.9435 559.822 94.782 559.556C94.6236 559.287 94.4083 559.075 94.1363 558.919C93.8642 558.761 93.5697 558.682 93.2528 558.682C92.891 558.682 92.5562 558.767 92.2483 558.937C91.9403 559.108 91.6952 559.338 91.5128 559.628C91.3334 559.918 91.2437 560.232 91.2437 560.57V564.816H90.9119V560.417C90.9119 559.969 91.0255 559.555 91.2527 559.175C91.4829 558.792 91.7968 558.489 92.1944 558.264C92.5921 558.04 93.0331 557.928 93.5174 557.928ZM91.2437 557.924V564.816H90.3961V557.924H91.2437ZM99.6736 558.493C99.261 558.493 98.9022 558.611 98.5973 558.847C98.2953 559.081 98.0621 559.398 97.8977 559.798C97.7332 560.199 97.6436 560.644 97.6286 561.135H101.745C101.716 560.638 101.615 560.191 101.445 559.794C101.278 559.393 101.043 559.076 100.741 558.843C100.442 558.61 100.086 558.493 99.6736 558.493ZM96.7452 561.395C96.7452 560.722 96.8543 560.118 97.0725 559.583C97.2938 559.045 97.6241 558.62 98.0636 558.309C98.5061 557.995 99.0487 557.838 99.6915 557.838C100.334 557.838 100.874 557.995 101.31 558.309C101.747 558.62 102.071 559.043 102.284 559.578C102.499 560.114 102.606 560.719 102.606 561.395C102.606 561.577 102.6 561.743 102.589 561.892H101.481H97.6286C97.6705 562.365 97.7796 562.78 97.956 563.139C98.1324 563.498 98.3656 563.777 98.6556 563.978C98.9486 564.178 99.2834 564.278 99.6601 564.278C99.998 564.278 100.292 564.207 100.544 564.063C100.795 563.917 101.002 563.727 101.167 563.493C101.331 563.26 101.464 562.997 101.566 562.704H102.45C102.333 563.153 102.155 563.546 101.916 563.884C101.677 564.218 101.37 564.48 100.997 564.668C100.623 564.854 100.188 564.946 99.6915 564.946C99.0517 564.946 98.5106 564.791 98.0681 564.48C97.6256 564.166 97.2938 563.742 97.0725 563.206C96.8543 562.668 96.7452 562.064 96.7452 561.395Z" fill="#014ADD"/>
<path d="M67.4532 296.912H66.3814L59.8519 287.728H60.9237L67.4532 296.912ZM60.9237 296.912H59.8519L66.3814 287.728H67.4532L60.9237 296.912ZM71.8268 292.598V293.351H68.0059V292.598H71.8268ZM74.2529 287.728V296.912H73.3874V287.728H74.2529ZM80.2039 287.728V296.912H79.3429V287.728H80.2039ZM79.881 291.961V292.715H73.8493V291.961H79.881ZM84.0965 290.589C83.684 290.589 83.3252 290.707 83.0202 290.943C82.7183 291.176 82.4851 291.493 82.3207 291.894C82.1562 292.295 82.0665 292.74 82.0516 293.23H86.1684C86.1385 292.734 86.0384 292.287 85.8679 291.889C85.7005 291.489 85.4658 291.172 85.1639 290.939C84.8649 290.705 84.5091 290.589 84.0965 290.589ZM81.1681 293.49C81.1681 292.818 81.2772 292.214 81.4955 291.679C81.7167 291.14 82.0471 290.716 82.4866 290.405C82.9291 290.091 83.4717 289.934 84.1145 289.934C84.7573 289.934 85.2969 290.091 85.7334 290.405C86.1699 290.716 86.4943 291.139 86.7066 291.674C86.9218 292.209 87.0294 292.815 87.0294 293.49C87.0294 293.673 87.0235 293.839 87.0115 293.988H85.9038H82.0516C82.0934 294.461 82.2026 294.876 82.379 295.235C82.5553 295.594 82.7885 295.873 83.0785 296.073C83.3715 296.274 83.7064 296.374 84.0831 296.374C84.4209 296.374 84.7154 296.302 84.9665 296.159C85.2177 296.012 85.4255 295.822 85.5899 295.589C85.7543 295.356 85.8874 295.093 85.989 294.8H86.8725C86.7559 295.248 86.578 295.641 86.3388 295.979C86.0996 296.314 85.7932 296.576 85.4195 296.764C85.0458 296.949 84.6108 297.042 84.1145 297.042C83.4747 297.042 82.9335 296.887 82.4911 296.576C82.0486 296.262 81.7167 295.837 81.4955 295.302C81.2772 294.764 81.1681 294.16 81.1681 293.49ZM88.6753 290.024V296.912H87.8142V290.024H88.6753ZM88.6753 287.728V288.876H87.8142V287.728H88.6753ZM92.6475 296.374C93.1408 296.374 93.5519 296.25 93.8807 296.002C94.2096 295.754 94.4533 295.416 94.6117 294.988C94.7702 294.561 94.8494 294.075 94.8494 293.531C94.8494 292.981 94.7702 292.486 94.6117 292.046C94.4533 291.607 94.2081 291.257 93.8762 290.997C93.5474 290.737 93.1378 290.607 92.6475 290.607C92.1691 290.607 91.764 290.738 91.4322 291.001C91.1003 291.262 90.8522 291.613 90.6877 292.055C90.5233 292.498 90.4411 292.99 90.4411 293.531C90.4411 294.069 90.5233 294.553 90.6877 294.984C90.8522 295.411 91.0988 295.751 91.4277 296.002C91.7595 296.25 92.1661 296.374 92.6475 296.374ZM95.7732 296.643C95.7732 297.217 95.6581 297.728 95.4279 298.177C95.2007 298.628 94.8569 298.984 94.3965 299.244C93.939 299.507 93.38 299.639 92.7192 299.639C92.2409 299.639 91.8044 299.561 91.4097 299.406C91.0181 299.25 90.6847 299.02 90.4097 298.715C90.1376 298.413 89.9388 298.044 89.8132 297.607H90.7101C90.7849 297.855 90.9105 298.078 91.0868 298.275C91.2662 298.476 91.4934 298.633 91.7685 298.746C92.0465 298.863 92.3635 298.921 92.7192 298.921C93.2155 298.921 93.6266 298.817 93.9525 298.607C94.2813 298.398 94.5205 298.124 94.67 297.787C94.8225 297.449 94.8987 297.068 94.8987 296.643V295.594C94.6416 296.042 94.3112 296.395 93.9076 296.652C93.504 296.906 93.0167 297.033 92.4457 297.033C91.7939 297.033 91.2438 296.876 90.7954 296.562C90.3499 296.248 90.0165 295.822 89.7953 295.284C89.577 294.746 89.4679 294.141 89.4679 293.468C89.4679 292.795 89.577 292.194 89.7953 291.665C90.0165 291.136 90.3499 290.717 90.7954 290.409C91.2408 290.102 91.7909 289.948 92.4457 289.948C93.0227 289.948 93.513 290.069 93.9166 290.311C94.3202 290.553 94.6476 290.895 94.8987 291.338V290.019H95.7732V296.643ZM99.8923 290.024C100.332 290.024 100.731 290.122 101.09 290.32C101.448 290.514 101.729 290.78 101.933 291.118C102.139 291.456 102.242 291.828 102.242 292.235V296.912H101.399V292.517C101.399 292.206 101.318 291.918 101.157 291.652C100.998 291.383 100.783 291.17 100.511 291.015C100.239 290.856 99.9446 290.777 99.6277 290.777C99.2659 290.777 98.9311 290.862 98.6232 291.033C98.3152 291.203 98.0701 291.433 97.8877 291.723C97.7083 292.013 97.6186 292.327 97.6186 292.665V296.912H97.2868V292.513C97.2868 292.064 97.4004 291.65 97.6276 291.271C97.8578 290.888 98.1717 290.584 98.5693 290.36C98.967 290.136 99.408 290.024 99.8923 290.024ZM97.6186 287.728V296.912H96.771V287.728H97.6186ZM105.797 296.912C105.486 296.912 105.201 296.837 104.941 296.688C104.684 296.535 104.48 296.329 104.331 296.069C104.181 295.806 104.107 295.519 104.107 295.208V290.71H103.008V290.024H104.107V288.611L104.972 288.243V290.024H106.542V290.71H104.972V295.298C104.972 295.453 105.01 295.597 105.084 295.728C105.159 295.857 105.259 295.96 105.385 296.038C105.513 296.115 105.649 296.154 105.793 296.154H106.443V296.912H105.797Z" fill="#014ADD"/>
<path d="M64.0273 198.302C64.7059 198.302 65.3039 198.426 65.8211 198.674C66.3413 198.919 66.7703 199.272 67.1082 199.733C67.449 200.19 67.6957 200.74 67.8481 201.383H66.8391C66.6508 200.641 66.3204 200.069 65.848 199.665C65.3756 199.259 64.7702 199.055 64.0318 199.055C63.377 199.055 62.8254 199.217 62.377 199.54C61.9315 199.86 61.5967 200.314 61.3724 200.903C61.1512 201.492 61.0406 202.19 61.0406 202.997C61.0406 203.805 61.1512 204.504 61.3724 205.096C61.5967 205.688 61.9315 206.145 62.377 206.468C62.8254 206.788 63.377 206.948 64.0318 206.948C64.7702 206.948 65.3756 206.746 65.848 206.343C66.3204 205.939 66.6508 205.365 66.8391 204.621H67.8481C67.6957 205.263 67.449 205.815 67.1082 206.276C66.7703 206.733 66.3413 207.086 65.8211 207.334C65.3039 207.579 64.7059 207.702 64.0273 207.702C63.1722 207.702 62.4457 207.509 61.8478 207.123C61.2498 206.737 60.7969 206.192 60.489 205.486C60.184 204.781 60.0315 203.951 60.0315 202.997C60.0315 202.05 60.184 201.223 60.489 200.517C60.7969 199.812 61.2498 199.266 61.8478 198.88C62.4457 198.495 63.1722 198.302 64.0273 198.302ZM73.224 206.293C73.0954 206.554 72.9534 206.772 72.798 206.948C72.6425 207.122 72.4646 207.265 72.2643 207.379C72.067 207.489 71.8338 207.578 71.5647 207.643C71.1073 207.742 70.6693 207.736 70.2507 207.625C69.8322 207.515 69.4794 207.32 69.1924 207.042C68.9054 206.764 68.7215 206.432 68.6408 206.047C68.5511 205.634 68.578 205.244 68.7215 204.876C68.865 204.509 69.0997 204.198 69.4256 203.944C69.7544 203.689 70.1431 203.515 70.5916 203.419C70.9085 203.347 71.3225 203.302 71.8338 203.284C72.345 203.263 72.8084 203.271 73.224 203.307V203.096C73.224 202.725 73.1866 202.411 73.1119 202.154C73.0371 201.897 72.8757 201.683 72.6276 201.513C72.3794 201.342 72.0162 201.257 71.5378 201.257C70.9757 201.254 70.5691 201.387 70.318 201.656C70.0699 201.922 69.9234 202.256 69.8785 202.656H69.004C69.0818 202.023 69.3135 201.531 69.6991 201.181C70.0878 200.828 70.7022 200.652 71.5423 200.652C72.3435 200.652 72.9295 200.773 73.3002 201.015C73.671 201.254 73.8952 201.535 73.9729 201.858C74.0536 202.181 74.0925 202.601 74.0895 203.118V203.302V207.607H73.224V206.293ZM71.771 206.876C71.9743 206.826 72.1537 206.746 72.3091 206.639C72.4646 206.531 72.6111 206.394 72.7486 206.226C72.8622 206.089 72.9489 205.954 73.0087 205.823C73.0715 205.691 73.1149 205.549 73.1388 205.397C73.1657 205.241 73.1792 205.059 73.1792 204.849V203.979C72.8294 203.955 72.4601 203.947 72.0715 203.953C71.6828 203.955 71.3719 203.981 71.1387 204.029C70.7769 204.095 70.469 204.202 70.2149 204.352C69.9637 204.501 69.7799 204.703 69.6633 204.957C69.5496 205.211 69.5287 205.521 69.6005 205.885C69.6633 206.154 69.8008 206.376 70.0131 206.549C70.2253 206.722 70.4839 206.838 70.7889 206.894C71.0968 206.951 71.4242 206.945 71.771 206.876ZM75.149 200.719H76.01V209.899H75.149V200.719ZM78.1716 201.293C77.7052 201.293 77.3091 201.416 76.9832 201.661C76.6573 201.906 76.4121 202.241 76.2477 202.665C76.0863 203.087 76.0055 203.561 76.0055 204.087C76.0055 204.619 76.0863 205.104 76.2477 205.54C76.4121 205.977 76.6573 206.323 76.9832 206.58C77.3091 206.835 77.7052 206.962 78.1716 206.962C78.6529 206.962 79.0551 206.835 79.3779 206.58C79.7008 206.323 79.94 205.978 80.0955 205.545C80.2539 205.108 80.3332 204.621 80.3332 204.083C80.3332 203.55 80.2554 203.075 80.1 202.656C79.9445 202.235 79.7053 201.903 79.3824 201.661C79.0595 201.416 78.6559 201.293 78.1716 201.293ZM78.4093 207.603C77.7665 207.603 77.2253 207.453 76.7859 207.154C76.3494 206.856 76.0235 206.447 75.8082 205.93C75.593 205.41 75.4853 204.818 75.4853 204.154C75.4853 203.491 75.593 202.896 75.8082 202.369C76.0235 201.84 76.3494 201.422 76.7859 201.114C77.2253 200.803 77.7665 200.647 78.4093 200.647C79.0401 200.647 79.5708 200.801 80.0013 201.109C80.4318 201.417 80.7532 201.836 80.9655 202.365C81.1807 202.894 81.2884 203.491 81.2884 204.154C81.2884 204.8 81.1807 205.383 80.9655 205.903C80.7532 206.423 80.4318 206.838 80.0013 207.146C79.5708 207.45 79.0401 207.603 78.4093 207.603ZM86.2371 198.423V207.607H85.3716V198.423H86.2371ZM92.1881 198.423V207.607H91.3271V198.423H92.1881ZM91.8652 202.656V203.41H85.8335V202.656H91.8652ZM96.0807 201.284C95.6681 201.284 95.3093 201.402 95.0044 201.638C94.7024 201.872 94.4692 202.189 94.3048 202.589C94.1404 202.99 94.0507 203.435 94.0357 203.926H98.1526C98.1227 203.429 98.0225 202.982 97.8521 202.585C97.6847 202.184 97.45 201.867 97.148 201.634C96.849 201.401 96.4933 201.284 96.0807 201.284ZM93.1523 204.186C93.1523 203.513 93.2614 202.909 93.4796 202.374C93.7009 201.836 94.0312 201.411 94.4707 201.1C94.9132 200.786 95.4558 200.629 96.0986 200.629C96.7414 200.629 97.2811 200.786 97.7176 201.1C98.1541 201.411 98.4784 201.834 98.6907 202.369C98.906 202.905 99.0136 203.51 99.0136 204.186C99.0136 204.368 99.0076 204.534 98.9957 204.683H97.888H94.0357C94.0776 205.156 94.1867 205.571 94.3631 205.93C94.5395 206.289 94.7727 206.568 95.0627 206.769C95.3557 206.969 95.6905 207.069 96.0672 207.069C96.4051 207.069 96.6996 206.998 96.9507 206.854C97.2018 206.708 97.4096 206.518 97.574 206.284C97.7385 206.051 97.8715 205.788 97.9732 205.495H98.8566C98.74 205.944 98.5621 206.337 98.323 206.675C98.0838 207.009 97.7773 207.271 97.4036 207.459C97.0299 207.645 96.5949 207.737 96.0986 207.737C95.4588 207.737 94.9177 207.582 94.4752 207.271C94.0327 206.957 93.7009 206.533 93.4796 205.997C93.2614 205.459 93.1523 204.855 93.1523 204.186ZM100.659 200.719V207.607H99.7984V200.719H100.659ZM100.659 198.423V199.571H99.7984V198.423H100.659ZM104.632 207.069C105.125 207.069 105.536 206.945 105.865 206.697C106.194 206.449 106.437 206.111 106.596 205.684C106.754 205.256 106.834 204.77 106.834 204.226C106.834 203.676 106.754 203.181 106.596 202.742C106.437 202.302 106.192 201.952 105.86 201.692C105.532 201.432 105.122 201.302 104.632 201.302C104.153 201.302 103.748 201.434 103.416 201.697C103.084 201.957 102.836 202.308 102.672 202.751C102.507 203.193 102.425 203.685 102.425 204.226C102.425 204.764 102.507 205.249 102.672 205.679C102.836 206.107 103.083 206.446 103.412 206.697C103.744 206.945 104.15 207.069 104.632 207.069ZM107.757 207.338C107.757 207.912 107.642 208.424 107.412 208.872C107.185 209.324 106.841 209.679 106.381 209.939C105.923 210.202 105.364 210.334 104.703 210.334C104.225 210.334 103.789 210.256 103.394 210.101C103.002 209.945 102.669 209.715 102.394 209.41C102.122 209.108 101.923 208.739 101.797 208.303H102.694C102.769 208.551 102.895 208.773 103.071 208.971C103.25 209.171 103.478 209.328 103.753 209.442C104.031 209.558 104.348 209.617 104.703 209.617C105.2 209.617 105.611 209.512 105.937 209.303C106.266 209.093 106.505 208.82 106.654 208.482C106.807 208.144 106.883 207.763 106.883 207.338V206.289C106.626 206.737 106.295 207.09 105.892 207.347C105.488 207.601 105.001 207.729 104.43 207.729C103.778 207.729 103.228 207.572 102.78 207.258C102.334 206.944 102.001 206.518 101.779 205.98C101.561 205.441 101.452 204.836 101.452 204.163C101.452 203.491 101.561 202.89 101.779 202.36C102.001 201.831 102.334 201.413 102.78 201.105C103.225 200.797 103.775 200.643 104.43 200.643C105.007 200.643 105.497 200.764 105.901 201.006C106.304 201.248 106.632 201.591 106.883 202.033V200.715H107.757V207.338ZM111.876 200.719C112.316 200.719 112.715 200.818 113.074 201.015C113.433 201.209 113.714 201.476 113.917 201.813C114.123 202.151 114.226 202.523 114.226 202.93V207.607H113.383V203.213C113.383 202.902 113.303 202.613 113.141 202.347C112.983 202.078 112.767 201.866 112.495 201.71C112.223 201.552 111.929 201.473 111.612 201.473C111.25 201.473 110.915 201.558 110.607 201.728C110.299 201.899 110.054 202.129 109.872 202.419C109.692 202.709 109.603 203.023 109.603 203.361V207.607H109.271V203.208C109.271 202.76 109.385 202.346 109.612 201.966C109.842 201.583 110.156 201.28 110.553 201.055C110.951 200.831 111.392 200.719 111.876 200.719ZM109.603 198.423V207.607H108.755V198.423H109.603ZM117.781 207.607C117.471 207.607 117.185 207.533 116.925 207.383C116.668 207.231 116.465 207.024 116.315 206.764C116.166 206.501 116.091 206.214 116.091 205.903V201.405H114.992V200.719H116.091V199.306L116.956 198.939V200.719H118.526V201.405H116.956V205.993C116.956 206.148 116.994 206.292 117.068 206.423C117.143 206.552 117.243 206.655 117.369 206.733C117.497 206.811 117.633 206.85 117.777 206.85H118.427V207.607H117.781Z" fill="#014ADD"/>
<path d="M67.7195 93.0488H66.8046L63.3605 83.8644H64.2753L67.7195 93.0488ZM60.7549 93.0488H59.8401L63.2842 83.8644H64.1991L60.7549 93.0488ZM66.3292 89.6047V90.3671H61.2796V89.6047H66.3292ZM72.5325 92.9636C72.1229 93.1131 71.6446 93.1878 71.0975 93.1878C70.4965 93.1878 69.9898 93.0997 69.5772 92.9233C69.1706 92.7558 68.8492 92.5017 68.613 92.1609C68.3888 91.8201 68.2632 91.4045 68.2363 90.9142H69.1512C69.1781 91.261 69.2648 91.548 69.4113 91.7752C69.5607 92.0054 69.7715 92.1743 70.0436 92.282C70.3336 92.3956 70.6879 92.4524 71.1064 92.4524C71.4981 92.4524 71.8269 92.409 72.093 92.3223C72.3561 92.2326 72.5564 92.0981 72.694 91.9187C72.7627 91.832 72.8135 91.7334 72.8464 91.6227C72.8823 91.5121 72.9002 91.3895 72.9002 91.255C72.9002 91.0308 72.8479 90.8409 72.7433 90.6855C72.6386 90.533 72.4697 90.4059 72.2365 90.3043C72.0003 90.1966 71.6834 90.1099 71.2858 90.0442L70.5683 89.9231C70.1019 89.8394 69.7132 89.7198 69.4023 89.5643C69.0914 89.4029 68.8492 89.1906 68.6758 88.9275C68.5114 88.6674 68.4291 88.349 68.4291 87.9723C68.4291 87.5777 68.5263 87.2428 68.7206 86.9678C68.9269 86.6837 69.2154 86.467 69.5862 86.3175C69.9569 86.162 70.4068 86.0843 70.936 86.0843C71.5519 86.0843 72.0557 86.171 72.4473 86.3444C72.8479 86.5208 73.1454 86.7675 73.3397 87.0844C73.5371 87.3893 73.6477 87.769 73.6716 88.2234H72.7747C72.7537 87.8976 72.673 87.6315 72.5325 87.4252C72.392 87.2159 72.1932 87.0679 71.9361 86.9812C71.67 86.8826 71.3351 86.8332 70.9315 86.8332C70.5967 86.8332 70.3082 86.8766 70.066 86.9633C69.8268 87.05 69.6474 87.1741 69.5279 87.3355C69.3993 87.5089 69.335 87.7122 69.335 87.9454C69.335 88.1846 69.3933 88.3804 69.5099 88.5329C69.6295 88.6913 69.7969 88.8139 70.0122 88.9006C70.2484 88.9993 70.5324 89.0755 70.8643 89.1293L71.5773 89.2549C72.0826 89.3416 72.4981 89.4657 72.824 89.6271C73.1499 89.7796 73.398 89.9859 73.5684 90.246C73.7359 90.5031 73.8196 90.817 73.8196 91.1877C73.8196 91.6212 73.7075 91.989 73.4832 92.2909C73.262 92.5869 72.9451 92.8111 72.5325 92.9636ZM74.5181 89.6271C74.5181 88.9544 74.6376 88.3505 74.8768 87.8153C75.116 87.2772 75.4777 86.8527 75.9621 86.5417C76.4494 86.2278 77.0458 86.0709 77.7514 86.0709C78.3643 86.0709 78.8905 86.1815 79.33 86.4027C79.7695 86.621 80.1178 86.9319 80.3749 87.3355C80.632 87.7391 80.8024 88.219 80.8861 88.775H79.9399C79.8622 88.3445 79.7291 87.9768 79.5408 87.6718C79.3524 87.3639 79.1043 87.1277 78.7963 86.9633C78.4914 86.7959 78.1311 86.7121 77.7155 86.7121C77.2222 86.7121 76.8067 86.8407 76.4688 87.0978C76.131 87.3519 75.8784 87.6987 75.7109 88.1382C75.5465 88.5777 75.4643 89.074 75.4643 89.6271C75.4643 90.1802 75.5465 90.678 75.7109 91.1205C75.8784 91.56 76.131 91.9083 76.4688 92.1654C76.8067 92.4225 77.2222 92.551 77.7155 92.551C78.1221 92.551 78.4779 92.4718 78.7829 92.3134C79.0878 92.1519 79.3345 91.9232 79.5228 91.6272C79.7142 91.3283 79.8502 90.9695 79.9309 90.5509H80.8816C80.792 91.0951 80.6171 91.5644 80.357 91.9591C80.0968 92.3507 79.7485 92.6542 79.312 92.8694C78.8755 93.0817 78.3553 93.1878 77.7514 93.1878C77.0458 93.1878 76.4494 93.0324 75.9621 92.7215C75.4777 92.4075 75.116 91.9815 74.8768 91.4434C74.6376 90.9052 74.5181 90.2998 74.5181 89.6271ZM84.4884 86.7256C84.0758 86.7256 83.717 86.8437 83.4121 87.0799C83.1101 87.3131 82.8769 87.63 82.7125 88.0306C82.548 88.4312 82.4583 88.8767 82.4434 89.367H86.5602C86.5303 88.8707 86.4302 88.4238 86.2598 88.0261C86.0923 87.6255 85.8576 87.3086 85.5557 87.0754C85.2567 86.8422 84.9009 86.7256 84.4884 86.7256ZM81.5599 89.6271C81.5599 88.9544 81.6691 88.3505 81.8873 87.8153C82.1085 87.2772 82.4389 86.8527 82.8784 86.5417C83.3209 86.2278 83.8635 86.0709 84.5063 86.0709C85.1491 86.0709 85.6887 86.2278 86.1252 86.5417C86.5617 86.8527 86.8861 87.2757 87.0984 87.8109C87.3136 88.346 87.4213 88.9514 87.4213 89.6271C87.4213 89.8095 87.4153 89.9754 87.4033 90.1249H86.2956H82.4434C82.4852 90.5973 82.5944 91.0128 82.7708 91.3716C82.9472 91.7304 83.1804 92.0099 83.4704 92.2102C83.7633 92.4105 84.0982 92.5107 84.4749 92.5107C84.8127 92.5107 85.1072 92.4389 85.3584 92.2954C85.6095 92.1489 85.8173 91.9591 85.9817 91.7259C86.1461 91.4927 86.2792 91.2296 86.3808 90.9366H87.2643C87.1477 91.3851 86.9698 91.7782 86.7306 92.116C86.4915 92.4509 86.185 92.7125 85.8113 92.9008C85.4376 93.0862 85.0026 93.1789 84.5063 93.1789C83.8665 93.1789 83.3254 93.0234 82.8829 92.7125C82.4404 92.3986 82.1085 91.974 81.8873 91.4389C81.6691 90.9007 81.5599 90.2968 81.5599 89.6271ZM91.417 86.1605C91.8565 86.1605 92.2556 86.2592 92.6144 86.4565C92.9731 86.6509 93.2542 86.9169 93.4575 87.2548C93.6638 87.5926 93.7669 87.9648 93.7669 88.3714V93.0488H92.9238V88.654C92.9238 88.343 92.8431 88.0545 92.6816 87.7884C92.5232 87.5194 92.3079 87.3071 92.0359 87.1516C91.7638 86.9932 91.4693 86.9139 91.1524 86.9139C90.7907 86.9139 90.4558 86.9992 90.1479 87.1696C89.8399 87.34 89.5948 87.5702 89.4124 87.8602C89.233 88.1502 89.1433 88.4641 89.1433 88.8019V93.0488H88.8115V88.6495C88.8115 88.201 88.9251 87.7869 89.1523 87.4072C89.3825 87.0246 89.6964 86.7211 90.0941 86.4969C90.4917 86.2727 90.9327 86.1605 91.417 86.1605ZM89.1433 86.1561V93.0488H88.2957V86.1561H89.1433ZM100.784 93.0443H99.9276V83.8644H100.784V93.0443ZM97.7615 92.4569C98.2279 92.4569 98.6241 92.3328 98.9499 92.0846C99.2758 91.8335 99.5195 91.4972 99.6809 91.0756C99.8454 90.6541 99.9276 90.1877 99.9276 89.6764C99.9276 89.1502 99.8454 88.6704 99.6809 88.2369C99.5195 87.8034 99.2758 87.4596 98.9499 87.2054C98.6271 86.9483 98.2309 86.8198 97.7615 86.8198C97.2802 86.8198 96.8781 86.9468 96.5552 87.201C96.2353 87.4551 95.9976 87.7989 95.8421 88.2324C95.6867 88.6629 95.6089 89.1458 95.6089 89.6809C95.6089 90.2131 95.6852 90.687 95.8377 91.1025C95.9931 91.5181 96.2323 91.8485 96.5552 92.0936C96.8781 92.3358 97.2802 92.4569 97.7615 92.4569ZM97.5239 86.1605C98.1666 86.1605 98.7048 86.31 99.1383 86.609C99.5718 86.908 99.8932 87.3176 100.102 87.8378C100.315 88.355 100.421 88.9455 100.421 89.6092C100.421 90.2759 100.315 90.8738 100.102 91.403C99.8932 91.9292 99.5718 92.3462 99.1383 92.6542C98.7048 92.9621 98.1666 93.1161 97.5239 93.1161C96.896 93.1161 96.3653 92.9621 95.9318 92.6542C95.5013 92.3462 95.1784 91.9277 94.9632 91.3985C94.7509 90.8693 94.6448 90.2744 94.6448 89.6137C94.6448 88.9679 94.7509 88.3849 94.9632 87.8647C95.1784 87.3415 95.5013 86.9274 95.9318 86.6225C96.3653 86.3145 96.896 86.1605 97.5239 86.1605ZM104.677 86.7256C104.264 86.7256 103.905 86.8437 103.6 87.0799C103.298 87.3131 103.065 87.63 102.901 88.0306C102.736 88.4312 102.647 88.8767 102.632 89.367H106.749C106.719 88.8707 106.619 88.4238 106.448 88.0261C106.281 87.6255 106.046 87.3086 105.744 87.0754C105.445 86.8422 105.089 86.7256 104.677 86.7256ZM101.748 89.6271C101.748 88.9544 101.857 88.3505 102.076 87.8153C102.297 87.2772 102.627 86.8527 103.067 86.5417C103.509 86.2278 104.052 86.0709 104.695 86.0709C105.337 86.0709 105.877 86.2278 106.314 86.5417C106.75 86.8527 107.074 87.2757 107.287 87.8109C107.502 88.346 107.61 88.9514 107.61 89.6271C107.61 89.8095 107.604 89.9754 107.592 90.1249H106.484H102.632C102.674 90.5973 102.783 91.0128 102.959 91.3716C103.136 91.7304 103.369 92.0099 103.659 92.2102C103.952 92.4105 104.287 92.5107 104.663 92.5107C105.001 92.5107 105.296 92.4389 105.547 92.2954C105.798 92.1489 106.006 91.9591 106.17 91.7259C106.335 91.4927 106.468 91.2296 106.569 90.9366H107.453C107.336 91.3851 107.158 91.7782 106.919 92.116C106.68 92.4509 106.373 92.7125 106 92.9008C105.626 93.0862 105.191 93.1789 104.695 93.1789C104.055 93.1789 103.514 93.0234 103.071 92.7125C102.629 92.3986 102.297 91.974 102.076 91.4389C101.857 90.9007 101.748 90.2968 101.748 89.6271ZM108.462 93.0488V86.1605H109.3V87.3086C109.417 86.9169 109.658 86.6135 110.022 86.3982C110.39 86.183 110.81 86.0813 111.282 86.0933C111.345 86.0933 111.408 86.0948 111.471 86.0978C111.534 86.0978 111.59 86.1007 111.641 86.1067V86.9812C111.581 86.9573 111.513 86.9423 111.435 86.9364C111.357 86.9304 111.266 86.9289 111.161 86.9319C110.773 86.9289 110.442 86.9932 110.17 87.1247C109.901 87.2563 109.689 87.4641 109.534 87.7481C109.378 88.0321 109.3 88.4028 109.3 88.8602V93.0488H108.462Z" fill="#014ADD"/>
<line x1="37.8027" y1="549.606" x2="702.2" y2="549.606" stroke="#014ADD" stroke-width="1.00198"/>
<line x1="37.8027" y1="191.497" x2="702.2" y2="191.497" stroke="#014ADD" stroke-width="1.00198"/>
<line x1="37.8027" y1="75.1357" x2="702.2" y2="75.1357" stroke="#014ADD" stroke-width="1.00198"/>
<line x1="37.8027" y1="665.97" x2="702.2" y2="665.97" stroke="#014ADD" stroke-width="1.00198"/>
<line x1="37.8027" y1="280.804" x2="702.2" y2="280.804" stroke="#014ADD" stroke-width="1.00198"/>
<path d="M278.779 516.825C302.92 516.825 323.232 510.469 339.713 497.759C356.194 484.932 368.497 467.558 376.622 445.635C384.746 423.596 388.808 398.759 388.808 371.123C388.808 343.603 384.746 318.882 376.622 296.96C368.497 275.037 356.194 257.721 339.713 245.011C323.232 232.184 302.92 225.77 278.779 225.77C254.637 225.77 234.268 232.184 217.671 245.011C201.19 257.721 188.887 275.037 180.762 296.96C172.638 318.882 168.575 343.603 168.575 371.123C168.575 398.759 172.638 423.596 180.762 445.635C188.887 467.558 201.19 484.932 217.671 497.759C234.268 510.469 254.637 516.825 278.779 516.825ZM278.779 186.59C313.831 186.59 343.369 194.694 367.395 210.903C391.42 227.111 409.294 249.15 421.016 277.02C432.855 304.889 438.774 336.257 438.774 371.123C438.774 406.105 432.855 437.531 421.016 465.4C409.294 493.27 391.42 515.367 367.395 531.692C343.369 547.901 313.831 556.005 278.779 556.005C243.611 556.005 214.015 547.901 189.989 531.692C165.964 515.367 148.032 493.27 136.193 465.4C124.471 437.531 118.609 406.105 118.609 371.123C118.609 336.14 124.471 304.772 136.193 277.02C148.032 249.15 165.964 227.111 189.989 210.903C214.015 194.694 243.611 186.59 278.779 186.59Z" fill="#014ADD"/>
<path d="M600.184 611.449H457.799V578.579C457.799 566.1 460.871 554.498 467.029 543.773C473.172 533.049 481.588 524.532 492.263 518.24L553.887 481.513C556.326 480 558.524 478.245 560.496 476.264C562.469 474.282 564.155 472.074 565.54 469.623C566.579 467.869 567.452 466.068 568.145 464.208C568.838 462.347 569.364 460.426 569.711 458.43C570.057 456.448 570.238 454.466 570.238 452.485C570.117 446.071 568.356 440.187 564.923 434.817C561.505 429.462 556.507 425.197 549.957 422.05C543.408 418.904 535.775 417.331 527.072 417.331C518.37 417.331 510.571 418.934 504.006 422.141C497.457 425.348 492.428 429.659 488.95 435.089C485.472 440.52 483.726 446.434 483.726 452.833V462.62H457.092V452.47C457.092 441.518 459.817 431.595 465.267 422.746C470.717 413.882 478.727 406.863 489.282 401.675C499.836 396.487 512.438 393.885 527.057 393.885C541.676 393.885 554.233 396.487 564.742 401.675C575.236 406.863 583.216 413.882 588.681 422.746C594.132 431.61 596.857 441.518 596.857 452.47C596.857 459.579 595.667 466.432 593.288 473.012C590.91 479.607 587.522 485.597 583.111 491.027C578.699 496.443 573.475 500.965 567.452 504.581L505.662 541.126C501.372 543.804 497.623 547.101 494.431 551.004C491.239 554.906 488.8 559.187 487.113 563.861C485.427 568.52 484.584 573.421 484.584 578.549V587.988H600.154V611.419L600.184 611.449Z" fill="#014ADD"/>
</svg>
