<svg width="740" height="744" viewBox="0 0 740 744" fill="none" xmlns="http://www.w3.org/2000/svg">
<rect width="740" height="744" rx="8.01584" fill="#8159FB"/>
<path d="M37 229L704 229" stroke="#FFBFE1"/>
<path d="M37 134L704 134" stroke="#FFBFE1"/>
<path d="M37 39L704 39.0001" stroke="#FFBFE1"/>
<path d="M37 324.979L704 324" stroke="#FFBFE1"/>
<path d="M37 419.979L263.251 419.98L704 419.98" stroke="#FFBFE1"/>
<path d="M37 514.979L704 514.98" stroke="#FFBFE1"/>
<path d="M37 609.979L186.855 609.98L704 609.98" stroke="#FFBFE1"/>
<path d="M37 704.979L704 704.98" stroke="#FFBFE1"/>
<line x1="37" y1="97.5771" x2="49.5" y2="97.5771" stroke="#FFBFE1"/>
<line x1="37" y1="291.172" x2="49.5" y2="291.172" stroke="#FFBFE1"/>
<line x1="37" y1="484.763" x2="49.5" y2="484.763" stroke="#FFBFE1"/>
<line x1="37" y1="194.375" x2="49.5" y2="194.375" stroke="#FFBFE1"/>
<line x1="37" y1="387.967" x2="49.5" y2="387.967" stroke="#FFBFE1"/>
<line x1="37" y1="581.56" x2="49.5" y2="581.56" stroke="#FFBFE1"/>
<line x1="37" y1="652.543" x2="49.5" y2="652.543" stroke="#FFBFE1"/>
<line x1="37" y1="129.845" x2="49.5" y2="129.845" stroke="#FFBFE1"/>
<line x1="37" y1="323.437" x2="49.5" y2="323.437" stroke="#FFBFE1"/>
<line x1="37" y1="517.027" x2="49.5" y2="517.027" stroke="#FFBFE1"/>
<line x1="37" y1="226.64" x2="49.5" y2="226.64" stroke="#FFBFE1"/>
<line x1="37" y1="420.231" x2="49.5" y2="420.231" stroke="#FFBFE1"/>
<line x1="37" y1="613.824" x2="49.5" y2="613.824" stroke="#FFBFE1"/>
<line x1="37" y1="684.809" x2="49.5" y2="684.809" stroke="#FFBFE1"/>
<line x1="37" y1="65.3125" x2="49.5" y2="65.3125" stroke="#FFBFE1"/>
<line x1="37" y1="258.904" x2="49.5" y2="258.904" stroke="#FFBFE1"/>
<line x1="37" y1="452.497" x2="49.5" y2="452.497" stroke="#FFBFE1"/>
<line x1="37" y1="162.108" x2="49.5" y2="162.108" stroke="#FFBFE1"/>
<line x1="37" y1="355.701" x2="49.5" y2="355.701" stroke="#FFBFE1"/>
<line x1="37" y1="549.293" x2="49.5" y2="549.293" stroke="#FFBFE1"/>
<line x1="37" y1="620.276" x2="49.5" y2="620.276" stroke="#FFBFE1"/>
<line x1="37" y1="91.125" x2="49.5" y2="91.125" stroke="#FFBFE1"/>
<line x1="37" y1="284.717" x2="49.5" y2="284.717" stroke="#FFBFE1"/>
<line x1="37" y1="478.311" x2="49.5" y2="478.311" stroke="#FFBFE1"/>
<line x1="37" y1="187.921" x2="49.5" y2="187.921" stroke="#FFBFE1"/>
<line x1="37" y1="381.515" x2="49.5" y2="381.515" stroke="#FFBFE1"/>
<line x1="37" y1="575.104" x2="49.5" y2="575.104" stroke="#FFBFE1"/>
<line x1="37" y1="646.091" x2="49.5" y2="646.091" stroke="#FFBFE1"/>
<line x1="37" y1="123.392" x2="49.5" y2="123.392" stroke="#FFBFE1"/>
<line x1="37" y1="316.98" x2="49.5" y2="316.98" stroke="#FFBFE1"/>
<line x1="37" y1="510.575" x2="49.5" y2="510.575" stroke="#FFBFE1"/>
<line x1="37" y1="220.188" x2="49.5" y2="220.188" stroke="#FFBFE1"/>
<line x1="37" y1="413.777" x2="49.5" y2="413.777" stroke="#FFBFE1"/>
<line x1="37" y1="607.371" x2="49.5" y2="607.371" stroke="#FFBFE1"/>
<line x1="37" y1="678.354" x2="49.5" y2="678.354" stroke="#FFBFE1"/>
<line x1="37" y1="58.8594" x2="49.5" y2="58.8594" stroke="#FFBFE1"/>
<line x1="37" y1="252.451" x2="49.5" y2="252.451" stroke="#FFBFE1"/>
<line x1="37" y1="446.044" x2="49.5" y2="446.044" stroke="#FFBFE1"/>
<line x1="37" y1="155.653" x2="49.5" y2="155.653" stroke="#FFBFE1"/>
<line x1="37" y1="349.248" x2="49.5" y2="349.248" stroke="#FFBFE1"/>
<line x1="37" y1="542.841" x2="49.5" y2="542.841" stroke="#FFBFE1"/>
<line x1="37" y1="84.6709" x2="49.5" y2="84.6709" stroke="#FFBFE1"/>
<line x1="37" y1="278.265" x2="49.5" y2="278.265" stroke="#FFBFE1"/>
<line x1="37" y1="471.856" x2="49.5" y2="471.856" stroke="#FFBFE1"/>
<line x1="37" y1="181.468" x2="49.5" y2="181.468" stroke="#FFBFE1"/>
<line x1="37" y1="375.061" x2="49.5" y2="375.061" stroke="#FFBFE1"/>
<line x1="37" y1="568.652" x2="49.5" y2="568.652" stroke="#FFBFE1"/>
<line x1="37" y1="639.639" x2="49.5" y2="639.639" stroke="#FFBFE1"/>
<line x1="37" y1="116.938" x2="49.5" y2="116.938" stroke="#FFBFE1"/>
<line x1="37" y1="310.528" x2="49.5" y2="310.528" stroke="#FFBFE1"/>
<line x1="37" y1="504.121" x2="49.5" y2="504.121" stroke="#FFBFE1"/>
<line x1="37" y1="213.732" x2="49.5" y2="213.732" stroke="#FFBFE1"/>
<line x1="37" y1="407.325" x2="49.5" y2="407.325" stroke="#FFBFE1"/>
<line x1="37" y1="600.919" x2="49.5" y2="600.919" stroke="#FFBFE1"/>
<line x1="37" y1="671.902" x2="49.5" y2="671.902" stroke="#FFBFE1"/>
<line x1="37" y1="704.168" x2="49.5" y2="704.168" stroke="#FFBFE1"/>
<line x1="37" y1="52.4043" x2="49.5" y2="52.4043" stroke="#FFBFE1"/>
<line x1="37" y1="245.999" x2="49.5" y2="245.999" stroke="#FFBFE1"/>
<line x1="37" y1="439.592" x2="49.5" y2="439.592" stroke="#FFBFE1"/>
<line x1="37" y1="149.201" x2="49.5" y2="149.201" stroke="#FFBFE1"/>
<line x1="37" y1="342.795" x2="49.5" y2="342.795" stroke="#FFBFE1"/>
<line x1="37" y1="536.389" x2="49.5" y2="536.389" stroke="#FFBFE1"/>
<line x1="37" y1="78.2188" x2="49.5" y2="78.2188" stroke="#FFBFE1"/>
<line x1="37" y1="271.812" x2="49.5" y2="271.812" stroke="#FFBFE1"/>
<line x1="37" y1="465.404" x2="49.5" y2="465.404" stroke="#FFBFE1"/>
<line x1="37" y1="175.016" x2="49.5" y2="175.016" stroke="#FFBFE1"/>
<line x1="37" y1="368.607" x2="49.5" y2="368.607" stroke="#FFBFE1"/>
<line x1="37" y1="562.2" x2="49.5" y2="562.2" stroke="#FFBFE1"/>
<line x1="37" y1="633.185" x2="49.5" y2="633.185" stroke="#FFBFE1"/>
<line x1="37" y1="110.483" x2="49.5" y2="110.483" stroke="#FFBFE1"/>
<line x1="37" y1="304.077" x2="49.5" y2="304.077" stroke="#FFBFE1"/>
<line x1="37" y1="497.669" x2="49.5" y2="497.669" stroke="#FFBFE1"/>
<line x1="37" y1="207.28" x2="49.5" y2="207.28" stroke="#FFBFE1"/>
<line x1="37" y1="400.872" x2="49.5" y2="400.872" stroke="#FFBFE1"/>
<line x1="37" y1="594.465" x2="49.5" y2="594.465" stroke="#FFBFE1"/>
<line x1="37" y1="665.448" x2="49.5" y2="665.448" stroke="#FFBFE1"/>
<line x1="37" y1="697.716" x2="49.5" y2="697.716" stroke="#FFBFE1"/>
<line x1="37" y1="45.9531" x2="49.5" y2="45.9531" stroke="#FFBFE1"/>
<line x1="37" y1="239.545" x2="49.5" y2="239.545" stroke="#FFBFE1"/>
<line x1="37" y1="433.139" x2="49.5" y2="433.139" stroke="#FFBFE1"/>
<line x1="37" y1="142.748" x2="49.5" y2="142.748" stroke="#FFBFE1"/>
<line x1="37" y1="336.343" x2="49.5" y2="336.343" stroke="#FFBFE1"/>
<line x1="37" y1="529.936" x2="49.5" y2="529.936" stroke="#FFBFE1"/>
<line x1="37" y1="71.7666" x2="62" y2="71.7666" stroke="#FFBFE1"/>
<line x1="37" y1="265.357" x2="62" y2="265.357" stroke="#FFBFE1"/>
<line x1="37" y1="458.951" x2="62" y2="458.951" stroke="#FFBFE1"/>
<line x1="37" y1="168.562" x2="62" y2="168.562" stroke="#FFBFE1"/>
<line x1="37" y1="362.155" x2="62" y2="362.155" stroke="#FFBFE1"/>
<line x1="37" y1="555.748" x2="62" y2="555.748" stroke="#FFBFE1"/>
<line x1="37" y1="626.732" x2="62" y2="626.732" stroke="#FFBFE1"/>
<line x1="37" y1="104.031" x2="62" y2="104.031" stroke="#FFBFE1"/>
<line x1="37" y1="297.624" x2="62" y2="297.624" stroke="#FFBFE1"/>
<line x1="37" y1="491.216" x2="62" y2="491.216" stroke="#FFBFE1"/>
<line x1="37" y1="200.827" x2="62" y2="200.827" stroke="#FFBFE1"/>
<line x1="37" y1="394.42" x2="62" y2="394.42" stroke="#FFBFE1"/>
<line x1="37" y1="588.012" x2="62" y2="588.012" stroke="#FFBFE1"/>
<line x1="37" y1="658.996" x2="62" y2="658.996" stroke="#FFBFE1"/>
<line x1="37" y1="691.263" x2="62" y2="691.263" stroke="#FFBFE1"/>
<line x1="37" y1="39.5" x2="62" y2="39.5" stroke="#FFBFE1"/>
<line x1="37" y1="233.093" x2="62" y2="233.093" stroke="#FFBFE1"/>
<line x1="37" y1="426.686" x2="62" y2="426.686" stroke="#FFBFE1"/>
<line x1="37" y1="136.296" x2="62" y2="136.296" stroke="#FFBFE1"/>
<line x1="37" y1="329.889" x2="62" y2="329.889" stroke="#FFBFE1"/>
<line x1="37" y1="523.483" x2="62" y2="523.483" stroke="#FFBFE1"/>
<path d="M452.819 38.5L452.941 38.8242L703.468 704.824L703.723 705.5H613.926L613.804 705.176L543.465 518.188H267.535L197.196 705.176L197.074 705.5H107.277L107.532 704.824L358.059 38.8242L358.181 38.5H452.819ZM295.435 444.019H515.565L405.5 151.42L295.435 444.019Z" fill="#FFBFE1" stroke="#8159FB"/>
<path d="M404.188 134.5L404.31 134.823L619.468 704.823L619.724 705.5H542.452L542.33 705.177L481.939 545.188H245.061L184.67 705.177L184.548 705.5H107.276L107.532 704.823L322.69 134.823L322.812 134.5H404.188ZM269.076 481.565H457.924L363.5 231.415L269.076 481.565Z" fill="#FFBFE1" stroke="#8159FB"/>
<path d="M355.556 229.5L355.678 229.823L535.468 704.823L535.724 705.5H470.979L470.857 705.177L420.414 571.906H222.586L172.143 705.177L172.021 705.5H107.276L107.532 704.823L287.322 229.823L287.444 229.5H355.556ZM242.717 518.721H400.283L321.5 310.578L242.717 518.721Z" fill="#FFBFE1" stroke="#8159FB"/>
<path d="M306.924 324.5L307.046 324.822L451.468 704.822L451.725 705.5H399.506L399.384 705.178L358.888 598.625H200.112L159.616 705.178L159.494 705.5H107.275L107.532 704.822L251.954 324.822L252.076 324.5H306.924ZM216.358 555.877H342.642L279.5 389.739L216.358 555.877Z" fill="#FFBFE1" stroke="#8159FB"/>
<path d="M258.291 420.5L258.414 420.82L367.467 704.82L367.728 705.5H328.033L327.91 705.18L297.362 625.625H177.638L147.09 705.18L146.967 705.5H107.272L107.533 704.82L216.586 420.82L216.709 420.5H258.291ZM190.003 593.424H284.997L237.5 469.729L190.003 593.424Z" fill="#FFBFE1" stroke="#8159FB"/>
<path d="M209.657 515.5L209.781 515.818L283.466 704.818L283.731 705.5H256.562L256.438 705.182L235.838 652.344H155.162L134.562 705.182L134.438 705.5H107.269L107.534 704.818L181.219 515.818L181.343 515.5H209.657ZM163.647 630.579H227.353L195.5 548.875L163.647 630.579Z" fill="#FFBFE1" stroke="#8159FB"/>
<path d="M162.177 609.5L162.305 609.81L201.462 704.81L201.747 705.5H186.797L186.669 705.19L175.783 678.781H133.217L122.331 705.19L122.203 705.5H107.253L107.538 704.81L146.695 609.81L146.823 609.5H162.177ZM137.931 667.344H171.069L154.5 627.145L137.931 667.344Z" fill="#FFBFE1" stroke="#8159FB"/>
</svg>
