<svg width="740" height="744" viewBox="0 0 740 744" fill="none" xmlns="http://www.w3.org/2000/svg">
<rect width="740" height="744" rx="8.01598" fill="#FF4B00"/>
<path d="M255.083 417.972L454.876 207.613H686.688L486.574 417.972L702.057 699.732H469.925L255.083 417.972ZM38 44H255.083V699.732H38V44Z" fill="#014ADD"/>
<circle cx="40.5" cy="44.5" r="9.5" fill="#F5F5F5"/>
<circle cx="40.5" cy="699.5" r="9.5" fill="#F5F5F5"/>
<circle cx="254.5" cy="699.5" r="9.5" fill="#F5F5F5"/>
<circle cx="256.5" cy="417.5" r="9.5" fill="#F5F5F5"/>
<circle cx="456.5" cy="207.5" r="9.5" fill="#F5F5F5"/>
<circle cx="689.5" cy="207.5" r="9.5" fill="#F5F5F5"/>
<circle cx="704.5" cy="698.5" r="9.5" fill="#F5F5F5"/>
<circle cx="467.5" cy="698.5" r="9.5" fill="#F5F5F5"/>
<circle cx="490.5" cy="417.5" r="9.5" fill="#F5F5F5"/>
<circle cx="254.5" cy="44.5" r="9.5" fill="#F5F5F5"/>
<path d="M230 387H287M230 387V444H287V387M230 387L296 115M287 387L473 293.5" stroke="#F5F5F5"/>
<rect x="295.371" y="113.686" width="179.629" height="179.629" fill="#F5F5F5" stroke="#F5F5F5" stroke-width="1.37121"/>
<mask id="mask0_10452_18975" style="mask-type:alpha" maskUnits="userSpaceOnUse" x="294" y="113" width="181" height="181">
<rect x="294.5" y="113.5" width="180" height="180" fill="#014ADD" stroke="#014ADD"/>
</mask>
<g mask="url(#mask0_10452_18975)">
<path d="M374.077 -358.5V203.075L673.782 -112.326L673.93 -112.481H1024.05L1023.24 -111.637L722.487 204.363L1046.4 627.696L1047.01 628.5H696.536L696.386 628.303L374.077 205.807V628.5H46.5V-358.5H374.077Z" stroke="#014ADD"/>
</g>
<circle cx="376.958" cy="204.186" r="12.3409" stroke="#FF4B00" stroke-width="1.37121"/>
</svg>
