<svg width="1385" height="450" viewBox="0 0 1385 450" fill="none" xmlns="http://www.w3.org/2000/svg">
<rect width="1236" height="210" fill="#FF4B00"/>
<path d="M95.1113 87.0749V134H74.3812V87.0749H95.1113ZM95.1113 71.4739V81.9764H74.3812V71.4739H95.1113ZM138.907 86.5254C142.957 86.5254 146.479 87.2581 149.47 88.7236C152.462 90.1687 154.752 92.143 156.34 94.6464C157.927 97.1499 158.721 99.9282 158.721 102.981V134H137.991V107.011C137.991 105.139 137.686 103.46 137.075 101.974C136.465 100.488 135.539 99.3074 134.297 98.4322C133.055 97.5366 131.539 97.0889 129.748 97.0889C127.855 97.0889 126.227 97.5366 124.863 98.4322C123.499 99.3278 122.461 100.559 121.749 102.126C121.037 103.673 120.68 105.475 120.68 107.53V134H118.269V103.47C118.269 100.132 119.144 97.1805 120.894 94.6159C122.645 92.0514 125.077 90.0669 128.191 88.6625C131.325 87.2377 134.897 86.5254 138.907 86.5254ZM120.68 87.1055V134H100.011V87.1055H120.68ZM176.948 86.5254C180.978 86.5254 184.489 87.2581 187.481 88.7236C190.473 90.1687 192.762 92.143 194.35 94.6464C195.938 97.1499 196.731 99.9282 196.731 102.981V134H176.001V107.011C176.001 105.139 175.696 103.46 175.085 101.974C174.475 100.488 173.549 99.3074 172.307 98.4322C171.066 97.5366 169.559 97.0889 167.789 97.0889C165.875 97.0889 164.237 97.5366 162.873 98.4322C161.51 99.3278 160.472 100.559 159.759 102.126C159.067 103.673 158.721 105.475 158.721 107.53V134H156.309V103.47C156.309 100.132 157.184 97.1805 158.935 94.6159C160.685 92.0514 163.118 90.0669 166.232 88.6625C169.366 87.2377 172.938 86.5254 176.948 86.5254ZM237.97 125.482C236.912 127.314 235.752 128.82 234.49 130.001C233.228 131.161 231.813 132.077 230.246 132.748C228.679 133.4 226.837 133.919 224.72 134.305C220.995 134.977 217.484 135.038 214.187 134.488C210.89 133.939 208.071 132.738 205.73 130.886C203.41 129.013 201.883 126.51 201.151 123.375C200.52 120.16 200.713 117.29 201.731 114.766C202.748 112.242 204.54 110.176 207.104 108.568C209.669 106.96 212.915 105.922 216.843 105.454C220.181 105.047 223.845 104.884 227.834 104.966C231.844 105.027 235.222 105.2 237.97 105.485V103.164C237.97 101.434 237.716 99.9791 237.207 98.7986C236.718 97.5977 235.935 96.6818 234.856 96.0508C233.777 95.3995 232.404 95.0739 230.735 95.0739C228.496 95.0535 226.806 95.6336 225.667 96.8141C224.527 97.9946 223.855 99.7246 223.652 102.004H203.105C203.451 97.1397 205.71 93.4049 209.882 90.7996C214.055 88.174 220.639 86.8612 229.635 86.8612C237.919 86.8612 244.056 87.7262 248.045 89.4563C252.035 91.166 254.487 93.1505 255.403 95.4097C256.339 97.6689 256.787 100.335 256.746 103.409V104.691V134H237.97V125.482ZM231.254 123.498C231.966 123.375 232.658 123.091 233.33 122.643C234.022 122.195 234.673 121.615 235.284 120.902C235.752 120.394 236.128 119.834 236.413 119.223C236.698 118.592 236.902 117.931 237.024 117.239C237.146 116.526 237.207 115.794 237.207 115.041V112.018C235.721 111.916 234.144 111.886 232.475 111.927C230.806 111.947 229.483 112.049 228.506 112.232C226.939 112.517 225.626 112.954 224.567 113.545C223.509 114.135 222.746 114.939 222.278 115.957C221.81 116.974 221.718 118.216 222.003 119.681C222.267 120.74 222.837 121.605 223.713 122.276C224.608 122.948 225.707 123.386 227.01 123.589C228.333 123.793 229.747 123.762 231.254 123.498ZM289.643 120.902C291.576 120.902 293.184 120.434 294.467 119.498C295.749 118.541 296.695 117.249 297.306 115.621C297.937 113.972 298.252 112.11 298.252 110.034C298.252 107.917 297.937 106.024 297.306 104.355C296.695 102.666 295.739 101.322 294.436 100.325C293.154 99.3278 291.556 98.8291 289.643 98.8291C287.791 98.8291 286.213 99.3278 284.911 100.325C283.628 101.322 282.661 102.676 282.01 104.386C281.379 106.095 281.064 107.988 281.064 110.064C281.064 112.12 281.379 113.972 282.01 115.621C282.661 117.249 283.628 118.541 284.911 119.498C286.213 120.434 287.791 120.902 289.643 120.902ZM319.043 127.924C319.043 132.992 318.097 137.46 316.204 141.327C314.311 145.194 311.218 148.247 306.923 150.486C302.649 152.746 297.072 153.875 290.192 153.875C285.104 153.875 280.697 153.254 276.973 152.013C273.268 150.792 270.144 148.817 267.6 146.09C265.076 143.363 263.163 139.801 261.86 135.404H282.132C282.295 137.033 282.692 138.407 283.323 139.526C283.974 140.645 284.88 141.49 286.04 142.06C287.2 142.65 288.645 142.945 290.375 142.945C292.675 142.945 294.456 142.437 295.718 141.419C297.001 140.422 297.866 139.16 298.313 137.633C298.781 136.107 299.016 134.377 299.016 132.443V126.001C297.102 128.26 294.792 130.011 292.085 131.252C289.378 132.494 286.234 133.115 282.651 133.115C277.889 133.115 273.879 132.087 270.622 130.031C267.366 127.975 264.934 125.187 263.326 121.666C261.718 118.145 260.914 114.176 260.914 109.759C260.914 105.363 261.718 101.424 263.326 97.9437C264.934 94.4429 267.356 91.685 270.592 89.67C273.848 87.6346 277.868 86.617 282.651 86.617C286.254 86.617 289.409 87.2174 292.116 88.4183C294.823 89.5988 297.123 91.2983 299.016 93.5168V87.1055H319.043V127.924ZM344.719 87.0749V134H323.989V87.0749H344.719ZM344.719 71.4739V81.9764H323.989V71.4739H344.719ZM388.515 86.5254C392.566 86.5254 396.087 87.2581 399.079 88.7236C402.071 90.1687 404.36 92.143 405.948 94.6464C407.536 97.1499 408.329 99.9282 408.329 102.981V134H387.599V107.011C387.599 105.139 387.294 103.46 386.683 101.974C386.073 100.488 385.147 99.3074 383.905 98.4322C382.664 97.5366 381.147 97.0889 379.356 97.0889C377.463 97.0889 375.835 97.5366 374.471 98.4322C373.108 99.3278 372.07 100.559 371.357 102.126C370.645 103.673 370.289 105.475 370.289 107.53V134H367.877V103.47C367.877 100.132 368.752 97.1805 370.502 94.6159C372.253 92.0514 374.685 90.0669 377.799 88.6625C380.933 87.2377 384.506 86.5254 388.515 86.5254ZM370.289 87.1055V134H349.62V87.1055H370.289ZM441.119 95.3792C439.43 95.3792 438.005 95.9084 436.845 96.9667C435.705 98.0048 434.84 99.3583 434.25 101.027C433.659 102.696 433.303 104.518 433.181 106.492H449.148C449.006 104.477 448.639 102.645 448.049 100.997C447.479 99.3278 446.614 97.9742 445.454 96.9362C444.314 95.8982 442.869 95.3792 441.119 95.3792ZM412.481 110.705C412.481 106.126 413.55 102.014 415.687 98.3711C417.845 94.7075 421.091 91.8173 425.426 89.7005C429.762 87.5634 435.074 86.4948 441.363 86.4948C447.652 86.4948 452.934 87.5634 457.208 89.7005C461.483 91.8173 464.668 94.6973 466.764 98.3406C468.861 101.984 469.909 106.105 469.909 110.705C469.909 111.581 469.878 112.395 469.817 113.148H458.887H432.784C432.906 115.326 433.262 117.259 433.853 118.949C434.463 120.638 435.369 121.991 436.57 123.009C437.791 124.027 439.307 124.536 441.119 124.536C442.503 124.536 443.714 124.19 444.752 123.498C445.81 122.806 446.665 121.9 447.317 120.78C447.968 119.641 448.416 118.409 448.66 117.086H469.268C468.352 120.852 466.673 124.067 464.23 126.734C461.788 129.38 458.633 131.405 454.766 132.809C450.919 134.193 446.451 134.885 441.363 134.885C435.074 134.885 429.762 133.827 425.426 131.71C421.091 129.573 417.845 126.683 415.687 123.04C413.55 119.376 412.481 115.265 412.481 110.705ZM528.802 134H508.041L492.41 87.1055H513.17L528.802 134ZM572.369 134H551.639L567.27 87.1055H588L572.369 134ZM563.271 134H548.402L532.862 87.1055H547.731L563.271 134ZM531.977 134H517.048L532.71 87.1055H547.639L531.977 134ZM618.103 95.3792C616.414 95.3792 614.989 95.9084 613.829 96.9667C612.689 98.0048 611.824 99.3583 611.234 101.027C610.643 102.696 610.287 104.518 610.165 106.492H626.132C625.99 104.477 625.624 102.645 625.033 100.997C624.463 99.3278 623.598 97.9742 622.438 96.9362C621.299 95.8982 619.853 95.3792 618.103 95.3792ZM589.466 110.705C589.466 106.126 590.534 102.014 592.671 98.3711C594.829 94.7075 598.075 91.8173 602.41 89.7005C606.746 87.5634 612.058 86.4948 618.347 86.4948C624.637 86.4948 629.918 87.5634 634.192 89.7005C638.467 91.8173 641.652 94.6973 643.748 98.3406C645.845 101.984 646.893 106.105 646.893 110.705C646.893 111.581 646.863 112.395 646.802 113.148H635.872H609.768C609.89 115.326 610.247 117.259 610.837 118.949C611.447 120.638 612.353 121.991 613.554 123.009C614.775 124.027 616.292 124.536 618.103 124.536C619.487 124.536 620.698 124.19 621.736 123.498C622.795 122.806 623.649 121.9 624.301 120.78C624.952 119.641 625.4 118.409 625.644 117.086H646.252C645.336 120.852 643.657 124.067 641.214 126.734C638.772 129.38 635.617 131.405 631.75 132.809C627.903 134.193 623.436 134.885 618.347 134.885C612.058 134.885 606.746 133.827 602.41 131.71C598.075 129.573 594.829 126.683 592.671 123.04C590.534 119.376 589.466 115.265 589.466 110.705ZM709.908 86.5254C713.958 86.5254 717.479 87.2581 720.471 88.7236C723.463 90.1687 725.753 92.143 727.34 94.6464C728.928 97.1499 729.722 99.9282 729.722 102.981V134H708.992V107.011C708.992 105.139 708.686 103.46 708.076 101.974C707.465 100.488 706.539 99.3074 705.298 98.4322C704.056 97.5366 702.54 97.0889 700.749 97.0889C698.856 97.0889 697.227 97.5366 695.864 98.4322C694.5 99.3278 693.462 100.559 692.75 102.126C692.037 103.673 691.681 105.475 691.681 107.53V134H689.269V103.47C689.269 100.132 690.144 97.1805 691.895 94.6159C693.645 92.0514 696.077 90.0669 699.192 88.6625C702.326 87.2377 705.898 86.5254 709.908 86.5254ZM691.681 71.4739V134H671.012V71.4739H691.681ZM770.938 125.482C769.879 127.314 768.719 128.82 767.457 130.001C766.195 131.161 764.781 132.077 763.214 132.748C761.646 133.4 759.804 133.919 757.688 134.305C753.963 134.977 750.452 135.038 747.155 134.488C743.857 133.939 741.038 132.738 738.698 130.886C736.377 129.013 734.851 126.51 734.118 123.375C733.487 120.16 733.681 117.29 734.698 114.766C735.716 112.242 737.507 110.176 740.072 108.568C742.636 106.96 745.883 105.922 749.811 105.454C753.149 105.047 756.812 104.884 760.802 104.966C764.811 105.027 768.19 105.2 770.938 105.485V103.164C770.938 101.434 770.683 99.9791 770.174 98.7986C769.686 97.5977 768.902 96.6818 767.824 96.0508C766.745 95.3995 765.371 95.0739 763.702 95.0739C761.463 95.0535 759.774 95.6336 758.634 96.8141C757.494 97.9946 756.823 99.7246 756.619 102.004H736.072C736.418 97.1397 738.677 93.4049 742.85 90.7996C747.022 88.174 753.607 86.8612 762.603 86.8612C770.887 86.8612 777.023 87.7262 781.013 89.4563C785.002 91.166 787.455 93.1505 788.371 95.4097C789.307 97.6689 789.755 100.335 789.714 103.409V104.691V134H770.938V125.482ZM764.221 123.498C764.933 123.375 765.625 123.091 766.297 122.643C766.989 122.195 767.64 121.615 768.251 120.902C768.719 120.394 769.096 119.834 769.381 119.223C769.666 118.592 769.869 117.931 769.991 117.239C770.113 116.526 770.174 115.794 770.174 115.041V112.018C768.689 111.916 767.111 111.886 765.442 111.927C763.773 111.947 762.45 112.049 761.473 112.232C759.906 112.517 758.593 112.954 757.535 113.545C756.477 114.135 755.713 114.939 755.245 115.957C754.777 116.974 754.685 118.216 754.97 119.681C755.235 120.74 755.805 121.605 756.68 122.276C757.576 122.948 758.675 123.386 759.977 123.589C761.3 123.793 762.715 123.762 764.221 123.498ZM853.324 134H832.655V71.4739H853.324V134ZM823.343 121.91C825.216 121.91 826.793 121.432 828.075 120.475C829.378 119.498 830.355 118.185 831.006 116.537C831.657 114.868 831.983 113.005 831.983 110.95C831.983 108.894 831.657 107.011 831.006 105.302C830.355 103.592 829.378 102.238 828.075 101.241C826.793 100.244 825.216 99.745 823.343 99.745C821.409 99.745 819.791 100.244 818.489 101.241C817.206 102.238 816.25 103.592 815.619 105.302C815.008 106.991 814.703 108.884 814.703 110.98C814.703 113.077 815.008 114.949 815.619 116.598C816.229 118.226 817.186 119.518 818.489 120.475C819.791 121.432 821.409 121.91 823.343 121.91ZM815.894 87.0749C820.778 87.0749 824.88 88.1028 828.197 90.1585C831.535 92.2142 834.018 95.023 835.647 98.5848C837.295 102.126 838.12 106.136 838.12 110.614C838.12 115.132 837.295 119.193 835.647 122.795C834.018 126.378 831.535 129.227 828.197 131.344C824.88 133.44 820.778 134.488 815.894 134.488C811.07 134.488 807.009 133.45 803.712 131.374C800.415 129.278 797.952 126.439 796.324 122.856C794.695 119.254 793.881 115.214 793.881 110.736C793.881 106.278 794.695 102.269 796.324 98.707C797.952 95.1451 800.415 92.316 803.712 90.2195C807.009 88.1231 811.07 87.0749 815.894 87.0749ZM914.674 125.482C913.616 127.314 912.456 128.82 911.194 130.001C909.932 131.161 908.517 132.077 906.95 132.748C905.383 133.4 903.541 133.919 901.424 134.305C897.7 134.977 894.189 135.038 890.891 134.488C887.594 133.939 884.775 132.738 882.434 130.886C880.114 129.013 878.588 126.51 877.855 123.375C877.224 120.16 877.417 117.29 878.435 114.766C879.453 112.242 881.244 110.176 883.808 108.568C886.373 106.96 889.619 105.922 893.547 105.454C896.885 105.047 900.549 104.884 904.538 104.966C908.548 105.027 911.927 105.2 914.674 105.485V103.164C914.674 101.434 914.42 99.9791 913.911 98.7986C913.423 97.5977 912.639 96.6818 911.56 96.0508C910.482 95.3995 909.108 95.0739 907.439 95.0739C905.2 95.0535 903.51 95.6336 902.371 96.8141C901.231 97.9946 900.559 99.7246 900.356 102.004H879.809C880.155 97.1397 882.414 93.4049 886.587 90.7996C890.759 88.174 897.343 86.8612 906.34 86.8612C914.624 86.8612 920.76 87.7262 924.749 89.4563C928.739 91.166 931.191 93.1505 932.107 95.4097C933.043 97.6689 933.491 100.335 933.451 103.409V104.691V134H914.674V125.482ZM907.958 123.498C908.67 123.375 909.362 123.091 910.034 122.643C910.726 122.195 911.377 121.615 911.988 120.902C912.456 120.394 912.832 119.834 913.117 119.223C913.402 118.592 913.606 117.931 913.728 117.239C913.85 116.526 913.911 115.794 913.911 115.041V112.018C912.425 111.916 910.848 111.886 909.179 111.927C907.51 111.947 906.187 112.049 905.21 112.232C903.643 112.517 902.33 112.954 901.272 113.545C900.213 114.135 899.45 114.939 898.982 115.957C898.514 116.974 898.422 118.216 898.707 119.681C898.972 120.74 899.542 121.605 900.417 122.276C901.312 122.948 902.411 123.386 903.714 123.589C905.037 123.793 906.452 123.762 907.958 123.498Z" fill="#F5F5F5"/>
<path d="M965.088 98.6459H957.058V88.6625H965.088V83.5029C965.088 81.5286 965.576 79.595 966.553 77.7021C967.55 75.7889 968.975 74.2217 970.827 73.0005C972.7 71.7589 974.898 71.1381 977.422 71.1381H996.656V81.2436H988.962C988.331 81.2436 987.772 81.3861 987.283 81.6711C986.815 81.956 986.449 82.3427 986.184 82.8312C985.919 83.3197 985.787 83.8591 985.787 84.4493V88.6625H996.656V98.6459H985.787V134H965.088V98.6459ZM1027.74 122.826C1029.51 122.826 1031.04 122.297 1032.35 121.238C1033.65 120.16 1034.64 118.714 1035.31 116.903C1035.98 115.092 1036.31 113.077 1036.31 110.858C1036.31 108.66 1035.97 106.655 1035.28 104.844C1034.61 103.012 1033.62 101.567 1032.32 100.508C1031.03 99.4295 1029.51 98.8902 1027.74 98.8902C1025.94 98.8902 1024.43 99.4295 1023.19 100.508C1021.95 101.567 1021.01 103.002 1020.38 104.813C1019.77 106.604 1019.46 108.619 1019.46 110.858C1019.46 113.097 1019.77 115.122 1020.38 116.934C1021.01 118.745 1021.93 120.18 1023.16 121.238C1024.4 122.297 1025.92 122.826 1027.74 122.826ZM1027.92 86.5254C1034.47 86.5254 1039.93 87.5939 1044.28 89.7311C1048.64 91.8478 1051.84 94.738 1053.9 98.4017C1055.98 102.045 1057.01 106.197 1057.01 110.858C1057.01 115.478 1055.98 119.62 1053.9 123.284C1051.84 126.927 1048.64 129.828 1044.28 131.985C1039.93 134.122 1034.47 135.191 1027.92 135.191C1021.32 135.191 1015.85 134.122 1011.49 131.985C1007.14 129.828 1003.92 126.927 1001.85 123.284C999.79 119.62 998.762 115.478 998.762 110.858C998.762 106.197 999.811 102.045 1001.91 98.4017C1004 94.738 1007.23 91.8478 1011.59 89.7311C1015.94 87.5939 1021.39 86.5254 1027.92 86.5254ZM1100.15 86.5254C1104.2 86.5254 1107.72 87.2581 1110.71 88.7236C1113.7 90.1687 1115.99 92.143 1117.58 94.6464C1119.17 97.1499 1119.96 99.9282 1119.96 102.981V134H1099.23V107.011C1099.23 105.139 1098.92 103.46 1098.31 101.974C1097.7 100.488 1096.78 99.3074 1095.54 98.4322C1094.29 97.5366 1092.78 97.0889 1090.99 97.0889C1089.09 97.0889 1087.47 97.5366 1086.1 98.4322C1084.74 99.3278 1083.7 100.559 1082.99 102.126C1082.28 103.673 1081.92 105.475 1081.92 107.53V134H1079.51V103.47C1079.51 100.132 1080.38 97.1805 1082.13 94.6159C1083.88 92.0514 1086.32 90.0669 1089.43 88.6625C1092.56 87.2377 1096.14 86.5254 1100.15 86.5254ZM1081.92 87.1055V134H1061.25V87.1055H1081.92ZM1143.77 134C1141.25 134 1139.05 133.389 1137.18 132.168C1135.33 130.927 1133.9 129.359 1132.9 127.467C1131.93 125.553 1131.44 123.61 1131.44 121.635V96.9973H1123.41V87.1055H1131.44V80.4498L1152.14 72.7257V87.1055H1162.79V96.9973H1152.14V120.689C1152.14 121.279 1152.27 121.818 1152.54 122.307C1152.8 122.795 1153.17 123.182 1153.64 123.467C1154.12 123.752 1154.68 123.894 1155.31 123.894H1162.28V134H1143.77Z" fill="#014ADD"/>
<path d="M257.033 169.512L1384.82 240.263L1371.67 449.851L243.885 379.1L257.033 169.512Z" fill="#014ADD"/>
<path d="M342.185 309.117C339.666 308.959 337.511 308.212 335.718 306.876C333.947 305.521 332.624 303.868 331.747 301.916C330.891 299.946 330.526 297.975 330.649 296.005L332.192 271.415L324.178 270.912L324.798 261.04L332.811 261.543L333.228 254.9L354.371 248.487L353.47 262.839L364.104 263.506L363.485 273.378L352.851 272.711L351.367 296.356C351.33 296.945 351.429 297.492 351.662 297.996C351.896 298.5 352.237 298.909 352.687 299.223C353.156 299.538 353.706 299.715 354.336 299.754L361.283 300.19L360.65 310.276L342.185 309.117ZM407.112 265.623C411.154 265.876 414.622 266.828 417.517 268.478C420.412 270.108 422.574 272.221 424.002 274.819C425.429 277.417 426.048 280.24 425.856 283.287L423.914 314.245L403.225 312.947L404.915 286.011C405.032 284.142 404.832 282.447 404.316 280.926C403.8 279.405 402.949 278.169 401.765 277.217C400.582 276.246 399.097 275.704 397.309 275.592C395.42 275.473 393.767 275.818 392.35 276.627C390.933 277.435 389.819 278.599 389.01 280.119C388.203 281.618 387.734 283.393 387.606 285.445L385.948 311.863L383.541 311.712L385.453 281.242C385.662 277.91 386.72 275.019 388.627 272.57C390.535 270.12 393.087 268.291 396.283 267.085C399.5 265.859 403.11 265.372 407.112 265.623ZM389.863 249.46L385.948 311.863L365.32 310.569L369.235 248.165L389.863 249.46ZM465.583 308.324C464.412 310.086 463.16 311.517 461.826 312.616C460.494 313.695 459.025 314.52 457.419 315.092C455.814 315.644 453.943 316.047 451.806 316.3C448.047 316.738 444.539 316.579 441.282 315.824C438.026 315.069 435.288 313.694 433.068 311.699C430.869 309.685 429.502 307.091 428.967 303.916C428.539 300.667 428.912 297.815 430.085 295.36C431.259 292.905 433.176 290.955 435.836 289.511C438.496 288.067 441.801 287.234 445.751 287.013C449.108 286.815 452.775 286.882 456.751 287.213C460.749 287.525 464.11 287.91 466.835 288.366L466.98 286.05C467.088 284.324 466.926 282.855 466.492 281.645C466.079 280.416 465.355 279.453 464.317 278.756C463.282 278.038 461.931 277.627 460.265 277.523C458.032 277.362 456.31 277.835 455.098 278.942C453.887 280.049 453.108 281.733 452.762 283.996L432.256 282.709C432.905 277.876 435.394 274.29 439.721 271.951C444.05 269.592 450.704 268.694 459.682 269.257C467.95 269.776 474.02 271.023 477.894 273C481.768 274.956 484.092 277.09 484.864 279.402C485.657 281.716 485.937 284.405 485.704 287.47L485.624 288.749L483.789 318.001L465.049 316.825L465.583 308.324ZM459.003 305.923C459.722 305.846 460.431 305.605 461.129 305.2C461.848 304.796 462.534 304.258 463.188 303.585C463.687 303.107 464.098 302.572 464.421 301.98C464.744 301.368 464.989 300.721 465.154 300.038C465.321 299.335 465.428 298.607 465.475 297.855L465.664 294.839C464.187 294.644 462.615 294.515 460.947 294.451C459.28 294.367 457.953 294.386 456.967 294.507C455.385 294.694 454.047 295.048 452.954 295.571C451.86 296.094 451.048 296.848 450.517 297.835C449.986 298.821 449.817 300.055 450.01 301.535C450.208 302.608 450.722 303.507 451.554 304.232C452.405 304.958 453.475 305.464 454.762 305.749C456.07 306.035 457.484 306.093 459.003 305.923ZM507.51 319.489C504.991 319.331 502.835 318.584 501.043 317.248C499.272 315.893 497.948 314.24 497.072 312.288C496.216 310.317 495.85 308.347 495.974 306.376L497.517 281.787L489.503 281.284L490.122 271.412L498.136 271.914L498.553 265.272L519.695 258.859L518.795 273.21L529.429 273.878L528.81 283.75L518.176 283.083L516.692 306.728C516.655 307.317 516.754 307.864 516.987 308.368C517.221 308.872 517.562 309.281 518.011 309.594C518.481 309.909 519.031 310.087 519.66 310.126L526.608 310.562L525.975 320.648L507.51 319.489ZM608.527 325.826L587.898 324.532L591.813 262.129L612.442 263.423L608.527 325.826ZM579.362 311.883C581.231 312 582.835 311.622 584.175 310.747C585.536 309.854 586.593 308.605 587.346 307C588.101 305.375 588.543 303.537 588.671 301.485C588.8 299.433 588.593 297.534 588.05 295.787C587.507 294.04 586.617 292.628 585.379 291.551C584.162 290.475 582.619 289.879 580.75 289.762C578.82 289.64 577.174 290.037 575.811 290.951C574.469 291.866 573.43 293.157 572.693 294.824C571.978 296.471 571.554 298.341 571.423 300.434C571.292 302.526 571.479 304.414 571.986 306.098C572.493 307.761 573.367 309.111 574.607 310.147C575.847 311.183 577.432 311.762 579.362 311.883ZM574.108 276.65C578.984 276.956 583.012 278.238 586.195 280.498C589.397 282.758 591.7 285.717 593.102 289.374C594.526 293.012 595.097 297.065 594.817 301.534C594.534 306.044 593.457 310.045 591.586 313.537C589.737 317.01 587.08 319.699 583.616 321.602C580.174 323.487 576.015 324.276 571.14 323.97C566.325 323.668 562.338 322.378 559.177 320.1C556.017 317.801 553.737 314.813 552.336 311.136C550.937 307.438 550.377 303.355 550.658 298.886C550.937 294.438 552 290.487 553.848 287.034C555.697 283.581 558.332 280.911 561.754 279.026C565.176 277.14 569.294 276.348 574.108 276.65ZM637.205 280.608L634.267 327.441L613.577 326.143L616.515 279.31L637.205 280.608ZM638.182 265.038L637.524 275.52L616.835 274.222L617.492 263.74L638.182 265.038ZM697.6 331.414L676.971 330.12L680.886 267.717L701.514 269.011L697.6 331.414ZM668.435 317.471C670.303 317.588 671.908 317.21 673.247 316.335C674.609 315.442 675.666 314.193 676.419 312.588C677.174 310.963 677.615 309.125 677.744 307.073C677.873 305.021 677.666 303.122 677.123 301.375C676.58 299.628 675.689 298.216 674.452 297.139C673.234 296.063 671.691 295.467 669.822 295.35C667.893 295.228 666.246 295.625 664.884 296.539C663.542 297.454 662.502 298.745 661.765 300.411C661.05 302.059 660.627 303.929 660.496 306.022C660.365 308.114 660.552 310.002 661.058 311.686C661.566 313.349 662.439 314.699 663.68 315.735C664.92 316.771 666.505 317.35 668.435 317.471ZM663.181 282.238C668.056 282.544 672.085 283.826 675.267 286.086C678.47 288.346 680.772 291.305 682.175 294.962C683.598 298.6 684.17 302.653 683.89 307.122C683.607 311.632 682.53 315.633 680.659 319.125C678.809 322.598 676.153 325.287 672.689 327.19C669.246 329.075 665.087 329.864 660.212 329.558C655.398 329.256 651.41 327.966 648.25 325.688C645.09 323.389 642.81 320.401 641.409 316.724C640.009 313.026 639.45 308.943 639.73 304.474C640.009 300.026 641.073 296.075 642.921 292.622C644.769 289.169 647.404 286.499 650.826 284.614C654.248 282.728 658.367 281.936 663.181 282.238ZM759.363 326.755C758.192 328.516 756.94 329.947 755.607 331.046C754.274 332.125 752.805 332.951 751.199 333.523C749.594 334.075 747.723 334.477 745.587 334.731C741.827 335.168 738.319 335.009 735.063 334.254C731.806 333.499 729.068 332.124 726.848 330.129C724.649 328.115 723.283 325.521 722.748 322.347C722.319 319.098 722.692 316.246 723.866 313.79C725.039 311.335 726.956 309.386 729.617 307.941C732.277 306.497 735.582 305.664 739.532 305.443C742.888 305.246 746.555 305.313 750.531 305.644C754.529 305.956 757.891 306.34 760.615 306.796L760.76 304.481C760.869 302.754 760.706 301.286 760.272 300.076C759.86 298.846 759.135 297.883 758.098 297.186C757.062 296.468 755.711 296.057 754.046 295.953C751.812 295.792 750.09 296.266 748.878 297.372C747.667 298.479 746.888 300.164 746.542 302.426L726.036 301.14C726.686 296.306 729.174 292.72 733.502 290.381C737.831 288.022 744.484 287.124 753.463 287.688C761.73 288.206 767.801 289.454 771.674 291.43C775.548 293.386 777.872 295.521 778.645 297.833C779.438 300.146 779.718 302.835 779.484 305.9L779.404 307.18L777.569 336.431L758.83 335.256L759.363 326.755ZM752.784 324.353C753.502 324.276 754.211 324.035 754.909 323.63C755.628 323.227 756.314 322.688 756.968 322.016C757.468 321.537 757.878 321.002 758.201 320.411C758.525 319.799 758.769 319.151 758.935 318.468C759.101 317.765 759.208 317.037 759.255 316.286L759.444 313.269C757.968 313.075 756.395 312.945 754.727 312.882C753.06 312.797 751.733 312.816 750.747 312.938C749.165 313.124 747.827 313.479 746.734 314.001C745.641 314.524 744.829 315.279 744.298 316.265C743.767 317.252 743.598 318.485 743.79 319.965C743.988 321.038 744.503 321.937 745.334 322.662C746.186 323.389 747.255 323.894 748.543 324.179C749.85 324.465 751.264 324.523 752.784 324.353ZM807.216 275.642L803.301 338.046L782.612 336.748L786.527 274.344L807.216 275.642ZM833.108 277.267L829.194 339.67L808.504 338.372L812.419 275.969L833.108 277.267ZM872.934 342.414C870.415 342.256 868.259 341.509 866.467 340.173C864.696 338.818 863.372 337.165 862.495 335.213C861.64 333.242 861.274 331.272 861.398 329.301L862.941 304.712L854.927 304.209L855.546 294.337L863.56 294.839L863.977 288.197L885.119 281.784L884.219 296.135L894.853 296.802L894.234 306.675L883.6 306.008L882.116 329.653C882.079 330.242 882.177 330.788 882.411 331.293C882.644 331.797 882.986 332.206 883.435 332.519C883.905 332.834 884.455 333.011 885.084 333.051L892.032 333.487L891.399 343.572L872.934 342.414ZM937.86 298.919C941.903 299.173 945.371 300.125 948.265 301.775C951.161 303.404 953.323 305.518 954.75 308.116C956.178 310.714 956.796 313.536 956.605 316.583L954.663 347.541L933.974 346.243L935.663 319.308C935.781 317.439 935.581 315.744 935.065 314.223C934.548 312.702 933.698 311.465 932.514 310.514C931.331 309.543 929.845 309.001 928.058 308.889C926.169 308.77 924.515 309.115 923.098 309.923C921.681 310.732 920.568 311.896 919.759 313.415C918.951 314.915 918.483 316.69 918.354 318.742L916.697 345.16L914.29 345.009L916.201 314.538C916.41 311.207 917.469 308.316 919.376 305.866C921.284 303.416 923.835 301.588 927.031 300.381C930.249 299.156 933.858 298.668 937.86 298.919ZM920.612 282.756L916.697 345.16L896.068 343.865L899.983 281.462L920.612 282.756ZM989.806 311.049C988.12 310.944 986.665 311.383 985.441 312.366C984.239 313.331 983.29 314.627 982.597 316.256C981.903 317.885 981.434 319.681 981.188 321.644L997.124 322.643C997.108 320.623 996.857 318.772 996.371 317.09C995.907 315.388 995.129 313.983 994.036 312.875C992.963 311.767 991.553 311.159 989.806 311.049ZM960.266 324.552C960.552 319.982 961.876 315.945 964.237 312.443C966.62 308.922 970.041 306.24 974.5 304.399C978.961 302.538 984.329 301.804 990.606 302.198C996.883 302.592 1002.09 303.989 1006.22 306.389C1010.35 308.769 1013.35 311.843 1015.22 315.611C1017.08 319.378 1017.87 323.557 1017.58 328.148C1017.53 329.022 1017.44 329.832 1017.34 330.58L1006.43 329.896L980.375 328.261C980.361 330.442 980.595 332.395 981.079 334.118C981.582 335.842 982.402 337.249 983.536 338.34C984.691 339.432 986.173 340.035 987.981 340.149C989.362 340.235 990.592 339.966 991.672 339.34C992.771 338.716 993.681 337.865 994.401 336.789C995.123 335.692 995.647 334.491 995.973 333.186L1016.54 334.476C1015.39 338.177 1013.51 341.281 1010.91 343.789C1008.31 346.277 1005.03 348.101 1001.08 349.261C997.157 350.401 992.655 350.812 987.577 350.493C981.3 350.1 976.064 348.711 971.87 346.327C967.677 343.922 964.618 340.834 962.693 337.063C960.789 333.273 959.98 329.103 960.266 324.552ZM1074.9 355.084L1054.18 353.785L1041.51 306.003L1062.23 307.303L1074.9 355.084ZM1118.38 357.812L1097.69 356.514L1116.23 310.69L1136.92 311.988L1118.38 357.812ZM1109.3 357.243L1094.46 356.312L1081.89 308.536L1096.73 309.467L1109.3 357.243ZM1078.07 355.283L1063.17 354.348L1081.74 308.527L1096.64 309.461L1078.07 355.283ZM1165.06 349.545C1166.83 349.655 1168.39 349.224 1169.76 348.249C1171.13 347.254 1172.2 345.873 1172.99 344.107C1173.77 342.342 1174.23 340.352 1174.37 338.137C1174.51 335.943 1174.29 333.921 1173.71 332.07C1173.16 330.199 1172.26 328.695 1171.03 327.557C1169.82 326.401 1168.33 325.767 1166.56 325.656C1164.77 325.544 1163.22 325.987 1161.92 326.986C1160.61 327.964 1159.59 329.338 1158.84 331.106C1158.12 332.856 1157.69 334.848 1157.55 337.082C1157.41 339.317 1157.59 341.357 1158.09 343.203C1158.6 345.051 1159.44 346.541 1160.59 347.673C1161.76 348.807 1163.25 349.431 1165.06 349.545ZM1167.52 313.327C1174.06 313.737 1179.43 315.145 1183.65 317.551C1187.86 319.936 1190.88 323.021 1192.7 326.806C1194.55 330.573 1195.32 334.782 1195.03 339.433C1194.74 344.045 1193.45 348.113 1191.14 351.64C1188.86 355.147 1185.48 357.841 1181 359.722C1176.52 361.582 1171.01 362.307 1164.47 361.897C1157.89 361.484 1152.49 360.074 1148.28 357.669C1144.06 355.243 1141.04 352.147 1139.19 348.381C1137.37 344.595 1136.6 340.397 1136.89 335.786C1137.18 331.134 1138.49 327.056 1140.81 323.551C1143.13 320.026 1146.53 317.343 1151.01 315.503C1155.49 313.643 1161 312.918 1167.52 313.327ZM1197.81 362.795L1200.75 315.993L1221.04 317.266L1220.4 327.412C1220.91 324.875 1222.62 322.555 1225.55 320.455C1228.48 318.334 1231.82 317.381 1235.58 317.597C1236.43 317.65 1237.28 317.765 1238.13 317.94C1238.99 318.096 1239.8 318.279 1240.54 318.489L1239.5 335.004C1238.62 334.419 1237.54 333.973 1236.25 333.668C1234.97 333.343 1233.7 333.151 1232.43 333.092C1230.12 332.988 1228.02 333.386 1226.15 334.289C1224.28 335.171 1222.76 336.533 1221.58 338.376C1220.41 340.199 1219.73 342.452 1219.57 345.133L1218.38 364.085L1197.81 362.795ZM1263.33 339.986L1283.6 321.16L1305.66 322.544L1285.36 341.369L1304.19 369.469L1282.1 368.083L1263.33 339.986ZM1244.91 303.101L1265.57 304.397L1261.65 366.8L1240.99 365.504L1244.91 303.101Z" fill="#F5F5F5"/>
</svg>
