<svg width="1522" height="745" viewBox="0 0 1522 745" fill="none" xmlns="http://www.w3.org/2000/svg">
<path d="M942.951 1.41602C1010 1.41602 1065.92 13.1556 1110.68 36.6641H1110.68C1155.65 60.166 1188.89 92.2665 1210.37 132.969C1232.07 173.43 1242.91 219.532 1242.91 271.262C1242.91 322.091 1232.07 367.855 1210.37 408.539C1188.89 449.241 1155.65 481.567 1110.68 505.521L1110.68 505.521C1065.7 529.256 1009.78 541.108 942.951 541.108C876.347 541.108 820.655 529.255 775.898 505.521L775.896 505.52C731.377 481.566 698.366 449.239 676.885 408.537C655.413 367.853 644.682 322.09 644.682 271.262C644.682 220.562 655.189 175.206 676.216 135.208L677.225 133.308C698.932 92.6061 732.17 60.5054 776.915 37.0029C821.671 13.2692 877.024 1.41602 942.951 1.41602ZM941.598 115.095C917.564 115.095 897.266 122.055 880.673 135.957C864.058 149.877 851.585 168.634 843.264 192.249C835.165 215.648 831.11 241.983 831.11 271.262C831.11 300.542 835.165 326.992 843.266 350.618H843.265C851.586 374.231 864.059 392.986 880.673 406.905H880.672C897.265 420.582 917.563 427.43 941.598 427.43C965.481 427.43 985.964 420.793 1003.07 407.533L1003.89 406.896C1021.18 392.974 1034.21 374.218 1042.98 350.606L1042.98 350.604C1051.98 326.755 1056.48 300.31 1056.48 271.262C1056.48 242.44 1051.98 216.221 1042.98 192.599L1042.98 192.594C1034.21 168.755 1021.17 149.885 1003.88 135.964C986.611 122.056 965.858 115.095 941.598 115.095Z" fill="black" stroke="black" stroke-linejoin="round"/>
<path d="M236.17 2.0918C276.38 2.0918 311.308 8.98167 340.939 22.7793C370.136 36.3746 394.94 55.902 415.348 81.3564V8.00586C415.348 7.72972 415.572 7.50586 415.848 7.50586H593.494C593.77 7.50606 593.994 7.72984 593.994 8.00586V472.594C593.994 525.666 584.396 572.326 565.184 612.559C545.959 653.044 514.522 685.038 470.901 708.543L470.9 708.542C427.491 732.055 370.894 743.794 301.139 743.794C250.115 743.794 205.729 737.133 167.99 723.801C130.244 710.465 98.5904 689.667 73.041 661.404L73.04 661.402C47.714 633.137 28.6204 596.52 15.7461 551.573C15.7029 551.422 15.7327 551.259 15.8271 551.134C15.9216 551.009 16.0698 550.936 16.2266 550.936H196.242L196.334 550.943C196.542 550.982 196.708 551.151 196.737 551.367C199.211 569.357 204.492 584.853 212.57 597.867C220.384 610.455 231.458 620.211 245.81 627.132L247.208 627.793L247.214 627.795C262.243 634.973 280.663 638.574 302.492 638.574C332.658 638.574 355.997 632.27 372.572 619.727L372.574 619.725C389.411 607.153 400.738 591.225 406.571 571.932V571.93C412.419 552.812 415.348 530.869 415.348 506.093V441.545C394.718 467.454 369.692 487.656 340.272 502.143L340.271 502.142C310.639 516.845 275.934 524.188 236.17 524.188C184.437 524.188 140.799 512.667 105.285 489.594L105.284 489.593C70.01 466.529 43.6666 435.209 26.2588 395.646L26.2578 395.643C9.0828 355.869 0.5 311.135 0.5 261.448C0.500007 212.213 9.08268 168.041 26.2588 128.942L26.2598 128.94C43.6684 89.8277 70.0123 58.9588 105.287 36.3467C140.801 13.5003 184.438 2.09185 236.17 2.0918ZM295.725 115.094C271.233 115.094 250.594 121.833 233.775 135.287C216.935 148.759 204.24 166.841 195.695 189.551C187.373 212.271 183.207 237.588 183.207 265.509C183.207 293.203 187.372 318.067 195.692 340.107L196.096 341.126C204.632 362.451 217.189 379.402 233.763 391.999L234.554 392.583C251.227 404.752 271.608 410.849 295.725 410.849C320.902 410.849 341.882 404.555 358.697 392.001C375.532 379.207 387.885 361.92 395.751 340.12L395.753 340.115C403.849 318.3 407.903 293.321 407.903 265.171C407.903 237.021 403.849 211.7 395.751 189.205L395.749 189.2C387.881 166.496 375.526 148.532 358.691 135.289L358.688 135.287C341.872 121.835 320.896 115.094 295.725 115.094Z" fill="black" stroke="black" stroke-linejoin="round"/>
<path d="M982.748 1.41602C1049.8 1.41602 1105.72 13.1556 1150.48 36.6641H1150.47C1195.44 60.166 1228.68 92.2665 1250.17 132.969C1271.87 173.43 1282.71 219.532 1282.71 271.262C1282.71 322.091 1271.87 367.855 1250.17 408.539C1228.68 449.241 1195.45 481.567 1150.48 505.521L1150.48 505.521C1105.49 529.256 1049.58 541.108 982.748 541.108C916.144 541.108 860.452 529.255 815.695 505.521L815.692 505.52C771.174 481.566 738.163 449.239 716.682 408.537C695.209 367.853 684.479 322.09 684.479 271.262C684.479 220.562 694.986 175.206 716.013 135.208L717.021 133.308C738.729 92.6061 771.967 60.5054 816.712 37.0029C861.468 13.2692 916.821 1.41602 982.748 1.41602ZM981.395 115.095C957.361 115.095 937.063 122.055 920.47 135.957C903.855 149.877 891.382 168.634 883.061 192.249C874.961 215.648 870.907 241.983 870.907 271.262C870.907 300.542 874.962 326.992 883.062 350.618H883.062C891.383 374.231 903.856 392.986 920.47 406.905H920.469C937.061 420.582 957.36 427.43 981.395 427.43C1005.28 427.43 1025.76 420.793 1042.87 407.533L1043.68 406.896C1060.97 392.974 1074.01 374.218 1082.78 350.606L1082.78 350.604C1091.78 326.755 1096.28 300.31 1096.28 271.262C1096.28 242.44 1091.78 216.221 1082.78 192.599L1082.78 192.594C1074.01 168.755 1060.97 149.885 1043.68 135.964C1026.41 122.056 1005.65 115.095 981.395 115.095Z" fill="#8159FB" stroke="black" stroke-linejoin="round"/>
<path d="M275.969 2.0918C316.179 2.0918 351.107 8.98167 380.738 22.7793C409.935 36.3746 434.739 55.902 455.146 81.3564V8.00586C455.146 7.72972 455.37 7.50586 455.646 7.50586H633.293C633.569 7.50606 633.793 7.72984 633.793 8.00586V472.594C633.793 525.666 624.195 572.326 604.982 612.559C585.757 653.044 554.32 685.038 510.7 708.543L510.699 708.542C467.29 732.055 410.692 743.794 340.938 743.794C289.914 743.794 245.527 737.133 207.789 723.801C170.043 710.465 138.389 689.667 112.84 661.404L112.839 661.402C87.5128 633.137 68.4192 596.52 55.5449 551.573C55.5017 551.422 55.5315 551.259 55.626 551.134C55.7204 551.009 55.8686 550.936 56.0254 550.936H236.041L236.133 550.943C236.341 550.982 236.506 551.151 236.536 551.367C239.01 569.357 244.291 584.853 252.369 597.867C260.182 610.455 271.257 620.211 285.608 627.132L287.007 627.793L287.013 627.795C302.042 634.973 320.462 638.574 342.291 638.574C372.457 638.574 395.796 632.27 412.371 619.727L412.373 619.725C429.21 607.153 440.537 591.225 446.37 571.932V571.93C452.218 552.812 455.146 530.869 455.146 506.093V441.545C434.516 467.454 409.491 487.656 380.071 502.143L380.07 502.142C350.438 516.845 315.732 524.188 275.969 524.188C224.235 524.188 180.598 512.667 145.084 489.594L145.083 489.593C109.809 466.529 83.4655 435.209 66.0576 395.646L66.0566 395.643C48.8816 355.869 40.2988 311.135 40.2988 261.448C40.2988 212.213 48.8815 168.041 66.0576 128.942L66.0586 128.94C83.4672 89.8277 109.811 58.9588 145.086 36.3467C180.6 13.5003 224.236 2.09185 275.969 2.0918ZM335.523 115.094C311.032 115.094 290.392 121.833 273.574 135.287C256.734 148.759 244.039 166.841 235.494 189.551C227.172 212.271 223.006 237.588 223.006 265.509C223.006 293.203 227.171 318.067 235.491 340.107L235.895 341.126C244.431 362.451 256.988 379.402 273.562 391.999L274.353 392.583C291.026 404.752 311.407 410.849 335.523 410.849C360.701 410.849 381.68 404.555 398.496 392.001C415.331 379.207 427.684 361.92 435.55 340.12L435.552 340.115C443.648 318.3 447.702 293.321 447.702 265.171C447.702 237.021 443.648 211.7 435.55 189.205L435.548 189.2C427.68 166.496 415.325 148.532 398.49 135.289L398.486 135.287C381.671 121.835 360.695 115.094 335.523 115.094Z" fill="#8159FB" stroke="black" stroke-linejoin="round"/>
<path d="M1022.55 1.41602C1089.6 1.41602 1145.52 13.1556 1190.27 36.6641H1190.27C1235.24 60.166 1268.48 92.2665 1289.96 132.969C1311.66 173.43 1322.51 219.532 1322.51 271.262C1322.51 322.091 1311.66 367.855 1289.97 408.539C1268.48 449.241 1235.25 481.567 1190.28 505.521L1190.28 505.521C1145.29 529.256 1089.38 541.108 1022.55 541.108C955.943 541.108 900.251 529.255 855.494 505.521L855.491 505.52C810.973 481.566 777.962 449.239 756.48 408.537C735.008 367.853 724.277 322.09 724.277 271.262C724.277 220.562 734.785 175.206 755.812 135.208L756.82 133.308C778.528 92.6061 811.766 60.5054 856.511 37.0029C901.267 13.2692 956.62 1.41602 1022.55 1.41602ZM1021.19 115.095C997.16 115.095 976.862 122.055 960.269 135.957C943.654 149.877 931.181 168.634 922.859 192.249C914.76 215.648 910.706 241.983 910.706 271.262C910.706 300.542 914.761 326.992 922.861 350.618H922.86C931.182 374.231 943.655 392.986 960.269 406.905H960.268C976.86 420.582 997.159 427.43 1021.19 427.43C1045.08 427.43 1065.56 420.793 1082.67 407.533L1083.48 406.896C1100.77 392.974 1113.81 374.218 1122.58 350.606L1122.58 350.604C1131.58 326.755 1136.08 300.31 1136.08 271.262C1136.08 242.44 1131.58 216.221 1122.58 192.599L1122.58 192.594C1113.8 168.755 1100.77 149.885 1083.48 135.964C1066.21 122.056 1045.45 115.095 1021.19 115.095Z" fill="#014ADD" stroke="black" stroke-linejoin="round"/>
<path d="M315.766 2.0918C355.976 2.0918 390.904 8.98167 420.535 22.7793C449.732 36.3746 474.536 55.902 494.943 81.3564V8.00586C494.943 7.72972 495.167 7.50586 495.443 7.50586H673.09C673.366 7.50606 673.59 7.72984 673.59 8.00586V472.594C673.59 525.666 663.992 572.326 644.779 612.559C625.554 653.044 594.117 685.038 550.497 708.543L550.496 708.542C507.087 732.055 450.489 743.794 380.734 743.794C329.711 743.794 285.324 737.133 247.586 723.801C209.84 710.465 178.186 689.667 152.637 661.404L152.636 661.402C127.31 633.137 108.216 596.52 95.3418 551.573C95.2986 551.422 95.3284 551.259 95.4229 551.134C95.5173 551.009 95.6655 550.936 95.8223 550.936H275.838L275.93 550.943C276.138 550.982 276.303 551.151 276.333 551.367C278.807 569.357 284.088 584.853 292.166 597.867C299.979 610.455 311.053 620.211 325.405 627.132L326.804 627.793L326.81 627.795C341.839 634.973 360.259 638.574 382.088 638.574C412.254 638.574 435.593 632.27 452.168 619.727L452.17 619.725C469.007 607.153 480.334 591.225 486.167 571.932V571.93C492.015 552.812 494.943 530.869 494.943 506.093V441.545C474.313 467.454 449.288 487.656 419.868 502.143L419.867 502.142C390.234 516.845 355.529 524.188 315.766 524.188C264.032 524.188 220.395 512.667 184.881 489.594L184.88 489.593C149.606 466.529 123.262 435.209 105.854 395.646L105.854 395.643C88.6785 355.869 80.0957 311.135 80.0957 261.448C80.0957 212.213 88.6784 168.041 105.854 128.942L105.855 128.94C123.264 89.8277 149.608 58.9588 184.883 36.3467C220.397 13.5003 264.033 2.09185 315.766 2.0918ZM375.32 115.094C350.829 115.094 330.189 121.833 313.371 135.287C296.531 148.759 283.835 166.841 275.291 189.551C266.968 212.271 262.803 237.588 262.803 265.509C262.803 293.203 266.968 318.067 275.288 340.107L275.691 341.126C284.227 362.451 296.785 379.402 313.358 391.999L314.149 392.583C330.823 404.752 351.204 410.849 375.32 410.849C400.498 410.849 421.477 404.555 438.293 392.001C455.128 379.207 467.481 361.92 475.347 340.12L475.349 340.115C483.445 318.3 487.499 293.321 487.499 265.171C487.499 237.021 483.445 211.7 475.347 189.205L475.345 189.2C467.477 166.496 455.122 148.532 438.287 135.289L438.283 135.287C421.467 121.835 400.492 115.094 375.32 115.094Z" fill="#014ADD" stroke="black" stroke-linejoin="round"/>
<path d="M1062.35 1.41602C1129.4 1.41602 1185.32 13.1556 1230.07 36.6641H1230.07C1275.04 60.166 1308.28 92.2665 1329.76 132.969C1351.46 173.43 1362.31 219.532 1362.31 271.262C1362.31 322.091 1351.46 367.855 1329.76 408.539C1308.28 449.241 1275.04 481.567 1230.08 505.521L1230.07 505.521C1185.09 529.256 1129.17 541.108 1062.35 541.108C995.742 541.108 940.05 529.255 895.293 505.521L895.29 505.52C850.772 481.566 817.761 449.239 796.279 408.537C774.807 367.853 764.076 322.09 764.076 271.262C764.076 220.562 774.584 175.206 795.61 135.208L796.619 133.308C818.327 92.6061 851.565 60.5054 896.31 37.0029C941.065 13.2692 996.418 1.41602 1062.35 1.41602ZM1060.99 115.095C1036.96 115.095 1016.66 122.055 1000.07 135.957C983.453 149.877 970.98 168.634 962.658 192.249C954.559 215.648 950.505 241.983 950.505 271.262C950.505 300.542 954.56 326.992 962.66 350.618H962.659C970.981 374.231 983.454 392.986 1000.07 406.905H1000.07C1016.66 420.582 1036.96 427.43 1060.99 427.43C1084.88 427.43 1105.36 420.793 1122.47 407.533L1123.28 406.896C1140.57 392.974 1153.6 374.218 1162.37 350.606L1162.38 350.604C1171.37 326.755 1175.88 300.31 1175.88 271.262C1175.88 242.44 1171.37 216.221 1162.38 192.599L1162.37 192.594C1153.6 168.755 1140.57 149.885 1123.28 135.964C1106.01 122.056 1085.25 115.095 1060.99 115.095Z" fill="#02903B" stroke="black" stroke-linejoin="round"/>
<path d="M355.564 2.0918C395.775 2.0918 430.703 8.98167 460.334 22.7793C489.53 36.3746 514.334 55.902 534.742 81.3564V8.00586C534.742 7.72972 534.966 7.50586 535.242 7.50586H712.889C713.165 7.50606 713.389 7.72984 713.389 8.00586V472.594C713.389 525.666 703.79 572.326 684.578 612.559C665.353 653.044 633.916 685.038 590.296 708.543L590.295 708.542C546.886 732.055 490.288 743.794 420.533 743.794C369.51 743.794 325.123 737.133 287.385 723.801C249.638 710.465 217.985 689.667 192.436 661.404L192.435 661.402C167.108 633.137 148.015 596.52 135.141 551.573C135.097 551.422 135.127 551.259 135.222 551.134C135.316 551.009 135.464 550.936 135.621 550.936H315.637L315.729 550.943C315.937 550.982 316.102 551.151 316.132 551.367C318.605 569.357 323.887 584.853 331.965 597.867C339.778 610.455 350.852 620.211 365.204 627.132L366.603 627.793L366.608 627.795C381.638 634.973 400.058 638.574 421.887 638.574C452.052 638.574 475.392 632.27 491.967 619.727L491.969 619.725C508.806 607.153 520.133 591.225 525.966 571.932V571.93C531.813 552.812 534.742 530.869 534.742 506.093V441.545C514.112 467.454 489.087 487.656 459.667 502.143L459.666 502.142C430.033 516.845 395.328 524.188 355.564 524.188C303.831 524.188 260.194 512.667 224.68 489.594L224.679 489.593C189.404 466.529 163.061 435.209 145.653 395.646L145.652 395.643C128.477 355.869 119.895 311.135 119.895 261.448C119.895 212.213 128.477 168.041 145.653 128.942L145.654 128.94C163.063 89.8277 189.407 58.9588 224.682 36.3467C260.195 13.5003 303.832 2.09185 355.564 2.0918ZM415.119 115.094C390.628 115.094 369.988 121.833 353.17 135.287C336.33 148.759 323.634 166.841 315.09 189.551C306.767 212.271 302.602 237.588 302.602 265.509C302.602 293.203 306.766 318.067 315.087 340.107L315.49 341.126C324.026 362.451 336.584 379.402 353.157 391.999L353.948 392.583C370.622 404.752 391.003 410.849 415.119 410.849C440.296 410.849 461.276 404.555 478.092 392.001C494.926 379.207 507.28 361.92 515.146 340.12L515.147 340.115C523.244 318.3 527.298 293.321 527.298 265.171C527.298 237.021 523.244 211.7 515.146 189.205L515.144 189.2C507.276 166.496 494.921 148.532 478.086 135.289L478.082 135.287C461.266 121.835 440.29 115.094 415.119 115.094Z" fill="#02903B" stroke="black" stroke-linejoin="round"/>
<path d="M1102.14 1.41602C1169.2 1.41602 1225.12 13.1556 1269.87 36.6641H1269.87C1314.84 60.166 1348.08 92.2665 1369.56 132.969C1391.26 173.43 1402.11 219.532 1402.11 271.262C1402.11 322.091 1391.26 367.855 1369.56 408.539C1348.08 449.241 1314.84 481.567 1269.88 505.521L1269.87 505.521C1224.89 529.256 1168.97 541.108 1102.14 541.108C1035.54 541.108 979.849 529.255 935.092 505.521L935.089 505.52C890.571 481.566 857.559 449.239 836.078 408.537C814.606 367.853 803.875 322.09 803.875 271.262C803.875 220.562 814.383 175.206 835.409 135.208L836.418 133.308C858.126 92.6061 891.363 60.5054 936.108 37.0029C980.864 13.2692 1036.22 1.41602 1102.14 1.41602ZM1100.79 115.095C1076.76 115.095 1056.46 122.055 1039.87 135.957C1023.25 149.877 1010.78 168.634 1002.46 192.249C994.358 215.648 990.304 241.983 990.304 271.262C990.304 300.542 994.359 326.992 1002.46 350.618H1002.46C1010.78 374.231 1023.25 392.986 1039.87 406.905H1039.87C1056.46 420.582 1076.76 427.43 1100.79 427.43C1124.67 427.43 1145.16 420.793 1162.27 407.533L1163.08 406.896C1180.37 392.974 1193.4 374.218 1202.17 350.606L1202.17 350.604C1211.17 326.755 1215.68 300.31 1215.68 271.262C1215.68 242.44 1211.17 216.221 1202.17 192.599L1202.17 192.594C1193.4 168.755 1180.37 149.885 1163.08 135.964C1145.8 122.056 1125.05 115.095 1100.79 115.095Z" fill="#FDC800" stroke="black" stroke-linejoin="round"/>
<path d="M395.363 2.0918C435.573 2.0918 470.502 8.98167 500.133 22.7793C529.329 36.3746 554.133 55.902 574.541 81.3564V8.00586C574.541 7.72972 574.765 7.50586 575.041 7.50586H752.688C752.963 7.50606 753.188 7.72984 753.188 8.00586V472.594C753.188 525.666 743.589 572.326 724.377 612.559C705.152 653.044 673.715 685.038 630.095 708.543L630.094 708.542C586.685 732.055 530.087 743.794 460.332 743.794C409.308 743.794 364.922 737.133 327.184 723.801C289.437 710.465 257.784 689.667 232.234 661.404L232.233 661.402C206.907 633.137 187.814 596.52 174.939 551.573C174.896 551.422 174.926 551.259 175.021 551.134C175.115 551.009 175.263 550.936 175.42 550.936H355.436L355.527 550.943C355.736 550.982 355.901 551.151 355.931 551.367C358.404 569.357 363.686 584.853 371.764 597.867C379.577 610.455 390.651 620.211 405.003 627.132L406.401 627.793L406.407 627.795C421.437 634.973 439.857 638.574 461.686 638.574C491.851 638.574 515.19 632.27 531.766 619.727L531.768 619.725C548.604 607.153 559.932 591.225 565.765 571.932V571.93C571.612 552.812 574.541 530.869 574.541 506.093V441.545C553.911 467.454 528.885 487.656 499.466 502.143L499.465 502.142C469.832 516.845 435.127 524.188 395.363 524.188C343.63 524.188 299.993 512.667 264.479 489.594L264.478 489.593C229.203 466.529 202.86 435.209 185.452 395.646L185.451 395.643C168.276 355.869 159.693 311.135 159.693 261.448C159.693 212.213 168.276 168.041 185.452 128.942L185.453 128.94C202.862 89.8277 229.206 58.9588 264.48 36.3467C299.994 13.5003 343.631 2.09185 395.363 2.0918ZM454.918 115.094C430.427 115.094 409.787 121.833 392.969 135.287C376.129 148.759 363.433 166.841 354.889 189.551C346.566 212.271 342.4 237.588 342.4 265.509C342.4 293.203 346.565 318.067 354.886 340.107L355.289 341.126C363.825 362.451 376.383 379.402 392.956 391.999L393.747 392.583C410.421 404.752 430.802 410.849 454.918 410.849C480.095 410.849 501.075 404.555 517.891 392.001C534.725 379.207 547.078 361.92 554.944 340.12L554.946 340.115C563.043 318.3 567.097 293.321 567.097 265.171C567.097 237.021 563.043 211.7 554.944 189.205L554.942 189.2C547.074 166.496 534.719 148.532 517.885 135.289L517.881 135.287C501.065 121.835 480.089 115.094 454.918 115.094Z" fill="#FDC800" stroke="black" stroke-linejoin="round"/>
<path d="M1141.94 1.41602C1208.99 1.41602 1264.91 13.1556 1309.67 36.6641H1309.67C1354.64 60.166 1387.88 92.2665 1409.36 132.969C1431.06 173.43 1441.9 219.532 1441.9 271.262C1441.9 322.091 1431.06 367.855 1409.36 408.539C1387.88 449.241 1354.64 481.567 1309.67 505.521L1309.67 505.521C1264.69 529.256 1208.77 541.108 1141.94 541.108C1075.34 541.108 1019.65 529.255 974.889 505.521L974.886 505.52C930.367 481.566 897.356 449.239 875.875 408.537C854.403 367.853 843.672 322.09 843.672 271.262C843.672 220.562 854.18 175.206 875.206 135.208L876.215 133.308C897.923 92.6061 931.16 60.5054 975.905 37.0029C1020.66 13.2692 1076.01 1.41602 1141.94 1.41602ZM1140.59 115.095C1116.55 115.095 1096.26 122.055 1079.66 135.957C1063.05 149.877 1050.58 168.634 1042.25 192.249C1034.15 215.648 1030.1 241.983 1030.1 271.262C1030.1 300.542 1034.16 326.992 1042.26 350.618H1042.25C1050.58 374.231 1063.05 392.986 1079.66 406.905H1079.66C1096.25 420.582 1116.55 427.43 1140.59 427.43C1164.47 427.43 1184.95 420.793 1202.06 407.533L1202.88 406.896C1220.17 392.974 1233.2 374.218 1241.97 350.606L1241.97 350.604C1250.97 326.755 1255.47 300.31 1255.47 271.262C1255.47 242.44 1250.97 216.221 1241.97 192.599L1241.97 192.594C1233.2 168.755 1220.16 149.885 1202.87 135.964C1185.6 122.056 1164.85 115.095 1140.59 115.095Z" fill="#FF4B00" stroke="black" stroke-linejoin="round"/>
<path d="M435.162 2.0918C475.372 2.0918 510.301 8.98167 539.932 22.7793C569.128 36.3746 593.932 55.902 614.34 81.3564V8.00586C614.34 7.72972 614.564 7.50586 614.84 7.50586H792.486C792.762 7.50606 792.986 7.72984 792.986 8.00586V472.594C792.986 525.666 783.388 572.326 764.176 612.559C744.951 653.044 713.514 685.038 669.894 708.543L669.893 708.542C626.484 732.055 569.886 743.794 500.131 743.794C449.107 743.794 404.721 737.133 366.982 723.801C329.236 710.465 297.583 689.667 272.033 661.404L272.032 661.402C246.706 633.137 227.613 596.52 214.738 551.573C214.695 551.422 214.725 551.259 214.819 551.134C214.914 551.009 215.062 550.936 215.219 550.936H395.234L395.326 550.943C395.534 550.982 395.7 551.151 395.729 551.367C398.203 569.357 403.485 584.853 411.562 597.867C419.376 610.455 430.45 620.211 444.802 627.132L446.2 627.793L446.206 627.795C461.236 634.973 479.655 638.574 501.484 638.574C531.65 638.574 554.989 632.27 571.564 619.727L571.566 619.725C588.403 607.153 599.731 591.225 605.563 571.932V571.93C611.411 552.812 614.34 530.869 614.34 506.093V441.545C593.71 467.454 568.684 487.656 539.265 502.143L539.264 502.142C509.631 516.845 474.926 524.188 435.162 524.188C383.429 524.188 339.791 512.667 304.277 489.594L304.276 489.593C269.002 466.529 242.659 435.209 225.251 395.646L225.25 395.643C208.075 355.869 199.492 311.135 199.492 261.448C199.492 212.213 208.075 168.041 225.251 128.942L225.252 128.94C242.661 89.8277 269.005 58.9588 304.279 36.3467C339.793 13.5003 383.43 2.09185 435.162 2.0918ZM494.717 115.094C470.226 115.094 449.586 121.833 432.768 135.287C415.928 148.759 403.232 166.841 394.688 189.551C386.365 212.271 382.199 237.588 382.199 265.509C382.199 293.203 386.364 318.067 394.685 340.107L395.088 341.126C403.624 362.451 416.181 379.402 432.755 391.999L433.546 392.583C450.219 404.752 470.601 410.849 494.717 410.849C519.894 410.849 540.874 404.555 557.689 392.001C574.524 379.207 586.877 361.92 594.743 340.12L594.745 340.115C602.841 318.3 606.895 293.321 606.896 265.171C606.896 237.021 602.841 211.7 594.743 189.205L594.741 189.2C586.873 166.496 574.518 148.532 557.684 135.289L557.68 135.287C540.864 121.835 519.888 115.094 494.717 115.094Z" fill="#FF4B00" stroke="black" stroke-linejoin="round"/>
<path d="M1181.74 1.41602C1248.79 1.41602 1304.71 13.1556 1349.47 36.6641H1349.47C1394.44 60.166 1427.68 92.2665 1449.16 132.969C1470.86 173.43 1481.7 219.532 1481.7 271.262C1481.7 322.091 1470.86 367.855 1449.16 408.539C1427.68 449.241 1394.44 481.567 1349.47 505.521L1349.47 505.521C1304.49 529.256 1248.57 541.108 1181.74 541.108C1115.14 541.108 1059.44 529.255 1014.69 505.521L1014.68 505.52C970.166 481.566 937.155 449.239 915.674 408.537C894.202 367.853 883.471 322.09 883.471 271.262C883.471 220.562 893.978 175.206 915.005 135.208L916.014 133.308C937.721 92.6061 970.959 60.5054 1015.7 37.0029C1060.46 13.2692 1115.81 1.41602 1181.74 1.41602ZM1180.39 115.095C1156.35 115.095 1136.06 122.055 1119.46 135.957C1102.85 149.877 1090.37 168.634 1082.05 192.249C1073.95 215.648 1069.9 241.983 1069.9 271.262C1069.9 300.542 1073.95 326.992 1082.05 350.618H1082.05C1090.38 374.231 1102.85 392.986 1119.46 406.905H1119.46C1136.05 420.582 1156.35 427.43 1180.39 427.43C1204.27 427.43 1224.75 420.793 1241.86 407.533L1242.68 406.896C1259.96 392.974 1273 374.218 1281.77 350.606L1281.77 350.604C1290.77 326.755 1295.27 300.31 1295.27 271.262C1295.27 242.44 1290.77 216.221 1281.77 192.599L1281.77 192.594C1273 168.755 1259.96 149.885 1242.67 135.964C1225.4 122.056 1204.65 115.095 1180.39 115.095Z" fill="#FFBFE1" stroke="black" stroke-linejoin="round"/>
<path d="M474.959 2.0918C515.169 2.0918 550.098 8.98167 579.729 22.7793C608.925 36.3746 633.729 55.902 654.137 81.3564V8.00586C654.137 7.72972 654.361 7.50586 654.637 7.50586H832.283C832.559 7.50606 832.783 7.72984 832.783 8.00586V472.594C832.783 525.666 823.185 572.326 803.973 612.559C784.748 653.044 753.311 685.038 709.69 708.543L709.689 708.542C666.281 732.055 609.683 743.794 539.928 743.794C488.904 743.794 444.518 737.133 406.779 723.801C369.033 710.465 337.379 689.667 311.83 661.404L311.829 661.402C286.503 633.137 267.409 596.52 254.535 551.573C254.492 551.422 254.522 551.259 254.616 551.134C254.711 551.009 254.859 550.936 255.016 550.936H435.031L435.123 550.943C435.331 550.982 435.497 551.151 435.526 551.367C438 569.357 443.282 584.853 451.359 597.867C459.173 610.455 470.247 620.211 484.599 627.132L485.997 627.793L486.003 627.795C501.032 634.973 519.452 638.574 541.281 638.574C571.447 638.574 594.786 632.27 611.361 619.727L611.363 619.725C628.2 607.153 639.527 591.225 645.36 571.932V571.93C651.208 552.812 654.137 530.869 654.137 506.093V441.545C633.507 467.454 608.481 487.656 579.062 502.143L579.061 502.142C549.428 516.845 514.723 524.188 474.959 524.188C423.226 524.188 379.588 512.667 344.074 489.594L344.073 489.593C308.799 466.529 282.456 435.209 265.048 395.646L265.047 395.643C247.872 355.869 239.289 311.135 239.289 261.448C239.289 212.213 247.872 168.041 265.048 128.942L265.049 128.94C282.457 89.8277 308.801 58.9588 344.076 36.3467C379.59 13.5003 423.227 2.09185 474.959 2.0918ZM534.514 115.094C510.023 115.094 489.383 121.833 472.564 135.287C455.724 148.759 443.029 166.841 434.484 189.551C426.162 212.271 421.996 237.588 421.996 265.509C421.996 293.203 426.161 318.067 434.481 340.107L434.885 341.126C443.421 362.451 455.978 379.402 472.552 391.999L473.343 392.583C490.016 404.752 510.397 410.849 534.514 410.849C559.691 410.849 580.671 404.555 597.486 392.001C614.321 379.207 626.674 361.92 634.54 340.12L634.542 340.115C642.638 318.3 646.692 293.321 646.692 265.171C646.692 237.021 642.638 211.7 634.54 189.205L634.538 189.2C626.67 166.496 614.315 148.532 597.48 135.289L597.477 135.287C580.661 121.835 559.685 115.094 534.514 115.094Z" fill="#FFBFE1" stroke="black" stroke-linejoin="round"/>
<path d="M1221.54 1.41602C1288.59 1.41602 1344.51 13.1556 1389.27 36.6641H1389.27C1434.24 60.166 1467.47 92.2665 1488.96 132.969C1510.66 173.43 1521.5 219.532 1521.5 271.262C1521.5 322.091 1510.66 367.855 1488.96 408.539C1467.48 449.241 1434.24 481.567 1389.27 505.521L1389.27 505.521C1344.29 529.256 1288.37 541.108 1221.54 541.108C1154.94 541.108 1099.24 529.255 1054.49 505.521L1054.48 505.52C1009.97 481.566 976.954 449.239 955.473 408.537C934 367.853 923.27 322.09 923.27 271.262C923.27 220.562 933.777 175.206 954.804 135.208L955.812 133.308C977.52 92.6061 1010.76 60.5054 1055.5 37.0029C1100.26 13.2692 1155.61 1.41602 1221.54 1.41602ZM1220.19 115.095C1196.15 115.095 1175.85 122.055 1159.26 135.957C1142.65 149.877 1130.17 168.634 1121.85 192.249C1113.75 215.648 1109.7 241.983 1109.7 271.262C1109.7 300.542 1113.75 326.992 1121.85 350.618H1121.85C1130.17 374.231 1142.65 392.986 1159.26 406.905H1159.26C1175.85 420.582 1196.15 427.43 1220.19 427.43C1244.07 427.43 1264.55 420.793 1281.66 407.533L1282.47 406.896C1299.76 392.974 1312.8 374.218 1321.57 350.606L1321.57 350.604C1330.57 326.755 1335.07 300.31 1335.07 271.262C1335.07 242.44 1330.57 216.221 1321.57 192.599L1321.57 192.594C1312.8 168.755 1299.76 149.885 1282.47 135.964C1265.2 122.056 1244.45 115.095 1220.19 115.095Z" fill="#F5F5F5" stroke="black" stroke-linejoin="round"/>
<path d="M514.758 2.0918C554.968 2.0918 589.896 8.98167 619.527 22.7793C648.724 36.3746 673.528 55.902 693.936 81.3564V8.00586C693.936 7.72972 694.159 7.50586 694.436 7.50586H872.082C872.358 7.50606 872.582 7.72984 872.582 8.00586V472.594C872.582 525.666 862.984 572.326 843.771 612.559C824.546 653.044 793.109 685.038 749.489 708.543L749.488 708.542C706.079 732.055 649.482 743.794 579.727 743.794C528.703 743.794 484.316 737.133 446.578 723.801C408.832 710.465 377.178 689.667 351.629 661.404L351.628 661.402C326.302 633.137 307.208 596.52 294.334 551.573C294.291 551.422 294.321 551.259 294.415 551.134C294.509 551.009 294.658 550.936 294.814 550.936H474.83L474.922 550.943C475.13 550.982 475.295 551.151 475.325 551.367C477.799 569.357 483.08 584.853 491.158 597.867C498.972 610.455 510.046 620.211 524.397 627.132L525.796 627.793L525.802 627.795C540.831 634.973 559.251 638.574 581.08 638.574C611.246 638.574 634.585 632.27 651.16 619.727L651.162 619.725C667.999 607.153 679.326 591.225 685.159 571.932V571.93C691.007 552.812 693.936 530.869 693.936 506.093V441.545C673.306 467.454 648.28 487.656 618.86 502.143L618.859 502.142C589.227 516.845 554.521 524.188 514.758 524.188C463.024 524.188 419.387 512.667 383.873 489.594L383.872 489.593C348.598 466.529 322.255 435.209 304.847 395.646L304.846 395.643C287.671 355.869 279.088 311.135 279.088 261.448C279.088 212.213 287.671 168.041 304.847 128.942L304.848 128.94C322.256 89.8277 348.6 58.9588 383.875 36.3467C419.389 13.5003 463.025 2.09185 514.758 2.0918ZM574.312 115.094C549.821 115.094 529.182 121.833 512.363 135.287C495.523 148.759 482.828 166.841 474.283 189.551C465.961 212.271 461.795 237.588 461.795 265.509C461.795 293.203 465.96 318.067 474.28 340.107L474.684 341.126C483.22 362.451 495.777 379.402 512.351 391.999L513.142 392.583C529.815 404.752 550.196 410.849 574.312 410.849C599.49 410.849 620.469 404.555 637.285 392.001C654.12 379.207 666.473 361.92 674.339 340.12L674.341 340.115C682.437 318.3 686.491 293.321 686.491 265.171C686.491 237.021 682.437 211.7 674.339 189.205L674.337 189.2C666.469 166.496 654.114 148.532 637.279 135.289L637.275 135.287C620.46 121.835 599.484 115.094 574.312 115.094Z" fill="#F5F5F5" stroke="black" stroke-linejoin="round"/>
</svg>
