<svg width="1520" height="1012" viewBox="0 0 1520 1012" fill="none" xmlns="http://www.w3.org/2000/svg">
<path d="M474.981 1010.12C374.623 1010.12 288.847 993.818 217.653 961.223C146.459 928.628 92.6349 884.454 56.1802 828.699C19.7254 772.516 1.49805 709.685 1.49805 640.207V1.39087H622.301V537.276C622.301 575.446 626.161 608.899 633.881 637.633C641.601 666.368 655.539 689.528 675.696 707.112C695.854 724.267 723.302 732.845 758.041 732.845C792.781 732.845 820.658 725.125 841.673 709.685C862.688 694.246 877.699 672.587 886.705 644.71C895.712 616.833 900.215 582.951 900.215 543.066V1.39087H951.037V649.857C951.037 724.053 931.094 788.385 891.208 842.852C851.323 896.891 795.354 938.278 723.302 967.013C651.679 995.748 568.906 1010.12 474.981 1010.12ZM900.215 989.529V1.39087H1518.44V989.529H900.215Z" fill="black"/>
<path d="M622.33 537.413V1.52876H1.52705V640.344L1.54047 643.595C2.1011 711.784 20.3234 773.531 56.2086 828.837C92.6634 884.591 146.488 928.766 217.682 961.361C287.764 993.446 371.975 1009.74 470.317 1010.24L475.01 1010.25C568.934 1010.25 651.709 995.885 723.331 967.15C794.257 938.864 849.599 898.319 889.356 845.514L891.237 842.989C894.362 838.722 897.364 834.394 900.244 830.006V989.666H1518.47V1.52876H900.244V543.202C900.244 583.088 895.741 616.97 886.735 644.847L885.873 647.443C876.784 674.072 862.06 694.865 841.702 709.822L840.712 710.541C819.814 725.502 792.267 732.982 758.07 732.982V731.455C792.591 731.455 820.12 723.784 840.798 708.592C861.523 693.365 876.36 671.989 885.281 644.378L886.107 641.764C894.23 615.459 898.44 583.852 898.704 546.914L898.717 543.202V0.00170898H1520V991.193H898.717V835.033C896.691 838.013 894.611 840.968 892.47 843.891L892.466 843.897C852.386 898.198 796.171 939.743 723.898 968.566L723.9 968.568C652.061 997.389 569.088 1011.78 475.01 1011.78C376.063 1011.78 291.18 995.963 220.407 964.27L217.047 962.749C145.638 930.056 91.569 885.707 54.9306 829.672L54.9276 829.667C18.3063 773.227 8.79191e-05 710.106 0 640.344V0.00170898H623.857V537.413C623.857 575.485 627.708 608.799 635.384 637.374L636.12 640.028C643.903 667.276 657.448 689.279 676.73 706.099C696.533 722.945 723.587 731.455 758.07 731.455V732.982L756.448 732.976C722.476 732.712 695.568 724.137 675.726 707.25C656.199 690.215 642.507 667.948 634.652 640.449L633.909 637.771C626.431 609.934 622.575 577.669 622.342 540.977L622.33 537.413Z" fill="black"/>
<path d="M496.138 1006.26C403.5 1006.26 323.514 990.387 256.18 958.65C189.275 926.913 138.238 884.025 103.07 829.986C68.3306 775.518 50.9609 714.617 50.9609 647.283V1.39087L580.281 1.52807V553.496C580.281 592.524 584.916 626.911 595.209 656.933C605.502 686.955 622.228 710.972 645.388 728.985C668.547 746.998 698.14 756.004 734.166 756.004C771.907 756.004 803.215 747.427 828.09 730.271C852.965 713.116 871.193 689.313 882.773 658.863C894.781 628.413 900.786 592.601 900.786 551.429V1.39087H951.608V647.283C951.608 719.335 932.308 782.595 893.709 837.062C855.539 891.101 801.929 932.917 732.879 962.51C664.258 991.673 585.345 1006.26 496.138 1006.26ZM900.786 989.529V1.39087H1427.66V989.529H900.786Z" fill="#014ADD"/>
<path d="M579.769 553.359L579.966 1.52827H51.1575L50.9606 647.283L50.9726 650.434C51.5068 716.518 68.8732 776.369 103.07 829.986C138.238 884.024 189.274 926.912 256.179 958.649C322.461 989.89 401.003 1005.75 491.804 1006.24L496.138 1006.25C583.95 1006.25 661.789 992.125 729.654 963.865L732.878 962.508C801.928 932.916 855.539 891.101 893.709 837.062C896.145 833.624 898.503 830.15 900.785 826.643V989.528H1427.66L1427.79 1.52827H900.915L900.785 551.427C900.785 592.6 894.781 628.412 882.772 658.862L882.225 660.285C870.622 690.055 852.577 713.384 828.091 730.271L826.919 731.069C802.234 747.692 771.317 756.003 734.165 756.003V754.476C771.674 754.476 802.66 745.954 827.223 729.014C851.823 712.049 869.866 688.504 881.345 658.32L881.351 658.302L882.452 655.452C893.281 626.794 898.89 593.405 899.24 555.259L899.258 551.427L899.388 0.0012207H1429.32L1429.19 991.055H899.258V831.71C897.85 833.799 896.417 835.878 894.954 837.942L894.956 837.943C856.602 892.242 802.753 934.225 733.481 963.913L733.476 963.915C664.633 993.173 585.51 1007.78 496.138 1007.78C403.328 1007.78 323.11 991.883 255.529 960.03L255.524 960.028C188.403 928.189 137.132 885.127 101.789 830.818L101.781 830.806C66.879 776.083 49.4336 714.895 49.4336 647.283L49.6304 0.0012207H581.493L581.296 553.359C581.296 592.255 586.426 626.607 596.653 656.438L597.136 657.827C607.377 686.943 623.777 710.242 646.325 727.779L647.401 728.606C670.076 745.817 698.959 754.476 734.165 754.476V756.003L732.482 755.997C697.776 755.724 669.108 747 646.478 729.823L645.387 728.984C622.59 711.253 606.026 687.703 595.696 658.336L595.208 656.933C585.237 627.849 580.096 594.539 579.784 557.003L579.769 553.359Z" fill="black"/>
<path d="M516.004 1001.75C430.657 1001.75 356.461 986.527 293.416 956.077C230.371 925.197 182.122 883.381 148.669 830.629C115.217 777.877 98.4902 719.335 98.4902 655.003V1.39087H535.304V570.085C535.304 609.542 541.737 644.924 554.604 676.233C567.47 707.541 586.984 732.63 613.146 751.501C639.307 769.943 671.259 779.164 709 779.164C748.886 779.164 783.196 769.728 811.931 750.858C840.666 731.987 862.539 706.254 877.55 673.659C892.56 640.636 900.066 602.465 900.066 559.149V1.39087H950.888V644.71C950.888 715.046 932.446 777.234 895.563 831.273C858.679 885.311 807.214 927.342 741.166 957.363C675.548 986.956 600.494 1001.75 516.004 1001.75ZM900.066 989.529V1.39087H1335.59V989.529H900.066Z" fill="#8159FB"/>
<path d="M535.306 570.085L535.312 1.52827H98.4979L98.4919 655.003L98.5038 658.014C99.0184 721.162 115.74 778.701 148.67 830.629C182.122 883.381 230.372 925.197 293.418 956.076C355.478 986.051 428.343 1001.27 512.014 1001.74L516.006 1001.75C599.175 1001.75 673.201 987.414 738.085 958.738L741.167 957.362C806.182 927.81 857.068 886.621 893.824 833.796L895.565 831.271C897.098 829.024 898.597 826.76 900.067 824.485V989.528H1335.59L1335.73 1.52827H900.199L900.067 559.148C900.067 602.464 892.562 640.635 877.552 673.659C862.541 706.253 840.668 731.986 811.933 750.857L810.582 751.735C782.125 770.021 748.264 779.164 709.002 779.164V777.637C748.638 777.637 782.646 768.262 811.094 749.58L812.424 748.699C840.253 730.077 861.496 704.865 876.16 673.026C890.599 641.261 898.066 604.655 898.519 563.177L898.54 559.148L898.672 0.0012207H1337.25L1337.12 991.055H898.54V829.592L896.825 832.133C859.767 886.427 808.072 928.629 741.799 958.753L741.795 958.755C675.948 988.45 600.674 1003.28 516.006 1003.28C430.479 1003.28 356.045 988.021 292.752 957.451L292.745 957.447C230.467 926.944 182.521 885.774 148.968 833.923L147.381 831.446C113.769 778.442 96.9649 719.615 96.9648 655.003L96.9708 0.0012207H536.839L536.833 570.085C536.833 609.375 543.239 644.555 556.018 675.651C568.782 706.709 588.121 731.566 614.04 750.262C639.898 768.485 671.524 777.637 709.002 777.637V779.164L707.236 779.156C670.263 778.873 638.899 769.654 613.147 751.501C587.394 732.925 568.083 708.323 555.213 677.695L554.604 676.233C542.14 645.903 535.713 611.748 535.324 573.771L535.306 570.085Z" fill="black"/>
<path d="M535.236 997.164C457.594 997.164 389.175 982.38 329.978 952.813C271.211 922.818 225.955 882.324 194.212 831.331C162.469 780.339 146.598 723.776 146.598 661.643V1.52686H491.482V585.797C491.482 626.076 499.203 662.5 514.646 695.066C530.088 727.204 552.394 752.915 581.563 772.198C610.733 791.48 644.62 801.122 683.227 801.122C726.123 801.122 763.871 791.052 796.472 770.912C829.073 750.772 854.167 722.919 871.755 687.353C889.771 651.787 898.779 611.721 898.779 567.157V1.52686H949.611V641.717C949.611 709.85 931.809 770.912 896.206 824.904C861.031 878.896 811.915 921.104 748.858 951.528C686.23 981.952 615.022 997.164 535.236 997.164ZM898.779 988.808V1.52686H1243.02V988.808H898.779Z" fill="#FFBFE1"/>
<path d="M491.891 586.168L491.712 1.52827H146.892L147.071 662.079L147.083 664.99C147.571 726.034 163.436 781.677 194.677 831.916C226.414 882.952 271.661 923.481 330.417 953.503C388.678 982.633 455.874 997.426 532.004 997.881L535.636 997.892C615.407 997.892 686.602 982.666 749.218 952.216C812.263 921.765 861.37 879.521 896.538 825.482C897.408 824.163 898.263 822.838 899.111 821.51V989.529H1243.29L1243.02 1.52827H898.845L899.111 567.511C899.111 612.114 890.105 652.215 872.092 687.812L871.262 689.475C853.721 724.278 828.909 751.601 796.824 771.444L795.292 772.38C763.048 791.913 725.818 801.679 683.6 801.679V800.152C726.239 800.152 763.695 790.135 796.02 770.145L797.531 769.201C829.139 749.276 853.534 721.933 870.723 687.135L870.729 687.122L871.561 685.462C888.625 651.071 897.307 612.457 897.578 569.588L897.584 567.511L897.318 0.0012207H1244.55L1244.81 991.056H897.584V826.671C862.268 880.791 813.018 923.094 749.885 953.588L749.886 953.589C687.034 984.155 615.605 999.419 535.636 999.419C457.812 999.419 389.165 984.584 329.734 954.869L329.722 954.863C271.665 925.199 226.702 885.287 194.886 835.119L193.381 832.721C161.488 781.434 145.544 724.541 145.544 662.079L145.365 0.0012207H493.239L493.418 586.168C493.418 626.28 501.097 662.505 516.427 694.87L517.15 696.363C532.442 727.59 554.321 752.612 582.798 771.457C611.686 790.574 645.268 800.152 683.6 800.152V801.679L681.794 801.673C644.544 801.381 611.721 792.032 583.326 773.628L581.956 772.731C552.792 753.431 530.49 727.697 515.05 695.531C500.093 663.955 492.381 628.757 491.913 589.936L491.891 586.168Z" fill="black"/>
<path d="M557.023 993.389C486.687 993.389 424.071 979.021 369.174 950.287C314.277 921.552 271.604 882.524 241.153 833.202C211.132 783.452 196.121 728.985 196.121 669.799V1.39087H448.946V602.894C448.946 643.638 457.952 680.95 475.965 714.832C493.978 748.284 519.067 775.089 551.233 795.247C583.399 814.975 619.64 824.839 659.954 824.839C704.987 824.839 745.73 813.903 782.185 792.03C818.64 770.157 847.375 740.35 868.39 702.609C889.405 664.438 899.912 621.979 899.912 575.232V1.39087H950.734V639.563C950.734 706.04 933.794 766.297 899.912 820.336C866.031 873.946 819.068 916.191 759.025 947.07C699.411 977.949 632.077 993.389 557.023 993.389ZM899.912 989.529V1.39087H1152.74V989.529H899.912Z" fill="#FF4B00"/>
<path d="M449.052 603.03V1.52705H196.228V669.935L196.239 672.706C196.7 730.821 211.707 784.366 241.26 833.339C271.71 882.66 314.385 921.687 369.282 950.422C423.32 978.708 484.839 993.071 553.838 993.513L557.13 993.524C632.184 993.524 699.519 978.085 759.133 947.205C818.237 916.809 864.667 875.398 898.421 822.976L900.02 820.472V989.664H1152.84V1.52705H900.02V575.367C900.02 622.115 889.512 664.574 868.497 702.745L867.506 704.507C846.581 741.415 818.177 770.634 782.292 792.165L780.58 793.183C744.563 814.378 704.389 824.974 660.061 824.974V823.447C704.834 823.447 745.303 812.578 781.506 790.856C817.728 769.123 846.275 739.513 867.163 702.002C887.716 664.668 898.164 623.192 898.485 577.544L898.492 575.367V0H1154.37V991.192H898.492V825.669C864.687 877.448 818.455 918.414 759.831 948.564L759.829 948.562C699.975 979.565 632.397 995.051 557.13 995.051C487.683 995.051 425.682 981.085 371.163 953.117L368.573 951.775C313.451 922.922 270.565 883.71 239.961 834.139L239.953 834.128C209.786 784.135 194.701 729.393 194.701 669.935V0H450.579V603.03C450.579 643.536 459.53 680.598 477.416 714.244L478.26 715.796C496.081 748.289 520.702 774.377 552.138 794.08L553.637 794.991C585.172 813.955 620.634 823.447 660.061 823.447V824.974L658.174 824.968C618.615 824.665 583.004 814.802 551.341 795.382C519.175 775.224 494.085 748.419 476.072 714.967C458.341 681.615 449.337 644.938 449.059 604.937L449.052 603.03Z" fill="black"/>
<path d="M578.184 989.529C515.568 989.529 458.741 975.591 407.704 947.713C357.097 919.836 317.425 882.095 288.69 834.489C259.955 786.455 245.588 733.917 245.588 676.876V1.39087H406.418V618.977C406.418 660.579 416.711 698.963 437.297 734.131C457.883 768.871 485.76 796.533 520.928 817.12C556.097 837.706 594.481 847.999 636.083 847.999C684.117 847.999 728.292 836.205 768.606 812.616C808.921 789.028 840.873 757.076 864.461 716.762C888.478 676.018 900.487 631.629 900.487 583.595V1.39087H951.309V636.99C951.309 701.322 935.012 760.507 902.417 814.546C870.251 868.156 825.647 910.83 768.606 942.567C711.994 973.875 648.52 989.529 578.184 989.529ZM900.487 989.529V1.39087H1061.96V989.529H900.487Z" fill="#008000"/>
<path d="M406.415 618.977L406.194 1.52827H245.365L245.586 676.875L245.596 679.546C246.038 735.557 260.402 787.204 288.688 834.488C317.422 882.094 357.094 919.835 407.702 947.712C457.941 975.154 513.791 989.089 575.251 989.518L578.181 989.529C647.418 989.529 710.006 974.36 765.945 944.023L768.603 942.566C824.514 911.458 868.473 869.841 900.485 817.719V989.529H1061.96L1062.06 1.52827H900.59L900.485 583.594C900.485 631.628 888.476 676.017 864.459 716.761L863.346 718.646C839.869 758.073 808.288 789.396 768.603 812.616L766.711 813.713C726.908 836.57 683.363 847.999 636.08 847.999V846.472C683.851 846.472 727.759 834.745 767.832 811.298C807.921 787.842 839.684 756.078 863.14 715.99L863.143 715.985L864.253 714.084C887.022 674.736 898.587 631.994 898.949 585.831L898.958 583.594L899.063 0.0012207H1063.59L1063.48 991.056H898.958V823.05C867.059 873.291 823.847 913.577 769.346 943.9L769.343 943.902C712.485 975.346 648.753 991.056 578.181 991.056C515.329 991.056 458.248 977.062 406.97 949.053L406.965 949.05C356.132 921.048 316.26 883.122 287.381 835.277L287.377 835.273C258.497 786.996 244.059 734.187 244.059 676.875L243.838 0.0012207H407.721L407.942 618.977C407.942 660.31 418.165 698.425 438.608 733.352L439.572 734.964C459.928 768.723 487.296 795.664 521.697 815.801L523.337 816.753C557.818 836.565 595.39 846.472 636.08 846.472V847.999L634.132 847.992C593.928 847.68 556.743 837.708 522.577 818.077L520.926 817.119C486.307 796.855 458.754 769.732 438.265 735.753L437.295 734.131C417.03 699.512 406.739 661.777 406.423 620.925L406.415 618.977Z" fill="black"/>
<path d="M574.007 988.886C511.39 988.886 454.349 974.947 402.884 947.07C351.418 918.764 310.889 880.379 281.296 831.916C252.133 783.452 237.551 730.057 237.551 671.729V0.747314H358.495V631.2C358.495 675.804 369.86 717.405 392.591 756.004C415.75 794.174 446.629 824.625 485.229 847.355C524.257 869.657 566.716 880.808 612.606 880.808C664.071 880.808 711.677 867.942 755.423 842.209C799.597 816.047 834.765 781.522 860.927 738.634C887.089 695.318 900.169 649.213 900.169 600.321V0.747314H947.775V631.844C947.775 696.175 931.263 755.79 898.24 810.686C865.645 865.154 820.827 908.471 763.786 940.637C706.745 972.803 643.485 988.886 574.007 988.886ZM900.169 989.529V0.747314H1021.76V989.529H900.169Z" fill="#FDC800"/>
<path d="M358.497 631.2L358.405 1.52827H237.461L237.553 671.729L237.564 674.46C238.012 731.724 252.591 784.21 281.299 831.916C310.892 880.379 351.421 918.763 402.886 947.069C453.547 974.511 509.612 988.447 571.078 988.875L574.01 988.886C642.403 988.886 704.77 973.301 761.111 942.132L763.789 940.636C820.83 908.47 865.648 865.154 898.243 810.686C898.893 809.605 899.535 808.52 900.172 807.435V989.529H1021.76V1.52827H900.172V600.32C900.172 649.212 887.091 695.318 860.93 738.634C834.768 781.522 799.6 816.047 755.426 842.208C711.68 867.941 664.074 880.808 612.608 880.808V879.281C663.005 879.281 709.664 866.882 752.609 842.083L754.651 840.892C798.613 814.855 833.599 780.508 859.626 737.84C885.241 695.427 898.236 650.354 898.636 602.597L898.645 600.32V0.0012207H1023.29V991.056H898.645V812.974C866.502 866.118 822.685 908.613 767.215 940.445L764.539 941.966C707.255 974.269 643.734 990.413 574.01 990.413C511.158 990.413 453.864 976.418 402.16 948.411L402.151 948.407C350.461 919.977 309.732 881.409 279.996 832.711L279.991 832.703C250.68 783.994 236.026 730.325 236.026 671.729L235.934 0.0012207H359.932L360.024 631.2C360.024 675.522 371.312 716.851 393.898 755.211L394.984 756.984C417.885 794.103 448.214 823.78 485.988 846.029C524.78 868.196 566.978 879.281 612.608 879.281V880.808L610.461 880.799C565.393 880.456 523.65 869.308 485.232 847.355C446.633 824.624 415.753 794.173 392.593 756.003C370.218 718.007 358.856 677.103 358.506 633.289L358.497 631.2Z" fill="black"/>
<path d="M571.552 988.242C508.078 988.242 450.179 974.089 397.856 945.783C345.961 917.477 305.003 878.878 274.982 829.986C244.96 780.664 229.949 726.411 229.949 667.226V0.104004H311.007V642.78C311.007 691.243 323.659 736.276 348.963 777.877C374.267 819.049 408.363 852.073 451.251 876.948C494.139 901.823 540.243 914.26 589.565 914.26C644.89 914.26 696.356 900.108 743.961 871.802C791.996 843.495 830.166 806.397 858.472 760.507C886.778 714.188 900.931 666.154 900.931 616.404V0.104004H945.32V627.34C945.32 691.672 928.808 751.501 895.785 806.826C862.761 861.723 817.514 905.683 760.044 938.707C703.003 971.73 640.172 988.242 571.552 988.242ZM900.931 989.529V0.104004H982.633V989.529H900.931Z" fill="#AAAAAA"/>
<path d="M311.011 642.779L310.883 1.52705H229.824L229.952 667.226L229.964 669.996C230.426 728.105 245.433 781.436 274.985 829.986C305.007 878.878 345.965 917.477 397.859 945.783C449.365 973.647 506.274 987.796 568.585 988.231L571.555 988.242C640.176 988.242 703.007 971.73 760.048 938.707C816.619 906.199 861.347 863.094 894.231 809.392L895.788 806.826C897.552 803.871 899.265 800.902 900.934 797.921L900.963 989.529H982.664L982.66 1.52705H900.958L900.934 616.404C900.934 666.154 886.781 714.188 858.475 760.507C830.169 806.397 791.999 843.495 743.964 871.801C696.359 900.107 644.893 914.26 589.568 914.26V912.733C644.619 912.733 695.815 898.655 743.184 870.489L743.189 870.486L745.424 869.159C792.202 841.146 829.445 804.664 857.176 759.706C884.908 714.326 898.964 667.337 899.397 618.719L899.407 616.404L899.431 0H984.187L984.191 991.056H899.436L899.407 803.683C898.646 804.994 897.878 806.303 897.099 807.608L897.097 807.613C863.935 862.74 818.495 906.882 760.808 940.031C703.526 973.193 640.431 989.769 571.555 989.769C507.845 989.769 449.694 975.561 397.133 947.126L397.128 947.123C345.007 918.694 303.849 879.911 273.683 830.784L273.68 830.78C243.509 781.213 228.425 726.684 228.425 667.226L228.297 0H312.41L312.538 642.779C312.538 690.959 325.112 735.716 350.269 777.078L351.454 778.991C376.498 819.053 410.012 851.262 452.02 875.626L454.023 876.778C496.111 900.751 541.284 912.733 589.568 912.733V914.26L587.258 914.251C539.576 913.875 494.912 901.826 453.267 878.105L451.255 876.948C408.367 852.073 374.271 819.049 348.967 777.877C324.058 736.926 311.409 692.65 311.02 645.049L311.011 642.779Z" fill="black"/>
<path d="M564.73 987.599C501.256 987.599 443.143 973.446 390.39 945.14C337.638 916.405 295.823 877.163 264.943 827.413C234.493 777.663 219.268 722.552 219.268 662.08L219.268 1.52787H260.44V655.003C260.44 706.469 274.164 754.718 301.612 799.75C329.49 844.353 366.588 880.165 412.907 907.184C459.654 933.775 509.833 947.07 563.443 947.07C622.2 947.07 677.311 931.845 728.776 901.394C780.242 870.515 821.2 830.844 851.65 782.38C882.53 733.488 897.969 683.738 897.969 633.13V0.988037H939.142V622.194C939.142 686.526 922.415 746.783 888.963 802.966C855.51 858.721 810.049 903.539 752.579 937.42C695.109 970.873 632.493 987.599 564.73 987.599ZM897.969 989.529V0.988037H939.785V989.529H897.969Z" fill="white"/>
<path d="M260.303 658.057V1.52705H219.131V665.133L219.141 667.964C219.609 727.326 234.832 781.494 264.806 830.466C295.686 880.216 337.501 919.459 390.253 948.194C442.181 976.058 499.304 990.207 561.621 990.643L564.593 990.653C631.297 990.653 693.015 974.445 749.745 942.029L752.443 940.474C809.014 907.122 853.949 863.172 887.248 808.625L888.826 806.02C891.976 800.729 894.978 795.401 897.832 790.037L898.082 990.516H939.898L939.584 1.52705H897.767L897.832 636.184C897.832 686.791 882.392 736.541 851.513 785.433C821.063 833.897 780.105 873.569 728.639 904.448L726.225 905.865C675.451 935.371 621.145 950.124 563.306 950.124V948.597C621.781 948.597 676.621 933.449 727.853 903.139L730.25 901.691C780.396 871.14 820.377 832.118 850.22 784.622L850.222 784.619L851.652 782.336C880.972 735.149 895.83 687.224 896.294 638.54L896.305 636.184L896.24 0H941.111L941.426 992.043H896.555L896.305 796.054C894.315 799.653 892.261 803.236 890.138 806.802L890.135 806.806C856.548 862.784 810.901 907.782 753.218 941.789L753.211 941.794C695.503 975.385 632.62 992.18 564.593 992.18C500.883 992.18 442.519 977.971 389.531 949.539L389.523 949.535C336.545 920.677 294.531 881.252 263.509 831.272L263.503 831.264C232.9 781.265 217.604 725.876 217.604 665.133V0H261.83V658.057C261.83 709.23 275.471 757.199 302.771 801.994L304.077 804.068C331.669 847.495 368.15 882.442 413.539 908.919C460.053 935.374 509.967 948.597 563.306 948.597V950.124L560.796 950.115C508.129 949.706 458.787 936.414 412.769 910.238C366.45 883.219 329.352 847.407 301.475 802.804C274.456 758.475 260.735 711.03 260.313 660.467L260.303 658.057Z" fill="black"/>
</svg>
