<svg width="740" height="744" viewBox="0 0 740 744" fill="none" xmlns="http://www.w3.org/2000/svg">
<rect width="740" height="744" rx="8.01598" fill="#FDC800"/>
<path d="M558.922 684.961H519.41L640.297 402.206H679.809L558.922 684.961ZM576.696 571.712L555.691 614.75L466.531 402.206H506.19L576.696 571.712Z" fill="#02903B"/>
<path d="M361.251 427.324C349.5 427.324 339.316 430.555 330.699 437.018C322.18 443.481 315.423 452.147 310.429 463.017C305.533 473.886 302.35 486.029 300.881 499.445H422.649C421.083 486.127 417.704 474.033 412.514 463.164C407.422 452.196 400.519 443.481 391.803 437.018C383.186 430.555 373.002 427.324 361.251 427.324ZM262.838 515.749C262.838 493.716 266.51 473.935 273.854 456.407C281.297 438.781 292.46 424.876 307.344 414.692C322.327 404.41 340.638 399.269 362.279 399.269C383.921 399.269 402.086 404.41 416.774 414.692C431.561 424.876 442.528 438.732 449.676 456.26C456.923 473.789 460.546 493.618 460.546 515.749C460.546 521.82 460.35 527.255 459.958 532.053H422.649H300.881C302.35 545.371 305.533 557.464 310.429 568.334C315.423 579.106 322.18 587.723 330.699 594.186C339.316 600.649 349.5 603.88 361.251 603.88C370.456 603.88 378.731 601.726 386.075 597.417C393.517 593.109 399.833 587.331 405.023 580.085C410.311 572.74 414.473 564.417 417.508 555.114H456.286C452.565 570.488 446.641 583.953 438.513 595.508C430.483 606.965 420.054 615.925 407.226 622.388C394.398 628.851 379.416 632.082 362.279 632.082C340.638 632.082 322.327 626.99 307.344 616.806C292.46 606.524 281.297 592.619 273.854 575.091C266.51 557.464 262.838 537.684 262.838 515.749Z" fill="#02903B"/>
<path d="M160.458 402.205C174.755 402.205 187.681 405.388 199.236 411.753C210.889 418.118 219.996 426.784 226.557 437.752C233.117 448.621 236.398 460.568 236.398 473.592V627.822H199.676V486.812C199.676 477.313 197.326 468.598 192.626 460.666C187.926 452.636 181.561 446.271 173.531 441.571C165.501 436.87 156.737 434.52 147.238 434.52C136.271 434.52 126.185 437.213 116.98 442.599C107.775 447.985 100.431 455.329 94.947 464.632C89.5612 473.837 86.8683 483.923 86.8683 494.89V627.822H75.2643V482.699C75.2643 468.01 78.9365 454.546 86.2808 442.305C93.723 429.967 103.907 420.223 116.833 413.075C129.857 405.829 144.399 402.205 160.458 402.205ZM86.8683 327V627.822H50V327H86.8683Z" fill="#02903B"/>
<rect opacity="0.5" x="461.746" y="319" width="6" height="389" fill="#02903B"/>
<line x1="682.912" y1="320" x2="682.912" y2="708.205" stroke="#02903B"/>
<line x1="31" y1="628.48" x2="700.016" y2="628.48" stroke="#02903B"/>
<line x1="31" y1="402.606" x2="700.016" y2="402.606" stroke="#02903B"/>
<line x1="31" y1="327.184" x2="700.016" y2="327.184" stroke="#02903B"/>
<line x1="31" y1="698.901" x2="700.016" y2="698.901" stroke="#02903B"/>
<line x1="49.1035" y1="320" x2="49.1035" y2="708.205" stroke="#02903B"/>
<line x1="467.711" y1="320" x2="467.711" y2="708.205" stroke="#02903B" stroke-dasharray="7.92 7.92"/>
<line x1="461.551" y1="320" x2="461.551" y2="708.205" stroke="#02903B" stroke-dasharray="7.92 7.92"/>
</svg>
