<svg width="433" height="677" viewBox="0 0 433 677" fill="none" xmlns="http://www.w3.org/2000/svg">
<path d="M384 241C384 337.098 306.098 415 210 415C113.902 415 36 337.098 36 241" stroke="#FF4B00" stroke-width="50"/>
<path d="M384 241C384 337.098 306.098 415 210 415" stroke="#FFBFE1" stroke-width="50"/>
<path d="M215.5 543.07L304.062 389.676H215.5H126.938L215.5 543.07Z" fill="#FF4B00"/>
<path d="M215.5 543.07L126.938 389.676H215.5V543.07Z" fill="#FFBFE1"/>
<path d="M242.016 572.322C242.016 557.687 230.151 545.822 215.516 545.822C200.88 545.822 189.016 557.687 189.016 572.322V676.822H129.016V572.322C129.016 524.55 167.743 485.822 215.516 485.822C263.288 485.822 302.016 524.55 302.016 572.322V676.822H242.016V572.322Z" fill="#FF4B00"/>
<path d="M215.514 545.822C230.149 545.822 242.014 557.687 242.014 572.322V676.822H302.014V572.322C302.014 524.55 263.286 485.822 215.514 485.822V545.822Z" fill="#FFBFE1"/>
<circle cx="215.436" cy="331.698" r="58.436" fill="#014ADD"/>
<circle cx="45.1256" cy="147.876" r="45.1256" transform="rotate(-90 45.1256 147.876)" fill="#02903B"/>
<circle cx="216.126" cy="45.1264" r="45.1256" transform="rotate(-90 216.126 45.1264)" fill="#02903B"/>
<circle cx="387.126" cy="147.874" r="45.1256" transform="rotate(-90 387.126 147.874)" fill="#02903B"/>
<path d="M215.5 199.893L280.446 312.382H247.973H215.5H183.028H150.555L215.5 199.893Z" fill="#FF4B00"/>
<path d="M150.555 312.382L215.5 199.893L247.973 312.382H215.5V199.893L183.028 312.382H150.555Z" fill="#FFBFE1"/>
</svg>
