<svg width="740" height="744" viewBox="0 0 740 744" fill="none" xmlns="http://www.w3.org/2000/svg">
<rect width="740" height="744" rx="8.01584" fill="#02903B"/>
<rect opacity="0.5" x="343.5" y="318.5" width="32" height="388" fill="#FDC800" stroke="#FDC800"/>
<line x1="686.912" y1="319" x2="686.912" y2="707.205" stroke="#FDC800"/>
<line x1="35" y1="627.48" x2="704.016" y2="627.48" stroke="#FDC800"/>
<line x1="35" y1="401.606" x2="704.016" y2="401.606" stroke="#FDC800"/>
<line x1="35" y1="326.184" x2="704.016" y2="326.184" stroke="#FDC800"/>
<line x1="35" y1="697.901" x2="704.016" y2="697.901" stroke="#FDC800"/>
<line x1="53.1035" y1="319" x2="53.1035" y2="707.205" stroke="#FDC800"/>
<line x1="376.5" y1="319.103" x2="376.5" y2="707.103" stroke="#FDC800" stroke-dasharray="7.92 7.92"/>
<line x1="342.5" y1="319.103" x2="342.5" y2="707.103" stroke="#FDC800" stroke-dasharray="7.92 7.92"/>
<path d="M304.76 585.935C300.54 594.766 295.879 601.978 290.777 607.571C285.773 613.164 280.13 617.58 273.851 620.818C267.669 624.056 260.358 626.608 251.92 628.472C237.79 631.514 223.954 631.17 210.413 627.442C196.872 623.811 185.293 617.433 175.677 608.307C166.159 599.182 160.076 588.339 157.426 575.779C154.679 563.317 155.66 551.052 160.37 538.983C165.08 526.815 172.734 516.365 183.331 507.632C193.928 498.801 206.292 492.864 220.422 489.822C230.529 487.369 243.775 485.799 260.162 485.112C276.549 484.426 291.415 484.671 304.76 485.848V478.489C304.76 468.186 303.435 459.109 300.786 451.26C298.136 443.41 293.132 436.982 285.773 431.978C278.511 426.974 268.405 424.472 255.452 424.472C239.654 424.374 228.027 428.004 220.569 435.363C213.112 442.723 208.598 452.437 207.028 464.506H169.495C172.145 443.704 179.995 427.563 193.045 416.082C206.194 404.503 226.996 398.714 255.452 398.714C282.535 398.714 302.454 402.688 315.21 410.636C327.966 418.486 335.718 427.808 338.465 438.602C341.311 449.395 342.685 463.084 342.587 479.667V485.701V627H304.76V585.935ZM262.37 595.061C267.178 594.177 271.888 592.215 276.5 589.173C281.112 586.033 285.478 582.059 289.599 577.251C292.739 573.62 295.242 569.597 297.106 565.182C299.068 560.766 300.442 556.154 301.227 551.346C302.11 546.44 302.552 541.387 302.552 536.186V514.991C292.641 514.304 282.044 514.059 270.76 514.255C259.573 514.452 250.595 515.237 243.825 516.61C233.227 518.573 224.396 521.615 217.331 525.736C210.266 529.857 205.164 535.45 202.024 542.515C198.884 549.482 198.246 558.117 200.11 568.42C201.975 575.877 205.9 581.961 211.885 586.671C217.871 591.283 225.23 594.325 233.963 595.797C242.794 597.17 252.263 596.925 262.37 595.061ZM414.45 325.562V626.853H376.918V325.562H414.45ZM478.035 601.095C492.361 601.095 504.283 597.416 513.801 590.056C523.319 582.599 530.286 572.541 534.701 559.883C539.215 547.127 541.472 532.605 541.472 516.316C541.472 499.929 539.215 485.161 534.701 472.013C530.188 458.864 523.172 448.414 513.654 440.662C504.234 432.91 492.361 429.034 478.035 429.034C464.395 429.034 452.768 432.959 443.152 440.809C433.634 448.561 426.47 459.06 421.662 472.307C416.854 485.554 414.45 500.224 414.45 516.316C414.45 532.31 416.854 546.734 421.662 559.589C426.47 572.345 433.634 582.452 443.152 589.909C452.768 597.366 464.395 601.095 478.035 601.095ZM489.662 400.922C510.17 400.922 527.489 405.975 541.619 416.082C555.749 426.091 566.297 439.632 573.264 456.705C580.329 473.779 583.862 492.815 583.862 513.814C583.862 535.597 580.329 555.222 573.264 572.688C566.297 590.056 555.749 603.843 541.619 614.048C527.489 624.154 510.17 629.208 489.662 629.208C468.468 629.208 450.658 624.154 436.234 614.048C421.81 603.843 411.065 590.056 404 572.688C396.935 555.32 393.403 535.695 393.403 513.814C393.403 492.03 396.935 472.651 404 455.675C411.065 438.7 421.81 425.355 436.234 415.64C450.658 405.828 468.468 400.922 489.662 400.922Z" fill="#FDC800"/>
</svg>
