<svg width="836" height="164" viewBox="0 0 836 164" fill="none" xmlns="http://www.w3.org/2000/svg">
<path d="M793.034 145.617H766.597L808.989 47.1797H835.426L793.034 145.617ZM794.67 104.657L781.375 127.771L742 47.1797H768.489L794.67 104.657Z" fill="#FFBFE1"/>
<path d="M699.82 121.841C698.115 124.909 696.257 127.415 694.246 129.358C692.268 131.301 690.053 132.835 687.598 133.96C685.143 135.085 682.246 135.972 678.905 136.619C673.075 137.71 667.536 137.727 662.286 136.67C657.07 135.648 652.604 133.568 648.888 130.432C645.172 127.295 642.734 123.256 641.575 118.312C640.553 113.301 640.893 108.682 642.598 104.455C644.303 100.193 647.2 96.6648 651.291 93.8693C655.382 91.0398 660.428 89.1989 666.428 88.3466C671.303 87.6307 676.928 87.2727 683.303 87.2727C689.678 87.2727 695.183 87.4943 699.82 87.9375V84.5114C699.82 81.3409 699.376 78.6477 698.49 76.4318C697.604 74.1818 696.138 72.4091 694.092 71.1136C692.047 69.8182 689.354 69.1705 686.013 69.1705C681.649 69.1364 678.411 70.2102 676.297 72.392C674.183 74.5739 672.905 77.642 672.462 81.5966H645.206C645.888 73.7216 649.314 67.6534 655.484 63.392C661.689 59.1307 671.439 57 684.734 57C697.143 57 706.314 58.4318 712.246 61.2955C718.178 64.125 721.825 67.4318 723.189 71.2159C724.553 74.9659 725.2 79.5341 725.132 84.9205V87.017V136.108H699.82V121.841ZM687.342 120.665C688.706 120.426 690.036 119.881 691.331 119.028C692.626 118.176 693.854 117.085 695.013 115.756C695.899 114.767 696.615 113.659 697.161 112.432C697.706 111.205 698.098 109.926 698.337 108.597C698.575 107.267 698.695 105.886 698.695 104.455V98.5739C695.865 98.4034 692.865 98.3523 689.695 98.4205C686.558 98.4545 684.035 98.6591 682.126 99.0341C679.16 99.5455 676.672 100.381 674.661 101.54C672.683 102.699 671.251 104.25 670.365 106.193C669.479 108.102 669.308 110.472 669.854 113.301C670.331 115.381 671.422 117.068 673.126 118.364C674.831 119.625 676.91 120.46 679.365 120.869C681.854 121.244 684.513 121.176 687.342 120.665Z" fill="#FFBFE1"/>
<path d="M611.46 0V104.727H584V0H611.46Z" fill="#FFBFE1"/>
<path d="M469 58.8182H496.409V163.494H469V58.8182ZM514.153 75.2841C510.506 75.2841 507.403 76.2557 504.847 78.1989C502.29 80.142 500.364 82.7841 499.068 86.125C497.807 89.4659 497.176 93.1989 497.176 97.3239C497.176 101.517 497.807 105.335 499.068 108.778C500.364 112.188 502.29 114.915 504.847 116.96C507.403 118.972 510.506 119.977 514.153 119.977C517.972 119.977 521.142 118.972 523.665 116.96C526.222 114.949 528.114 112.239 529.341 108.83C530.568 105.386 531.182 101.551 531.182 97.3239C531.182 93.0966 530.568 89.3295 529.341 86.0227C528.148 82.7159 526.273 80.108 523.716 78.1989C521.159 76.2557 517.972 75.2841 514.153 75.2841ZM523.818 137.364C515.943 137.364 509.295 135.659 503.875 132.25C498.489 128.807 494.466 124.119 491.807 118.188C489.182 112.256 487.869 105.523 487.869 97.9886C487.869 90.4205 489.199 83.6364 491.858 77.6364C494.517 71.6023 498.54 66.8295 503.926 63.3182C509.313 59.7727 515.943 58 523.818 58C531.591 58 538.136 59.7557 543.455 63.267C548.773 66.7443 552.744 71.5 555.369 77.5341C557.994 83.5682 559.307 90.3523 559.307 97.8864C559.307 105.284 557.994 111.966 555.369 117.932C552.744 123.864 548.773 128.585 543.455 132.097C538.136 135.608 531.591 137.364 523.818 137.364Z" fill="#FFBFE1"/>
<path d="M351.119 125.239C344.744 127.148 337.108 128.102 328.21 128.102C319.074 128.102 311.42 127.114 305.25 125.136C299.114 123.261 294.307 120.33 290.83 116.341C287.455 112.386 285.511 107.392 285 101.358H310.619C310.96 104.256 311.812 106.625 313.176 108.466C314.608 110.341 316.551 111.636 319.006 112.352C321.563 113.17 324.852 113.58 328.875 113.58C332.625 113.58 335.642 113.256 337.926 112.608C340.312 111.96 342.085 111.006 343.244 109.744C343.824 109.131 344.267 108.432 344.574 107.648C344.881 106.83 345.034 105.977 345.034 105.091C345.034 103.455 344.591 102.023 343.705 100.795C342.818 99.6705 341.352 98.733 339.307 97.983C337.159 97.1648 334.347 96.5 330.869 95.9886L317.472 94.3011C310.892 93.4148 305.335 92.0171 300.801 90.108C296.233 88.0625 292.773 85.4546 290.42 82.2841C288.034 79.0455 286.841 75.1932 286.841 70.7273C286.841 65.6818 288.392 61.4205 291.494 57.9432C294.631 54.3977 299.182 51.6875 305.148 49.8125C311.045 47.9375 318.239 47 326.727 47C336.375 47 344.216 48.0739 350.25 50.2216C356.352 52.4034 360.869 55.4034 363.801 59.2216C366.665 63.0398 368.233 67.625 368.506 72.9773H344.114C343.875 69.9773 343.091 67.6761 341.761 66.0739C340.466 64.3011 338.591 63.0909 336.136 62.4432C333.614 61.7273 330.477 61.3693 326.727 61.3693C323.625 61.3693 320.966 61.6591 318.75 62.2386C316.636 62.8523 315.034 63.7557 313.943 64.9489C312.852 66.2784 312.307 67.7614 312.307 69.3977C312.307 71.1705 312.818 72.6023 313.841 73.6932C314.864 74.8864 316.398 75.8239 318.443 76.5057C320.591 77.2216 323.369 77.8011 326.778 78.2443L338.438 79.7784C345.869 80.6989 351.989 82.1818 356.795 84.2273C361.534 86.1705 365.08 88.7102 367.432 91.8466C369.75 94.9148 370.909 98.6989 370.909 103.199C370.909 108.517 369.222 113.034 365.847 116.75C362.472 120.5 357.563 123.33 351.119 125.239Z" fill="#FFBFE1"/>
<path d="M266.841 46.6307H247L250.426 7H275.534L266.841 46.6307Z" fill="#FFBFE1"/>
<path d="M206.648 149.608C202.659 149.608 199.114 148.636 196.011 146.693C192.909 144.716 190.523 142.159 188.852 139.023C187.182 135.886 186.347 132.631 186.347 129.256V85.5341H173V71.0625H186.347V58.3295L213.807 48V71.0625H231.142V85.5341H213.807V128.744C213.807 129.801 214.045 130.773 214.523 131.659C215 132.511 215.665 133.21 216.517 133.756C217.403 134.267 218.409 134.523 219.534 134.523H230.068V149.608H206.648Z" fill="#FFBFE1"/>
<path d="M102.415 36.1932C99.142 36.1932 96.3636 37.1477 94.0795 39.0568C91.8295 40.9659 90.0909 43.4886 88.8636 46.625C87.6364 49.7273 86.8523 53.1704 86.5114 56.9545H118.523C118.182 53.1704 117.381 49.7273 116.119 46.625C114.858 43.4886 113.085 40.9659 110.801 39.0568C108.517 37.1477 105.722 36.1932 102.415 36.1932ZM59 63.5511C59 55.8807 60.6193 48.9943 63.858 42.892C67.1307 36.7557 72.0398 31.9148 78.5852 28.3693C85.1648 24.7898 93.2273 23 102.773 23C112.318 23 120.33 24.7898 126.807 28.3693C133.318 31.9148 138.159 36.7386 141.33 42.8409C144.5 48.9432 146.085 55.8466 146.085 63.5511C146.051 65.2216 146 66.7727 145.932 68.2045H129.364H86.0511C86.358 72.1591 87.1421 75.7216 88.4034 78.892C89.6648 82.0284 91.4546 84.5341 93.7727 86.4091C96.125 88.2841 99.0057 89.2216 102.415 89.2216C105.04 89.2216 107.358 88.5909 109.369 87.3295C111.415 86.0341 113.085 84.3295 114.381 82.2159C115.71 80.1023 116.699 77.767 117.347 75.2102H144.858C143.426 81.2102 140.869 86.375 137.188 90.7045C133.54 95 128.801 98.3068 122.972 100.625C117.176 102.909 110.443 104.051 102.773 104.051C93.2273 104.051 85.1648 102.278 78.5852 98.733C72.0398 95.1534 67.1307 90.3125 63.858 84.2102C60.6193 78.0739 59 71.1875 59 63.5511Z" fill="#FFBFE1"/>
<path d="M27.4602 21V125.727H0V21H27.4602Z" fill="#FFBFE1"/>
</svg>
