<svg width="740" height="744" viewBox="0 0 740 744" fill="none" xmlns="http://www.w3.org/2000/svg">
<rect width="740" height="744" rx="8.01584" fill="#014ADD"/>
<path d="M366.654 378.775C385.139 378.775 400.512 374.3 412.77 365.349C425.029 356.204 434.077 343.848 439.915 328.281C445.947 312.52 448.963 294.715 448.963 274.868C448.963 254.631 445.947 236.535 439.915 220.579C434.077 204.429 424.932 191.586 412.478 182.052C400.22 172.517 384.945 167.75 366.654 167.75C348.947 167.75 333.867 172.517 321.413 182.052C309.155 191.586 299.912 204.526 293.685 220.871C287.653 237.216 284.637 255.312 284.637 275.16C284.637 294.813 287.653 312.52 293.685 328.281C299.912 343.848 309.155 356.204 321.413 365.349C333.867 374.3 348.947 378.775 366.654 378.775ZM647.729 445.906C647.729 494.358 638.681 537.069 620.585 574.039C602.489 611.01 572.912 640.198 531.855 661.602C490.993 683.201 437.677 694 371.908 694C323.262 694 281.135 688.065 245.526 676.196C210.112 664.521 180.243 645.646 155.921 619.572C131.792 593.498 113.501 559.446 101.048 517.416H294.853C296.41 532.982 300.204 546.117 306.236 556.819C312.463 567.521 321.122 575.596 332.213 581.044C343.304 586.687 357.12 589.509 373.659 589.509C395.647 589.509 412.673 584.644 424.737 574.915C436.996 565.381 445.266 553.316 449.546 538.723C454.022 524.129 456.26 507.589 456.26 489.104V427.518C437.969 449.117 415.884 465.851 390.004 477.721C364.125 489.59 334.061 495.525 299.815 495.525C254.282 495.525 215.949 485.699 184.816 466.046C153.683 446.393 130.43 419.735 115.058 386.072C99.686 352.409 92 314.466 92 272.241C92 230.211 99.686 192.559 115.058 159.286C130.43 125.817 153.586 99.4512 184.524 80.1875C215.658 60.7292 254.088 51 299.815 51C334.256 51 364.416 56.7402 390.296 68.2206C416.176 79.5064 438.163 95.7541 456.26 116.964V55.67H647.729V445.906Z" fill="#FF4B00"/>
<path d="M700 55.5L40 55.5001" stroke="#F5F5F5"/>
<path d="M700 517L40 517" stroke="#F5F5F5"/>
<path d="M700 496L40 496" stroke="#F5F5F5"/>
<path d="M700 694L40 694" stroke="#F5F5F5"/>
<path d="M93 702L93 42" stroke="#F5F5F5"/>
<path d="M648 702L648 42" stroke="#F5F5F5"/>
<circle cx="457.5" cy="55.5" r="9.5" fill="#F5F5F5"/>
<circle cx="647.5" cy="55.5" r="9.5" fill="#F5F5F5"/>
<circle cx="99.5" cy="517.5" r="9.5" fill="#F5F5F5"/>
<circle cx="295.5" cy="515.5" r="9.5" fill="#F5F5F5"/>
<circle cx="372.5" cy="693.5" r="9.5" fill="#F5F5F5"/>
<circle cx="372.5" cy="589.5" r="9.5" fill="#F5F5F5"/>
<circle cx="455.5" cy="429.5" r="9.5" fill="#F5F5F5"/>
<circle cx="449.5" cy="275.5" r="9.5" fill="#F5F5F5"/>
<circle cx="367.5" cy="167.5" r="9.5" fill="#F5F5F5"/>
<circle cx="367.5" cy="378.5" r="9.5" fill="#F5F5F5"/>
<circle cx="295.5" cy="48.5" r="9.5" fill="#F5F5F5"/>
<circle cx="92.5" cy="270.5" r="9.5" fill="#F5F5F5"/>
<circle cx="285.5" cy="275.5" r="9.5" fill="#F5F5F5"/>
<circle cx="648.5" cy="429.5" r="9.5" fill="#F5F5F5"/>
<path d="M142.211 517.211C142.211 490.032 120.178 468 93 468" stroke="#F5F5F5"/>
<path d="M137.755 467.087C136.945 467.087 136.263 467.269 135.71 467.634C135.156 467.998 134.744 468.479 134.474 469.075C134.209 469.667 134.076 470.309 134.076 471C134.076 471.748 134.223 472.439 134.516 473.074C134.81 473.704 135.234 474.208 135.788 474.587C136.346 474.965 137.002 475.155 137.755 475.155C138.503 475.155 139.154 474.965 139.708 474.587C140.267 474.208 140.693 473.704 140.987 473.074C141.285 472.439 141.434 471.748 141.434 471C141.434 470.313 141.299 469.672 141.029 469.075C140.759 468.479 140.347 467.998 139.793 467.634C139.244 467.269 138.565 467.087 137.755 467.087ZM137.755 475.986C136.799 475.986 135.975 475.77 135.283 475.339C134.592 474.909 134.067 474.326 133.707 473.592C133.347 472.854 133.167 472.03 133.167 471.121C133.167 470.212 133.347 469.388 133.707 468.649C134.067 467.911 134.592 467.328 135.283 466.902C135.975 466.471 136.799 466.256 137.755 466.256C138.522 466.256 139.206 466.398 139.808 466.682C140.409 466.961 140.906 467.352 141.299 467.854C141.692 468.351 141.974 468.929 142.144 469.587C142.499 470.699 142.677 472.08 142.677 473.727C142.677 475.295 142.523 476.627 142.215 477.726C141.907 478.824 141.394 479.677 140.674 480.283C139.954 480.889 139 481.192 137.812 481.192C136.567 481.192 135.579 480.863 134.85 480.205C134.126 479.546 133.612 478.595 133.309 477.349H134.254C134.523 478.325 134.947 479.073 135.525 479.594C136.107 480.11 136.87 480.368 137.812 480.368C138.73 480.368 139.483 480.11 140.07 479.594C140.657 479.078 141.086 478.363 141.356 477.449C141.626 476.53 141.761 475.446 141.761 474.196C141.761 473.997 141.758 473.817 141.754 473.656C141.749 473.491 141.744 473.313 141.739 473.124C141.574 473.678 141.316 474.17 140.965 474.601C140.615 475.027 140.167 475.366 139.623 475.616C139.083 475.863 138.46 475.986 137.755 475.986ZM148.969 480.354C150.357 480.354 151.363 479.769 151.988 478.599C152.613 477.43 152.925 475.804 152.925 473.72C152.925 471.608 152.622 469.975 152.016 468.82C151.41 467.664 150.395 467.087 148.969 467.087C147.54 467.087 146.522 467.664 145.915 468.82C145.309 469.975 145.006 471.608 145.006 473.72C145.006 475.804 145.319 477.43 145.944 478.599C146.569 479.769 147.577 480.354 148.969 480.354ZM148.969 466.256C150.158 466.256 151.11 466.561 151.825 467.172C152.544 467.778 153.056 468.63 153.359 469.729C153.666 470.827 153.82 472.158 153.82 473.72C153.82 476.088 153.439 477.925 152.677 479.232C151.915 480.534 150.679 481.185 148.969 481.185C147.26 481.185 146.022 480.534 145.255 479.232C144.493 477.925 144.112 476.088 144.112 473.72C144.112 472.158 144.265 470.827 144.573 469.729C144.881 468.63 145.392 467.778 146.107 467.172C146.822 466.561 147.776 466.256 148.969 466.256ZM159.049 472.399C158.486 472.399 157.972 472.262 157.508 471.987C157.044 471.713 156.675 471.346 156.4 470.886C156.126 470.422 155.988 469.909 155.988 469.345C155.988 468.782 156.126 468.268 156.4 467.804C156.675 467.34 157.044 466.971 157.508 466.696C157.972 466.421 158.486 466.284 159.049 466.284C159.613 466.284 160.127 466.421 160.591 466.696C161.055 466.971 161.424 467.34 161.699 467.804C161.973 468.268 162.11 468.782 162.11 469.345C162.11 469.909 161.973 470.422 161.699 470.886C161.424 471.346 161.055 471.713 160.591 471.987C160.127 472.262 159.613 472.399 159.049 472.399ZM159.049 471.625C159.471 471.625 159.854 471.523 160.2 471.32C160.546 471.111 160.82 470.834 161.024 470.489C161.227 470.143 161.329 469.759 161.329 469.338C161.329 468.921 161.227 468.54 161.024 468.195C160.82 467.849 160.546 467.574 160.2 467.371C159.854 467.162 159.471 467.058 159.049 467.058C158.628 467.058 158.244 467.162 157.899 467.371C157.553 467.574 157.279 467.849 157.075 468.195C156.871 468.54 156.77 468.921 156.77 469.338C156.77 469.759 156.871 470.143 157.075 470.489C157.279 470.834 157.553 471.111 157.899 471.32C158.244 471.523 158.628 471.625 159.049 471.625Z" fill="white"/>
</svg>
