<svg width="740" height="744" viewBox="0 0 740 744" fill="none" xmlns="http://www.w3.org/2000/svg">
<rect width="740" height="744" rx="8.01598" fill="#FFBFE1"/>
<path d="M115.209 115H114.447L105.732 91.7273H106.493L115.209 115ZM97.5497 115H96.7884L105.504 91.7273H106.266L97.5497 115ZM111.913 107.023V107.693H100.084V107.023H111.913Z" fill="#8159FB"/>
<path d="M244.092 116H242.558L233.842 92.7273H235.376L244.092 116ZM226.445 116H224.911L233.626 92.7273H235.161L226.445 116ZM240.683 107.648V108.943H228.376V107.648H240.683Z" fill="#8159FB"/>
<path d="M375.487 116H373.169L364.442 92.7273H366.76L375.487 116ZM357.839 116H355.521L364.249 92.7273H366.567L357.839 116ZM371.964 107.273V109.205H359.169V107.273H371.964Z" fill="#8159FB"/>
<path d="M510.371 116H507.28L498.553 92.7273H501.643L510.371 116ZM492.734 116H489.643L498.371 92.7273H501.462L492.734 116ZM506.734 106.898V109.455H493.462V106.898H506.734Z" fill="#8159FB"/>
<path d="M375.371 251H372.28L363.553 227.727H366.643L375.371 251ZM357.734 251H354.643L363.371 227.727H366.462L357.734 251ZM371.734 241.898V244.455H358.462V241.898H371.734Z" fill="#8159FB"/>
<path d="M244.371 386H241.28L232.553 362.727H235.643L244.371 386ZM226.734 386H223.643L232.371 362.727H235.462L226.734 386ZM240.734 376.898V379.455H227.462V376.898H240.734Z" fill="#8159FB"/>
<path d="M116.371 521H113.28L104.553 497.727H107.643L116.371 521ZM98.7344 521H95.6435L104.371 497.727H107.462L98.7344 521ZM112.734 511.898V514.455H99.4616V511.898H112.734Z" fill="#8159FB"/>
<path d="M649.315 116H644.668L635.895 92.7273H640.554L649.315 116ZM630.338 116H625.679L634.44 92.7273H639.099L630.338 116ZM644.588 106.466V109.966H630.736V106.466H644.588Z" fill="#8159FB"/>
<path d="M650.276 251H644.071L635.253 227.727H641.48L650.276 251ZM629.946 251H623.73L632.537 227.727H638.753L629.946 251ZM644.457 241.034V245.477H630.026V241.034H644.457Z" fill="#8159FB"/>
<path d="M513.276 386H507.071L498.253 362.727H504.48L513.276 386ZM492.946 386H486.73L495.537 362.727H501.753L492.946 386ZM507.457 376.034V380.477H493.026V376.034H507.457Z" fill="#8159FB"/>
<path d="M378.276 521H372.071L363.253 497.727H369.48L378.276 521ZM357.946 521H351.73L360.537 497.727H366.753L357.946 521ZM372.457 511.034V515.477H358.026V511.034H372.457Z" fill="#8159FB"/>
<path d="M247.276 656H241.071L232.253 632.727H238.48L247.276 656ZM226.946 656H220.73L229.537 632.727H235.753L226.946 656ZM241.457 646.034V650.477H227.026V646.034H241.457Z" fill="#8159FB"/>
<path d="M380.232 656H372.447L363.607 632.727H371.391L380.232 656ZM358.55 656H350.777L359.607 632.727H367.379L358.55 656ZM373.322 645.591V650.977H358.3V645.591H373.322Z" fill="#8159FB"/>
<path d="M515.232 521H507.447L498.607 497.727H506.391L515.232 521ZM493.55 521H485.777L494.607 497.727H502.379L493.55 521ZM508.322 510.591V515.977H493.3V510.591H508.322Z" fill="#8159FB"/>
<path d="M652.232 386H644.447L635.607 362.727H643.391L652.232 386ZM630.55 386H622.777L631.607 362.727H639.379L630.55 386ZM645.322 375.591V380.977H630.3V375.591H645.322Z" fill="#8159FB"/>
<path d="M653.192 521H643.851L634.964 497.727H644.317L653.192 521ZM630.158 521H620.828L629.703 497.727H639.033L630.158 521ZM645.192 510.159V516.489H629.589V510.159H645.192Z" fill="#8159FB"/>
<path d="M516.192 656H506.851L497.964 632.727H507.317L516.192 656ZM493.158 656H483.828L492.703 632.727H502.033L493.158 656ZM508.192 645.159V651.489H492.589V645.159H508.192Z" fill="#8159FB"/>
<path d="M654.636 656H643.739L634.807 632.727H645.727L654.636 656ZM630.261 656H619.364L628.273 632.727H639.17L630.261 656ZM645.545 644.727V652H629.364V644.727H645.545Z" fill="#8159FB"/>
<path d="M512.315 251H507.668L498.895 227.727H503.554L512.315 251ZM493.338 251H488.679L497.44 227.727H502.099L493.338 251ZM507.588 241.466V244.966H493.736V241.466H507.588Z" fill="#8159FB"/>
<path d="M377.315 386H372.668L363.895 362.727H368.554L377.315 386ZM358.338 386H353.679L362.44 362.727H367.099L358.338 386ZM372.588 376.466V379.966H358.736V376.466H372.588Z" fill="#8159FB"/>
<path d="M246.315 521H241.668L232.895 497.727H237.554L246.315 521ZM227.338 521H222.679L231.44 497.727H236.099L227.338 521ZM241.588 511.466V514.966H227.736V511.466H241.588Z" fill="#8159FB"/>
<path d="M117.315 656H112.668L103.895 632.727H108.554L117.315 656ZM98.3381 656H93.679L102.44 632.727H107.099L98.3381 656ZM112.588 646.466V649.966H98.7358V646.466H112.588Z" fill="#8159FB"/>
<path d="M244.487 251H242.169L233.442 227.727H235.76L244.487 251ZM226.839 251H224.521L233.249 227.727H235.567L226.839 251ZM240.964 242.273V244.205H228.169V242.273H240.964Z" fill="#8159FB"/>
<path d="M115.487 386H113.169L104.442 362.727H106.76L115.487 386ZM97.8395 386H95.5213L104.249 362.727H106.567L97.8395 386ZM111.964 377.273V379.205H99.169V377.273H111.964Z" fill="#8159FB"/>
<path d="M115.092 251H113.558L104.842 227.727H106.376L115.092 251ZM97.4446 251H95.9105L104.626 227.727H106.161L97.4446 251ZM111.683 242.648V243.943H99.3764V242.648H111.683Z" fill="#8159FB"/>
<path d="M169.696 572.897L169.597 705.499H46C41.8584 705.499 38.501 702.142 38.501 698V572.897H169.696ZM701.499 572.897V698C701.499 702.142 698.142 705.499 694 705.499H569.395V572.897H701.499ZM568.393 572.897V705.499H437.297V572.897H568.393ZM436.295 572.897V705.499H303.697V572.897H436.295ZM302.695 572.897V705.499H170.599L170.698 572.897H302.695ZM701.499 439.303V571.896H569.395V439.303H701.499ZM568.393 439.303V571.896H437.297V439.303H568.393ZM436.295 439.303V571.896H303.697V439.303H436.295ZM302.695 439.303V571.896H170.699L170.799 439.303H302.695ZM169.797 439.303L169.697 571.896H38.501V439.303H169.797ZM701.499 305.099V438.301H569.395V305.099H701.499ZM568.393 305.099V438.301H437.297V305.099H568.393ZM436.295 305.099V438.301H303.697V305.099H436.295ZM302.695 305.099V438.301H170.8L170.899 305.099H302.695ZM169.897 305.099L169.798 438.301H38.501V305.099H169.897ZM701.499 171.8V304.097H569.395V171.8H701.499ZM568.393 171.8V304.097H437.297V171.8H568.393ZM436.295 171.8V304.097H303.697V171.8H436.295ZM302.695 171.8V304.097H170.9L170.999 171.8H302.695ZM169.997 171.8L169.898 304.097H38.501V171.8H169.997ZM693.984 38.501C698.135 38.5011 701.499 41.8655 701.499 46.0156V170.798H569.395V38.501H693.984ZM568.393 38.501V170.798H437.297V38.501H568.393ZM436.295 38.501V170.798H303.697V38.501H436.295ZM302.695 38.501V170.798H171L171.1 38.501H302.695ZM46.0156 38.501H170.098L169.998 170.798H38.501V46.0156C38.5011 41.8655 41.8655 38.5011 46.0156 38.501Z" stroke="#014ADD" stroke-width="1.00198"/>
</svg>
