<svg width="741" height="745" viewBox="0 0 741 745" fill="none" xmlns="http://www.w3.org/2000/svg">
<rect x="0.982422" width="740.018" height="744.432" rx="8.01598" fill="#014ADD"/>
<rect x="39.2881" y="39.1475" width="663.407" height="666.518" rx="7.51498" stroke="#FFBFE1" stroke-width="1.002"/>
<path d="M66.0634 672.897H69.4493C70.1818 672.897 70.847 673.081 71.445 673.449C72.0429 673.817 72.5153 674.348 72.8621 675.041C73.2119 675.735 73.3868 676.551 73.3868 677.49C73.3868 678.429 73.2119 679.245 72.8621 679.938C72.5153 680.632 72.0429 681.163 71.445 681.53C70.847 681.898 70.1818 682.082 69.4493 682.082H66.0634V672.897ZM69.1847 681.32C69.7887 681.32 70.3343 681.185 70.8216 680.916C71.3089 680.647 71.6976 680.227 71.9876 679.656C72.2776 679.082 72.4226 678.36 72.4226 677.49C72.4226 676.623 72.2776 675.902 71.9876 675.328C71.7006 674.751 71.3134 674.328 70.8261 674.059C70.3388 673.787 69.7931 673.651 69.1892 673.651H66.9245V681.32H69.1847ZM77.0687 675.759C76.6561 675.759 76.2974 675.877 75.9924 676.113C75.6904 676.346 75.4572 676.663 75.2928 677.064C75.1284 677.464 75.0387 677.91 75.0237 678.4H79.1406C79.1107 677.904 79.0106 677.457 78.8402 677.059C78.6727 676.659 78.438 676.342 78.1361 676.108C77.8371 675.875 77.4813 675.759 77.0687 675.759ZM74.1403 678.66C74.1403 677.988 74.2494 677.384 74.4676 676.848C74.6889 676.31 75.0192 675.886 75.4587 675.575C75.9012 675.261 76.4439 675.104 77.0867 675.104C77.7295 675.104 78.2691 675.261 78.7056 675.575C79.1421 675.886 79.4665 676.309 79.6788 676.844C79.894 677.379 80.0017 677.985 80.0017 678.66C80.0017 678.843 79.9957 679.009 79.9837 679.158H78.876H75.0237C75.0656 679.63 75.1747 680.046 75.3511 680.405C75.5275 680.764 75.7607 681.043 76.0507 681.243C76.3437 681.444 76.6786 681.544 77.0553 681.544C77.3931 681.544 77.6876 681.472 77.9387 681.329C78.1899 681.182 78.3977 680.992 78.5621 680.759C78.7265 680.526 78.8596 680.263 78.9612 679.97H79.8447C79.7281 680.418 79.5502 680.811 79.311 681.149C79.0719 681.484 78.7654 681.746 78.3917 681.934C78.018 682.119 77.583 682.212 77.0867 682.212C76.4469 682.212 75.9057 682.057 75.4632 681.746C75.0207 681.432 74.6889 681.007 74.4676 680.472C74.2494 679.934 74.1403 679.33 74.1403 678.66ZM84.9931 681.997C84.5835 682.146 84.1051 682.221 83.558 682.221C82.9571 682.221 82.4503 682.133 82.0377 681.956C81.6311 681.789 81.3097 681.535 81.0735 681.194C80.8493 680.853 80.7237 680.438 80.6968 679.947H81.6117C81.6386 680.294 81.7253 680.581 81.8718 680.808C82.0213 681.039 82.232 681.208 82.5041 681.315C82.7941 681.429 83.1484 681.486 83.567 681.486C83.9586 681.486 84.2875 681.442 84.5536 681.356C84.8167 681.266 85.017 681.131 85.1545 680.952C85.2233 680.865 85.2741 680.767 85.307 680.656C85.3429 680.545 85.3608 680.423 85.3608 680.288C85.3608 680.064 85.3085 679.874 85.2039 679.719C85.0992 679.566 84.9303 679.439 84.6971 679.337C84.4609 679.23 84.144 679.143 83.7464 679.077L83.0288 678.956C82.5624 678.873 82.1737 678.753 81.8628 678.597C81.5519 678.436 81.3097 678.224 81.1363 677.961C80.9719 677.701 80.8896 677.382 80.8896 677.005C80.8896 676.611 80.9868 676.276 81.1811 676.001C81.3874 675.717 81.6759 675.5 82.0467 675.351C82.4174 675.195 82.8674 675.117 83.3966 675.117C84.0124 675.117 84.5162 675.204 84.9079 675.377C85.3085 675.554 85.606 675.801 85.8003 676.117C85.9976 676.422 86.1083 676.802 86.1322 677.257H85.2353C85.2143 676.931 85.1336 676.665 84.9931 676.458C84.8526 676.249 84.6537 676.101 84.3966 676.014C84.1305 675.916 83.7957 675.866 83.3921 675.866C83.0572 675.866 82.7687 675.91 82.5265 675.996C82.2874 676.083 82.108 676.207 81.9884 676.369C81.8598 676.542 81.7955 676.745 81.7955 676.979C81.7955 677.218 81.8538 677.414 81.9704 677.566C82.09 677.724 82.2575 677.847 82.4727 677.934C82.7089 678.032 82.9929 678.109 83.3248 678.162L84.0379 678.288C84.5431 678.375 84.9587 678.499 85.2846 678.66C85.6105 678.813 85.8586 679.019 86.029 679.279C86.1965 679.536 86.2802 679.85 86.2802 680.221C86.2802 680.654 86.1681 681.022 85.9438 681.324C85.7226 681.62 85.4057 681.844 84.9931 681.997ZM86.9787 678.66C86.9787 677.988 87.0983 677.384 87.3374 676.848C87.5766 676.31 87.9384 675.886 88.4227 675.575C88.91 675.261 89.5065 675.104 90.2121 675.104C90.825 675.104 91.3512 675.215 91.7907 675.436C92.2302 675.654 92.5785 675.965 92.8356 676.369C93.0927 676.772 93.2631 677.252 93.3469 677.808H92.4006C92.3229 677.378 92.1898 677.01 92.0015 676.705C91.8131 676.397 91.565 676.161 91.257 675.996C90.9521 675.829 90.5918 675.745 90.1762 675.745C89.6829 675.745 89.2673 675.874 88.9295 676.131C88.5916 676.385 88.339 676.732 88.1716 677.171C88.0071 677.611 87.9249 678.107 87.9249 678.66C87.9249 679.213 88.0071 679.711 88.1716 680.154C88.339 680.593 88.5916 680.941 88.9295 681.199C89.2673 681.456 89.6829 681.584 90.1762 681.584C90.5828 681.584 90.9386 681.505 91.2436 681.347C91.5485 681.185 91.7952 680.956 91.9835 680.66C92.1749 680.361 92.3109 680.003 92.3916 679.584H93.3424C93.2527 680.128 93.0778 680.598 92.8177 680.992C92.5576 681.384 92.2093 681.687 91.7727 681.903C91.3362 682.115 90.816 682.221 90.2121 682.221C89.5065 682.221 88.91 682.066 88.4227 681.755C87.9384 681.441 87.5766 681.015 87.3374 680.477C87.0983 679.938 86.9787 679.333 86.9787 678.66ZM96.9491 675.759C96.5366 675.759 96.1778 675.877 95.8728 676.113C95.5709 676.346 95.3377 676.663 95.1732 677.064C95.0088 677.464 94.9191 677.91 94.9041 678.4H99.021C98.9911 677.904 98.891 677.457 98.7206 677.059C98.5531 676.659 98.3185 676.342 98.0165 676.108C97.7175 675.875 97.3617 675.759 96.9491 675.759ZM94.0207 678.66C94.0207 677.988 94.1298 677.384 94.348 676.848C94.5693 676.31 94.8997 675.886 95.3392 675.575C95.7816 675.261 96.3243 675.104 96.9671 675.104C97.6099 675.104 98.1495 675.261 98.586 675.575C99.0225 675.886 99.3469 676.309 99.5592 676.844C99.7745 677.379 99.8821 677.985 99.8821 678.66C99.8821 678.843 99.8761 679.009 99.8642 679.158H98.7565H94.9041C94.946 679.63 95.0551 680.046 95.2315 680.405C95.4079 680.764 95.6411 681.043 95.9311 681.243C96.2241 681.444 96.559 681.544 96.9357 681.544C97.2735 681.544 97.568 681.472 97.8192 681.329C98.0703 681.182 98.2781 680.992 98.4425 680.759C98.607 680.526 98.74 680.263 98.8417 679.97H99.7251C99.6085 680.418 99.4306 680.811 99.1915 681.149C98.9523 681.484 98.6458 681.746 98.2721 681.934C97.8984 682.119 97.4634 682.212 96.9671 682.212C96.3273 682.212 95.7861 682.057 95.3436 681.746C94.9012 681.432 94.5693 681.007 94.348 680.472C94.1298 679.934 94.0207 679.33 94.0207 678.66ZM103.878 675.194C104.317 675.194 104.717 675.292 105.075 675.49C105.434 675.684 105.715 675.95 105.918 676.288C106.125 676.626 106.228 676.998 106.228 677.405V682.082H105.385V677.687C105.385 677.376 105.304 677.088 105.143 676.822C104.984 676.552 104.769 676.34 104.497 676.185C104.225 676.026 103.93 675.947 103.613 675.947C103.252 675.947 102.917 676.032 102.609 676.203C102.301 676.373 102.056 676.603 101.873 676.893C101.694 677.183 101.604 677.497 101.604 677.835V682.082H101.272V677.683C101.272 677.234 101.386 676.82 101.613 676.44C101.843 676.058 102.157 675.754 102.555 675.53C102.953 675.306 103.394 675.194 103.878 675.194ZM101.604 675.189V682.082H100.757V675.189H101.604ZM83.8439 697.078H82.9873V687.897H83.8439V697.078ZM80.8213 696.49C81.2877 696.49 81.6838 696.366 82.0097 696.118C82.3356 695.867 82.5792 695.53 82.7407 695.109C82.9051 694.687 82.9873 694.221 82.9873 693.71C82.9873 693.183 82.9051 692.704 82.7407 692.27C82.5792 691.836 82.3356 691.493 82.0097 691.239C81.6868 690.981 81.2906 690.853 80.8213 690.853C80.3399 690.853 79.9378 690.98 79.6149 691.234C79.295 691.488 79.0573 691.832 78.9018 692.266C78.7464 692.696 78.6686 693.179 78.6686 693.714C78.6686 694.246 78.7449 694.72 78.8973 695.136C79.0528 695.551 79.292 695.882 79.6149 696.127C79.9378 696.369 80.3399 696.49 80.8213 696.49ZM80.5836 690.194C81.2264 690.194 81.7645 690.343 82.198 690.642C82.6316 690.941 82.953 691.351 83.1622 691.871C83.3745 692.388 83.4806 692.979 83.4806 693.642C83.4806 694.309 83.3745 694.907 83.1622 695.436C82.953 695.962 82.6316 696.379 82.198 696.687C81.7645 696.995 81.2264 697.149 80.5836 697.149C79.9557 697.149 79.425 696.995 78.9915 696.687C78.561 696.379 78.2381 695.961 78.0228 695.432C77.8106 694.902 77.7044 694.308 77.7044 693.647C77.7044 693.001 77.8106 692.418 78.0228 691.898C78.2381 691.375 78.561 690.96 78.9915 690.656C79.425 690.348 79.9557 690.194 80.5836 690.194ZM87.7366 690.759C87.324 690.759 86.9652 690.877 86.6603 691.113C86.3583 691.346 86.1251 691.663 85.9607 692.064C85.7962 692.464 85.7065 692.91 85.6916 693.4H89.8085C89.7786 692.904 89.6784 692.457 89.508 692.059C89.3406 691.659 89.1059 691.342 88.8039 691.108C88.5049 690.875 88.1492 690.759 87.7366 690.759ZM84.8081 693.66C84.8081 692.988 84.9172 692.384 85.1355 691.848C85.3567 691.31 85.6871 690.886 86.1266 690.575C86.5691 690.261 87.1117 690.104 87.7545 690.104C88.3973 690.104 88.937 690.261 89.3735 690.575C89.81 690.886 90.1344 691.309 90.3466 691.844C90.5619 692.379 90.6695 692.985 90.6695 693.66C90.6695 693.843 90.6635 694.009 90.6516 694.158H89.5439H85.6916C85.7334 694.63 85.8426 695.046 86.019 695.405C86.1953 695.764 86.4285 696.043 86.7186 696.243C87.0116 696.444 87.3464 696.544 87.7231 696.544C88.061 696.544 88.3554 696.472 88.6066 696.329C88.8577 696.182 89.0655 695.992 89.23 695.759C89.3944 695.526 89.5274 695.263 89.6291 694.97H90.5126C90.396 695.418 90.2181 695.811 89.9789 696.149C89.7397 696.484 89.4333 696.746 89.0595 696.934C88.6858 697.119 88.2508 697.212 87.7545 697.212C87.1147 697.212 86.5736 697.057 86.1311 696.746C85.6886 696.432 85.3567 696.007 85.1355 695.472C84.9172 694.934 84.8081 694.33 84.8081 693.66ZM91.5216 697.082V690.194H92.3602V691.342C92.4768 690.95 92.7175 690.647 93.0823 690.431C93.45 690.216 93.8701 690.114 94.3424 690.126C94.4052 690.126 94.468 690.128 94.5308 690.131C94.5936 690.131 94.6504 690.134 94.7012 690.14V691.014C94.6414 690.99 94.5727 690.975 94.4949 690.969C94.4172 690.963 94.326 690.962 94.2214 690.965C93.8327 690.962 93.5023 691.026 93.2303 691.158C92.9612 691.289 92.7489 691.497 92.5934 691.781C92.438 692.065 92.3602 692.436 92.3602 692.893V697.082H91.5216Z" fill="#FFBFE1"/>
<path d="M60.9702 559.789C61.2751 559.789 61.5577 559.714 61.8178 559.565C62.0779 559.412 62.2842 559.206 62.4367 558.946C62.5891 558.686 62.6654 558.402 62.6654 558.094C62.6654 557.789 62.5891 557.506 62.4367 557.246C62.2842 556.986 62.0779 556.78 61.8178 556.627C61.5577 556.475 61.2751 556.399 60.9702 556.399H58.2749V559.789H60.9702ZM61.2123 555.632C61.6399 555.632 62.033 555.738 62.3918 555.95C62.7506 556.16 63.0346 556.444 63.2439 556.802C63.4532 557.161 63.5578 557.553 63.5578 557.977C63.5578 558.402 63.4532 558.794 63.2439 559.152C63.0346 559.511 62.7506 559.795 62.3918 560.004C62.033 560.214 61.6399 560.318 61.2123 560.318H57.5439V555.632H61.2123ZM61.2527 564.05C61.5756 564.05 61.8761 563.97 62.1541 563.812C62.4322 563.65 62.6534 563.435 62.8178 563.166C62.9823 562.894 63.0645 562.598 63.0645 562.278C63.0645 561.958 62.9823 561.664 62.8178 561.395C62.6534 561.123 62.4322 560.907 62.1541 560.749C61.8761 560.587 61.5756 560.507 61.2527 560.507H58.3287V564.05H61.2527ZM61.5846 560.031C62.0211 560.031 62.4217 560.139 62.7865 560.354C63.1512 560.569 63.4397 560.859 63.652 561.224C63.8673 561.589 63.9749 561.988 63.9749 562.422C63.9749 562.855 63.8673 563.256 63.652 563.623C63.4397 563.991 63.1512 564.283 62.7865 564.498C62.4217 564.71 62.0211 564.816 61.5846 564.816H57.5439V560.031H61.5846ZM58.4094 555.632V564.816H57.5439V555.632H58.4094ZM69.371 563.502C69.2425 563.763 69.1005 563.981 68.945 564.157C68.7895 564.331 68.6116 564.474 68.4113 564.588C68.214 564.698 67.9808 564.787 67.7117 564.852C67.2543 564.951 66.8163 564.945 66.3977 564.834C65.9791 564.724 65.6264 564.529 65.3393 564.251C65.0523 563.973 64.8685 563.641 64.7877 563.256C64.698 562.843 64.7249 562.453 64.8685 562.085C65.012 561.718 65.2467 561.407 65.5725 561.152C65.9014 560.898 66.2901 560.723 66.7385 560.628C67.0555 560.556 67.4695 560.511 67.9808 560.493C68.492 560.472 68.9555 560.48 69.371 560.516V560.305C69.371 559.934 69.3337 559.62 69.2589 559.363C69.1842 559.106 69.0227 558.892 68.7746 558.722C68.5264 558.551 68.1632 558.466 67.6848 558.466C67.1227 558.463 66.7161 558.596 66.465 558.865C66.2168 559.131 66.0703 559.465 66.0255 559.865H65.151C65.2287 559.232 65.4604 558.74 65.8461 558.39C66.2348 558.037 66.8492 557.861 67.6893 557.861C68.4905 557.861 69.0765 557.982 69.4473 558.224C69.818 558.463 70.0422 558.744 70.12 559.067C70.2007 559.39 70.2396 559.81 70.2366 560.327V560.511V564.816H69.371V563.502ZM67.918 564.085C68.1213 564.035 68.3007 563.955 68.4562 563.848C68.6116 563.74 68.7581 563.603 68.8957 563.435C69.0093 563.298 69.096 563.163 69.1558 563.032C69.2186 562.9 69.2619 562.758 69.2858 562.605C69.3127 562.45 69.3262 562.268 69.3262 562.058V561.188C68.9764 561.164 68.6071 561.155 68.2185 561.161C67.8298 561.164 67.5189 561.19 67.2857 561.238C66.9239 561.303 66.616 561.411 66.3618 561.561C66.1107 561.71 65.9268 561.912 65.8102 562.166C65.6966 562.42 65.6757 562.73 65.7474 563.094C65.8102 563.363 65.9478 563.585 66.16 563.758C66.3723 563.931 66.6309 564.047 66.9359 564.103C67.2438 564.16 67.5712 564.154 67.918 564.085ZM75.413 564.731C75.0034 564.881 74.525 564.955 73.9779 564.955C73.3769 564.955 72.8702 564.867 72.4576 564.691C72.051 564.523 71.7296 564.269 71.4934 563.928C71.2692 563.588 71.1436 563.172 71.1167 562.682H72.0315C72.0585 563.029 72.1452 563.316 72.2917 563.543C72.4411 563.773 72.6519 563.942 72.924 564.05C73.214 564.163 73.5683 564.22 73.9869 564.22C74.3785 564.22 74.7074 564.177 74.9735 564.09C75.2366 564 75.4369 563.866 75.5744 563.686C75.6432 563.6 75.694 563.501 75.7269 563.39C75.7628 563.28 75.7807 563.157 75.7807 563.023C75.7807 562.798 75.7284 562.608 75.6237 562.453C75.5191 562.301 75.3502 562.173 75.117 562.072C74.8808 561.964 74.5639 561.877 74.1662 561.812L73.4487 561.691C72.9823 561.607 72.5936 561.487 72.2827 561.332C71.9718 561.17 71.7296 560.958 71.5562 560.695C71.3917 560.435 71.3095 560.117 71.3095 559.74C71.3095 559.345 71.4067 559.01 71.601 558.735C71.8073 558.451 72.0958 558.234 72.4666 558.085C72.8373 557.929 73.2872 557.852 73.8164 557.852C74.4323 557.852 74.9361 557.938 75.3278 558.112C75.7284 558.288 76.0259 558.535 76.2202 558.852C76.4175 559.157 76.5281 559.536 76.5521 559.991H75.6551C75.6342 559.665 75.5535 559.399 75.413 559.193C75.2724 558.983 75.0736 558.835 74.8165 558.749C74.5504 558.65 74.2156 558.601 73.8119 558.601C73.4771 558.601 73.1886 558.644 72.9464 558.731C72.7072 558.817 72.5278 558.942 72.4083 559.103C72.2797 559.276 72.2154 559.48 72.2154 559.713C72.2154 559.952 72.2737 560.148 72.3903 560.3C72.5099 560.459 72.6773 560.581 72.8926 560.668C73.1288 560.767 73.4128 560.843 73.7447 560.897L74.4577 561.022C74.963 561.109 75.3786 561.233 75.7045 561.395C76.0304 561.547 76.2785 561.753 76.4489 562.014C76.6163 562.271 76.7001 562.585 76.7001 562.955C76.7001 563.389 76.5879 563.757 76.3637 564.059C76.1425 564.354 75.8256 564.579 75.413 564.731ZM80.327 558.493C79.9144 558.493 79.5557 558.611 79.2507 558.847C78.9487 559.081 78.7155 559.397 78.5511 559.798C78.3867 560.199 78.297 560.644 78.282 561.135H82.3989C82.369 560.638 82.2689 560.191 82.0984 559.794C81.931 559.393 81.6963 559.076 81.3944 558.843C81.0954 558.61 80.7396 558.493 80.327 558.493ZM77.3985 561.395C77.3985 560.722 77.5077 560.118 77.7259 559.583C77.9472 559.045 78.2775 558.62 78.717 558.309C79.1595 557.995 79.7022 557.838 80.345 557.838C80.9878 557.838 81.5274 557.995 81.9639 558.309C82.4004 558.62 82.7248 559.043 82.9371 559.578C83.1523 560.114 83.26 560.719 83.26 561.395C83.26 561.577 83.254 561.743 83.242 561.892H82.1343H78.282C78.3239 562.365 78.433 562.78 78.6094 563.139C78.7858 563.498 79.019 563.777 79.309 563.978C79.602 564.178 79.9369 564.278 80.3136 564.278C80.6514 564.278 80.9459 564.206 81.197 564.063C81.4482 563.916 81.656 563.727 81.8204 563.493C81.9848 563.26 82.1179 562.997 82.2195 562.704H83.103C82.9864 563.153 82.8085 563.546 82.5693 563.884C82.3302 564.218 82.0237 564.48 81.65 564.668C81.2763 564.854 80.8413 564.946 80.345 564.946C79.7051 564.946 79.164 564.791 78.7215 564.48C78.279 564.166 77.9472 563.742 77.7259 563.206C77.5077 562.668 77.3985 562.064 77.3985 561.395ZM84.9955 555.632V564.816H84.1345V555.632H84.9955ZM86.8174 557.928V564.816H85.9564V557.928H86.8174ZM86.8174 555.632V556.78H85.9564V555.632H86.8174ZM90.9063 557.928C91.3458 557.928 91.7449 558.027 92.1037 558.224C92.4625 558.418 92.7435 558.684 92.9468 559.022C93.1531 559.36 93.2562 559.732 93.2562 560.139V564.816H92.4131V560.421C92.4131 560.111 92.3324 559.822 92.171 559.556C92.0125 559.287 91.7972 559.075 91.5252 558.919C91.2531 558.761 90.9586 558.681 90.6417 558.681C90.2799 558.681 89.9451 558.767 89.6371 558.937C89.3292 559.107 89.084 559.338 88.9017 559.628C88.7223 559.918 88.6326 560.232 88.6326 560.569V564.816H88.3007V560.417C88.3007 559.969 88.4143 559.554 88.6415 559.175C88.8718 558.792 89.1857 558.489 89.5833 558.264C89.981 558.04 90.4219 557.928 90.9063 557.928ZM88.6326 557.924V564.816H87.785V557.924H88.6326ZM97.0626 558.493C96.65 558.493 96.2912 558.611 95.9863 558.847C95.6843 559.081 95.4511 559.397 95.2867 559.798C95.1222 560.199 95.0325 560.644 95.0176 561.135H99.1345C99.1046 560.638 99.0044 560.191 98.834 559.794C98.6666 559.393 98.4319 559.076 98.1299 558.843C97.8309 558.61 97.4752 558.493 97.0626 558.493ZM94.1341 561.395C94.1341 560.722 94.2432 560.118 94.4615 559.583C94.6827 559.045 95.0131 558.62 95.4526 558.309C95.8951 557.995 96.4377 557.838 97.0805 557.838C97.7233 557.838 98.263 557.995 98.6995 558.309C99.136 558.62 99.4604 559.043 99.6726 559.578C99.8879 560.114 99.9955 560.719 99.9955 561.395C99.9955 561.577 99.9896 561.743 99.9776 561.892H98.8699H95.0176C95.0594 562.365 95.1686 562.78 95.345 563.139C95.5214 563.498 95.7546 563.777 96.0446 563.978C96.3376 564.178 96.6724 564.278 97.0491 564.278C97.387 564.278 97.6815 564.206 97.9326 564.063C98.1837 563.916 98.3915 563.727 98.556 563.493C98.7204 563.26 98.8534 562.997 98.9551 562.704H99.8386C99.722 563.153 99.5441 563.546 99.3049 563.884C99.0657 564.218 98.7593 564.48 98.3855 564.668C98.0118 564.854 97.5768 564.946 97.0805 564.946C96.4407 564.946 95.8996 564.791 95.4571 564.48C95.0146 564.166 94.6827 563.742 94.4615 563.206C94.2432 562.668 94.1341 562.064 94.1341 561.395Z" fill="#FFBFE1"/>
<path d="M64.8416 296.908H63.7698L57.2401 287.724H58.312L64.8416 296.908ZM58.312 296.908H57.2401L63.7698 287.724H64.8416L58.312 296.908ZM69.2153 292.594V293.347H65.3943V292.594H69.2153ZM71.6414 287.724V296.908H70.7759V287.724H71.6414ZM77.5926 287.724V296.908H76.7315V287.724H77.5926ZM77.2697 291.957V292.711H71.2378V291.957H77.2697ZM81.4852 290.585C81.0726 290.585 80.7139 290.703 80.4089 290.939C80.107 291.172 79.8738 291.489 79.7093 291.89C79.5449 292.291 79.4552 292.736 79.4402 293.226H83.5571C83.5272 292.73 83.4271 292.283 83.2567 291.885C83.0892 291.485 82.8545 291.168 82.5526 290.935C82.2536 290.701 81.8978 290.585 81.4852 290.585ZM78.5568 293.486C78.5568 292.814 78.6659 292.21 78.8841 291.675C79.1054 291.136 79.4358 290.712 79.8752 290.401C80.3177 290.087 80.8604 289.93 81.5032 289.93C82.146 289.93 82.6856 290.087 83.1221 290.401C83.5586 290.712 83.883 291.135 84.0953 291.67C84.3106 292.205 84.4182 292.811 84.4182 293.486C84.4182 293.669 84.4122 293.835 84.4002 293.984H83.2925H79.4402C79.4821 294.457 79.5912 294.872 79.7676 295.231C79.944 295.59 80.1772 295.869 80.4672 296.07C80.7602 296.27 81.0951 296.37 81.4718 296.37C81.8096 296.37 82.1041 296.298 82.3553 296.155C82.6064 296.008 82.8142 295.818 82.9786 295.585C83.1431 295.352 83.2761 295.089 83.3778 294.796H84.2612C84.1446 295.244 83.9667 295.638 83.7276 295.975C83.4884 296.31 83.1819 296.572 82.8082 296.76C82.4345 296.946 81.9995 297.038 81.5032 297.038C80.8634 297.038 80.3222 296.883 79.8797 296.572C79.4372 296.258 79.1054 295.833 78.8841 295.298C78.6659 294.76 78.5568 294.156 78.5568 293.486ZM86.0641 290.02V296.908H85.203V290.02H86.0641ZM86.0641 287.724V288.872H85.203V287.724H86.0641ZM90.0363 296.37C90.5296 296.37 90.9407 296.246 91.2696 295.998C91.5985 295.75 91.8421 295.412 92.0006 294.984C92.1591 294.557 92.2383 294.071 92.2383 293.527C92.2383 292.977 92.1591 292.482 92.0006 292.042C91.8421 291.603 91.597 291.253 91.2651 290.993C90.9362 290.733 90.5266 290.603 90.0363 290.603C89.558 290.603 89.1528 290.734 88.821 290.997C88.4891 291.258 88.241 291.609 88.0765 292.051C87.9121 292.494 87.8299 292.986 87.8299 293.527C87.8299 294.065 87.9121 294.549 88.0765 294.98C88.241 295.407 88.4876 295.747 88.8165 295.998C89.1484 296.246 89.555 296.37 90.0363 296.37ZM93.1621 296.639C93.1621 297.213 93.047 297.724 92.8168 298.173C92.5896 298.624 92.2458 298.98 91.7853 299.24C91.3279 299.503 90.7688 299.635 90.1081 299.635C89.6297 299.635 89.1932 299.557 88.7986 299.402C88.4069 299.246 88.0735 299.016 87.7985 298.711C87.5264 298.409 87.3276 298.04 87.202 297.603H88.099C88.1737 297.851 88.2993 298.074 88.4757 298.272C88.6551 298.472 88.8823 298.629 89.1573 298.742C89.4354 298.859 89.7523 298.917 90.1081 298.917C90.6044 298.917 91.0155 298.813 91.3414 298.603C91.6702 298.394 91.9094 298.121 92.0589 297.783C92.2114 297.445 92.2876 297.064 92.2876 296.639V295.59C92.0305 296.038 91.7001 296.391 91.2965 296.648C90.8929 296.902 90.4056 297.029 89.8345 297.029C89.1827 297.029 88.6326 296.872 88.1842 296.558C87.7387 296.244 87.4053 295.818 87.1841 295.28C86.9658 294.742 86.8567 294.137 86.8567 293.464C86.8567 292.791 86.9658 292.19 87.1841 291.661C87.4053 291.132 87.7387 290.713 88.1842 290.405C88.6296 290.098 89.1798 289.944 89.8345 289.944C90.4115 289.944 90.9019 290.065 91.3055 290.307C91.7091 290.549 92.0365 290.891 92.2876 291.334V290.015H93.1621V296.639ZM97.2813 290.02C97.7208 290.02 98.1199 290.118 98.4787 290.316C98.8374 290.51 99.1185 290.776 99.3218 291.114C99.5281 291.452 99.6312 291.824 99.6312 292.231V296.908H98.7881V292.513C98.7881 292.202 98.7074 291.914 98.5459 291.648C98.3875 291.379 98.1722 291.166 97.9001 291.011C97.6281 290.852 97.3336 290.773 97.0167 290.773C96.6549 290.773 96.3201 290.858 96.0121 291.029C95.7042 291.199 95.459 291.429 95.2766 291.719C95.0972 292.009 95.0075 292.323 95.0075 292.661V296.908H94.6757V292.509C94.6757 292.06 94.7893 291.646 95.0165 291.267C95.2467 290.884 95.5607 290.58 95.9583 290.356C96.3559 290.132 96.7969 290.02 97.2813 290.02ZM95.0075 287.724V296.908H94.1599V287.724H95.0075ZM103.186 296.908C102.875 296.908 102.59 296.833 102.33 296.684C102.073 296.531 101.869 296.325 101.72 296.065C101.57 295.802 101.496 295.515 101.496 295.204V290.706H100.397V290.02H101.496V288.607L102.361 288.239V290.02H103.931V290.706H102.361V295.294C102.361 295.449 102.399 295.593 102.473 295.724C102.548 295.853 102.648 295.956 102.774 296.034C102.902 296.111 103.038 296.15 103.182 296.15H103.832V296.908H103.186Z" fill="#FFBFE1"/>
<path d="M61.4155 198.298C62.0942 198.298 62.6921 198.422 63.2094 198.67C63.7296 198.915 64.1586 199.268 64.4965 199.728C64.8373 200.186 65.084 200.736 65.2364 201.379H64.2274C64.039 200.637 63.7087 200.065 63.2363 199.661C62.7639 199.255 62.1585 199.051 61.42 199.051C60.7652 199.051 60.2136 199.213 59.7652 199.536C59.3197 199.856 58.9848 200.31 58.7606 200.899C58.5394 201.488 58.4287 202.186 58.4287 202.993C58.4287 203.801 58.5394 204.5 58.7606 205.092C58.9848 205.684 59.3197 206.142 59.7652 206.464C60.2136 206.784 60.7652 206.944 61.42 206.944C62.1585 206.944 62.7639 206.742 63.2363 206.339C63.7087 205.935 64.039 205.361 64.2274 204.617H65.2364C65.084 205.26 64.8373 205.811 64.4965 206.272C64.1586 206.729 63.7296 207.082 63.2094 207.33C62.6921 207.575 62.0942 207.698 61.4155 207.698C60.5604 207.698 59.8339 207.505 59.236 207.119C58.638 206.733 58.1851 206.188 57.8771 205.482C57.5722 204.777 57.4197 203.947 57.4197 202.993C57.4197 202.046 57.5722 201.219 57.8771 200.513C58.1851 199.808 58.638 199.262 59.236 198.876C59.8339 198.491 60.5604 198.298 61.4155 198.298ZM70.6124 206.29C70.4838 206.55 70.3418 206.768 70.1864 206.944C70.0309 207.118 69.853 207.261 69.6527 207.375C69.4554 207.485 69.2222 207.574 68.9531 207.639C68.4956 207.738 68.0576 207.732 67.6391 207.621C67.2205 207.511 66.8677 207.316 66.5807 207.038C66.2937 206.76 66.1098 206.429 66.0291 206.043C65.9394 205.63 65.9663 205.24 66.1098 204.872C66.2533 204.505 66.488 204.194 66.8139 203.94C67.1428 203.685 67.5314 203.511 67.9799 203.415C68.2968 203.343 68.7109 203.298 69.2222 203.28C69.7334 203.259 70.1968 203.267 70.6124 203.303V203.092C70.6124 202.721 70.575 202.407 70.5003 202.15C70.4255 201.893 70.2641 201.679 70.0159 201.509C69.7678 201.338 69.4045 201.253 68.9262 201.253C68.3641 201.25 67.9575 201.383 67.7063 201.652C67.4582 201.918 67.3117 202.252 67.2669 202.652H66.3923C66.4701 202.019 66.7018 201.527 67.0875 201.177C67.4761 200.824 68.0905 200.648 68.9307 200.648C69.7319 200.648 70.3179 200.769 70.6886 201.011C71.0594 201.25 71.2836 201.531 71.3613 201.854C71.4421 202.177 71.4809 202.597 71.4779 203.114V203.298V207.604H70.6124V206.29ZM69.1594 206.873C69.3627 206.822 69.5421 206.742 69.6975 206.635C69.853 206.527 69.9995 206.39 70.137 206.222C70.2506 206.085 70.3373 205.95 70.3971 205.819C70.4599 205.687 70.5033 205.545 70.5272 205.393C70.5541 205.237 70.5676 205.055 70.5676 204.845V203.975C70.2177 203.952 69.8485 203.943 69.4598 203.949C69.0712 203.952 68.7602 203.977 68.527 204.025C68.1653 204.091 67.8573 204.198 67.6032 204.348C67.3521 204.497 67.1682 204.699 67.0516 204.953C66.938 205.207 66.9171 205.517 66.9888 205.881C67.0516 206.15 67.1891 206.372 67.4014 206.545C67.6137 206.719 67.8723 206.834 68.1772 206.89C68.4852 206.947 68.8126 206.941 69.1594 206.873ZM72.5374 200.715H73.3985V209.895H72.5374V200.715ZM75.5601 201.289C75.0937 201.289 74.6975 201.412 74.3716 201.657C74.0458 201.902 73.8006 202.237 73.6362 202.661C73.4747 203.083 73.394 203.557 73.394 204.083C73.394 204.615 73.4747 205.1 73.6362 205.536C73.8006 205.973 74.0458 206.319 74.3716 206.577C74.6975 206.831 75.0937 206.958 75.5601 206.958C76.0414 206.958 76.4436 206.831 76.7664 206.577C77.0893 206.319 77.3285 205.974 77.484 205.541C77.6424 205.104 77.7217 204.617 77.7217 204.079C77.7217 203.546 77.6439 203.071 77.4885 202.652C77.333 202.231 77.0938 201.899 76.7709 201.657C76.448 201.412 76.0444 201.289 75.5601 201.289ZM75.7978 207.599C75.155 207.599 74.6138 207.45 74.1743 207.151C73.7378 206.852 73.4119 206.443 73.1967 205.926C72.9814 205.406 72.8738 204.814 72.8738 204.15C72.8738 203.487 72.9814 202.892 73.1967 202.365C73.4119 201.836 73.7378 201.418 74.1743 201.11C74.6138 200.799 75.155 200.643 75.7978 200.643C76.4286 200.643 76.9593 200.797 77.3898 201.105C77.8203 201.413 78.1417 201.832 78.354 202.361C78.5693 202.89 78.6769 203.487 78.6769 204.15C78.6769 204.796 78.5693 205.379 78.354 205.899C78.1417 206.42 77.8203 206.834 77.3898 207.142C76.9593 207.447 76.4286 207.599 75.7978 207.599ZM83.6257 198.419V207.604H82.7602V198.419H83.6257ZM89.5768 198.419V207.604H88.7158V198.419H89.5768ZM89.2539 202.652V203.406H83.2221V202.652H89.2539ZM93.4695 201.28C93.0569 201.28 92.6981 201.398 92.3932 201.634C92.0912 201.868 91.858 202.185 91.6936 202.585C91.5291 202.986 91.4394 203.431 91.4245 203.922H95.5414C95.5115 203.425 95.4113 202.978 95.2409 202.581C95.0735 202.18 94.8388 201.863 94.5368 201.63C94.2379 201.397 93.8821 201.28 93.4695 201.28ZM90.541 204.182C90.541 203.509 90.6502 202.905 90.8684 202.37C91.0896 201.832 91.42 201.407 91.8595 201.096C92.302 200.782 92.8446 200.625 93.4874 200.625C94.1302 200.625 94.6699 200.782 95.1064 201.096C95.5429 201.407 95.8673 201.83 96.0796 202.365C96.2948 202.901 96.4025 203.506 96.4025 204.182C96.4025 204.364 96.3965 204.53 96.3845 204.68H95.2768H91.4245C91.4664 205.152 91.5755 205.567 91.7519 205.926C91.9283 206.285 92.1615 206.565 92.4515 206.765C92.7445 206.965 93.0793 207.065 93.456 207.065C93.7939 207.065 94.0884 206.994 94.3395 206.85C94.5907 206.704 94.7984 206.514 94.9629 206.281C95.1273 206.047 95.2604 205.784 95.362 205.491H96.2455C96.1289 205.94 95.951 206.333 95.7118 206.671C95.4726 207.006 95.1662 207.267 94.7925 207.456C94.4187 207.641 93.9837 207.734 93.4874 207.734C92.8476 207.734 92.3065 207.578 91.864 207.267C91.4215 206.953 91.0896 206.529 90.8684 205.994C90.6502 205.455 90.541 204.851 90.541 204.182ZM98.0483 200.715V207.604H97.1873V200.715H98.0483ZM98.0483 198.419V199.567H97.1873V198.419H98.0483ZM102.021 207.065C102.514 207.065 102.925 206.941 103.254 206.693C103.583 206.445 103.826 206.107 103.985 205.68C104.143 205.252 104.223 204.766 104.223 204.222C104.223 203.672 104.143 203.177 103.985 202.738C103.826 202.298 103.581 201.948 103.249 201.688C102.921 201.428 102.511 201.298 102.021 201.298C101.542 201.298 101.137 201.43 100.805 201.693C100.473 201.953 100.225 202.304 100.061 202.747C99.8964 203.189 99.8141 203.681 99.8141 204.222C99.8141 204.76 99.8964 205.245 100.061 205.675C100.225 206.103 100.472 206.442 100.801 206.693C101.133 206.941 101.539 207.065 102.021 207.065ZM105.146 207.334C105.146 207.908 105.031 208.42 104.801 208.868C104.574 209.32 104.23 209.675 103.77 209.936C103.312 210.199 102.753 210.33 102.092 210.33C101.614 210.33 101.177 210.252 100.783 210.097C100.391 209.942 100.058 209.711 99.7828 209.406C99.5107 209.104 99.3119 208.735 99.1863 208.299H100.083C100.158 208.547 100.284 208.77 100.46 208.967C100.639 209.167 100.867 209.324 101.142 209.438C101.42 209.554 101.737 209.613 102.092 209.613C102.589 209.613 103 209.508 103.326 209.299C103.654 209.089 103.894 208.816 104.043 208.478C104.196 208.14 104.272 207.759 104.272 207.334V206.285C104.015 206.733 103.684 207.086 103.281 207.343C102.877 207.598 102.39 207.725 101.819 207.725C101.167 207.725 100.617 207.568 100.168 207.254C99.723 206.94 99.3896 206.514 99.1684 205.976C98.9501 205.437 98.841 204.832 98.841 204.159C98.841 203.487 98.9501 202.886 99.1684 202.356C99.3896 201.827 99.723 201.409 100.168 201.101C100.614 200.793 101.164 200.639 101.819 200.639C102.396 200.639 102.886 200.76 103.29 201.002C103.693 201.244 104.021 201.587 104.272 202.029V200.711H105.146V207.334ZM109.266 200.715C109.705 200.715 110.104 200.814 110.463 201.011C110.822 201.205 111.103 201.472 111.306 201.809C111.512 202.147 111.615 202.519 111.615 202.926V207.604H110.772V203.209C110.772 202.898 110.692 202.609 110.53 202.343C110.372 202.074 110.156 201.862 109.884 201.706C109.612 201.548 109.318 201.469 109.001 201.469C108.639 201.469 108.304 201.554 107.996 201.724C107.688 201.895 107.443 202.125 107.261 202.415C107.082 202.705 106.992 203.019 106.992 203.357V207.604H106.66V203.204C106.66 202.756 106.774 202.342 107.001 201.962C107.231 201.579 107.545 201.276 107.943 201.051C108.34 200.827 108.781 200.715 109.266 200.715ZM106.992 198.419V207.604H106.144V198.419H106.992ZM115.171 207.604C114.86 207.604 114.574 207.529 114.314 207.379C114.057 207.227 113.854 207.021 113.704 206.76C113.555 206.497 113.48 206.21 113.48 205.899V201.401H112.381V200.715H113.48V199.302L114.346 198.935V200.715H115.915V201.401H114.346V205.989C114.346 206.145 114.383 206.288 114.458 206.42C114.532 206.548 114.633 206.651 114.758 206.729C114.887 206.807 115.023 206.846 115.166 206.846H115.816V207.604H115.171Z" fill="#FFBFE1"/>
<path d="M65.1078 93.041H64.1929L60.7487 83.8565H61.6636L65.1078 93.041ZM58.1432 93.041H57.2283L60.6725 83.8565H61.5874L58.1432 93.041ZM63.7176 89.5968V90.3592H58.6679V89.5968H63.7176ZM69.921 92.9558C69.5114 93.1053 69.033 93.18 68.4859 93.18C67.8849 93.18 67.3782 93.0918 66.9656 92.9154C66.559 92.748 66.2376 92.4939 66.0014 92.1531C65.7771 91.8122 65.6516 91.3966 65.6247 90.9063H66.5395C66.5664 91.2531 66.6531 91.5402 66.7996 91.7674C66.9491 91.9976 67.1599 92.1665 67.432 92.2741C67.722 92.3878 68.0763 92.4446 68.4948 92.4446C68.8865 92.4446 69.2154 92.4012 69.4815 92.3145C69.7446 92.2248 69.9449 92.0903 70.0824 91.9109C70.1512 91.8242 70.202 91.7255 70.2349 91.6149C70.2708 91.5043 70.2887 91.3817 70.2887 91.2472C70.2887 91.0229 70.2364 90.8331 70.1317 90.6776C70.0271 90.5251 69.8582 90.3981 69.625 90.2964C69.3888 90.1888 69.0719 90.1021 68.6742 90.0363L67.9567 89.9152C67.4903 89.8315 67.1016 89.7119 66.7907 89.5564C66.4797 89.395 66.2376 89.1827 66.0642 88.9196C65.8997 88.6595 65.8175 88.3411 65.8175 87.9644C65.8175 87.5698 65.9147 87.2349 66.109 86.9598C66.3153 86.6758 66.6038 86.4591 66.9745 86.3096C67.3453 86.1541 67.7952 86.0764 68.3244 86.0764C68.9403 86.0764 69.4441 86.1631 69.8357 86.3365C70.2364 86.5129 70.5339 86.7595 70.7282 87.0764C70.9255 87.3814 71.0361 87.7611 71.0601 88.2155H70.1631C70.1422 87.8897 70.0615 87.6236 69.921 87.4173C69.7804 87.208 69.5816 87.06 69.3245 86.9733C69.0584 86.8746 68.7236 86.8253 68.3199 86.8253C67.9851 86.8253 67.6966 86.8687 67.4544 86.9554C67.2152 87.0421 67.0358 87.1661 66.9162 87.3276C66.7877 87.501 66.7234 87.7043 66.7234 87.9375C66.7234 88.1767 66.7817 88.3725 66.8983 88.525C67.0179 88.6834 67.1853 88.806 67.4006 88.8927C67.6368 88.9914 67.9208 89.0676 68.2527 89.1214L68.9657 89.247C69.471 89.3337 69.8866 89.4578 70.2125 89.6192C70.5383 89.7717 70.7865 89.978 70.9569 90.2381C71.1243 90.4952 71.208 90.8092 71.208 91.1799C71.208 91.6134 71.0959 91.9811 70.8717 92.2831C70.6505 92.5791 70.3335 92.8033 69.921 92.9558ZM71.9065 89.6192C71.9065 88.9465 72.0261 88.3426 72.2653 87.8074C72.5045 87.2693 72.8662 86.8447 73.3506 86.5338C73.8379 86.2199 74.4344 86.0629 75.14 86.0629C75.7529 86.0629 76.2791 86.1735 76.7186 86.3948C77.158 86.613 77.5064 86.924 77.7635 87.3276C78.0206 87.7312 78.191 88.2111 78.2747 88.7672H77.3285C77.2507 88.3366 77.1177 87.9689 76.9293 87.6639C76.741 87.356 76.4928 87.1198 76.1849 86.9554C75.8799 86.7879 75.5197 86.7042 75.1041 86.7042C74.6108 86.7042 74.1952 86.8328 73.8574 87.0899C73.5195 87.344 73.2669 87.6908 73.0994 88.1303C72.935 88.5698 72.8528 89.0661 72.8528 89.6192C72.8528 90.1723 72.935 90.6701 73.0994 91.1126C73.2669 91.5521 73.5195 91.9004 73.8574 92.1575C74.1952 92.4147 74.6108 92.5432 75.1041 92.5432C75.5107 92.5432 75.8665 92.464 76.1714 92.3055C76.4764 92.1441 76.723 91.9154 76.9114 91.6194C77.1027 91.3204 77.2388 90.9616 77.3195 90.5431H78.2702C78.1805 91.0872 78.0056 91.5566 77.7455 91.9512C77.4854 92.3429 77.1371 92.6464 76.7006 92.8616C76.2641 93.0739 75.7439 93.18 75.14 93.18C74.4344 93.18 73.8379 93.0246 73.3506 92.7136C72.8662 92.3997 72.5045 91.9737 72.2653 91.4355C72.0261 90.8974 71.9065 90.2919 71.9065 89.6192ZM81.877 86.7177C81.4644 86.7177 81.1057 86.8358 80.8007 87.072C80.4987 87.3052 80.2655 87.6221 80.1011 88.0227C79.9367 88.4233 79.847 88.8688 79.832 89.3591H83.9489C83.919 88.8628 83.8189 88.4159 83.6484 88.0182C83.481 87.6176 83.2463 87.3007 82.9444 87.0675C82.6454 86.8343 82.2896 86.7177 81.877 86.7177ZM78.9485 89.6192C78.9485 88.9465 79.0577 88.3426 79.2759 87.8074C79.4972 87.2693 79.8275 86.8447 80.267 86.5338C80.7095 86.2199 81.2522 86.0629 81.8949 86.0629C82.5377 86.0629 83.0774 86.2199 83.5139 86.5338C83.9504 86.8447 84.2748 87.2678 84.4871 87.803C84.7023 88.3381 84.81 88.9435 84.81 89.6192C84.81 89.8016 84.804 89.9675 84.792 90.117H83.6843H79.832C79.8739 90.5894 79.983 91.005 80.1594 91.3638C80.3358 91.7225 80.569 92.0021 80.859 92.2024C81.152 92.4027 81.4868 92.5029 81.8636 92.5029C82.2014 92.5029 82.4959 92.4311 82.747 92.2876C82.9982 92.1411 83.206 91.9512 83.3704 91.718C83.5348 91.4848 83.6679 91.2217 83.7695 90.9287H84.653C84.5364 91.3772 84.3585 91.7704 84.1193 92.1082C83.8802 92.4431 83.5737 92.7047 83.2 92.893C82.8263 93.0784 82.3913 93.1711 81.8949 93.1711C81.2551 93.1711 80.714 93.0156 80.2715 92.7047C79.829 92.3907 79.4972 91.9662 79.2759 91.431C79.0577 90.8929 78.9485 90.2889 78.9485 89.6192ZM88.8058 86.1526C89.2453 86.1526 89.6444 86.2513 90.0032 86.4486C90.362 86.6429 90.643 86.909 90.8463 87.2469C91.0526 87.5847 91.1557 87.9569 91.1557 88.3635V93.041H90.3126V88.6461C90.3126 88.3351 90.2319 88.0466 90.0705 87.7805C89.912 87.5115 89.6967 87.2992 89.4247 87.1437C89.1526 86.9853 88.8581 86.906 88.5412 86.906C88.1794 86.906 87.8446 86.9912 87.5366 87.1616C87.2287 87.3321 86.9835 87.5623 86.8012 87.8523C86.6218 88.1423 86.5321 88.4562 86.5321 88.7941V93.041H86.2002V88.6416C86.2002 88.1931 86.3138 87.779 86.541 87.3993C86.7713 87.0166 87.0852 86.7132 87.4828 86.489C87.8805 86.2647 88.3214 86.1526 88.8058 86.1526ZM86.5321 86.1481V93.041H85.6845V86.1481H86.5321ZM98.1731 93.0365H97.3165V83.8565H98.1731V93.0365ZM95.1504 92.449C95.6168 92.449 96.013 92.325 96.3389 92.0768C96.6648 91.8257 96.9084 91.4893 97.0699 91.0678C97.2343 90.6462 97.3165 90.1798 97.3165 89.6686C97.3165 89.1424 97.2343 88.6625 97.0699 88.229C96.9084 87.7955 96.6648 87.4517 96.3389 87.1975C96.016 86.9404 95.6198 86.8118 95.1504 86.8118C94.6691 86.8118 94.267 86.9389 93.9441 87.193C93.6242 87.4472 93.3865 87.791 93.231 88.2245C93.0755 88.655 92.9978 89.1379 92.9978 89.673C92.9978 90.2052 93.074 90.6791 93.2265 91.0947C93.382 91.5103 93.6212 91.8406 93.9441 92.0858C94.267 92.328 94.6691 92.449 95.1504 92.449ZM94.9127 86.1526C95.5555 86.1526 96.0937 86.3021 96.5272 86.6011C96.9607 86.9 97.2821 87.3096 97.4914 87.8299C97.7037 88.3471 97.8098 88.9376 97.8098 89.6013C97.8098 90.268 97.7037 90.866 97.4914 91.3952C97.2821 91.9213 96.9607 92.3384 96.5272 92.6464C96.0937 92.9543 95.5555 93.1083 94.9127 93.1083C94.2849 93.1083 93.7542 92.9543 93.3207 92.6464C92.8902 92.3384 92.5673 91.9199 92.352 91.3907C92.1397 90.8615 92.0336 90.2665 92.0336 89.6058C92.0336 88.96 92.1397 88.377 92.352 87.8568C92.5673 87.3336 92.8902 86.9195 93.3207 86.6145C93.7542 86.3066 94.2849 86.1526 94.9127 86.1526ZM102.066 86.7177C101.653 86.7177 101.294 86.8358 100.989 87.072C100.687 87.3052 100.454 87.6221 100.29 88.0227C100.125 88.4233 100.036 88.8688 100.021 89.3591H104.138C104.108 88.8628 104.008 88.4159 103.837 88.0182C103.67 87.6176 103.435 87.3007 103.133 87.0675C102.834 86.8343 102.478 86.7177 102.066 86.7177ZM99.1373 89.6192C99.1373 88.9465 99.2464 88.3426 99.4647 87.8074C99.6859 87.2693 100.016 86.8447 100.456 86.5338C100.898 86.2199 101.441 86.0629 102.084 86.0629C102.726 86.0629 103.266 86.2199 103.703 86.5338C104.139 86.8447 104.464 87.2678 104.676 87.803C104.891 88.3381 104.999 88.9435 104.999 89.6192C104.999 89.8016 104.993 89.9675 104.981 90.117H103.873H100.021C100.063 90.5894 100.172 91.005 100.348 91.3638C100.525 91.7225 100.758 92.0021 101.048 92.2024C101.341 92.4027 101.676 92.5029 102.052 92.5029C102.39 92.5029 102.685 92.4311 102.936 92.2876C103.187 92.1411 103.395 91.9512 103.559 91.718C103.724 91.4848 103.857 91.2217 103.958 90.9287H104.842C104.725 91.3772 104.547 91.7704 104.308 92.1082C104.069 92.4431 103.762 92.7047 103.389 92.893C103.015 93.0784 102.58 93.1711 102.084 93.1711C101.444 93.1711 100.903 93.0156 100.46 92.7047C100.018 92.3907 99.6859 91.9662 99.4647 91.431C99.2464 90.8929 99.1373 90.2889 99.1373 89.6192ZM105.851 93.041V86.1526H106.689V87.3007C106.806 86.909 107.047 86.6056 107.411 86.3903C107.779 86.175 108.199 86.0734 108.672 86.0853C108.734 86.0853 108.797 86.0868 108.86 86.0898C108.923 86.0898 108.98 86.0928 109.03 86.0988V86.9733C108.971 86.9494 108.902 86.9344 108.824 86.9284C108.746 86.9225 108.655 86.921 108.551 86.924C108.162 86.921 107.832 86.9853 107.559 87.1168C107.29 87.2484 107.078 87.4561 106.923 87.7402C106.767 88.0242 106.689 88.3949 106.689 88.8524V93.041H105.851Z" fill="#FFBFE1"/>
<line x1="38.7871" y1="549.608" x2="703.197" y2="549.608" stroke="#FFBFE1" stroke-width="1.002"/>
<line x1="38.7871" y1="191.495" x2="703.197" y2="191.495" stroke="#FFBFE1" stroke-width="1.002"/>
<line x1="38.7871" y1="75.1299" x2="703.197" y2="75.1299" stroke="#FFBFE1" stroke-width="1.002"/>
<line x1="38.7871" y1="665.974" x2="703.197" y2="665.974" stroke="#FFBFE1" stroke-width="1.002"/>
<line x1="38.7871" y1="280.8" x2="703.197" y2="280.8" stroke="#FFBFE1" stroke-width="1.002"/>
<path d="M639.459 370.403H497.316V337.589C497.316 325.131 500.382 313.563 506.529 302.842C512.662 292.135 521.064 283.633 531.721 277.351L593.24 240.686C595.675 239.176 597.87 237.425 599.839 235.446C601.808 233.468 603.491 231.263 604.874 228.817C605.911 227.065 606.783 225.268 607.474 223.411C608.166 221.554 608.692 219.636 609.038 217.642C609.383 215.664 609.564 213.686 609.564 211.708C609.443 205.305 607.685 199.431 604.258 194.07C600.846 188.724 595.856 184.466 589.318 181.325C582.779 178.184 575.159 176.613 566.471 176.613C557.784 176.613 549.998 178.214 543.444 181.415C536.891 184.617 531.886 188.921 528.414 194.342C524.942 199.763 523.198 205.667 523.198 212.055V221.825H496.609V211.693C496.609 200.76 499.33 190.869 504.771 182.02C510.212 173.17 518.208 166.164 528.745 160.984C539.281 155.804 551.861 153.207 566.456 153.207C581.051 153.207 593.586 155.804 604.078 160.984C614.554 166.164 622.52 173.17 627.976 182.02C633.417 190.869 636.138 200.76 636.138 211.693C636.138 218.79 634.95 225.631 632.575 232.2C630.201 238.784 626.819 244.764 622.415 250.185C618.011 255.591 612.795 260.106 606.783 263.715L545.098 300.199C540.814 302.872 537.071 306.164 533.885 310.06C530.699 313.956 528.264 318.245 526.58 322.896C524.897 327.547 524.055 332.439 524.055 337.559V346.981H639.429V370.373L639.459 370.403Z" fill="#FFBFE1"/>
<path d="M454.788 549.17H399.536L146.527 191.627H201.779L454.788 549.17ZM201.779 549.17H146.527L399.536 191.627H454.788L201.779 549.17Z" fill="#FFBFE1"/>
</svg>
