<svg width="302" height="302" viewBox="0 0 302 302" fill="none" xmlns="http://www.w3.org/2000/svg">
<path d="M110.486 18.5674C110.486 18.588 110.512 18.6557 110.556 18.7469C110.512 18.6086 110.486 18.535 110.486 18.5674Z" fill="#221C35"/>
<path d="M112.317 21.9022C112.111 21.5461 110.863 19.3944 110.557 18.7468C110.754 19.3797 111.298 21.4313 111.298 21.4313L110.298 20.0949L110.727 22.1936L108.867 19.4739C110.583 23.0266 112.7 28.7311 111.569 30.506C111.569 30.506 111.97 30.35 112.708 30.1469C114.062 27.3182 112.926 23.5064 112.32 21.8993L112.317 21.9022Z" fill="#221C35"/>
<path d="M112.384 21.5815C113.58 23.3947 113.638 24.0511 113.441 25.0077C112.953 26.3823 114.46 27.8334 113.918 28.8931L112.505 29.0726L111.298 21.4314L112.384 21.5815Z" fill="#221C35"/>
<path d="M117.15 16.9248C117.15 17.1162 115.531 22.0759 115.296 28.0688C115.045 24.7309 114.981 22.7588 114.689 20.7837C114.842 21.134 114.939 21.3518 114.928 21.29C114.88 21.0516 114.545 17.4252 114.545 17.4252L115.166 19.8595C115.819 16.8277 115.699 16.6482 115.834 19.7152C115.834 19.7152 117.153 16.7365 117.153 16.9278L117.15 16.9248Z" fill="#221C35"/>
<path d="M129.224 27.2566C130.302 25.311 130.802 21.7523 130.934 18.6941L130.387 20.0981L129.672 16.8544L129.148 18.7147L128.862 16.616C128.724 18.747 129.062 23.5096 127.947 26.559L127.932 26.662C127.932 26.662 128.265 29.1493 129.224 27.2596V27.2566Z" fill="#221C35"/>
<path d="M114.104 24.834C114.112 24.8722 114.121 24.9017 114.124 24.9076C114.127 24.9135 114.121 24.887 114.104 24.834Z" fill="#221C35"/>
<path d="M110.486 18.5674C110.486 18.588 110.512 18.6557 110.556 18.7469C110.512 18.6086 110.486 18.535 110.486 18.5674Z" fill="#221C35"/>
<path d="M111.887 22.2644L113.02 24.5485C112.906 24.1246 112.776 21.1841 112.776 21.1841C112.776 21.1841 113.93 24.3101 114.104 24.834C113.998 24.3895 113.577 21.9435 113.638 22.0642C113.703 22.1937 114.857 24.5691 114.842 24.5191C114.828 24.469 114.371 21.0075 114.371 21.0075L115.313 23.7067V19.1148C115.231 19.5299 115.166 19.8595 115.166 19.8595L114.545 17.4253C114.545 17.4253 114.878 21.0516 114.928 21.2901C114.975 21.5285 113.447 17.805 113.447 17.805L113.733 21.3372C113.733 21.3372 112.779 18.2818 112.732 17.9963C112.685 17.7108 112.396 20.1922 112.396 20.1922L111.728 18.7116L112.349 21.9553C112.349 21.9553 110.892 19.4533 110.56 18.7469C110.754 19.5976 111.325 21.399 111.887 22.2644Z" fill="#221C35"/>
<path d="M46.6126 125.092C45.291 124.924 36.6401 123.932 33.1197 126.166C30.344 131.597 28.2659 136.951 30.1704 137.18C33.7202 137.607 45.1556 133.984 46.7892 133.062C48.6112 131.932 46.8481 127.111 46.6126 125.092Z" fill="#221C35"/>
<path d="M35.1657 122.36C34.9096 122.814 34.6565 123.273 34.4004 123.741C37.6676 122.528 41.7385 122.543 46.9837 124.22C46.9896 124.209 46.9984 124.2 47.0073 124.191C44.2728 121.18 39.6162 120.232 35.1686 122.36H35.1657Z" fill="#221C35"/>
<path d="M40.7376 114.13C39.884 114.993 39.3748 115.572 38.5801 116.762C40.6847 120.985 45.7033 120.055 45.7033 120.055C45.7033 120.055 41.447 119.464 40.7347 114.127L40.7376 114.13Z" fill="#221C35"/>
<path d="M43.8517 111.387C39.4129 118.466 47.7724 115.655 48.3287 123.011C49.0499 122.546 49.8681 122.198 50.5216 122.054C50.239 115.302 42.848 118.522 43.9635 111.307C43.9282 111.334 43.89 111.36 43.8517 111.387Z" fill="#221C35"/>
<path d="M46.3037 109.777C46.6422 114.804 52.8706 116.099 53.5652 121.021C57.1386 116.997 48.4466 113.83 48.8734 108.358C47.9167 108.855 47.072 109.32 46.3037 109.774V109.777Z" fill="#221C35"/>
<path d="M51.6964 106.931C51.505 111.116 53.6626 114.425 56.7738 115.655C55.4522 114.398 53.33 111.287 54.0835 105.756C53.227 106.174 52.4352 106.563 51.6964 106.931Z" fill="#221C35"/>
<path d="M57.6976 106.93C56.4113 109.839 56.741 113.777 58.1891 116.229C58.8249 115.723 59.5108 115.252 60.2143 114.822C58.0508 112.841 57.6358 109.059 57.6976 106.933V106.93Z" fill="#221C35"/>
<path d="M56.9531 104.352C62.3603 105.941 60.1085 110.898 62.2837 113.674C62.6016 113.515 62.9166 113.362 63.2257 113.218C60.5265 110.136 66.4017 105.488 59.6552 103.019C58.7575 103.466 57.7979 103.937 56.9531 104.352Z" fill="#221C35"/>
<path d="M64.5271 100.511C64.1327 100.72 63.7324 100.929 63.3262 101.141C63.6617 104.546 66.617 108.134 65.937 112.084C67.3852 111.54 67.9945 112.441 67.9945 112.441C69.7635 108.143 65.7428 103.289 64.5271 100.511Z" fill="#221C35"/>
<path d="M68.3916 98.4622C68.4828 100.258 70.4962 107.878 70.4962 107.878L71.8207 105.818C71.8207 105.818 69.7426 101.6 70.8994 97.1523C70.087 97.5703 69.254 98.006 68.3916 98.4622Z" fill="#221C35"/>
<path d="M75.5001 102.58C73.6428 99.7161 74.4081 97.4025 74.514 95.3804C74.0254 95.6041 73.528 95.8396 73.0217 96.0868C72.5331 98.7212 72.7038 101.108 73.8812 103.61L75.5001 102.58Z" fill="#221C35"/>
<path d="M80.4715 93.2695C79.5326 93.4667 78.5553 93.7582 77.5339 94.129C77.0247 95.7362 76.1741 99.9571 77.2661 101.991C76.9511 100.628 78.0373 96.0599 80.4715 93.2695Z" fill="#221C35"/>
<path d="M80.3568 101.55C80.3568 101.55 84.8455 96.9285 84.8603 93.1462C84.2745 93.0314 83.6711 92.9784 83.0559 92.9813C83.7977 95.6246 77.2661 101.947 77.2661 101.947L80.3568 101.553V101.55Z" fill="#221C35"/>
<path d="M90.2615 98.1293C89.352 96.946 88.4896 95.8981 87.7184 95.0769C85.0663 97.7231 83.7418 100.667 82.27 102.285L85.0663 104.052C85.0663 104.052 87.7449 98.8181 90.2615 98.1293Z" fill="#221C35"/>
<path d="M91.6683 100.016C88.8337 100.879 89.3488 103.784 88.1567 106.112L90.5115 107.878C91.3533 104.119 90.5763 102.536 92.6779 101.426C92.3394 100.946 92.0009 100.475 91.6683 100.013V100.016Z" fill="#221C35"/>
<path d="M93.9203 103.216C92.6605 103.975 92.1306 106.848 90.5117 107.878C92.2778 107.289 93.5052 105.456 95.1653 105.058C94.7562 104.446 94.3412 103.828 93.9203 103.216Z" fill="#221C35"/>
<path d="M96.0867 106.451C93.7584 106.618 92.7488 107.384 90.5117 107.878L94.0439 110.377C94.0439 110.377 95.5774 108.623 97.1551 108.093C96.8078 107.557 96.4516 107.007 96.0867 106.451Z" fill="#221C35"/>
<path d="M96.2515 112.882C98.0175 114.354 99.1949 115.09 101.503 115.97L101.588 115.175C101.267 114.642 100.072 112.67 98.4473 110.112C98.0529 111.873 96.2515 112.882 96.2515 112.882Z" fill="#221C35"/>
<path d="M183.228 276.527C186.083 274.923 182.692 269.84 182.604 268.948C178.357 267.09 173.364 266.926 170.559 267.014C157.608 281.331 174.992 280.354 183.228 276.527Z" fill="#221C35"/>
<path d="M208.818 228.737L207.514 227.827C204.277 234.009 195.272 233.255 195.272 233.255C198.734 234.615 207.956 238.012 208.815 228.737H208.818Z" fill="#221C35"/>
<path d="M190.422 236.891C190.18 237.535 189.907 238.2 189.606 238.883C193.1 242.098 197.772 242.86 200.497 241.809C201.842 240.084 203.096 238.598 204.206 237.232C199.052 239.864 193.936 239.116 190.419 236.891H190.422Z" fill="#221C35"/>
<path d="M195.944 248.296C196.65 247.16 197.351 246.109 198.037 245.129C194.655 246.648 189.833 246.645 187.308 243.537C187.037 244.034 186.757 244.538 186.475 245.041C188.473 248.585 192.732 249.141 195.944 248.299V248.296Z" fill="#221C35"/>
<path d="M266.699 93.4727C266.434 95.5537 266.761 97.0755 266.82 99.083C267.137 95.7804 267.638 92.0834 268.029 88.5071C267.391 90.0966 266.914 91.7655 266.702 93.4727H266.699Z" fill="#221C35"/>
<path fill-rule="evenodd" clip-rule="evenodd" d="M248.723 170.721C243.457 173.697 241.365 169.985 240.629 168.82L240.334 177.344C267.676 182.374 240.42 148.757 236.446 140.98C231.89 133.56 236.514 131.052 240.776 134.369C244.682 137.41 248.008 148.713 252.659 158.653C255.897 165.57 261.548 167.469 263.149 163.51C263.876 158.435 262.793 147.989 263.735 142.611C265.03 136.695 269.902 129.819 271.806 125.156C272.96 122.607 272.607 119.843 272.771 117.144C272.283 118.675 271.924 120.414 271.279 121.859C269.946 117.815 272.462 113.011 272.86 108.944C272.836 106.356 271.83 104.258 272.153 101.594C272.489 99.7158 272.136 98.0144 271.815 96.163C271.75 97.2374 271.347 98.2529 270.994 99.2713C271.509 96.8223 270.34 94.4646 270.62 93.4727C270.169 94.4469 270.885 95.5743 270.602 96.6251C270.62 94.9297 270.234 93.1606 269.766 91.5329C269.863 92.0274 269.86 92.7662 269.84 93.4756C269.681 92.0333 269.401 90.5939 269.213 89.237C269.466 92.1452 269.177 95.383 268.383 98.2087C268.668 94.7295 268.362 91.2827 268.333 87.7859C268.465 87.4827 268.604 87.1854 268.745 86.8881C268.592 87.0677 268.445 87.259 268.297 87.4621C268.262 87.0971 268.236 86.738 268.244 86.3818C268.147 88.5894 266.163 90.6028 266.213 92.828C266.043 94.7884 265.787 96.734 265.525 98.6767C265.38 96.4397 265.018 94.1379 265.183 92.0421C265.881 101.935 260.824 101.915 262.893 111.375C262.461 109.135 261.015 107.598 260.306 105.461C259.764 108.767 260.877 112.217 261.316 115.493C261.619 117.75 261.151 120.079 261.683 122.289C262.458 125.424 263.158 128.002 263.149 131.464C263.149 138.066 261.766 143.214 261.686 149.084C261.233 154.088 261.38 157.034 255.493 155.415C252.226 154.517 243.958 125.701 235.083 126.495C228.054 127.125 228.926 132.038 229.564 134.225C230.321 136.815 255.493 166.889 248.723 170.715V170.721ZM266.82 99.0829C266.443 95.5213 266.517 91.8685 268.03 88.507C267.641 92.0863 267.138 95.7803 266.82 99.0829Z" fill="#221C35"/>
<path d="M193.256 252.7C188.7 254.457 186.177 250.557 182.99 250.775C182.416 251.664 181.839 252.538 181.259 253.392C184.903 252.388 188.773 255.202 191.293 256.073C191.802 255.158 192.444 254.057 193.256 252.697V252.7Z" fill="#221C35"/>
<path d="M189.433 260.42C189.503 259.923 189.668 259.355 190.042 258.516C184.9 259.699 185.806 253.868 179.066 256.547C178.539 257.286 178.024 257.995 177.521 258.672C183.349 256.691 184.867 264 189.433 260.42Z" fill="#221C35"/>
<path d="M188.338 263.941C184.932 265.648 178.421 265.248 175.157 261.763C174.527 262.557 173.95 263.261 173.453 263.841C176.582 266.581 180.346 267.202 184.026 267.037C185.271 266.01 187.631 264.697 188.338 263.941Z" fill="#221C35"/>
<path d="M198.979 219.141C198.979 219.141 194.122 222.821 190.001 223.851C190.737 225.022 190.295 224.684 190.884 225.911C196.035 224.44 201.333 221.79 201.333 221.79L198.979 219.141Z" fill="#221C35"/>
<path d="M191.379 209.466C189.792 212.468 187.452 214.494 184.029 214.7C184.185 214.909 184.341 215.115 184.497 215.324C186.887 215.859 190.872 214.597 193.828 212.642C193.012 211.594 192.194 210.535 191.379 209.466Z" fill="#221C35"/>
<path d="M194.628 213.664C193.492 215.921 189.975 218.979 186.322 218.12C187.058 219.291 187.741 220.487 188.326 221.717C192.886 222.12 195.906 218.641 196.406 215.904C195.814 215.171 195.223 214.423 194.625 213.664H194.628Z" fill="#221C35"/>
<path d="M202.755 223.321C201.701 228.216 195.07 222.435 191.249 228.119C191.508 229.317 191.738 230.521 191.676 231.769C197.171 225.44 203.408 231.63 205.545 226.129C204.659 225.305 203.726 224.36 202.755 223.321Z" fill="#221C35"/>
<path d="M183.137 198.49C180.617 199.085 176.982 197.937 174.548 198.584C175.101 200.153 175.746 201.695 176.491 203.152C178.592 201.981 184.506 203.252 185.374 201.483C184.626 200.48 183.864 199.458 183.14 198.49H183.137Z" fill="#221C35"/>
<path d="M170.512 184.882H170.506C171.192 185.23 171.881 185.586 172.584 185.96C171.884 185.586 171.192 185.227 170.512 184.882Z" fill="#221C35"/>
<path d="M172.767 186.057C172.867 188.644 173.273 191.964 174.074 195.44C175.225 194.101 177.015 193.315 178.872 192.856C176.052 189.218 173.865 186.637 172.77 186.057H172.767Z" fill="#221C35"/>
<path d="M181.247 211.032C186.322 211.032 190.148 207.956 190.148 207.956C190.148 207.956 188.706 206.34 188.591 205.784C186.922 210.087 181.977 207.55 180.096 209.481C180.473 209.996 180.859 210.514 181.247 211.032Z" fill="#221C35"/>
<path d="M178.937 207.759C184.011 207.759 187.838 204.683 187.838 204.683C187.838 204.683 186.395 203.067 186.28 202.511C184.612 206.814 179.667 204.277 177.786 206.208C178.162 206.723 178.548 207.241 178.937 207.759Z" fill="#221C35"/>
<path d="M237.723 177.006C229.235 178.395 220.71 180.682 211.165 182.101C205.21 182.869 200.942 187.923 193.165 189.421C187.835 190.448 183.14 191.114 178.733 192.683C180.067 194.399 181.541 196.356 183.113 198.458C186.69 197.787 189.25 196.674 193.162 195.017C199.582 192.3 203.409 191.947 211.421 190.469C222.014 188.397 230.856 188.656 238.147 184.247C239.469 181.954 240.172 179.622 240.408 177.318C239.825 177.094 239.004 176.923 237.723 177V177.006Z" fill="#221C35"/>
<path d="M228.398 173.517C220.01 177.011 207.591 172.425 198.978 176.605C193.916 179.125 191.246 182.592 185.818 184.123C182.342 185.103 179.295 187.767 176.258 189.583C176.511 189.889 176.776 190.21 177.047 190.545C182.772 188.029 186.224 188.105 192.812 187.352C201.392 186.366 198.628 182.572 207.874 180.694C217.122 178.813 220.068 180.229 226.694 176.605C232.213 173.585 237.143 173.697 240.511 174.857C240.558 174.259 240.599 173.673 240.629 173.097C236.193 171.554 232.293 171.825 228.398 173.514V173.517Z" fill="#221C35"/>
<path d="M55.1754 149.587C54.7103 154.147 58.684 162.115 59.5729 162.962C60.353 163.742 70.7228 152.522 70.9347 149.328C71.1467 146.132 66.5313 144.501 67.17 143.15C67.17 143.15 57.0357 144.006 55.1725 149.587H55.1754Z" fill="#221C35"/>
<path d="M227.195 287.465C227.801 285.131 226.853 281.664 227.345 278.876C225.67 276.989 218.721 275.002 214.361 276.195C210.685 279.903 207.591 283.241 209.054 286.341C211.745 292.033 226.321 290.844 227.195 287.468V287.465Z" fill="#221C35"/>
<path fill-rule="evenodd" clip-rule="evenodd" d="M108.349 46.18C107.684 48.3582 107.171 48.6908 106.812 48.8703L106.809 48.8644C106.453 49.044 106.989 49.4796 107.528 49.1205C106.992 50.6835 105.07 52.2995 103.61 51.6578C102.246 51.0612 101.596 51.0655 101.121 51.0687C101.087 51.0689 101.055 51.0691 101.023 51.0691C100.685 51.0691 100.83 50.697 100.915 50.4796C100.952 50.3847 100.977 50.3193 100.946 50.3274C100.27 50.4024 100.135 51.2715 99.9991 52.1406C99.8848 52.873 99.7705 53.6054 99.333 53.8625C99.662 52.9598 99.6555 51.9362 99.6499 51.0463C99.6461 50.4475 99.6427 49.9092 99.7421 49.5091C102.15 45.6914 103.354 44.3609 105.07 44.7966C105.497 44.9049 105.868 45.0166 106.203 45.1173C107.214 45.4212 107.891 45.6249 108.758 45.3352C108.082 45.9386 107.115 45.9034 106.121 45.8671C105.006 45.8265 103.857 45.7846 103.048 46.6421C103.937 46.1071 105.076 46.1977 106.146 46.2828C106.971 46.3484 107.754 46.4107 108.349 46.18ZM104.281 47.5369C104.29 48.0403 103.495 48.0403 103.504 47.5369C103.498 47.0307 104.29 47.0336 104.281 47.5369Z" fill="#221C35"/>
<path d="M118.289 161.682C127.423 147.683 139.782 154.897 154.07 134.134C149.508 137.908 144.13 139.1 140.389 142.47C136.589 145.89 130.481 146.558 125.136 147.188C119.876 147.806 115.984 153.296 112.414 155.718C114.442 157.994 116.394 159.966 118.292 161.685L118.289 161.682Z" fill="#221C35"/>
<path d="M141.825 174.298C143.459 174.792 145.134 175.281 146.862 175.79C150.556 173.883 154.953 168.634 155.827 164.358C156.793 159.633 160.549 153.732 161.623 149.973C162.697 146.217 163.36 146.535 166.259 143.85C169.158 141.166 165.918 141.707 162.589 143.747C159.262 145.787 156.148 155.233 152.928 159.098C149.74 162.924 135.197 166.224 131.573 170.559C132.606 171.033 133.64 171.472 134.682 171.878C141.16 170.527 149.861 164.619 150.888 165.647C152.142 166.901 147.603 168.764 141.822 174.301L141.825 174.298Z" fill="#221C35"/>
<path d="M227.027 195.214C228.834 193.598 232.961 190.766 235.183 188.677C223.565 194.281 222.247 189.577 213.257 193.848C209.622 195.55 209.552 194.693 205.51 195.903C201.472 197.112 200.283 197.789 197.639 198.687C192.415 199.779 190.275 201.06 187.796 204.718C187.796 204.718 188.282 205.566 188.532 205.896C189.351 205.604 190.475 205.186 191.655 204.189C195.776 200.706 193.298 203.559 201.366 199.759C207.844 196.983 205.56 199.123 213.725 196.951C218.355 195.697 222.297 195.62 227.03 195.211L227.027 195.214Z" fill="#221C35"/>
<path d="M205.619 204.707C207.22 204.707 211.206 207.668 213.207 206.999C214.997 206.405 221.937 205.136 221.937 205.136L222.379 202.805C222.379 202.805 211.244 204.751 207.815 203.397C210.973 199.288 218.261 201.392 223.306 200.795C224.304 199.735 224.751 198.299 226.058 197.209C221.149 197.374 217.378 197.545 213.987 198.51C209.64 199.75 209.645 200.957 206.093 202.107C202.537 203.255 203.432 202.275 200.927 202.802C198.422 203.332 196.556 203.723 195.593 205.136C194.646 206.526 194.44 208.212 190.151 207.953C190.581 208.468 191.475 209.572 191.475 209.572C201.586 209.834 198.751 206.44 202.952 205.136C204.333 204.708 204.564 204.707 205.619 204.707Z" fill="#221C35"/>
<path d="M210.164 209.369C209.919 208.513 205.651 209.369 205.651 209.369C205.651 209.369 207.485 208.38 206.446 207.694C204.724 206.167 196.718 213.664 193.542 212.274C193.936 212.781 194.328 213.284 194.722 213.781C198.34 214.296 199.723 214.399 202.367 213.107C205.763 211.447 210.723 211.329 210.167 209.369H210.164Z" fill="#221C35"/>
<path d="M208.398 193.092C204.565 193.842 189.777 196.067 185.438 201.48C185.833 201.987 185.93 202.16 186.322 202.658C190.001 198.978 194.128 198.505 196.771 197.212C199.414 195.92 208.398 193.092 208.398 193.092Z" fill="#221C35"/>
<path d="M205.748 220.319C205.748 220.319 203.099 220.466 201.333 221.79C201.727 222.297 202.413 222.912 202.805 223.409C205.748 222.232 205.748 220.319 205.748 220.319Z" fill="#221C35"/>
<path d="M220.522 269.41C220.107 269.981 219.659 270.546 219.188 271.099C224.749 270.116 230.009 272.565 231.875 273.572C233.032 272.536 233.9 271.355 234.256 269.46C230.115 267.873 225.461 271.132 220.519 269.407L220.522 269.41Z" fill="#221C35"/>
<path d="M229.108 275.727C226.473 272.754 221.605 272.43 217.758 272.71C217.107 273.41 216.436 274.099 215.768 274.773C222.12 273.278 226.076 275.173 227.992 277.004C228.266 276.527 228.631 276.095 229.108 275.724V275.727Z" fill="#221C35"/>
<path d="M233.929 265.239C234.065 265.316 234.2 265.383 234.333 265.451C234.138 263.779 233.841 261.907 233.744 260.415C229.552 259.423 225.573 262.817 223.297 262.852C222.947 264.489 222.703 265.848 221.923 267.214C225.917 266.525 230.1 263.137 233.932 265.239H233.929Z" fill="#221C35"/>
<path d="M224.077 255.584C224.063 256.014 224.048 256.444 224.024 256.868C227.012 254.548 231.36 255.452 233.661 256.709C233.703 255.623 233.8 254.489 233.964 253.236C232.24 252.564 228.328 251.749 224.077 255.584Z" fill="#221C35"/>
<path d="M224.063 252.02C224.081 252.447 224.089 252.871 224.095 253.297C226.85 248.114 231.787 247.019 234.851 248.07C235.063 247.022 235.304 245.883 235.578 244.641C232.835 244.635 228.293 245.765 224.06 252.02H224.063Z" fill="#221C35"/>
<path d="M236.773 232.667C232.87 233.682 227.589 243.245 222.892 243.663C223.354 245.4 223.675 247.284 223.869 249.224C226.594 243.284 231.643 239.033 236.617 240.01C237.229 237.096 237.22 234.733 236.773 232.667Z" fill="#221C35"/>
<path d="M235.248 228.646C234.683 227.607 234.018 226.597 233.282 225.576C233.367 229.773 225.417 236.879 217.958 235.236C218.962 236.231 220.021 237.255 220.781 238.521C228.272 239.13 234.65 232.04 235.248 228.643V228.646Z" fill="#221C35"/>
<path d="M228.125 218.473C228.301 226.07 212.312 224.319 211.105 229.95C212.018 230.491 213.148 231.227 214.402 232.178C217.737 225.42 229.546 231.601 230.344 221.649C229.614 220.663 228.866 219.615 228.122 218.473H228.125Z" fill="#221C35"/>
<path d="M225.829 214.517C216.395 213.978 204.277 222.673 205.454 226.206C206.043 226.647 205.878 226.741 207.515 227.825C210.058 223.415 215.803 217.949 226.153 215.126C226.047 214.923 225.938 214.723 225.829 214.514V214.517Z" fill="#221C35"/>
<path d="M224.086 210.623C223.633 209.737 223.271 208.913 222.985 208.139C214.022 208.239 206.952 219.012 196.515 216.033C197.348 217.066 198.172 218.073 198.984 219.038C212.212 220.737 211.052 211.07 224.531 211.703C224.38 211.35 224.233 210.994 224.092 210.623H224.086Z" fill="#221C35"/>
<path d="M125.989 19.2622C127.32 23.3801 125.483 26.9918 125.483 26.9918C125.483 26.9918 125.477 27.1596 126.74 26.4237C129.045 22.1822 124.391 11.2707 121.607 11.7917C120.412 12.0154 118.996 13.8109 117.821 16.3011C120.779 12.7837 124.688 15.2326 125.989 19.2622Z" fill="#221C35"/>
<path d="M126.881 59.0224C129.192 49.0588 139.317 47.0072 149.466 40.1577C148.672 39.2629 147.491 38.2121 146.741 37.3791C131.017 44.1844 128.261 53.318 126.248 54.9869C124.158 56.7206 127.758 44.6347 137.027 39.5631C138.54 38.7331 143.12 36.0221 144.121 35.1656C143.291 34.2678 141.501 33.061 140.474 32.4429C129.913 41.1497 123.128 44.0607 123.832 56.7088C123.405 62.5958 124.023 63.7908 123.493 65.4303C122.963 67.0669 122.651 68.4386 124.291 68.0853C125.927 67.7321 126.024 62.3544 126.884 59.0253L126.881 59.0224Z" fill="#221C35"/>
<path d="M139.547 78.4256C130.239 83.8828 123.346 89.0221 113.182 93.9966C113.182 93.9966 111.863 95.5713 108.92 100.037C111.357 97.0431 127.87 92.6897 135.108 89.4813C145.381 84.9278 142.92 83.5178 152.881 78.7818C161.349 74.7551 165.22 72.7595 167.539 69.8866C166.806 68.3001 166.103 66.7077 165.411 65.1094C157.926 69.139 156.015 71.4113 150.87 72.6005C145.472 73.8456 145.284 75.4174 139.553 78.4256H139.547Z" fill="#221C35"/>
<path d="M117.792 48.3965C116.161 44.8379 115.799 40.5551 115.478 36.1811C114.804 34.0972 115.296 33.8646 116.726 34.9979C118.154 36.1282 119.802 36.1959 120.273 35.0185C120.744 33.8411 116.149 33.7675 116.126 32.8167C116.102 31.8689 118.804 33.5438 123.885 32.6107C128.276 31.8013 130.175 30.5326 130.714 27.3213C131.285 27.5538 132.156 27.7952 132.636 28.0601C131.829 32.7579 122.487 36.5638 118.557 37.4792C116.614 38.0061 117.386 41.0467 117.918 42.8275C118.272 46.0741 118.969 50.9691 117.789 48.3936L117.792 48.3965Z" fill="#221C35"/>
<path d="M127.302 30.1999C126.655 30.0204 125.895 30.7504 125.23 30.9005C123.985 31.1831 122.699 31.5451 121.418 31.5422C120.886 31.5392 118.799 31.5333 118.734 30.6768C119.237 29.8379 121.168 30.5267 122.048 30.2058C124.271 29.2992 127.435 29.5288 127.944 26.553C128.315 26.6531 128.989 26.7973 129.433 26.9386C128.777 27.8893 128.821 29.105 128.63 30.1764C128.43 31.2684 127.903 30.3677 127.302 30.1999Z" fill="#221C35"/>
<path d="M135.656 29.4111C133.533 35.0979 127.058 35.3128 123.034 39.622C119.467 43.5751 118.345 48.6379 119.355 54.0097C120.249 57.5448 122.648 60.9681 121.483 57.6567C119.34 51.7727 120.7 42.9187 127.482 39.622C132.221 37.2231 137.183 33.1199 138.487 31.1095C137.637 30.2589 136.135 29.7614 135.656 29.4111Z" fill="#221C35"/>
<path d="M114.024 39.678C113.712 36.7345 112.499 35.6513 111.919 39.104C111.339 42.5567 112.735 48.0198 114.792 53.2798C116.073 56.55 118.945 61.2566 118.945 61.2566C118.945 61.2566 122.948 66.4812 122.121 63.3199C121.297 60.1586 119.251 58.6104 116.994 52.7558C114.736 46.9013 114.021 39.678 114.021 39.678H114.024Z" fill="#221C35"/>
<path d="M106.633 48.894C108.44 41.7443 108.299 51.9728 105.915 52.7529C104.264 54.0421 102.712 53.2945 103.004 54.6985C103.295 56.1025 102.533 57.5566 101.906 55.8141C100.287 51.443 106.359 54.5395 106.63 48.894H106.633Z" fill="#221C35"/>
<path d="M100.631 57.7273C102.144 54.722 103.125 55.5521 105.529 54.8309C108.741 52.9795 113.983 59.0754 110.401 58.6839C109 58.3013 104.508 57.1886 102.1 58.5839C99.6925 59.9791 100.631 57.7273 100.631 57.7273Z" fill="#221C35"/>
<path d="M120.691 72.4064C114.442 75.4499 116.703 63.1491 110.545 61.8187C106.554 60.6384 103.048 60.4029 100.546 61.6185C98.0383 62.8342 94.7416 65.0977 97.9235 64.0763C101.105 63.0579 103.125 61.9806 103.557 63.0049C103.987 64.0292 100.396 63.6613 98.6564 65.71C96.9168 67.7586 96.5341 70.1958 97.5703 68.8242C99.2834 64.4619 107.846 62.6546 111.057 65.5069C114.171 67.4967 115.961 79.2911 120.688 72.4093L120.691 72.4064Z" fill="#221C35"/>
<path d="M110.159 68.3768C113.041 71.0142 112.102 70.9259 109.821 69.5807C107.16 68.106 98.0734 69.9457 97.729 73.0658C97.5318 74.249 96.793 74.6405 96.8901 73.2542C96.9843 71.8678 97.832 68.0648 101.043 67.2554C104.255 66.4488 108.172 66.5548 110.162 68.3739L110.159 68.3768Z" fill="#221C35"/>
<path d="M98.5006 74.9851C101.312 71.2969 111.808 69.8311 114.625 72.9629C115.323 74.2904 115.187 77.6931 116.759 78.844C116.235 79.4238 115.679 80.042 115.078 80.6954C114.201 79.8948 114.292 78.8587 113.312 77.0455C112.147 74.8938 113.086 73.3191 110.03 72.6597C106.975 72.0004 105.756 75.2058 100.167 76.0536C94.574 76.9042 98.5006 74.9851 98.5006 74.9851Z" fill="#221C35"/>
<path d="M111.08 75.5471C112.761 77.7723 111.057 79.0204 111.955 79.7621C112.861 80.5186 115.163 78.9909 115.625 80.0918C115.01 80.7659 114.348 81.4841 113.627 82.2494C111.186 81.7902 110.43 81.7372 109.921 79.1734C109.232 76.8128 107.707 75.7237 105.473 77.3338C103.239 78.9468 102.026 79.041 102.026 79.041V78.0284C106.23 76.0004 109.397 73.3189 111.08 75.5412V75.5471Z" fill="#221C35"/>
<path d="M105.2 42.7332C104.508 42.901 102.347 44.2756 101.238 44.1579C101.385 43.6163 101.565 43.0688 101.774 42.5154C104.52 41.9238 105.977 39.6661 107.137 37.2613C108.335 34.7829 109.886 34.8565 109.897 35.6247C109.909 36.393 108.682 35.8897 107.195 39.7574C105.709 43.628 107.917 44.9585 106.989 44.5081C106.059 44.0607 106.133 42.5066 105.2 42.7332Z" fill="#221C35"/>
<path d="M102.041 41.8474C102.792 39.6015 104.79 38.1386 105.826 36.037C106.574 34.4917 108.211 33.7175 109.12 32.2958C110.124 31.4275 111.398 31.9544 112.37 32.6579C112.587 32.7785 113.191 32.9404 112.867 33.326C111.157 34.0501 110.71 31.8249 108.367 34.2709C107.784 34.9332 107.263 35.6425 106.621 36.246C104.92 37.8914 104.587 41.3293 102.044 41.8415L102.041 41.8474Z" fill="#221C35"/>
<path d="M123.544 69.6985C121.848 70.3549 121.312 70.7464 119.682 67.223C117.751 63.058 116.432 62.5665 115.314 58.6752C114.195 54.7839 113.545 54.9694 111.896 52.1142C110.248 49.259 110.168 45.2235 110.207 42.0387C110.248 38.8539 112.211 37.0378 111.743 35.7544C111.275 34.4711 110.84 35.4954 110.84 35.4954C110.454 37.5735 106.934 39.9871 108.096 43.4898C109.256 46.9896 108.617 51.4166 111.414 54.8811C114.21 58.3485 112.717 60.0969 116.129 64.5386C119.17 68.4976 120.038 71.6824 121.901 71.8855C122.351 71.3586 122.908 70.6404 123.541 69.6985H123.544Z" fill="#221C35"/>
<path d="M120.488 30.2765C116.67 29.8261 115.019 27.7127 111.566 30.509C113.356 30.2765 114.121 29.8791 115.943 30.6091C118.03 31.966 125.501 31.8454 126.852 30.0793L121.315 30.7739L120.485 30.2765H120.488Z" fill="#221C35"/>
<path d="M155.98 48.27C148.342 54.0127 133.925 58.8165 129.189 67.8853C125.551 72.6537 123.973 75.1056 126.063 69.8545C127.702 59.5052 148.098 51.3077 154.565 46.2773C153.793 45.1617 152.501 43.7989 151.765 42.7451C145.649 46.5098 134.369 50.2215 130.705 55.6817C126.337 62.6165 123.446 77.4045 118.99 85.6374C119.62 86.2584 120.562 85.031 121.033 84.2216C126.157 71.2909 147.02 59.1167 159.312 53.3328C158.223 51.6138 157.134 49.9684 155.983 48.27H155.98Z" fill="#221C35"/>
<path d="M162.126 58.1658C143.668 64.0439 125.539 74.6257 114.678 91.9303C121.03 86.5732 129.124 81.8695 134.873 76.6625C143.744 69.919 156.145 68.3207 164.402 62.7811C163.863 61.5213 162.665 59.4256 162.126 58.1658Z" fill="#221C35"/>
<path d="M92.8664 120.388C93.7663 114.121 94.6325 113.324 96.2514 112.882C95.6686 112.794 94.5736 110.43 94.0438 110.38C91.8362 113.912 93.1872 116.558 90.5116 118.18C88.5719 120.044 89.4667 123.114 89.4814 125.48C89.1488 128.5 87.5063 131.411 87.4092 134.472C87.4916 135.214 88.0979 136.356 88.8279 135.473C89.3519 134.84 89.3872 133.613 89.6845 132.848C91.009 129.71 92.3837 123.749 92.8664 120.388Z" fill="#221C35"/>
<path d="M97.6674 118.322C95.3333 119.261 94.5326 124.241 94.3884 126.572C93.5495 130.354 92.5782 134.29 90.8798 137.757C90.4824 138.158 89.7642 138.208 89.7524 138.958C92.8784 140.554 95.2302 131.965 95.2921 129.669C95.6453 125.816 96.5872 122.01 97.6674 118.319V118.322Z" fill="#221C35"/>
<path d="M96.2634 145.254C100.991 145.976 101.356 140.795 101.518 137.378C101.6 136.45 101.815 134.805 100.982 134.208C100.04 136.648 99.672 139.276 98.683 141.749C98.2856 142.785 97.1465 143.22 96.4518 144.036C96.1221 144.286 95.5746 144.41 95.5305 144.951C95.4687 145.714 96.0427 145.343 96.3576 145.293L96.2634 145.254Z" fill="#221C35"/>
<path d="M101.223 148.121C101.223 148.121 101.252 148.139 101.264 148.148C101.232 148.104 101.194 148.065 101.161 148.015L101.223 148.118V148.121Z" fill="#221C35"/>
<path d="M106.065 143.921C106.827 143.382 109.244 142.196 108.379 140.733C107.628 139.476 106.097 142.626 105.297 143.047C104.779 142.134 105.429 141.027 105.815 140.177C107.599 136.777 106.342 132.989 105.403 129.636C104.599 126.207 107.666 123.081 105.891 119.637C105.741 119.19 105.103 117.371 104.455 117.647C103.354 118.91 105.494 120.641 105.188 122.116C105.094 123.811 104.249 126.198 103.619 127.729C101.894 130.581 103.79 130.163 103.51 132.912C103.701 137.401 104.264 142.808 101.373 146.508C100.487 147.323 97.9028 148.978 96.8638 147.9C100.081 151.962 103.931 146.214 106.068 143.921H106.065Z" fill="#221C35"/>
<path d="M106.333 150.461C110.465 147.223 114.006 143.488 118.266 140.436C119.437 139.314 120.344 138.867 121.848 138.499C122.448 138.349 123.54 138.04 123.52 137.407C120.906 133.94 118.949 129.574 115.24 127.005C112.738 125.05 111.616 121.324 108.178 120.72C108.117 120.756 108.025 120.821 107.958 120.865C108.529 123.87 109.479 127.623 112.355 129.28C115.737 131.028 120.497 137.86 115.078 139.988C113.63 140.686 113.362 138.443 113.577 137.266C113.718 136.506 114.298 135.626 114.245 134.858C113.818 133.513 110.362 128.677 108.926 128.653C108.95 128.647 108.694 128.529 108.688 128.527C108.261 129.38 109.247 130.861 109.535 131.676C110.801 134.411 111.961 137.301 111.266 140.356C112.85 140.636 112.744 141.993 111.248 142.44C110.183 143.164 109.6 144.304 108.564 145.063C107.393 145.925 107.416 147.05 106.521 148.054C106.039 148.595 104.09 149.755 104.04 150.217L103.884 150.082C103.419 150.444 102.395 150.632 101.879 150.617C102.874 151.745 105.291 151.209 106.327 150.461H106.333Z" fill="#221C35"/>
<path d="M134.826 138.149C133.11 136.35 131.311 134.378 129.348 132.786C128.029 130.893 126.437 129.08 124.951 127.338C120.577 121.695 119.785 120.918 113.065 118.292C111.946 117.895 112.438 116.929 111.246 116.506C109.833 115.996 108.335 116.317 106.881 116.023C104.97 115.237 103.484 114.395 101.42 115.369C101.853 115.955 103.269 116.038 103.969 116.332C104.679 116.629 105.162 117.056 105.927 117.244C107.552 117.642 109.35 117.721 110.578 118.902C111.614 119.982 111.625 121.401 113.339 121.515C116.223 122.572 117.763 125.474 119.944 127.494C121.586 129.127 123.452 130.555 124.677 132.603C125.445 133.89 126.148 135.255 127.034 136.412C127.832 137.437 129.242 138.632 128.718 139.965C126.234 139.444 123.882 139.306 121.942 141.219C116.718 144.31 113.362 150.332 107.207 151.601H107.237C104.938 151.845 107.708 152.074 109.335 152.375C111.437 152.622 116.432 148.678 118.366 147.359C119.449 146.164 120.17 144.545 121.972 144.392C124.303 143.594 126.99 141.94 128.88 140.259C130.349 140.654 131.906 141.799 133.278 141.039C134.231 140.51 135.891 139.341 134.826 138.143V138.149Z" fill="#221C35"/>
<path d="M101.832 116.132C100.407 115.463 100.198 116.873 100.407 117.971C99.5272 121.403 98.4293 124.8 98.3116 128.406C97.976 132.259 96.5779 136.097 94.8412 139.517C94.0583 140.904 92.4688 141.946 92.7249 143.676C92.7926 144.083 93.0693 144.524 93.3989 144.2C93.8611 143.7 94.385 142.32 95.2769 141.899C96.1481 141.236 96.4984 139.547 96.9811 138.472C99.1534 134.946 101.034 130.893 100.546 126.646C100.051 123.567 103.08 118.012 101.835 116.134L101.832 116.132Z" fill="#221C35"/>
<path d="M81.6343 126.166C82.8411 127.602 84.1303 129.257 85.187 130.887C84.6867 125.095 88.8605 110.077 90.5118 107.878C83.5534 112.991 85.2577 121.227 81.6372 126.169L81.6343 126.166Z" fill="#221C35"/>
<path d="M88.3273 106.236C87.15 105.406 86.0815 104.664 85.116 104.025C82.4316 105.279 81.4131 110.201 80.5948 112.393C79.8325 114.492 80.4035 118.213 79.7354 123.075C82.4257 119.102 82.6111 110.095 88.3244 106.239L88.3273 106.236Z" fill="#221C35"/>
<path d="M80.4657 101.503C78.0344 104.116 77.0895 109.744 78.211 114.107C78.5789 110.248 79.5709 107.004 82.3701 102.339C81.6548 101.953 81.022 101.668 80.4627 101.503H80.4657Z" fill="#221C35"/>
<path d="M73.8813 103.61C74.0373 107.584 73.2926 111.557 73.2926 118.18C72.9247 114.321 72.5568 109.838 71.8209 105.818C72.4096 104.935 73.2927 104.052 73.8813 103.61Z" fill="#221C35"/>
<path d="M76.8245 112.735C76.0886 109.644 76.3624 103.457 77.4073 101.821C76.705 102.069 76.2358 102.286 75.4999 102.58C74.4697 108.025 75.4048 118.346 74.0488 125.292C75.2233 123.317 76.068 122.231 77.2396 122.407C76.8245 118.769 77.4073 116.561 76.8245 112.735Z" fill="#221C35"/>
<path d="M72.109 122.216C73.1245 117.689 70.2959 111.555 70.549 107.793C69.5335 109.344 68.6828 110.363 67.9058 112.482C69.9191 113.73 69.5306 115.246 72.109 122.216Z" fill="#221C35"/>
<path d="M65.9104 117.639C65.8868 117.624 65.8633 117.612 65.8397 117.597C65.463 118.504 65.0538 119.475 64.6152 120.494C68.2386 122.56 70.9878 127.841 71.6913 130.069C72.0858 129.139 72.5361 128.156 73.0571 127.117C70.2049 124.114 70.0489 120.105 65.9104 117.639Z" fill="#221C35"/>
<path d="M62.8255 124.562C62.2339 125.872 61.6158 127.205 60.9771 128.53C66.0928 129.463 66.2547 135.594 69.9134 135.058C70.1725 134.172 70.4845 133.21 70.8612 132.177C67.4174 130.896 66.084 125.748 62.8226 124.565L62.8255 124.562Z" fill="#221C35"/>
<path d="M64.765 134.805C63.6259 133.059 62.3014 131.261 59.6493 131.22C59.196 132.103 58.7133 133.048 58.3218 133.904C62.1483 132.736 65.3478 139.12 69.4393 136.786C69.4834 136.618 69.5276 136.444 69.5747 136.268C68.1912 136.38 65.7629 136.333 64.765 134.805Z" fill="#221C35"/>
<path d="M56.2349 139.397C57.9156 138.346 60.8414 137.039 64.0969 137.666C61.4183 136.771 60.132 135.938 57.0679 136.883C56.7382 137.766 56.4615 138.605 56.2349 139.397Z" fill="#221C35"/>
<path d="M55.3107 144.257C55.2106 145.31 55.1783 146.293 55.1694 147.235C58.1335 143.282 62.6694 140.621 68.5711 140.203C68.7653 139.512 68.9537 138.732 69.1686 137.852C64.8417 139.27 58.7163 139.397 55.3107 144.257Z" fill="#221C35"/>
<path d="M169.105 76.0532C165.052 80.1623 159.1 81.2985 150.664 86.0669C141.381 91.3151 140.083 91.895 133.436 93.7523C129.854 94.7531 127.726 95.4831 126.148 96.5133H126.098C110.36 105.57 107.363 97.5494 103.336 110.972C112.567 106.386 122.007 102.203 130.672 103.463C136.777 103.224 137.993 100.307 142.82 97.5258C148.027 94.5264 151.677 92.1864 156.113 89.084C161.273 85.7902 166.783 86.0169 170.356 80.8835C169.982 79.2498 169.564 77.6398 169.111 76.0503L169.105 76.0532Z" fill="#221C35"/>
<path d="M171.495 86.6853C167.525 90.7738 161.635 92.0542 153.372 96.9404C142.629 103.731 138.855 103.858 129.931 107.337C126.134 108.273 123.746 106.024 117.856 107.934C111.967 109.845 110.324 108.373 103.092 111.36L102.936 112.032C108.429 112.114 115.49 110.43 120.088 111.36C124.685 112.291 128.359 113.062 134.593 113.191C139.821 112.579 141.443 109.533 145.937 106.825C151.085 103.722 154.497 101.785 158.871 98.6005C163.663 95.292 168.805 97.0993 172.243 92.1955C172.046 90.3411 171.796 88.5073 171.492 86.6912L171.495 86.6853Z" fill="#221C35"/>
<path d="M172.487 94.8328C164.911 99.7661 155.459 103.122 147.303 110.095C139.532 116.647 129.798 120.005 120.091 115.678C118.61 114.742 115.443 114.154 114.142 113.474C112.526 112.629 110.907 113.191 108.517 113.262C106.127 113.333 102.68 112.77 102.68 112.77L102.188 113.753C102.188 113.753 105.494 114.245 107.251 114.528C109.008 114.807 110.557 113.824 113.018 115.581C115.478 117.339 118.431 117.621 120.891 119.166C123.352 120.712 124.476 123.947 128.865 124.812C132.901 124.889 138.908 121.957 146.455 116.788C154.002 111.619 160.946 104.476 167.039 102.659C169.762 101.847 171.49 101.105 172.746 100.11C172.711 98.3355 172.623 96.5724 172.484 94.824L172.487 94.8328Z" fill="#221C35"/>
<path d="M172.69 104.499C171.666 105.099 170.365 105.538 168.393 106.077C162.862 107.59 161.597 110.177 155.998 114.074C150.4 117.971 146.879 120.141 140.445 124.132C133.922 128.173 132.3 129.292 128.359 128.665C130.196 131.37 131.744 132.415 134.555 131.75C138.632 130.137 142.555 128.041 145.655 125.471C153.952 118.501 163.58 112.19 172.582 106.963C172.623 106.1 172.658 105.229 172.688 104.496L172.69 104.499Z" fill="#221C35"/>
<path fill-rule="evenodd" clip-rule="evenodd" d="M169.953 127.058C168.846 131.052 167.251 134.723 164.778 134.893C162.303 135.067 166.438 139.326 170.318 136.606C174.197 133.89 174.091 131.317 177.953 132.618C181.818 133.919 180.299 131.806 183.416 131.502C186.534 131.199 189.368 131.959 196.067 134.44C202.767 136.918 203.541 137.431 201.263 138.567C198.984 139.703 198.678 135.747 188.968 135.726C179.254 135.706 171.701 136.83 168.393 145.204C165.084 153.578 159.021 164.025 163.374 159.536C167.728 155.047 170.974 154.132 176.929 147.644C182.881 141.154 187.352 141.328 195.075 142.261C202.796 143.194 205.725 143.597 211.006 144.863C216.283 146.128 216.578 146.738 218.506 146.343C219.686 146.102 225.328 146.44 224.696 148.336C224.322 149.452 219.13 150.388 216.351 149.466C209.322 147.677 193.418 141.955 185.798 147.968C180.599 152.207 175.996 155.392 171.322 157.437C166.647 159.48 165.394 159.356 161.234 165.638C157.205 172.108 156.775 172.181 151.215 177.108C153.269 177.75 155.412 178.46 157.661 179.284C161.373 175.875 165.458 172.911 171.177 168.89C180.747 162.159 184.444 163.339 188.579 159.23C192.718 155.121 194.225 155.05 199.97 154.467C205.719 153.887 205.407 154.161 211.992 156.457C223.565 161.502 228.516 150.299 234.377 155.539C236.599 157.473 238.08 157.74 238.459 157.776C236.664 153.381 234.912 151.029 231.704 149.463C228.295 147.506 228.331 146.92 226.2 145.59C217.652 141.095 215.962 142.275 205.79 136.686C196.839 132.191 187.917 130.584 182.819 126.94C178.015 123.505 174.395 122.383 174.368 118.581C173.938 118.26 173.091 117.874 172.667 117.547C172.314 122.345 170.995 123.314 169.956 127.058H169.953ZM179.637 128.176C180.856 127.175 179.343 126.731 179.343 126.731C173.441 123.249 173.185 123.219 172.973 126.275C172.758 129.33 176.652 129.539 179.637 128.176Z" fill="#221C35"/>
<path d="M138.028 161.811C163.842 150.92 149.743 142.696 165.885 138.561C174.206 136.053 166.347 135.812 164.354 134.811C163.03 134.216 163.095 133.145 163.354 131.897C164.69 127.923 172.679 121.86 172.134 117.256C171.981 117.179 171.822 117.103 171.678 117.023C170.754 119.861 169.647 120.859 167.192 123.269C156.99 131.75 154.473 140.969 142.484 149.675C129.801 160.133 129.548 155.677 121.3 164.237C122.89 165.496 124.453 166.594 126.004 167.563C129.524 165.941 133.43 164.343 138.031 161.814L138.028 161.811Z" fill="#221C35"/>
<path d="M226.415 143.759C220.507 139.514 214.27 137.431 207.359 134.902C207.223 134.849 207.082 134.793 206.943 134.74C194.413 130.204 183.94 121.93 171.669 117.023C188.876 132.594 220.018 135.444 235.192 151.868C232.743 148.527 229.676 145.955 226.412 143.762L226.415 143.759Z" fill="#221C35"/>
<path d="M180.758 170.539C175.395 172.999 169.264 178.28 164.97 182.236C167.195 183.225 169.523 184.349 171.972 185.636C173.703 183.861 175.999 182.18 180.767 180.758C191.37 177.594 194.943 174.442 200.356 173.788C205.772 173.132 205.373 171.391 208.836 171.045C211.891 170.74 211.477 170.992 216.666 171.737C221.855 172.481 222.809 172.779 228.599 170.7C236.234 167.48 236.314 170.194 240.658 169.029C240.599 167.315 240.443 165.708 240.199 164.201C236.367 164.101 232.787 156.36 229.349 160.445C226.441 163.036 220.415 162.385 215.168 162.626C209.62 162.882 207.78 160.746 202.069 161.449C196.485 161.911 187.593 167.536 180.758 170.539Z" fill="#221C35"/>
<path d="M117.227 22.2292C116.968 20.2953 119.776 17.0251 121.501 16.2422C121.827 16.1686 124.385 17.9523 124.759 21.2991C125.518 27.7364 122.234 26.406 121.936 28.7549C122.148 29.2788 121.506 27.445 120.303 27.8188C119.096 28.1927 118.769 27.7659 118.934 27.0094C119.272 25.4199 117.397 26.2735 117.227 22.2321V22.2292Z" fill="#221C35"/>
<path d="M130.69 27.3742C132.801 25.2284 134.237 19.3945 134.467 16.7777L134.337 17.022L134.099 13.9196L133.001 16.4951L133.43 13.7283L131.473 16.0183C131.991 18.5438 132.215 24.4278 129.513 26.9297C129.937 27.0563 130.69 27.3713 130.69 27.3713V27.3742Z" fill="#221C35"/>
<path d="M135.694 29.4347C140.242 24.2748 138.782 22.2968 139.577 19.7212L137.84 21.296L138.067 18.5115L136.674 20.1186L136.942 18.0964L135.42 20.7632C135.42 20.7632 136.945 24.9783 132.604 28.1101L135.694 29.4347Z" fill="#221C35"/>
<path d="M172.34 92.1836L172.488 94.9269L178.89 94.662L175.372 93.9733L178.457 92.1836L176.567 91.7862L178.857 90.2939L176.967 89.6964L178.433 89.0135C176.29 88.725 174.601 90.2998 172.34 92.1836Z" fill="#221C35"/>
<path d="M178.607 83.8566L181.294 82.2642L178.645 82.2524L181.088 80.969L177.117 81.8638C177.117 81.8638 180.399 80.1714 180.997 80.0742C178.177 80.3745 176.099 81.4341 170.28 80.969L171.457 86.8324C175.363 86.1878 178.572 84.4217 180.95 84.7926L178.607 83.8566Z" fill="#221C35"/>
<path d="M175.284 108.908C174.035 108.361 172.487 106.995 172.487 106.995L172.193 111.263C173.691 110.474 178.816 109.844 179.051 109.844C179.298 109.844 176.599 109.488 175.284 108.908Z" fill="#221C35"/>
<path d="M177.803 104.673L177.759 104.617C177.682 104.632 177.603 104.643 177.523 104.658L177.803 104.673Z" fill="#221C35"/>
<path d="M172.675 100.078C172.675 100.078 172.514 103.943 172.675 104.723C173.6 104.184 174.506 103.925 175.313 103.831L175.263 103.731L178.804 103.672L174.965 101.841L180.134 102.474L175.266 101.146L179.925 100.828L175.663 99.8513C175.663 99.8513 177.962 99.0683 178.63 98.7092C177.082 98.5767 172.675 100.078 172.675 100.078Z" fill="#221C35"/>
<path d="M167.483 69.9074L169.102 76.0887C171.127 74.1607 174.88 72.5654 178.869 73.4749L179.899 72.7008L177.103 71.9826L178.78 70.4255H176.902L178.348 68.8772C175.71 69.7926 172.77 70.2047 167.483 69.9074Z" fill="#221C35"/>
<path d="M164.246 62.6959L165.423 65.0507C170.353 65.3833 172.381 64.4679 175.607 62.5487L172.77 62.3751C172.77 62.3751 175.446 59.1784 175.607 58.8988C175.766 58.6192 172.97 60.4559 172.849 60.5354C172.746 60.6031 173.623 59.3492 173.891 58.9695C171.401 59.9643 170.574 61.6657 164.246 62.6959Z" fill="#221C35"/>
<path d="M159.242 53.3003L162.038 58.1335C165.226 56.8766 169.703 55.2342 172.832 53.0119L170.598 53.3356L172.275 50.4599L168.92 52.8176L170.957 49.9418L168.64 50.5423L169.4 48.8645L168.081 49.1029C168.081 49.1029 168.087 49.0941 168.093 49.0911C166.33 50.1743 163.975 51.2723 159.245 53.3033L159.242 53.3003Z" fill="#221C35"/>
<path d="M154.532 46.0652L156.004 48.5672C159.978 47.2426 162.038 47.0954 167.534 45.3588H164.834L166.977 42.8068L164.101 44.152L165.659 42.2887L163.342 42.8892L164.101 41.2114L162.783 41.4498C162.783 41.4498 162.789 41.441 162.795 41.4381C161.031 42.5213 159.265 44.0372 154.535 46.0681L154.532 46.0652Z" fill="#221C35"/>
<path d="M149.234 40.2371L151.736 42.8274C159.021 39.9192 159.454 39.6013 162.162 36.5607L159.274 37.4614L161.517 34.5032L158.653 36.1722L159.442 34.4355C155.265 38.9979 149.231 40.2342 149.231 40.2342L149.234 40.2371Z" fill="#221C35"/>
<path d="M154.87 32.8992L154.058 33.4172L154.82 30.8888L153.198 32.6078C153.198 32.6078 154.417 29.7673 154.641 29.1404C151.959 31.036 149.03 35.6131 144.083 35.1745L146.732 37.3821C151.294 35.7632 152.56 34.7683 154.87 32.8992Z" fill="#221C35"/>
<path d="M149.084 24.6957L149.331 24.1659L146.755 26.503L147.615 24.0688L145.946 25.6435L146.708 23.1151L145.039 24.5456L145.584 22.3674C143.25 25.9379 145.49 29.6731 138.496 31.0507L140.557 32.3752C151.191 29.8939 147.017 27.8658 149.09 24.6928L149.084 24.6957Z" fill="#221C35"/>
<path d="M133.601 134.052C136.471 139.877 144.716 135.462 150.117 133.257C154.046 131.614 156.828 127.084 164.09 122.557C168.617 119.102 172.317 115.943 172.29 111.249C170.238 113.665 167.201 116.526 163.557 117.81C152.448 122.425 147.035 132.524 133.598 134.055L133.601 134.052Z" fill="#221C35"/>
<path d="M113.895 81.8343H113.892C113.942 81.7813 113.995 81.7283 114.045 81.6724C104.949 80.9718 107.646 66.2162 94.8856 70.1899C94.0438 72.3681 89.7817 75.1379 90.6 76.8863C88.6926 81.0219 92.834 86.9765 95.0387 89.4402C96.3574 91.0885 99.6099 91.7391 101.458 91.7891C105.002 92.0452 108.037 87.4269 111.243 84.5629C112.134 83.671 113.023 82.7556 113.898 81.8343H113.895Z" fill="#221C35"/>
</svg>
